<?xml version="1.0" standalone="no"?>
<!DOCTYPE svg PUBLIC "-//W3C//DTD SVG 1.1//EN" "http://www.w3.org/Graphics/SVG/1.1/DTD/svg11.dtd" >
<svg xmlns="http://www.w3.org/2000/svg" xmlns:xlink="http://www.w3.org/1999/xlink" version="1.1">
<metadata>
Created by FontForge 20170731 at Wed Feb 17 19:01:43 2016
 By Aleksey,,,
Copyright 2016 Dalton Maag Ltd. Modification of this file requires prior written permission from Dalton Maag Ltd.
</metadata>
<defs>
<font id="AmazonEmberCdRC-BoldItalic" horiz-adv-x="486" >
  <font-face 
    font-family="Amazon Ember Cd RC"
    font-weight="700"
    font-style="italic"
    font-stretch="condensed"
    units-per-em="1000"
    panose-1="2 11 7 6 2 2 4 9 2 4"
    ascent="800"
    descent="-200"
    x-height="511"
    cap-height="693"
    bbox="-244 -287 1086 977"
    underline-thickness="80"
    underline-position="-229"
    slope="-11.04"
    unicode-range="U+0008-FFFD"
  />
<missing-glyph horiz-adv-x="500" 
d="M50 0v750h400v-750h-400zM400 50v650h-300v-650h300z" />
    <glyph glyph-name="ff" unicode="ff" horiz-adv-x="593" 
d="M25 0l80 413h-64l15 79l68 17l11 56q19 99 65.5 144t128.5 45q38 0 65 -18l-17 -87q-15 3 -33 3q-32 0 -50 -19t-26 -61l-12 -61h143l11 54q19 99 65.5 144t128.5 45q23 0 46 -6t40 -16l-17 -87q-32 7 -54 7q-32 0 -50 -19t-26 -61l-12 -61h111l-19 -98h-111l-80 -413
h-132l80 413h-143l-80 -413h-132z" />
    <glyph glyph-name="fi" unicode="fi" horiz-adv-x="553" 
d="M380 413h-143l-80 -413h-132l80 413h-64l15 79l68 17l11 56q19 99 65.5 144t128.5 45q38 0 65 -18l-17 -87q-15 3 -33 3q-32 0 -50 -19t-26 -61l-12 -61h275l-99 -511h-132zM497 594q-35 0 -55.5 18.5t-20.5 49.5q0 37 24 60.5t61 23.5q35 0 55.5 -18.5t20.5 -49.5
q0 -37 -24 -60.5t-61 -23.5z" />
    <glyph glyph-name="fl" unicode="fl" horiz-adv-x="580" 
d="M25 0l80 413h-64l15 79l68 17l11 56q19 99 65.5 144t128.5 45q38 0 65 -18l-17 -87q-15 3 -33 3q-32 0 -50 -19t-26 -61l-12 -61h90l-19 -98h-90l-80 -413h-132zM542 25q-45 -31 -115 -31q-103 0 -103 113q0 31 18 124l99 509h132l-100 -515q-10 -47 -12 -63.5t-2 -32.5
q0 -33 31 -33q18 0 32 6z" />
    <glyph glyph-name="ffi" unicode="ffi" horiz-adv-x="828" 
d="M300 0l80 413h-143l-80 -413h-132l80 413h-64l15 79l68 17l11 56q19 99 65.5 144t128.5 45q38 0 65 -18l-17 -87q-15 3 -33 3q-32 0 -50 -19t-26 -61l-12 -61h143l11 54q19 99 65.5 144t128.5 45q38 0 65 -18l-17 -87q-15 3 -33 3q-32 0 -50 -19t-26 -61l-12 -61h275
l-99 -511h-132l80 413h-143l-80 -413h-132zM772 594q-35 0 -55.5 18.5t-20.5 49.5q0 37 24 60.5t61 23.5q35 0 55.5 -18.5t20.5 -49.5q0 -37 -24 -60.5t-61 -23.5z" />
    <glyph glyph-name="ffl" unicode="ffl" horiz-adv-x="855" 
d="M300 0l80 413h-143l-80 -413h-132l80 413h-64l15 79l68 17l11 56q19 99 65.5 144t128.5 45q38 0 65 -18l-17 -87q-15 3 -33 3q-32 0 -50 -19t-26 -61l-12 -61h143l11 54q19 99 65.5 144t128.5 45q38 0 65 -18l-17 -87q-15 3 -33 3q-32 0 -50 -19t-26 -61l-12 -61h90
l-19 -98h-90l-80 -413h-132zM817 25q-45 -31 -115 -31q-103 0 -103 113q0 31 18 124l99 509h132l-100 -515q-10 -47 -12 -63.5t-2 -32.5q0 -33 31 -33q18 0 32 6z" />
    <glyph glyph-name=".notdef" horiz-adv-x="500" 
d="M50 0v750h400v-750h-400zM400 50v650h-300v-650h300z" />
    <glyph glyph-name=".null" horiz-adv-x="0" 
 />
    <glyph glyph-name=".null" horiz-adv-x="0" 
 />
    <glyph glyph-name=".null" horiz-adv-x="0" 
 />
    <glyph glyph-name="nonmarkingreturn" unicode="&#x9;" horiz-adv-x="211" 
 />
    <glyph glyph-name="nonmarkingreturn" unicode="&#xd;" horiz-adv-x="211" 
 />
    <glyph glyph-name="space" unicode=" " horiz-adv-x="211" 
 />
    <glyph glyph-name="exclam" unicode="!" horiz-adv-x="256" 
d="M67 229l72 462q40 19 77 19q36 0 69 -19l-115 -462h-103zM87 -13q-34 0 -55 20t-21 53q0 40 26 67.5t64 27.5q34 0 55 -20t21 -53q0 -40 -26 -67.5t-64 -27.5z" />
    <glyph glyph-name="quotedbl" unicode="&#x22;" horiz-adv-x="415" 
d="M91 434l41 254q36 19 69 19q34 0 61 -19l-76 -254h-95zM281 434l41 254q36 19 69 19q34 0 61 -19l-76 -254h-95z" />
    <glyph glyph-name="numbersign" unicode="#" 
d="M257 175h-94l-55 -175h-92l55 175h-67l17 86h77l55 174h-76l17 86h86l55 172h92l-55 -172h94l55 172h92l-55 -172h57l-17 -86h-67l-55 -174h66l-17 -86h-76l-55 -175h-92zM190 261h94l55 174h-94z" />
    <glyph glyph-name="dollar" unicode="$" 
d="M132 -130l24 126q-85 12 -143 64l19 96q40 -30 74 -45t69 -18l42 211l-38 24q-48 30 -70.5 69t-22.5 90q0 60 28.5 108t75.5 74.5t103 26.5l24 121h62l-25 -128q61 -13 112 -54l-18 -94q-28 22 -53.5 33.5t-59.5 19.5l-41 -212l35 -22q51 -31 74 -67t23 -83
q0 -95 -56 -153t-152 -63l-24 -124h-62zM200 490q0 -24 9 -40.5t30 -32.5l35 180q-34 -4 -54 -33t-20 -74zM311 200q0 21 -9 37t-30 32l-35 -178q35 5 54.5 34.5t19.5 74.5z" />
    <glyph glyph-name="percent" unicode="%" horiz-adv-x="790" 
d="M168 0l389 693h100l-389 -693h-100zM634 327q-23 0 -40 -30.5t-27 -80.5t-10 -90q0 -57 28 -57q23 0 40 30.5t27 80.5t10 90q0 57 -28 57zM579 -8q-55 0 -84.5 37t-29.5 106q0 68 24 134t62.5 100.5t88.5 34.5q55 0 84.5 -37t29.5 -106q0 -68 -24 -134t-62.5 -100.5
t-88.5 -34.5zM240 624q-23 0 -40 -30.5t-27 -80.5t-10 -90q0 -57 28 -57q23 0 40 30.5t27 80.5t10 90q0 57 -28 57zM185 289q-55 0 -84.5 37t-29.5 106q0 68 24 134t62.5 100.5t88.5 34.5q55 0 84.5 -37t29.5 -106q0 -68 -24 -134t-62.5 -100.5t-88.5 -34.5z" />
    <glyph glyph-name="ampersand" unicode="&#x26;" horiz-adv-x="599" 
d="M551 23q-19 -14 -43.5 -22.5t-49.5 -8.5q-32 0 -55 11.5t-43 36.5q-77 -55 -168 -55q-53 0 -93.5 22t-62 60t-21.5 87q0 73 42 130.5t124 96.5q-36 77 -36 141q0 54 25.5 96.5t67.5 66t93 23.5q64 0 104.5 -37t40.5 -96q0 -61 -38 -114t-110 -94l-16 -9l80 -157
q39 75 57 184h105q-32 -165 -116 -271q10 -12 22 -17t29 -5q22 0 41 7zM227 86q51 0 90 27l-100 198q-38 -21 -59 -55t-21 -76q0 -44 23.5 -69t66.5 -25zM254 523q0 -45 24 -96l15 9q34 20 53 52t19 69q0 30 -12 46.5t-34 16.5q-29 0 -47 -27t-18 -70z" />
    <glyph glyph-name="quotesingle" unicode="'" horiz-adv-x="225" 
d="M91 434l41 254q36 19 69 19q34 0 61 -19l-76 -254h-95z" />
    <glyph glyph-name="parenleft" unicode="(" horiz-adv-x="296" 
d="M93 -144q-24 65 -37 137t-13 142q0 165 55 325t157 294h130q-96 -136 -150 -305.5t-54 -337.5q0 -155 30 -255h-118z" />
    <glyph glyph-name="parenright" unicode=")" horiz-adv-x="296" 
d="M222 754q24 -65 37 -137t13 -142q0 -165 -55 -325t-157 -294h-130q96 136 150 305.5t54 337.5q0 155 -30 255h118z" />
    <glyph glyph-name="asterisk" unicode="*" horiz-adv-x="338" 
d="M268 504l71 -78q-34 -55 -86 -61l-37 110l-84 -110q-48 7 -62 61l99 79l-106 20q6 56 52 93l85 -57l7 124q28 13 50 13q27 0 45 -13l-40 -123l106 56q19 -24 19 -56q0 -20 -10 -37z" />
    <glyph glyph-name="plus" unicode="+" 
d="M306 296l-33 -168h-109l33 168h-138l20 102h138l33 168h109l-33 -168h138l-20 -102h-138z" />
    <glyph glyph-name="comma" unicode="," horiz-adv-x="248" 
d="M-54 -159l106 304h63q30 0 44 -11t14 -34q-1 -20 -9.5 -39t-18.5 -36l-109 -184h-90z" />
    <glyph glyph-name="hyphen" unicode="-" horiz-adv-x="340" 
d="M24 203l21 110h272l-21 -110h-272z" />
    <glyph glyph-name="period" unicode="." horiz-adv-x="248" 
d="M81 -13q-34 0 -55 20t-21 53q0 40 26 67.5t64 27.5q34 0 55 -20t21 -53q0 -40 -26 -67.5t-64 -27.5z" />
    <glyph glyph-name="slash" unicode="/" horiz-adv-x="420" 
d="M-68 -144l438 898h137l-438 -898h-137z" />
    <glyph glyph-name="zero" unicode="0" 
d="M202 -13q-80 0 -123 58.5t-43 168.5q0 94 23 191t60.5 165t86 103t105.5 35q80 0 123 -58.5t43 -168.5q0 -94 -23 -191t-60.5 -165t-86 -103t-105.5 -35zM302 599q-41 0 -71 -65t-48 -169t-18 -186q0 -83 46 -83q41 0 71 65t48 169t18 186q0 83 -46 83z" />
    <glyph glyph-name="one" unicode="1" 
d="M168 0l107 550l-146 -58l22 115l170 86h116l-135 -693h-134z" />
    <glyph glyph-name="two" unicode="2" 
d="M466 543q0 -52 -24.5 -107t-85 -128.5t-185.5 -196.5h236l-22 -111h-385l20 103q127 132 190.5 205t91 121.5t27.5 91.5q0 35 -19 53t-55 18q-35 0 -65 -12.5t-73 -45.5l-17 100q86 74 197 74q78 0 123.5 -44.5t45.5 -120.5z" />
    <glyph glyph-name="three" unicode="3" 
d="M29 126q34 -17 64 -25t64 -8q57 0 91.5 36t34.5 94q0 41 -25.5 63t-74.5 22q-29 0 -56 -5l17 86l188 195h-215l21 109h354l-20 -101l-192 -199q62 -2 98.5 -44.5t36.5 -113.5q0 -74 -33 -130.5t-89.5 -87t-126.5 -30.5q-44 0 -85 11t-71 31z" />
    <glyph glyph-name="four" unicode="4" 
d="M228 0l27 141h-253l19 99l333 453h122l-88 -450h73l-20 -102h-73l-27 -141h-113zM275 243l50 258l-187 -258h137z" />
    <glyph glyph-name="five" unicode="5" 
d="M44 125q61 -32 128 -32q57 0 93 38t36 101q0 92 -106 92q-23 0 -43 -2t-64 -9l12 59l75 321h327l-21 -109h-218l-39 -166q38 6 54 6q71 0 113 -48t42 -130q0 -78 -33.5 -137t-91 -90.5t-129.5 -31.5q-44 0 -84 10.5t-70 30.5z" />
    <glyph glyph-name="six" unicode="6" 
d="M487 579q-26 14 -49 19.5t-52 5.5q-69 0 -121 -57t-76 -157q64 33 125 33q65 0 103.5 -45t38.5 -121q0 -77 -32 -139t-84.5 -96.5t-114.5 -34.5q-87 0 -134.5 61t-47.5 173q0 141 46 253t121.5 173t166.5 61q43 0 73 -8t55 -25zM248 322q-31 0 -73 -18q-3 -33 -3 -69
q0 -144 69 -144q35 0 59 43.5t24 104.5q0 41 -19.5 62t-56.5 21z" />
    <glyph glyph-name="seven" unicode="7" 
d="M49 0l311 582h-261l22 111h397l-21 -107l-304 -586h-144z" />
    <glyph glyph-name="eight" unicode="8" 
d="M493 557q0 -132 -130 -204q42 -37 60 -72.5t18 -79.5q0 -63 -32 -112t-85.5 -75.5t-118.5 -26.5q-85 0 -135 44t-50 118q0 73 40.5 131.5t110.5 86.5q-57 54 -57 133q0 59 30 107t78.5 74.5t104.5 26.5q76 0 121 -41t45 -110zM242 311l-11 -4q-37 -15 -59.5 -52.5
t-22.5 -86.5q0 -38 19 -59.5t51 -21.5q40 0 67 31t27 76q0 34 -15.5 60.5t-52.5 54.5zM238 503q0 -29 12 -51.5t38 -40.5l4 -3l8 4q32 14 50.5 49t18.5 79q0 35 -14.5 54t-41.5 19q-32 0 -53.5 -31.5t-21.5 -78.5z" />
    <glyph glyph-name="nine" unicode="9" 
d="M141 91q62 0 109 52.5t71 145.5q-27 -15 -59 -23.5t-60 -8.5q-66 0 -104 49t-38 135q0 77 31.5 138.5t83.5 95t114 33.5q86 0 133.5 -63t47.5 -177q0 -142 -43.5 -252t-117.5 -169.5t-165 -59.5q-80 0 -135 45l19 95q61 -36 113 -36zM262 357q32 0 74 16q5 48 5 91
q0 140 -67 140q-35 0 -58.5 -43t-23.5 -108q0 -46 18 -71t52 -25z" />
    <glyph glyph-name="colon" unicode=":" horiz-adv-x="248" 
d="M81 -13q-34 0 -55 20t-21 53q0 40 26 67.5t64 27.5q34 0 55 -20t21 -53q0 -40 -26 -67.5t-64 -27.5zM153 354q-34 0 -55 20t-21 53q0 40 26 67.5t64 27.5q34 0 55 -20t21 -53q0 -40 -26 -67.5t-64 -27.5z" />
    <glyph glyph-name="semicolon" unicode=";" horiz-adv-x="248" 
d="M-54 -159l106 304h63q30 0 44 -11t14 -34q-1 -20 -9.5 -39t-18.5 -36l-109 -184h-90zM153 354q-34 0 -55 20t-21 53q0 40 26 67.5t64 27.5q34 0 55 -20t21 -53q0 -40 -26 -67.5t-64 -27.5z" />
    <glyph glyph-name="less" unicode="&#x3c;" 
d="M70 294l20 106l395 189l-25 -130l-257 -117l210 -117l-23 -120z" />
    <glyph glyph-name="equal" unicode="=" 
d="M37 185l20 102h385l-20 -102h-385zM80 407l20 102h385l-20 -102h-385z" />
    <glyph glyph-name="greater" unicode="&#x3e;" 
d="M32 105l25 130l257 117l-210 117l23 120l320 -189l-20 -106z" />
    <glyph glyph-name="question" unicode="?" horiz-adv-x="376" 
d="M125 -13q-34 0 -55 20t-21 53q0 40 26 67.5t64 27.5q34 0 55 -20t21 -53q0 -40 -26 -67.5t-64 -27.5zM101 229l20 140l56 29q48 25 72.5 60.5t24.5 78.5q0 65 -68 65q-51 0 -108 -41l-14 90q32 27 75 42t89 15q72 0 115 -42.5t43 -112.5q0 -69 -45 -126.5t-141 -110.5
l-17 -87h-102z" />
    <glyph glyph-name="at" unicode="@" horiz-adv-x="825" 
d="M490 -167q-84 -39 -172 -39q-142 0 -221 78.5t-79 221.5q0 125 40 232t107 182.5t150.5 116t173.5 40.5q146 0 229 -76t83 -212q0 -111 -34.5 -199.5t-90.5 -138t-121 -49.5q-85 0 -104 89q-28 -44 -63 -67.5t-74 -23.5q-45 0 -70 37.5t-25 105.5q0 95 35.5 174t93 122
t123.5 43q29 0 71.5 -10.5t73.5 -25.5l-56 -240q-13 -54 -13 -80q0 -18 7 -28.5t18 -10.5q32 0 63 45.5t48.5 111.5t17.5 133q0 100 -57 153.5t-162 53.5q-98 0 -180.5 -67.5t-128 -175t-45.5 -230.5q0 -104 53 -158t154 -54q58 0 141 28zM368 77q18 0 40 20.5t42 56.5
l51 221q-22 6 -41 6q-36 0 -64.5 -32t-44 -85t-15.5 -115q0 -72 32 -72z" />
    <glyph glyph-name="A" unicode="A" horiz-adv-x="539" 
d="M341 0l-4 166h-166l-67 -166h-147l322 693h154l50 -693h-142zM211 264h125l-7 291z" />
    <glyph glyph-name="B" unicode="B" horiz-adv-x="534" 
d="M18 0l135 693h206q73 0 116 -42.5t43 -114.5q0 -65 -30.5 -114t-83.5 -70q41 -20 63 -53.5t22 -75.5q0 -68 -32 -118.5t-88 -77.5t-129 -27h-222zM205 307l-41 -209h91q44 0 71.5 37t27.5 96q0 35 -18 55.5t-49 20.5h-82zM261 595l-38 -195h75q40 0 65.5 34.5t25.5 90.5
q0 32 -15.5 51t-42.5 19h-70z" />
    <glyph glyph-name="C" unicode="C" horiz-adv-x="522" 
d="M461 52q-40 -33 -90 -50t-104 -17q-97 0 -153 66.5t-56 182.5q0 137 50 246t131.5 168.5t178.5 59.5q76 0 132 -36l-20 -104q-48 27 -104 27q-65 0 -117 -46.5t-80.5 -123t-28.5 -168.5q0 -77 26.5 -117.5t76.5 -40.5q31 0 62.5 12.5t71.5 40.5z" />
    <glyph glyph-name="D" unicode="D" horiz-adv-x="591" 
d="M18 0l135 693h190q104 0 163.5 -67.5t59.5 -185.5q0 -127 -45.5 -228t-121 -156.5t-165.5 -55.5h-216zM267 588l-94 -483h62q55 0 99 46t68.5 121.5t24.5 164.5q0 72 -25.5 111.5t-72.5 39.5h-62z" />
    <glyph glyph-name="E" unicode="E" horiz-adv-x="466" 
d="M18 0l135 693h365l-21 -105h-230l-35 -180h184l-21 -105h-184l-38 -198h230l-20 -105h-365z" />
    <glyph glyph-name="F" unicode="F" horiz-adv-x="431" 
d="M18 0l135 693h347l-20 -105h-213l-37 -190h167l-21 -105h-166l-57 -293h-135z" />
    <glyph glyph-name="G" unicode="G" horiz-adv-x="584" 
d="M302 97q39 0 73 12l35 176h-95l19 99h218l-67 -344q-36 -25 -87.5 -40t-105.5 -15q-110 0 -171.5 67.5t-61.5 187.5q0 135 50 242.5t133.5 166.5t183.5 59q98 0 162 -40l-20 -104q-64 32 -138 32q-67 0 -119.5 -46t-81.5 -122.5t-29 -167.5q0 -79 26 -121t76 -42z" />
    <glyph glyph-name="H" unicode="H" horiz-adv-x="593" 
d="M341 0l59 301h-188l-59 -301h-135l135 693h135l-56 -287h188l56 287h135l-135 -693h-135z" />
    <glyph glyph-name="I" unicode="I" horiz-adv-x="270" 
d="M153 0h-135l135 693h135z" />
    <glyph glyph-name="J" unicode="J" horiz-adv-x="368" 
d="M254 693h135l-97 -498q-21 -106 -71.5 -158t-133.5 -52q-60 0 -118 27l20 101q49 -15 84 -15t55.5 26.5t31.5 84.5z" />
    <glyph glyph-name="K" unicode="K" horiz-adv-x="549" 
d="M18 0l135 693h135l-60 -309l228 309h162l-275 -338l158 -355h-153l-130 333l-65 -333h-135z" />
    <glyph glyph-name="L" unicode="L" horiz-adv-x="427" 
d="M18 0l135 693h135l-114 -584h219l-21 -109h-354z" />
    <glyph glyph-name="M" unicode="M" horiz-adv-x="700" 
d="M462 0l97 498l-168 -327h-116l-38 334l-98 -505h-121l135 693h158l46 -398l207 398h154l-135 -693h-121z" />
    <glyph glyph-name="N" unicode="N" horiz-adv-x="593" 
d="M325 0l-95 504l-98 -504h-114l135 693h153l94 -496l97 496h114l-135 -693h-151z" />
    <glyph glyph-name="O" unicode="O" horiz-adv-x="639" 
d="M293 -15q-110 0 -171 70t-61 195q0 89 26 178.5t69.5 152.5t100.5 95t125 32q110 0 171 -70t61 -195q0 -89 -26 -178.5t-69.5 -152.5t-100.5 -95t-125 -32zM379 597q-56 0 -95 -50.5t-61.5 -137.5t-22.5 -174q0 -68 24.5 -103.5t71.5 -35.5q56 0 95 50.5t61.5 137.5
t22.5 174q0 68 -24.5 103.5t-71.5 35.5z" />
    <glyph glyph-name="P" unicode="P" horiz-adv-x="526" 
d="M18 0l135 693h198q83 0 129.5 -46.5t46.5 -127.5q0 -79 -33 -138.5t-90 -91.5t-130 -32h-74l-50 -257h-132zM220 359h56q53 0 85 41t32 108q0 40 -19 61.5t-56 21.5h-53z" />
    <glyph glyph-name="Q" unicode="Q" horiz-adv-x="639" 
d="M498 -171q-150 28 -249 160q-90 13 -139 81t-49 180q0 89 26 178.5t69.5 152.5t100.5 95t125 32q110 0 171 -70t61 -195q0 -100 -32 -198.5t-85.5 -162t-123.5 -85.5q53 -33 148 -49zM379 597q-56 0 -95 -50.5t-61.5 -137.5t-22.5 -174q0 -68 24.5 -103.5t71.5 -35.5
q56 0 95 50.5t61.5 137.5t22.5 174q0 68 -24.5 103.5t-71.5 35.5z" />
    <glyph glyph-name="R" unicode="R" horiz-adv-x="523" 
d="M333 0l-84 272h-49l-53 -272h-129l135 693h197q82 0 129.5 -46t47.5 -126q0 -86 -41 -148t-115 -87l94 -286h-132zM218 368h63q51 0 81.5 38.5t30.5 103.5q0 40 -20 61t-56 21h-55z" />
    <glyph glyph-name="S" unicode="S" horiz-adv-x="470" 
d="M184 314q-53 34 -76 72t-23 90q0 68 32 121t86 82t120 29q91 0 153 -44l-20 -101q-46 35 -114 35q-56 0 -87 -26.5t-31 -74.5q0 -25 12 -42.5t44 -38.5l52 -34q49 -33 71 -70t22 -88q0 -70 -34 -125t-91 -84.5t-126 -29.5q-56 0 -98.5 12t-76.5 38l20 100q58 -40 137 -40
q57 0 92.5 29t35.5 77q0 27 -13.5 46.5t-46.5 40.5z" />
    <glyph glyph-name="T" unicode="T" horiz-adv-x="481" 
d="M123 0l114 584h-162l21 109h459l-21 -109h-162l-114 -584h-135z" />
    <glyph glyph-name="U" unicode="U" horiz-adv-x="584" 
d="M470 693h135l-90 -463q-48 -246 -261 -246q-89 0 -142.5 52t-53.5 138q0 51 25 180l66 339h135l-68 -351q-16 -81 -20.5 -108t-4.5 -48q0 -44 20.5 -67.5t59.5 -23.5q43 0 69 31.5t39 98.5z" />
    <glyph glyph-name="V" unicode="V" horiz-adv-x="533" 
d="M146 0l-54 693h145l10 -545l216 545h149l-321 -693h-145z" />
    <glyph glyph-name="W" unicode="W" horiz-adv-x="763" 
d="M407 0l28 530l-177 -530h-149l-10 693h142l-26 -546l174 518h147l-28 -516l182 544h145l-279 -693h-149z" />
    <glyph glyph-name="X" unicode="X" horiz-adv-x="506" 
d="M311 0l-62 246l-153 -246h-141l254 372l-100 321h140l55 -229l137 229h139l-236 -342l108 -351h-141z" />
    <glyph glyph-name="Y" unicode="Y" horiz-adv-x="508" 
d="M136 0l50 256l-92 437h139l41 -329l165 329h145l-265 -438l-50 -255h-133z" />
    <glyph glyph-name="Z" unicode="Z" horiz-adv-x="480" 
d="M-20 0l19 98l361 486h-255l21 109h406l-19 -98l-361 -486h270l-21 -109h-421z" />
    <glyph glyph-name="bracketleft" unicode="[" horiz-adv-x="305" 
d="M-9 -144l174 898h226l-19 -100h-91l-135 -698h90l-19 -100h-226z" />
    <glyph glyph-name="backslash" unicode="\" horiz-adv-x="420" 
d="M306 -144h-126l-78 898h126z" />
    <glyph glyph-name="bracketright" unicode="]" horiz-adv-x="305" 
d="M334 754l-174 -898h-226l19 100h91l135 698h-90l19 100h226z" />
    <glyph glyph-name="asciicircum" unicode="^" 
d="M330 289l-28 267l-128 -267h-133l232 404h108l73 -404h-124z" />
    <glyph glyph-name="underscore" unicode="_" horiz-adv-x="400" 
d="M-81 -163l20 104h400l-20 -104h-400z" />
    <glyph glyph-name="grave" unicode="`" horiz-adv-x="500" 
d="M307 600l-82 167h136l50 -167h-104z" />
    <glyph glyph-name="a" unicode="a" horiz-adv-x="480" 
d="M265 0v69q-60 -82 -134 -82q-50 0 -77.5 41.5t-27.5 117.5q0 111 38 197.5t101.5 133.5t140.5 47q33 0 78.5 -11.5t81.5 -28.5l-94 -484h-107zM194 87q35 0 75 62l55 276q-15 3 -26 3q-40 0 -72 -37t-50 -96.5t-18 -128.5q0 -38 9.5 -58.5t26.5 -20.5z" />
    <glyph glyph-name="b" unicode="b" horiz-adv-x="482" 
d="M179 -13q-37 0 -83.5 11t-80.5 29l138 713h132l-55 -282q53 66 123 66q50 0 77 -42.5t27 -120.5q0 -110 -37.5 -196t-100.5 -132t-140 -46zM287 424q-35 0 -75 -59l-55 -280q7 -1 13.5 -1.5t12.5 -0.5q42 0 74.5 34.5t50 93.5t17.5 128q0 85 -38 85z" />
    <glyph glyph-name="c" unicode="c" horiz-adv-x="391" 
d="M342 44q-33 -28 -75.5 -42.5t-89.5 -14.5q-71 0 -109.5 48t-38.5 136q0 100 37.5 181.5t98 126.5t130.5 45q57 0 109 -28l-18 -92q-44 18 -81 18q-42 0 -75 -32.5t-51 -86t-18 -117.5q0 -49 15 -73t47 -24q22 0 43.5 8t51.5 27z" />
    <glyph glyph-name="d" unicode="d" horiz-adv-x="484" 
d="M269 0v69q-61 -82 -138 -82q-105 0 -105 157q0 111 35.5 198t95.5 134.5t133 47.5q27 0 54 -11l44 227h132l-144 -740h-107zM194 87q36 0 79 60l55 277q-19 4 -35 4q-38 0 -69.5 -37.5t-48.5 -97.5t-17 -129q0 -77 36 -77z" />
    <glyph glyph-name="e" unicode="e" horiz-adv-x="427" 
d="M355 46q-86 -59 -185 -59q-69 0 -106 45t-37 128q0 106 36.5 189.5t97.5 129t134 45.5q55 0 89 -32.5t34 -85.5q0 -84 -57 -140.5t-169 -84.5l-45 -12q1 -48 15 -65t51 -17q28 0 59 9.5t59 27.5zM273 432q-25 0 -51 -24t-44 -64.5t-26 -91.5l46 14q52 15 81 47.5t29 75.5
t-35 43z" />
    <glyph glyph-name="f" unicode="f" horiz-adv-x="318" 
d="M25 0l80 413h-64l15 79l68 17l11 56q19 99 65.5 144t128.5 45q23 0 46 -6t40 -16l-17 -87q-32 7 -54 7q-32 0 -50 -19t-26 -61l-12 -61h111l-19 -98h-111l-80 -413h-132z" />
    <glyph glyph-name="g" unicode="g" 
d="M263 84q-27 -37 -59 -56t-65 -19q-52 0 -81.5 41t-29.5 113q0 106 37.5 188.5t100 127.5t138.5 45q40 0 85.5 -11t82.5 -29l-82 -422q-28 -143 -95.5 -211.5t-179.5 -68.5q-77 0 -135 36l18 94q59 -28 112 -28q62 0 96.5 42t54.5 145zM198 109q16 0 39 18.5t45 49.5
l48 248q-16 3 -30 3q-39 0 -71 -35.5t-50.5 -91.5t-18.5 -117q0 -36 10 -55.5t28 -19.5z" />
    <glyph glyph-name="h" unicode="h" horiz-adv-x="504" 
d="M266 0l53 273q15 75 15 105q0 44 -31 44q-36 0 -92 -65l-69 -357h-132l144 740h132l-57 -292q30 36 65 56t70 20q51 0 77 -32t26 -93q0 -43 -16 -127l-53 -272h-132z" />
    <glyph glyph-name="i" unicode="i" horiz-adv-x="256" 
d="M112 511h132l-99 -511h-132zM200 594q-35 0 -55.5 18.5t-20.5 49.5q0 37 24 60.5t61 23.5q35 0 55.5 -18.5t20.5 -49.5q0 -37 -24 -60.5t-61 -23.5z" />
    <glyph glyph-name="j" unicode="j" horiz-adv-x="256" 
d="M-23 -218q-55 0 -95 24l16 84q24 -6 49 -6q23 0 37 19t22 61l106 547h132l-106 -545q-18 -93 -58 -138.5t-103 -45.5zM200 594q-35 0 -55.5 18.5t-20.5 49.5q0 37 24 60.5t61 23.5q35 0 55.5 -18.5t20.5 -49.5q0 -37 -24 -60.5t-61 -23.5z" />
    <glyph glyph-name="k" unicode="k" horiz-adv-x="477" 
d="M10 0l144 740h130l-86 -442l158 213h151l-198 -245l118 -266h-142l-97 247l-48 -247h-130z" />
    <glyph glyph-name="l" unicode="l" horiz-adv-x="292" 
d="M254 25q-45 -31 -115 -31q-103 0 -103 113q0 31 18 124l99 509h132l-100 -515q-10 -47 -12 -63.5t-2 -32.5q0 -33 31 -33q18 0 32 6z" />
    <glyph glyph-name="m" unicode="m" horiz-adv-x="748" 
d="M510 0l53 273q15 79 15 105q0 44 -28 44q-19 0 -45.5 -21.5t-46.5 -51.5l-14 -81l-52 -268h-132l53 273q15 75 15 105q0 44 -28 44q-17 0 -43 -19.5t-46 -47.5l-69 -355h-132l99 511h107v-76q29 41 66 65t73 24q45 0 71 -24.5t32 -71.5q30 45 69.5 70.5t78.5 25.5
q52 0 78.5 -32t26.5 -93q0 -43 -16 -127l-53 -272h-132z" />
    <glyph glyph-name="n" unicode="n" horiz-adv-x="504" 
d="M266 0l53 273q15 75 15 105q0 44 -31 44q-36 0 -92 -65l-69 -357h-132l99 511h107v-77q31 42 70 66t78 24q51 0 77 -32t26 -93q0 -43 -16 -127l-53 -272h-132z" />
    <glyph glyph-name="o" unicode="o" horiz-adv-x="472" 
d="M201 -13q-80 0 -125 52.5t-45 144.5q0 87 32.5 170t86 126.5t122.5 43.5q80 0 125 -52.5t45 -144.5q0 -87 -32.5 -170t-86 -126.5t-122.5 -43.5zM267 422q-33 0 -56 -36.5t-36.5 -98.5t-13.5 -120q0 -38 11.5 -58t33.5 -20q33 0 56 36.5t36.5 98.5t13.5 120
q0 38 -11.5 58t-33.5 20z" />
    <glyph glyph-name="p" unicode="p" horiz-adv-x="484" 
d="M-31 -206l140 717h107v-68q60 81 137 81q50 0 77 -42.5t27 -120.5q0 -110 -35.5 -196t-95.5 -132t-133 -46q-25 0 -53 11l-39 -204h-132zM287 424q-35 0 -76 -62l-54 -277q9 -2 26 -2q42 0 74.5 34.5t50 93.5t17.5 128q0 85 -38 85z" />
    <glyph glyph-name="q" unicode="q" horiz-adv-x="484" 
d="M204 -206l51 262q-55 -69 -123 -69q-50 0 -78 41.5t-28 117.5q0 111 38 197.5t101.5 133.5t141.5 47q33 0 80 -11.5t83 -28.5l-134 -690h-132zM195 87q18 0 38.5 16.5t40.5 46.5l53 275q-16 3 -28 3q-40 0 -72.5 -37t-50.5 -97t-18 -128q0 -38 10 -58.5t27 -20.5z" />
    <glyph glyph-name="r" unicode="r" horiz-adv-x="337" 
d="M10 0l99 511h107v-70q27 36 61 55.5t69 19.5q19 0 37 -6l-23 -117q-30 6 -57 6q-52 0 -89 -31l-72 -368h-132z" />
    <glyph glyph-name="s" unicode="s" horiz-adv-x="373" 
d="M128 228q-41 29 -59 58.5t-18 65.5q0 78 48.5 125t132.5 47q77 0 130 -32l-17 -89q-61 24 -102 24q-32 0 -49.5 -14t-17.5 -38q0 -20 9.5 -34t39.5 -35l30 -21q42 -30 59 -58t17 -66q0 -84 -51 -129t-144 -45q-37 0 -76.5 10.5t-69.5 28.5l18 89q70 -31 128 -31
q68 0 68 55q0 21 -10 35.5t-36 32.5z" />
    <glyph glyph-name="t" unicode="t" horiz-adv-x="337" 
d="M300 37q-24 -20 -60 -32t-71 -12q-125 0 -125 121q0 15 2.5 34.5t13.5 74.5l37 190h-61l16 79l66 17l47 140h108l-26 -138h106l-19 -98h-105l-35 -177q-14 -75 -14 -100q0 -40 41 -40q13 0 29.5 5t28.5 12z" />
    <glyph glyph-name="u" unicode="u" horiz-adv-x="497" 
d="M282 0v73q-27 -37 -66.5 -61.5t-72.5 -24.5q-52 0 -78.5 31.5t-26.5 90.5q0 52 16 130l53 272h132l-53 -273q-5 -26 -8.5 -44t-5 -32.5t-1.5 -28.5q0 -44 32 -44q16 0 38.5 16.5t44.5 44.5l70 361h132l-99 -511h-107z" />
    <glyph glyph-name="v" unicode="v" horiz-adv-x="423" 
d="M100 0l-52 511h135l8 -398q35 79 65.5 167.5t71.5 230.5h135q-39 -116 -104 -255t-135 -256h-124z" />
    <glyph glyph-name="w" unicode="w" horiz-adv-x="639" 
d="M337 0l7 395l-128 -395h-125l-41 511h131l3 -374l122 374h124l-8 -410q66 179 123 410h132q-22 -87 -86 -238t-128 -273h-126z" />
    <glyph glyph-name="x" unicode="x" horiz-adv-x="419" 
d="M231 0l-41 160l-93 -160h-142l194 266l-92 245h133l40 -151l91 151h140l-190 -257l94 -254h-134z" />
    <glyph glyph-name="y" unicode="y" horiz-adv-x="420" 
d="M-60 -127q76 33 109 61t57 68l-58 509h135l15 -388q65 169 128 388h134q-28 -90 -73.5 -198t-94 -202t-87.5 -151q-53 -78 -104.5 -121.5t-108.5 -58.5z" />
    <glyph glyph-name="z" unicode="z" horiz-adv-x="396" 
d="M-24 0l18 95l256 313h-188l20 103h333l-18 -95l-256 -313h200l-20 -103h-345z" />
    <glyph glyph-name="braceleft" unicode="{" horiz-adv-x="328" 
d="M261 -128q-50 -24 -107 -24q-117 0 -117 120q0 46 14 116l15 78q8 45 8 72q0 19 -8.5 27t-27.5 8h-14l19 98h17q27 0 39 13.5t20 52.5l27 139q20 104 59.5 147t113.5 43q42 0 93 -19l-17 -89q-28 8 -43 8q-29 0 -45 -17.5t-25 -62.5l-27 -140q-10 -53 -40.5 -84.5
t-84.5 -43.5q79 -10 79 -82q0 -27 -11 -85l-15 -78q-12 -61 -12 -86q0 -16 9.5 -25.5t26.5 -9.5q19 0 37 7z" />
    <glyph glyph-name="bar" unicode="|" horiz-adv-x="280" 
d="M-16 -206l186 960h134l-186 -960h-134z" />
    <glyph glyph-name="braceright" unicode="}" horiz-adv-x="328" 
d="M305 243h-17q-27 0 -39 -13.5t-20 -52.5l-27 -139q-20 -104 -59.5 -147t-113.5 -43q-42 0 -93 19l17 89q28 -8 43 -8q29 0 45 17.5t25 62.5l27 140q19 105 124 127q-40 6 -59 26.5t-19 56.5q0 27 11 85l15 78q12 61 12 86q0 16 -9.5 25.5t-26.5 9.5q-19 0 -37 -7l-17 83
q50 24 107 24q117 0 117 -120q0 -46 -14 -116l-15 -78q-8 -45 -8 -72q0 -19 8.5 -27t27.5 -8h14z" />
    <glyph glyph-name="asciitilde" unicode="~" 
d="M239 305q-32 41 -55 41q-29 0 -37 -52l-6 -38h-91q4 88 40.5 138.5t96.5 50.5q28 0 51 -13.5t46 -42.5q32 -41 55 -41q29 0 37 52l6 38h91q-4 -88 -40.5 -138.5t-96.5 -50.5q-28 0 -51 13.5t-46 42.5z" />
    <glyph glyph-name="uni00A0" unicode="&#xa0;" horiz-adv-x="211" 
 />
    <glyph glyph-name="exclamdown" unicode="&#xa1;" horiz-adv-x="256" 
d="M86 280h103l-72 -462q-40 -19 -77 -19q-36 0 -69 19zM155 354q-34 0 -55 20t-21 53q0 40 26 67.5t64 27.5q34 0 55 -20t21 -53q0 -40 -26 -67.5t-64 -27.5z" />
    <glyph glyph-name="cent" unicode="&#xa2;" 
d="M188 -130l28 146q-72 2 -111 49.5t-39 132.5q0 95 34.5 173t92 124t127.5 53l29 145h62l-29 -147q42 -6 79 -25l-18 -92q-46 17 -80 18l-64 -327q16 3 33 10t43 23l24 -79q-51 -44 -120 -54l-29 -150h-62zM195 213q0 -38 10 -60t32 -30l61 311q-47 -23 -75 -82.5
t-28 -138.5z" />
    <glyph glyph-name="sterling" unicode="&#xa3;" 
d="M264 292q-7 -47 -27.5 -90t-58.5 -91h245l-21 -111h-379l20 102q46 42 69.5 86.5t30.5 103.5h-83l19 99h67q-4 48 -4 82q0 70 28.5 123.5t78 82t112.5 28.5q72 0 145 -49l-19 -95q-35 19 -63 27t-56 8q-48 0 -74 -33.5t-26 -96.5q0 -44 1 -77h152l-19 -99h-138z" />
    <glyph glyph-name="currency" unicode="&#xa4;" 
d="M72 224q-17 37 -17 85q0 49 15 92t43 75l-46 71l88 61l46 -71q37 14 77 14q56 0 99 -23l81 80l69 -71l-82 -81q18 -39 18 -85q0 -49 -15.5 -92.5t-43.5 -75.5l46 -70l-88 -61l-47 70q-33 -13 -75 -13q-57 0 -100 23l-81 -80l-69 71zM275 461q-32 0 -56.5 -21.5t-38 -57
t-13.5 -73.5q0 -42 20 -66t56 -24q32 0 56.5 21.5t38 57t13.5 73.5q0 42 -20 66t-56 24z" />
    <glyph glyph-name="yen" unicode="&#xa5;" 
d="M282 146l-26 -146h-129l27 146h-122l16 79h122l6 29l-7 52h-105l15 79h72l-49 308h139l23 -325l146 325h145l-171 -308h69l-16 -79h-105l-28 -54l-5 -27h122l-15 -79h-124z" />
    <glyph glyph-name="brokenbar" unicode="&#xa6;" horiz-adv-x="280" 
d="M-16 -206l69 357h134l-69 -357h-134zM101 397l69 357h134l-69 -357h-134z" />
    <glyph glyph-name="section" unicode="&#xa7;" horiz-adv-x="396" 
d="M382 327q0 -107 -110 -157q25 -23 36 -46t11 -53q0 -76 -53.5 -121.5t-144.5 -45.5q-40 0 -77 10t-65 29l18 90q27 -15 57.5 -23.5t58.5 -8.5q41 0 64 14.5t23 41.5q0 23 -10 37.5t-36 32.5l-41 28q-78 54 -78 130q0 106 109 156q-24 23 -35 46t-11 52q0 78 50.5 123.5
t134.5 45.5q40 0 75 -8.5t58 -24.5l-18 -90q-20 12 -48 19t-55 7q-38 0 -58 -15t-20 -41q0 -23 10 -37.5t36 -32.5l41 -28q78 -54 78 -130zM214 213q27 19 39 41t12 54q0 25 -10.5 42.5t-36.5 36.5l-16 11q-27 -19 -38.5 -41t-11.5 -53q0 -26 10.5 -43.5t37.5 -36.5z" />
    <glyph glyph-name="dieresis" unicode="&#xa8;" horiz-adv-x="500" 
d="M226 589q-30 0 -48 16.5t-18 43.5q0 33 22.5 55.5t55.5 22.5q30 0 48 -16.5t18 -43.5q0 -33 -22.5 -55.5t-55.5 -22.5zM424 589q-30 0 -48 16.5t-18 43.5q0 33 22.5 55.5t55.5 22.5q30 0 48 -16.5t18 -43.5q0 -33 -22.5 -55.5t-55.5 -22.5z" />
    <glyph glyph-name="copyright" unicode="&#xa9;" horiz-adv-x="680" 
d="M358 -7q-96 0 -169.5 46t-113.5 125.5t-40 180.5q0 105 42.5 185.5t115.5 123.5t165 43q96 0 169.5 -46t113.5 -125.5t40 -180.5q0 -105 -42.5 -185.5t-115.5 -123.5t-165 -43zM358 68q73 0 126.5 35t82 97.5t28.5 144.5q0 86 -30 148.5t-83.5 95.5t-123.5 33
q-73 0 -126.5 -35t-82 -97.5t-28.5 -144.5q0 -86 30 -148.5t83.5 -95.5t123.5 -33zM460 163q-36 -22 -82 -22q-78 0 -119.5 53t-41.5 153q0 97 43 151.5t119 54.5q41 0 76 -19v-73q-40 11 -63 11q-37 0 -56.5 -29.5t-19.5 -83.5v-21q0 -116 80 -116q12 0 31 4t33 10v-73z
" />
    <glyph glyph-name="ordfeminine" unicode="&#xaa;" horiz-adv-x="332" 
d="M257 599q0 32 -42 32q-40 0 -96 -22l-11 68q29 15 65 23.5t70 8.5q50 0 77.5 -24.5t27.5 -69.5q0 -24 -6 -54l-43 -219h-75l-1 35q-49 -45 -92 -45q-33 0 -52 24t-19 65q0 59 35.5 96t92.5 37q30 0 60 -14l5 24q4 19 4 35zM286 275l-15 -74h-251l15 74h251zM181 402
q19 0 46 27l12 61q-18 8 -33 8q-24 0 -38 -17.5t-14 -44.5q0 -34 27 -34z" />
    <glyph glyph-name="guillemotleft" unicode="&#xab;" horiz-adv-x="531" 
d="M117 51l-82 208l151 208h130l-157 -215l76 -201h-118zM335 51l-82 208l151 208h130l-157 -215l76 -201h-118z" />
    <glyph glyph-name="logicalnot" unicode="&#xac;" 
d="M319 216l31 158h-276l20 102h385l-51 -260h-109z" />
    <glyph glyph-name="uni00AD" unicode="&#xad;" horiz-adv-x="340" 
d="M24 203l21 110h272l-21 -110h-272z" />
    <glyph glyph-name="registered" unicode="&#xae;" horiz-adv-x="468" 
d="M278 278q-65 0 -114.5 30.5t-76 83.5t-26.5 120q0 70 28.5 123.5t77.5 82.5t111 29q66 0 116 -30.5t76.5 -83.5t26.5 -120q0 -71 -29 -124.5t-78.5 -82t-111.5 -28.5zM278 327q75 0 121 51.5t46 134.5q0 84 -46 134.5t-121 50.5q-74 0 -119.5 -51.5t-45.5 -134.5
t45.5 -134t119.5 -51zM195 384v262h92q36 0 56 -22.5t20 -63.5q0 -46 -38 -70l53 -106h-58l-47 97h-28v-97h-50zM245 526h32q14 0 22.5 9t8.5 24q0 17 -8 27.5t-21 10.5h-34v-71z" />
    <glyph glyph-name="macron" unicode="&#xaf;" horiz-adv-x="500" 
d="M176 627l16 82h281l-16 -82h-281z" />
    <glyph glyph-name="degree" unicode="&#xb0;" horiz-adv-x="319" 
d="M203 422q-52 0 -84 31t-32 82q0 47 20 84t53.5 57t73.5 20q53 0 85 -31t32 -82q0 -69 -42 -115t-106 -46zM227 625q-27 0 -45.5 -23t-18.5 -56q0 -24 13 -38.5t35 -14.5q26 0 45 23t19 57q0 24 -13 38t-35 14z" />
    <glyph glyph-name="plusminus" unicode="&#xb1;" 
d="M315 365l-33 -168h-109l33 168h-138l20 102h138l33 168h109l-33 -168h138l-20 -102h-138zM-2 4l20 102h385l-20 -102h-385z" />
    <glyph glyph-name="uni00B2" unicode="&#xb2;" horiz-adv-x="336" 
d="M369 697q0 -46 -34.5 -94.5t-126.5 -130.5h131l-16 -82h-247l13 66q74 66 112.5 105t55 64t16.5 48q0 20 -11.5 31t-33.5 11q-38 0 -79 -32l-15 70q59 41 124 41q52 0 81.5 -26t29.5 -71z" />
    <glyph glyph-name="uni00B3" unicode="&#xb3;" horiz-adv-x="336" 
d="M264 617q39 -2 60.5 -26t21.5 -65q0 -63 -45.5 -103.5t-115.5 -40.5q-55 0 -104 24l14 70q44 -17 83 -17q36 0 57 17t21 44q0 41 -60 41q-22 0 -43 -3l9 48l101 100h-123l16 80h222l-14 -71z" />
    <glyph glyph-name="acute" unicode="&#xb4;" horiz-adv-x="500" 
d="M215 600l112 167h142l-145 -167h-109z" />
    <glyph glyph-name="mu" unicode="&#xb5;" 
d="M476 24q-20 -14 -49 -22.5t-56 -8.5q-76 0 -94 64q-19 -33 -46.5 -51.5t-57.5 -18.5q-36 0 -57 27l-43 -220h-122l140 717h132l-55 -282q-13 -63 -13 -94q0 -22 9.5 -34t27.5 -12q38 0 75 48l73 374h132l-55 -286q-9 -50 -11.5 -65.5t-2.5 -28.5q0 -35 27 -35q13 0 25 5z
" />
    <glyph glyph-name="paragraph" unicode="&#xb6;" horiz-adv-x="506" 
d="M97 -206l87 444q-58 18 -89 62t-31 109q0 131 72 207.5t194 76.5h201l-155 -797h-97l137 702h-65l-157 -804h-97z" />
    <glyph glyph-name="periodcentered" unicode="&#xb7;" horiz-adv-x="248" 
d="M117 174q-34 0 -55 20t-21 53q0 40 26 67.5t64 27.5q34 0 55 -20t21 -53q0 -40 -26 -67.5t-64 -27.5z" />
    <glyph glyph-name="cedilla" unicode="&#xb8;" horiz-adv-x="500" 
d="M96 -238q44 30 62 49.5t18 36.5q0 19 -22 19q-14 0 -26 -3l13 65q30 11 61 11q33 0 51.5 -17.5t18.5 -48.5q0 -43 -32 -81t-104 -80z" />
    <glyph glyph-name="uni00B9" unicode="&#xb9;" horiz-adv-x="336" 
d="M182 390l57 295l-101 -39l16 84l113 56h83l-77 -396h-91z" />
    <glyph glyph-name="ordmasculine" unicode="&#xba;" horiz-adv-x="348" 
d="M201 329q-58 0 -91.5 36.5t-33.5 102.5q0 62 24 121t62.5 89.5t87.5 30.5q58 0 91.5 -36.5t33.5 -102.5q0 -62 -24 -121t-62.5 -89.5t-87.5 -30.5zM248 632q-24 0 -41 -24.5t-27 -66.5t-10 -82q0 -26 8.5 -39.5t24.5 -13.5q24 0 41 24.5t27 66.5t10 82q0 26 -8.5 39.5
t-24.5 13.5zM308 275l-15 -74h-260l15 74h260z" />
    <glyph glyph-name="guillemotright" unicode="&#xbb;" horiz-adv-x="531" 
d="M198 467l82 -208l-151 -208h-130l156 214l-75 202h118zM416 467l82 -208l-151 -208h-130l156 214l-75 202h118z" />
    <glyph glyph-name="onequarter" unicode="&#xbc;" horiz-adv-x="790" 
d="M178 0l389 693h100l-389 -693h-100zM610 0l15 78h-170l14 72l209 246h88l-48 -245h42l-14 -73h-42l-15 -78h-79zM639 151l27 139l-117 -139h90zM154 297l57 295l-101 -39l16 84l113 56h83l-77 -396h-91z" />
    <glyph glyph-name="onehalf" unicode="&#xbd;" horiz-adv-x="790" 
d="M160 0l389 693h100l-389 -693h-100zM755 307q0 -46 -34.5 -94.5t-126.5 -130.5h131l-16 -82h-247l13 66q74 66 112.5 105t55 64t16.5 48q0 20 -11.5 31t-33.5 11q-38 0 -79 -32l-15 70q59 41 124 41q52 0 81.5 -26t29.5 -71zM154 297l57 295l-101 -39l16 84l113 56h83
l-77 -396h-91z" />
    <glyph glyph-name="threequarters" unicode="&#xbe;" horiz-adv-x="790" 
d="M189 0l389 693h100l-389 -693h-100zM610 0l15 78h-170l14 72l209 246h88l-48 -245h42l-14 -73h-42l-15 -78h-79zM639 151l27 139l-117 -139h90zM236 524q39 -2 60.5 -26t21.5 -65q0 -63 -45.5 -103.5t-115.5 -40.5q-55 0 -104 24l14 70q44 -17 83 -17q36 0 57 17t21 44
q0 41 -60 41q-22 0 -43 -3l9 48l101 100h-123l16 80h222l-14 -71z" />
    <glyph glyph-name="questiondown" unicode="&#xbf;" horiz-adv-x="376" 
d="M301 -142q-32 -27 -75 -42t-89 -15q-72 0 -115 42.5t-43 112.5q0 69 45 126.5t141 110.5l17 87h102l-20 -140l-56 -29q-48 -25 -72.5 -60.5t-24.5 -78.5q0 -65 68 -65q51 0 108 41zM246 354q-34 0 -55 20t-21 53q0 40 26 67.5t64 27.5q34 0 55 -20t21 -53
q0 -40 -26 -67.5t-64 -27.5z" />
    <glyph glyph-name="Agrave" unicode="&#xc0;" horiz-adv-x="539" 
d="M341 0l-4 166h-166l-67 -166h-147l322 693h154l50 -693h-142zM211 264h125l-7 291zM308 769l-88 128h133l62 -128h-107z" />
    <glyph glyph-name="Aacute" unicode="&#xc1;" horiz-adv-x="539" 
d="M341 0l-4 166h-166l-67 -166h-147l322 693h154l50 -693h-142zM211 264h125l-7 291zM418 769h-111l108 128h138z" />
    <glyph glyph-name="Acircumflex" unicode="&#xc2;" horiz-adv-x="539" 
d="M341 0l-4 166h-166l-67 -166h-147l322 693h154l50 -693h-142zM211 264h125l-7 291zM381 847l-77 -78h-115l130 140h138l77 -140h-106z" />
    <glyph glyph-name="Atilde" unicode="&#xc3;" horiz-adv-x="539" 
d="M341 0l-4 166h-166l-67 -166h-147l322 693h154l50 -693h-142zM211 264h125l-7 291zM399 870q15 -21 20 -25.5t12 -4.5t12.5 7t11.5 28l8 30h70q-1 -23 -4 -37q-8 -47 -36 -75t-68 -28q-24 0 -40 8.5t-31 29.5t-20 25.5t-12 4.5t-12.5 -7t-11.5 -28l-8 -30h-70q1 23 4 37
q8 47 36 75t68 28q24 0 40 -8.5t31 -29.5z" />
    <glyph glyph-name="Adieresis" unicode="&#xc4;" horiz-adv-x="539" 
d="M341 0l-4 166h-166l-67 -166h-147l322 693h154l50 -693h-142zM211 264h125l-7 291zM276 772q-30 0 -48.5 16.5t-18.5 44.5q0 34 23 56.5t56 22.5q30 0 48.5 -16.5t18.5 -44.5q0 -34 -23 -56.5t-56 -22.5zM474 772q-30 0 -48.5 16.5t-18.5 44.5q0 34 23 56.5t56 22.5
q30 0 48.5 -16.5t18.5 -44.5q0 -34 -23 -56.5t-56 -22.5z" />
    <glyph glyph-name="Aring" unicode="&#xc5;" horiz-adv-x="539" 
d="M341 0l-4 166h-166l-67 -166h-147l322 693h154l50 -693h-142zM211 264h125l-7 291zM377 735q-49 0 -78.5 24.5t-29.5 64.5q0 52 34.5 84.5t88.5 32.5q49 0 78.5 -24.5t29.5 -64.5q0 -52 -34.5 -84.5t-88.5 -32.5zM390 885q-20 0 -33.5 -16t-13.5 -42q0 -17 9.5 -26.5
t26.5 -9.5q20 0 33.5 16t13.5 42q0 17 -9.5 26.5t-26.5 9.5z" />
    <glyph glyph-name="AE" unicode="&#xc6;" horiz-adv-x="788" 
d="M840 693l-21 -105h-230l-35 -180h184l-21 -105h-184l-38 -198h230l-20 -105h-365l33 170h-163l-96 -170h-157l428 693h455zM266 268h126l63 320h-8z" />
    <glyph glyph-name="Ccedilla" unicode="&#xc7;" horiz-adv-x="522" 
d="M461 52q-40 -33 -90 -50t-104 -17q-97 0 -153 66.5t-56 182.5q0 137 50 246t131.5 168.5t178.5 59.5q76 0 132 -36l-20 -104q-48 27 -104 27q-65 0 -117 -46.5t-80.5 -123t-28.5 -168.5q0 -77 26.5 -117.5t76.5 -40.5q31 0 62.5 12.5t71.5 40.5zM156 -237q45 30 63 49
t18 35q0 18 -22 18q-14 0 -26 -3l13 67q30 11 63 11t51.5 -17.5t18.5 -48.5q0 -43 -33 -81t-105 -80z" />
    <glyph glyph-name="Egrave" unicode="&#xc8;" horiz-adv-x="466" 
d="M18 0l135 693h365l-21 -105h-230l-35 -180h184l-21 -105h-184l-38 -198h230l-20 -105h-365zM286 769l-88 128h133l62 -128h-107z" />
    <glyph glyph-name="Eacute" unicode="&#xc9;" horiz-adv-x="466" 
d="M18 0l135 693h365l-21 -105h-230l-35 -180h184l-21 -105h-184l-38 -198h230l-20 -105h-365zM396 769h-111l108 128h138z" />
    <glyph glyph-name="Ecircumflex" unicode="&#xca;" horiz-adv-x="466" 
d="M18 0l135 693h365l-21 -105h-230l-35 -180h184l-21 -105h-184l-38 -198h230l-20 -105h-365zM359 847l-77 -78h-115l130 140h138l77 -140h-106z" />
    <glyph glyph-name="Edieresis" unicode="&#xcb;" horiz-adv-x="466" 
d="M18 0l135 693h365l-21 -105h-230l-35 -180h184l-21 -105h-184l-38 -198h230l-20 -105h-365zM254 772q-30 0 -48.5 16.5t-18.5 44.5q0 34 23 56.5t56 22.5q30 0 48.5 -16.5t18.5 -44.5q0 -34 -23 -56.5t-56 -22.5zM452 772q-30 0 -48.5 16.5t-18.5 44.5q0 34 23 56.5
t56 22.5q30 0 48.5 -16.5t18.5 -44.5q0 -34 -23 -56.5t-56 -22.5z" />
    <glyph glyph-name="Igrave" unicode="&#xcc;" horiz-adv-x="270" 
d="M153 0h-135l135 693h135zM176 769l-88 128h133l62 -128h-107z" />
    <glyph glyph-name="Iacute" unicode="&#xcd;" horiz-adv-x="270" 
d="M153 0h-135l135 693h135zM286 769h-111l108 128h138z" />
    <glyph glyph-name="Icircumflex" unicode="&#xce;" horiz-adv-x="270" 
d="M153 0h-135l135 693h135zM249 847l-77 -78h-115l130 140h138l77 -140h-106z" />
    <glyph glyph-name="Idieresis" unicode="&#xcf;" horiz-adv-x="270" 
d="M153 0h-135l135 693h135zM144 772q-30 0 -48.5 16.5t-18.5 44.5q0 34 23 56.5t56 22.5q30 0 48.5 -16.5t18.5 -44.5q0 -34 -23 -56.5t-56 -22.5zM342 772q-30 0 -48.5 16.5t-18.5 44.5q0 34 23 56.5t56 22.5q30 0 48.5 -16.5t18.5 -44.5q0 -34 -23 -56.5t-56 -22.5z" />
    <glyph glyph-name="Eth" unicode="&#xd0;" horiz-adv-x="601" 
d="M28 0l60 310h-62l19 94h62l56 289h190q104 0 163.5 -67.5t59.5 -185.5q0 -127 -45.5 -228t-121 -156.5t-165.5 -55.5h-216zM223 310l-40 -205h62q55 0 99 46t68.5 121.5t24.5 164.5q0 72 -25.5 111.5t-72.5 39.5h-62l-36 -184h106l-19 -94h-105z" />
    <glyph glyph-name="Ntilde" unicode="&#xd1;" horiz-adv-x="593" 
d="M325 0l-95 504l-98 -504h-114l135 693h153l94 -496l97 496h114l-135 -693h-151zM425 870q15 -21 20 -25.5t12 -4.5t12.5 7t11.5 28l8 30h70q-1 -23 -4 -37q-8 -47 -36 -75t-68 -28q-24 0 -40 8.5t-31 29.5t-20 25.5t-12 4.5t-12.5 -7t-11.5 -28l-8 -30h-70q1 23 4 37
q8 47 36 75t68 28q24 0 40 -8.5t31 -29.5z" />
    <glyph glyph-name="Ograve" unicode="&#xd2;" horiz-adv-x="639" 
d="M293 -15q-110 0 -171 70t-61 195q0 89 26 178.5t69.5 152.5t100.5 95t125 32q110 0 171 -70t61 -195q0 -89 -26 -178.5t-69.5 -152.5t-100.5 -95t-125 -32zM379 597q-56 0 -95 -50.5t-61.5 -137.5t-22.5 -174q0 -68 24.5 -103.5t71.5 -35.5q56 0 95 50.5t61.5 137.5
t22.5 174q0 68 -24.5 103.5t-71.5 35.5zM354 769l-88 128h133l62 -128h-107z" />
    <glyph glyph-name="Oacute" unicode="&#xd3;" horiz-adv-x="639" 
d="M293 -15q-110 0 -171 70t-61 195q0 89 26 178.5t69.5 152.5t100.5 95t125 32q110 0 171 -70t61 -195q0 -89 -26 -178.5t-69.5 -152.5t-100.5 -95t-125 -32zM379 597q-56 0 -95 -50.5t-61.5 -137.5t-22.5 -174q0 -68 24.5 -103.5t71.5 -35.5q56 0 95 50.5t61.5 137.5
t22.5 174q0 68 -24.5 103.5t-71.5 35.5zM464 769h-111l108 128h138z" />
    <glyph glyph-name="Ocircumflex" unicode="&#xd4;" horiz-adv-x="639" 
d="M293 -15q-110 0 -171 70t-61 195q0 89 26 178.5t69.5 152.5t100.5 95t125 32q110 0 171 -70t61 -195q0 -89 -26 -178.5t-69.5 -152.5t-100.5 -95t-125 -32zM379 597q-56 0 -95 -50.5t-61.5 -137.5t-22.5 -174q0 -68 24.5 -103.5t71.5 -35.5q56 0 95 50.5t61.5 137.5
t22.5 174q0 68 -24.5 103.5t-71.5 35.5zM427 847l-77 -78h-115l130 140h138l77 -140h-106z" />
    <glyph glyph-name="Otilde" unicode="&#xd5;" horiz-adv-x="639" 
d="M293 -15q-110 0 -171 70t-61 195q0 89 26 178.5t69.5 152.5t100.5 95t125 32q110 0 171 -70t61 -195q0 -89 -26 -178.5t-69.5 -152.5t-100.5 -95t-125 -32zM379 597q-56 0 -95 -50.5t-61.5 -137.5t-22.5 -174q0 -68 24.5 -103.5t71.5 -35.5q56 0 95 50.5t61.5 137.5
t22.5 174q0 68 -24.5 103.5t-71.5 35.5zM445 870q15 -21 20 -25.5t12 -4.5t12.5 7t11.5 28l8 30h70q-1 -23 -4 -37q-8 -47 -36 -75t-68 -28q-24 0 -40 8.5t-31 29.5t-20 25.5t-12 4.5t-12.5 -7t-11.5 -28l-8 -30h-70q1 23 4 37q8 47 36 75t68 28q24 0 40 -8.5t31 -29.5z" />
    <glyph glyph-name="Odieresis" unicode="&#xd6;" horiz-adv-x="639" 
d="M293 -15q-110 0 -171 70t-61 195q0 89 26 178.5t69.5 152.5t100.5 95t125 32q110 0 171 -70t61 -195q0 -89 -26 -178.5t-69.5 -152.5t-100.5 -95t-125 -32zM379 597q-56 0 -95 -50.5t-61.5 -137.5t-22.5 -174q0 -68 24.5 -103.5t71.5 -35.5q56 0 95 50.5t61.5 137.5
t22.5 174q0 68 -24.5 103.5t-71.5 35.5zM322 772q-30 0 -48.5 16.5t-18.5 44.5q0 34 23 56.5t56 22.5q30 0 48.5 -16.5t18.5 -44.5q0 -34 -23 -56.5t-56 -22.5zM520 772q-30 0 -48.5 16.5t-18.5 44.5q0 34 23 56.5t56 22.5q30 0 48.5 -16.5t18.5 -44.5q0 -34 -23 -56.5
t-56 -22.5z" />
    <glyph glyph-name="multiply" unicode="&#xd7;" 
d="M333 121l-89 141l-146 -139l-65 73l158 151l-96 153l82 60l90 -142l145 140l65 -73l-157 -153l95 -151z" />
    <glyph glyph-name="Oslash" unicode="&#xd8;" horiz-adv-x="639" 
d="M13 2l79 98q-31 59 -31 150q0 89 26 178.5t69.5 152.5t100.5 95t125 32q97 0 155 -55l65 81l60 -51l-77 -95q29 -61 29 -145q0 -89 -26 -178.5t-69.5 -152.5t-100.5 -95t-125 -32q-93 0 -152 51l-68 -85zM381 597q-57 0 -97.5 -50t-63 -137t-22.5 -175v-3l259 322
q-23 43 -76 43zM294 96q56 0 96 49t63 134.5t24 173.5l-257 -319q24 -38 74 -38z" />
    <glyph glyph-name="Ugrave" unicode="&#xd9;" horiz-adv-x="584" 
d="M470 693h135l-90 -463q-48 -246 -261 -246q-89 0 -142.5 52t-53.5 138q0 51 25 180l66 339h135l-68 -351q-16 -81 -20.5 -108t-4.5 -48q0 -44 20.5 -67.5t59.5 -23.5q43 0 69 31.5t39 98.5zM324 769l-88 128h133l62 -128h-107z" />
    <glyph glyph-name="Uacute" unicode="&#xda;" horiz-adv-x="584" 
d="M470 693h135l-90 -463q-48 -246 -261 -246q-89 0 -142.5 52t-53.5 138q0 51 25 180l66 339h135l-68 -351q-16 -81 -20.5 -108t-4.5 -48q0 -44 20.5 -67.5t59.5 -23.5q43 0 69 31.5t39 98.5zM434 769h-111l108 128h138z" />
    <glyph glyph-name="Ucircumflex" unicode="&#xdb;" horiz-adv-x="584" 
d="M470 693h135l-90 -463q-48 -246 -261 -246q-89 0 -142.5 52t-53.5 138q0 51 25 180l66 339h135l-68 -351q-16 -81 -20.5 -108t-4.5 -48q0 -44 20.5 -67.5t59.5 -23.5q43 0 69 31.5t39 98.5zM397 847l-77 -78h-115l130 140h138l77 -140h-106z" />
    <glyph glyph-name="Udieresis" unicode="&#xdc;" horiz-adv-x="584" 
d="M470 693h135l-90 -463q-48 -246 -261 -246q-89 0 -142.5 52t-53.5 138q0 51 25 180l66 339h135l-68 -351q-16 -81 -20.5 -108t-4.5 -48q0 -44 20.5 -67.5t59.5 -23.5q43 0 69 31.5t39 98.5zM292 772q-30 0 -48.5 16.5t-18.5 44.5q0 34 23 56.5t56 22.5q30 0 48.5 -16.5
t18.5 -44.5q0 -34 -23 -56.5t-56 -22.5zM490 772q-30 0 -48.5 16.5t-18.5 44.5q0 34 23 56.5t56 22.5q30 0 48.5 -16.5t18.5 -44.5q0 -34 -23 -56.5t-56 -22.5z" />
    <glyph glyph-name="Yacute" unicode="&#xdd;" horiz-adv-x="508" 
d="M136 0l50 256l-92 437h139l41 -329l165 329h145l-265 -438l-50 -255h-133zM396 769h-111l108 128h138z" />
    <glyph glyph-name="Thorn" unicode="&#xde;" horiz-adv-x="525" 
d="M261 568h66q83 0 129.5 -45.5t46.5 -126.5q0 -78 -32.5 -136.5t-89.5 -90t-130 -31.5h-74l-27 -138h-132l135 693h132zM241 466l-44 -226h56q53 0 84.5 40t31.5 105q0 40 -19.5 60.5t-55.5 20.5h-53z" />
    <glyph glyph-name="germandbls" unicode="&#xdf;" horiz-adv-x="524" 
d="M200 109q47 -25 91 -25q36 0 56.5 17.5t20.5 47.5q0 15 -7.5 27.5t-32.5 38.5l-23 24q-26 28 -36 51.5t-10 55.5q0 37 18.5 69.5t62.5 72.5q30 28 43 52.5t13 55.5q0 29 -15.5 45t-42.5 16q-38 0 -62.5 -36.5t-40.5 -117.5l-98 -503h-127l100 514q24 122 83 181t158 59
q74 0 120.5 -41t46.5 -106q0 -47 -23.5 -88.5t-78.5 -91.5q-21 -19 -29.5 -33.5t-8.5 -31.5q0 -16 7.5 -29.5t29.5 -35.5l25 -25q50 -50 50 -112q0 -51 -24.5 -91t-67.5 -61t-96 -21q-68 0 -119 33z" />
    <glyph glyph-name="agrave" unicode="&#xe0;" horiz-adv-x="480" 
d="M265 0v69q-60 -82 -134 -82q-50 0 -77.5 41.5t-27.5 117.5q0 111 38 197.5t101.5 133.5t140.5 47q33 0 78.5 -11.5t81.5 -28.5l-94 -484h-107zM194 87q35 0 75 62l55 276q-15 3 -26 3q-40 0 -72 -37t-50 -96.5t-18 -128.5q0 -38 9.5 -58.5t26.5 -20.5zM260 600l-82 167
h136l50 -167h-104z" />
    <glyph glyph-name="aacute" unicode="&#xe1;" horiz-adv-x="480" 
d="M265 0v69q-60 -82 -134 -82q-50 0 -77.5 41.5t-27.5 117.5q0 111 38 197.5t101.5 133.5t140.5 47q33 0 78.5 -11.5t81.5 -28.5l-94 -484h-107zM194 87q35 0 75 62l55 276q-15 3 -26 3q-40 0 -72 -37t-50 -96.5t-18 -128.5q0 -38 9.5 -58.5t26.5 -20.5zM258 600l112 167
h142l-145 -167h-109z" />
    <glyph glyph-name="acircumflex" unicode="&#xe2;" horiz-adv-x="480" 
d="M265 0v69q-60 -82 -134 -82q-50 0 -77.5 41.5t-27.5 117.5q0 111 38 197.5t101.5 133.5t140.5 47q33 0 78.5 -11.5t81.5 -28.5l-94 -484h-107zM194 87q35 0 75 62l55 276q-15 3 -26 3q-40 0 -72 -37t-50 -96.5t-18 -128.5q0 -38 9.5 -58.5t26.5 -20.5zM338 702l-87 -102
h-106l134 168h134l69 -168h-97z" />
    <glyph glyph-name="atilde" unicode="&#xe3;" horiz-adv-x="480" 
d="M265 0v69q-60 -82 -134 -82q-50 0 -77.5 41.5t-27.5 117.5q0 111 38 197.5t101.5 133.5t140.5 47q33 0 78.5 -11.5t81.5 -28.5l-94 -484h-107zM194 87q35 0 75 62l55 276q-15 3 -26 3q-40 0 -72 -37t-50 -96.5t-18 -128.5q0 -38 9.5 -58.5t26.5 -20.5zM312 635
q-14 19 -20.5 24.5t-13.5 5.5q-15 0 -24 -35l-8 -30h-68q1 23 4 37q8 46 36 73.5t66 27.5q23 0 39 -8.5t32 -29.5q14 -19 20.5 -24.5t13.5 -5.5q15 0 24 35l8 30h68q-1 -23 -4 -37q-8 -46 -36 -73.5t-66 -27.5q-23 0 -39 8.5t-32 29.5z" />
    <glyph glyph-name="adieresis" unicode="&#xe4;" horiz-adv-x="480" 
d="M265 0v69q-60 -82 -134 -82q-50 0 -77.5 41.5t-27.5 117.5q0 111 38 197.5t101.5 133.5t140.5 47q33 0 78.5 -11.5t81.5 -28.5l-94 -484h-107zM194 87q35 0 75 62l55 276q-15 3 -26 3q-40 0 -72 -37t-50 -96.5t-18 -128.5q0 -38 9.5 -58.5t26.5 -20.5zM229 589
q-30 0 -48 16.5t-18 43.5q0 33 22.5 55.5t55.5 22.5q30 0 48 -16.5t18 -43.5q0 -33 -22.5 -55.5t-55.5 -22.5zM427 589q-30 0 -48 16.5t-18 43.5q0 33 22.5 55.5t55.5 22.5q30 0 48 -16.5t18 -43.5q0 -33 -22.5 -55.5t-55.5 -22.5z" />
    <glyph glyph-name="aring" unicode="&#xe5;" horiz-adv-x="480" 
d="M265 0v69q-60 -82 -134 -82q-50 0 -77.5 41.5t-27.5 117.5q0 111 38 197.5t101.5 133.5t140.5 47q33 0 78.5 -11.5t81.5 -28.5l-94 -484h-107zM194 87q35 0 75 62l55 276q-15 3 -26 3q-40 0 -72 -37t-50 -96.5t-18 -128.5q0 -38 9.5 -58.5t26.5 -20.5zM328 585
q-51 0 -81.5 26.5t-30.5 70.5q0 56 36 91.5t92 35.5q51 0 81.5 -26.5t30.5 -70.5q0 -56 -36 -91.5t-92 -35.5zM342 749q-23 0 -37.5 -18t-14.5 -46q0 -18 10.5 -29t29.5 -11q23 0 37.5 18t14.5 46q0 18 -10.5 29t-29.5 11z" />
    <glyph glyph-name="ae" unicode="&#xe6;" horiz-adv-x="684" 
d="M306 524q68 0 118 -42q58 42 128 42q55 0 89 -32.5t34 -85.5q0 -84 -57 -140.5t-169 -84.5l-45 -12q1 -48 15 -65t51 -17q28 0 59 9.5t59 27.5l24 -78q-86 -59 -185 -59q-109 0 -135 104q-61 -104 -161 -104q-50 0 -77.5 41.5t-27.5 117.5q0 111 38 197.5t101.5 133.5
t140.5 47zM294 264q17 81 60 146q-24 18 -56 18q-40 0 -72 -37t-50 -96.5t-18 -128.5q0 -38 9.5 -58.5t26.5 -20.5q25 0 54 51.5t46 125.5zM530 432q-25 0 -51 -24t-44 -64.5t-26 -91.5l46 14q52 15 81 47.5t29 75.5t-35 43z" />
    <glyph glyph-name="ccedilla" unicode="&#xe7;" horiz-adv-x="391" 
d="M342 44q-33 -28 -75.5 -42.5t-89.5 -14.5q-71 0 -109.5 48t-38.5 136q0 100 37.5 181.5t98 126.5t130.5 45q57 0 109 -28l-18 -92q-44 18 -81 18q-42 0 -75 -32.5t-51 -86t-18 -117.5q0 -49 15 -73t47 -24q22 0 43.5 8t51.5 27zM60 -238q44 30 62 49.5t18 36.5
q0 19 -22 19q-14 0 -26 -3l13 65q30 11 61 11q33 0 51.5 -17.5t18.5 -48.5q0 -43 -32 -81t-104 -80z" />
    <glyph glyph-name="egrave" unicode="&#xe8;" horiz-adv-x="427" 
d="M355 46q-86 -59 -185 -59q-69 0 -106 45t-37 128q0 106 36.5 189.5t97.5 129t134 45.5q55 0 89 -32.5t34 -85.5q0 -84 -57 -140.5t-169 -84.5l-45 -12q1 -48 15 -65t51 -17q28 0 59 9.5t59 27.5zM273 432q-25 0 -51 -24t-44 -64.5t-26 -91.5l46 14q52 15 81 47.5t29 75.5
t-35 43zM235 600l-82 167h136l50 -167h-104z" />
    <glyph glyph-name="eacute" unicode="&#xe9;" horiz-adv-x="427" 
d="M355 46q-86 -59 -185 -59q-69 0 -106 45t-37 128q0 106 36.5 189.5t97.5 129t134 45.5q55 0 89 -32.5t34 -85.5q0 -84 -57 -140.5t-169 -84.5l-45 -12q1 -48 15 -65t51 -17q28 0 59 9.5t59 27.5zM273 432q-25 0 -51 -24t-44 -64.5t-26 -91.5l46 14q52 15 81 47.5t29 75.5
t-35 43zM233 600l112 167h142l-145 -167h-109z" />
    <glyph glyph-name="ecircumflex" unicode="&#xea;" horiz-adv-x="427" 
d="M355 46q-86 -59 -185 -59q-69 0 -106 45t-37 128q0 106 36.5 189.5t97.5 129t134 45.5q55 0 89 -32.5t34 -85.5q0 -84 -57 -140.5t-169 -84.5l-45 -12q1 -48 15 -65t51 -17q28 0 59 9.5t59 27.5zM273 432q-25 0 -51 -24t-44 -64.5t-26 -91.5l46 14q52 15 81 47.5t29 75.5
t-35 43zM313 702l-87 -102h-106l134 168h134l69 -168h-97z" />
    <glyph glyph-name="edieresis" unicode="&#xeb;" horiz-adv-x="427" 
d="M355 46q-86 -59 -185 -59q-69 0 -106 45t-37 128q0 106 36.5 189.5t97.5 129t134 45.5q55 0 89 -32.5t34 -85.5q0 -84 -57 -140.5t-169 -84.5l-45 -12q1 -48 15 -65t51 -17q28 0 59 9.5t59 27.5zM273 432q-25 0 -51 -24t-44 -64.5t-26 -91.5l46 14q52 15 81 47.5t29 75.5
t-35 43zM204 589q-30 0 -48 16.5t-18 43.5q0 33 22.5 55.5t55.5 22.5q30 0 48 -16.5t18 -43.5q0 -33 -22.5 -55.5t-55.5 -22.5zM402 589q-30 0 -48 16.5t-18 43.5q0 33 22.5 55.5t55.5 22.5q30 0 48 -16.5t18 -43.5q0 -33 -22.5 -55.5t-55.5 -22.5z" />
    <glyph glyph-name="igrave" unicode="&#xec;" horiz-adv-x="256" 
d="M112 511h132l-99 -511h-132zM130 600l-82 167h136l50 -167h-104z" />
    <glyph glyph-name="iacute" unicode="&#xed;" horiz-adv-x="256" 
d="M112 511h132l-99 -511h-132zM128 600l112 167h142l-145 -167h-109z" />
    <glyph glyph-name="icircumflex" unicode="&#xee;" horiz-adv-x="256" 
d="M112 511h132l-99 -511h-132zM208 702l-87 -102h-106l134 168h134l69 -168h-97z" />
    <glyph glyph-name="idieresis" unicode="&#xef;" horiz-adv-x="256" 
d="M112 511h132l-99 -511h-132zM99 589q-30 0 -48 16.5t-18 43.5q0 33 22.5 55.5t55.5 22.5q30 0 48 -16.5t18 -43.5q0 -33 -22.5 -55.5t-55.5 -22.5zM297 589q-30 0 -48 16.5t-18 43.5q0 33 22.5 55.5t55.5 22.5q30 0 48 -16.5t18 -43.5q0 -33 -22.5 -55.5t-55.5 -22.5z
" />
    <glyph glyph-name="eth" unicode="&#xf0;" horiz-adv-x="471" 
d="M247 632q-29 19 -75 31l22 107q84 -13 141 -66l89 74l38 -56l-84 -69q66 -102 66 -276q0 -122 -31.5 -209t-88 -134t-128.5 -47q-76 0 -121 50.5t-45 136.5q0 92 29.5 162.5t79 109.5t107.5 39q34 0 60.5 -15t38.5 -39q-9 100 -48 154l-78 -64l-38 56zM208 89
q30 0 54 29.5t37.5 77t13.5 100.5q0 45 -12 66t-39 21q-43 0 -72.5 -59t-29.5 -142q0 -47 11.5 -70t36.5 -23z" />
    <glyph glyph-name="ntilde" unicode="&#xf1;" horiz-adv-x="504" 
d="M266 0l53 273q15 75 15 105q0 44 -31 44q-36 0 -92 -65l-69 -357h-132l99 511h107v-77q31 42 70 66t78 24q51 0 77 -32t26 -93q0 -43 -16 -127l-53 -272h-132zM308 635q-14 19 -20.5 24.5t-13.5 5.5q-15 0 -24 -35l-8 -30h-68q1 23 4 37q8 46 36 73.5t66 27.5
q23 0 39 -8.5t32 -29.5q14 -19 20.5 -24.5t13.5 -5.5q15 0 24 35l8 30h68q-1 -23 -4 -37q-8 -46 -36 -73.5t-66 -27.5q-23 0 -39 8.5t-32 29.5z" />
    <glyph glyph-name="ograve" unicode="&#xf2;" horiz-adv-x="472" 
d="M201 -13q-80 0 -125 52.5t-45 144.5q0 87 32.5 170t86 126.5t122.5 43.5q80 0 125 -52.5t45 -144.5q0 -87 -32.5 -170t-86 -126.5t-122.5 -43.5zM267 422q-33 0 -56 -36.5t-36.5 -98.5t-13.5 -120q0 -38 11.5 -58t33.5 -20q33 0 56 36.5t36.5 98.5t13.5 120
q0 38 -11.5 58t-33.5 20zM230 600l-82 167h136l50 -167h-104z" />
    <glyph glyph-name="oacute" unicode="&#xf3;" horiz-adv-x="472" 
d="M201 -13q-80 0 -125 52.5t-45 144.5q0 87 32.5 170t86 126.5t122.5 43.5q80 0 125 -52.5t45 -144.5q0 -87 -32.5 -170t-86 -126.5t-122.5 -43.5zM267 422q-33 0 -56 -36.5t-36.5 -98.5t-13.5 -120q0 -38 11.5 -58t33.5 -20q33 0 56 36.5t36.5 98.5t13.5 120
q0 38 -11.5 58t-33.5 20zM228 600l112 167h142l-145 -167h-109z" />
    <glyph glyph-name="ocircumflex" unicode="&#xf4;" horiz-adv-x="472" 
d="M201 -13q-80 0 -125 52.5t-45 144.5q0 87 32.5 170t86 126.5t122.5 43.5q80 0 125 -52.5t45 -144.5q0 -87 -32.5 -170t-86 -126.5t-122.5 -43.5zM267 422q-33 0 -56 -36.5t-36.5 -98.5t-13.5 -120q0 -38 11.5 -58t33.5 -20q33 0 56 36.5t36.5 98.5t13.5 120
q0 38 -11.5 58t-33.5 20zM308 702l-87 -102h-106l134 168h134l69 -168h-97z" />
    <glyph glyph-name="otilde" unicode="&#xf5;" horiz-adv-x="472" 
d="M201 -13q-80 0 -125 52.5t-45 144.5q0 87 32.5 170t86 126.5t122.5 43.5q80 0 125 -52.5t45 -144.5q0 -87 -32.5 -170t-86 -126.5t-122.5 -43.5zM267 422q-33 0 -56 -36.5t-36.5 -98.5t-13.5 -120q0 -38 11.5 -58t33.5 -20q33 0 56 36.5t36.5 98.5t13.5 120
q0 38 -11.5 58t-33.5 20zM282 635q-14 19 -20.5 24.5t-13.5 5.5q-15 0 -24 -35l-8 -30h-68q1 23 4 37q8 46 36 73.5t66 27.5q23 0 39 -8.5t32 -29.5q14 -19 20.5 -24.5t13.5 -5.5q15 0 24 35l8 30h68q-1 -23 -4 -37q-8 -46 -36 -73.5t-66 -27.5q-23 0 -39 8.5t-32 29.5z" />
    <glyph glyph-name="odieresis" unicode="&#xf6;" horiz-adv-x="472" 
d="M201 -13q-80 0 -125 52.5t-45 144.5q0 87 32.5 170t86 126.5t122.5 43.5q80 0 125 -52.5t45 -144.5q0 -87 -32.5 -170t-86 -126.5t-122.5 -43.5zM267 422q-33 0 -56 -36.5t-36.5 -98.5t-13.5 -120q0 -38 11.5 -58t33.5 -20q33 0 56 36.5t36.5 98.5t13.5 120
q0 38 -11.5 58t-33.5 20zM199 589q-30 0 -48 16.5t-18 43.5q0 33 22.5 55.5t55.5 22.5q30 0 48 -16.5t18 -43.5q0 -33 -22.5 -55.5t-55.5 -22.5zM397 589q-30 0 -48 16.5t-18 43.5q0 33 22.5 55.5t55.5 22.5q30 0 48 -16.5t18 -43.5q0 -33 -22.5 -55.5t-55.5 -22.5z" />
    <glyph glyph-name="divide" unicode="&#xf7;" 
d="M59 296l20 102h385l-20 -102h-385zM218 86q-28 0 -45 16.5t-17 43.5q0 34 21 56.5t52 22.5q28 0 45 -16.5t17 -43.5q0 -34 -21 -56.5t-52 -22.5zM293 469q-28 0 -45 16.5t-17 43.5q0 34 21 56.5t52 22.5q28 0 45 -16.5t17 -43.5q0 -34 -21 -56.5t-52 -22.5z" />
    <glyph glyph-name="oslash" unicode="&#xf8;" horiz-adv-x="472" 
d="M-2 5l55 69q-22 44 -22 110q0 87 32.5 170t86 126.5t122.5 43.5q67 0 111 -39l50 62l48 -41l-59 -74q20 -45 20 -105q0 -87 -32.5 -170t-86 -126.5t-122.5 -43.5q-65 0 -108 35l-47 -58zM269 422q-43 0 -71.5 -59.5t-36.5 -155.5l146 183q-11 32 -38 32zM204 89
q41 0 69.5 56.5t37.5 148.5l-144 -179q12 -26 37 -26z" />
    <glyph glyph-name="ugrave" unicode="&#xf9;" horiz-adv-x="497" 
d="M282 0v73q-27 -37 -66.5 -61.5t-72.5 -24.5q-52 0 -78.5 31.5t-26.5 90.5q0 52 16 130l53 272h132l-53 -273q-5 -26 -8.5 -44t-5 -32.5t-1.5 -28.5q0 -44 32 -44q16 0 38.5 16.5t44.5 44.5l70 361h132l-99 -511h-107zM246 600l-82 167h136l50 -167h-104z" />
    <glyph glyph-name="uacute" unicode="&#xfa;" horiz-adv-x="497" 
d="M282 0v73q-27 -37 -66.5 -61.5t-72.5 -24.5q-52 0 -78.5 31.5t-26.5 90.5q0 52 16 130l53 272h132l-53 -273q-5 -26 -8.5 -44t-5 -32.5t-1.5 -28.5q0 -44 32 -44q16 0 38.5 16.5t44.5 44.5l70 361h132l-99 -511h-107zM244 600l112 167h142l-145 -167h-109z" />
    <glyph glyph-name="ucircumflex" unicode="&#xfb;" horiz-adv-x="497" 
d="M282 0v73q-27 -37 -66.5 -61.5t-72.5 -24.5q-52 0 -78.5 31.5t-26.5 90.5q0 52 16 130l53 272h132l-53 -273q-5 -26 -8.5 -44t-5 -32.5t-1.5 -28.5q0 -44 32 -44q16 0 38.5 16.5t44.5 44.5l70 361h132l-99 -511h-107zM324 702l-87 -102h-106l134 168h134l69 -168h-97z
" />
    <glyph glyph-name="udieresis" unicode="&#xfc;" horiz-adv-x="497" 
d="M282 0v73q-27 -37 -66.5 -61.5t-72.5 -24.5q-52 0 -78.5 31.5t-26.5 90.5q0 52 16 130l53 272h132l-53 -273q-5 -26 -8.5 -44t-5 -32.5t-1.5 -28.5q0 -44 32 -44q16 0 38.5 16.5t44.5 44.5l70 361h132l-99 -511h-107zM215 589q-30 0 -48 16.5t-18 43.5q0 33 22.5 55.5
t55.5 22.5q30 0 48 -16.5t18 -43.5q0 -33 -22.5 -55.5t-55.5 -22.5zM413 589q-30 0 -48 16.5t-18 43.5q0 33 22.5 55.5t55.5 22.5q30 0 48 -16.5t18 -43.5q0 -33 -22.5 -55.5t-55.5 -22.5z" />
    <glyph glyph-name="yacute" unicode="&#xfd;" horiz-adv-x="420" 
d="M-60 -127q76 33 109 61t57 68l-58 509h135l15 -388q65 169 128 388h134q-28 -90 -73.5 -198t-94 -202t-87.5 -151q-53 -78 -104.5 -121.5t-108.5 -58.5zM192 600l112 167h142l-145 -167h-109z" />
    <glyph glyph-name="thorn" unicode="&#xfe;" horiz-adv-x="482" 
d="M-31 -206l185 946h132l-55 -282q54 66 122 66q50 0 77 -42.5t27 -120.5q0 -110 -35.5 -196t-95.5 -132t-133 -46q-25 0 -53 11l-39 -204h-132zM287 424q-35 0 -76 -62l-54 -277q9 -2 26 -2q42 0 74.5 34.5t50 93.5t17.5 128q0 85 -38 85z" />
    <glyph glyph-name="ydieresis" unicode="&#xff;" horiz-adv-x="420" 
d="M-60 -127q76 33 109 61t57 68l-58 509h135l15 -388q65 169 128 388h134q-28 -90 -73.5 -198t-94 -202t-87.5 -151q-53 -78 -104.5 -121.5t-108.5 -58.5zM163 589q-30 0 -48 16.5t-18 43.5q0 33 22.5 55.5t55.5 22.5q30 0 48 -16.5t18 -43.5q0 -33 -22.5 -55.5
t-55.5 -22.5zM361 589q-30 0 -48 16.5t-18 43.5q0 33 22.5 55.5t55.5 22.5q30 0 48 -16.5t18 -43.5q0 -33 -22.5 -55.5t-55.5 -22.5z" />
    <glyph glyph-name="Amacron" unicode="&#x100;" horiz-adv-x="539" 
d="M341 0l-4 166h-166l-67 -166h-147l322 693h154l50 -693h-142zM211 264h125l-7 291zM228 794l16 83h283l-16 -83h-283z" />
    <glyph glyph-name="amacron" unicode="&#x101;" horiz-adv-x="480" 
d="M265 0v69q-60 -82 -134 -82q-50 0 -77.5 41.5t-27.5 117.5q0 111 38 197.5t101.5 133.5t140.5 47q33 0 78.5 -11.5t81.5 -28.5l-94 -484h-107zM194 87q35 0 75 62l55 276q-15 3 -26 3q-40 0 -72 -37t-50 -96.5t-18 -128.5q0 -38 9.5 -58.5t26.5 -20.5zM184 627l16 82h281
l-16 -82h-281z" />
    <glyph glyph-name="Abreve" unicode="&#x102;" horiz-adv-x="539" 
d="M341 0l-4 166h-166l-67 -166h-147l322 693h154l50 -693h-142zM211 264h125l-7 291zM442 907h74q-2 -44 -23 -76.5t-56.5 -50t-80.5 -17.5q-50 0 -78.5 24t-28.5 65q0 30 12 55h71q-4 -16 -4 -25q0 -38 43 -38q27 0 44.5 13t23.5 38z" />
    <glyph glyph-name="abreve" unicode="&#x103;" horiz-adv-x="480" 
d="M265 0v69q-60 -82 -134 -82q-50 0 -77.5 41.5t-27.5 117.5q0 111 38 197.5t101.5 133.5t140.5 47q33 0 78.5 -11.5t81.5 -28.5l-94 -484h-107zM194 87q35 0 75 62l55 276q-15 3 -26 3q-40 0 -72 -37t-50 -96.5t-18 -128.5q0 -38 9.5 -58.5t26.5 -20.5zM402 759h74
q-4 -74 -46.5 -118t-110.5 -44q-52 0 -81.5 27t-29.5 73q0 31 13 62h71q-4 -21 -4 -36q0 -22 11 -34.5t31 -12.5q51 0 67 63z" />
    <glyph glyph-name="Aogonek" unicode="&#x104;" horiz-adv-x="539" 
d="M341 0l-4 166h-166l-67 -166h-147l322 693h154l50 -693h-142zM211 264h125l-7 291zM484 -205q-47 -24 -101 -24q-45 0 -69.5 20t-24.5 57q0 44 33 86t99 83l62 -17q-46 -37 -67 -66t-21 -55q0 -30 30 -30q15 0 36 7z" />
    <glyph glyph-name="aogonek" unicode="&#x105;" horiz-adv-x="480" 
d="M265 0v69q-60 -82 -134 -82q-50 0 -77.5 41.5t-27.5 117.5q0 111 38 197.5t101.5 133.5t140.5 47q33 0 78.5 -11.5t81.5 -28.5l-94 -484h-107zM194 87q35 0 75 62l55 276q-15 3 -26 3q-40 0 -72 -37t-50 -96.5t-18 -128.5q0 -38 9.5 -58.5t26.5 -20.5zM373 -205
q-47 -24 -99 -24q-45 0 -69.5 20t-24.5 57q0 44 33 86t99 83l60 -17q-46 -37 -67 -66t-21 -56q0 -31 30 -31q16 0 37 7z" />
    <glyph glyph-name="Cacute" unicode="&#x106;" horiz-adv-x="522" 
d="M461 52q-40 -33 -90 -50t-104 -17q-97 0 -153 66.5t-56 182.5q0 137 50 246t131.5 168.5t178.5 59.5q76 0 132 -36l-20 -104q-48 27 -104 27q-65 0 -117 -46.5t-80.5 -123t-28.5 -168.5q0 -77 26.5 -117.5t76.5 -40.5q31 0 62.5 12.5t71.5 40.5zM460 769h-111l108 128
h138z" />
    <glyph glyph-name="cacute" unicode="&#x107;" horiz-adv-x="391" 
d="M342 44q-33 -28 -75.5 -42.5t-89.5 -14.5q-71 0 -109.5 48t-38.5 136q0 100 37.5 181.5t98 126.5t130.5 45q57 0 109 -28l-18 -92q-44 18 -81 18q-42 0 -75 -32.5t-51 -86t-18 -117.5q0 -49 15 -73t47 -24q22 0 43.5 8t51.5 27zM244 600l112 167h142l-145 -167h-109z" />
    <glyph glyph-name="Ccircumflex" unicode="&#x108;" horiz-adv-x="522" 
d="M461 52q-40 -33 -90 -50t-104 -17q-97 0 -153 66.5t-56 182.5q0 137 50 246t131.5 168.5t178.5 59.5q76 0 132 -36l-20 -104q-48 27 -104 27q-65 0 -117 -46.5t-80.5 -123t-28.5 -168.5q0 -77 26.5 -117.5t76.5 -40.5q31 0 62.5 12.5t71.5 40.5zM423 847l-77 -78h-115
l130 140h138l77 -140h-106z" />
    <glyph glyph-name="ccircumflex" unicode="&#x109;" horiz-adv-x="391" 
d="M342 44q-33 -28 -75.5 -42.5t-89.5 -14.5q-71 0 -109.5 48t-38.5 136q0 100 37.5 181.5t98 126.5t130.5 45q57 0 109 -28l-18 -92q-44 18 -81 18q-42 0 -75 -32.5t-51 -86t-18 -117.5q0 -49 15 -73t47 -24q22 0 43.5 8t51.5 27zM324 702l-87 -102h-106l134 168h134
l69 -168h-97z" />
    <glyph glyph-name="Cdotaccent" unicode="&#x10a;" horiz-adv-x="522" 
d="M461 52q-40 -33 -90 -50t-104 -17q-97 0 -153 66.5t-56 182.5q0 137 50 246t131.5 168.5t178.5 59.5q76 0 132 -36l-20 -104q-48 27 -104 27q-65 0 -117 -46.5t-80.5 -123t-28.5 -168.5q0 -77 26.5 -117.5t76.5 -40.5q31 0 62.5 12.5t71.5 40.5zM416 774q-32 0 -51.5 18
t-19.5 47q0 36 24.5 60t60.5 24q32 0 51.5 -18t19.5 -47q0 -36 -24.5 -60t-60.5 -24z" />
    <glyph glyph-name="cdotaccent" unicode="&#x10b;" horiz-adv-x="391" 
d="M342 44q-33 -28 -75.5 -42.5t-89.5 -14.5q-71 0 -109.5 48t-38.5 136q0 100 37.5 181.5t98 126.5t130.5 45q57 0 109 -28l-18 -92q-44 18 -81 18q-42 0 -75 -32.5t-51 -86t-18 -117.5q0 -49 15 -73t47 -24q22 0 43.5 8t51.5 27zM317 592q-32 0 -51.5 17.5t-19.5 46.5
q0 35 24 59t59 24q32 0 51.5 -17.5t19.5 -46.5q0 -35 -24 -59t-59 -24z" />
    <glyph glyph-name="Ccaron" unicode="&#x10c;" horiz-adv-x="522" 
d="M461 52q-40 -33 -90 -50t-104 -17q-97 0 -153 66.5t-56 182.5q0 137 50 246t131.5 168.5t178.5 59.5q76 0 132 -36l-20 -104q-48 27 -104 27q-65 0 -117 -46.5t-80.5 -123t-28.5 -168.5q0 -77 26.5 -117.5t76.5 -40.5q31 0 62.5 12.5t71.5 40.5zM372 909l36 -90l71 90
h123l-130 -140h-138l-76 140h114z" />
    <glyph glyph-name="ccaron" unicode="&#x10d;" horiz-adv-x="391" 
d="M342 44q-33 -28 -75.5 -42.5t-89.5 -14.5q-71 0 -109.5 48t-38.5 136q0 100 37.5 181.5t98 126.5t130.5 45q57 0 109 -28l-18 -92q-44 18 -81 18q-42 0 -75 -32.5t-51 -86t-18 -117.5q0 -49 15 -73t47 -24q22 0 43.5 8t51.5 27zM273 768l35 -115l80 115h115l-134 -168
h-134l-68 168h106z" />
    <glyph glyph-name="Dcaron" unicode="&#x10e;" horiz-adv-x="591" 
d="M18 0l135 693h190q104 0 163.5 -67.5t59.5 -185.5q0 -127 -45.5 -228t-121 -156.5t-165.5 -55.5h-216zM267 588l-94 -483h62q55 0 99 46t68.5 121.5t24.5 164.5q0 72 -25.5 111.5t-72.5 39.5h-62zM327 909l36 -90l71 90h123l-130 -140h-138l-76 140h114z" />
    <glyph glyph-name="dcaron" unicode="&#x10f;" horiz-adv-x="578" 
d="M269 0v69q-61 -82 -138 -82q-105 0 -105 157q0 111 35.5 198t95.5 134.5t133 47.5q27 0 54 -11l44 227h132l-144 -740h-107zM194 87q36 0 79 60l55 277q-19 4 -35 4q-38 0 -69.5 -37.5t-48.5 -97.5t-17 -129q0 -77 36 -77zM538 539l39 202q30 11 59 11q37 0 60 -19
l-75 -194h-83z" />
    <glyph glyph-name="Dcroat" unicode="&#x110;" horiz-adv-x="601" 
d="M28 0l60 310h-62l19 94h62l56 289h190q104 0 163.5 -67.5t59.5 -185.5q0 -127 -45.5 -228t-121 -156.5t-165.5 -55.5h-216zM223 310l-40 -205h62q55 0 99 46t68.5 121.5t24.5 164.5q0 72 -25.5 111.5t-72.5 39.5h-62l-36 -184h106l-19 -94h-105z" />
    <glyph glyph-name="dcroat" unicode="&#x111;" horiz-adv-x="484" 
d="M269 0v69q-61 -82 -138 -82q-105 0 -105 157q0 111 35.5 198t95.5 134.5t133 47.5q29 0 54 -11l14 74h-106l16 81h106l14 72h132l-14 -72h50l-16 -81h-50l-114 -587h-107zM194 87q36 0 79 60l55 277q-19 4 -35 4q-38 0 -69.5 -37.5t-48.5 -97.5t-17 -129q0 -77 36 -77z
" />
    <glyph glyph-name="Emacron" unicode="&#x112;" horiz-adv-x="466" 
d="M18 0l135 693h365l-21 -105h-230l-35 -180h184l-21 -105h-184l-38 -198h230l-20 -105h-365zM206 794l16 83h283l-16 -83h-283z" />
    <glyph glyph-name="emacron" unicode="&#x113;" horiz-adv-x="427" 
d="M355 46q-86 -59 -185 -59q-69 0 -106 45t-37 128q0 106 36.5 189.5t97.5 129t134 45.5q55 0 89 -32.5t34 -85.5q0 -84 -57 -140.5t-169 -84.5l-45 -12q1 -48 15 -65t51 -17q28 0 59 9.5t59 27.5zM273 432q-25 0 -51 -24t-44 -64.5t-26 -91.5l46 14q52 15 81 47.5t29 75.5
t-35 43zM159 627l16 82h281l-16 -82h-281z" />
    <glyph glyph-name="Ebreve" unicode="&#x114;" horiz-adv-x="466" 
d="M18 0l135 693h365l-21 -105h-230l-35 -180h184l-21 -105h-184l-38 -198h230l-20 -105h-365zM420 907h74q-2 -44 -23 -76.5t-56.5 -50t-80.5 -17.5q-50 0 -78.5 24t-28.5 65q0 30 12 55h71q-4 -16 -4 -25q0 -38 43 -38q27 0 44.5 13t23.5 38z" />
    <glyph glyph-name="ebreve" unicode="&#x115;" horiz-adv-x="427" 
d="M355 46q-86 -59 -185 -59q-69 0 -106 45t-37 128q0 106 36.5 189.5t97.5 129t134 45.5q55 0 89 -32.5t34 -85.5q0 -84 -57 -140.5t-169 -84.5l-45 -12q1 -48 15 -65t51 -17q28 0 59 9.5t59 27.5zM273 432q-25 0 -51 -24t-44 -64.5t-26 -91.5l46 14q52 15 81 47.5t29 75.5
t-35 43zM377 759h74q-4 -74 -46.5 -118t-110.5 -44q-52 0 -81.5 27t-29.5 73q0 31 13 62h71q-4 -21 -4 -36q0 -22 11 -34.5t31 -12.5q51 0 67 63z" />
    <glyph glyph-name="Edotaccent" unicode="&#x116;" horiz-adv-x="466" 
d="M18 0l135 693h365l-21 -105h-230l-35 -180h184l-21 -105h-184l-38 -198h230l-20 -105h-365zM352 774q-32 0 -51.5 18t-19.5 47q0 36 24.5 60t60.5 24q32 0 51.5 -18t19.5 -47q0 -36 -24.5 -60t-60.5 -24z" />
    <glyph glyph-name="edotaccent" unicode="&#x117;" horiz-adv-x="427" 
d="M355 46q-86 -59 -185 -59q-69 0 -106 45t-37 128q0 106 36.5 189.5t97.5 129t134 45.5q55 0 89 -32.5t34 -85.5q0 -84 -57 -140.5t-169 -84.5l-45 -12q1 -48 15 -65t51 -17q28 0 59 9.5t59 27.5zM273 432q-25 0 -51 -24t-44 -64.5t-26 -91.5l46 14q52 15 81 47.5t29 75.5
t-35 43zM306 592q-32 0 -51.5 17.5t-19.5 46.5q0 35 24 59t59 24q32 0 51.5 -17.5t19.5 -46.5q0 -35 -24 -59t-59 -24z" />
    <glyph glyph-name="Eogonek" unicode="&#x118;" horiz-adv-x="466" 
d="M18 0l135 693h365l-21 -105h-230l-35 -180h184l-21 -105h-184l-38 -198h230l-20 -105h-365zM384 -205q-47 -24 -101 -24q-45 0 -69.5 20t-24.5 57q0 44 33 86t99 83l62 -17q-46 -37 -67 -66t-21 -55q0 -30 30 -30q15 0 36 7z" />
    <glyph glyph-name="eogonek" unicode="&#x119;" horiz-adv-x="427" 
d="M147 169q1 -48 15 -65t51 -17q28 0 59 9.5t59 27.5l24 -78q-25 -17 -70 -38q-44 -21 -73 -58t-29 -72q0 -31 30 -31q16 0 37 7l22 -59q-47 -24 -99 -24q-45 0 -69.5 20t-24.5 57q0 74 87 139q-68 2 -103.5 46.5t-35.5 126.5q0 106 36.5 189.5t97.5 129t134 45.5
q55 0 89 -32.5t34 -85.5q0 -165 -226 -225zM273 432q-25 0 -51 -24t-44 -64.5t-26 -91.5l46 14q53 16 81.5 48t28.5 75t-35 43z" />
    <glyph glyph-name="Ecaron" unicode="&#x11a;" horiz-adv-x="466" 
d="M18 0l135 693h365l-21 -105h-230l-35 -180h184l-21 -105h-184l-38 -198h230l-20 -105h-365zM308 909l36 -90l71 90h123l-130 -140h-138l-76 140h114z" />
    <glyph glyph-name="ecaron" unicode="&#x11b;" horiz-adv-x="427" 
d="M355 46q-86 -59 -185 -59q-69 0 -106 45t-37 128q0 106 36.5 189.5t97.5 129t134 45.5q55 0 89 -32.5t34 -85.5q0 -84 -57 -140.5t-169 -84.5l-45 -12q1 -48 15 -65t51 -17q28 0 59 9.5t59 27.5zM273 432q-25 0 -51 -24t-44 -64.5t-26 -91.5l46 14q52 15 81 47.5t29 75.5
t-35 43zM262 768l35 -115l80 115h115l-134 -168h-134l-68 168h106z" />
    <glyph glyph-name="Gcircumflex" unicode="&#x11c;" horiz-adv-x="584" 
d="M302 97q39 0 73 12l35 176h-95l19 99h218l-67 -344q-36 -25 -87.5 -40t-105.5 -15q-110 0 -171.5 67.5t-61.5 187.5q0 135 50 242.5t133.5 166.5t183.5 59q98 0 162 -40l-20 -104q-64 32 -138 32q-67 0 -119.5 -46t-81.5 -122.5t-29 -167.5q0 -79 26 -121t76 -42z
M433 847l-77 -78h-115l130 140h138l77 -140h-106z" />
    <glyph glyph-name="gcircumflex" unicode="&#x11d;" 
d="M263 84q-27 -37 -59 -56t-65 -19q-52 0 -81.5 41t-29.5 113q0 106 37.5 188.5t100 127.5t138.5 45q40 0 85.5 -11t82.5 -29l-82 -422q-28 -143 -95.5 -211.5t-179.5 -68.5q-77 0 -135 36l18 94q59 -28 112 -28q62 0 96.5 42t54.5 145zM198 109q16 0 39 18.5t45 49.5
l48 248q-16 3 -30 3q-39 0 -71 -35.5t-50.5 -91.5t-18.5 -117q0 -36 10 -55.5t28 -19.5zM343 702l-87 -102h-106l134 168h134l69 -168h-97z" />
    <glyph glyph-name="Gbreve" unicode="&#x11e;" horiz-adv-x="584" 
d="M302 97q39 0 73 12l35 176h-95l19 99h218l-67 -344q-36 -25 -87.5 -40t-105.5 -15q-110 0 -171.5 67.5t-61.5 187.5q0 135 50 242.5t133.5 166.5t183.5 59q98 0 162 -40l-20 -104q-64 32 -138 32q-67 0 -119.5 -46t-81.5 -122.5t-29 -167.5q0 -79 26 -121t76 -42z
M494 907h74q-2 -44 -23 -76.5t-56.5 -50t-80.5 -17.5q-50 0 -78.5 24t-28.5 65q0 30 12 55h71q-4 -16 -4 -25q0 -38 43 -38q27 0 44.5 13t23.5 38z" />
    <glyph glyph-name="gbreve" unicode="&#x11f;" 
d="M263 84q-27 -37 -59 -56t-65 -19q-52 0 -81.5 41t-29.5 113q0 106 37.5 188.5t100 127.5t138.5 45q40 0 85.5 -11t82.5 -29l-82 -422q-28 -143 -95.5 -211.5t-179.5 -68.5q-77 0 -135 36l18 94q59 -28 112 -28q62 0 96.5 42t54.5 145zM198 109q16 0 39 18.5t45 49.5
l48 248q-16 3 -30 3q-39 0 -71 -35.5t-50.5 -91.5t-18.5 -117q0 -36 10 -55.5t28 -19.5zM407 759h74q-4 -74 -46.5 -118t-110.5 -44q-52 0 -81.5 27t-29.5 73q0 31 13 62h71q-4 -21 -4 -36q0 -22 11 -34.5t31 -12.5q51 0 67 63z" />
    <glyph glyph-name="Gdotaccent" unicode="&#x120;" horiz-adv-x="584" 
d="M302 97q39 0 73 12l35 176h-95l19 99h218l-67 -344q-36 -25 -87.5 -40t-105.5 -15q-110 0 -171.5 67.5t-61.5 187.5q0 135 50 242.5t133.5 166.5t183.5 59q98 0 162 -40l-20 -104q-64 32 -138 32q-67 0 -119.5 -46t-81.5 -122.5t-29 -167.5q0 -79 26 -121t76 -42z
M426 774q-32 0 -51.5 18t-19.5 47q0 36 24.5 60t60.5 24q32 0 51.5 -18t19.5 -47q0 -36 -24.5 -60t-60.5 -24z" />
    <glyph glyph-name="gdotaccent" unicode="&#x121;" 
d="M263 84q-27 -37 -59 -56t-65 -19q-52 0 -81.5 41t-29.5 113q0 106 37.5 188.5t100 127.5t138.5 45q40 0 85.5 -11t82.5 -29l-82 -422q-28 -143 -95.5 -211.5t-179.5 -68.5q-77 0 -135 36l18 94q59 -28 112 -28q62 0 96.5 42t54.5 145zM198 109q16 0 39 18.5t45 49.5
l48 248q-16 3 -30 3q-39 0 -71 -35.5t-50.5 -91.5t-18.5 -117q0 -36 10 -55.5t28 -19.5zM336 592q-32 0 -51.5 17.5t-19.5 46.5q0 35 24 59t59 24q32 0 51.5 -17.5t19.5 -46.5q0 -35 -24 -59t-59 -24z" />
    <glyph glyph-name="uni0122" unicode="&#x122;" horiz-adv-x="584" 
d="M302 97q39 0 73 12l35 176h-95l19 99h218l-67 -344q-36 -25 -87.5 -40t-105.5 -15q-110 0 -171.5 67.5t-61.5 187.5q0 135 50 242.5t133.5 166.5t183.5 59q98 0 162 -40l-20 -104q-64 32 -138 32q-67 0 -119.5 -46t-81.5 -122.5t-29 -167.5q0 -79 26 -121t76 -42z
M160 -284l72 221h51q50 0 50 -35q0 -12 -4.5 -24.5t-29.5 -56.5l-59 -105h-80z" />
    <glyph glyph-name="uni0123" unicode="&#x123;" 
d="M263 84q-27 -37 -59 -56t-65 -19q-52 0 -81.5 41t-29.5 113q0 106 37.5 188.5t100 127.5t138.5 45q40 0 85.5 -11t82.5 -29l-82 -422q-28 -143 -95.5 -211.5t-179.5 -68.5q-77 0 -135 36l18 94q59 -28 112 -28q62 0 96.5 42t54.5 145zM198 109q16 0 39 18.5t45 49.5
l48 248q-16 3 -30 3q-39 0 -71 -35.5t-50.5 -91.5t-18.5 -117q0 -36 10 -55.5t28 -19.5zM365 588h-49q-49 0 -49 35q0 12 6.5 28t27.5 53l62 113h77z" />
    <glyph glyph-name="Hcircumflex" unicode="&#x124;" horiz-adv-x="593" 
d="M341 0l59 301h-188l-59 -301h-135l135 693h135l-56 -287h188l56 287h135l-135 -693h-135zM404 847l-77 -78h-115l130 140h138l77 -140h-106z" />
    <glyph glyph-name="hcircumflex" unicode="&#x125;" horiz-adv-x="504" 
d="M266 0l53 273q15 75 15 105q0 44 -31 44q-36 0 -92 -65l-69 -357h-132l144 740h132l-57 -292q30 36 65 56t70 20q51 0 77 -32t26 -93q0 -43 -16 -127l-53 -272h-132zM244 867l-77 -78h-115l130 140h138l77 -140h-106z" />
    <glyph glyph-name="Hbar" unicode="&#x126;" horiz-adv-x="613" 
d="M351 0l59 301h-188l-59 -301h-135l97 500h-62l17 86h62l21 107h135l-21 -107h188l21 107h135l-21 -107h62l-17 -86h-62l-97 -500h-135zM430 406l18 94h-188l-18 -94h188z" />
    <glyph glyph-name="hbar" unicode="&#x127;" horiz-adv-x="504" 
d="M256 587l-27 -139q30 36 65 56t70 20q51 0 77 -32t26 -93q0 -43 -16 -127l-53 -272h-132l53 273q15 75 15 105q0 44 -31 44q-36 0 -92 -65l-69 -357h-132l114 587h-50l16 81h50l14 72h132l-14 -72h109l-16 -81h-109z" />
    <glyph glyph-name="Itilde" unicode="&#x128;" horiz-adv-x="270" 
d="M153 0h-135l135 693h135zM267 870q15 -21 20 -25.5t12 -4.5t12.5 7t11.5 28l8 30h70q-1 -23 -4 -37q-8 -47 -36 -75t-68 -28q-24 0 -40 8.5t-31 29.5t-20 25.5t-12 4.5t-12.5 -7t-11.5 -28l-8 -30h-70q1 23 4 37q8 47 36 75t68 28q24 0 40 -8.5t31 -29.5z" />
    <glyph glyph-name="itilde" unicode="&#x129;" horiz-adv-x="256" 
d="M112 511h132l-99 -511h-132zM182 635q-14 19 -20.5 24.5t-13.5 5.5q-15 0 -24 -35l-8 -30h-68q1 23 4 37q8 46 36 73.5t66 27.5q23 0 39 -8.5t32 -29.5q14 -19 20.5 -24.5t13.5 -5.5q15 0 24 35l8 30h68q-1 -23 -4 -37q-8 -46 -36 -73.5t-66 -27.5q-23 0 -39 8.5
t-32 29.5z" />
    <glyph glyph-name="Imacron" unicode="&#x12a;" horiz-adv-x="270" 
d="M153 0h-135l135 693h135zM96 794l16 83h283l-16 -83h-283z" />
    <glyph glyph-name="imacron" unicode="&#x12b;" horiz-adv-x="256" 
d="M112 511h132l-99 -511h-132zM54 627l16 82h281l-16 -82h-281z" />
    <glyph glyph-name="Ibreve" unicode="&#x12c;" horiz-adv-x="270" 
d="M153 0h-135l135 693h135zM310 907h74q-2 -44 -23 -76.5t-56.5 -50t-80.5 -17.5q-50 0 -78.5 24t-28.5 65q0 30 12 55h71q-4 -16 -4 -25q0 -38 43 -38q27 0 44.5 13t23.5 38z" />
    <glyph glyph-name="ibreve" unicode="&#x12d;" horiz-adv-x="256" 
d="M112 511h132l-99 -511h-132zM272 759h74q-4 -74 -46.5 -118t-110.5 -44q-52 0 -81.5 27t-29.5 73q0 31 13 62h71q-4 -21 -4 -36q0 -22 11 -34.5t31 -12.5q51 0 67 63z" />
    <glyph glyph-name="Iogonek" unicode="&#x12e;" horiz-adv-x="270" 
d="M153 0h-135l135 693h135zM154 -205q-47 -24 -101 -24q-45 0 -69.5 20t-24.5 57q0 44 33 86t99 83l62 -17q-46 -37 -67 -66t-21 -55q0 -30 30 -30q15 0 36 7z" />
    <glyph glyph-name="iogonek" unicode="&#x12f;" horiz-adv-x="256" 
d="M112 511h132l-99 -511h-132zM200 594q-35 0 -55.5 18.5t-20.5 49.5q0 37 24 60.5t61 23.5q35 0 55.5 -18.5t20.5 -49.5q0 -37 -24 -60.5t-61 -23.5zM146 -205q-47 -24 -99 -24q-45 0 -69.5 20t-24.5 57q0 44 33 86t99 83l60 -17q-46 -37 -67 -66t-21 -56q0 -31 30 -31
q16 0 37 7z" />
    <glyph glyph-name="Idotaccent" unicode="&#x130;" horiz-adv-x="270" 
d="M153 0h-135l135 693h135zM242 774q-32 0 -51.5 18t-19.5 47q0 36 24.5 60t60.5 24q32 0 51.5 -18t19.5 -47q0 -36 -24.5 -60t-60.5 -24z" />
    <glyph glyph-name="dotlessi" unicode="&#x131;" horiz-adv-x="256" 
d="M112 511h132l-99 -511h-132z" />
    <glyph glyph-name="IJ" unicode="&#x132;" horiz-adv-x="638" 
d="M524 693h135l-97 -498q-21 -106 -71.5 -158t-133.5 -52q-60 0 -118 27l20 101q49 -15 84 -15t55.5 26.5t31.5 84.5zM153 0h-135l135 693h135z" />
    <glyph glyph-name="ij" unicode="&#x133;" horiz-adv-x="512" 
d="M233 -218q-55 0 -95 24l16 84q24 -6 49 -6q23 0 37 19t22 61l106 547h132l-106 -545q-18 -93 -58 -138.5t-103 -45.5zM456 594q-35 0 -55.5 18.5t-20.5 49.5q0 37 24 60.5t61 23.5q35 0 55.5 -18.5t20.5 -49.5q0 -37 -24 -60.5t-61 -23.5zM112 511h132l-99 -511h-132z
M200 594q-35 0 -55.5 18.5t-20.5 49.5q0 37 24 60.5t61 23.5q35 0 55.5 -18.5t20.5 -49.5q0 -37 -24 -60.5t-61 -23.5z" />
    <glyph glyph-name="Jcircumflex" unicode="&#x134;" horiz-adv-x="368" 
d="M254 693h135l-97 -498q-21 -106 -71.5 -158t-133.5 -52q-60 0 -118 27l20 101q49 -15 84 -15t55.5 26.5t31.5 84.5zM350 847l-77 -78h-115l130 140h138l77 -140h-106z" />
    <glyph glyph-name="jcircumflex" unicode="&#x135;" horiz-adv-x="256" 
d="M-23 -218q-55 0 -95 24l16 84q24 -6 49 -6q23 0 37 19t22 61l106 547h132l-106 -545q-18 -93 -58 -138.5t-103 -45.5zM208 702l-87 -102h-106l134 168h134l69 -168h-97z" />
    <glyph glyph-name="uni0136" unicode="&#x136;" horiz-adv-x="549" 
d="M18 0l135 693h135l-60 -309l228 309h162l-275 -338l158 -355h-153l-130 333l-65 -333h-135zM110 -284l72 221h51q50 0 50 -35q0 -12 -4.5 -24.5t-29.5 -56.5l-59 -105h-80z" />
    <glyph glyph-name="uni0137" unicode="&#x137;" horiz-adv-x="477" 
d="M10 0l144 740h130l-86 -442l158 213h151l-198 -245l118 -266h-142l-97 247l-48 -247h-130zM73 -284l72 221h50q49 0 49 -35q0 -12 -4.5 -24.5t-29.5 -56.5l-59 -105h-78z" />
    <glyph glyph-name="kgreenlandic" unicode="&#x138;" horiz-adv-x="477" 
d="M10 0l99 511h130l-44 -226l164 226h148l-202 -257l122 -254h-142l-100 234l-45 -234h-130z" />
    <glyph glyph-name="Lacute" unicode="&#x139;" horiz-adv-x="427" 
d="M18 0l135 693h135l-114 -584h219l-21 -109h-354zM286 769h-111l108 128h138z" />
    <glyph glyph-name="lacute" unicode="&#x13a;" horiz-adv-x="292" 
d="M254 25q-45 -31 -115 -31q-103 0 -103 113q0 31 18 124l99 509h132l-100 -515q-10 -47 -12 -63.5t-2 -32.5q0 -33 31 -33q18 0 32 6zM280 789h-111l108 128h138z" />
    <glyph glyph-name="uni013B" unicode="&#x13b;" horiz-adv-x="427" 
d="M18 0l135 693h135l-114 -584h219l-21 -109h-354zM62 -284l72 221h51q50 0 50 -35q0 -12 -4.5 -24.5t-29.5 -56.5l-59 -105h-80z" />
    <glyph glyph-name="uni013C" unicode="&#x13c;" horiz-adv-x="292" 
d="M254 25q-45 -31 -115 -31q-103 0 -103 113q0 31 18 124l99 509h132l-100 -515q-10 -47 -12 -63.5t-2 -32.5q0 -33 31 -33q18 0 32 6zM-1 -284l72 221h50q49 0 49 -35q0 -12 -4.5 -24.5t-29.5 -56.5l-59 -105h-78z" />
    <glyph glyph-name="Lcaron" unicode="&#x13d;" horiz-adv-x="427" 
d="M18 0l135 693h135l-114 -584h219l-21 -109h-354zM338 518l39 202q30 11 59 11q37 0 60 -19l-75 -194h-83z" />
    <glyph glyph-name="lcaron" unicode="&#x13e;" horiz-adv-x="343" 
d="M254 25q-45 -31 -115 -31q-103 0 -103 113q0 31 18 124l99 509h132l-100 -515q-10 -47 -12 -63.5t-2 -32.5q0 -33 31 -33q18 0 32 6zM303 539l39 202q30 11 59 11q37 0 60 -19l-75 -194h-83z" />
    <glyph glyph-name="Ldot" unicode="&#x13f;" horiz-adv-x="427" 
d="M18 0l135 693h135l-114 -584h219l-21 -109h-354zM367 315q-30 0 -48.5 16.5t-18.5 43.5q0 34 23 56.5t56 22.5q30 0 48.5 -16.5t18.5 -43.5q0 -34 -23 -56.5t-56 -22.5z" />
    <glyph glyph-name="ldot" unicode="&#x140;" horiz-adv-x="385" 
d="M254 25q-45 -31 -115 -31q-103 0 -103 113q0 31 18 124l99 509h132l-100 -515q-10 -47 -12 -63.5t-2 -32.5q0 -33 31 -33q18 0 32 6zM334 301q-30 0 -48.5 16.5t-18.5 43.5q0 34 23 56.5t56 22.5q30 0 48.5 -16.5t18.5 -43.5q0 -34 -23 -56.5t-56 -22.5z" />
    <glyph glyph-name="Lslash" unicode="&#x141;" horiz-adv-x="437" 
d="M28 0l45 233l-78 -48l21 109l79 48l68 351h135l-50 -256l124 77l-21 -109l-124 -77l-43 -219h219l-21 -109h-354z" />
    <glyph glyph-name="lslash" unicode="&#x142;" horiz-adv-x="312" 
d="M222 367l-27 -142q-10 -47 -12 -63.5t-2 -32.5q0 -33 31 -33q18 0 32 6l20 -77q-45 -31 -115 -31q-103 0 -103 113q0 31 18 124l9 49l-72 -42l18 91l72 42l72 369h132l-55 -282l79 46l-18 -91z" />
    <glyph glyph-name="Nacute" unicode="&#x143;" horiz-adv-x="593" 
d="M325 0l-95 504l-98 -504h-114l135 693h153l94 -496l97 496h114l-135 -693h-151zM444 769h-111l108 128h138z" />
    <glyph glyph-name="nacute" unicode="&#x144;" horiz-adv-x="504" 
d="M266 0l53 273q15 75 15 105q0 44 -31 44q-36 0 -92 -65l-69 -357h-132l99 511h107v-77q31 42 70 66t78 24q51 0 77 -32t26 -93q0 -43 -16 -127l-53 -272h-132zM254 600l112 167h142l-145 -167h-109z" />
    <glyph glyph-name="uni0145" unicode="&#x145;" horiz-adv-x="593" 
d="M325 0l-95 504l-98 -504h-114l135 693h153l94 -496l97 496h114l-135 -693h-151zM114 -284l72 221h51q50 0 50 -35q0 -12 -4.5 -24.5t-29.5 -56.5l-59 -105h-80z" />
    <glyph glyph-name="uni0146" unicode="&#x146;" horiz-adv-x="504" 
d="M266 0l53 273q15 75 15 105q0 44 -31 44q-36 0 -92 -65l-69 -357h-132l99 511h107v-77q31 42 70 66t78 24q51 0 77 -32t26 -93q0 -43 -16 -127l-53 -272h-132zM74 -284l72 221h50q49 0 49 -35q0 -12 -4.5 -24.5t-29.5 -56.5l-59 -105h-78z" />
    <glyph glyph-name="Ncaron" unicode="&#x147;" horiz-adv-x="593" 
d="M325 0l-95 504l-98 -504h-114l135 693h153l94 -496l97 496h114l-135 -693h-151zM356 909l36 -90l71 90h123l-130 -140h-138l-76 140h114z" />
    <glyph glyph-name="ncaron" unicode="&#x148;" horiz-adv-x="504" 
d="M266 0l53 273q15 75 15 105q0 44 -31 44q-36 0 -92 -65l-69 -357h-132l99 511h107v-77q31 42 70 66t78 24q51 0 77 -32t26 -93q0 -43 -16 -127l-53 -272h-132zM283 768l35 -115l80 115h115l-134 -168h-134l-68 168h106z" />
    <glyph glyph-name="napostrophe" unicode="&#x149;" horiz-adv-x="690" 
d="M452 0l53 273q15 75 15 105q0 44 -31 44q-36 0 -92 -65l-69 -357h-132l99 511h107v-77q31 42 70 66t78 24q51 0 77 -32t26 -93q0 -43 -16 -127l-53 -272h-132zM71 410l100 283h54q58 0 58 -45q0 -13 -6 -28t-24 -47l-94 -163h-88z" />
    <glyph glyph-name="Eng" unicode="&#x14a;" horiz-adv-x="593" 
d="M255 -105q43 0 66.5 22.5t34.5 73.5l2 9l-126 517l-100 -517h-114l135 693h153l105 -443l86 443h114l-137 -702q-41 -209 -205 -209q-60 0 -118 27l20 101q49 -15 84 -15z" />
    <glyph glyph-name="eng" unicode="&#x14b;" horiz-adv-x="504" 
d="M319 273q15 83 15 105q0 44 -31 44q-36 0 -92 -65l-69 -357h-132l99 511h107v-77q31 42 70 66t78 24q51 0 77 -32t26 -93q0 -43 -16 -127l-59 -305q-18 -95 -61.5 -140t-117.5 -45q-62 0 -96 19l17 86q23 -5 53 -5q31 0 47.5 19t25.5 67z" />
    <glyph glyph-name="Omacron" unicode="&#x14c;" horiz-adv-x="639" 
d="M293 -15q-110 0 -171 70t-61 195q0 89 26 178.5t69.5 152.5t100.5 95t125 32q110 0 171 -70t61 -195q0 -89 -26 -178.5t-69.5 -152.5t-100.5 -95t-125 -32zM379 597q-56 0 -95 -50.5t-61.5 -137.5t-22.5 -174q0 -68 24.5 -103.5t71.5 -35.5q56 0 95 50.5t61.5 137.5
t22.5 174q0 68 -24.5 103.5t-71.5 35.5zM274 794l16 83h283l-16 -83h-283z" />
    <glyph glyph-name="omacron" unicode="&#x14d;" horiz-adv-x="472" 
d="M201 -13q-80 0 -125 52.5t-45 144.5q0 87 32.5 170t86 126.5t122.5 43.5q80 0 125 -52.5t45 -144.5q0 -87 -32.5 -170t-86 -126.5t-122.5 -43.5zM267 422q-33 0 -56 -36.5t-36.5 -98.5t-13.5 -120q0 -38 11.5 -58t33.5 -20q33 0 56 36.5t36.5 98.5t13.5 120
q0 38 -11.5 58t-33.5 20zM154 627l16 82h281l-16 -82h-281z" />
    <glyph glyph-name="Obreve" unicode="&#x14e;" horiz-adv-x="639" 
d="M293 -15q-110 0 -171 70t-61 195q0 89 26 178.5t69.5 152.5t100.5 95t125 32q110 0 171 -70t61 -195q0 -89 -26 -178.5t-69.5 -152.5t-100.5 -95t-125 -32zM379 597q-56 0 -95 -50.5t-61.5 -137.5t-22.5 -174q0 -68 24.5 -103.5t71.5 -35.5q56 0 95 50.5t61.5 137.5
t22.5 174q0 68 -24.5 103.5t-71.5 35.5zM488 907h74q-2 -44 -23 -76.5t-56.5 -50t-80.5 -17.5q-50 0 -78.5 24t-28.5 65q0 30 12 55h71q-4 -16 -4 -25q0 -38 43 -38q27 0 44.5 13t23.5 38z" />
    <glyph glyph-name="obreve" unicode="&#x14f;" horiz-adv-x="472" 
d="M201 -13q-80 0 -125 52.5t-45 144.5q0 87 32.5 170t86 126.5t122.5 43.5q80 0 125 -52.5t45 -144.5q0 -87 -32.5 -170t-86 -126.5t-122.5 -43.5zM267 422q-33 0 -56 -36.5t-36.5 -98.5t-13.5 -120q0 -38 11.5 -58t33.5 -20q33 0 56 36.5t36.5 98.5t13.5 120
q0 38 -11.5 58t-33.5 20zM372 759h74q-4 -74 -46.5 -118t-110.5 -44q-52 0 -81.5 27t-29.5 73q0 31 13 62h71q-4 -21 -4 -36q0 -22 11 -34.5t31 -12.5q51 0 67 63z" />
    <glyph glyph-name="Ohungarumlaut" unicode="&#x150;" horiz-adv-x="639" 
d="M293 -15q-110 0 -171 70t-61 195q0 89 26 178.5t69.5 152.5t100.5 95t125 32q110 0 171 -70t61 -195q0 -89 -26 -178.5t-69.5 -152.5t-100.5 -95t-125 -32zM379 597q-56 0 -95 -50.5t-61.5 -137.5t-22.5 -174q0 -68 24.5 -103.5t71.5 -35.5q56 0 95 50.5t61.5 137.5
t22.5 174q0 68 -24.5 103.5t-71.5 35.5zM361 897h138l-134 -128h-112zM548 897h138l-134 -128h-112z" />
    <glyph glyph-name="ohungarumlaut" unicode="&#x151;" horiz-adv-x="472" 
d="M201 -13q-80 0 -125 52.5t-45 144.5q0 87 32.5 170t86 126.5t122.5 43.5q80 0 125 -52.5t45 -144.5q0 -87 -32.5 -170t-86 -126.5t-122.5 -43.5zM267 422q-33 0 -56 -36.5t-36.5 -98.5t-13.5 -120q0 -38 11.5 -58t33.5 -20q33 0 56 36.5t36.5 98.5t13.5 120
q0 38 -11.5 58t-33.5 20zM127 600l113 167h140l-145 -167h-108zM325 600l113 167h140l-145 -167h-108z" />
    <glyph glyph-name="OE" unicode="&#x152;" horiz-adv-x="836" 
d="M257 -15q-92 0 -144 68t-52 190q0 92 24.5 182.5t65 154t93 96t114.5 32.5q54 0 94 -27.5t63 -80.5l18 93h355l-21 -105h-230l-35 -180h184l-21 -105h-184l-38 -198h230l-20 -105h-355l14 72q-69 -87 -155 -87zM379 597q-56 0 -95 -50.5t-61.5 -137.5t-22.5 -174
q0 -68 24.5 -103.5t71.5 -35.5q56 0 95 50.5t61.5 137.5t22.5 174q0 68 -24.5 103.5t-71.5 35.5z" />
    <glyph glyph-name="oe" unicode="&#x153;" horiz-adv-x="696" 
d="M262 524q46 0 79.5 -22.5t50.5 -65.5q35 43 79 65.5t93 22.5q55 0 89 -32.5t34 -85.5q0 -84 -57 -140.5t-169 -84.5l-45 -12q1 -48 15 -65t51 -17q28 0 59 9.5t59 27.5l24 -78q-41 -28 -88.5 -43.5t-94.5 -15.5q-86 0 -119 77q-57 -77 -140 -77q-71 0 -111 50.5
t-40 138.5q0 90 31 174.5t82.5 129t117.5 44.5zM267 422q-33 0 -56 -36.5t-36.5 -98.5t-13.5 -120q0 -38 11.5 -58t33.5 -20q33 0 56 36.5t36.5 98.5t13.5 120q0 38 -11.5 58t-33.5 20zM542 432q-25 0 -51 -24t-44 -64.5t-26 -91.5l46 14q52 15 81 47.5t29 75.5t-35 43z" />
    <glyph glyph-name="Racute" unicode="&#x154;" horiz-adv-x="523" 
d="M333 0l-84 272h-49l-53 -272h-129l135 693h197q82 0 129.5 -46t47.5 -126q0 -86 -41 -148t-115 -87l94 -286h-132zM218 368h63q51 0 81.5 38.5t30.5 103.5q0 40 -20 61t-56 21h-55zM395 769h-111l108 128h138z" />
    <glyph glyph-name="racute" unicode="&#x155;" horiz-adv-x="337" 
d="M10 0l99 511h107v-70q27 36 61 55.5t69 19.5q19 0 37 -6l-23 -117q-30 6 -57 6q-52 0 -89 -31l-72 -368h-132zM201 600l112 167h142l-145 -167h-109z" />
    <glyph glyph-name="uni0156" unicode="&#x156;" horiz-adv-x="523" 
d="M333 0l-84 272h-49l-53 -272h-129l135 693h197q82 0 129.5 -46t47.5 -126q0 -86 -41 -148t-115 -87l94 -286h-132zM218 368h63q51 0 81.5 38.5t30.5 103.5q0 40 -20 61t-56 21h-55zM98 -284l72 221h51q50 0 50 -35q0 -12 -4.5 -24.5t-29.5 -56.5l-59 -105h-80z" />
    <glyph glyph-name="uni0157" unicode="&#x157;" horiz-adv-x="337" 
d="M10 0l99 511h107v-70q27 36 61 55.5t69 19.5q19 0 37 -6l-23 -117q-30 6 -57 6q-52 0 -89 -31l-72 -368h-132zM-58 -284l72 221h50q49 0 49 -35q0 -12 -4.5 -24.5t-29.5 -56.5l-59 -105h-78z" />
    <glyph glyph-name="Rcaron" unicode="&#x158;" horiz-adv-x="523" 
d="M333 0l-84 272h-49l-53 -272h-129l135 693h197q82 0 129.5 -46t47.5 -126q0 -86 -41 -148t-115 -87l94 -286h-132zM218 368h63q51 0 81.5 38.5t30.5 103.5q0 40 -20 61t-56 21h-55zM307 909l36 -90l71 90h123l-130 -140h-138l-76 140h114z" />
    <glyph glyph-name="rcaron" unicode="&#x159;" horiz-adv-x="337" 
d="M10 0l99 511h107v-70q27 36 61 55.5t69 19.5q19 0 37 -6l-23 -117q-30 6 -57 6q-52 0 -89 -31l-72 -368h-132zM230 768l35 -115l80 115h115l-134 -168h-134l-68 168h106z" />
    <glyph glyph-name="Sacute" unicode="&#x15a;" horiz-adv-x="470" 
d="M184 314q-53 34 -76 72t-23 90q0 68 32 121t86 82t120 29q91 0 153 -44l-20 -101q-46 35 -114 35q-56 0 -87 -26.5t-31 -74.5q0 -25 12 -42.5t44 -38.5l52 -34q49 -33 71 -70t22 -88q0 -70 -34 -125t-91 -84.5t-126 -29.5q-56 0 -98.5 12t-76.5 38l20 100q58 -40 137 -40
q57 0 92.5 29t35.5 77q0 27 -13.5 46.5t-46.5 40.5zM376 769h-111l108 128h138z" />
    <glyph glyph-name="sacute" unicode="&#x15b;" horiz-adv-x="373" 
d="M128 228q-41 29 -59 58.5t-18 65.5q0 78 48.5 125t132.5 47q77 0 130 -32l-17 -89q-61 24 -102 24q-32 0 -49.5 -14t-17.5 -38q0 -20 9.5 -34t39.5 -35l30 -21q42 -30 59 -58t17 -66q0 -84 -51 -129t-144 -45q-37 0 -76.5 10.5t-69.5 28.5l18 89q70 -31 128 -31
q68 0 68 55q0 21 -10 35.5t-36 32.5zM178 600l112 167h142l-145 -167h-109z" />
    <glyph glyph-name="Scircumflex" unicode="&#x15c;" horiz-adv-x="470" 
d="M184 314q-53 34 -76 72t-23 90q0 68 32 121t86 82t120 29q91 0 153 -44l-20 -101q-46 35 -114 35q-56 0 -87 -26.5t-31 -74.5q0 -25 12 -42.5t44 -38.5l52 -34q49 -33 71 -70t22 -88q0 -70 -34 -125t-91 -84.5t-126 -29.5q-56 0 -98.5 12t-76.5 38l20 100q58 -40 137 -40
q57 0 92.5 29t35.5 77q0 27 -13.5 46.5t-46.5 40.5zM339 847l-77 -78h-115l130 140h138l77 -140h-106z" />
    <glyph glyph-name="scircumflex" unicode="&#x15d;" horiz-adv-x="373" 
d="M128 228q-41 29 -59 58.5t-18 65.5q0 78 48.5 125t132.5 47q77 0 130 -32l-17 -89q-61 24 -102 24q-32 0 -49.5 -14t-17.5 -38q0 -20 9.5 -34t39.5 -35l30 -21q42 -30 59 -58t17 -66q0 -84 -51 -129t-144 -45q-37 0 -76.5 10.5t-69.5 28.5l18 89q70 -31 128 -31
q68 0 68 55q0 21 -10 35.5t-36 32.5zM258 702l-87 -102h-106l134 168h134l69 -168h-97z" />
    <glyph glyph-name="Scedilla" unicode="&#x15e;" horiz-adv-x="470" 
d="M184 314q-53 34 -76 72t-23 90q0 68 32 121t86 82t120 29q91 0 153 -44l-20 -101q-46 35 -114 35q-56 0 -87 -26.5t-31 -74.5q0 -25 12 -42.5t44 -38.5l52 -34q49 -33 71 -70t22 -88q0 -70 -34 -125t-91 -84.5t-126 -29.5q-56 0 -98.5 12t-76.5 38l20 100q58 -40 137 -40
q57 0 92.5 29t35.5 77q0 27 -13.5 46.5t-46.5 40.5zM49 -237q45 30 63 49t18 35q0 18 -22 18q-14 0 -26 -3l13 67q30 11 63 11t51.5 -17.5t18.5 -48.5q0 -43 -33 -81t-105 -80z" />
    <glyph glyph-name="scedilla" unicode="&#x15f;" horiz-adv-x="373" 
d="M128 228q-41 29 -59 58.5t-18 65.5q0 78 48.5 125t132.5 47q77 0 130 -32l-17 -89q-61 24 -102 24q-32 0 -49.5 -14t-17.5 -38q0 -20 9.5 -34t39.5 -35l30 -21q42 -30 59 -58t17 -66q0 -84 -51 -129t-144 -45q-37 0 -76.5 10.5t-69.5 28.5l18 89q70 -31 128 -31
q68 0 68 55q0 21 -10 35.5t-36 32.5zM10 -238q44 30 62 49.5t18 36.5q0 19 -22 19q-14 0 -26 -3l13 65q30 11 61 11q33 0 51.5 -17.5t18.5 -48.5q0 -43 -32 -81t-104 -80z" />
    <glyph glyph-name="Scaron" unicode="&#x160;" horiz-adv-x="470" 
d="M184 314q-53 34 -76 72t-23 90q0 68 32 121t86 82t120 29q91 0 153 -44l-20 -101q-46 35 -114 35q-56 0 -87 -26.5t-31 -74.5q0 -25 12 -42.5t44 -38.5l52 -34q49 -33 71 -70t22 -88q0 -70 -34 -125t-91 -84.5t-126 -29.5q-56 0 -98.5 12t-76.5 38l20 100q58 -40 137 -40
q57 0 92.5 29t35.5 77q0 27 -13.5 46.5t-46.5 40.5zM288 909l36 -90l71 90h123l-130 -140h-138l-76 140h114z" />
    <glyph glyph-name="scaron" unicode="&#x161;" horiz-adv-x="373" 
d="M128 228q-41 29 -59 58.5t-18 65.5q0 78 48.5 125t132.5 47q77 0 130 -32l-17 -89q-61 24 -102 24q-32 0 -49.5 -14t-17.5 -38q0 -20 9.5 -34t39.5 -35l30 -21q42 -30 59 -58t17 -66q0 -84 -51 -129t-144 -45q-37 0 -76.5 10.5t-69.5 28.5l18 89q70 -31 128 -31
q68 0 68 55q0 21 -10 35.5t-36 32.5zM207 768l35 -115l80 115h115l-134 -168h-134l-68 168h106z" />
    <glyph glyph-name="uni0162" unicode="&#x162;" horiz-adv-x="481" 
d="M123 0l114 584h-162l21 109h459l-21 -109h-162l-114 -584h-135zM65 -237q45 30 63 49t18 35q0 18 -22 18q-14 0 -26 -3l13 67q30 11 63 11t51.5 -17.5t18.5 -48.5q0 -43 -33 -81t-105 -80z" />
    <glyph glyph-name="uni0163" unicode="&#x163;" horiz-adv-x="337" 
d="M300 37q-24 -20 -60 -32t-71 -12q-125 0 -125 121q0 15 2.5 34.5t13.5 74.5l37 190h-61l16 79l66 17l47 140h108l-26 -138h106l-19 -98h-105l-35 -177q-14 -75 -14 -100q0 -40 41 -40q13 0 29.5 5t28.5 12zM32 -238q44 30 62 49.5t18 36.5q0 19 -22 19q-14 0 -26 -3
l13 65q30 11 61 11q33 0 51.5 -17.5t18.5 -48.5q0 -43 -32 -81t-104 -80z" />
    <glyph glyph-name="Tcaron" unicode="&#x164;" horiz-adv-x="481" 
d="M123 0l114 584h-162l21 109h459l-21 -109h-162l-114 -584h-135zM299 909l36 -90l71 90h123l-130 -140h-138l-76 140h114z" />
    <glyph glyph-name="tcaron" unicode="&#x165;" horiz-adv-x="337" 
d="M300 37q-24 -20 -60 -32t-71 -12q-125 0 -125 121q0 15 2.5 34.5t13.5 74.5l37 190h-61l16 79l66 17l47 140h108l-26 -138h106l-19 -98h-105l-35 -177q-14 -75 -14 -100q0 -40 41 -40q13 0 29.5 5t28.5 12zM311 570l36 185q31 11 60 11q36 0 59 -19l-72 -177h-83z" />
    <glyph glyph-name="Tbar" unicode="&#x166;" horiz-adv-x="481" 
d="M123 0l59 306h-97l17 86h97l38 192h-162l21 109h459l-21 -109h-162l-38 -192h99l-17 -86h-99l-59 -306h-135z" />
    <glyph glyph-name="tbar" unicode="&#x167;" horiz-adv-x="357" 
d="M310 37q-24 -20 -60 -32t-71 -12q-125 0 -125 121q0 15 2.5 34.5t13.5 74.5h-60l16 81h60l21 109h-61l16 79l66 17l47 140h108l-26 -138h106l-19 -98h-105l-22 -109h106l-16 -81h-106q-11 -63 -11 -87q0 -40 41 -40q13 0 29.5 5t28.5 12z" />
    <glyph glyph-name="Utilde" unicode="&#x168;" horiz-adv-x="584" 
d="M470 693h135l-90 -463q-48 -246 -261 -246q-89 0 -142.5 52t-53.5 138q0 51 25 180l66 339h135l-68 -351q-16 -81 -20.5 -108t-4.5 -48q0 -44 20.5 -67.5t59.5 -23.5q43 0 69 31.5t39 98.5zM415 870q15 -21 20 -25.5t12 -4.5t12.5 7t11.5 28l8 30h70q-1 -23 -4 -37
q-8 -47 -36 -75t-68 -28q-24 0 -40 8.5t-31 29.5t-20 25.5t-12 4.5t-12.5 -7t-11.5 -28l-8 -30h-70q1 23 4 37q8 47 36 75t68 28q24 0 40 -8.5t31 -29.5z" />
    <glyph glyph-name="utilde" unicode="&#x169;" horiz-adv-x="497" 
d="M282 0v73q-27 -37 -66.5 -61.5t-72.5 -24.5q-52 0 -78.5 31.5t-26.5 90.5q0 52 16 130l53 272h132l-53 -273q-5 -26 -8.5 -44t-5 -32.5t-1.5 -28.5q0 -44 32 -44q16 0 38.5 16.5t44.5 44.5l70 361h132l-99 -511h-107zM298 635q-14 19 -20.5 24.5t-13.5 5.5q-15 0 -24 -35
l-8 -30h-68q1 23 4 37q8 46 36 73.5t66 27.5q23 0 39 -8.5t32 -29.5q14 -19 20.5 -24.5t13.5 -5.5q15 0 24 35l8 30h68q-1 -23 -4 -37q-8 -46 -36 -73.5t-66 -27.5q-23 0 -39 8.5t-32 29.5z" />
    <glyph glyph-name="Umacron" unicode="&#x16a;" horiz-adv-x="584" 
d="M470 693h135l-90 -463q-48 -246 -261 -246q-89 0 -142.5 52t-53.5 138q0 51 25 180l66 339h135l-68 -351q-16 -81 -20.5 -108t-4.5 -48q0 -44 20.5 -67.5t59.5 -23.5q43 0 69 31.5t39 98.5zM244 794l16 83h283l-16 -83h-283z" />
    <glyph glyph-name="umacron" unicode="&#x16b;" horiz-adv-x="497" 
d="M282 0v73q-27 -37 -66.5 -61.5t-72.5 -24.5q-52 0 -78.5 31.5t-26.5 90.5q0 52 16 130l53 272h132l-53 -273q-5 -26 -8.5 -44t-5 -32.5t-1.5 -28.5q0 -44 32 -44q16 0 38.5 16.5t44.5 44.5l70 361h132l-99 -511h-107zM170 627l16 82h281l-16 -82h-281z" />
    <glyph glyph-name="Ubreve" unicode="&#x16c;" horiz-adv-x="584" 
d="M470 693h135l-90 -463q-48 -246 -261 -246q-89 0 -142.5 52t-53.5 138q0 51 25 180l66 339h135l-68 -351q-16 -81 -20.5 -108t-4.5 -48q0 -44 20.5 -67.5t59.5 -23.5q43 0 69 31.5t39 98.5zM458 907h74q-2 -44 -23 -76.5t-56.5 -50t-80.5 -17.5q-50 0 -78.5 24t-28.5 65
q0 30 12 55h71q-4 -16 -4 -25q0 -38 43 -38q27 0 44.5 13t23.5 38z" />
    <glyph glyph-name="ubreve" unicode="&#x16d;" horiz-adv-x="497" 
d="M282 0v73q-27 -37 -66.5 -61.5t-72.5 -24.5q-52 0 -78.5 31.5t-26.5 90.5q0 52 16 130l53 272h132l-53 -273q-5 -26 -8.5 -44t-5 -32.5t-1.5 -28.5q0 -44 32 -44q16 0 38.5 16.5t44.5 44.5l70 361h132l-99 -511h-107zM388 759h74q-4 -74 -46.5 -118t-110.5 -44
q-52 0 -81.5 27t-29.5 73q0 31 13 62h71q-4 -21 -4 -36q0 -22 11 -34.5t31 -12.5q51 0 67 63z" />
    <glyph glyph-name="Uring" unicode="&#x16e;" horiz-adv-x="584" 
d="M470 693h135l-90 -463q-48 -246 -261 -246q-89 0 -142.5 52t-53.5 138q0 51 25 180l66 339h135l-68 -351q-16 -81 -20.5 -108t-4.5 -48q0 -44 20.5 -67.5t59.5 -23.5q43 0 69 31.5t39 98.5zM393 735q-49 0 -78.5 24.5t-29.5 64.5q0 52 34.5 84.5t88.5 32.5
q49 0 78.5 -24.5t29.5 -64.5q0 -52 -34.5 -84.5t-88.5 -32.5zM406 885q-20 0 -33.5 -16t-13.5 -42q0 -17 9.5 -26.5t26.5 -9.5q20 0 33.5 16t13.5 42q0 17 -9.5 26.5t-26.5 9.5z" />
    <glyph glyph-name="uring" unicode="&#x16f;" horiz-adv-x="497" 
d="M282 0v73q-27 -37 -66.5 -61.5t-72.5 -24.5q-52 0 -78.5 31.5t-26.5 90.5q0 52 16 130l53 272h132l-53 -273q-5 -26 -8.5 -44t-5 -32.5t-1.5 -28.5q0 -44 32 -44q16 0 38.5 16.5t44.5 44.5l70 361h132l-99 -511h-107zM314 585q-51 0 -81.5 26.5t-30.5 70.5q0 56 36 91.5
t92 35.5q51 0 81.5 -26.5t30.5 -70.5q0 -56 -36 -91.5t-92 -35.5zM328 749q-23 0 -37.5 -18t-14.5 -46q0 -18 10.5 -29t29.5 -11q23 0 37.5 18t14.5 46q0 18 -10.5 29t-29.5 11z" />
    <glyph glyph-name="Uhungarumlaut" unicode="&#x170;" horiz-adv-x="584" 
d="M470 693h135l-90 -463q-48 -246 -261 -246q-89 0 -142.5 52t-53.5 138q0 51 25 180l66 339h135l-68 -351q-16 -81 -20.5 -108t-4.5 -48q0 -44 20.5 -67.5t59.5 -23.5q43 0 69 31.5t39 98.5zM331 897h138l-134 -128h-112zM518 897h138l-134 -128h-112z" />
    <glyph glyph-name="uhungarumlaut" unicode="&#x171;" horiz-adv-x="497" 
d="M282 0v73q-27 -37 -66.5 -61.5t-72.5 -24.5q-52 0 -78.5 31.5t-26.5 90.5q0 52 16 130l53 272h132l-53 -273q-5 -26 -8.5 -44t-5 -32.5t-1.5 -28.5q0 -44 32 -44q16 0 38.5 16.5t44.5 44.5l70 361h132l-99 -511h-107zM143 600l113 167h140l-145 -167h-108zM341 600
l113 167h140l-145 -167h-108z" />
    <glyph glyph-name="Uogonek" unicode="&#x172;" horiz-adv-x="584" 
d="M191 186q0 -44 20.5 -67.5t59.5 -23.5q43 0 69 31.5t39 98.5l91 468h135l-90 -463q-17 -85 -52 -139.5t-93 -84.5q-43 -22 -71 -58.5t-28 -69.5q0 -29 30 -29q15 0 36 7l23 -61q-47 -24 -101 -24q-45 0 -69.5 20t-24.5 57q0 71 84 136q-88 2 -139.5 53t-51.5 137
q0 51 25 180l66 339h135l-68 -351q-8 -40 -13 -66.5t-7.5 -42.5t-3.5 -26.5t-1 -20.5z" />
    <glyph glyph-name="uogonek" unicode="&#x173;" horiz-adv-x="497" 
d="M282 0v73q-27 -37 -66.5 -61.5t-72.5 -24.5q-52 0 -78.5 31.5t-26.5 90.5q0 52 16 130l53 272h132l-53 -273q-5 -26 -8.5 -44t-5 -32.5t-1.5 -28.5q0 -44 32 -44q16 0 38.5 16.5t44.5 44.5l70 361h132l-99 -511h-107zM390 -205q-47 -24 -99 -24q-45 0 -69.5 20t-24.5 57
q0 44 33 86t99 83l60 -17q-46 -37 -67 -66t-21 -56q0 -31 30 -31q16 0 37 7z" />
    <glyph glyph-name="Wcircumflex" unicode="&#x174;" horiz-adv-x="763" 
d="M407 0l28 530l-177 -530h-149l-10 693h142l-26 -546l174 518h147l-28 -516l182 544h145l-279 -693h-149zM489 847l-77 -78h-115l130 140h138l77 -140h-106z" />
    <glyph glyph-name="wcircumflex" unicode="&#x175;" horiz-adv-x="639" 
d="M337 0l7 395l-128 -395h-125l-41 511h131l3 -374l122 374h124l-8 -410q66 179 123 410h132q-22 -87 -86 -238t-128 -273h-126zM386 702l-87 -102h-106l134 168h134l69 -168h-97z" />
    <glyph glyph-name="Ycircumflex" unicode="&#x176;" horiz-adv-x="508" 
d="M136 0l50 256l-92 437h139l41 -329l165 329h145l-265 -438l-50 -255h-133zM359 847l-77 -78h-115l130 140h138l77 -140h-106z" />
    <glyph glyph-name="ycircumflex" unicode="&#x177;" horiz-adv-x="420" 
d="M-60 -127q76 33 109 61t57 68l-58 509h135l15 -388q65 169 128 388h134q-28 -90 -73.5 -198t-94 -202t-87.5 -151q-53 -78 -104.5 -121.5t-108.5 -58.5zM272 702l-87 -102h-106l134 168h134l69 -168h-97z" />
    <glyph glyph-name="Ydieresis" unicode="&#x178;" horiz-adv-x="508" 
d="M136 0l50 256l-92 437h139l41 -329l165 329h145l-265 -438l-50 -255h-133zM254 772q-30 0 -48.5 16.5t-18.5 44.5q0 34 23 56.5t56 22.5q30 0 48.5 -16.5t18.5 -44.5q0 -34 -23 -56.5t-56 -22.5zM452 772q-30 0 -48.5 16.5t-18.5 44.5q0 34 23 56.5t56 22.5
q30 0 48.5 -16.5t18.5 -44.5q0 -34 -23 -56.5t-56 -22.5z" />
    <glyph glyph-name="Zacute" unicode="&#x179;" horiz-adv-x="480" 
d="M-20 0l19 98l361 486h-255l21 109h406l-19 -98l-361 -486h270l-21 -109h-421zM390 769h-111l108 128h138z" />
    <glyph glyph-name="zacute" unicode="&#x17a;" horiz-adv-x="396" 
d="M-24 0l18 95l256 313h-188l20 103h333l-18 -95l-256 -313h200l-20 -103h-345zM200 600l112 167h142l-145 -167h-109z" />
    <glyph glyph-name="Zdotaccent" unicode="&#x17b;" horiz-adv-x="480" 
d="M-20 0l19 98l361 486h-255l21 109h406l-19 -98l-361 -486h270l-21 -109h-421zM346 774q-32 0 -51.5 18t-19.5 47q0 36 24.5 60t60.5 24q32 0 51.5 -18t19.5 -47q0 -36 -24.5 -60t-60.5 -24z" />
    <glyph glyph-name="zdotaccent" unicode="&#x17c;" horiz-adv-x="396" 
d="M-24 0l18 95l256 313h-188l20 103h333l-18 -95l-256 -313h200l-20 -103h-345zM273 592q-32 0 -51.5 17.5t-19.5 46.5q0 35 24 59t59 24q32 0 51.5 -17.5t19.5 -46.5q0 -35 -24 -59t-59 -24z" />
    <glyph glyph-name="Zcaron" unicode="&#x17d;" horiz-adv-x="480" 
d="M-20 0l19 98l361 486h-255l21 109h406l-19 -98l-361 -486h270l-21 -109h-421zM302 909l36 -90l71 90h123l-130 -140h-138l-76 140h114z" />
    <glyph glyph-name="zcaron" unicode="&#x17e;" horiz-adv-x="396" 
d="M-24 0l18 95l256 313h-188l20 103h333l-18 -95l-256 -313h200l-20 -103h-345zM229 768l35 -115l80 115h115l-134 -168h-134l-68 168h106z" />
    <glyph glyph-name="longs" unicode="&#x17f;" horiz-adv-x="258" 
d="M10 0l110 565q19 99 65.5 144t128.5 45q23 0 46 -6t40 -16l-17 -87q-32 7 -54 7q-32 0 -50 -19t-26 -61l-111 -572h-132z" />
    <glyph glyph-name="florin" unicode="&#x192;" horiz-adv-x="318" 
d="M105 413h-64l15 79l68 17l11 56q19 99 65.5 144t128.5 45q23 0 46 -6t40 -16l-17 -87q-32 7 -54 7q-32 0 -50 -19t-26 -61l-12 -61h111l-19 -98h-111l-85 -446q-18 -97 -59.5 -141t-114.5 -44q-24 0 -47.5 6t-41.5 16l17 87q21 -7 39 -7q32 0 49.5 19.5t25.5 64.5z" />
    <glyph glyph-name="uni01D3" unicode="&#x1d3;" horiz-adv-x="584" 
d="M470 693h135l-90 -463q-48 -246 -261 -246q-89 0 -142.5 52t-53.5 138q0 51 25 180l66 339h135l-68 -351q-16 -81 -20.5 -108t-4.5 -48q0 -44 20.5 -67.5t59.5 -23.5q43 0 69 31.5t39 98.5zM346 909l36 -90l71 90h123l-130 -140h-138l-76 140h114z" />
    <glyph glyph-name="uni01D4" unicode="&#x1d4;" horiz-adv-x="497" 
d="M282 0v73q-27 -37 -66.5 -61.5t-72.5 -24.5q-52 0 -78.5 31.5t-26.5 90.5q0 52 16 130l53 272h132l-53 -273q-5 -26 -8.5 -44t-5 -32.5t-1.5 -28.5q0 -44 32 -44q16 0 38.5 16.5t44.5 44.5l70 361h132l-99 -511h-107zM273 768l35 -115l80 115h115l-134 -168h-134l-68 168
h106z" />
    <glyph glyph-name="Aringacute" unicode="&#x1fa;" horiz-adv-x="539" 
d="M341 0l-4 166h-166l-67 -166h-147l306 644q-19 22 -19 56q0 52 32.5 84.5t84.5 32.5q47 0 75 -24.5t28 -64.5q0 -53 -35 -86l54 -642h-142zM211 264h125l-7 291zM327 850l106 127h111l-129 -127h-88zM359 761q-18 0 -29.5 -16t-11.5 -42q0 -17 8.5 -26.5t22.5 -9.5
q18 0 29.5 16t11.5 42q0 17 -8.5 26.5t-22.5 9.5z" />
    <glyph glyph-name="aringacute" unicode="&#x1fb;" horiz-adv-x="480" 
d="M265 0v69q-60 -82 -134 -82q-50 0 -77.5 41.5t-27.5 117.5q0 111 38 197.5t101.5 133.5t140.5 47q33 0 78.5 -11.5t81.5 -28.5l-94 -484h-107zM194 87q35 0 75 62l55 276q-15 3 -26 3q-40 0 -72 -37t-50 -96.5t-18 -128.5q0 -38 9.5 -58.5t26.5 -20.5zM328 580
q-47 0 -75 24.5t-28 64.5q0 52 32.5 84.5t84.5 32.5q47 0 75 -24.5t28 -64.5q0 -52 -33 -84.5t-84 -32.5zM340 730q-18 0 -29.5 -16t-11.5 -42q0 -17 8.5 -26.5t22.5 -9.5q18 0 29.5 16t11.5 42q0 17 -8.5 26.5t-22.5 9.5zM308 819l106 127h111l-129 -127h-88z" />
    <glyph glyph-name="AEacute" unicode="&#x1fc;" horiz-adv-x="788" 
d="M840 693l-21 -105h-230l-35 -180h184l-21 -105h-184l-38 -198h230l-20 -105h-365l33 170h-163l-96 -170h-157l428 693h455zM266 268h126l63 320h-8zM681 769h-111l108 128h138z" />
    <glyph glyph-name="aeacute" unicode="&#x1fd;" horiz-adv-x="684" 
d="M306 524q68 0 118 -42q58 42 128 42q55 0 89 -32.5t34 -85.5q0 -84 -57 -140.5t-169 -84.5l-45 -12q1 -48 15 -65t51 -17q28 0 59 9.5t59 27.5l24 -78q-86 -59 -185 -59q-109 0 -135 104q-61 -104 -161 -104q-50 0 -77.5 41.5t-27.5 117.5q0 111 38 197.5t101.5 133.5
t140.5 47zM294 264q17 81 60 146q-24 18 -56 18q-40 0 -72 -37t-50 -96.5t-18 -128.5q0 -38 9.5 -58.5t26.5 -20.5q25 0 54 51.5t46 125.5zM530 432q-25 0 -51 -24t-44 -64.5t-26 -91.5l46 14q52 15 81 47.5t29 75.5t-35 43zM377 600l112 167h142l-145 -167h-109z" />
    <glyph glyph-name="Oslashacute" unicode="&#x1fe;" horiz-adv-x="639" 
d="M13 2l79 98q-31 59 -31 150q0 89 26 178.5t69.5 152.5t100.5 95t125 32q97 0 155 -55l65 81l60 -51l-77 -95q29 -61 29 -145q0 -89 -26 -178.5t-69.5 -152.5t-100.5 -95t-125 -32q-93 0 -152 51l-68 -85zM381 597q-57 0 -97.5 -50t-63 -137t-22.5 -175v-3l259 322
q-23 43 -76 43zM294 96q56 0 96 49t63 134.5t24 173.5l-257 -319q24 -38 74 -38zM464 769h-111l108 128h138z" />
    <glyph glyph-name="oslashacute" unicode="&#x1ff;" horiz-adv-x="472" 
d="M-2 5l55 69q-22 44 -22 110q0 87 32.5 170t86 126.5t122.5 43.5q67 0 111 -39l50 62l48 -41l-59 -74q20 -45 20 -105q0 -87 -32.5 -170t-86 -126.5t-122.5 -43.5q-65 0 -108 35l-47 -58zM269 422q-43 0 -71.5 -59.5t-36.5 -155.5l146 183q-11 32 -38 32zM204 89
q41 0 69.5 56.5t37.5 148.5l-144 -179q12 -26 37 -26zM228 600l112 167h142l-145 -167h-109z" />
    <glyph glyph-name="uni0218" unicode="&#x218;" horiz-adv-x="470" 
d="M184 314q-53 34 -76 72t-23 90q0 68 32 121t86 82t120 29q91 0 153 -44l-20 -101q-46 35 -114 35q-56 0 -87 -26.5t-31 -74.5q0 -25 12 -42.5t44 -38.5l52 -34q49 -33 71 -70t22 -88q0 -70 -34 -125t-91 -84.5t-126 -29.5q-56 0 -98.5 12t-76.5 38l20 100q58 -40 137 -40
q57 0 92.5 29t35.5 77q0 27 -13.5 46.5t-46.5 40.5zM37 -284l72 221h51q50 0 50 -35q0 -12 -4.5 -24.5t-29.5 -56.5l-59 -105h-80z" />
    <glyph glyph-name="uni0219" unicode="&#x219;" horiz-adv-x="373" 
d="M128 228q-41 29 -59 58.5t-18 65.5q0 78 48.5 125t132.5 47q77 0 130 -32l-17 -89q-61 24 -102 24q-32 0 -49.5 -14t-17.5 -38q0 -20 9.5 -34t39.5 -35l30 -21q42 -30 59 -58t17 -66q0 -84 -51 -129t-144 -45q-37 0 -76.5 10.5t-69.5 28.5l18 89q70 -31 128 -31
q68 0 68 55q0 21 -10 35.5t-36 32.5zM-3 -284l72 221h50q49 0 49 -35q0 -12 -4.5 -24.5t-29.5 -56.5l-59 -105h-78z" />
    <glyph glyph-name="uni021A" unicode="&#x21a;" horiz-adv-x="481" 
d="M123 0l114 584h-162l21 109h459l-21 -109h-162l-114 -584h-135zM53 -284l72 221h51q50 0 50 -35q0 -12 -4.5 -24.5t-29.5 -56.5l-59 -105h-80z" />
    <glyph glyph-name="uni021B" unicode="&#x21b;" horiz-adv-x="337" 
d="M300 37q-24 -20 -60 -32t-71 -12q-125 0 -125 121q0 15 2.5 34.5t13.5 74.5l37 190h-61l16 79l66 17l47 140h108l-26 -138h106l-19 -98h-105l-35 -177q-14 -75 -14 -100q0 -40 41 -40q13 0 29.5 5t28.5 12zM19 -284l72 221h50q49 0 49 -35q0 -12 -4.5 -24.5t-29.5 -56.5
l-59 -105h-78z" />
    <glyph glyph-name="uni0237" unicode="&#x237;" horiz-adv-x="256" 
d="M-23 -218q-55 0 -95 24l16 84q24 -6 49 -6q23 0 37 19t22 61l106 547h132l-106 -545q-18 -93 -58 -138.5t-103 -45.5z" />
    <glyph glyph-name="uni02B9" unicode="&#x2b9;" horiz-adv-x="256" 
d="M84 473l94 217q36 19 78 19q38 0 63 -19l-140 -217h-95z" />
    <glyph glyph-name="uni02BA" unicode="&#x2ba;" horiz-adv-x="457" 
d="M84 473l94 217q36 19 78 19q38 0 63 -19l-140 -217h-95zM285 473l94 217q36 19 78 19q38 0 63 -19l-140 -217h-95z" />
    <glyph glyph-name="uni02BB" unicode="&#x2bb;" horiz-adv-x="248" 
d="M310 659q-70 -79 -103 -173q-10 -25 -23 -89h-50q-34 0 -49.5 10.5t-15.5 32.5q0 50 43 112.5t147 155.5z" />
    <glyph glyph-name="uni02BC" unicode="&#x2bc;" horiz-adv-x="248" 
d="M51 431q70 79 103 173q10 25 23 89h50q34 0 49.5 -10.5t15.5 -32.5q0 -50 -43 -112.5t-147 -155.5z" />
    <glyph glyph-name="circumflex" unicode="&#x2c6;" horiz-adv-x="500" 
d="M345 702l-87 -102h-106l134 168h134l69 -168h-97z" />
    <glyph glyph-name="caron" unicode="&#x2c7;" horiz-adv-x="500" 
d="M289 768l35 -115l80 115h115l-134 -168h-134l-68 168h106z" />
    <glyph glyph-name="uni02C9" unicode="&#x2c9;" horiz-adv-x="500" 
d="M176 627l16 82h281l-16 -82h-281z" />
    <glyph glyph-name="uni02CA" unicode="&#x2ca;" horiz-adv-x="500" 
d="M215 600l112 167h142l-145 -167h-109z" />
    <glyph glyph-name="uni02CB" unicode="&#x2cb;" horiz-adv-x="500" 
d="M307 600l-82 167h136l50 -167h-104z" />
    <glyph glyph-name="breve" unicode="&#x2d8;" horiz-adv-x="500" 
d="M399 759h74q-4 -74 -46.5 -118t-110.5 -44q-52 0 -81.5 27t-29.5 73q0 31 13 62h71q-4 -21 -4 -36q0 -22 11 -34.5t31 -12.5q51 0 67 63z" />
    <glyph glyph-name="dotaccent" unicode="&#x2d9;" horiz-adv-x="500" 
d="M328 592q-32 0 -51.5 17.5t-19.5 46.5q0 35 24 59t59 24q32 0 51.5 -17.5t19.5 -46.5q0 -35 -24 -59t-59 -24z" />
    <glyph glyph-name="ring" unicode="&#x2da;" horiz-adv-x="500" 
d="M325 585q-51 0 -81.5 26.5t-30.5 70.5q0 56 36 91.5t92 35.5q51 0 81.5 -26.5t30.5 -70.5q0 -56 -36 -91.5t-92 -35.5zM339 749q-23 0 -37.5 -18t-14.5 -46q0 -18 10.5 -29t29.5 -11q23 0 37.5 18t14.5 46q0 18 -10.5 29t-29.5 11z" />
    <glyph glyph-name="ogonek" unicode="&#x2db;" horiz-adv-x="500" 
d="M271 -205q-47 -24 -99 -24q-45 0 -69.5 20t-24.5 57q0 44 33 86t99 83l60 -17q-46 -37 -67 -66t-21 -56q0 -31 30 -31q16 0 37 7z" />
    <glyph glyph-name="tilde" unicode="&#x2dc;" horiz-adv-x="500" 
d="M309 635q-14 19 -20.5 24.5t-13.5 5.5q-15 0 -24 -35l-8 -30h-68q1 23 4 37q8 46 36 73.5t66 27.5q23 0 39 -8.5t32 -29.5q14 -19 20.5 -24.5t13.5 -5.5q15 0 24 35l8 30h68q-1 -23 -4 -37q-8 -46 -36 -73.5t-66 -27.5q-23 0 -39 8.5t-32 29.5z" />
    <glyph glyph-name="hungarumlaut" unicode="&#x2dd;" horiz-adv-x="500" 
d="M134 600l113 167h140l-145 -167h-108zM332 600l113 167h140l-145 -167h-108z" />
    <glyph glyph-name="gravecomb" unicode="&#x300;" horiz-adv-x="0" 
d="M-53 600l-82 167h136l50 -167h-104z" />
    <glyph glyph-name="acutecomb" unicode="&#x301;" horiz-adv-x="0" 
d="M-55 600l112 167h142l-145 -167h-109z" />
    <glyph glyph-name="uni0302" unicode="&#x302;" horiz-adv-x="0" 
d="M25 702l-87 -102h-106l134 168h134l69 -168h-97z" />
    <glyph glyph-name="tildecomb" unicode="&#x303;" horiz-adv-x="0" 
d="M-1 635q-14 19 -20.5 24.5t-13.5 5.5q-15 0 -24 -35l-8 -30h-68q1 23 4 37q8 46 36 73.5t66 27.5q23 0 39 -8.5t32 -29.5q14 -19 20.5 -24.5t13.5 -5.5q15 0 24 35l8 30h68q-1 -23 -4 -37q-8 -46 -36 -73.5t-66 -27.5q-23 0 -39 8.5t-32 29.5z" />
    <glyph glyph-name="uni0304" unicode="&#x304;" horiz-adv-x="0" 
d="M-129 627l16 82h281l-16 -82h-281z" />
    <glyph glyph-name="uni0306" unicode="&#x306;" horiz-adv-x="0" 
d="M89 759h74q-4 -74 -46.5 -118t-110.5 -44q-52 0 -81.5 27t-29.5 73q0 31 13 62h71q-4 -21 -4 -36q0 -22 11 -34.5t31 -12.5q51 0 67 63z" />
    <glyph glyph-name="uni0307" unicode="&#x307;" horiz-adv-x="0" 
d="M18 592q-32 0 -51.5 17.5t-19.5 46.5q0 35 24 59t59 24q32 0 51.5 -17.5t19.5 -46.5q0 -35 -24 -59t-59 -24z" />
    <glyph glyph-name="uni0308" unicode="&#x308;" horiz-adv-x="0" 
d="M-84 589q-30 0 -48 16.5t-18 43.5q0 33 22.5 55.5t55.5 22.5q30 0 48 -16.5t18 -43.5q0 -33 -22.5 -55.5t-55.5 -22.5zM114 589q-30 0 -48 16.5t-18 43.5q0 33 22.5 55.5t55.5 22.5q30 0 48 -16.5t18 -43.5q0 -33 -22.5 -55.5t-55.5 -22.5z" />
    <glyph glyph-name="uni030A" unicode="&#x30a;" horiz-adv-x="0" 
d="M15 585q-51 0 -81.5 26.5t-30.5 70.5q0 56 36 91.5t92 35.5q51 0 81.5 -26.5t30.5 -70.5q0 -56 -36 -91.5t-92 -35.5zM29 749q-23 0 -37.5 -18t-14.5 -46q0 -18 10.5 -29t29.5 -11q23 0 37.5 18t14.5 46q0 18 -10.5 29t-29.5 11z" />
    <glyph glyph-name="uni030B" unicode="&#x30b;" horiz-adv-x="0" 
d="M-156 600l113 167h140l-145 -167h-108zM42 600l113 167h140l-145 -167h-108z" />
    <glyph glyph-name="uni030C" unicode="&#x30c;" horiz-adv-x="0" 
d="M-26 768l35 -115l80 115h115l-134 -168h-134l-68 168h106z" />
    <glyph glyph-name="uni0312" unicode="&#x312;" horiz-adv-x="0" 
d="M47 588h-49q-49 0 -49 35q0 12 6.5 28t27.5 53l62 113h77z" />
    <glyph glyph-name="uni0315" unicode="&#x315;" horiz-adv-x="0" 
d="M-44 539l39 202q30 11 59 11q37 0 60 -19l-75 -194h-83z" />
    <glyph glyph-name="uni0326" unicode="&#x326;" horiz-adv-x="0" 
d="M-127 -284l72 221h50q49 0 49 -35q0 -12 -4.5 -24.5t-29.5 -56.5l-59 -105h-78z" />
    <glyph glyph-name="uni0327" unicode="&#x327;" horiz-adv-x="0" 
d="M-114 -238q44 30 62 49.5t18 36.5q0 19 -22 19q-14 0 -26 -3l13 65q30 11 61 11q33 0 51.5 -17.5t18.5 -48.5q0 -43 -32 -81t-104 -80z" />
    <glyph glyph-name="uni0328" unicode="&#x328;" horiz-adv-x="0" 
d="M1 -205q-47 -24 -99 -24q-45 0 -69.5 20t-24.5 57q0 44 33 86t99 83l60 -17q-46 -37 -67 -66t-21 -56q0 -31 30 -31q16 0 37 7z" />
    <glyph glyph-name="uni0344" unicode="&#x344;" horiz-adv-x="0" 
d="M67 920h136l-121 -169h-88zM-81 590q-28 0 -45.5 15.5t-17.5 41.5q0 32 21.5 53.5t53.5 21.5q28 0 45.5 -15.5t17.5 -41.5q0 -31 -22 -53t-53 -22zM118 590q-28 0 -45.5 15.5t-17.5 41.5q0 32 22 53.5t53 21.5q28 0 45.5 -15.5t17.5 -41.5q0 -31 -21.5 -53t-53.5 -22z
" />
    <glyph glyph-name="uni0374" unicode="&#x374;" horiz-adv-x="256" 
d="M84 473l94 217q36 19 78 19q38 0 63 -19l-140 -217h-95z" />
    <glyph glyph-name="uni0375" unicode="&#x375;" horiz-adv-x="256" 
d="M-51 -220l95 220q38 19 79 19q38 0 62 -19l-141 -220h-95z" />
    <glyph glyph-name="uni037E" unicode="&#x37e;" horiz-adv-x="248" 
d="M-54 -159l106 304h63q30 0 44 -11t14 -34q-1 -20 -9.5 -39t-18.5 -36l-109 -184h-90zM152 354q-34 0 -55 20t-21 53q0 40 26 67.5t64 27.5q34 0 55 -20t21 -53q0 -40 -26 -67.5t-64 -27.5z" />
    <glyph glyph-name="tonos" unicode="&#x384;" horiz-adv-x="500" 
d="M218 781h135l-119 -181h-88z" />
    <glyph glyph-name="dieresistonos" unicode="&#x385;" horiz-adv-x="500" 
d="M287 920h136l-121 -169h-88zM139 590q-28 0 -45.5 15.5t-17.5 41.5q0 32 21.5 53.5t53.5 21.5q28 0 45.5 -15.5t17.5 -41.5q0 -31 -22 -53t-53 -22zM338 590q-28 0 -45.5 15.5t-17.5 41.5q0 32 22 53.5t53 21.5q28 0 45.5 -15.5t17.5 -41.5q0 -31 -21.5 -53t-53.5 -22z
" />
    <glyph glyph-name="Alphatonos" unicode="&#x386;" horiz-adv-x="592" 
d="M394 0l-4 166h-166l-67 -166h-147l322 693h154l50 -693h-142zM264 264h125l-7 291zM126 692h137l-120 -181h-89z" />
    <glyph glyph-name="anoteleia" unicode="&#x387;" horiz-adv-x="248" 
d="M152 354q-34 0 -55 20t-21 53q0 40 26 67.5t64 27.5q34 0 55 -20t21 -53q0 -40 -26 -67.5t-64 -27.5z" />
    <glyph glyph-name="Epsilontonos" unicode="&#x388;" horiz-adv-x="621" 
d="M173 0l135 693h365l-21 -105h-230l-35 -180h184l-21 -105h-184l-38 -198h230l-20 -105h-365zM126 693h137l-120 -181h-89z" />
    <glyph glyph-name="Etatonos" unicode="&#x389;" horiz-adv-x="748" 
d="M496 0l59 301h-188l-59 -301h-135l135 693h135l-56 -287h188l56 287h135l-135 -693h-135zM126 693h137l-120 -181h-89z" />
    <glyph glyph-name="Iotatonos" unicode="&#x38a;" horiz-adv-x="429" 
d="M312 0h-135l135 693h135zM126 693h137l-120 -181h-89z" />
    <glyph glyph-name="Omicrontonos" unicode="&#x38c;" horiz-adv-x="754" 
d="M408 -15q-110 0 -171 70t-61 195q0 89 26 178.5t69.5 152.5t100.5 95t125 32q110 0 171 -70t61 -195q0 -89 -26 -178.5t-69.5 -152.5t-100.5 -95t-125 -32zM494 597q-56 0 -95 -50.5t-61.5 -137.5t-22.5 -174q0 -68 24.5 -103.5t71.5 -35.5q56 0 95 50.5t61.5 137.5
t22.5 174q0 68 -24.5 103.5t-71.5 35.5zM126 693h137l-120 -181h-89z" />
    <glyph glyph-name="Upsilontonos" unicode="&#x38e;" horiz-adv-x="714" 
d="M342 0l50 256l-92 437h139l41 -329l165 329h145l-265 -438l-50 -255h-133zM126 693h137l-120 -181h-89z" />
    <glyph glyph-name="Omegatonos" unicode="&#x38f;" horiz-adv-x="747" 
d="M360 0h-241l19 101h127q-31 48 -48 109.5t-17 121.5q0 111 41.5 197.5t112 132.5t158.5 46q107 0 168.5 -65.5t61.5 -177.5q0 -220 -166 -364h119l-19 -101h-249l23 103q71 65 112.5 160.5t41.5 196.5q0 67 -26 102t-76 35q-76 0 -119 -72t-43 -194q0 -141 42 -228z
M126 693h137l-120 -181h-89z" />
    <glyph glyph-name="iotadieresistonos" unicode="&#x390;" horiz-adv-x="282" 
d="M135 -7q-46 0 -71 29.5t-25 82.5q0 51 13 119l56 287h131l-54 -287q-12 -64 -12 -89q0 -39 26 -39q12 0 29 5l19 -84q-33 -14 -57 -19t-55 -5zM247 920h136l-121 -169h-88zM99 590q-28 0 -45.5 15.5t-17.5 41.5q0 32 21.5 53.5t53.5 21.5q28 0 45.5 -15.5t17.5 -41.5
q0 -31 -22 -53t-53 -22zM298 590q-28 0 -45.5 15.5t-17.5 41.5q0 32 22 53.5t53 21.5q28 0 45.5 -15.5t17.5 -41.5q0 -31 -21.5 -53t-53.5 -22z" />
    <glyph glyph-name="Alpha" unicode="&#x391;" horiz-adv-x="539" 
d="M341 0l-4 166h-166l-67 -166h-147l322 693h154l50 -693h-142zM211 264h125l-7 291z" />
    <glyph glyph-name="Beta" unicode="&#x392;" horiz-adv-x="534" 
d="M18 0l135 693h206q73 0 116 -42.5t43 -114.5q0 -65 -30.5 -114t-83.5 -70q41 -20 63 -53.5t22 -75.5q0 -68 -32 -118.5t-88 -77.5t-129 -27h-222zM205 307l-41 -209h91q44 0 71.5 37t27.5 96q0 35 -18 55.5t-49 20.5h-82zM261 595l-38 -195h75q40 0 65.5 34.5t25.5 90.5
q0 32 -15.5 51t-42.5 19h-70z" />
    <glyph glyph-name="Gamma" unicode="&#x393;" horiz-adv-x="424" 
d="M18 0l135 693h349l-21 -109h-214l-114 -584h-135z" />
    <glyph glyph-name="uni0394" unicode="&#x394;" horiz-adv-x="525" 
d="M-7 101l278 592h156l47 -592l-21 -101h-480zM338 103l-16 460l-188 -460h204z" />
    <glyph glyph-name="Epsilon" unicode="&#x395;" horiz-adv-x="466" 
d="M18 0l135 693h365l-21 -105h-230l-35 -180h184l-21 -105h-184l-38 -198h230l-20 -105h-365z" />
    <glyph glyph-name="Zeta" unicode="&#x396;" horiz-adv-x="480" 
d="M-20 0l19 98l361 486h-255l21 109h406l-19 -98l-361 -486h270l-21 -109h-421z" />
    <glyph glyph-name="Eta" unicode="&#x397;" horiz-adv-x="593" 
d="M341 0l59 301h-188l-59 -301h-135l135 693h135l-56 -287h188l56 287h135l-135 -693h-135z" />
    <glyph glyph-name="Theta" unicode="&#x398;" horiz-adv-x="639" 
d="M271 402h154l-21 -106h-154zM293 -15q-110 0 -171 70t-61 195q0 89 26 178.5t69.5 152.5t100.5 95t125 32q110 0 171 -70t61 -195q0 -89 -26 -178.5t-69.5 -152.5t-100.5 -95t-125 -32zM379 597q-56 0 -95 -50.5t-61.5 -137.5t-22.5 -174q0 -68 24.5 -103.5t71.5 -35.5
q56 0 95 50.5t61.5 137.5t22.5 174q0 68 -24.5 103.5t-71.5 35.5z" />
    <glyph glyph-name="Iota" unicode="&#x399;" horiz-adv-x="270" 
d="M153 0h-135l135 693h135z" />
    <glyph glyph-name="Kappa" unicode="&#x39a;" horiz-adv-x="549" 
d="M18 0l135 693h135l-60 -309l228 309h162l-275 -338l158 -355h-153l-130 333l-65 -333h-135z" />
    <glyph glyph-name="Lambda" unicode="&#x39b;" horiz-adv-x="527" 
d="M322 555l-216 -555h-149l315 693h156l43 -693h-144z" />
    <glyph glyph-name="Mu" unicode="&#x39c;" horiz-adv-x="700" 
d="M462 0l97 498l-168 -327h-116l-38 334l-98 -505h-121l135 693h158l46 -398l207 398h154l-135 -693h-121z" />
    <glyph glyph-name="Nu" unicode="&#x39d;" horiz-adv-x="593" 
d="M325 0l-95 504l-98 -504h-114l135 693h153l94 -496l97 496h114l-135 -693h-151z" />
    <glyph glyph-name="Xi" unicode="&#x39e;" horiz-adv-x="463" 
d="M1 110h407l-22 -110h-407zM110 402h301l-21 -110h-301zM123 693h389l-22 -110h-389z" />
    <glyph glyph-name="Omicron" unicode="&#x39f;" horiz-adv-x="639" 
d="M293 -15q-110 0 -171 70t-61 195q0 89 26 178.5t69.5 152.5t100.5 95t125 32q110 0 171 -70t61 -195q0 -89 -26 -178.5t-69.5 -152.5t-100.5 -95t-125 -32zM379 597q-56 0 -95 -50.5t-61.5 -137.5t-22.5 -174q0 -68 24.5 -103.5t71.5 -35.5q56 0 95 50.5t61.5 137.5
t22.5 174q0 68 -24.5 103.5t-71.5 35.5z" />
    <glyph glyph-name="Pi" unicode="&#x3a0;" horiz-adv-x="583" 
d="M331 0l114 587h-178l-114 -587h-135l135 693h448l-135 -693h-135z" />
    <glyph glyph-name="Rho" unicode="&#x3a1;" horiz-adv-x="526" 
d="M18 0l135 693h198q83 0 129.5 -46.5t46.5 -127.5q0 -79 -33 -138.5t-90 -91.5t-130 -32h-74l-50 -257h-132zM220 359h56q53 0 85 41t32 108q0 40 -19 61.5t-56 21.5h-53z" />
    <glyph glyph-name="Sigma" unicode="&#x3a3;" horiz-adv-x="438" 
d="M-11 98l195 262l-95 229l21 104h381l-21 -104h-250l99 -234l-183 -253h257l-20 -102h-403z" />
    <glyph glyph-name="Tau" unicode="&#x3a4;" horiz-adv-x="481" 
d="M123 0l114 584h-162l21 109h459l-21 -109h-162l-114 -584h-135z" />
    <glyph glyph-name="Upsilon" unicode="&#x3a5;" horiz-adv-x="508" 
d="M136 0l50 256l-92 437h139l41 -329l165 329h145l-265 -438l-50 -255h-133z" />
    <glyph glyph-name="Phi" unicode="&#x3a6;" horiz-adv-x="701" 
d="M256 59q-90 4 -144.5 66t-54.5 160q0 103 40.5 181.5t111 122.5t160.5 46l17 88h112l-17 -88q90 -5 144.5 -67t54.5 -159q0 -103 -40.5 -181.5t-111 -122.5t-160.5 -46l-17 -89h-112zM185 278q0 -55 24 -88t66 -36l75 386q-73 -4 -119 -77t-46 -185zM552 416
q0 54 -24.5 87t-65.5 37l-75 -386q73 4 119 76.5t46 185.5z" />
    <glyph glyph-name="Chi" unicode="&#x3a7;" horiz-adv-x="506" 
d="M311 0l-62 246l-153 -246h-141l254 372l-100 321h140l55 -229l137 229h139l-236 -342l108 -351h-141z" />
    <glyph glyph-name="Psi" unicode="&#x3a8;" horiz-adv-x="620" 
d="M195 0l34 178q-73 14 -116 66t-43 127q0 33 16 116l40 206h131l-40 -206q-15 -80 -15 -114q0 -72 48 -90l80 410h131l-81 -415q40 9 65 45.5t38 105.5l51 264h131l-53 -274q-20 -105 -89.5 -172.5t-162.5 -72.5l-33 -174h-132z" />
    <glyph glyph-name="uni03A9" unicode="&#x3a9;" horiz-adv-x="605" 
d="M216 0h-241l19 101h127q-31 48 -48 109.5t-17 121.5q0 111 41.5 197.5t112 132.5t158.5 46q107 0 168.5 -65.5t61.5 -177.5q0 -220 -166 -364h119l-19 -101h-249l23 103q71 65 112.5 160.5t41.5 196.5q0 67 -26 102t-76 35q-76 0 -119 -72t-43 -194q0 -141 42 -228z" />
    <glyph glyph-name="Iotadieresis" unicode="&#x3aa;" horiz-adv-x="270" 
d="M153 0h-135l135 693h135zM144 772q-30 0 -48.5 16.5t-18.5 44.5q0 34 23 56.5t56 22.5q30 0 48.5 -16.5t18.5 -44.5q0 -34 -23 -56.5t-56 -22.5zM342 772q-30 0 -48.5 16.5t-18.5 44.5q0 34 23 56.5t56 22.5q30 0 48.5 -16.5t18.5 -44.5q0 -34 -23 -56.5t-56 -22.5z" />
    <glyph glyph-name="Upsilondieresis" unicode="&#x3ab;" horiz-adv-x="508" 
d="M136 0l50 256l-92 437h139l41 -329l165 329h145l-265 -438l-50 -255h-133zM254 772q-30 0 -48.5 16.5t-18.5 44.5q0 34 23 56.5t56 22.5q30 0 48.5 -16.5t18.5 -44.5q0 -34 -23 -56.5t-56 -22.5zM452 772q-30 0 -48.5 16.5t-18.5 44.5q0 34 23 56.5t56 22.5
q30 0 48.5 -16.5t18.5 -44.5q0 -34 -23 -56.5t-56 -22.5z" />
    <glyph glyph-name="alphatonos" unicode="&#x3ac;" horiz-adv-x="520" 
d="M154 -13q-59 0 -91.5 45t-32.5 128q0 100 32 184.5t82 132t106 47.5q32 0 55 -24t33 -69q5 20 10.5 40t12.5 40h132l-28 -78q-29 -81 -46 -158.5t-17 -127.5q0 -29 6 -40t22 -11q12 0 28 4l20 -82q-22 -14 -43.5 -19.5t-52.5 -5.5q-41 0 -65 28t-24 75v9
q-56 -118 -139 -118zM200 89q26 0 49.5 41.5t50.5 137.5q3 79 -4.5 116.5t-27.5 37.5q-27 0 -51 -37t-38 -93t-14 -115q0 -88 35 -88zM314 781h135l-119 -181h-88z" />
    <glyph glyph-name="epsilontonos" unicode="&#x3ad;" horiz-adv-x="378" 
d="M166 -13q-67 0 -110 36.5t-43 93.5q0 60 35 100.5t96 51.5q-33 12 -51 39.5t-18 67.5q0 42 23 76t61 53t82 19q72 0 141 -31l-19 -89q-47 22 -95 22q-32 0 -50.5 -18t-18.5 -48q0 -23 16 -36t45 -13h48l-20 -95h-49q-46 0 -74 -20.5t-28 -54.5q0 -24 17.5 -40t43.5 -16
q49 0 108 31l27 -77q-34 -24 -79 -38t-88 -14zM282 781h135l-119 -181h-88z" />
    <glyph glyph-name="etatonos" unicode="&#x3ae;" horiz-adv-x="539" 
d="M261 -206l93 479q15 75 15 105q0 44 -31 44q-36 0 -92 -65l-69 -357h-132l55 282q14 72 14 97q0 15 -7 24.5t-20 9.5q-8 0 -19 -3l-20 79q49 27 104 27q78 0 93 -91q32 46 72.5 72.5t81.5 26.5q51 0 77 -32t26 -93q0 -43 -16 -127l-93 -478h-132zM367 781h135l-119 -181
h-88z" />
    <glyph glyph-name="iotatonos" unicode="&#x3af;" horiz-adv-x="282" 
d="M135 -7q-46 0 -71 29.5t-25 82.5q0 51 13 119l56 287h131l-54 -287q-12 -64 -12 -89q0 -39 26 -39q12 0 29 5l19 -84q-33 -14 -57 -19t-55 -5zM208 781h135l-119 -181h-88z" />
    <glyph glyph-name="upsilondieresistonos" unicode="&#x3b0;" horiz-adv-x="446" 
d="M195 -15q-64 0 -101 40t-37 109q0 42 8 82l16 80q10 54 10 82q0 35 -23 35q-10 0 -22 -4l-20 80q48 27 104 27q45 0 70.5 -29.5t25.5 -82.5q0 -20 -8 -65l-23 -129q-8 -50 -8 -76q0 -25 6 -36t19 -11q40 0 63.5 75t23.5 201q0 73 -11 148h118q8 -29 13 -76.5t5 -94.5
q0 -171 -59.5 -263t-169.5 -92zM316 920h136l-121 -169h-88zM168 590q-28 0 -45.5 15.5t-17.5 41.5q0 32 21.5 53.5t53.5 21.5q28 0 45.5 -15.5t17.5 -41.5q0 -31 -22 -53t-53 -22zM367 590q-28 0 -45.5 15.5t-17.5 41.5q0 32 22 53.5t53 21.5q28 0 45.5 -15.5t17.5 -41.5
q0 -31 -21.5 -53t-53.5 -22z" />
    <glyph glyph-name="alpha" unicode="&#x3b1;" horiz-adv-x="520" 
d="M154 -13q-59 0 -91.5 45t-32.5 128q0 100 32 184.5t82 132t106 47.5q32 0 55 -24t33 -69q5 20 10.5 40t12.5 40h132l-28 -78q-29 -81 -46 -158.5t-17 -127.5q0 -29 6 -40t22 -11q12 0 28 4l20 -82q-22 -14 -43.5 -19.5t-52.5 -5.5q-41 0 -65 28t-24 75v9
q-56 -118 -139 -118zM200 89q26 0 49.5 41.5t50.5 137.5q3 79 -4.5 116.5t-27.5 37.5q-27 0 -51 -37t-38 -93t-14 -115q0 -88 35 -88z" />
    <glyph glyph-name="beta" unicode="&#x3b2;" horiz-adv-x="487" 
d="M-31 -206l140 713q24 121 80.5 184t142.5 63q65 0 104.5 -44t39.5 -116q0 -64 -31.5 -118t-82.5 -78q40 -17 63 -57.5t23 -96.5q0 -76 -29.5 -135.5t-78.5 -91.5t-109 -32q-52 0 -98 27l-42 -218h-122zM150 96q30 -11 66 -11q45 0 73.5 42t28.5 108q0 105 -67 105h-9
l18 94h12q35 0 60.5 44.5t25.5 105.5q0 39 -10 57.5t-31 18.5q-59 0 -87 -149z" />
    <glyph glyph-name="gamma" unicode="&#x3b3;" horiz-adv-x="414" 
d="M58 -206q16 94 22 154t6 118q0 78 -7 158t-32 287h139q17 -226 15 -379q71 146 116 379h138q-25 -124 -94 -273.5t-150 -256.5q-1 -33 -5.5 -70.5t-17.5 -116.5h-130z" />
    <glyph glyph-name="delta" unicode="&#x3b4;" horiz-adv-x="465" 
d="M190 -15q-74 0 -119.5 48t-45.5 127q0 66 23.5 125.5t64 104t92.5 67.5q-24 26 -37 58t-13 65q0 79 49.5 126.5t133.5 47.5q40 0 79 -11t68 -31l-17 -87q-63 29 -123 29q-32 0 -49 -16t-17 -46q0 -17 12 -35.5t47 -54.5q49 -50 72 -101t23 -111q0 -91 -32 -161t-87 -107
t-124 -37zM298 286q0 36 -9 63t-28 51q-48 -38 -74.5 -98t-26.5 -132q0 -41 12 -62t34 -21q41 0 66.5 55t25.5 144z" />
    <glyph glyph-name="epsilon" unicode="&#x3b5;" horiz-adv-x="378" 
d="M166 -13q-67 0 -110 36.5t-43 93.5q0 60 35 100.5t96 51.5q-33 12 -51 39.5t-18 67.5q0 42 23 76t61 53t82 19q72 0 141 -31l-19 -89q-47 22 -95 22q-32 0 -50.5 -18t-18.5 -48q0 -23 16 -36t45 -13h48l-20 -95h-49q-46 0 -74 -20.5t-28 -54.5q0 -24 17.5 -40t43.5 -16
q49 0 108 31l27 -77q-34 -24 -79 -38t-88 -14z" />
    <glyph glyph-name="zeta" unicode="&#x3b6;" horiz-adv-x="362" 
d="M36 213q0 73 27 139t87.5 136t164.5 154h-178l19 98h291l-21 -100q-129 -108 -191.5 -208t-62.5 -197q0 -50 10.5 -77.5t35.5 -44.5l50 -34q26 -18 40 -45t14 -59q0 -62 -34 -109.5t-106 -84.5l-42 75q38 27 53.5 45.5t15.5 38.5q0 32 -33 53l-45 29q-95 61 -95 191z" />
    <glyph glyph-name="eta" unicode="&#x3b7;" horiz-adv-x="539" 
d="M261 -206l93 479q15 75 15 105q0 44 -31 44q-36 0 -92 -65l-69 -357h-132l55 282q14 72 14 97q0 15 -7 24.5t-20 9.5q-8 0 -19 -3l-20 79q49 27 104 27q78 0 93 -91q32 46 72.5 72.5t81.5 26.5q51 0 77 -32t26 -93q0 -43 -16 -127l-93 -478h-132z" />
    <glyph glyph-name="theta" unicode="&#x3b8;" horiz-adv-x="495" 
d="M202 -13q-73 0 -114.5 59t-41.5 162q0 71 20 186q31 174 100.5 267t172.5 93q73 0 114.5 -59t41.5 -162q0 -71 -20 -186q-31 -174 -100.5 -267t-172.5 -93zM325 652q-43 0 -77 -60.5t-55 -173.5h168q10 80 10 127q0 57 -11 82t-35 25zM216 89q42 0 76 60.5t55 172.5h-168
q-9 -72 -9 -126q0 -57 11 -82t35 -25z" />
    <glyph glyph-name="iota" unicode="&#x3b9;" horiz-adv-x="282" 
d="M135 -7q-46 0 -71 29.5t-25 82.5q0 51 13 119l56 287h131l-54 -287q-12 -64 -12 -89q0 -39 26 -39q12 0 29 5l19 -84q-33 -14 -57 -19t-55 -5z" />
    <glyph glyph-name="kappa" unicode="&#x3ba;" horiz-adv-x="481" 
d="M311 275q48 -145 129 -275h-143q-42 83 -73 178l-63 -71l-21 -107h-130l100 511h130l-45 -230l167 230h159z" />
    <glyph glyph-name="lambda" unicode="&#x3bb;" horiz-adv-x="398" 
d="M224 0l-15 354q-70 -152 -122 -354h-130q33 120 98 261.5t134 241.5l-3 82q-1 35 -9 50.5t-24 15.5q-13 0 -36 -6l-19 82q51 27 101 27q53 0 80 -40t34 -130l43 -584h-132z" />
    <glyph glyph-name="uni03BC" unicode="&#x3bc;" horiz-adv-x="524" 
d="M492 24q-20 -14 -49 -22.5t-56 -8.5q-76 0 -94 64q-19 -33 -46.5 -51.5t-57.5 -18.5q-36 0 -57 27l-43 -220h-122l140 717h132l-55 -282q-13 -63 -13 -94q0 -22 9.5 -34t27.5 -12q38 0 75 48l73 374h132l-55 -286q-9 -50 -11.5 -65.5t-2.5 -28.5q0 -35 27 -35q13 0 25 5z
" />
    <glyph glyph-name="nu" unicode="&#x3bd;" horiz-adv-x="423" 
d="M54 511h137l-4 -411q39 82 72.5 178.5t68.5 232.5h135q-23 -110 -90.5 -250t-153.5 -261h-121z" />
    <glyph glyph-name="xi" unicode="&#x3be;" horiz-adv-x="355" 
d="M141 -144q39 28 54 46.5t15 38.5q0 15 -8 27t-26 24l-45 30q-54 36 -78.5 76.5t-24.5 101.5q0 72 48 125.5t124 66.5q-39 18 -64 57t-25 83q0 65 30 116t80 78.5t111 27.5q59 0 108 -24l-19 -90q-42 14 -78 14q-46 0 -73 -34.5t-27 -93.5q0 -43 19.5 -66t55.5 -23h30
l-23 -99h-46q-48 0 -81.5 -35t-33.5 -83q0 -39 12.5 -63t41.5 -44l42 -29q33 -22 48 -49.5t15 -65.5q0 -57 -36 -105t-104 -83z" />
    <glyph glyph-name="omicron" unicode="&#x3bf;" horiz-adv-x="468" 
d="M199 -13q-79 0 -123.5 52.5t-44.5 144.5q0 66 19.5 132.5t52 113.5t75 70.5t92.5 23.5q79 0 123.5 -52t44.5 -145q0 -66 -19.5 -132.5t-52 -113.5t-75 -70.5t-92.5 -23.5zM265 422q-32 0 -55 -36.5t-36 -98.5t-13 -120q0 -78 43 -78q32 0 55 36.5t36 98.5t13 120
q0 78 -43 78z" />
    <glyph glyph-name="pi" unicode="&#x3c0;" horiz-adv-x="535" 
d="M380 -7q-100 0 -100 111q0 37 10 91l42 214h-78q-26 -132 -50 -225t-54 -184h-132q44 127 70 222.5t41 186.5h-88l20 102h495l-20 -102h-75l-38 -196q-12 -59 -12 -78q0 -39 34 -39q15 0 31 4l22 -77q-28 -17 -53.5 -23.5t-64.5 -6.5z" />
    <glyph glyph-name="rho" unicode="&#x3c1;" horiz-adv-x="471" 
d="M-38 -206l95 489q22 115 83 178t150 63q70 0 112 -50t42 -132q0 -100 -37 -182t-96 -127.5t-126 -45.5q-25 0 -52 10l-39 -203h-132zM151 91q8 -2 25 -2q40 0 72 34.5t49 91.5t17 127q0 39 -11.5 59.5t-33.5 20.5q-53 0 -80 -137z" />
    <glyph glyph-name="sigma1" unicode="&#x3c2;" horiz-adv-x="360" 
d="M125 -144q38 27 53.5 45t15.5 36q0 29 -31 51l-41 29q-44 31 -67 77t-23 100q0 95 35 171t92 117.5t125 41.5q29 0 50 -5.5t46 -18.5l-19 -92q-33 14 -72 14q-37 0 -65.5 -28.5t-44 -76.5t-15.5 -108q0 -68 45 -101l46 -34q52 -38 52 -99q0 -62 -34 -109.5t-106 -84.5z
" />
    <glyph glyph-name="sigma" unicode="&#x3c3;" horiz-adv-x="477" 
d="M198 -13q-78 0 -121.5 52.5t-43.5 147.5q0 96 33.5 170t91 114t128.5 40h224l-20 -102h-100q40 -61 40 -140q0 -81 -32.5 -146t-85 -100.5t-114.5 -35.5zM304 308q0 51 -13 101h-18q-29 0 -55 -36t-40.5 -90.5t-14.5 -112.5q0 -81 44 -81q40 0 68.5 64t28.5 155z" />
    <glyph glyph-name="tau" unicode="&#x3c4;" horiz-adv-x="385" 
d="M223 -7q-119 0 -119 117q0 41 16 123l34 176h-120l20 102h375l-20 -102h-123l-31 -164q-6 -32 -11.5 -59.5t-5.5 -47.5q0 -42 30 -42q22 0 46 6l18 -85q-48 -24 -109 -24z" />
    <glyph glyph-name="upsilon" unicode="&#x3c5;" horiz-adv-x="446" 
d="M195 -15q-64 0 -101 40t-37 109q0 42 8 82l16 80q10 54 10 82q0 35 -23 35q-10 0 -22 -4l-20 80q48 27 104 27q45 0 70.5 -29.5t25.5 -82.5q0 -20 -8 -65l-23 -129q-8 -50 -8 -76q0 -25 6 -36t19 -11q40 0 63.5 75t23.5 201q0 73 -11 148h118q8 -29 13 -76.5t5 -94.5
q0 -171 -59.5 -263t-169.5 -92z" />
    <glyph glyph-name="phi" unicode="&#x3c6;" horiz-adv-x="630" 
d="M163 -206l37 191q-49 6 -87.5 35.5t-59 74.5t-20.5 99q0 89 36.5 161.5t98.5 116.5t137 52l23 115h126l-22 -115q49 -6 87 -35.5t58.5 -74.5t20.5 -98q0 -89 -36.5 -161.5t-98.5 -116.5t-137 -52l-37 -192h-126zM161 202q0 -101 58 -121l68 347q-37 -8 -66 -41
t-44.5 -81.5t-15.5 -103.5zM470 308q0 100 -57 120l-68 -347q36 8 65 41.5t44.5 82t15.5 103.5z" />
    <glyph glyph-name="chi" unicode="&#x3c7;" horiz-adv-x="394" 
d="M135 184l-16 166q-4 37 -12 50t-25 13q-9 0 -21 -3l-19 84q44 22 91 22q85 0 92 -121l4 -84l99 200h132l-208 -361l14 -192q2 -35 12.5 -51t30.5 -16q8 0 21 3l13 -82q-46 -24 -85 -24q-42 0 -66 29t-28 86l-7 122l-111 -231h-132z" />
    <glyph glyph-name="psi" unicode="&#x3c8;" horiz-adv-x="617" 
d="M354 87q59 10 89.5 87t30.5 215q0 68 -5 122h111q15 -81 15 -152q0 -166 -66.5 -262.5t-194.5 -110.5l-37 -192h-126l37 193q-69 12 -105 61.5t-36 131.5q0 34 6 66l11 64q7 39 7 64q0 39 -28 39q-8 0 -17 -3l-20 79q47 27 104 27q43 0 66 -26.5t23 -76.5q0 -33 -10 -89
l-13 -77q-2 -15 -4.5 -30t-2.5 -27q0 -43 9 -67t30 -34l108 550h126z" />
    <glyph glyph-name="omega" unicode="&#x3c9;" horiz-adv-x="600" 
d="M128 -10q-53 0 -81.5 40.5t-28.5 115.5q0 92 39.5 191.5t105.5 173.5h131q-68 -89 -105 -181t-37 -170q0 -34 6 -48t19 -14q34 0 56 111l27 138h126l-27 -138q-7 -35 -7 -57q0 -54 25 -54q33 0 52.5 56.5t19.5 151.5q0 49 -9.5 96.5t-31.5 108.5h126q21 -40 32.5 -94.5
t11.5 -110.5q0 -90 -27 -163t-71.5 -113t-96.5 -40q-97 0 -109 108q-49 -108 -146 -108z" />
    <glyph glyph-name="iotadieresis" unicode="&#x3ca;" horiz-adv-x="282" 
d="M135 -7q-46 0 -71 29.5t-25 82.5q0 51 13 119l56 287h131l-54 -287q-12 -64 -12 -89q0 -39 26 -39q12 0 29 5l19 -84q-33 -14 -57 -19t-55 -5zM96 589q-30 0 -48 16.5t-18 43.5q0 33 22.5 55.5t55.5 22.5q30 0 48 -16.5t18 -43.5q0 -33 -22.5 -55.5t-55.5 -22.5zM294 589
q-30 0 -48 16.5t-18 43.5q0 33 22.5 55.5t55.5 22.5q30 0 48 -16.5t18 -43.5q0 -33 -22.5 -55.5t-55.5 -22.5z" />
    <glyph glyph-name="upsilondieresis" unicode="&#x3cb;" horiz-adv-x="446" 
d="M195 -15q-64 0 -101 40t-37 109q0 42 8 82l16 80q10 54 10 82q0 35 -23 35q-10 0 -22 -4l-20 80q48 27 104 27q45 0 70.5 -29.5t25.5 -82.5q0 -20 -8 -65l-23 -129q-8 -50 -8 -76q0 -25 6 -36t19 -11q40 0 63.5 75t23.5 201q0 73 -11 148h118q8 -29 13 -76.5t5 -94.5
q0 -171 -59.5 -263t-169.5 -92zM165 589q-30 0 -48 16.5t-18 43.5q0 33 22.5 55.5t55.5 22.5q30 0 48 -16.5t18 -43.5q0 -33 -22.5 -55.5t-55.5 -22.5zM363 589q-30 0 -48 16.5t-18 43.5q0 33 22.5 55.5t55.5 22.5q30 0 48 -16.5t18 -43.5q0 -33 -22.5 -55.5t-55.5 -22.5z
" />
    <glyph glyph-name="omicrontonos" unicode="&#x3cc;" horiz-adv-x="468" 
d="M199 -13q-79 0 -123.5 52.5t-44.5 144.5q0 66 19.5 132.5t52 113.5t75 70.5t92.5 23.5q79 0 123.5 -52t44.5 -145q0 -66 -19.5 -132.5t-52 -113.5t-75 -70.5t-92.5 -23.5zM265 422q-32 0 -55 -36.5t-36 -98.5t-13 -120q0 -78 43 -78q32 0 55 36.5t36 98.5t13 120
q0 78 -43 78zM318 781h135l-119 -181h-88z" />
    <glyph glyph-name="upsilontonos" unicode="&#x3cd;" horiz-adv-x="446" 
d="M195 -15q-64 0 -101 40t-37 109q0 42 8 82l16 80q10 54 10 82q0 35 -23 35q-10 0 -22 -4l-20 80q48 27 104 27q45 0 70.5 -29.5t25.5 -82.5q0 -20 -8 -65l-23 -129q-8 -50 -8 -76q0 -25 6 -36t19 -11q40 0 63.5 75t23.5 201q0 73 -11 148h118q8 -29 13 -76.5t5 -94.5
q0 -171 -59.5 -263t-169.5 -92zM277 781h135l-119 -181h-88z" />
    <glyph glyph-name="omegatonos" unicode="&#x3ce;" horiz-adv-x="600" 
d="M138 -10q-53 0 -81.5 40.5t-28.5 115.5q0 92 39.5 191.5t105.5 173.5h131q-68 -89 -105 -181t-37 -170q0 -34 6 -48t19 -14q34 0 56 111l27 138h126l-27 -138q-7 -35 -7 -57q0 -54 25 -54q33 0 52.5 56.5t19.5 151.5q0 49 -9.5 96.5t-31.5 108.5h126q21 -40 32.5 -94.5
t11.5 -110.5q0 -90 -27 -163t-71.5 -113t-96.5 -40q-97 0 -109 108q-49 -108 -146 -108zM377 781h135l-119 -181h-88z" />
    <glyph glyph-name="uni03D7" unicode="&#x3d7;" horiz-adv-x="485" 
d="M313 274q48 -121 129 -230q-23 -137 -80 -199.5t-158 -62.5q-60 0 -106 23l16 82q41 -10 88 -10t75 30t40 92q-52 76 -91 177l-66 -75l-20 -101h-130l100 511h130l-44 -223l166 223h159z" />
    <glyph glyph-name="uni0400" unicode="&#x400;" horiz-adv-x="466" 
d="M18 0l135 693h365l-21 -105h-230l-35 -180h184l-21 -105h-184l-38 -198h230l-20 -105h-365zM286 769l-88 128h133l62 -128h-107z" />
    <glyph glyph-name="uni0401" unicode="&#x401;" horiz-adv-x="466" 
d="M18 0l135 693h365l-21 -105h-230l-35 -180h184l-21 -105h-184l-38 -198h230l-20 -105h-365zM254 772q-30 0 -48.5 16.5t-18.5 44.5q0 34 23 56.5t56 22.5q30 0 48.5 -16.5t18.5 -44.5q0 -34 -23 -56.5t-56 -22.5zM452 772q-30 0 -48.5 16.5t-18.5 44.5q0 34 23 56.5
t56 22.5q30 0 48.5 -16.5t18.5 -44.5q0 -34 -23 -56.5t-56 -22.5z" />
    <glyph glyph-name="uni0402" unicode="&#x402;" horiz-adv-x="656" 
d="M123 0l114 584h-161l21 109h464l-21 -109h-168l-37 -189q56 26 125 26q74 0 113 -43.5t39 -127.5q0 -79 -30.5 -138.5t-83.5 -91.5t-120 -32q-36 0 -62 12l18 93q15 -4 35 -4q50 0 79 41t29 110q0 43 -17.5 62.5t-55.5 19.5q-48 0 -86 -16l-60 -306h-135z" />
    <glyph glyph-name="uni0403" unicode="&#x403;" horiz-adv-x="424" 
d="M18 0l135 693h349l-21 -109h-214l-114 -584h-135zM403 769h-111l108 128h138z" />
    <glyph glyph-name="uni0404" unicode="&#x404;" horiz-adv-x="530" 
d="M199 300q-1 -11 -1 -21.5v-21.5q0 -77 27.5 -117.5t79.5 -40.5q62 0 140 53l24 -100q-84 -67 -199 -67q-99 0 -155.5 66.5t-56.5 182.5q0 137 51 246t134 168.5t181 59.5q40 0 72 -8.5t62 -27.5l-20 -104q-49 27 -108 27q-69 0 -125 -51t-85 -138h253l-21 -106h-253z" />
    <glyph glyph-name="uni0405" unicode="&#x405;" horiz-adv-x="470" 
d="M184 314q-53 34 -76 72t-23 90q0 68 32 121t86 82t120 29q91 0 153 -44l-20 -101q-46 35 -114 35q-56 0 -87 -26.5t-31 -74.5q0 -25 12 -42.5t44 -38.5l52 -34q49 -33 71 -70t22 -88q0 -70 -34 -125t-91 -84.5t-126 -29.5q-56 0 -98.5 12t-76.5 38l20 100q58 -40 137 -40
q57 0 92.5 29t35.5 77q0 27 -13.5 46.5t-46.5 40.5z" />
    <glyph glyph-name="uni0406" unicode="&#x406;" horiz-adv-x="270" 
d="M153 0h-135l135 693h135z" />
    <glyph glyph-name="uni0407" unicode="&#x407;" horiz-adv-x="270" 
d="M153 0h-135l135 693h135zM144 772q-30 0 -48.5 16.5t-18.5 44.5q0 34 23 56.5t56 22.5q30 0 48.5 -16.5t18.5 -44.5q0 -34 -23 -56.5t-56 -22.5zM342 772q-30 0 -48.5 16.5t-18.5 44.5q0 34 23 56.5t56 22.5q30 0 48.5 -16.5t18.5 -44.5q0 -34 -23 -56.5t-56 -22.5z" />
    <glyph glyph-name="uni0408" unicode="&#x408;" horiz-adv-x="368" 
d="M254 693h135l-97 -498q-21 -106 -71.5 -158t-133.5 -52q-60 0 -118 27l20 101q49 -15 84 -15t55.5 26.5t31.5 84.5z" />
    <glyph glyph-name="uni0409" unicode="&#x409;" horiz-adv-x="787" 
d="M357 588q-54 -225 -103 -354t-104.5 -187.5t-132.5 -58.5q-33 0 -56 8l20 104q12 -2 25 -2q37 0 70.5 46.5t71 154t86.5 300.5l24 94h326l-53 -270h56q76 0 119 -44.5t43 -123.5q0 -77 -30.5 -135t-83.5 -89t-121 -31h-200l115 588h-72zM512 324l-44 -225h48q45 0 72 40
t27 105q0 38 -15.5 59t-44.5 21h-43z" />
    <glyph glyph-name="uni040A" unicode="&#x40a;" horiz-adv-x="801" 
d="M153 693h135l-56 -287h175l56 287h135l-53 -270h56q76 0 119 -44.5t43 -123.5q0 -77 -30.5 -135t-83.5 -89t-121 -31h-200l59 301h-175l-59 -301h-135zM526 324l-44 -225h48q45 0 72 40t27 105q0 38 -15.5 59t-44.5 21h-43z" />
    <glyph glyph-name="uni040B" unicode="&#x40b;" horiz-adv-x="658" 
d="M123 0l114 584h-161l21 109h464l-21 -109h-168l-38 -192q75 31 141 31t102 -32.5t36 -91.5q0 -40 -8 -83l-42 -216h-135l43 222q5 28 5 47q0 28 -13 41t-42 13q-48 0 -104 -21l-59 -302h-135z" />
    <glyph glyph-name="uni040C" unicode="&#x40c;" horiz-adv-x="549" 
d="M18 0l135 693h135l-63 -322l237 322h161l-271 -337l154 -356h-153l-133 347l-67 -347h-135zM439 769h-111l108 128h138z" />
    <glyph glyph-name="uni040D" unicode="&#x40d;" horiz-adv-x="589" 
d="M195 242l279 451h133l-135 -693h-130l87 450l-278 -450h-133l135 693h130zM332 769l-88 128h133l62 -128h-107z" />
    <glyph glyph-name="uni040E" unicode="&#x40e;" horiz-adv-x="524" 
d="M111 -15q-33 0 -62 7l21 106q18 -3 36 -3q33 0 55.5 18.5t48.5 66.5l-112 513h144l49 -369l169 369h148l-294 -542q-33 -62 -62.5 -98t-62.5 -52t-78 -16zM351 762q-58 0 -93.5 28.5t-35.5 75.5q0 33 18 63h76q-7 -24 -7 -42q0 -24 13.5 -36.5t39.5 -12.5q70 0 85 68
l5 23h82q-3 -78 -51.5 -122.5t-131.5 -44.5z" />
    <glyph glyph-name="uni040F" unicode="&#x40f;" horiz-adv-x="573" 
d="M176 0h-158l135 693h135l-114 -587h167l115 587h135l-135 -693h-158l-33 -170h-122z" />
    <glyph glyph-name="uni0410" unicode="&#x410;" horiz-adv-x="539" 
d="M341 0l-4 166h-166l-67 -166h-147l322 693h154l50 -693h-142zM211 264h125l-7 291z" />
    <glyph glyph-name="uni0411" unicode="&#x411;" horiz-adv-x="508" 
d="M18 0l135 693h364l-21 -106h-229l-34 -174h63q81 0 127 -44t46 -121q0 -75 -32 -131.5t-87.5 -86.5t-126.5 -30h-205zM214 314l-42 -215h53q50 0 80 38t30 100q0 37 -18.5 57t-52.5 20h-50z" />
    <glyph glyph-name="uni0412" unicode="&#x412;" horiz-adv-x="534" 
d="M18 0l135 693h206q73 0 116 -42.5t43 -114.5q0 -65 -30.5 -114t-83.5 -70q41 -20 63 -53.5t22 -75.5q0 -68 -32 -118.5t-88 -77.5t-129 -27h-222zM205 307l-41 -209h91q44 0 71.5 37t27.5 96q0 35 -18 55.5t-49 20.5h-82zM261 595l-38 -195h75q40 0 65.5 34.5t25.5 90.5
q0 32 -15.5 51t-42.5 19h-70z" />
    <glyph glyph-name="uni0413" unicode="&#x413;" horiz-adv-x="424" 
d="M18 0l135 693h349l-21 -109h-214l-114 -584h-135z" />
    <glyph glyph-name="uni0414" unicode="&#x414;" horiz-adv-x="597" 
d="M-16 104h45q57 59 108 180.5t102 319.5l23 89h331l-115 -589h80l-54 -274h-122l33 170h-329l-33 -170h-122zM358 588q-44 -173 -94 -296.5t-102 -187.5h184l94 484h-82z" />
    <glyph glyph-name="uni0415" unicode="&#x415;" horiz-adv-x="466" 
d="M18 0l135 693h365l-21 -105h-230l-35 -180h184l-21 -105h-184l-38 -198h230l-20 -105h-365z" />
    <glyph glyph-name="uni0416" unicode="&#x416;" horiz-adv-x="754" 
d="M-46 0l267 379l-110 313h137l92 -314l62 315h131l-62 -315l215 314h146l-247 -335l116 -357h-141l-95 344l-67 -344h-131l67 344l-224 -344h-156z" />
    <glyph glyph-name="uni0417" unicode="&#x417;" horiz-adv-x="459" 
d="M140 -15q-82 0 -145 39l20 101q65 -29 119 -29q65 0 102.5 33t37.5 89q0 83 -90 83h-56l21 106h60q50 0 80 31t30 82q0 37 -21.5 57t-63.5 20q-57 0 -114 -33l-27 96q83 48 163 48q91 0 144.5 -45t53.5 -123q0 -71 -37 -120.5t-104 -68.5q99 -29 99 -142q0 -68 -35 -119
t-96.5 -78t-140.5 -27z" />
    <glyph glyph-name="uni0418" unicode="&#x418;" horiz-adv-x="589" 
d="M195 242l279 451h133l-135 -693h-130l87 450l-278 -450h-133l135 693h130z" />
    <glyph glyph-name="uni0419" unicode="&#x419;" horiz-adv-x="589" 
d="M195 242l279 451h133l-135 -693h-130l87 450l-278 -450h-133l135 693h130zM382 762q-58 0 -93.5 28.5t-35.5 75.5q0 33 18 63h76q-7 -24 -7 -42q0 -24 13.5 -36.5t39.5 -12.5q70 0 85 68l5 23h82q-3 -78 -51.5 -122.5t-131.5 -44.5z" />
    <glyph glyph-name="uni041A" unicode="&#x41a;" horiz-adv-x="554" 
d="M18 0l135 693h135l-63 -322l237 322h161l-271 -337l154 -356h-153l-133 347l-67 -347h-135z" />
    <glyph glyph-name="uni041B" unicode="&#x41b;" horiz-adv-x="569" 
d="M432 588h-75q-54 -225 -103 -354t-104.5 -187.5t-132.5 -58.5q-33 0 -56 8l20 104q12 -2 25 -2q37 0 70.5 46.5t71 154t86.5 300.5l24 94h329l-135 -693h-135z" />
    <glyph glyph-name="uni041C" unicode="&#x41c;" horiz-adv-x="700" 
d="M462 0l97 498l-168 -327h-116l-38 334l-98 -505h-121l135 693h158l46 -398l207 398h154l-135 -693h-121z" />
    <glyph glyph-name="uni041D" unicode="&#x41d;" horiz-adv-x="593" 
d="M341 0l59 301h-188l-59 -301h-135l135 693h135l-56 -287h188l56 287h135l-135 -693h-135z" />
    <glyph glyph-name="uni041E" unicode="&#x41e;" horiz-adv-x="639" 
d="M293 -15q-110 0 -171 70t-61 195q0 89 26 178.5t69.5 152.5t100.5 95t125 32q110 0 171 -70t61 -195q0 -89 -26 -178.5t-69.5 -152.5t-100.5 -95t-125 -32zM379 597q-56 0 -95 -50.5t-61.5 -137.5t-22.5 -174q0 -68 24.5 -103.5t71.5 -35.5q56 0 95 50.5t61.5 137.5
t22.5 174q0 68 -24.5 103.5t-71.5 35.5z" />
    <glyph glyph-name="uni041F" unicode="&#x41f;" horiz-adv-x="583" 
d="M331 0l114 587h-178l-114 -587h-135l135 693h448l-135 -693h-135z" />
    <glyph glyph-name="uni0420" unicode="&#x420;" horiz-adv-x="526" 
d="M18 0l135 693h198q83 0 129.5 -46.5t46.5 -127.5q0 -79 -33 -138.5t-90 -91.5t-130 -32h-74l-50 -257h-132zM220 359h56q53 0 85 41t32 108q0 40 -19 61.5t-56 21.5h-53z" />
    <glyph glyph-name="uni0421" unicode="&#x421;" horiz-adv-x="522" 
d="M461 52q-40 -33 -90 -50t-104 -17q-97 0 -153 66.5t-56 182.5q0 137 50 246t131.5 168.5t178.5 59.5q76 0 132 -36l-20 -104q-48 27 -104 27q-65 0 -117 -46.5t-80.5 -123t-28.5 -168.5q0 -77 26.5 -117.5t76.5 -40.5q31 0 62.5 12.5t71.5 40.5z" />
    <glyph glyph-name="uni0422" unicode="&#x422;" horiz-adv-x="481" 
d="M123 0l114 584h-162l21 109h459l-21 -109h-162l-114 -584h-135z" />
    <glyph glyph-name="uni0423" unicode="&#x423;" horiz-adv-x="524" 
d="M111 -15q-33 0 -62 7l21 106q18 -3 36 -3q33 0 55.5 18.5t48.5 66.5l-112 513h144l49 -369l169 369h148l-294 -542q-33 -62 -62.5 -98t-62.5 -52t-78 -16z" />
    <glyph glyph-name="uni0424" unicode="&#x424;" horiz-adv-x="701" 
d="M256 59q-90 4 -144.5 66t-54.5 160q0 103 40.5 181.5t111 122.5t160.5 46l17 88h112l-17 -88q90 -5 144.5 -67t54.5 -159q0 -103 -40.5 -181.5t-111 -122.5t-160.5 -46l-17 -89h-112zM185 278q0 -55 24 -88t66 -36l75 386q-73 -4 -119 -77t-46 -185zM552 416
q0 54 -24.5 87t-65.5 37l-75 -386q73 4 119 76.5t46 185.5z" />
    <glyph glyph-name="uni0425" unicode="&#x425;" horiz-adv-x="506" 
d="M311 0l-62 246l-153 -246h-141l254 372l-100 321h140l55 -229l137 229h139l-236 -342l108 -351h-141z" />
    <glyph glyph-name="uni0426" unicode="&#x426;" horiz-adv-x="586" 
d="M371 -170l33 170h-386l135 693h135l-114 -587h159l114 587h135l-114 -587h79l-54 -276h-122z" />
    <glyph glyph-name="uni0427" unicode="&#x427;" horiz-adv-x="557" 
d="M305 0l54 277q-63 -29 -137 -29q-140 0 -140 127q0 40 15 119l39 199h135l-38 -195q-14 -67 -14 -92q0 -30 12.5 -43t40.5 -13q59 0 105 20l63 323h135l-135 -693h-135z" />
    <glyph glyph-name="uni0428" unicode="&#x428;" horiz-adv-x="805" 
d="M153 693h130l-114 -587h139l115 587h130l-114 -587h140l114 587h130l-135 -693h-670z" />
    <glyph glyph-name="uni0429" unicode="&#x429;" horiz-adv-x="811" 
d="M596 -170l33 170h-611l135 693h130l-114 -587h131l115 587h130l-114 -587h132l114 587h130l-114 -587h79l-54 -276h-122z" />
    <glyph glyph-name="uni042A" unicode="&#x42a;" horiz-adv-x="610" 
d="M129 0l114 586h-171l21 107h306l-52 -268h49q83 0 129.5 -45t46.5 -124q0 -59 -18.5 -107t-51 -81.5t-76.5 -50.5t-95 -17h-202zM327 326l-44 -227h50q47 0 76 40t29 106q0 39 -17 60t-48 21h-46z" />
    <glyph glyph-name="uni042B" unicode="&#x42b;" horiz-adv-x="721" 
d="M18 0l135 693h135l-52 -268h55q76 0 119 -45t43 -124q0 -78 -30.5 -136t-84 -89t-121.5 -31h-199zM469 0l135 693h135l-135 -693h-135zM216 326l-44 -227h47q45 0 72.5 40t27.5 106q0 39 -15.5 60t-44.5 21h-43z" />
    <glyph glyph-name="uni042C" unicode="&#x42c;" horiz-adv-x="513" 
d="M18 0l135 693h135l-52 -268h65q82 0 128 -45t46 -124q0 -77 -32.5 -135.5t-89 -89.5t-128.5 -31h-207zM216 326l-44 -227h55q51 0 82.5 40t31.5 106q0 40 -19 60.5t-54 20.5h-52z" />
    <glyph glyph-name="uni042D" unicode="&#x42d;" horiz-adv-x="533" 
d="M148 -15q-79 0 -132 34l21 105q49 -26 107 -26q78 0 134.5 53.5t79.5 148.5h-221l21 106h213v10q0 88 -33 133.5t-96 45.5q-62 0 -124 -45l-30 98q39 29 84 44.5t90 15.5q116 0 181 -73t65 -204q0 -133 -47 -234.5t-128.5 -156.5t-184.5 -55z" />
    <glyph glyph-name="uni042E" unicode="&#x42e;" horiz-adv-x="836" 
d="M514 -15q-99 0 -153.5 68t-54.5 190q0 27 3 58h-99l-59 -301h-133l135 693h133l-56 -287h96q34 141 106.5 221.5t170.5 80.5q99 0 153.5 -68t54.5 -190q0 -89 -24.5 -180t-65 -155.5t-93 -97t-114.5 -32.5zM594 598q-48 0 -82.5 -53.5t-54.5 -143t-20 -175.5
q0 -64 21 -97.5t61 -33.5q48 0 82.5 53.5t54.5 143t20 175.5q0 64 -21 97.5t-61 33.5z" />
    <glyph glyph-name="uni042F" unicode="&#x42f;" horiz-adv-x="512" 
d="M163 296q-33 21 -50.5 59t-17.5 87q0 77 30 134t84.5 87t125.5 30h195l-135 -693h-132l50 260h-42l-160 -260h-157zM239 444q0 -39 16 -60.5t44 -21.5h34l45 229h-33q-50 0 -78 -39t-28 -108z" />
    <glyph glyph-name="uni0430" unicode="&#x430;" horiz-adv-x="484" 
d="M265 0v69q-60 -82 -134 -82q-50 0 -77.5 41.5t-27.5 117.5q0 111 38 197.5t101.5 133.5t140.5 47q33 0 78.5 -11.5t81.5 -28.5l-94 -484h-107zM194 87q35 0 75 62l55 276q-15 3 -26 3q-40 0 -72 -37t-50 -96.5t-18 -128.5q0 -38 9.5 -58.5t26.5 -20.5z" />
    <glyph glyph-name="uni0431" unicode="&#x431;" horiz-adv-x="488" 
d="M210 -13q-81 0 -124 55t-43 159q0 122 35.5 232.5t95.5 177.5q29 32 78.5 55t130.5 44l144 37l-24 -122l-150 -31q-78 -15 -104 -49q-33 -40 -53 -121q57 44 119 44q64 0 100.5 -46.5t36.5 -127.5q0 -89 -33 -159.5t-87.5 -109t-121.5 -38.5zM263 368q-42 0 -81 -21
q-13 -65 -13 -138q0 -62 13.5 -91t42.5 -29q28 0 49.5 25.5t33.5 67.5t12 92t-14 72t-43 22z" />
    <glyph glyph-name="uni0432" unicode="&#x432;" horiz-adv-x="447" 
d="M434 409q0 -92 -100 -142q31 -13 49 -40t18 -63q0 -79 -57 -128t-149 -49q-80 0 -123 47t-43 134q0 103 37 184.5t98.5 126.5t134.5 45q64 0 99.5 -30.5t35.5 -84.5zM144 206q-1 -18 -1 -31q0 -96 66 -96q37 0 58.5 23t21.5 63q0 30 -10 47.5t-28 19.5zM280 432
q-43 0 -78.5 -41.5t-48.5 -108.5l87 23q42 11 63 33t21 55q0 39 -44 39z" />
    <glyph glyph-name="uni0433" unicode="&#x433;" horiz-adv-x="375" 
d="M372 394q0 -113 -128 -168l-54 -23q-38 -17 -53.5 -33t-15.5 -39q0 -47 67 -47q46 0 105 31l27 -79q-68 -49 -153 -49q-83 0 -127 34.5t-44 98.5q0 59 32 101t98 70l48 20q42 18 58.5 33t16.5 37t-17.5 34t-50.5 12q-44 0 -95 -24l-25 77q65 44 148 44q76 0 119.5 -35
t43.5 -95z" />
    <glyph glyph-name="uni0434" unicode="&#x434;" horiz-adv-x="480" 
d="M465 481q0 -152 -34 -264t-94.5 -171t-140.5 -59q-79 0 -124 49t-45 134q0 79 30 156t79 118t111 41q38 0 63.5 -22t32.5 -60q5 37 5 77q0 82 -29.5 121t-93.5 41l13 109q227 0 227 -270zM270 383q-35 0 -60 -32.5t-39.5 -87.5t-14.5 -105q0 -33 12.5 -51t35.5 -18
q35 0 60 32.5t39.5 87.5t14.5 105q0 33 -12.5 51t-35.5 18z" />
    <glyph glyph-name="uni0435" unicode="&#x435;" horiz-adv-x="427" 
d="M355 46q-86 -59 -185 -59q-69 0 -106 45t-37 128q0 106 36.5 189.5t97.5 129t134 45.5q55 0 89 -32.5t34 -85.5q0 -84 -57 -140.5t-169 -84.5l-45 -12q1 -48 15 -65t51 -17q28 0 59 9.5t59 27.5zM273 432q-25 0 -51 -24t-44 -64.5t-26 -91.5l46 14q52 15 81 47.5t29 75.5
t-35 43z" />
    <glyph glyph-name="uni0436" unicode="&#x436;" horiz-adv-x="804" 
d="M168 524q56 0 86 -47t30 -134q0 -8 -0.5 -16.5t-0.5 -16.5h67l39 201h116l-39 -201h63q26 97 81 155.5t121 58.5q55 0 86 -25l-17 -84q-29 14 -59 14q-35 0 -62 -33.5t-41.5 -89.5t-14.5 -123q0 -101 43 -101q18 0 33 6.5t35 23.5l21 -73q-51 -52 -128 -52q-56 0 -86 47
t-30 134v21.5t1 20.5h-66l-40 -210h-116l40 210h-62q-25 -100 -80.5 -161.5t-123.5 -61.5q-55 0 -86 25l17 84q29 -14 59 -14q35 0 62 33.5t41.5 89.5t14.5 123q0 101 -43 101q-18 0 -33 -6.5t-35 -23.5l-21 73q51 52 128 52z" />
    <glyph glyph-name="uni0437" unicode="&#x437;" horiz-adv-x="394" 
d="M122 -13q-69 0 -123 30l17 87q54 -20 108 -20q49 0 76.5 21.5t27.5 59.5q0 53 -85 53h-56l16 81h56q46 0 70.5 20t24.5 57q0 25 -18.5 38t-52.5 13q-47 0 -97 -25l-29 75q33 22 73 34.5t79 12.5q73 0 118.5 -35t45.5 -91q0 -50 -23.5 -86.5t-66.5 -53.5q31 -14 48 -39.5
t17 -58.5q0 -79 -61.5 -126t-164.5 -47z" />
    <glyph glyph-name="uni0438" unicode="&#x438;" horiz-adv-x="505" 
d="M286 0v73q-27 -37 -66.5 -61.5t-72.5 -24.5q-52 0 -78.5 31.5t-26.5 90.5q0 52 16 130l53 272h132l-53 -273q-5 -26 -8.5 -44t-5 -32.5t-1.5 -28.5q0 -44 32 -44q16 0 38.5 16.5t44.5 44.5l70 361h132l-99 -511h-107z" />
    <glyph glyph-name="uni0439" unicode="&#x439;" horiz-adv-x="505" 
d="M286 0v73q-27 -37 -66.5 -61.5t-72.5 -24.5q-52 0 -78.5 31.5t-26.5 90.5q0 52 16 130l53 272h132l-53 -273q-5 -26 -8.5 -44t-5 -32.5t-1.5 -28.5q0 -44 32 -44q16 0 38.5 16.5t44.5 44.5l70 361h132l-99 -511h-107zM306 596q-58 0 -93.5 30.5t-35.5 80.5q0 35 18 68h75
q-7 -27 -7 -48q0 -28 14 -42.5t40 -14.5q67 0 85 78l6 27h81q-3 -84 -51.5 -131.5t-131.5 -47.5z" />
    <glyph glyph-name="uni043A" unicode="&#x43a;" horiz-adv-x="481" 
d="M14 0l100 511h130l-44 -225l160 225h151l-199 -256l119 -255h-142l-99 235l-46 -235h-130z" />
    <glyph glyph-name="uni043B" unicode="&#x43b;" horiz-adv-x="507" 
d="M28 -13q-38 0 -68 16l18 93q6 -2 19 -2q26 0 43 17.5t31 57.5l54 156q25 74 52 117t63.5 62.5t93.5 19.5q32 0 77.5 -7.5t82.5 -18.5l-96 -498h-130l82 425q-8 1 -26 1q-28 0 -44 -22.5t-41 -94.5l-48 -140q-26 -76 -47 -112t-49 -53t-67 -17z" />
    <glyph glyph-name="uni043C" unicode="&#x43c;" horiz-adv-x="580" 
d="M358 0l59 317l-114 -213h-84l-32 234l-63 -338h-110l99 511h129l43 -288l157 288h125l-99 -511h-110z" />
    <glyph glyph-name="uni043D" unicode="&#x43d;" horiz-adv-x="508" 
d="M264 0l41 210h-118l-41 -210h-132l99 511h132l-39 -201h118l39 201h132l-99 -511h-132z" />
    <glyph glyph-name="uni043E" unicode="&#x43e;" horiz-adv-x="472" 
d="M201 -13q-80 0 -125 52.5t-45 144.5q0 87 32.5 170t86 126.5t122.5 43.5q80 0 125 -52.5t45 -144.5q0 -87 -32.5 -170t-86 -126.5t-122.5 -43.5zM267 422q-33 0 -56 -36.5t-36.5 -98.5t-13.5 -120q0 -38 11.5 -58t33.5 -20q33 0 56 36.5t36.5 98.5t13.5 120
q0 38 -11.5 58t-33.5 20z" />
    <glyph glyph-name="uni043F" unicode="&#x43f;" horiz-adv-x="512" 
d="M270 0l53 273q15 75 15 105q0 44 -31 44q-36 0 -92 -65l-69 -357h-132l99 511h107v-77q31 42 70 66t78 24q51 0 77 -32t26 -93q0 -43 -16 -127l-53 -272h-132z" />
    <glyph glyph-name="uni0440" unicode="&#x440;" horiz-adv-x="488" 
d="M-27 -206l140 717h107v-68q60 81 137 81q50 0 77 -42.5t27 -120.5q0 -110 -35.5 -196t-95.5 -132t-133 -46q-25 0 -53 11l-39 -204h-132zM291 424q-35 0 -76 -62l-54 -277q9 -2 26 -2q42 0 74.5 34.5t50 93.5t17.5 128q0 85 -38 85z" />
    <glyph glyph-name="uni0441" unicode="&#x441;" horiz-adv-x="391" 
d="M342 44q-33 -28 -75.5 -42.5t-89.5 -14.5q-71 0 -109.5 48t-38.5 136q0 100 37.5 181.5t98 126.5t130.5 45q57 0 109 -28l-18 -92q-44 18 -81 18q-42 0 -75 -32.5t-51 -86t-18 -117.5q0 -49 15 -73t47 -24q22 0 43.5 8t51.5 27z" />
    <glyph glyph-name="uni0442" unicode="&#x442;" horiz-adv-x="756" 
d="M514 0l53 273q15 79 15 105q0 44 -28 44q-19 0 -45.5 -21.5t-46.5 -51.5l-14 -81l-52 -268h-132l53 273q15 75 15 105q0 44 -28 44q-17 0 -43 -19.5t-46 -47.5l-69 -355h-132l99 511h107v-76q29 41 66 65t73 24q45 0 71 -24.5t32 -71.5q30 45 69.5 70.5t78.5 25.5
q52 0 78.5 -32t26.5 -93q0 -43 -16 -127l-53 -272h-132z" />
    <glyph glyph-name="uni0443" unicode="&#x443;" horiz-adv-x="420" 
d="M-60 -127q76 33 109 61t57 68l-58 509h135l15 -388q65 169 128 388h134q-28 -90 -73.5 -198t-94 -202t-87.5 -151q-53 -78 -104.5 -121.5t-108.5 -58.5z" />
    <glyph glyph-name="uni0444" unicode="&#x444;" horiz-adv-x="663" 
d="M182 -206l48 250q-24 -27 -51.5 -42t-55.5 -15q-46 0 -71.5 41.5t-25.5 116.5q0 111 33 198t88.5 134t123.5 47q24 0 50 -12l44 228h119l-53 -275q24 28 52 43.5t56 15.5q46 0 71.5 -41.5t25.5 -116.5q0 -111 -33 -198t-88.5 -134t-123.5 -47q-28 0 -51 12l-39 -205h-119
zM479 427q-30 0 -63 -36l-60 -309q7 -2 23 -2q40 0 70 35.5t46.5 96t16.5 135.5q0 80 -33 80zM183 84q30 0 62 35l60 310q-5 1 -11 1.5t-11 0.5q-40 0 -70 -35.5t-46.5 -96t-16.5 -135.5q0 -80 33 -80z" />
    <glyph glyph-name="uni0445" unicode="&#x445;" horiz-adv-x="419" 
d="M231 0l-41 160l-93 -160h-142l194 266l-92 245h133l40 -151l91 151h140l-190 -257l94 -254h-134z" />
    <glyph glyph-name="uni0446" unicode="&#x446;" horiz-adv-x="529" 
d="M328 -158l31 158h-8q-28 0 -44.5 19t-19.5 55q-28 -38 -67.5 -62.5t-72.5 -24.5q-52 0 -78.5 31.5t-26.5 90.5q0 50 16 130l53 272h132l-53 -273q-5 -26 -8.5 -44t-5 -32.5t-1.5 -28.5q0 -44 32 -44q16 0 39.5 17.5t45.5 46.5q3 26 12 70l56 288h132l-55 -284
q-15 -77 -15 -98q0 -36 35 -36q17 0 36 4l-50 -255h-115z" />
    <glyph glyph-name="uni0447" unicode="&#x447;" horiz-adv-x="468" 
d="M224 0l40 203q-49 -23 -106 -23q-50 0 -77 29.5t-27 82.5q0 41 13 106l22 113h132l-22 -114q-11 -56 -11 -78q0 -24 8 -34t26 -10q32 0 58 9l44 227h131l-99 -511h-132z" />
    <glyph glyph-name="uni0448" unicode="&#x448;" horiz-adv-x="712" 
d="M186 238q-10 -52 -12.5 -70t-2.5 -35q0 -44 27 -44q16 0 36.5 16t39.5 43q3 38 14 91l53 272h128l-53 -273q-10 -52 -12.5 -70t-2.5 -35q0 -44 27 -44q30 0 71 52l72 370h128l-99 -511h-103v68q-28 -38 -62 -59.5t-66 -21.5q-83 0 -95 88q-27 -40 -63.5 -64t-71.5 -24
q-48 0 -72.5 31t-24.5 91q0 52 16 130l53 272h128z" />
    <glyph glyph-name="uni0449" unicode="&#x449;" horiz-adv-x="736" 
d="M535 -158l31 158h-6q-56 0 -62 70q-27 -38 -61.5 -60.5t-67.5 -22.5q-83 0 -95 88q-27 -40 -63.5 -64t-71.5 -24q-48 0 -72.5 31t-24.5 91q0 52 16 130l53 272h128l-53 -273q-10 -52 -12.5 -70t-2.5 -35q0 -44 27 -44q16 0 36.5 16t39.5 43q3 38 14 91l53 272h128
l-53 -273q-10 -52 -12.5 -70t-2.5 -35q0 -44 27 -44q32 0 74 56q5 37 13 78l56 288h128l-55 -284q-15 -77 -15 -98q0 -36 35 -36q17 0 36 4l-50 -255h-115z" />
    <glyph glyph-name="uni044A" unicode="&#x44a;" horiz-adv-x="509" 
d="M36 409l20 102h255l-39 -181q43 26 92 26q53 0 85 -36.5t32 -96.5q0 -70 -28.5 -124t-76.5 -83t-108 -29q-75 0 -115.5 37.5t-40.5 108.5q0 33 6 64l46 212h-128zM310 258q-25 0 -56 -11l-13 -60q-5 -24 -5 -46q0 -56 44 -56q33 0 54 31t21 81q0 61 -45 61z" />
    <glyph glyph-name="uni044B" unicode="&#x44b;" horiz-adv-x="664" 
d="M192 -13q-75 0 -114.5 38t-39.5 108q0 34 6 64l68 314h125l-40 -182q41 27 91 27q52 0 83.5 -36.5t31.5 -96.5q0 -70 -28 -124t-76 -83t-107 -29zM420 0l100 511h131l-100 -511h-131zM234 258q-25 0 -54 -12l-13 -59q-5 -24 -5 -46q0 -56 42 -56q32 0 52.5 31t20.5 81
q0 61 -43 61z" />
    <glyph glyph-name="uni044C" unicode="&#x44c;" horiz-adv-x="445" 
d="M199 -13q-78 0 -119.5 37.5t-41.5 108.5q0 33 6 64l68 314h125l-40 -184q46 29 98 29q55 0 88.5 -36.5t33.5 -96.5q0 -70 -29 -124t-78.5 -83t-110.5 -29zM241 258q-29 0 -62 -13l-12 -58q-5 -24 -5 -46q0 -56 49 -56q35 0 57.5 31t22.5 81q0 61 -50 61z" />
    <glyph glyph-name="uni044D" unicode="&#x44d;" horiz-adv-x="427" 
d="M90 300h177q1 5 1 11v12q0 48 -22 73.5t-62 25.5q-42 0 -88 -26l-34 80q63 48 148 48q87 0 136.5 -54.5t49.5 -149.5q0 -98 -40.5 -174t-108 -117.5t-150.5 -41.5q-54 0 -95 27l17 90q33 -15 62 -15q63 0 107 32.5t64 93.5h-179z" />
    <glyph glyph-name="uni044E" unicode="&#x44e;" horiz-adv-x="696" 
d="M426 -13q-77 0 -120 51t-43 142q0 19 1 30h-86l-41 -210h-123l99 511h123l-39 -201h85q19 67 51.5 115.5t75.5 73.5t94 25q77 0 120 -51t43 -142q0 -66 -20 -133.5t-52.5 -115t-75 -71.5t-92.5 -24zM429 87q34 0 58.5 38.5t38.5 103.5t14 121q0 74 -44 74
q-34 0 -58.5 -38.5t-38.5 -103.5t-14 -121q0 -74 44 -74z" />
    <glyph glyph-name="uni044F" unicode="&#x44f;" horiz-adv-x="466" 
d="M134 220q-28 18 -43 46.5t-15 63.5q0 89 55 141.5t150 52.5q84 0 172 -24l-97 -500h-123l38 198h-34l-131 -198h-141zM202 335q0 -58 51 -58h33l29 147q-10 1 -19.5 1.5t-18.5 0.5q-36 0 -55.5 -24t-19.5 -67z" />
    <glyph glyph-name="uni0450" unicode="&#x450;" horiz-adv-x="427" 
d="M355 46q-86 -59 -185 -59q-69 0 -106 45t-37 128q0 106 36.5 189.5t97.5 129t134 45.5q55 0 89 -32.5t34 -85.5q0 -84 -57 -140.5t-169 -84.5l-45 -12q1 -48 15 -65t51 -17q28 0 59 9.5t59 27.5zM273 432q-25 0 -51 -24t-44 -64.5t-26 -91.5l46 14q52 15 81 47.5t29 75.5
t-35 43zM235 600l-82 167h136l50 -167h-104z" />
    <glyph glyph-name="uni0451" unicode="&#x451;" horiz-adv-x="427" 
d="M355 46q-86 -59 -185 -59q-69 0 -106 45t-37 128q0 106 36.5 189.5t97.5 129t134 45.5q55 0 89 -32.5t34 -85.5q0 -84 -57 -140.5t-169 -84.5l-45 -12q1 -48 15 -65t51 -17q28 0 59 9.5t59 27.5zM273 432q-25 0 -51 -24t-44 -64.5t-26 -91.5l46 14q52 15 81 47.5t29 75.5
t-35 43zM204 589q-30 0 -48 16.5t-18 43.5q0 33 22.5 55.5t55.5 22.5q30 0 48 -16.5t18 -43.5q0 -33 -22.5 -55.5t-55.5 -22.5zM402 589q-30 0 -48 16.5t-18 43.5q0 33 22.5 55.5t55.5 22.5q30 0 48 -16.5t18 -43.5q0 -33 -22.5 -55.5t-55.5 -22.5z" />
    <glyph glyph-name="uni0452" unicode="&#x452;" horiz-adv-x="520" 
d="M197 -218q-18 0 -36 4.5t-27 11.5l17 88q15 -4 39 -4q39 0 73.5 57t53.5 144.5t19 182.5q0 50 -7.5 72t-24.5 22q-36 0 -86 -63l-58 -297h-132l108 554h-69l17 84h68l20 102h132l-20 -102h115l-17 -84h-114l-33 -166q59 74 120 74q53 0 81.5 -44.5t28.5 -128.5
q0 -147 -36.5 -263.5t-97.5 -180t-134 -63.5z" />
    <glyph glyph-name="uni0453" unicode="&#x453;" horiz-adv-x="375" 
d="M372 394q0 -113 -128 -168l-54 -23q-38 -17 -53.5 -33t-15.5 -39q0 -47 67 -47q46 0 105 31l27 -79q-68 -49 -153 -49q-83 0 -127 34.5t-44 98.5q0 59 32 101t98 70l48 20q42 18 58.5 33t16.5 37t-17.5 34t-50.5 12q-44 0 -95 -24l-25 77q65 44 148 44q76 0 119.5 -35
t43.5 -95zM167 600l112 167h142l-145 -167h-109z" />
    <glyph glyph-name="uni0454" unicode="&#x454;" horiz-adv-x="403" 
d="M332 215h-172q-1 -7 -1 -14.5v-14.5q0 -97 68 -97q45 0 101 35l24 -80q-69 -57 -170 -57q-73 0 -113 48t-40 136q0 100 39 181.5t101.5 126.5t134.5 45q59 0 112 -28l-18 -92q-46 18 -85 18q-44 0 -80.5 -33t-55.5 -89h173z" />
    <glyph glyph-name="uni0455" unicode="&#x455;" horiz-adv-x="373" 
d="M128 228q-41 29 -59 58.5t-18 65.5q0 78 48.5 125t132.5 47q77 0 130 -32l-17 -89q-61 24 -102 24q-32 0 -49.5 -14t-17.5 -38q0 -20 9.5 -34t39.5 -35l30 -21q42 -30 59 -58t17 -66q0 -84 -51 -129t-144 -45q-37 0 -76.5 10.5t-69.5 28.5l18 89q70 -31 128 -31
q68 0 68 55q0 21 -10 35.5t-36 32.5z" />
    <glyph glyph-name="uni0456" unicode="&#x456;" horiz-adv-x="264" 
d="M116 511h132l-99 -511h-132zM204 594q-35 0 -55.5 18.5t-20.5 49.5q0 37 24 60.5t61 23.5q35 0 55.5 -18.5t20.5 -49.5q0 -37 -24 -60.5t-61 -23.5z" />
    <glyph glyph-name="uni0457" unicode="&#x457;" horiz-adv-x="264" 
d="M116 511h132l-99 -511h-132zM103 589q-30 0 -48 16.5t-18 43.5q0 33 22.5 55.5t55.5 22.5q30 0 48 -16.5t18 -43.5q0 -33 -22.5 -55.5t-55.5 -22.5zM301 589q-30 0 -48 16.5t-18 43.5q0 33 22.5 55.5t55.5 22.5q30 0 48 -16.5t18 -43.5q0 -33 -22.5 -55.5t-55.5 -22.5z
" />
    <glyph glyph-name="uni0458" unicode="&#x458;" horiz-adv-x="264" 
d="M-19 -218q-55 0 -95 24l16 84q24 -6 49 -6q23 0 37 19t22 61l106 547h132l-106 -545q-18 -93 -58 -138.5t-103 -45.5zM204 594q-35 0 -55.5 18.5t-20.5 49.5q0 37 24 60.5t61 23.5q35 0 55.5 -18.5t20.5 -49.5q0 -37 -24 -60.5t-61 -23.5z" />
    <glyph glyph-name="uni0459" unicode="&#x459;" horiz-adv-x="674" 
d="M191 169q-26 -76 -47 -112t-49 -53t-67 -17q-38 0 -68 16l18 93q6 -2 19 -2q26 0 43 17.5t31 57.5l54 156q25 74 52 117t63.5 62.5t93.5 19.5q28 0 69 -6t71 -15l-37 -173q43 26 92 26q53 0 85 -36.5t32 -96.5q0 -70 -28.5 -124t-76.5 -83t-108 -29q-75 0 -115.5 37.5
t-40.5 108.5q0 33 6 64l50 229h-9q-28 0 -44 -22.5t-41 -94.5zM475 258q-25 0 -56 -11l-13 -60q-5 -24 -5 -46q0 -56 44 -56q33 0 54 31t21 81q0 61 -45 61z" />
    <glyph glyph-name="uni045A" unicode="&#x45a;" horiz-adv-x="688" 
d="M300 210h-113l-41 -210h-132l99 511h132l-39 -201h115l44 201h125l-39 -181q43 26 92 26q53 0 85 -36.5t32 -96.5q0 -70 -28.5 -124t-76.5 -83t-108 -29q-75 0 -115.5 37.5t-40.5 108.5q0 33 6 64zM489 258q-25 0 -56 -11l-13 -60q-5 -24 -5 -46q0 -56 44 -56q33 0 54 31
t21 81q0 61 -45 61z" />
    <glyph glyph-name="uni045B" unicode="&#x45b;" horiz-adv-x="526" 
d="M284 0l41 211q15 75 15 105q0 44 -31 44q-34 0 -92 -65l-57 -295h-132l108 554h-69l17 84h68l20 102h132l-20 -102h115l-17 -84h-114l-33 -168q30 36 65 56t70 20q51 0 77 -32t26 -93q0 -43 -16 -127l-41 -210h-132z" />
    <glyph glyph-name="uni045C" unicode="&#x45c;" horiz-adv-x="481" 
d="M14 0l100 511h130l-44 -225l160 225h151l-199 -256l119 -255h-142l-99 235l-46 -235h-130zM249 600l112 167h142l-145 -167h-109z" />
    <glyph glyph-name="uni045D" unicode="&#x45d;" horiz-adv-x="505" 
d="M286 0v73q-27 -37 -66.5 -61.5t-72.5 -24.5q-52 0 -78.5 31.5t-26.5 90.5q0 52 16 130l53 272h132l-53 -273q-5 -26 -8.5 -44t-5 -32.5t-1.5 -28.5q0 -44 32 -44q16 0 38.5 16.5t44.5 44.5l70 361h132l-99 -511h-107zM250 600l-82 167h136l50 -167h-104z" />
    <glyph glyph-name="uni045E" unicode="&#x45e;" horiz-adv-x="420" 
d="M-60 -127q76 33 109 61t57 68l-58 509h135l15 -388q65 169 128 388h134q-28 -90 -73.5 -198t-94 -202t-87.5 -151q-53 -78 -104.5 -121.5t-108.5 -58.5zM250 596q-58 0 -93.5 30.5t-35.5 80.5q0 35 18 68h75q-7 -27 -7 -48q0 -28 14 -42.5t40 -14.5q67 0 85 78l6 27h81
q-3 -84 -51.5 -131.5t-131.5 -47.5z" />
    <glyph glyph-name="uni045F" unicode="&#x45f;" horiz-adv-x="505" 
d="M286 0v73q-27 -37 -66.5 -61.5t-72.5 -24.5q-52 0 -78.5 31.5t-26.5 90.5q0 52 16 130l53 272h132l-53 -273q-5 -26 -8.5 -44t-5 -32.5t-1.5 -28.5q0 -44 32 -44q16 0 38.5 16.5t44.5 44.5l70 361h132l-99 -511h-107zM89 -242l45 180h94l-26 -180h-113z" />
    <glyph glyph-name="uni0462" unicode="&#x462;" horiz-adv-x="547" 
d="M299 526l-24 -122h63q80 0 125.5 -43t45.5 -119q0 -73 -31 -128t-85.5 -84.5t-123.5 -29.5h-207l102 526h-116l20 101h116l20 103h135l-20 -103h160l-20 -101h-160zM256 305l-40 -206h51q49 0 78.5 36.5t29.5 95.5q0 36 -18 55t-52 19h-49z" />
    <glyph glyph-name="uni0463" unicode="&#x463;" horiz-adv-x="672" 
d="M439 399q0 -23 -6 -70q44 27 94 27q53 0 85 -36.5t32 -96.5q0 -70 -28.5 -124t-76.5 -83t-108 -29q-75 0 -115.5 37.5t-40.5 108.5q0 36 8 74l15 68q15 69 15 103q0 44 -24 44q-30 0 -71 -49l-72 -373h-132l99 511h107v-68q28 39 60.5 60t66.5 21q45 0 68.5 -31.5
t23.5 -93.5zM473 258q-25 0 -56 -11l-11 -51q-7 -33 -7 -55q0 -56 44 -56q33 0 54 31t21 81q0 61 -45 61z" />
    <glyph glyph-name="uni0472" unicode="&#x472;" horiz-adv-x="639" 
d="M293 -15q-110 0 -171 70t-61 195q0 89 26 178.5t69.5 152.5t100.5 95t125 32q110 0 171 -70t61 -195q0 -89 -26 -178.5t-69.5 -152.5t-100.5 -95t-125 -32zM294 96q59 0 102.5 53.5t67.5 152.5h-268q-4 -33 -4 -67q0 -68 26 -103.5t76 -35.5zM381 597q-57 0 -100 -49.5
t-67 -141.5h266q3 27 3 52q0 68 -26 103.5t-76 35.5z" />
    <glyph glyph-name="uni0473" unicode="&#x473;" horiz-adv-x="472" 
d="M201 -13q-80 0 -125 52.5t-45 144.5q0 87 32.5 170t86 126.5t122.5 43.5q80 0 125 -52.5t45 -144.5q0 -87 -32.5 -170t-86 -126.5t-122.5 -43.5zM203 89q33 0 58.5 32.5t41.5 94.5h-148q-2 -19 -2 -49q0 -38 13 -58t37 -20zM270 422q-67 0 -100 -125h147q3 26 3 47
q0 38 -13 58t-37 20z" />
    <glyph glyph-name="uni0474" unicode="&#x474;" horiz-adv-x="568" 
d="M146 0l-54 693h145l10 -544l155 395q23 58 48.5 92t59 50t82.5 16q34 0 58 -11l-21 -107q-10 2 -27 2q-25 0 -39 -12.5t-30 -47.5l-242 -526h-145z" />
    <glyph glyph-name="uni0475" unicode="&#x475;" horiz-adv-x="471" 
d="M106 0l-52 511h135l8 -389l92 246q22 60 43 92.5t48.5 46.5t72.5 14q34 0 62 -13l-19 -98q-12 3 -26 3q-20 0 -33.5 -12t-28.5 -43l-178 -358h-124z" />
    <glyph glyph-name="uni0490" unicode="&#x490;" horiz-adv-x="424" 
d="M18 0l135 693h232l26 135h118l-48 -244h-214l-114 -584h-135z" />
    <glyph glyph-name="uni0491" unicode="&#x491;" horiz-adv-x="370" 
d="M14 0l99 511h183l26 131h113l-47 -237h-163l-79 -405h-132z" />
    <glyph glyph-name="Wgrave" unicode="&#x1e80;" horiz-adv-x="763" 
d="M407 0l28 530l-177 -530h-149l-10 693h142l-26 -546l174 518h147l-28 -516l182 544h145l-279 -693h-149zM416 769l-88 128h133l62 -128h-107z" />
    <glyph glyph-name="wgrave" unicode="&#x1e81;" horiz-adv-x="639" 
d="M337 0l7 395l-128 -395h-125l-41 511h131l3 -374l122 374h124l-8 -410q66 179 123 410h132q-22 -87 -86 -238t-128 -273h-126zM308 600l-82 167h136l50 -167h-104z" />
    <glyph glyph-name="Wacute" unicode="&#x1e82;" horiz-adv-x="763" 
d="M407 0l28 530l-177 -530h-149l-10 693h142l-26 -546l174 518h147l-28 -516l182 544h145l-279 -693h-149zM526 769h-111l108 128h138z" />
    <glyph glyph-name="wacute" unicode="&#x1e83;" horiz-adv-x="639" 
d="M337 0l7 395l-128 -395h-125l-41 511h131l3 -374l122 374h124l-8 -410q66 179 123 410h132q-22 -87 -86 -238t-128 -273h-126zM306 600l112 167h142l-145 -167h-109z" />
    <glyph glyph-name="Wdieresis" unicode="&#x1e84;" horiz-adv-x="763" 
d="M407 0l28 530l-177 -530h-149l-10 693h142l-26 -546l174 518h147l-28 -516l182 544h145l-279 -693h-149zM384 772q-30 0 -48.5 16.5t-18.5 44.5q0 34 23 56.5t56 22.5q30 0 48.5 -16.5t18.5 -44.5q0 -34 -23 -56.5t-56 -22.5zM582 772q-30 0 -48.5 16.5t-18.5 44.5
q0 34 23 56.5t56 22.5q30 0 48.5 -16.5t18.5 -44.5q0 -34 -23 -56.5t-56 -22.5z" />
    <glyph glyph-name="wdieresis" unicode="&#x1e85;" horiz-adv-x="639" 
d="M337 0l7 395l-128 -395h-125l-41 511h131l3 -374l122 374h124l-8 -410q66 179 123 410h132q-22 -87 -86 -238t-128 -273h-126zM277 589q-30 0 -48 16.5t-18 43.5q0 33 22.5 55.5t55.5 22.5q30 0 48 -16.5t18 -43.5q0 -33 -22.5 -55.5t-55.5 -22.5zM475 589
q-30 0 -48 16.5t-18 43.5q0 33 22.5 55.5t55.5 22.5q30 0 48 -16.5t18 -43.5q0 -33 -22.5 -55.5t-55.5 -22.5z" />
    <glyph glyph-name="uni1E9E" unicode="&#x1e9e;" horiz-adv-x="592" 
d="M213 109q28 -10 47 -14t42 -4q55 0 87.5 35.5t32.5 94.5q0 39 -21.5 59.5t-61.5 20.5q-27 0 -54 -5l17 85l143 208q-30 11 -71 11q-53 0 -88 -37.5t-49 -110.5l-88 -452h-135l86 441q25 130 97 198.5t184 68.5q108 0 181 -56l-19 -97l-114 -165h5q52 0 85 -43.5
t33 -111.5q0 -73 -31.5 -130t-84.5 -88.5t-119 -31.5q-69 0 -123 27z" />
    <glyph glyph-name="Ygrave" unicode="&#x1ef2;" horiz-adv-x="508" 
d="M136 0l50 256l-92 437h139l41 -329l165 329h145l-265 -438l-50 -255h-133zM286 769l-88 128h133l62 -128h-107z" />
    <glyph glyph-name="ygrave" unicode="&#x1ef3;" horiz-adv-x="420" 
d="M-60 -127q76 33 109 61t57 68l-58 509h135l15 -388q65 169 128 388h134q-28 -90 -73.5 -198t-94 -202t-87.5 -151q-53 -78 -104.5 -121.5t-108.5 -58.5zM194 600l-82 167h136l50 -167h-104z" />
    <glyph glyph-name="uni2000" unicode="&#x2000;" horiz-adv-x="500" 
 />
    <glyph glyph-name="uni2001" unicode="&#x2001;" horiz-adv-x="1000" 
 />
    <glyph glyph-name="uni2002" unicode="&#x2002;" horiz-adv-x="500" 
 />
    <glyph glyph-name="uni2003" unicode="&#x2003;" horiz-adv-x="1000" 
 />
    <glyph glyph-name="uni2004" unicode="&#x2004;" horiz-adv-x="333" 
 />
    <glyph glyph-name="uni2005" unicode="&#x2005;" horiz-adv-x="250" 
 />
    <glyph glyph-name="uni2006" unicode="&#x2006;" horiz-adv-x="167" 
 />
    <glyph glyph-name="uni2007" unicode="&#x2007;" 
 />
    <glyph glyph-name="uni2008" unicode="&#x2008;" horiz-adv-x="248" 
 />
    <glyph glyph-name="uni2009" unicode="&#x2009;" horiz-adv-x="200" 
 />
    <glyph glyph-name="uni200A" unicode="&#x200a;" horiz-adv-x="62" 
 />
    <glyph glyph-name="uni200B" unicode="&#x200b;" horiz-adv-x="0" 
 />
    <glyph glyph-name="uni2010" unicode="&#x2010;" horiz-adv-x="340" 
d="M24 203l21 110h272l-21 -110h-272z" />
    <glyph glyph-name="uni2012" unicode="&#x2012;" 
d="M51 296l20 104h400l-20 -104h-400z" />
    <glyph glyph-name="endash" unicode="&#x2013;" horiz-adv-x="400" 
d="M-10 206l20 104h400l-20 -104h-400z" />
    <glyph glyph-name="emdash" unicode="&#x2014;" horiz-adv-x="800" 
d="M-10 206l20 104h800l-20 -104h-800z" />
    <glyph glyph-name="uni2015" unicode="&#x2015;" horiz-adv-x="800" 
d="M-10 206l20 104h800l-20 -104h-800z" />
    <glyph glyph-name="quoteleft" unicode="&#x2018;" horiz-adv-x="248" 
d="M192 410h-54q-58 0 -58 45q0 13 6 28t24 47l94 163h88z" />
    <glyph glyph-name="quoteright" unicode="&#x2019;" horiz-adv-x="248" 
d="M71 410l100 283h54q58 0 58 -45q0 -13 -6 -28t-24 -47l-94 -163h-88z" />
    <glyph glyph-name="quotesinglbase" unicode="&#x201a;" horiz-adv-x="248" 
d="M-38 -150l100 283h54q58 0 58 -45q0 -13 -6 -28t-24 -47l-94 -163h-88z" />
    <glyph glyph-name="uni201B" unicode="&#x201b;" horiz-adv-x="248" 
d="M150 410l-22 157q-2 19 -4 35.5t-2 32.5q0 28 17.5 43t48.5 15h61l-18 -283h-81z" />
    <glyph glyph-name="quotedblleft" unicode="&#x201c;" horiz-adv-x="444" 
d="M192 410h-54q-58 0 -58 45q0 13 6 28t24 47l94 163h88zM388 410h-54q-58 0 -58 45q0 13 6 28t24 47l94 163h88z" />
    <glyph glyph-name="quotedblright" unicode="&#x201d;" horiz-adv-x="444" 
d="M71 410l100 283h54q58 0 58 -45q0 -13 -6 -28t-24 -47l-94 -163h-88zM267 410l100 283h54q58 0 58 -45q0 -13 -6 -28t-24 -47l-94 -163h-88z" />
    <glyph glyph-name="quotedblbase" unicode="&#x201e;" horiz-adv-x="444" 
d="M-38 -150l100 283h54q58 0 58 -45q0 -13 -6 -28t-24 -47l-94 -163h-88zM158 -150l100 283h54q58 0 58 -45q0 -13 -6 -28t-24 -47l-94 -163h-88z" />
    <glyph glyph-name="uni201F" unicode="&#x201f;" horiz-adv-x="437" 
d="M150 410l-22 157q-2 19 -4 35.5t-2 32.5q0 28 17.5 43t48.5 15h61l-18 -283h-81zM339 410l-22 157q-2 19 -4 35.5t-2 32.5q0 28 17.5 43t48.5 15h61l-18 -283h-81z" />
    <glyph glyph-name="dagger" unicode="&#x2020;" horiz-adv-x="441" 
d="M81 -126l115 547l-143 -7l22 110l141 -7l33 223h135l-54 -223l142 7l-21 -110l-142 7l-93 -547h-135z" />
    <glyph glyph-name="daggerdbl" unicode="&#x2021;" horiz-adv-x="441" 
d="M82 -126l54 223l-142 -7l21 110l142 -7l10 114l29 114l-143 -7l22 110l141 -7l33 223h135l-54 -223l142 7l-21 -110l-142 7l-10 -114l-29 -114l143 7l-22 -110l-141 7l-33 -223h-135z" />
    <glyph glyph-name="bullet" unicode="&#x2022;" horiz-adv-x="332" 
d="M152 111q-57 0 -91 34.5t-34 90.5q0 71 44 120t109 49q57 0 91 -34.5t34 -90.5q0 -71 -44 -120t-109 -49z" />
    <glyph glyph-name="ellipsis" unicode="&#x2026;" horiz-adv-x="793" 
d="M89 -13q-34 0 -55 20t-21 53q0 40 26 67.5t64 27.5q34 0 55 -20t21 -53q0 -40 -26 -67.5t-64 -27.5zM354 -13q-34 0 -55 20t-21 53q0 40 26 67.5t64 27.5q34 0 55 -20t21 -53q0 -40 -26 -67.5t-64 -27.5zM619 -13q-34 0 -55 20t-21 53q0 40 26 67.5t64 27.5q34 0 55 -20
t21 -53q0 -40 -26 -67.5t-64 -27.5z" />
    <glyph glyph-name="perthousand" unicode="&#x2030;" horiz-adv-x="1122" 
d="M168 0l389 693h100l-389 -693h-100zM634 327q-23 0 -40 -30.5t-27 -80.5t-10 -90q0 -57 28 -57q23 0 40 30.5t27 80.5t10 90q0 57 -28 57zM579 -8q-55 0 -84.5 37t-29.5 106q0 68 24 134t62.5 100.5t88.5 34.5q55 0 84.5 -37t29.5 -106q0 -68 -24 -134t-62.5 -100.5
t-88.5 -34.5zM966 327q-23 0 -40 -30.5t-27 -80.5t-10 -90q0 -57 28 -57q23 0 40 30.5t27 80.5t10 90q0 57 -28 57zM911 -8q-55 0 -84.5 37t-29.5 106q0 68 24 134t62.5 100.5t88.5 34.5q55 0 84.5 -37t29.5 -106q0 -68 -24 -134t-62.5 -100.5t-88.5 -34.5zM240 624
q-23 0 -40 -30.5t-27 -80.5t-10 -90q0 -57 28 -57q23 0 40 30.5t27 80.5t10 90q0 57 -28 57zM185 289q-55 0 -84.5 37t-29.5 106q0 68 24 134t62.5 100.5t88.5 34.5q55 0 84.5 -37t29.5 -106q0 -68 -24 -134t-62.5 -100.5t-88.5 -34.5z" />
    <glyph glyph-name="minute" unicode="&#x2032;" horiz-adv-x="256" 
d="M84 473l94 217q36 19 78 19q38 0 63 -19l-140 -217h-95z" />
    <glyph glyph-name="second" unicode="&#x2033;" horiz-adv-x="457" 
d="M84 473l94 217q36 19 78 19q38 0 63 -19l-140 -217h-95zM285 473l94 217q36 19 78 19q38 0 63 -19l-140 -217h-95z" />
    <glyph glyph-name="guilsinglleft" unicode="&#x2039;" horiz-adv-x="313" 
d="M117 51l-82 208l151 208h130l-157 -215l76 -201h-118z" />
    <glyph glyph-name="guilsinglright" unicode="&#x203a;" horiz-adv-x="313" 
d="M198 467l82 -208l-151 -208h-130l156 214l-75 202h118z" />
    <glyph glyph-name="uni203D" unicode="&#x203d;" horiz-adv-x="396" 
d="M426 551q0 -72 -55 -132.5t-160 -104.5l-20 -85h-99l45 288q28 16 63 16q29 0 53 -16l-23 -99q68 53 68 111q0 73 -76 73q-51 0 -119 -39l-13 90q75 55 171 55q74 0 119.5 -43t45.5 -114zM110 -13q-34 0 -55 20t-21 53q0 40 26 67.5t64 27.5q34 0 55 -20t21 -53
q0 -40 -26 -67.5t-64 -27.5z" />
    <glyph glyph-name="fraction" unicode="&#x2044;" horiz-adv-x="118" 
d="M-168 0l389 693h100l-389 -693h-100z" />
    <glyph glyph-name="uni2052" unicode="&#x2052;" 
d="M-36 -144l449 898h131l-449 -898h-131zM329 -150q-34 0 -54.5 20t-20.5 53q0 40 25.5 67.5t63.5 27.5q34 0 54.5 -20t20.5 -53q0 -40 -25.5 -67.5t-63.5 -27.5zM165 592q-34 0 -54.5 20t-20.5 53q0 40 25.5 67.5t63.5 27.5q34 0 54.5 -20t20.5 -53q0 -40 -25.5 -67.5
t-63.5 -27.5z" />
    <glyph glyph-name="uni2070" unicode="&#x2070;" horiz-adv-x="336" 
d="M258 717q-23 0 -40 -30.5t-27 -80.5t-10 -90q0 -57 28 -57q23 0 40 30.5t27 80.5t10 90q0 57 -28 57zM203 382q-55 0 -84.5 37t-29.5 106q0 68 24 134t62.5 100.5t88.5 34.5q55 0 84.5 -37t29.5 -106q0 -68 -24 -134t-62.5 -100.5t-88.5 -34.5z" />
    <glyph glyph-name="uni2074" unicode="&#x2074;" horiz-adv-x="336" 
d="M224 390l15 78h-170l14 72l209 246h88l-48 -245h42l-14 -73h-42l-15 -78h-79zM253 541l27 139l-117 -139h90z" />
    <glyph glyph-name="uni2075" unicode="&#x2075;" horiz-adv-x="336" 
d="M240 706l-21 -80q8 1 16.5 1.5t16.5 0.5q44 0 70.5 -26.5t26.5 -70.5q0 -66 -44.5 -107.5t-114.5 -41.5q-56 0 -103 24l14 70q41 -17 82 -17q35 0 55.5 17t20.5 45q0 43 -67 43q-37 0 -67 -5l10 49l45 178h202l-16 -80h-126z" />
    <glyph glyph-name="uni2076" unicode="&#x2076;" horiz-adv-x="336" 
d="M373 708q-29 13 -61 13q-42 0 -73.5 -29t-46.5 -81q42 25 79 25q41 0 64 -25.5t23 -70.5t-20 -81.5t-53.5 -56.5t-72.5 -20q-55 0 -86.5 36t-31.5 99q0 79 30 143t79 99t107 35q39 0 76 -19zM233 567q-23 0 -51 -13q-1 -7 -1 -14v-14q0 -71 39 -71q21 0 35.5 20.5
t14.5 50.5q0 41 -37 41z" />
    <glyph glyph-name="uni2077" unicode="&#x2077;" horiz-adv-x="336" 
d="M99 390l189 314h-160l16 82h255l-15 -77l-182 -319h-103z" />
    <glyph glyph-name="uni2078" unicode="&#x2078;" horiz-adv-x="336" 
d="M87 479q0 37 26 66.5t73 46.5q-24 22 -34.5 42.5t-10.5 46.5q0 32 18.5 58t49.5 40.5t67 14.5q49 0 78.5 -25.5t29.5 -68.5q0 -36 -22 -65.5t-63 -47.5q32 -26 44.5 -45.5t12.5 -44.5q0 -49 -42 -82t-106 -33q-54 0 -87.5 27t-33.5 70zM225 560q-23 -11 -36.5 -30
t-13.5 -41q0 -20 11 -31t30 -11q22 0 37 14.5t15 36.5q0 17 -6.5 28t-25.5 26zM225 676q0 -19 7 -30.5t24 -24.5l4 -3q40 23 40 71q0 19 -8 29.5t-23 10.5q-20 0 -32 -15t-12 -38z" />
    <glyph glyph-name="uni2079" unicode="&#x2079;" horiz-adv-x="336" 
d="M167 455q36 0 63.5 26.5t41.5 73.5q-34 -21 -72 -21q-41 0 -65 28.5t-24 77.5q0 44 19.5 79.5t52.5 55t72 19.5q55 0 85.5 -37t30.5 -104q0 -80 -27.5 -142t-74 -95.5t-104.5 -33.5q-44 0 -81 23l13 65q30 -15 70 -15zM239 602q21 0 43 12q1 8 1.5 16.5t0.5 17.5
q0 73 -38 73q-20 0 -33.5 -20.5t-13.5 -51.5q0 -47 40 -47z" />
    <glyph glyph-name="uni207A" unicode="&#x207a;" horiz-adv-x="336" 
d="M265 546l-19 -99h-81l19 99h-88l15 77h88l20 99h81l-20 -99h88l-15 -77h-88z" />
    <glyph glyph-name="uni207B" unicode="&#x207b;" horiz-adv-x="336" 
d="M96 546l15 77h257l-15 -77h-257z" />
    <glyph glyph-name="uni207C" unicode="&#x207c;" horiz-adv-x="336" 
d="M81 469l15 77h257l-15 -77h-257zM111 623l15 77h257l-15 -77h-257z" />
    <glyph glyph-name="uni207D" unicode="&#x207d;" horiz-adv-x="204" 
d="M124 333q-30 82 -30 159q0 192 119 350h95q-58 -81 -87.5 -172t-29.5 -186q0 -84 18 -151h-85z" />
    <glyph glyph-name="uni207E" unicode="&#x207e;" horiz-adv-x="204" 
d="M209 842q30 -82 30 -159q0 -192 -119 -350h-95q58 81 87.5 172t29.5 186q0 84 -18 151h85z" />
    <glyph glyph-name="uni207F" unicode="&#x207f;" horiz-adv-x="369" 
d="M262 390l42 210q11 56 11 77q0 34 -24 34q-17 0 -37 -14t-37 -36l-52 -271h-98l77 396h80l3 -60q20 32 48.5 50t58.5 18q79 0 79 -98q0 -37 -12 -97l-41 -209h-98z" />
    <glyph glyph-name="uni2080" unicode="&#x2080;" horiz-adv-x="336" 
d="M162 223q-23 0 -40 -30.5t-27 -80.5t-10 -90q0 -57 28 -57q23 0 40 30.5t27 80.5t10 90q0 57 -28 57zM107 -112q-55 0 -84.5 37t-29.5 106q0 68 24 134t62.5 100.5t88.5 34.5q55 0 84.5 -37t29.5 -106q0 -68 -24 -134t-62.5 -100.5t-88.5 -34.5z" />
    <glyph glyph-name="uni2081" unicode="&#x2081;" horiz-adv-x="336" 
d="M86 -104l57 295l-101 -39l16 84l113 56h83l-77 -396h-91z" />
    <glyph glyph-name="uni2082" unicode="&#x2082;" horiz-adv-x="336" 
d="M273 203q0 -46 -34.5 -94.5t-126.5 -130.5h131l-16 -82h-247l13 66q74 66 112.5 105t55 64t16.5 48q0 20 -11.5 31t-33.5 11q-38 0 -79 -32l-15 70q59 41 124 41q52 0 81.5 -26t29.5 -71z" />
    <glyph glyph-name="uni2083" unicode="&#x2083;" horiz-adv-x="336" 
d="M168 123q39 -2 60.5 -26t21.5 -65q0 -63 -45.5 -103.5t-115.5 -40.5q-55 0 -104 24l14 70q44 -17 83 -17q36 0 57 17t21 44q0 41 -60 41q-22 0 -43 -3l9 48l101 100h-123l16 80h222l-14 -71z" />
    <glyph glyph-name="uni2084" unicode="&#x2084;" horiz-adv-x="336" 
d="M128 -104l15 78h-170l14 72l209 246h88l-48 -245h42l-14 -73h-42l-15 -78h-79zM157 47l27 139l-117 -139h90z" />
    <glyph glyph-name="uni2085" unicode="&#x2085;" horiz-adv-x="336" 
d="M144 212l-21 -80q8 1 16.5 1.5t16.5 0.5q44 0 70.5 -26.5t26.5 -70.5q0 -66 -44.5 -107.5t-114.5 -41.5q-56 0 -103 24l14 70q41 -17 82 -17q35 0 55.5 17t20.5 45q0 43 -67 43q-37 0 -67 -5l10 49l45 178h202l-16 -80h-126z" />
    <glyph glyph-name="uni2086" unicode="&#x2086;" horiz-adv-x="336" 
d="M277 214q-29 13 -61 13q-42 0 -73.5 -29t-46.5 -81q42 25 79 25q41 0 64 -25.5t23 -70.5t-20 -81.5t-53.5 -56.5t-72.5 -20q-55 0 -86.5 36t-31.5 99q0 79 30 143t79 99t107 35q39 0 76 -19zM137 73q-23 0 -51 -13q-1 -7 -1 -14v-14q0 -71 39 -71q21 0 35.5 20.5
t14.5 50.5q0 41 -37 41z" />
    <glyph glyph-name="uni2087" unicode="&#x2087;" horiz-adv-x="336" 
d="M3 -104l189 314h-160l16 82h255l-15 -77l-182 -319h-103z" />
    <glyph glyph-name="uni2088" unicode="&#x2088;" horiz-adv-x="336" 
d="M-9 -15q0 37 26 66.5t73 46.5q-24 22 -34.5 42.5t-10.5 46.5q0 32 18.5 58t49.5 40.5t67 14.5q49 0 78.5 -25.5t29.5 -68.5q0 -36 -22 -65.5t-63 -47.5q32 -26 44.5 -45.5t12.5 -44.5q0 -49 -42 -82t-106 -33q-54 0 -87.5 27t-33.5 70zM129 66q-23 -11 -36.5 -30
t-13.5 -41q0 -20 11 -31t30 -11q22 0 37 14.5t15 36.5q0 17 -6.5 28t-25.5 26zM129 182q0 -19 7 -30.5t24 -24.5l4 -3q40 23 40 71q0 19 -8 29.5t-23 10.5q-20 0 -32 -15t-12 -38z" />
    <glyph glyph-name="uni2089" unicode="&#x2089;" horiz-adv-x="336" 
d="M71 -39q36 0 63.5 26.5t41.5 73.5q-34 -21 -72 -21q-41 0 -65 28.5t-24 77.5q0 44 19.5 79.5t52.5 55t72 19.5q55 0 85.5 -37t30.5 -104q0 -80 -27.5 -142t-74 -95.5t-104.5 -33.5q-44 0 -81 23l13 65q30 -15 70 -15zM143 108q21 0 43 12q1 8 1.5 16.5t0.5 17.5
q0 73 -38 73q-20 0 -33.5 -20.5t-13.5 -51.5q0 -47 40 -47z" />
    <glyph glyph-name="uni208A" unicode="&#x208a;" horiz-adv-x="336" 
d="M169 52l-19 -99h-81l19 99h-88l15 77h88l20 99h81l-20 -99h88l-15 -77h-88z" />
    <glyph glyph-name="uni208B" unicode="&#x208b;" horiz-adv-x="336" 
d="M0 52l15 77h257l-15 -77h-257z" />
    <glyph glyph-name="uni208C" unicode="&#x208c;" horiz-adv-x="336" 
d="M-15 -25l15 77h257l-15 -77h-257zM15 129l15 77h257l-15 -77h-257z" />
    <glyph glyph-name="uni208D" unicode="&#x208d;" horiz-adv-x="204" 
d="M28 -161q-30 82 -30 159q0 192 119 350h95q-58 -81 -87.5 -172t-29.5 -186q0 -84 18 -151h-85z" />
    <glyph glyph-name="uni208E" unicode="&#x208e;" horiz-adv-x="204" 
d="M113 348q30 -82 30 -159q0 -192 -119 -350h-95q58 81 87.5 172t29.5 186q0 84 -18 151h85z" />
    <glyph glyph-name="Euro" unicode="&#x20ac;" 
d="M232 225q5 -67 29.5 -97.5t74.5 -30.5q53 0 117 41l23 -92q-39 -28 -83 -43.5t-87 -15.5q-96 0 -152 62t-64 176h-80l15 79h65q3 41 12 80h-61l15 79h70q28 74 74.5 128.5t103 83t117.5 28.5q36 0 65 -8t66 -27l-20 -101q-55 27 -105 27q-32 0 -61.5 -16t-54.5 -45.5
t-44 -69.5h187l-37 -79h-175q-9 -39 -12 -80h158l-37 -79h-119z" />
    <glyph glyph-name="uni20B9" unicode="&#x20b9;" 
d="M189 0l-133 262l17 86h100q46 0 79 23t47 65h-209l16 81h199q-4 45 -27 66.5t-66 21.5h-89l17 88h410l-36 -88h-133q34 -29 40 -88h67l-33 -81h-40q-17 -77 -74.5 -121.5t-145.5 -48.5l148 -266h-154z" />
    <glyph glyph-name="uni20BA" unicode="&#x20ba;" 
d="M233 291l-35 -183h20q125 0 144 169l2 18h118l-2 -18q-10 -87 -47 -149.5t-96.5 -95t-135.5 -32.5h-155l41 214l-89 -47l17 85l89 46l18 92l-90 -47l17 85l89 47l43 218h131l-28 -142l125 66l-16 -84l-125 -66l-18 -92l125 66l-16 -84z" />
    <glyph glyph-name="uni2105" unicode="&#x2105;" horiz-adv-x="809" 
d="M588 -8q-63 0 -98 40t-35 111q0 67 26 130.5t68 97t96 33.5q63 0 98 -40t35 -111q0 -67 -26 -130.5t-68 -97t-96 -33.5zM644 327q-29 0 -50 -28t-33 -76t-12 -93q0 -61 40 -61q29 0 50 28t33 76t12 93q0 61 -40 61zM311 332q-50 -43 -129 -43q-56 0 -86 37t-30 104
q0 77 29.5 139.5t77 97t102.5 34.5q45 0 85 -21l-14 -70q-36 14 -66 14q-35 0 -62 -25t-41.5 -66.5t-14.5 -90.5q0 -76 54 -76q33 0 77 27zM166 0l389 693h100l-389 -693h-100z" />
    <glyph glyph-name="uni2113" unicode="&#x2113;" horiz-adv-x="379" 
d="M16 209l70 51v309q0 89 36.5 137t105.5 48t106 -49t37 -141q0 -96 -44.5 -181.5t-124.5 -142.5v-86q0 -38 13.5 -56t42.5 -18q30 0 75 21v-89q-49 -29 -114 -29q-63 0 -98 41t-35 116v18l-70 -49v100zM202 348q26 30 42 91.5t16 133.5q0 44 -6.5 64t-21.5 20
q-17 0 -23.5 -17.5t-6.5 -63.5v-228z" />
    <glyph glyph-name="uni2116" unicode="&#x2116;" horiz-adv-x="859" 
d="M296 0l-76 521l-101 -521h-100l135 693h141l75 -522l102 522h100l-135 -693h-141zM716 330q-56 0 -88 37t-32 102q0 62 23 120.5t61 89.5t87 31q56 0 88 -36.5t32 -102.5q0 -62 -23 -120.5t-61 -89.5t-87 -31zM764 638q-24 0 -41.5 -26t-27.5 -70t-10 -85q0 -55 34 -55
q24 0 41.5 26t27.5 70t10 85q0 55 -34 55zM820 273l-14 -71h-254l14 71h254z" />
    <glyph glyph-name="uni2117" unicode="&#x2117;" horiz-adv-x="680" 
d="M358 -7q-96 0 -169.5 46t-113.5 125.5t-40 180.5q0 105 42.5 185.5t115.5 123.5t165 43q96 0 169.5 -46t113.5 -125.5t40 -180.5q0 -105 -42.5 -185.5t-115.5 -123.5t-165 -43zM358 68q73 0 126.5 35t82 97.5t28.5 144.5q0 86 -30 148.5t-83.5 95.5t-123.5 33
q-73 0 -126.5 -35t-82 -97.5t-28.5 -144.5q0 -86 30 -148.5t83.5 -95.5t123.5 -33zM253 145v400h123q57 0 90 -35.5t33 -97.5q0 -61 -33 -96.5t-90 -35.5h-32v-135h-91zM344 350h22q19 0 29.5 16t10.5 43q0 32 -10.5 49.5t-29.5 17.5h-22v-126z" />
    <glyph glyph-name="trademark" unicode="&#x2122;" horiz-adv-x="705" 
d="M650 309v249l-48 -157h-80l-47 154v-246h-80v384h96l72 -208l72 208h95v-384h-80zM166 309v304h-93v80h278v-80h-93v-304h-92z" />
    <glyph glyph-name="uni2126" unicode="&#x2126;" horiz-adv-x="605" 
d="M216 0h-241l19 101h127q-31 48 -48 109.5t-17 121.5q0 111 41.5 197.5t112 132.5t158.5 46q107 0 168.5 -65.5t61.5 -177.5q0 -220 -166 -364h119l-19 -101h-249l23 103q71 65 112.5 160.5t41.5 196.5q0 67 -26 102t-76 35q-76 0 -119 -72t-43 -194q0 -141 42 -228z" />
    <glyph glyph-name="estimated" unicode="&#x212e;" horiz-adv-x="884" 
d="M767 124q-50 -63 -130.5 -98t-176.5 -35q-115 0 -203.5 46.5t-136 126.5t-47.5 180q0 105 52 187t139.5 126.5t194.5 44.5q115 0 203.5 -46.5t136.5 -126t48 -178.5v-15h-624q-6 0 -6 -6v-196q0 -12 9 -22q84 -96 234 -96q74 0 138 28t107 80h62zM698 358q6 0 6 6v193
q0 15 -9 25q-45 45 -107 70t-129 25q-146 0 -234 -98q-8 -10 -8 -25v-190q0 -6 6 -6h475z" />
    <glyph glyph-name="oneseventh" unicode="&#x2150;" horiz-adv-x="790" 
d="M146 0l389 693h100l-389 -693h-100zM485 0l189 314h-160l16 82h255l-15 -77l-182 -319h-103zM154 297l57 295l-101 -39l16 84l113 56h83l-77 -396h-91z" />
    <glyph glyph-name="oneninth" unicode="&#x2151;" horiz-adv-x="790" 
d="M157 0l389 693h100l-389 -693h-100zM553 65q36 0 63.5 26.5t41.5 73.5q-34 -21 -72 -21q-41 0 -65 28.5t-24 77.5q0 44 19.5 79.5t52.5 55t72 19.5q55 0 85.5 -37t30.5 -104q0 -80 -27.5 -142t-74 -95.5t-104.5 -33.5q-44 0 -81 23l13 65q30 -15 70 -15zM625 212
q21 0 43 12q1 8 1.5 16.5t0.5 17.5q0 73 -38 73q-20 0 -33.5 -20.5t-13.5 -51.5q0 -47 40 -47zM154 297l57 295l-101 -39l16 84l113 56h83l-77 -396h-91z" />
    <glyph glyph-name="onethird" unicode="&#x2153;" horiz-adv-x="790" 
d="M157 0l389 693h100l-389 -693h-100zM650 227q39 -2 60.5 -26t21.5 -65q0 -63 -45.5 -103.5t-115.5 -40.5q-55 0 -104 24l14 70q44 -17 83 -17q36 0 57 17t21 44q0 41 -60 41q-22 0 -43 -3l9 48l101 100h-123l16 80h222l-14 -71zM154 297l57 295l-101 -39l16 84l113 56h83
l-77 -396h-91z" />
    <glyph glyph-name="twothirds" unicode="&#x2154;" horiz-adv-x="790" 
d="M176 0l389 693h100l-389 -693h-100zM650 227q39 -2 60.5 -26t21.5 -65q0 -63 -45.5 -103.5t-115.5 -40.5q-55 0 -104 24l14 70q44 -17 83 -17q36 0 57 17t21 44q0 41 -60 41q-22 0 -43 -3l9 48l101 100h-123l16 80h222l-14 -71zM341 604q0 -46 -34.5 -94.5t-126.5 -130.5
h131l-16 -82h-247l13 66q74 66 112.5 105t55 64t16.5 48q0 20 -11.5 31t-33.5 11q-38 0 -79 -32l-15 70q59 41 124 41q52 0 81.5 -26t29.5 -71z" />
    <glyph glyph-name="onefifth" unicode="&#x2155;" horiz-adv-x="790" 
d="M164 0l389 693h100l-389 -693h-100zM626 316l-21 -80q8 1 16.5 1.5t16.5 0.5q44 0 70.5 -26.5t26.5 -70.5q0 -66 -44.5 -107.5t-114.5 -41.5q-56 0 -103 24l14 70q41 -17 82 -17q35 0 55.5 17t20.5 45q0 43 -67 43q-37 0 -67 -5l10 49l45 178h202l-16 -80h-126zM154 297
l57 295l-101 -39l16 84l113 56h83l-77 -396h-91z" />
    <glyph glyph-name="twofifths" unicode="&#x2156;" horiz-adv-x="790" 
d="M186 0l389 693h100l-389 -693h-100zM626 316l-21 -80q8 1 16.5 1.5t16.5 0.5q44 0 70.5 -26.5t26.5 -70.5q0 -66 -44.5 -107.5t-114.5 -41.5q-56 0 -103 24l14 70q41 -17 82 -17q35 0 55.5 17t20.5 45q0 43 -67 43q-37 0 -67 -5l10 49l45 178h202l-16 -80h-126zM341 604
q0 -46 -34.5 -94.5t-126.5 -130.5h131l-16 -82h-247l13 66q74 66 112.5 105t55 64t16.5 48q0 20 -11.5 31t-33.5 11q-38 0 -79 -32l-15 70q59 41 124 41q52 0 81.5 -26t29.5 -71z" />
    <glyph glyph-name="threefifths" unicode="&#x2157;" horiz-adv-x="790" 
d="M175 0l389 693h100l-389 -693h-100zM626 316l-21 -80q8 1 16.5 1.5t16.5 0.5q44 0 70.5 -26.5t26.5 -70.5q0 -66 -44.5 -107.5t-114.5 -41.5q-56 0 -103 24l14 70q41 -17 82 -17q35 0 55.5 17t20.5 45q0 43 -67 43q-37 0 -67 -5l10 49l45 178h202l-16 -80h-126zM236 524
q39 -2 60.5 -26t21.5 -65q0 -63 -45.5 -103.5t-115.5 -40.5q-55 0 -104 24l14 70q44 -17 83 -17q36 0 57 17t21 44q0 41 -60 41q-22 0 -43 -3l9 48l101 100h-123l16 80h222l-14 -71z" />
    <glyph glyph-name="fourfifths" unicode="&#x2158;" horiz-adv-x="790" 
d="M190 0l389 693h100l-389 -693h-100zM626 316l-21 -80q8 1 16.5 1.5t16.5 0.5q44 0 70.5 -26.5t26.5 -70.5q0 -66 -44.5 -107.5t-114.5 -41.5q-56 0 -103 24l14 70q41 -17 82 -17q35 0 55.5 17t20.5 45q0 43 -67 43q-37 0 -67 -5l10 49l45 178h202l-16 -80h-126zM196 297
l15 78h-170l14 72l209 246h88l-48 -245h42l-14 -73h-42l-15 -78h-79zM225 448l27 139l-117 -139h90z" />
    <glyph glyph-name="onesixth" unicode="&#x2159;" horiz-adv-x="790" 
d="M166 0l389 693h100l-389 -693h-100zM759 318q-29 13 -61 13q-42 0 -73.5 -29t-46.5 -81q42 25 79 25q41 0 64 -25.5t23 -70.5t-20 -81.5t-53.5 -56.5t-72.5 -20q-55 0 -86.5 36t-31.5 99q0 79 30 143t79 99t107 35q39 0 76 -19zM619 177q-23 0 -51 -13q-1 -7 -1 -14v-14
q0 -71 39 -71q21 0 35.5 20.5t14.5 50.5q0 41 -37 41zM154 297l57 295l-101 -39l16 84l113 56h83l-77 -396h-91z" />
    <glyph glyph-name="fivesixths" unicode="&#x215a;" horiz-adv-x="790" 
d="M177 0l389 693h100l-389 -693h-100zM759 318q-29 13 -61 13q-42 0 -73.5 -29t-46.5 -81q42 25 79 25q41 0 64 -25.5t23 -70.5t-20 -81.5t-53.5 -56.5t-72.5 -20q-55 0 -86.5 36t-31.5 99q0 79 30 143t79 99t107 35q39 0 76 -19zM619 177q-23 0 -51 -13q-1 -7 -1 -14v-14
q0 -71 39 -71q21 0 35.5 20.5t14.5 50.5q0 41 -37 41zM212 613l-21 -80q8 1 16.5 1.5t16.5 0.5q44 0 70.5 -26.5t26.5 -70.5q0 -66 -44.5 -107.5t-114.5 -41.5q-56 0 -103 24l14 70q41 -17 82 -17q35 0 55.5 17t20.5 45q0 43 -67 43q-37 0 -67 -5l10 49l45 178h202l-16 -80
h-126z" />
    <glyph glyph-name="oneeighth" unicode="&#x215b;" horiz-adv-x="790" 
d="M171 0l389 693h100l-389 -693h-100zM473 89q0 37 26 66.5t73 46.5q-24 22 -34.5 42.5t-10.5 46.5q0 32 18.5 58t49.5 40.5t67 14.5q49 0 78.5 -25.5t29.5 -68.5q0 -36 -22 -65.5t-63 -47.5q32 -26 44.5 -45.5t12.5 -44.5q0 -49 -42 -82t-106 -33q-54 0 -87.5 27t-33.5 70
zM611 170q-23 -11 -36.5 -30t-13.5 -41q0 -20 11 -31t30 -11q22 0 37 14.5t15 36.5q0 17 -6.5 28t-25.5 26zM611 286q0 -19 7 -30.5t24 -24.5l4 -3q40 23 40 71q0 19 -8 29.5t-23 10.5q-20 0 -32 -15t-12 -38zM154 297l57 295l-101 -39l16 84l113 56h83l-77 -396h-91z" />
    <glyph glyph-name="threeeighths" unicode="&#x215c;" horiz-adv-x="790" 
d="M177 0l389 693h100l-389 -693h-100zM473 89q0 37 26 66.5t73 46.5q-24 22 -34.5 42.5t-10.5 46.5q0 32 18.5 58t49.5 40.5t67 14.5q49 0 78.5 -25.5t29.5 -68.5q0 -36 -22 -65.5t-63 -47.5q32 -26 44.5 -45.5t12.5 -44.5q0 -49 -42 -82t-106 -33q-54 0 -87.5 27t-33.5 70
zM611 170q-23 -11 -36.5 -30t-13.5 -41q0 -20 11 -31t30 -11q22 0 37 14.5t15 36.5q0 17 -6.5 28t-25.5 26zM611 286q0 -19 7 -30.5t24 -24.5l4 -3q40 23 40 71q0 19 -8 29.5t-23 10.5q-20 0 -32 -15t-12 -38zM236 524q39 -2 60.5 -26t21.5 -65q0 -63 -45.5 -103.5
t-115.5 -40.5q-55 0 -104 24l14 70q44 -17 83 -17q36 0 57 17t21 44q0 41 -60 41q-22 0 -43 -3l9 48l101 100h-123l16 80h222l-14 -71z" />
    <glyph glyph-name="fiveeighths" unicode="&#x215d;" horiz-adv-x="790" 
d="M178 0l389 693h100l-389 -693h-100zM473 89q0 37 26 66.5t73 46.5q-24 22 -34.5 42.5t-10.5 46.5q0 32 18.5 58t49.5 40.5t67 14.5q49 0 78.5 -25.5t29.5 -68.5q0 -36 -22 -65.5t-63 -47.5q32 -26 44.5 -45.5t12.5 -44.5q0 -49 -42 -82t-106 -33q-54 0 -87.5 27t-33.5 70
zM611 170q-23 -11 -36.5 -30t-13.5 -41q0 -20 11 -31t30 -11q22 0 37 14.5t15 36.5q0 17 -6.5 28t-25.5 26zM611 286q0 -19 7 -30.5t24 -24.5l4 -3q40 23 40 71q0 19 -8 29.5t-23 10.5q-20 0 -32 -15t-12 -38zM212 613l-21 -80q8 1 16.5 1.5t16.5 0.5q44 0 70.5 -26.5
t26.5 -70.5q0 -66 -44.5 -107.5t-114.5 -41.5q-56 0 -103 24l14 70q41 -17 82 -17q35 0 55.5 17t20.5 45q0 43 -67 43q-37 0 -67 -5l10 49l45 178h202l-16 -80h-126z" />
    <glyph glyph-name="seveneighths" unicode="&#x215e;" horiz-adv-x="790" 
d="M147 0l389 693h100l-389 -693h-100zM473 89q0 37 26 66.5t73 46.5q-24 22 -34.5 42.5t-10.5 46.5q0 32 18.5 58t49.5 40.5t67 14.5q49 0 78.5 -25.5t29.5 -68.5q0 -36 -22 -65.5t-63 -47.5q32 -26 44.5 -45.5t12.5 -44.5q0 -49 -42 -82t-106 -33q-54 0 -87.5 27t-33.5 70
zM611 170q-23 -11 -36.5 -30t-13.5 -41q0 -20 11 -31t30 -11q22 0 37 14.5t15 36.5q0 17 -6.5 28t-25.5 26zM611 286q0 -19 7 -30.5t24 -24.5l4 -3q40 23 40 71q0 19 -8 29.5t-23 10.5q-20 0 -32 -15t-12 -38zM71 297l189 314h-160l16 82h255l-15 -77l-182 -319h-103z" />
    <glyph glyph-name="partialdiff" unicode="&#x2202;" 
d="M231 420q66 0 117 -53q6 48 6 102q0 70 -17.5 103.5t-55.5 33.5q-48 0 -108 -39l-15 84q25 25 66 41t75 16q85 0 134 -62t49 -170q0 -141 -41.5 -253.5t-109.5 -174t-148 -61.5q-78 0 -122 45.5t-44 127.5q0 74 30 134t78.5 93t105.5 33zM197 89q42 0 78.5 52.5
t57.5 141.5q-17 18 -40.5 28.5t-46.5 10.5q-43 0 -70.5 -40.5t-27.5 -105.5q0 -87 49 -87z" />
    <glyph glyph-name="uni2206" unicode="&#x2206;" 
d="M-29 0l19 101l269 592h151l35 -592l-19 -101h-455zM124 101h192l-9 457z" />
    <glyph glyph-name="product" unicode="&#x220f;" 
d="M254 -120l139 714h-179l-139 -714h-131l158 813h440l-157 -813h-131z" />
    <glyph glyph-name="summation" unicode="&#x2211;" 
d="M-39 -120l21 108l209 310l-83 290l20 105h397l-20 -103h-266l85 -299l-204 -308h289l-20 -103h-428z" />
    <glyph glyph-name="minus" unicode="&#x2212;" 
d="M59 296l20 102h385l-20 -102h-385z" />
    <glyph glyph-name="uni2215" unicode="&#x2215;" 
d="M10 0l389 693h100l-389 -693h-100z" />
    <glyph glyph-name="uni2219" unicode="&#x2219;" 
d="M250 243q-34 0 -55 20t-21 53q0 40 26 67.5t64 27.5q34 0 55 -20t21 -53q0 -40 -26 -67.5t-64 -27.5z" />
    <glyph glyph-name="radical" unicode="&#x221a;" 
d="M125 0l-33 266h-78l18 96h168l17 -232l282 610h125l-356 -740h-143z" />
    <glyph glyph-name="infinity" unicode="&#x221e;" 
d="M343 186q-36 0 -59.5 21t-39.5 68q-36 -47 -67.5 -68t-65.5 -21q-43 0 -68 33t-25 87q0 55 23 100t59.5 70.5t75.5 25.5q36 0 59 -22t39 -69q37 48 68.5 69.5t66.5 21.5q42 0 68 -33t26 -87q0 -55 -23.5 -100t-60 -70.5t-76.5 -25.5zM353 270q16 0 30.5 13t23 34t8.5 46
t-10 40t-27 15q-19 0 -39 -17.5t-46 -56.5q11 -39 25.5 -56.5t34.5 -17.5zM143 270q19 0 38 16.5t45 55.5q-11 40 -24.5 58t-33.5 18q-16 0 -30.5 -13t-23 -34t-8.5 -46t10 -40t27 -15z" />
    <glyph glyph-name="integral" unicode="&#x222b;" 
d="M231 554q20 102 68.5 151t128.5 49q47 0 75 -20l-17 -88q-22 6 -46 6q-32 0 -47.5 -15t-22.5 -53l-117 -602q-20 -102 -68.5 -151t-128.5 -49q-47 0 -75 20l17 88q22 -6 46 -6q32 0 47.5 15t22.5 53z" />
    <glyph glyph-name="approxequal" unicode="&#x2248;" 
d="M216 187q-32 41 -55 41q-29 0 -37 -52l-6 -38h-91q4 88 40.5 138.5t96.5 50.5q28 0 51 -13.5t46 -42.5q32 -41 55 -41q29 0 37 52l6 38h91q-4 -88 -40.5 -138.5t-96.5 -50.5q-28 0 -51 13.5t-46 42.5zM263 428q-32 41 -55 41q-29 0 -37 -52l-6 -38h-91q4 88 40.5 138.5
t96.5 50.5q28 0 51 -13.5t46 -42.5q32 -41 55 -41q29 0 37 52l6 38h91q-4 -88 -40.5 -138.5t-96.5 -50.5q-28 0 -51 13.5t-46 42.5z" />
    <glyph glyph-name="notequal" unicode="&#x2260;" 
d="M347 407l-78 -120h173l-20 -102h-220l-59 -90h-96l59 90h-69l20 102h116l78 120h-171l20 102h218l61 93h96l-61 -93h71l-20 -102h-118z" />
    <glyph glyph-name="lessequal" unicode="&#x2264;" 
d="M82 364l20 106l395 189l-25 -130l-257 -117l210 -117l-23 -120zM-2 4l20 102h385l-20 -102h-385z" />
    <glyph glyph-name="greaterequal" unicode="&#x2265;" 
d="M44 175l25 130l257 117l-210 117l23 120l320 -189l-20 -106zM-2 4l20 102h385l-20 -102h-385z" />
    <glyph glyph-name="lozenge" unicode="&#x25ca;" 
d="M127 0l-88 346l223 347h125l88 -346l-223 -347h-125zM351 358l-49 217l-139 -240l49 -217z" />
    <glyph glyph-name="uni27E8" unicode="&#x27e8;" horiz-adv-x="295" 
d="M82 -144l-38 449l207 449h128l-212 -462l37 -436h-122z" />
    <glyph glyph-name="uni27E9" unicode="&#x27e9;" horiz-adv-x="295" 
d="M232 754l38 -449l-207 -449h-128l212 462l-37 436h122z" />
    <glyph glyph-name="twosevenths" unicode="&#xf507;" horiz-adv-x="790" 
d="M168 0l389 693h100l-389 -693h-100zM485 0l189 314h-160l16 82h255l-15 -77l-182 -319h-103zM341 604q0 -46 -34.5 -94.5t-126.5 -130.5h131l-16 -82h-247l13 66q74 66 112.5 105t55 64t16.5 48q0 20 -11.5 31t-33.5 11q-38 0 -79 -32l-15 70q59 41 124 41q52 0 81.5 -26
t29.5 -71z" />
    <glyph glyph-name="threesevenths" unicode="&#xf508;" horiz-adv-x="790" 
d="M157 0l389 693h100l-389 -693h-100zM485 0l189 314h-160l16 82h255l-15 -77l-182 -319h-103zM236 524q39 -2 60.5 -26t21.5 -65q0 -63 -45.5 -103.5t-115.5 -40.5q-55 0 -104 24l14 70q44 -17 83 -17q36 0 57 17t21 44q0 41 -60 41q-22 0 -43 -3l9 48l101 100h-123l16 80
h222l-14 -71z" />
    <glyph glyph-name="foursevenths" unicode="&#xf509;" horiz-adv-x="790" 
d="M167 0l389 693h100l-389 -693h-100zM485 0l189 314h-160l16 82h255l-15 -77l-182 -319h-103zM196 297l15 78h-170l14 72l209 246h88l-48 -245h42l-14 -73h-42l-15 -78h-79zM225 448l27 139l-117 -139h90z" />
    <glyph glyph-name="fivesevenths" unicode="&#xf50a;" horiz-adv-x="790" 
d="M157 0l389 693h100l-389 -693h-100zM485 0l189 314h-160l16 82h255l-15 -77l-182 -319h-103zM212 613l-21 -80q8 1 16.5 1.5t16.5 0.5q44 0 70.5 -26.5t26.5 -70.5q0 -66 -44.5 -107.5t-114.5 -41.5q-56 0 -103 24l14 70q41 -17 82 -17q35 0 55.5 17t20.5 45q0 43 -67 43
q-37 0 -67 -5l10 49l45 178h202l-16 -80h-126z" />
    <glyph glyph-name="sixsevenths" unicode="&#xf50b;" horiz-adv-x="790" 
d="M161 0l389 693h100l-389 -693h-100zM485 0l189 314h-160l16 82h255l-15 -77l-182 -319h-103zM345 615q-29 13 -61 13q-42 0 -73.5 -29t-46.5 -81q42 25 79 25q41 0 64 -25.5t23 -70.5t-20 -81.5t-53.5 -56.5t-72.5 -20q-55 0 -86.5 36t-31.5 99q0 79 30 143t79 99t107 35
q39 0 76 -19zM205 474q-23 0 -51 -13q-1 -7 -1 -14v-14q0 -71 39 -71q21 0 35.5 20.5t14.5 50.5q0 41 -37 41z" />
    <glyph glyph-name="twoninths" unicode="&#xf50d;" horiz-adv-x="790" 
d="M175 0l389 693h100l-389 -693h-100zM553 65q36 0 63.5 26.5t41.5 73.5q-34 -21 -72 -21q-41 0 -65 28.5t-24 77.5q0 44 19.5 79.5t52.5 55t72 19.5q55 0 85.5 -37t30.5 -104q0 -80 -27.5 -142t-74 -95.5t-104.5 -33.5q-44 0 -81 23l13 65q30 -15 70 -15zM625 212
q21 0 43 12q1 8 1.5 16.5t0.5 17.5q0 73 -38 73q-20 0 -33.5 -20.5t-13.5 -51.5q0 -47 40 -47zM341 604q0 -46 -34.5 -94.5t-126.5 -130.5h131l-16 -82h-247l13 66q74 66 112.5 105t55 64t16.5 48q0 20 -11.5 31t-33.5 11q-38 0 -79 -32l-15 70q59 41 124 41q52 0 81.5 -26
t29.5 -71z" />
    <glyph glyph-name="fourninths" unicode="&#xf50e;" horiz-adv-x="790" 
d="M176 0l389 693h100l-389 -693h-100zM553 65q36 0 63.5 26.5t41.5 73.5q-34 -21 -72 -21q-41 0 -65 28.5t-24 77.5q0 44 19.5 79.5t52.5 55t72 19.5q55 0 85.5 -37t30.5 -104q0 -80 -27.5 -142t-74 -95.5t-104.5 -33.5q-44 0 -81 23l13 65q30 -15 70 -15zM625 212
q21 0 43 12q1 8 1.5 16.5t0.5 17.5q0 73 -38 73q-20 0 -33.5 -20.5t-13.5 -51.5q0 -47 40 -47zM196 297l15 78h-170l14 72l209 246h88l-48 -245h42l-14 -73h-42l-15 -78h-79zM225 448l27 139l-117 -139h90z" />
    <glyph glyph-name="fiveninths" unicode="&#xf50f;" horiz-adv-x="790" 
d="M165 0l389 693h100l-389 -693h-100zM553 65q36 0 63.5 26.5t41.5 73.5q-34 -21 -72 -21q-41 0 -65 28.5t-24 77.5q0 44 19.5 79.5t52.5 55t72 19.5q55 0 85.5 -37t30.5 -104q0 -80 -27.5 -142t-74 -95.5t-104.5 -33.5q-44 0 -81 23l13 65q30 -15 70 -15zM625 212
q21 0 43 12q1 8 1.5 16.5t0.5 17.5q0 73 -38 73q-20 0 -33.5 -20.5t-13.5 -51.5q0 -47 40 -47zM212 613l-21 -80q8 1 16.5 1.5t16.5 0.5q44 0 70.5 -26.5t26.5 -70.5q0 -66 -44.5 -107.5t-114.5 -41.5q-56 0 -103 24l14 70q41 -17 82 -17q35 0 55.5 17t20.5 45q0 43 -67 43
q-37 0 -67 -5l10 49l45 178h202l-16 -80h-126z" />
    <glyph glyph-name="sevenninths" unicode="&#xf510;" horiz-adv-x="790" 
d="M141 0l389 693h100l-389 -693h-100zM553 65q36 0 63.5 26.5t41.5 73.5q-34 -21 -72 -21q-41 0 -65 28.5t-24 77.5q0 44 19.5 79.5t52.5 55t72 19.5q55 0 85.5 -37t30.5 -104q0 -80 -27.5 -142t-74 -95.5t-104.5 -33.5q-44 0 -81 23l13 65q30 -15 70 -15zM625 212
q21 0 43 12q1 8 1.5 16.5t0.5 17.5q0 73 -38 73q-20 0 -33.5 -20.5t-13.5 -51.5q0 -47 40 -47zM71 297l189 314h-160l16 82h255l-15 -77l-182 -319h-103z" />
    <glyph glyph-name="eightninths" unicode="&#xf511;" horiz-adv-x="790" 
d="M174 0l389 693h100l-389 -693h-100zM553 65q36 0 63.5 26.5t41.5 73.5q-34 -21 -72 -21q-41 0 -65 28.5t-24 77.5q0 44 19.5 79.5t52.5 55t72 19.5q55 0 85.5 -37t30.5 -104q0 -80 -27.5 -142t-74 -95.5t-104.5 -33.5q-44 0 -81 23l13 65q30 -15 70 -15zM625 212
q21 0 43 12q1 8 1.5 16.5t0.5 17.5q0 73 -38 73q-20 0 -33.5 -20.5t-13.5 -51.5q0 -47 40 -47zM59 386q0 37 26 66.5t73 46.5q-24 22 -34.5 42.5t-10.5 46.5q0 32 18.5 58t49.5 40.5t67 14.5q49 0 78.5 -25.5t29.5 -68.5q0 -36 -22 -65.5t-63 -47.5q32 -26 44.5 -45.5
t12.5 -44.5q0 -49 -42 -82t-106 -33q-54 0 -87.5 27t-33.5 70zM197 467q-23 -11 -36.5 -30t-13.5 -41q0 -20 11 -31t30 -11q22 0 37 14.5t15 36.5q0 17 -6.5 28t-25.5 26zM197 583q0 -19 7 -30.5t24 -24.5l4 -3q40 23 40 71q0 19 -8 29.5t-23 10.5q-20 0 -32 -15t-12 -38z
" />
    <glyph glyph-name="uniFEFF" unicode="&#xfeff;" horiz-adv-x="0" 
 />
    <glyph glyph-name="uniFFFD" unicode="&#xfffd;" horiz-adv-x="1000" 
d="M29 340l471 471l471 -471l-471 -471zM609 456q0 -39 -27 -70t-86 -59l-47 -22l9 -136h78v103q85 38 125 85t40 108q0 74 -47.5 115t-132.5 41q-43 0 -85.5 -12t-79.5 -34v-74q80 42 150 42q103 0 103 -87zM500 -6q25 0 40.5 16t15.5 41t-15.5 41t-40.5 16t-40.5 -16
t-15.5 -41t15.5 -41t40.5 -16z" />
    <glyph glyph-name="zero.pnum" horiz-adv-x="487" 
d="M207 -13q-80 0 -123 58.5t-43 168.5q0 94 23 191t60.5 165t86 103t105.5 35q80 0 123 -58.5t43 -168.5q0 -94 -23 -191t-60.5 -165t-86 -103t-105.5 -35zM307 599q-41 0 -71 -65t-48 -169t-18 -186q0 -83 46 -83q41 0 71 65t48 169t18 186q0 83 -46 83z" />
    <glyph glyph-name="one.pnum" horiz-adv-x="368" 
d="M107 0l107 550l-146 -58l22 115l170 86h116l-135 -693h-134z" />
    <glyph glyph-name="two.pnum" horiz-adv-x="441" 
d="M443 543q0 -52 -24.5 -107t-85 -128.5t-185.5 -196.5h236l-22 -111h-385l20 103q127 132 190.5 205t91 121.5t27.5 91.5q0 35 -19 53t-55 18q-35 0 -65 -12.5t-73 -45.5l-17 100q86 74 197 74q78 0 123.5 -44.5t45.5 -120.5z" />
    <glyph glyph-name="three.pnum" horiz-adv-x="418" 
d="M-3 126q34 -17 64 -25t64 -8q57 0 91.5 36t34.5 94q0 41 -25.5 63t-74.5 22q-29 0 -56 -5l17 86l188 195h-215l21 109h354l-20 -101l-192 -199q62 -2 98.5 -44.5t36.5 -113.5q0 -74 -33 -130.5t-89.5 -87t-126.5 -30.5q-44 0 -85 11t-71 31z" />
    <glyph glyph-name="four.pnum" horiz-adv-x="479" 
d="M223 0l27 141h-253l19 99l333 453h122l-88 -450h73l-20 -102h-73l-27 -141h-113zM270 243l50 258l-187 -258h137z" />
    <glyph glyph-name="five.pnum" horiz-adv-x="423" 
d="M5 125q61 -32 128 -32q57 0 93 38t36 101q0 92 -106 92q-23 0 -43 -2t-64 -9l12 59l75 321h327l-21 -109h-218l-39 -166q38 6 54 6q71 0 113 -48t42 -130q0 -78 -33.5 -137t-91 -90.5t-129.5 -31.5q-44 0 -84 10.5t-70 30.5z" />
    <glyph glyph-name="six.pnum" horiz-adv-x="487" 
d="M490 579q-26 14 -49 19.5t-52 5.5q-69 0 -121 -57t-76 -157q64 33 125 33q65 0 103.5 -45t38.5 -121q0 -77 -32 -139t-84.5 -96.5t-114.5 -34.5q-87 0 -134.5 61t-47.5 173q0 141 46 253t121.5 173t166.5 61q43 0 73 -8t55 -25zM251 322q-31 0 -73 -18q-3 -33 -3 -69
q0 -144 69 -144q35 0 59 43.5t24 104.5q0 41 -19.5 62t-56.5 21z" />
    <glyph glyph-name="seven.pnum" horiz-adv-x="442" 
d="M27 0l311 582h-261l22 111h397l-21 -107l-304 -586h-144z" />
    <glyph glyph-name="eight.pnum" horiz-adv-x="471" 
d="M493 557q0 -132 -130 -204q42 -37 60 -72.5t18 -79.5q0 -63 -32 -112t-85.5 -75.5t-118.5 -26.5q-85 0 -135 44t-50 118q0 73 40.5 131.5t110.5 86.5q-57 54 -57 133q0 59 30 107t78.5 74.5t104.5 26.5q76 0 121 -41t45 -110zM242 311l-11 -4q-37 -15 -59.5 -52.5
t-22.5 -86.5q0 -38 19 -59.5t51 -21.5q40 0 67 31t27 76q0 34 -15.5 60.5t-52.5 54.5zM238 503q0 -29 12 -51.5t38 -40.5l4 -3l8 4q32 14 50.5 49t18.5 79q0 35 -14.5 54t-41.5 19q-32 0 -53.5 -31.5t-21.5 -78.5z" />
    <glyph glyph-name="nine.pnum" 
d="M145 91q62 0 109 52.5t71 145.5q-27 -15 -59 -23.5t-60 -8.5q-66 0 -104 49t-38 135q0 77 31.5 138.5t83.5 95t114 33.5q86 0 133.5 -63t47.5 -177q0 -142 -43.5 -252t-117.5 -169.5t-165 -59.5q-80 0 -135 45l19 95q61 -36 113 -36zM266 357q32 0 74 16q5 48 5 91
q0 140 -67 140q-35 0 -58.5 -43t-23.5 -108q0 -46 18 -71t52 -25z" />
    <glyph glyph-name="florin.crcy" 
d="M191 413h-64l15 79l68 17l11 56q19 99 65.5 144t128.5 45q23 0 46 -6t40 -16l-17 -87q-32 7 -54 7q-32 0 -50 -19t-26 -61l-12 -61h111l-19 -98h-111l-85 -446q-18 -97 -59.5 -141t-114.5 -44q-24 0 -47.5 6t-41.5 16l17 87q21 -7 39 -7q32 0 49.5 19.5t25.5 64.5z" />
    <glyph glyph-name="hyphen.case" horiz-adv-x="340" 
d="M43 296l21 110h272l-21 -110h-272z" />
    <glyph glyph-name="endash.case" horiz-adv-x="400" 
d="M8 299l20 104h400l-20 -104h-400z" />
    <glyph glyph-name="emdash.case" horiz-adv-x="800" 
d="M8 299l20 104h800l-20 -104h-800z" />
    <glyph glyph-name="parenleft.case" horiz-adv-x="296" 
d="M99 -113q-24 65 -37 137t-13 142q0 165 55 325t157 294h130q-96 -136 -150 -305.5t-54 -337.5q0 -155 30 -255h-118z" />
    <glyph glyph-name="parenright.case" horiz-adv-x="296" 
d="M228 785q24 -65 37 -137t13 -142q0 -165 -55 -325t-157 -294h-130q96 136 150 305.5t54 337.5q0 155 -30 255h118z" />
    <glyph glyph-name="slash.case" horiz-adv-x="420" 
d="M-62 -113l438 898h137l-438 -898h-137z" />
    <glyph glyph-name="backslash.case" horiz-adv-x="420" 
d="M312 -113h-126l-78 898h126z" />
    <glyph glyph-name="bracketleft.case" horiz-adv-x="305" 
d="M-3 -113l174 898h226l-19 -100h-91l-135 -698h90l-19 -100h-226z" />
    <glyph glyph-name="bracketright.case" horiz-adv-x="305" 
d="M340 785l-174 -898h-226l19 100h91l135 698h-90l19 100h226z" />
    <glyph glyph-name="braceleft.case" horiz-adv-x="328" 
d="M267 -97q-50 -24 -107 -24q-117 0 -117 120q0 46 14 116l15 78q8 45 8 72q0 19 -8.5 27t-27.5 8h-14l19 98h17q27 0 39 13.5t20 52.5l27 139q20 104 59.5 147t113.5 43q42 0 93 -19l-17 -89q-28 8 -43 8q-29 0 -45 -17.5t-25 -62.5l-27 -140q-10 -53 -40.5 -84.5
t-84.5 -43.5q79 -10 79 -82q0 -27 -11 -85l-15 -78q-12 -61 -12 -86q0 -16 9.5 -25.5t26.5 -9.5q19 0 37 7z" />
    <glyph glyph-name="braceright.case" horiz-adv-x="328" 
d="M311 274h-17q-27 0 -39 -13.5t-20 -52.5l-27 -139q-20 -104 -59.5 -147t-113.5 -43q-42 0 -93 19l17 89q28 -8 43 -8q29 0 45 17.5t25 62.5l27 140q19 105 124 127q-40 6 -59 26.5t-19 56.5q0 27 11 85l15 78q12 61 12 86q0 16 -9.5 25.5t-26.5 9.5q-19 0 -37 -7l-17 83
q50 24 107 24q117 0 117 -120q0 -46 -14 -116l-15 -78q-8 -45 -8 -72q0 -19 8.5 -27t27.5 -8h14z" />
    <glyph glyph-name="bullet.case" horiz-adv-x="332" 
d="M170 204q-57 0 -91 34.5t-34 90.5q0 71 44 120t109 49q57 0 91 -34.5t34 -90.5q0 -71 -44 -120t-109 -49z" />
    <glyph glyph-name="guilsinglleft.case" horiz-adv-x="313" 
d="M135 144l-82 208l151 208h130l-157 -215l76 -201h-118z" />
    <glyph glyph-name="guilsinglright.case" horiz-adv-x="313" 
d="M216 560l82 -208l-151 -208h-130l156 214l-75 202h118z" />
    <glyph glyph-name="guillemotleft.case" horiz-adv-x="531" 
d="M135 144l-82 208l151 208h130l-157 -215l76 -201h-118zM353 144l-82 208l151 208h130l-157 -215l76 -201h-118z" />
    <glyph glyph-name="guillemotright.case" horiz-adv-x="531" 
d="M216 560l82 -208l-151 -208h-130l156 214l-75 202h118zM434 560l82 -208l-151 -208h-130l156 214l-75 202h118z" />
    <glyph glyph-name="at.case" horiz-adv-x="825" 
d="M508 -74q-84 -39 -172 -39q-142 0 -221 78.5t-79 221.5q0 125 40 232t107 182.5t150.5 116t173.5 40.5q146 0 229 -76t83 -212q0 -111 -34.5 -199.5t-90.5 -138t-121 -49.5q-85 0 -104 89q-28 -44 -63 -67.5t-74 -23.5q-45 0 -70 37.5t-25 105.5q0 95 35.5 174t93 122
t123.5 43q29 0 71.5 -10.5t73.5 -25.5l-56 -240q-13 -54 -13 -80q0 -18 7 -28.5t18 -10.5q32 0 63 45.5t48.5 111.5t17.5 133q0 100 -57 153.5t-162 53.5q-98 0 -180.5 -67.5t-128 -175t-45.5 -230.5q0 -104 53 -158t154 -54q58 0 141 28zM386 170q18 0 40 20.5t42 56.5
l51 221q-22 6 -41 6q-36 0 -64.5 -32t-44 -85t-15.5 -115q0 -72 32 -72z" />
    <glyph glyph-name="periodcentered.case" horiz-adv-x="248" 
d="M134 267q-34 0 -55 20t-21 53q0 40 26 67.5t64 27.5q34 0 55 -20t21 -53q0 -40 -26 -67.5t-64 -27.5z" />
    <glyph glyph-name="periodcentered.locl_CAT" horiz-adv-x="248" 
d="M139 295q-30 0 -48.5 16.5t-18.5 43.5q0 34 23 56.5t56 22.5q30 0 48.5 -16.5t18.5 -43.5q0 -34 -23 -56.5t-56 -22.5z" />
    <glyph glyph-name="periodcentered.locl_CAT.cap" horiz-adv-x="248" 
d="M143 315q-30 0 -48.5 16.5t-18.5 43.5q0 34 23 56.5t56 22.5q30 0 48.5 -16.5t18.5 -43.5q0 -34 -23 -56.5t-56 -22.5z" />
    <glyph glyph-name="uni0327.cap" horiz-adv-x="0" 
d="M-116 -237q45 30 63 49t18 35q0 18 -22 18q-14 0 -26 -3l13 67q30 11 63 11t51.5 -17.5t18.5 -48.5q0 -43 -33 -81t-105 -80z" />
    <glyph glyph-name="uni0326.cap" horiz-adv-x="0" 
d="M-128 -284l72 221h51q50 0 50 -35q0 -12 -4.5 -24.5t-29.5 -56.5l-59 -105h-80z" />
    <glyph glyph-name="uni0328.cap" horiz-adv-x="0" 
d="M1 -205q-47 -24 -101 -24q-45 0 -69.5 20t-24.5 57q0 44 33 86t99 83l62 -17q-46 -37 -67 -66t-21 -55q0 -30 30 -30q15 0 36 7z" />
    <glyph glyph-name="uni0328.round" horiz-adv-x="0" 
d="M-102 -122q0 -31 30 -31q16 0 37 7l22 -59q-47 -24 -99 -24q-45 0 -69.5 20t-24.5 57q0 59 57.5 115.5t158.5 95.5l-10 -50q-45 -24 -73.5 -60.5t-28.5 -70.5z" />
    <glyph glyph-name="uni0328.round.cap" horiz-adv-x="0" 
d="M-102 -122q0 -29 30 -29q15 0 36 7l23 -61q-47 -24 -101 -24q-45 0 -69.5 20t-24.5 57q0 59 58.5 115.5t159.5 95.5l-10 -50q-45 -25 -73.5 -61t-28.5 -70z" />
    <glyph glyph-name="iogonek.dotless" horiz-adv-x="256" 
d="M112 511h132l-99 -511h-132zM146 -205q-47 -24 -99 -24q-45 0 -69.5 20t-24.5 57q0 44 33 86t99 83l60 -17q-46 -37 -67 -66t-21 -56q0 -31 30 -31q16 0 37 7z" />
    <glyph glyph-name="acutecomb.cap" horiz-adv-x="0" 
d="M56 769h-111l108 128h138z" />
    <glyph glyph-name="uni030B.cap" horiz-adv-x="0" 
d="M-47 897h138l-134 -128h-112zM140 897h138l-134 -128h-112z" />
    </font>
</defs>
</svg>
