<?xml version="1.0" standalone="no"?>
<!DOCTYPE svg PUBLIC "-//W3C//DTD SVG 1.1//EN" "http://www.w3.org/Graphics/SVG/1.1/DTD/svg11.dtd" >
<svg xmlns="http://www.w3.org/2000/svg" xmlns:xlink="http://www.w3.org/1999/xlink" version="1.1">
<metadata>
Created by FontForge 20170731 at Wed Feb 17 19:01:45 2016
 By Aleksey,,,
Copyright 2016 Dalton Maag Ltd. Modification of this file requires prior written permission from Dalton Maag Ltd.
</metadata>
<defs>
<font id="AmazonEmberCdRC-ThinItalic" horiz-adv-x="486" >
  <font-face 
    font-family="Amazon Ember Cd RC Thin"
    font-weight="250"
    font-style="italic"
    font-stretch="condensed"
    units-per-em="1000"
    panose-1="2 11 3 6 2 2 4 9 2 4"
    ascent="800"
    descent="-200"
    x-height="503"
    cap-height="693"
    bbox="-214 -268 1058 963"
    underline-thickness="80"
    underline-position="-229"
    slope="-10.99"
    unicode-range="U+0008-FFFD"
  />
<missing-glyph horiz-adv-x="500" 
d="M50 0v750h400v-750h-400zM400 50v650h-300v-650h300z" />
    <glyph glyph-name="ff" unicode="ff" horiz-adv-x="506" 
d="M283 0l94 483h-196l-94 -483h-21l94 483h-86l3 16l87 4l25 130q12 62 39.5 91.5t73.5 29.5q34 0 68 -18l-4 -18q-29 16 -65 16q-37 0 -59 -25t-32 -76l-25 -130h196l25 130q12 63 40 92t75 29q37 0 71 -21l-4 -18q-35 19 -65 19q-41 0 -63.5 -24t-32.5 -77l-25 -130h140
l-4 -20h-140l-94 -483h-21z" />
    <glyph glyph-name="fi" unicode="fi" horiz-adv-x="439" 
d="M377 483h-196l-94 -483h-21l94 483h-86l3 16l87 4l25 130q12 62 39.5 91.5t73.5 29.5q34 0 68 -18l-4 -18q-29 16 -65 16q-37 0 -59 -25t-32 -76l-25 -130h217l-98 -503h-21zM413 632q-19 0 -19 18q0 11 6.5 18.5t16.5 7.5q19 0 19 -18q0 -11 -6.5 -18.5t-16.5 -7.5z" />
    <glyph glyph-name="fl" unicode="fl" horiz-adv-x="461" 
d="M66 0l94 483h-86l3 16l87 4l25 130q12 62 39.5 91.5t73.5 29.5q34 0 68 -18l-4 -18q-29 16 -65 16q-37 0 -59 -25t-32 -76l-25 -130h107l-5 -20h-106l-94 -483h-21zM381 7q-20 -10 -40 -10q-46 0 -46 50q0 13 7 49l125 644h21l-125 -644q-7 -35 -7 -49q0 -30 30 -30
q15 0 30 6z" />
    <glyph glyph-name="ffi" unicode="ffi" horiz-adv-x="656" 
d="M283 0l94 483h-196l-94 -483h-21l94 483h-86l3 16l87 4l25 130q12 62 39.5 91.5t73.5 29.5q34 0 68 -18l-4 -18q-29 16 -65 16q-37 0 -59 -25t-32 -76l-25 -130h196l25 130q12 62 39.5 91.5t73.5 29.5q34 0 68 -18l-4 -18q-29 16 -65 16q-37 0 -59 -25t-32 -76l-25 -130
h217l-98 -503h-21l94 483h-196l-94 -483h-21zM630 632q-19 0 -19 18q0 11 6.5 18.5t16.5 7.5q19 0 19 -18q0 -11 -6.5 -18.5t-16.5 -7.5z" />
    <glyph glyph-name="ffl" unicode="ffl" horiz-adv-x="678" 
d="M283 0l94 483h-196l-94 -483h-21l94 483h-86l3 16l87 4l25 130q12 62 39.5 91.5t73.5 29.5q34 0 68 -18l-4 -18q-29 16 -65 16q-37 0 -59 -25t-32 -76l-25 -130h196l25 130q12 62 39.5 91.5t73.5 29.5q34 0 68 -18l-4 -18q-29 16 -65 16q-37 0 -59 -25t-32 -76l-25 -130
h107l-5 -20h-106l-94 -483h-21zM598 7q-20 -10 -40 -10q-46 0 -46 50q0 13 7 49l125 644h21l-125 -644q-7 -35 -7 -49q0 -30 30 -30q15 0 30 6z" />
    <glyph glyph-name=".notdef" horiz-adv-x="500" 
d="M50 0v750h400v-750h-400zM400 50v650h-300v-650h300z" />
    <glyph glyph-name=".null" horiz-adv-x="0" 
 />
    <glyph glyph-name=".null" horiz-adv-x="0" 
 />
    <glyph glyph-name=".null" horiz-adv-x="0" 
 />
    <glyph glyph-name="nonmarkingreturn" unicode="&#x9;" horiz-adv-x="211" 
 />
    <glyph glyph-name="nonmarkingreturn" unicode="&#xd;" horiz-adv-x="211" 
 />
    <glyph glyph-name="space" unicode=" " horiz-adv-x="211" 
 />
    <glyph glyph-name="exclam" unicode="!" horiz-adv-x="190" 
d="M70 175l98 519q5 3 12 3t11 -3l-102 -519h-19zM51 -4q-9 0 -14.5 5t-5.5 14q0 12 7 19.5t17 7.5q9 0 14.5 -5t5.5 -14q0 -12 -7 -19.5t-17 -7.5z" />
    <glyph glyph-name="quotedbl" unicode="&#x22;" horiz-adv-x="229" 
d="M111 477l38 216q6 4 12 4q7 0 13 -4l-46 -216h-17zM189 477l38 216q6 4 12 4q7 0 13 -4l-46 -216h-17z" />
    <glyph glyph-name="numbersign" unicode="#" 
d="M312 208l-66 -208h-20l66 208h-155l-66 -208h-20l66 208h-76l4 19h78l78 243h-85l4 19h87l65 204h20l-65 -204h155l65 204h20l-65 -204h77l-4 -19h-79l-78 -243h86l-4 -19h-88zM143 227h155l78 243h-155z" />
    <glyph glyph-name="dollar" unicode="$" 
d="M151 -130l24 124q-43 3 -78.5 17t-60.5 38l4 20q26 -25 64.5 -40t74.5 -15l64 327l-29 17q-50 29 -72.5 65t-22.5 86q0 55 24 97.5t64 65.5t89 23h8t8 -1l24 123h20l-24 -124q65 -9 111 -53l-4 -20q-49 47 -111 53l-63 -320l13 -7q65 -39 90 -73.5t25 -84.5
q0 -57 -26.5 -102t-71.5 -69t-99 -24h-1l-24 -123h-20zM261 331l-62 -317q52 2 91 24.5t60 61t21 87.5q0 47 -22.5 76.5t-83.5 65.5zM141 510q0 -46 19.5 -76.5t65.5 -57.5l21 -12l61 310h-15q-68 0 -110 -45.5t-42 -118.5z" />
    <glyph glyph-name="percent" unicode="%" horiz-adv-x="790" 
d="M208 0l386 693h23l-386 -693h-23zM577 -8q-46 0 -71 32t-25 92q0 69 20.5 135.5t54.5 101t80 34.5t71 -32.5t25 -91.5q0 -69 -20.5 -135.5t-54.5 -101t-80 -34.5zM634 367q-41 0 -70 -35t-45.5 -95t-16.5 -118q0 -53 19.5 -80t57.5 -27q41 0 70 35t45.5 95t16.5 118
q0 53 -19.5 80t-57.5 27zM189 306q-46 0 -71 32t-25 92q0 69 20.5 135.5t54.5 101t80 34.5t71 -32.5t25 -91.5q0 -69 -20.5 -135.5t-54.5 -101t-80 -34.5zM246 681q-41 0 -70 -35t-45.5 -95t-16.5 -118q0 -53 19.5 -80t57.5 -27q41 0 70 35t45.5 95t16.5 118q0 53 -19.5 80
t-57.5 27z" />
    <glyph glyph-name="ampersand" unicode="&#x26;" horiz-adv-x="595" 
d="M511 6q-20 -10 -47 -10q-29 0 -48.5 14.5t-36.5 47.5q-32 -31 -78.5 -50.5t-89.5 -19.5q-73 0 -115 43.5t-42 119.5q0 70 43.5 128.5t120.5 92.5l13 5l-5 11q-45 96 -45 157q0 35 12.5 65t34 51.5t48.5 32.5t57 11q51 0 82 -34.5t31 -90.5q0 -63 -44.5 -117.5
t-121.5 -86.5l-21 -9l127 -274q43 49 72.5 124.5t40.5 162.5h21q-24 -190 -125 -305q15 -33 31 -46t41 -13q21 0 39 7zM213 9q40 0 82 18t75 50l-131 282l-8 -3q-76 -35 -115 -86.5t-39 -117.5q0 -67 36 -105t100 -38zM203 545q0 -33 9.5 -65.5t32.5 -82.5l6 -13l20 9
q72 30 112.5 79t40.5 108q0 49 -24.5 76.5t-67.5 27.5q-55 0 -92 -39.5t-37 -99.5z" />
    <glyph glyph-name="quotesingle" unicode="'" horiz-adv-x="151" 
d="M111 477l38 216q6 4 12 4q7 0 13 -4l-46 -216h-17z" />
    <glyph glyph-name="parenleft" unicode="(" horiz-adv-x="233" 
d="M66 135q0 341 208 619h25q-211 -285 -211 -616q0 -159 37 -282h-22q-37 120 -37 279z" />
    <glyph glyph-name="parenright" unicode=")" horiz-adv-x="233" 
d="M187 475q0 -341 -208 -619h-25q211 285 211 616q0 159 -37 282h22q37 -120 37 -279z" />
    <glyph glyph-name="asterisk" unicode="*" horiz-adv-x="316" 
d="M244 694q8 0 12 -3l-30 -141l117 41q4 -6 4 -13q0 -4 -1 -8l-118 -37l64 -121q-2 -4 -8 -6.5t-11 -2.5l-60 122l-103 -122q-11 2 -16 12l106 120l-106 39q0 15 8 21l107 -45l24 141q6 3 11 3z" />
    <glyph glyph-name="plus" unicode="+" 
d="M270 342l-38 -196h-21l38 196h-172l4 20h172l38 195h21l-38 -195h172l-4 -20h-172z" />
    <glyph glyph-name="comma" unicode="," horiz-adv-x="184" 
d="M-27 -142l74 197h9q12 0 12 -8t-14 -41l-63 -148h-18z" />
    <glyph glyph-name="hyphen" unicode="-" horiz-adv-x="332" 
d="M55 250l4 20h220l-4 -20h-220z" />
    <glyph glyph-name="period" unicode="." horiz-adv-x="184" 
d="M44 -4q-9 0 -14.5 5t-5.5 14q0 12 7 19.5t17 7.5q9 0 14.5 -5t5.5 -14q0 -12 -7 -19.5t-17 -7.5z" />
    <glyph glyph-name="slash" unicode="/" horiz-adv-x="325" 
d="M-56 -144l432 898h24l-432 -898h-24z" />
    <glyph glyph-name="zero" unicode="0" 
d="M312 684q-54 0 -97 -43t-72.5 -116.5t-46 -165.5t-16.5 -169q0 -90 31 -136.5t90 -46.5q54 0 97 43t72.5 116.5t46 165.5t16.5 169q0 90 -30.5 136.5t-90.5 46.5zM199 -15q-68 0 -105 54t-37 154q0 92 22 194.5t57 174t80 108t98 36.5q68 0 105 -54t37 -154
q0 -92 -22 -194.5t-57 -174t-80 -108t-98 -36.5z" />
    <glyph glyph-name="one" unicode="1" 
d="M225 0l130 667l-187 -99l5 23l189 102h19l-135 -693h-21z" />
    <glyph glyph-name="two" unicode="2" 
d="M444 560q0 -37 -11.5 -71.5t-38 -74.5t-71 -93t-111 -126t-158.5 -174h316l-4 -21h-343l4 21q92 101 159 175t112.5 127.5t72.5 93.5t38.5 73.5t11.5 68.5q0 57 -34.5 91t-90.5 34q-42 0 -85.5 -19.5t-76.5 -52.5l-4 21q75 73 169 73q63 0 104 -40.5t41 -105.5z" />
    <glyph glyph-name="three" unicode="3" 
d="M31 44q54 -37 137 -37q91 0 147 61.5t56 162.5q0 68 -36 102.5t-106 34.5q-30 0 -60 -7l5 22l265 289h-286l4 21h313l-4 -20l-266 -290q16 5 40 5q72 0 113 -42t41 -115q0 -72 -29.5 -128.5t-80 -87t-113.5 -30.5q-92 0 -144 38z" />
    <glyph glyph-name="four" unicode="4" 
d="M277 0l32 168h-275l4 18l376 507h19l-98 -504h85l-4 -21h-85l-33 -168h-21zM313 189l89 455l-337 -455h248z" />
    <glyph glyph-name="five" unicode="5" 
d="M57 38q31 -18 58.5 -24.5t67.5 -6.5q59 0 104 31.5t69 85t24 119.5t-36 102.5t-102 36.5q-52 0 -105 -15l4 22l76 304h253l-4 -21h-232l-70 -279q44 10 82 10q72 0 114.5 -42.5t42.5 -116.5q0 -76 -30 -135.5t-80 -91.5t-110 -32q-80 0 -130 32z" />
    <glyph glyph-name="six" unicode="6" 
d="M476 661q-40 23 -98 23q-65 0 -121 -46.5t-95 -127t-55 -181.5q40 37 90.5 58t97.5 21q62 -1 96 -40t34 -112q0 -78 -29 -140.5t-75.5 -96.5t-100.5 -34q-68 0 -106.5 57.5t-38.5 161.5q0 109 26 203.5t69.5 161.5t97 102t111.5 35q62 0 101 -25zM290 386
q-47 0 -96 -21.5t-90 -60.5q-6 -49 -6 -100q0 -93 33.5 -145t91.5 -52q51 0 92.5 34.5t64 90t22.5 121.5q0 64 -28.5 98t-83.5 35z" />
    <glyph glyph-name="seven" unicode="7" 
d="M88 0l372 672h-314l4 21h339l-4 -19l-372 -674h-25z" />
    <glyph glyph-name="eight" unicode="8" 
d="M295 358l11 -5q52 -28 78.5 -70t26.5 -96q0 -59 -27.5 -105t-73.5 -71.5t-101 -25.5q-73 0 -115 42.5t-42 115.5q0 79 48.5 141t128.5 87l-2 1q-40 22 -61 59.5t-21 84.5q0 53 26.5 97t68.5 68.5t90 24.5q61 0 97 -36.5t36 -99.5q0 -69 -43.5 -125t-119.5 -85zM250 359
q-79 -22 -127 -80.5t-48 -135.5q0 -65 36 -101t99 -36q52 0 93 24.5t63 65t22 90.5q0 99 -96 151zM168 516q0 -90 79 -132l28 -15l6 2q73 26 116 79.5t43 119.5q0 54 -29.5 84.5t-82.5 30.5q-45 0 -82 -24t-57.5 -62.5t-20.5 -82.5z" />
    <glyph glyph-name="nine" unicode="9" 
d="M143 7q88 0 158.5 91t97.5 239q-34 -31 -78.5 -49t-84.5 -18q-68 0 -106.5 45t-38.5 125q0 75 28.5 136.5t74.5 95.5t98 34q66 0 105 -58t39 -156q0 -144 -41.5 -261t-108.5 -181.5t-145 -64.5q-70 0 -113 35l4 20q25 -18 50.5 -25.5t60.5 -7.5zM240 292q40 0 82.5 17.5
t80.5 49.5q10 70 10 133q0 89 -33.5 140.5t-90.5 51.5q-50 0 -90 -34.5t-62.5 -90t-22.5 -119.5q0 -72 32.5 -110t93.5 -38z" />
    <glyph glyph-name="colon" unicode=":" horiz-adv-x="184" 
d="M44 -4q-9 0 -14.5 5t-5.5 14q0 12 7 19.5t17 7.5q9 0 14.5 -5t5.5 -14q0 -12 -7 -19.5t-17 -7.5zM134 461q-9 0 -14.5 5t-5.5 14q0 12 7 19.5t17 7.5q9 0 14.5 -5t5.5 -14q0 -12 -7 -19.5t-17 -7.5z" />
    <glyph glyph-name="semicolon" unicode=";" horiz-adv-x="184" 
d="M-27 -142l74 197h9q12 0 12 -8t-14 -41l-63 -148h-18zM134 461q-9 0 -14.5 5t-5.5 14q0 12 7 19.5t17 7.5q9 0 14.5 -5t5.5 -14q0 -12 -7 -19.5t-17 -7.5z" />
    <glyph glyph-name="less" unicode="&#x3c;" 
d="M98 339l5 24l355 198l-6 -27l-332 -186l263 -184l-5 -23z" />
    <glyph glyph-name="equal" unicode="=" 
d="M55 229l4 20h365l-4 -20h-365zM98 451l4 20h365l-4 -20h-365z" />
    <glyph glyph-name="greater" unicode="&#x3e;" 
d="M421 363l-5 -24l-355 -198l6 27l331 185l-262 185l5 23z" />
    <glyph glyph-name="question" unicode="?" horiz-adv-x="356" 
d="M129 175l29 173l33 20q163 100 163 221q0 46 -25 71t-73 25q-64 0 -126 -48l-3 19q63 50 132 50q55 0 86 -31.5t31 -87.5q0 -69 -50.5 -132t-147.5 -117l-32 -163h-17zM117 -4q-9 0 -14.5 5t-5.5 14q0 12 7 19.5t17 7.5q9 0 14.5 -5t5.5 -14q0 -12 -7 -19.5t-17 -7.5z
" />
    <glyph glyph-name="at" unicode="@" horiz-adv-x="778" 
d="M425 -179q-24 -13 -62 -21t-77 -8q-119 0 -183 77.5t-64 222.5q0 163 61.5 295t160 206t209.5 74q81 0 141 -37t91.5 -104.5t31.5 -157.5q0 -99 -32.5 -186.5t-81 -138t-97.5 -50.5q-31 0 -48 20t-17 57v10.5t1 11.5q-42 -49 -83.5 -75t-77.5 -26q-41 0 -60.5 29.5
t-19.5 88.5q0 96 35.5 179t90 129.5t115.5 46.5q43 0 101 -25l-66 -274q-15 -60 -15 -91q0 -60 46 -60q48 0 92 55t69.5 135t25.5 164q0 131 -65 204.5t-179 73.5q-113 0 -207.5 -78.5t-147 -203.5t-52.5 -271q0 -136 58.5 -208t168.5 -72q34 0 71 7.5t64 20.5zM301 12
q34 0 77.5 29.5t84.5 80.5l8 34l65 270q-42 17 -80 17q-59 0 -109.5 -48.5t-78.5 -124.5t-28 -161q0 -52 14 -74.5t47 -22.5z" />
    <glyph glyph-name="A" unicode="A" horiz-adv-x="485" 
d="M394 0l-26 230h-260l-113 -230h-25l344 693h22l81 -693h-23zM118 251h248l-47 409z" />
    <glyph glyph-name="B" unicode="B" horiz-adv-x="494" 
d="M43 0l135 693h145q65 0 100.5 -36.5t35.5 -101.5q0 -73 -34 -127.5t-90 -71.5q44 -10 68 -43t24 -84q0 -65 -28 -117.5t-74 -82t-101 -29.5h-181zM132 345l-63 -324h154q53 0 94.5 28t64 75.5t22.5 105.5q0 55 -28.5 85t-79.5 30h-164zM196 672l-60 -306h159
q41 0 73.5 26t50 69t17.5 94q0 56 -30 86.5t-86 30.5h-124z" />
    <glyph glyph-name="C" unicode="C" horiz-adv-x="493" 
d="M434 48q-78 -63 -174 -63q-84 0 -131.5 65t-47.5 180q0 137 46 246t121.5 169t165.5 60q30 0 58.5 -8.5t50.5 -23.5l-4 -20q-49 30 -106 30q-88 0 -159 -62t-110 -164.5t-39 -224.5q0 -108 40.5 -166.5t116.5 -58.5q46 0 85 14t80 46z" />
    <glyph glyph-name="D" unicode="D" horiz-adv-x="564" 
d="M43 0l135 693h151q89 0 139.5 -64t50.5 -179q0 -129 -44 -232.5t-116.5 -160.5t-158.5 -57h-157zM196 672l-127 -651h130q86 0 154 59t105.5 157t37.5 213q0 106 -45 164t-126 58h-129z" />
    <glyph glyph-name="E" unicode="E" horiz-adv-x="454" 
d="M43 0l135 693h305l-4 -21h-283l-59 -301h245l-4 -21h-245l-64 -329h283l-4 -21h-305z" />
    <glyph glyph-name="F" unicode="F" horiz-adv-x="422" 
d="M131 340l-66 -340h-22l135 693h288l-4 -21h-266l-61 -311h229l-4 -21h-229z" />
    <glyph glyph-name="G" unicode="G" horiz-adv-x="564" 
d="M285 7q39 0 75.5 9t62.5 25l53 270h-156l4 21h177l-59 -303q-28 -20 -71.5 -32t-88.5 -12q-96 0 -148.5 68.5t-52.5 192.5q0 102 27 188t72.5 146.5t104 92.5t123.5 32q38 0 74.5 -10t62.5 -28l-4 -20q-61 36 -134 36q-87 0 -156.5 -59.5t-107.5 -158t-38 -217.5
q0 -118 46 -179.5t134 -61.5z" />
    <glyph glyph-name="H" unicode="H" horiz-adv-x="577" 
d="M414 0l68 345h-350l-67 -345h-22l135 693h22l-64 -327h350l63 327h22l-135 -693h-22z" />
    <glyph glyph-name="I" unicode="I" horiz-adv-x="206" 
d="M43 0l135 693h22l-135 -693h-22z" />
    <glyph glyph-name="J" unicode="J" horiz-adv-x="341" 
d="M317 693h22l-104 -534q-17 -89 -56 -131.5t-103 -42.5q-56 0 -91 26l4 20q35 -24 86 -24q58 0 90.5 37.5t49.5 122.5z" />
    <glyph glyph-name="K" unicode="K" horiz-adv-x="430" 
d="M43 0l135 693h22l-62 -318l319 318h28l-331 -329l221 -364h-26l-215 356l-69 -356h-22z" />
    <glyph glyph-name="L" unicode="L" horiz-adv-x="416" 
d="M43 0l135 693h22l-131 -672h282l-4 -21h-304z" />
    <glyph glyph-name="M" unicode="M" horiz-adv-x="665" 
d="M503 0l127 650l-299 -459h-21l-119 464l-127 -655h-21l135 693h25l121 -477l311 477h24l-135 -693h-21z" />
    <glyph glyph-name="N" unicode="N" horiz-adv-x="571" 
d="M406 0l-214 655l-128 -655h-21l135 693h24l214 -656l128 656h21l-135 -693h-24z" />
    <glyph glyph-name="O" unicode="O" horiz-adv-x="627" 
d="M379 683q-84 0 -145 -63t-95.5 -170t-34.5 -216t47 -168t133 -59q84 0 145 63t95.5 170t34.5 216t-47 168t-133 59zM382 705q95 0 147.5 -65.5t52.5 -183.5q0 -93 -24 -185t-64.5 -156t-94 -97t-118.5 -33q-95 0 -147.5 65.5t-52.5 183.5q0 93 24 185t64.5 156t94 97
t118.5 33z" />
    <glyph glyph-name="P" unicode="P" horiz-adv-x="472" 
d="M123 297l-58 -297h-22l135 693h135q75 0 115.5 -40.5t40.5 -115.5q0 -73 -30.5 -127.5t-83.5 -83.5t-121 -29h-111zM196 672l-69 -354h109q96 0 153 61t57 162q0 64 -35.5 97.5t-102.5 33.5h-112z" />
    <glyph glyph-name="Q" unicode="Q" horiz-adv-x="627" 
d="M382 705q95 0 147.5 -65.5t52.5 -183.5q0 -88 -22 -176t-59 -151.5t-85.5 -99.5t-107.5 -42q32 -42 78.5 -69.5t99.5 -37.5l-4 -22q-124 23 -202 127q-94 0 -146.5 65.5t-52.5 183.5q0 93 24 185t64.5 156t94 97t118.5 33zM379 683q-84 0 -145 -63t-95.5 -170t-34.5 -216
t47 -168t133 -59q84 0 145 63t95.5 170t34.5 216t-47 168t-133 59z" />
    <glyph glyph-name="R" unicode="R" horiz-adv-x="484" 
d="M386 0l-109 308q-10 -2 -35 -2h-118l-59 -306h-22l135 693h135q74 0 115 -41t41 -114q0 -87 -47 -149.5t-123 -77.5l110 -311h-23zM128 326h119q91 0 145 58t54 155q0 65 -36 99t-103 34h-111z" />
    <glyph glyph-name="S" unicode="S" horiz-adv-x="469" 
d="M237 352q-61 38 -87 76t-26 91q0 55 27 97.5t72 65.5t100 23q69 0 123 -39l-4 -20q-31 20 -59 28.5t-61 8.5q-77 0 -126 -45.5t-49 -117.5q0 -47 22 -80t76 -67l53 -33q51 -32 72.5 -66t21.5 -81q0 -62 -28 -109.5t-77 -73t-111 -25.5q-87 0 -140 42l4 21q53 -41 138 -41
q57 0 100.5 23.5t67 64t23.5 91.5q0 44 -18 74.5t-60 57.5z" />
    <glyph glyph-name="T" unicode="T" horiz-adv-x="435" 
d="M157 0l131 672h-184l4 21h390l-4 -21h-184l-131 -672h-22z" />
    <glyph glyph-name="U" unicode="U" horiz-adv-x="566" 
d="M542 693h22l-92 -472q-46 -236 -228 -236q-80 0 -122 44t-42 128q0 32 4 66t15 90l74 380h22l-75 -384q-12 -62 -15.5 -90.5t-3.5 -59.5q0 -152 145 -152q81 0 133 54.5t72 161.5z" />
    <glyph glyph-name="V" unicode="V" horiz-adv-x="483" 
d="M180 0l-75 693h22l70 -660l328 660h25l-346 -693h-24z" />
    <glyph glyph-name="W" unicode="W" horiz-adv-x="717" 
d="M443 0l-13 634l-260 -634h-25l-35 693h22l32 -658l260 633h26l12 -631l292 656h24l-310 -693h-25z" />
    <glyph glyph-name="X" unicode="X" horiz-adv-x="455" 
d="M364 0l-118 339l-251 -339h-28l269 360l-114 333h24l107 -317l235 317h27l-252 -337l126 -356h-25z" />
    <glyph glyph-name="Y" unicode="Y" horiz-adv-x="451" 
d="M164 0l49 250l-104 443h23l96 -419l261 419h25l-280 -445l-48 -248h-22z" />
    <glyph glyph-name="Z" unicode="Z" horiz-adv-x="458" 
d="M2 0l4 19l452 653h-305l4 21h333l-4 -19l-452 -653h326l-4 -21h-354z" />
    <glyph glyph-name="bracketleft" unicode="[" horiz-adv-x="277" 
d="M15 -144l174 898h154l-4 -21h-132l-166 -856h132l-4 -21h-154z" />
    <glyph glyph-name="backslash" unicode="\" horiz-adv-x="325" 
d="M132 754l104 -898h-21l-104 898h21z" />
    <glyph glyph-name="bracketright" unicode="]" horiz-adv-x="277" 
d="M282 754l-174 -898h-154l4 21h132l166 856h-132l4 21h154z" />
    <glyph glyph-name="asciicircum" unicode="^" 
d="M397 327l-80 342l-215 -342h-25l233 366h21l88 -366h-22z" />
    <glyph glyph-name="underscore" unicode="_" horiz-adv-x="400" 
d="M-72 -115l4 19h400l-4 -19h-400z" />
    <glyph glyph-name="grave" unicode="`" horiz-adv-x="500" 
d="M352 603l-53 145h27l46 -145h-20z" />
    <glyph glyph-name="a" unicode="a" horiz-adv-x="440" 
d="M144 -13q-49 0 -74.5 38.5t-25.5 111.5q0 108 35.5 195.5t92.5 135.5t123 48q48 0 109 -29l-95 -487h-19l16 92q-80 -105 -162 -105zM148 8q37 0 79.5 29.5t84.5 85.5l68 351q-44 21 -87 21q-64 0 -116 -50t-81 -131.5t-29 -176.5q0 -129 81 -129z" />
    <glyph glyph-name="b" unicode="b" horiz-adv-x="443" 
d="M198 740l-65 -332q44 53 85.5 80.5t78.5 27.5q47 0 73 -42.5t26 -119.5q0 -105 -33.5 -189.5t-89 -131t-121.5 -46.5q-56 0 -115 35l140 718h21zM293 495q-37 0 -82.5 -33t-83.5 -87l-66 -340q41 -27 96 -27q61 0 111 48t77.5 127t27.5 171q0 67 -21 104t-59 37z" />
    <glyph glyph-name="c" unicode="c" horiz-adv-x="381" 
d="M310 55q-32 -32 -71 -50t-77 -18q-57 0 -86.5 42.5t-29.5 124.5q0 103 36 186.5t93.5 129.5t124.5 46q38 0 74 -19l-4 -19q-41 17 -71 17q-66 0 -119 -48t-82 -125.5t-29 -168.5q0 -145 98 -145q69 0 135 64z" />
    <glyph glyph-name="d" unicode="d" horiz-adv-x="444" 
d="M294 0l16 92q-40 -51 -82.5 -78t-82.5 -27q-49 0 -75 38.5t-26 111.5q0 108 35.5 195t92.5 135.5t124 48.5q42 0 92 -23l48 247h21l-144 -740h-19zM294 495q-64 0 -116.5 -50t-81.5 -131.5t-29 -176.5q0 -129 82 -129q38 0 82 30.5t85 84.5l68 350q-49 22 -90 22z" />
    <glyph glyph-name="e" unicode="e" horiz-adv-x="394" 
d="M319 56q-32 -32 -73.5 -50.5t-82.5 -18.5q-59 0 -88 41t-29 125q0 77 21 145.5t54.5 117t74.5 74.5t84 26q42 0 66 -26.5t24 -72.5q0 -152 -249 -219l-53 -14v-30q0 -75 24 -110.5t74 -35.5q36 0 75 17.5t70 47.5zM279 495q-51 0 -96.5 -41.5t-75 -108t-37.5 -142.5
l50 14q227 63 227 200q0 38 -17.5 58t-50.5 20z" />
    <glyph glyph-name="f" unicode="f" horiz-adv-x="289" 
d="M66 0l94 483h-86l3 16l87 4l25 130q12 63 40 92t75 29q37 0 71 -21l-4 -18q-35 19 -65 19q-41 0 -63.5 -24t-32.5 -77l-25 -130h140l-4 -20h-140l-94 -483h-21z" />
    <glyph glyph-name="g" unicode="g" horiz-adv-x="447" 
d="M46 151q0 103 35.5 187.5t92.5 131t122 46.5q54 0 115 -29l-82 -422q-29 -150 -79 -216.5t-134 -66.5q-59 0 -107 37l6 20q46 -36 103 -36q74 0 118.5 61.5t72.5 205.5l10 53q-41 -57 -84.5 -87.5t-84.5 -30.5q-50 0 -77 38.5t-27 107.5zM153 26q40 0 86 35t87 96l61 317
q-45 21 -91 21q-64 0 -116.5 -48t-81.5 -126t-29 -170q0 -125 84 -125z" />
    <glyph glyph-name="h" unicode="h" horiz-adv-x="465" 
d="M130 396q45 56 95.5 88t92.5 32q89 0 89 -107q0 -19 -4 -47t-20 -111l-49 -251h-21l49 251q15 78 19 106t4 49q0 46 -17 67.5t-55 21.5q-42 0 -92 -34.5t-97 -95.5l-71 -365h-21l144 740h21z" />
    <glyph glyph-name="i" unicode="i" horiz-adv-x="193" 
d="M135 503h21l-98 -503h-21zM167 632q-19 0 -19 18q0 11 6.5 18.5t16.5 7.5q19 0 19 -18q0 -11 -6.5 -18.5t-16.5 -7.5z" />
    <glyph glyph-name="j" unicode="j" horiz-adv-x="193" 
d="M156 503l-116 -597q-14 -70 -34 -97t-58 -27q-20 0 -43 11l3 18q19 -9 38 -9q31 0 46 22t27 82l116 597h21zM167 632q-19 0 -19 18q0 11 6.5 18.5t16.5 7.5q19 0 19 -18q0 -11 -6.5 -18.5t-16.5 -7.5z" />
    <glyph glyph-name="k" unicode="k" horiz-adv-x="365" 
d="M32 0l144 740h21l-90 -465l250 228h31l-261 -236l185 -267h-27l-181 263l-51 -263h-21z" />
    <glyph glyph-name="l" unicode="l" horiz-adv-x="210" 
d="M130 7q-20 -10 -40 -10q-46 0 -46 50q0 13 7 49l125 644h21l-125 -644q-7 -35 -7 -49q0 -30 30 -30q15 0 30 6z" />
    <glyph glyph-name="m" unicode="m" horiz-adv-x="709" 
d="M558 0l49 251q14 69 18 98t4 56q0 47 -17.5 68.5t-53.5 21.5q-38 0 -83.5 -34.5t-90.5 -98.5q-1 -24 -19 -111l-49 -251h-21l49 251q15 74 18.5 101t3.5 53q0 47 -17.5 68.5t-53.5 21.5q-38 0 -82.5 -33.5t-88.5 -94.5l-71 -367h-21l98 503h19l-19 -106q40 55 85.5 87
t84.5 32q88 0 88 -104v-11.5t-1 -11.5q42 59 89 93t87 34q88 0 88 -108q0 -18 -2 -37.5t-7.5 -47.5t-13.5 -71l-49 -252h-21z" />
    <glyph glyph-name="n" unicode="n" horiz-adv-x="465" 
d="M313 0l49 251q15 78 19 106t4 49q0 46 -17 67.5t-55 21.5q-42 0 -92 -34.5t-97 -95.5l-71 -365h-21l98 503h19l-19 -108q44 56 94.5 88.5t93.5 32.5q89 0 89 -107q0 -20 -3.5 -45t-20.5 -113l-49 -251h-21z" />
    <glyph glyph-name="o" unicode="o" horiz-adv-x="452" 
d="M261 495q-58 0 -100 -46.5t-66 -125.5t-24 -158q0 -76 30.5 -116.5t88.5 -40.5t100 46.5t66 125.5t24 158q0 76 -30.5 116.5t-88.5 40.5zM188 -13q-66 0 -102.5 48t-36.5 134q0 89 29 173.5t76 129t109 44.5q66 0 102.5 -48t36.5 -134q0 -89 -29 -173.5t-76 -129
t-109 -44.5z" />
    <glyph glyph-name="p" unicode="p" horiz-adv-x="443" 
d="M395 354q0 -106 -33 -190.5t-88 -130.5t-120 -46q-51 0 -97 32l-44 -225h-21l138 709h19l-17 -96q42 52 84.5 80.5t79.5 28.5q47 0 73 -43t26 -119zM292 495q-37 0 -82 -33t-84 -87l-65 -336q24 -17 45.5 -24t51.5 -7q61 0 110.5 48t76.5 126.5t27 171.5q0 67 -21 104
t-59 37z" />
    <glyph glyph-name="q" unicode="q" horiz-adv-x="444" 
d="M44 137q0 108 35.5 195t93 135.5t123.5 48.5q51 0 112 -29l-135 -693h-21l58 297q-39 -50 -81.5 -77t-83.5 -27q-49 0 -75 38.5t-26 111.5zM149 8q38 0 82 30.5t85 84.5l68 351q-45 21 -90 21q-64 0 -116.5 -50.5t-81.5 -131.5t-29 -176q0 -129 82 -129z" />
    <glyph glyph-name="r" unicode="r" horiz-adv-x="268" 
d="M32 0l98 503h19l-17 -96q65 98 138 98q16 0 26 -3l-4 -20q-14 2 -27 2q-34 0 -67 -26t-73 -86l-72 -372h-21z" />
    <glyph glyph-name="s" unicode="s" horiz-adv-x="343" 
d="M105 374q0 -27 12 -47.5t40 -40.5l59 -42q31 -23 45 -47.5t14 -57.5q0 -69 -41.5 -110.5t-107.5 -41.5q-29 0 -60 9.5t-52 25.5l6 20q23 -16 51.5 -25t55.5 -9q57 0 91.5 34.5t34.5 94.5q0 25 -12 47.5t-33 37.5l-59 42q-35 25 -50.5 50.5t-15.5 57.5q0 63 40.5 103.5
t105.5 40.5q49 0 93 -25l-4 -20q-47 24 -91 24q-55 0 -88.5 -33t-33.5 -88z" />
    <glyph glyph-name="t" unicode="t" horiz-adv-x="303" 
d="M233 24q-40 -30 -87 -30q-36 0 -54.5 18t-18.5 53q0 22 17 109l60 309h-82l3 16l83 4l33 146h17l-29 -146h124l-4 -20h-124l-61 -315q-16 -80 -16 -103q0 -24 14.5 -37.5t39.5 -13.5q22 0 40 6t38 21z" />
    <glyph glyph-name="u" unicode="u" horiz-adv-x="456" 
d="M306 0l20 114q-40 -59 -90 -93t-94 -34q-41 0 -63.5 26t-22.5 75q0 41 25 169l48 246h21l-48 -246q-24 -121 -24 -167q0 -82 69 -82q43 0 92 36t93 101l70 358h21l-98 -503h-19z" />
    <glyph glyph-name="v" unicode="v" horiz-adv-x="366" 
d="M121 0l-60 503h21l55 -481q52 83 127.5 236t110.5 245h23q-31 -78 -79.5 -179t-95.5 -187t-81 -137h-21z" />
    <glyph glyph-name="w" unicode="w" horiz-adv-x="541" 
d="M328 0l-18 470l-196 -470h-23l-28 503h21l24 -473l196 473h24l17 -478q51 97 109 233.5t94 244.5h23q-44 -124 -103.5 -261t-116.5 -242h-23z" />
    <glyph glyph-name="x" unicode="x" horiz-adv-x="342" 
d="M255 0l-86 245l-177 -245h-27l195 264l-85 239h24l78 -226l163 226h26l-181 -245l94 -258h-24z" />
    <glyph glyph-name="y" unicode="y" horiz-adv-x="366" 
d="M-63 -199q41 11 81 48q58 56 117 151l-74 503h21l68 -481q49 85 118 232t107 249h23q-135 -336 -260 -533q-51 -79 -100 -127t-91 -60z" />
    <glyph glyph-name="z" unicode="z" horiz-adv-x="377" 
d="M-2 0l4 19l341 464h-247l4 20h274l-4 -19l-341 -464h255l-4 -20h-282z" />
    <glyph glyph-name="braceleft" unicode="{" horiz-adv-x="282" 
d="M136 -131q26 0 49 10l3 -20q-29 -11 -57 -11q-34 0 -54 20.5t-20 55.5q0 15 4 39.5t21 114.5l12 61q12 61 15.5 82t3.5 34q0 25 -12.5 36.5t-41.5 11.5h-13l4 21h15q35 0 53.5 20t28.5 69l45 232q12 61 37.5 89t68.5 28q26 0 49 -11l-4 -19q-24 9 -44 9
q-37 0 -57.5 -24.5t-31.5 -83.5l-41 -212q-11 -55 -25.5 -78.5t-38.5 -30.5q29 -14 29 -55q0 -20 -21 -127l-12 -62q-14 -73 -18.5 -98.5t-4.5 -39.5q0 -61 58 -61z" />
    <glyph glyph-name="bar" unicode="|" horiz-adv-x="211" 
d="M6 -206l186 960h21l-186 -960h-21z" />
    <glyph glyph-name="braceright" unicode="}" horiz-adv-x="282" 
d="M165 741q-26 0 -49 -10l-3 20q29 11 57 11q34 0 54 -20.5t20 -55.5q0 -15 -4 -39.5t-21 -114.5l-12 -61q-12 -61 -15.5 -82t-3.5 -34q0 -25 12.5 -36.5t41.5 -11.5h13l-4 -21h-15q-35 0 -53.5 -20t-28.5 -69l-45 -232q-12 -61 -37.5 -89t-68.5 -28q-26 0 -49 11l4 19
q24 -9 44 -9q37 0 57.5 24.5t31.5 83.5l41 212q10 54 24.5 78t39.5 31q-29 14 -29 55q0 20 21 127l12 62q14 73 18.5 98.5t4.5 39.5q0 61 -58 61z" />
    <glyph glyph-name="asciitilde" unicode="~" 
d="M251 338q-37 39 -53 50t-36 11q-29 0 -45.5 -21.5t-24.5 -69.5l-4 -24h-19q4 66 29 101t66 35q24 0 43 -11.5t51 -46.5q39 -41 54.5 -51.5t34.5 -10.5q29 0 45.5 21.5t24.5 69.5l4 24h19q-4 -66 -29 -101t-66 -35q-23 0 -41.5 11.5t-52.5 47.5z" />
    <glyph glyph-name="uni00A0" unicode="&#xa0;" horiz-adv-x="211" 
 />
    <glyph glyph-name="exclamdown" unicode="&#xa1;" horiz-adv-x="190" 
d="M119 326l-98 -519q-4 -3 -12 -3q-6 0 -11 3l102 519h19zM138 505q9 0 14.5 -5t5.5 -14q0 -12 -7 -19.5t-17 -7.5q-9 0 -14.5 5t-5.5 14q0 12 7 19.5t17 7.5z" />
    <glyph glyph-name="cent" unicode="&#xa2;" 
d="M177 -130l29 150q-55 5 -84.5 47.5t-29.5 115.5q0 93 28 169t76.5 124.5t109.5 62.5l30 154h19l-29 -151q6 1 12 1.5t12 0.5q21 0 44.5 -6.5t40.5 -17.5l-4 -19q-44 22 -82 22q-7 0 -13.5 -0.5t-13.5 -1.5l-93 -481q72 1 144 65l7 -16q-34 -33 -75.5 -51.5t-79.5 -18.5
l-29 -149h-19zM115 183q0 -65 24 -101t71 -41l92 475q-84 -23 -135.5 -115.5t-51.5 -217.5z" />
    <glyph glyph-name="sterling" unicode="&#xa3;" 
d="M196 345q-2 -109 -30.5 -193.5t-80.5 -130.5h303l-4 -21h-337l5 19q60 53 89.5 132.5t31.5 193.5h-81l4 20h77q0 17 -0.5 37t-0.5 38q0 125 53 196t145 71q35 0 67.5 -12.5t56.5 -34.5l-5 -19q-55 45 -120 45q-84 0 -129 -68t-45 -195q0 -12 0.5 -27.5t0.5 -30.5h183
l-4 -20h-179z" />
    <glyph glyph-name="currency" unicode="&#xa4;" 
d="M107 205q-24 38 -24 94q0 57 19 107.5t53 83.5l-46 71l17 14l46 -71q46 35 108 35q37 0 67 -12t50 -34l81 82l15 -16l-82 -84q24 -40 24 -94q0 -56 -19 -107t-54 -85l47 -71l-18 -13l-46 70q-47 -34 -107 -34q-77 0 -118 47l-81 -83l-15 16zM277 518q-53 0 -91.5 -28.5
t-59.5 -79t-21 -111.5q0 -66 35 -101.5t101 -35.5q53 0 91.5 28.5t59.5 79t21 111.5q0 66 -35 101.5t-101 35.5z" />
    <glyph glyph-name="yen" unicode="&#xa5;" 
d="M174 0l35 182h-148l4 19h147l10 51l-18 77h-115l4 19h107l-81 345h24l95 -420l253 420h25l-211 -345h110l-4 -19h-119l-48 -80l-10 -48h152l-4 -19h-152l-35 -182h-21z" />
    <glyph glyph-name="brokenbar" unicode="&#xa6;" horiz-adv-x="211" 
d="M6 -206l69 357h21l-69 -357h-21zM123 397l69 357h21l-69 -357h-21z" />
    <glyph glyph-name="section" unicode="&#xa7;" horiz-adv-x="378" 
d="M137 568q0 -30 13.5 -51.5t45.5 -42.5l73 -48q71 -47 71 -125q0 -53 -27.5 -93.5t-75.5 -59.5q22 -19 34 -45.5t12 -56.5q0 -62 -43.5 -102t-107.5 -40q-33 0 -66.5 10t-59.5 27l6 20q54 -36 119 -36q55 0 92.5 33.5t37.5 83.5q0 65 -55 101l-78 53q-35 24 -51.5 53.5
t-16.5 68.5q0 53 29.5 91.5t81.5 53.5q-56 39 -56 106q0 60 44.5 98.5t115.5 38.5q50 0 102 -25l-4 -20q-51 24 -100 24q-62 0 -99 -32t-37 -85zM82 321q0 -35 13.5 -59.5t46.5 -47.5l78 -54q46 18 72 54t26 81q0 38 -15.5 65t-50.5 50l-62 41q-108 -36 -108 -130z" />
    <glyph glyph-name="dieresis" unicode="&#xa8;" horiz-adv-x="500" 
d="M252 631q-8 0 -13.5 5t-5.5 14q0 11 6.5 18.5t16.5 7.5q8 0 13.5 -5t5.5 -14q0 -11 -7 -18.5t-16 -7.5zM410 631q-8 0 -13.5 5t-5.5 14q0 11 6.5 18.5t16.5 7.5q8 0 13.5 -5t5.5 -14q0 -11 -7 -18.5t-16 -7.5z" />
    <glyph glyph-name="copyright" unicode="&#xa9;" horiz-adv-x="674" 
d="M355 -7q-91 0 -160.5 46.5t-107 126t-37.5 179.5q0 105 40 185.5t109 123.5t156 43q91 0 160.5 -46.5t107 -126t37.5 -179.5q0 -105 -40 -185.5t-109 -123.5t-156 -43zM355 13q86 0 150.5 42.5t99 118t34.5 171.5q0 101 -36.5 176t-100.5 115.5t-147 40.5
q-86 0 -150.5 -42.5t-99 -118t-34.5 -171.5q0 -101 36.5 -176t100.5 -115.5t147 -40.5zM441 166q-36 -17 -72 -17q-66 0 -101.5 51.5t-35.5 146.5t36 146.5t102 51.5q17 0 36 -4.5t32 -12.5v-19q-36 16 -68 16q-57 0 -87 -44t-30 -129v-8q0 -84 30.5 -129.5t86.5 -45.5
q40 0 71 17v-20z" />
    <glyph glyph-name="ordfeminine" unicode="&#xaa;" horiz-adv-x="319" 
d="M156 342q-36 0 -57.5 21t-21.5 58q0 54 34.5 88t89.5 34q44 0 84 -21l6 33q7 36 7 60q0 63 -68 63q-44 0 -93 -26l-2 17q47 28 99 28q40 0 62 -21.5t22 -59.5q0 -18 -8 -60l-41 -210h-17l6 42q-20 -22 -47 -34t-55 -12zM160 361q26 0 53.5 13.5t49.5 36.5l18 94
q-35 19 -79 19q-47 0 -75.5 -27.5t-28.5 -73.5q0 -62 62 -62zM46 247l4 19h204l-4 -19h-204z" />
    <glyph glyph-name="guillemotleft" unicode="&#xab;" horiz-adv-x="334" 
d="M78 256l62 -205h-22l-63 208l142 208h24zM174 256l62 -205h-22l-63 208l142 208h24z" />
    <glyph glyph-name="logicalnot" unicode="&#xac;" 
d="M404 253l33 171h-344l4 20h365l-37 -191h-21z" />
    <glyph glyph-name="uni00AD" unicode="&#xad;" horiz-adv-x="332" 
d="M55 250l4 20h220l-4 -20h-220z" />
    <glyph glyph-name="registered" unicode="&#xae;" horiz-adv-x="472" 
d="M280 289q-60 0 -106.5 30.5t-71.5 82.5t-25 116q0 68 27 120.5t73 80.5t103 28q61 0 108 -30.5t72 -82.5t25 -116q0 -68 -27 -120t-73.5 -80.5t-104.5 -28.5zM280 308q84 0 135 57.5t51 152.5t-51 152.5t-135 57.5q-56 0 -97.5 -27t-64 -74.5t-22.5 -108.5
q0 -64 24 -111.5t65.5 -73t94.5 -25.5zM219 390v262h74q31 0 49.5 -22t18.5 -57q0 -26 -13 -45t-36 -27l56 -111h-23l-53 108h-55v-108h-18zM237 515h49q56 0 56 58q0 28 -13.5 44.5t-37.5 16.5h-54v-119z" />
    <glyph glyph-name="macron" unicode="&#xaf;" horiz-adv-x="500" 
d="M222 661l4 19h225l-4 -19h-225z" />
    <glyph glyph-name="degree" unicode="&#xb0;" horiz-adv-x="321" 
d="M211 449q-46 0 -74 28.5t-28 75.5q0 41 17.5 76t45.5 53.5t63 18.5q46 0 74 -28.5t28 -75.5q0 -41 -17.5 -76t-45.5 -53.5t-63 -18.5zM233 683q-31 0 -55 -17.5t-37 -47t-13 -62.5q0 -42 23 -65.5t62 -23.5q31 0 55 17.5t37 47t13 62.5q0 42 -23 65.5t-62 23.5z" />
    <glyph glyph-name="plusminus" unicode="&#xb1;" 
d="M281 410l-38 -196h-21l38 196h-172l4 20h172l38 195h21l-38 -195h172l-4 -20h-172zM22 71l4 20h365l-4 -20h-365z" />
    <glyph glyph-name="uni00B2" unicode="&#xb2;" horiz-adv-x="336" 
d="M348 690q0 -26 -14 -54t-53.5 -72.5t-152.5 -154.5h178l-4 -19h-206l4 18q98 94 143.5 142.5t64.5 79.5t19 60q0 31 -18.5 49t-50.5 18q-53 0 -97 -40l-3 18q45 42 101 42q40 0 64.5 -24.5t24.5 -62.5z" />
    <glyph glyph-name="uni00B3" unicode="&#xb3;" horiz-adv-x="336" 
d="M209 603q4 1 8 1h8q47 0 74 -23.5t27 -64.5q0 -60 -37 -97t-97 -37q-53 0 -87 25l4 19q19 -13 38.5 -18.5t45.5 -5.5q51 0 81.5 30.5t30.5 83.5q0 34 -22 52t-65 18q-28 0 -42 -3l3 14l149 153h-158l4 19h184l-3 -16z" />
    <glyph glyph-name="acute" unicode="&#xb4;" horiz-adv-x="500" 
d="M260 603l103 145h29l-110 -145h-22z" />
    <glyph glyph-name="mu" unicode="&#xb5;" 
d="M4 -206l138 709h21l-48 -246q-24 -121 -24 -164q0 -41 16.5 -63t48.5 -22q45 0 95.5 36t92.5 97l71 362h21l-80 -411q-5 -28 -5 -42q0 -32 27 -32q18 0 31 7l4 -16q-14 -10 -38 -10q-44 0 -44 50q0 28 8 61q-41 -57 -91 -90t-95 -33q-34 0 -53.5 20t-22.5 59l-53 -272
h-20z" />
    <glyph glyph-name="paragraph" unicode="&#xb6;" horiz-adv-x="482" 
d="M123 -206l92 475q-62 13 -95.5 54.5t-33.5 108.5q0 120 64 190.5t173 70.5h149l-155 -797h-21l151 777h-132l-171 -879h-21z" />
    <glyph glyph-name="periodcentered" unicode="&#xb7;" horiz-adv-x="184" 
d="M90 231q-9 0 -14.5 5t-5.5 14q0 12 7 19.5t17 7.5q9 0 14.5 -5t5.5 -14q0 -12 -7 -19.5t-17 -7.5z" />
    <glyph glyph-name="cedilla" unicode="&#xb8;" horiz-adv-x="500" 
d="M132 -253q48 29 73.5 61.5t25.5 65.5q0 37 -37 37q-18 0 -34 -6l4 18q18 8 35 8q25 0 39 -15t14 -42q0 -37 -29 -75t-80 -67z" />
    <glyph glyph-name="uni00B9" unicode="&#xb9;" horiz-adv-x="336" 
d="M221 390l69 356l-113 -52l4 20l117 55h17l-74 -379h-20z" />
    <glyph glyph-name="ordmasculine" unicode="&#xba;" horiz-adv-x="341" 
d="M197 342q-49 0 -75.5 32t-26.5 90q0 59 21 116t54.5 87t77.5 30q49 0 75.5 -32t26.5 -90q0 -59 -21 -116t-54.5 -87t-77.5 -30zM246 678q-39 0 -68 -30.5t-45.5 -82t-16.5 -102.5q0 -50 21 -76t62 -26q39 0 68 30.5t45.5 82t16.5 102.5q0 50 -21.5 76t-61.5 26zM51 247
l4 19h237l-4 -19h-237z" />
    <glyph glyph-name="guillemotright" unicode="&#xbb;" horiz-adv-x="334" 
d="M20 51l143 210l-62 206h22l63 -208l-142 -208h-24zM116 51l143 210l-62 206h22l63 -208l-142 -208h-24z" />
    <glyph glyph-name="onequarter" unicode="&#xbc;" horiz-adv-x="790" 
d="M228 0l386 693h23l-386 -693h-23zM663 84l-16 -84h-20l16 84h-178l3 17l235 278h18l-54 -276h48l-4 -19h-48zM647 103l47 240l-202 -240h155zM206 314l69 356l-113 -52l4 20l117 55h17l-74 -379h-20z" />
    <glyph glyph-name="onehalf" unicode="&#xbd;" horiz-adv-x="790" 
d="M203 0l386 693h23l-386 -693h-23zM721 300q0 -26 -14 -54t-53.5 -72.5t-152.5 -154.5h178l-4 -19h-206l4 18q98 94 143.5 142.5t64.5 79.5t19 60q0 31 -18.5 49t-50.5 18q-53 0 -97 -40l-3 18q45 42 101 42q40 0 64.5 -24.5t24.5 -62.5zM206 314l69 356l-113 -52l4 20
l117 55h17l-74 -379h-20z" />
    <glyph glyph-name="threequarters" unicode="&#xbe;" horiz-adv-x="790" 
d="M228 0l386 693h23l-386 -693h-23zM663 84l-16 -84h-20l16 84h-178l3 17l235 278h18l-54 -276h48l-4 -19h-48zM647 103l47 240l-202 -240h155zM194 527q4 1 8 1h8q47 0 74 -23.5t27 -64.5q0 -60 -37 -97t-97 -37q-53 0 -87 25l4 19q19 -13 38.5 -18.5t45.5 -5.5
q51 0 81.5 30.5t30.5 83.5q0 34 -22 52t-65 18q-28 0 -42 -3l3 14l149 153h-158l4 19h184l-3 -16z" />
    <glyph glyph-name="questiondown" unicode="&#xbf;" horiz-adv-x="356" 
d="M225 326l-29 -173l-33 -20q-163 -100 -163 -221q0 -46 25 -71t73 -25q65 0 126 48l3 -19q-63 -50 -132 -50q-55 0 -86 31.5t-31 87.5q0 69 50.5 132t147.5 117l32 163h17zM237 505q9 0 14.5 -5t5.5 -14q0 -12 -7 -19.5t-17 -7.5q-9 0 -14.5 5t-5.5 14q0 12 7 19.5t17 7.5
z" />
    <glyph glyph-name="Agrave" unicode="&#xc0;" horiz-adv-x="485" 
d="M394 0l-26 230h-260l-113 -230h-25l344 693h22l81 -693h-23zM118 251h248l-47 409zM317 769l-63 112h30l55 -112h-22z" />
    <glyph glyph-name="Aacute" unicode="&#xc1;" horiz-adv-x="485" 
d="M394 0l-26 230h-260l-113 -230h-25l344 693h22l81 -693h-23zM118 251h248l-47 409zM342 769h-24l96 112h32z" />
    <glyph glyph-name="Acircumflex" unicode="&#xc2;" horiz-adv-x="485" 
d="M394 0l-26 230h-260l-113 -230h-25l344 693h22l81 -693h-23zM118 251h248l-47 409zM353 873l-119 -104h-29l140 124h20l90 -124h-25z" />
    <glyph glyph-name="Atilde" unicode="&#xc3;" horiz-adv-x="485" 
d="M394 0l-26 230h-260l-113 -230h-25l344 693h22l81 -693h-23zM118 251h248l-47 409zM287 878q17 0 29 -8.5t29 -32.5q20 -26 28 -32.5t20 -6.5q30 0 43 50l7 27h18q-1 -16 -6 -31q-19 -65 -63 -65q-17 0 -29 8t-29 33q-18 25 -26.5 32t-21.5 7q-31 0 -44 -50l-7 -27h-18
q1 16 6 31q9 32 25.5 48.5t38.5 16.5z" />
    <glyph glyph-name="Adieresis" unicode="&#xc4;" horiz-adv-x="485" 
d="M394 0l-26 230h-260l-113 -230h-25l344 693h22l81 -693h-23zM118 251h248l-47 409zM263 802q-9 0 -14.5 5t-5.5 14q0 12 7 20t17 8q9 0 14.5 -5t5.5 -14q0 -12 -7 -20t-17 -8zM421 802q-9 0 -14.5 5t-5.5 14q0 12 7 20t17 8q9 0 14.5 -5t5.5 -14q0 -12 -7 -20t-17 -8z
" />
    <glyph glyph-name="Aring" unicode="&#xc5;" horiz-adv-x="485" 
d="M394 0l-26 230h-260l-113 -230h-25l344 693h22l81 -693h-23zM118 251h248l-47 409zM339 742q-36 0 -58 21t-22 55q0 41 27 68.5t67 27.5q36 0 58 -21t22 -55q0 -41 -27 -68.5t-67 -27.5zM350 895q-30 0 -50 -22t-20 -55q0 -26 17 -41.5t45 -15.5q30 0 50 22t20 55
q0 26 -17 41.5t-45 15.5z" />
    <glyph glyph-name="AE" unicode="&#xc6;" horiz-adv-x="748" 
d="M777 693l-4 -21h-283l-59 -301h245l-4 -21h-245l-64 -329h283l-4 -21h-305l53 271h-207l-186 -271h-27l478 693h329zM197 292h197l74 380h-10z" />
    <glyph glyph-name="Ccedilla" unicode="&#xc7;" horiz-adv-x="493" 
d="M434 48q-78 -63 -174 -63q-84 0 -131.5 65t-47.5 180q0 137 46 246t121.5 169t165.5 60q30 0 58.5 -8.5t50.5 -23.5l-4 -20q-49 30 -106 30q-88 0 -159 -62t-110 -164.5t-39 -224.5q0 -108 40.5 -166.5t116.5 -58.5q46 0 85 14t80 46zM193 -252q47 28 72.5 60.5
t25.5 65.5q0 36 -36 36q-19 0 -35 -6l4 19q18 8 36 8q25 0 39 -15t14 -42q0 -37 -29 -75t-80 -67z" />
    <glyph glyph-name="Egrave" unicode="&#xc8;" horiz-adv-x="454" 
d="M43 0l135 693h305l-4 -21h-283l-59 -301h245l-4 -21h-245l-64 -329h283l-4 -21h-305zM327 769l-63 112h30l55 -112h-22z" />
    <glyph glyph-name="Eacute" unicode="&#xc9;" horiz-adv-x="454" 
d="M43 0l135 693h305l-4 -21h-283l-59 -301h245l-4 -21h-245l-64 -329h283l-4 -21h-305zM352 769h-24l96 112h32z" />
    <glyph glyph-name="Ecircumflex" unicode="&#xca;" horiz-adv-x="454" 
d="M43 0l135 693h305l-4 -21h-283l-59 -301h245l-4 -21h-245l-64 -329h283l-4 -21h-305zM363 873l-119 -104h-29l140 124h20l90 -124h-25z" />
    <glyph glyph-name="Edieresis" unicode="&#xcb;" horiz-adv-x="454" 
d="M43 0l135 693h305l-4 -21h-283l-59 -301h245l-4 -21h-245l-64 -329h283l-4 -21h-305zM273 802q-9 0 -14.5 5t-5.5 14q0 12 7 20t17 8q9 0 14.5 -5t5.5 -14q0 -12 -7 -20t-17 -8zM431 802q-9 0 -14.5 5t-5.5 14q0 12 7 20t17 8q9 0 14.5 -5t5.5 -14q0 -12 -7 -20t-17 -8z
" />
    <glyph glyph-name="Igrave" unicode="&#xcc;" horiz-adv-x="206" 
d="M43 0l135 693h22l-135 -693h-22zM185 769l-63 112h30l55 -112h-22z" />
    <glyph glyph-name="Iacute" unicode="&#xcd;" horiz-adv-x="206" 
d="M43 0l135 693h22l-135 -693h-22zM210 769h-24l96 112h32z" />
    <glyph glyph-name="Icircumflex" unicode="&#xce;" horiz-adv-x="206" 
d="M43 0l135 693h22l-135 -693h-22zM221 873l-119 -104h-29l140 124h20l90 -124h-25z" />
    <glyph glyph-name="Idieresis" unicode="&#xcf;" horiz-adv-x="206" 
d="M43 0l135 693h22l-135 -693h-22zM131 802q-9 0 -14.5 5t-5.5 14q0 12 7 20t17 8q9 0 14.5 -5t5.5 -14q0 -12 -7 -20t-17 -8zM289 802q-9 0 -14.5 5t-5.5 14q0 12 7 20t17 8q9 0 14.5 -5t5.5 -14q0 -12 -7 -20t-17 -8z" />
    <glyph glyph-name="Eth" unicode="&#xd0;" horiz-adv-x="574" 
d="M53 0l67 346h-63l4 21h63l64 326h151q89 0 139.5 -64t50.5 -179q0 -129 -44 -232.5t-116.5 -160.5t-158.5 -57h-157zM142 346l-63 -325h130q86 0 154 59t105.5 157t37.5 213q0 106 -45 164t-126 58h-129l-60 -305h147l-4 -21h-147z" />
    <glyph glyph-name="Ntilde" unicode="&#xd1;" horiz-adv-x="571" 
d="M406 0l-214 655l-128 -655h-21l135 693h24l214 -656l128 656h21l-135 -693h-24zM337 878q17 0 29 -8.5t29 -32.5q20 -26 28 -32.5t20 -6.5q30 0 43 50l7 27h18q-1 -16 -6 -31q-19 -65 -63 -65q-17 0 -29 8t-29 33q-18 25 -26.5 32t-21.5 7q-31 0 -44 -50l-7 -27h-18
q1 16 6 31q9 32 25.5 48.5t38.5 16.5z" />
    <glyph glyph-name="Ograve" unicode="&#xd2;" horiz-adv-x="627" 
d="M379 683q-84 0 -145 -63t-95.5 -170t-34.5 -216t47 -168t133 -59q84 0 145 63t95.5 170t34.5 216t-47 168t-133 59zM382 705q95 0 147.5 -65.5t52.5 -183.5q0 -93 -24 -185t-64.5 -156t-94 -97t-118.5 -33q-95 0 -147.5 65.5t-52.5 183.5q0 93 24 185t64.5 156t94 97
t118.5 33zM391 769l-63 112h30l55 -112h-22z" />
    <glyph glyph-name="Oacute" unicode="&#xd3;" horiz-adv-x="627" 
d="M379 683q-84 0 -145 -63t-95.5 -170t-34.5 -216t47 -168t133 -59q84 0 145 63t95.5 170t34.5 216t-47 168t-133 59zM382 705q95 0 147.5 -65.5t52.5 -183.5q0 -93 -24 -185t-64.5 -156t-94 -97t-118.5 -33q-95 0 -147.5 65.5t-52.5 183.5q0 93 24 185t64.5 156t94 97
t118.5 33zM416 769h-24l96 112h32z" />
    <glyph glyph-name="Ocircumflex" unicode="&#xd4;" horiz-adv-x="627" 
d="M379 683q-84 0 -145 -63t-95.5 -170t-34.5 -216t47 -168t133 -59q84 0 145 63t95.5 170t34.5 216t-47 168t-133 59zM382 705q95 0 147.5 -65.5t52.5 -183.5q0 -93 -24 -185t-64.5 -156t-94 -97t-118.5 -33q-95 0 -147.5 65.5t-52.5 183.5q0 93 24 185t64.5 156t94 97
t118.5 33zM427 873l-119 -104h-29l140 124h20l90 -124h-25z" />
    <glyph glyph-name="Otilde" unicode="&#xd5;" horiz-adv-x="627" 
d="M379 683q-84 0 -145 -63t-95.5 -170t-34.5 -216t47 -168t133 -59q84 0 145 63t95.5 170t34.5 216t-47 168t-133 59zM382 705q95 0 147.5 -65.5t52.5 -183.5q0 -93 -24 -185t-64.5 -156t-94 -97t-118.5 -33q-95 0 -147.5 65.5t-52.5 183.5q0 93 24 185t64.5 156t94 97
t118.5 33zM361 878q17 0 29 -8.5t29 -32.5q20 -26 28 -32.5t20 -6.5q30 0 43 50l7 27h18q-1 -16 -6 -31q-19 -65 -63 -65q-17 0 -29 8t-29 33q-18 25 -26.5 32t-21.5 7q-31 0 -44 -50l-7 -27h-18q1 16 6 31q9 32 25.5 48.5t38.5 16.5z" />
    <glyph glyph-name="Odieresis" unicode="&#xd6;" horiz-adv-x="627" 
d="M379 683q-84 0 -145 -63t-95.5 -170t-34.5 -216t47 -168t133 -59q84 0 145 63t95.5 170t34.5 216t-47 168t-133 59zM382 705q95 0 147.5 -65.5t52.5 -183.5q0 -93 -24 -185t-64.5 -156t-94 -97t-118.5 -33q-95 0 -147.5 65.5t-52.5 183.5q0 93 24 185t64.5 156t94 97
t118.5 33zM337 802q-9 0 -14.5 5t-5.5 14q0 12 7 20t17 8q9 0 14.5 -5t5.5 -14q0 -12 -7 -20t-17 -8zM495 802q-9 0 -14.5 5t-5.5 14q0 12 7 20t17 8q9 0 14.5 -5t5.5 -14q0 -12 -7 -20t-17 -8z" />
    <glyph glyph-name="multiply" unicode="&#xd7;" 
d="M364 152l-104 173l-167 -173l-12 17l168 173l-106 175l18 14l104 -176l167 172l14 -15l-170 -174l105 -172z" />
    <glyph glyph-name="Oslash" unicode="&#xd8;" horiz-adv-x="627" 
d="M34 -9l77 95q-30 59 -30 148q0 93 24 185t64.5 156t94 97t118.5 33q53 0 93.5 -21t66.5 -62l73 91l14 -13l-77 -96q30 -58 30 -148q0 -93 -24 -185t-64.5 -156t-94 -97t-118.5 -33q-108 0 -160 83l-73 -90zM559 456q0 76 -24 128l-399 -496q46 -81 148 -81q84 0 145 63
t95.5 170t34.5 216zM379 683q-84 0 -145 -63t-95.5 -170t-34.5 -216q0 -74 23 -128l399 496q-46 81 -147 81z" />
    <glyph glyph-name="Ugrave" unicode="&#xd9;" horiz-adv-x="566" 
d="M542 693h22l-92 -472q-46 -236 -228 -236q-80 0 -122 44t-42 128q0 32 4 66t15 90l74 380h22l-75 -384q-12 -62 -15.5 -90.5t-3.5 -59.5q0 -152 145 -152q81 0 133 54.5t72 161.5zM364 769l-63 112h30l55 -112h-22z" />
    <glyph glyph-name="Uacute" unicode="&#xda;" horiz-adv-x="566" 
d="M542 693h22l-92 -472q-46 -236 -228 -236q-80 0 -122 44t-42 128q0 32 4 66t15 90l74 380h22l-75 -384q-12 -62 -15.5 -90.5t-3.5 -59.5q0 -152 145 -152q81 0 133 54.5t72 161.5zM389 769h-24l96 112h32z" />
    <glyph glyph-name="Ucircumflex" unicode="&#xdb;" horiz-adv-x="566" 
d="M542 693h22l-92 -472q-46 -236 -228 -236q-80 0 -122 44t-42 128q0 32 4 66t15 90l74 380h22l-75 -384q-12 -62 -15.5 -90.5t-3.5 -59.5q0 -152 145 -152q81 0 133 54.5t72 161.5zM400 873l-119 -104h-29l140 124h20l90 -124h-25z" />
    <glyph glyph-name="Udieresis" unicode="&#xdc;" horiz-adv-x="566" 
d="M542 693h22l-92 -472q-46 -236 -228 -236q-80 0 -122 44t-42 128q0 32 4 66t15 90l74 380h22l-75 -384q-12 -62 -15.5 -90.5t-3.5 -59.5q0 -152 145 -152q81 0 133 54.5t72 161.5zM310 802q-9 0 -14.5 5t-5.5 14q0 12 7 20t17 8q9 0 14.5 -5t5.5 -14q0 -12 -7 -20t-17 -8
zM468 802q-9 0 -14.5 5t-5.5 14q0 12 7 20t17 8q9 0 14.5 -5t5.5 -14q0 -12 -7 -20t-17 -8z" />
    <glyph glyph-name="Yacute" unicode="&#xdd;" horiz-adv-x="451" 
d="M164 0l49 250l-104 443h23l96 -419l261 419h25l-280 -445l-48 -248h-22zM330 769h-24l96 112h32z" />
    <glyph glyph-name="Thorn" unicode="&#xde;" horiz-adv-x="471" 
d="M43 0l135 693h21l-27 -139h111q74 0 114.5 -40.5t40.5 -115.5q0 -106 -65 -172.5t-169 -66.5h-109l-31 -159h-21zM168 534l-69 -355h108q94 0 151 61t57 162q0 65 -35 98.5t-101 33.5h-111z" />
    <glyph glyph-name="germandbls" unicode="&#xdf;" horiz-adv-x="448" 
d="M30 0l103 530q23 115 67.5 169.5t114.5 54.5q49 0 79.5 -34t30.5 -89q0 -53 -22.5 -91.5t-78.5 -82.5q-28 -23 -40.5 -44t-12.5 -48q0 -32 32 -64l33 -33q29 -29 43 -59t14 -64q0 -68 -44 -113t-110 -45q-31 0 -61 10t-49 26l5 19q45 -34 106 -34q57 0 94 38.5t37 97.5
q0 60 -44 102l-34 33q-24 24 -34 44t-10 42q0 31 15.5 57t50.5 53q47 37 68 73.5t21 82.5q0 47 -25 75t-66 28q-61 0 -100 -50t-59 -154l-103 -530h-21z" />
    <glyph glyph-name="agrave" unicode="&#xe0;" horiz-adv-x="440" 
d="M144 -13q-49 0 -74.5 38.5t-25.5 111.5q0 108 35.5 195.5t92.5 135.5t123 48q48 0 109 -29l-95 -487h-19l16 92q-80 -105 -162 -105zM148 8q37 0 79.5 29.5t84.5 85.5l68 351q-44 21 -87 21q-64 0 -116 -50t-81 -131.5t-29 -176.5q0 -129 81 -129zM280 603l-53 145h27
l46 -145h-20z" />
    <glyph glyph-name="aacute" unicode="&#xe1;" horiz-adv-x="440" 
d="M144 -13q-49 0 -74.5 38.5t-25.5 111.5q0 108 35.5 195.5t92.5 135.5t123 48q48 0 109 -29l-95 -487h-19l16 92q-80 -105 -162 -105zM148 8q37 0 79.5 29.5t84.5 85.5l68 351q-44 21 -87 21q-64 0 -116 -50t-81 -131.5t-29 -176.5q0 -129 81 -129zM278 603l103 145h29
l-110 -145h-22z" />
    <glyph glyph-name="acircumflex" unicode="&#xe2;" horiz-adv-x="440" 
d="M144 -13q-49 0 -74.5 38.5t-25.5 111.5q0 108 35.5 195.5t92.5 135.5t123 48q48 0 109 -29l-95 -487h-19l16 92q-80 -105 -162 -105zM148 8q37 0 79.5 29.5t84.5 85.5l68 351q-44 21 -87 21q-64 0 -116 -50t-81 -131.5t-29 -176.5q0 -129 81 -129zM317 728l-122 -125h-27
l141 145h22l82 -145h-23z" />
    <glyph glyph-name="atilde" unicode="&#xe3;" horiz-adv-x="440" 
d="M144 -13q-49 0 -74.5 38.5t-25.5 111.5q0 108 35.5 195.5t92.5 135.5t123 48q48 0 109 -29l-95 -487h-19l16 92q-80 -105 -162 -105zM148 8q37 0 79.5 29.5t84.5 85.5l68 351q-44 21 -87 21q-64 0 -116 -50t-81 -131.5t-29 -176.5q0 -129 81 -129zM256 718q17 0 29 -8.5
t30 -32.5q20 -26 28 -32.5t20 -6.5q33 0 46 50l7 27h17q-1 -16 -6 -31q-19 -65 -65 -65q-17 0 -29 8.5t-30 33.5q-18 24 -26.5 31t-21.5 7q-33 0 -46 -50l-7 -27h-17q1 16 6 31q18 65 65 65z" />
    <glyph glyph-name="adieresis" unicode="&#xe4;" horiz-adv-x="440" 
d="M144 -13q-49 0 -74.5 38.5t-25.5 111.5q0 108 35.5 195.5t92.5 135.5t123 48q48 0 109 -29l-95 -487h-19l16 92q-80 -105 -162 -105zM148 8q37 0 79.5 29.5t84.5 85.5l68 351q-44 21 -87 21q-64 0 -116 -50t-81 -131.5t-29 -176.5q0 -129 81 -129zM230 631q-8 0 -13.5 5
t-5.5 14q0 11 6.5 18.5t16.5 7.5q8 0 13.5 -5t5.5 -14q0 -11 -7 -18.5t-16 -7.5zM388 631q-8 0 -13.5 5t-5.5 14q0 11 6.5 18.5t16.5 7.5q8 0 13.5 -5t5.5 -14q0 -11 -7 -18.5t-16 -7.5z" />
    <glyph glyph-name="aring" unicode="&#xe5;" horiz-adv-x="440" 
d="M144 -13q-49 0 -74.5 38.5t-25.5 111.5q0 108 35.5 195.5t92.5 135.5t123 48q48 0 109 -29l-95 -487h-19l16 92q-80 -105 -162 -105zM148 8q37 0 79.5 29.5t84.5 85.5l68 351q-44 21 -87 21q-64 0 -116 -50t-81 -131.5t-29 -176.5q0 -129 81 -129zM304 584q-35 0 -56 22
t-21 58q0 42 27 74t68 32q35 0 56 -22t21 -58q0 -42 -27 -74t-68 -32zM321 751q-31 0 -52 -25t-21 -61q0 -28 15.5 -45t41.5 -17q31 0 52 25t21 61q0 28 -15.5 45t-41.5 17z" />
    <glyph glyph-name="ae" unicode="&#xe6;" horiz-adv-x="672" 
d="M558 516q42 0 66 -26.5t24 -72.5q0 -152 -249 -219l-53 -14v-30q0 -75 24 -110.5t74 -35.5q36 0 75 17.5t70 47.5l8 -17q-32 -32 -73.5 -50.5t-82.5 -18.5q-117 0 -117 165v8q-31 -83 -78.5 -128t-101.5 -45q-49 0 -74.5 38.5t-25.5 113.5q0 107 35.5 194t92.5 135
t123 48q74 0 129 -68q61 68 134 68zM293 495q-64 0 -116 -50t-81 -131t-29 -175q0 -131 81 -131q39 0 77.5 32.5t66.5 86t40 118.5q9 52 30 101.5t50 86.5q-30 33 -57.5 47.5t-61.5 14.5zM398 217q227 63 227 200q0 38 -17.5 58t-50.5 20q-51 0 -96.5 -41.5t-75 -108
t-37.5 -142.5z" />
    <glyph glyph-name="ccedilla" unicode="&#xe7;" horiz-adv-x="381" 
d="M310 55q-32 -32 -71 -50t-77 -18q-57 0 -86.5 42.5t-29.5 124.5q0 103 36 186.5t93.5 129.5t124.5 46q38 0 74 -19l-4 -19q-41 17 -71 17q-66 0 -119 -48t-82 -125.5t-29 -168.5q0 -145 98 -145q69 0 135 64zM96 -253q48 29 73.5 61.5t25.5 65.5q0 37 -37 37
q-18 0 -34 -6l4 18q18 8 35 8q25 0 39 -15t14 -42q0 -37 -29 -75t-80 -67z" />
    <glyph glyph-name="egrave" unicode="&#xe8;" horiz-adv-x="394" 
d="M319 56q-32 -32 -73.5 -50.5t-82.5 -18.5q-59 0 -88 41t-29 125q0 77 21 145.5t54.5 117t74.5 74.5t84 26q42 0 66 -26.5t24 -72.5q0 -152 -249 -219l-53 -14v-30q0 -75 24 -110.5t74 -35.5q36 0 75 17.5t70 47.5zM279 495q-51 0 -96.5 -41.5t-75 -108t-37.5 -142.5
l50 14q227 63 227 200q0 38 -17.5 58t-50.5 20zM267 603l-53 145h27l46 -145h-20z" />
    <glyph glyph-name="eacute" unicode="&#xe9;" horiz-adv-x="394" 
d="M319 56q-32 -32 -73.5 -50.5t-82.5 -18.5q-59 0 -88 41t-29 125q0 77 21 145.5t54.5 117t74.5 74.5t84 26q42 0 66 -26.5t24 -72.5q0 -152 -249 -219l-53 -14v-30q0 -75 24 -110.5t74 -35.5q36 0 75 17.5t70 47.5zM279 495q-51 0 -96.5 -41.5t-75 -108t-37.5 -142.5
l50 14q227 63 227 200q0 38 -17.5 58t-50.5 20zM265 603l103 145h29l-110 -145h-22z" />
    <glyph glyph-name="ecircumflex" unicode="&#xea;" horiz-adv-x="394" 
d="M319 56q-32 -32 -73.5 -50.5t-82.5 -18.5q-59 0 -88 41t-29 125q0 77 21 145.5t54.5 117t74.5 74.5t84 26q42 0 66 -26.5t24 -72.5q0 -152 -249 -219l-53 -14v-30q0 -75 24 -110.5t74 -35.5q36 0 75 17.5t70 47.5zM279 495q-51 0 -96.5 -41.5t-75 -108t-37.5 -142.5
l50 14q227 63 227 200q0 38 -17.5 58t-50.5 20zM304 728l-122 -125h-27l141 145h22l82 -145h-23z" />
    <glyph glyph-name="edieresis" unicode="&#xeb;" horiz-adv-x="394" 
d="M319 56q-32 -32 -73.5 -50.5t-82.5 -18.5q-59 0 -88 41t-29 125q0 77 21 145.5t54.5 117t74.5 74.5t84 26q42 0 66 -26.5t24 -72.5q0 -152 -249 -219l-53 -14v-30q0 -75 24 -110.5t74 -35.5q36 0 75 17.5t70 47.5zM279 495q-51 0 -96.5 -41.5t-75 -108t-37.5 -142.5
l50 14q227 63 227 200q0 38 -17.5 58t-50.5 20zM217 631q-8 0 -13.5 5t-5.5 14q0 11 6.5 18.5t16.5 7.5q8 0 13.5 -5t5.5 -14q0 -11 -7 -18.5t-16 -7.5zM375 631q-8 0 -13.5 5t-5.5 14q0 11 6.5 18.5t16.5 7.5q8 0 13.5 -5t5.5 -14q0 -11 -7 -18.5t-16 -7.5z" />
    <glyph glyph-name="igrave" unicode="&#xec;" horiz-adv-x="193" 
d="M135 503h21l-98 -503h-21zM138 603l-53 145h27l46 -145h-20z" />
    <glyph glyph-name="iacute" unicode="&#xed;" horiz-adv-x="193" 
d="M135 503h21l-98 -503h-21zM136 603l103 145h29l-110 -145h-22z" />
    <glyph glyph-name="icircumflex" unicode="&#xee;" horiz-adv-x="193" 
d="M135 503h21l-98 -503h-21zM175 728l-122 -125h-27l141 145h22l82 -145h-23z" />
    <glyph glyph-name="idieresis" unicode="&#xef;" horiz-adv-x="193" 
d="M135 503h21l-98 -503h-21zM88 631q-8 0 -13.5 5t-5.5 14q0 11 6.5 18.5t16.5 7.5q8 0 13.5 -5t5.5 -14q0 -11 -7 -18.5t-16 -7.5zM246 631q-8 0 -13.5 5t-5.5 14q0 11 6.5 18.5t16.5 7.5q8 0 13.5 -5t5.5 -14q0 -11 -7 -18.5t-16 -7.5z" />
    <glyph glyph-name="eth" unicode="&#xf0;" horiz-adv-x="445" 
d="M197 741q71 -23 117 -80l93 82l10 -13l-93 -82q69 -100 69 -296q0 -116 -25.5 -198t-73.5 -124.5t-113 -42.5q-62 0 -98.5 46.5t-36.5 124.5q0 88 28.5 164t76 116.5t109.5 40.5q27 0 50 -11.5t39.5 -32.5t25.5 -49q-5 161 -66 249l-88 -77l-10 13l88 77q-41 53 -106 75z
M183 8q56 0 98.5 39.5t65.5 107t23 150.5q0 68 -30 110.5t-81 42.5q-59 0 -101.5 -41t-66 -111t-23.5 -147q0 -70 31 -110.5t84 -40.5z" />
    <glyph glyph-name="ntilde" unicode="&#xf1;" horiz-adv-x="465" 
d="M313 0l49 251q15 78 19 106t4 49q0 46 -17 67.5t-55 21.5q-42 0 -92 -34.5t-97 -95.5l-71 -365h-21l98 503h19l-19 -108q44 56 94.5 88.5t93.5 32.5q89 0 89 -107q0 -20 -3.5 -45t-20.5 -113l-49 -251h-21zM256 718q17 0 29 -8.5t30 -32.5q20 -26 28 -32.5t20 -6.5
q33 0 46 50l7 27h17q-1 -16 -6 -31q-19 -65 -65 -65q-17 0 -29 8.5t-30 33.5q-18 24 -26.5 31t-21.5 7q-33 0 -46 -50l-7 -27h-17q1 16 6 31q18 65 65 65z" />
    <glyph glyph-name="ograve" unicode="&#xf2;" horiz-adv-x="452" 
d="M261 495q-58 0 -100 -46.5t-66 -125.5t-24 -158q0 -76 30.5 -116.5t88.5 -40.5t100 46.5t66 125.5t24 158q0 76 -30.5 116.5t-88.5 40.5zM188 -13q-66 0 -102.5 48t-36.5 134q0 89 29 173.5t76 129t109 44.5q66 0 102.5 -48t36.5 -134q0 -89 -29 -173.5t-76 -129
t-109 -44.5zM266 603l-53 145h27l46 -145h-20z" />
    <glyph glyph-name="oacute" unicode="&#xf3;" horiz-adv-x="452" 
d="M261 495q-58 0 -100 -46.5t-66 -125.5t-24 -158q0 -76 30.5 -116.5t88.5 -40.5t100 46.5t66 125.5t24 158q0 76 -30.5 116.5t-88.5 40.5zM188 -13q-66 0 -102.5 48t-36.5 134q0 89 29 173.5t76 129t109 44.5q66 0 102.5 -48t36.5 -134q0 -89 -29 -173.5t-76 -129
t-109 -44.5zM264 603l103 145h29l-110 -145h-22z" />
    <glyph glyph-name="ocircumflex" unicode="&#xf4;" horiz-adv-x="452" 
d="M261 495q-58 0 -100 -46.5t-66 -125.5t-24 -158q0 -76 30.5 -116.5t88.5 -40.5t100 46.5t66 125.5t24 158q0 76 -30.5 116.5t-88.5 40.5zM188 -13q-66 0 -102.5 48t-36.5 134q0 89 29 173.5t76 129t109 44.5q66 0 102.5 -48t36.5 -134q0 -89 -29 -173.5t-76 -129
t-109 -44.5zM303 728l-122 -125h-27l141 145h22l82 -145h-23z" />
    <glyph glyph-name="otilde" unicode="&#xf5;" horiz-adv-x="452" 
d="M261 495q-58 0 -100 -46.5t-66 -125.5t-24 -158q0 -76 30.5 -116.5t88.5 -40.5t100 46.5t66 125.5t24 158q0 76 -30.5 116.5t-88.5 40.5zM188 -13q-66 0 -102.5 48t-36.5 134q0 89 29 173.5t76 129t109 44.5q66 0 102.5 -48t36.5 -134q0 -89 -29 -173.5t-76 -129
t-109 -44.5zM242 718q17 0 29 -8.5t30 -32.5q20 -26 28 -32.5t20 -6.5q33 0 46 50l7 27h17q-1 -16 -6 -31q-19 -65 -65 -65q-17 0 -29 8.5t-30 33.5q-18 24 -26.5 31t-21.5 7q-33 0 -46 -50l-7 -27h-17q1 16 6 31q18 65 65 65z" />
    <glyph glyph-name="odieresis" unicode="&#xf6;" horiz-adv-x="452" 
d="M261 495q-58 0 -100 -46.5t-66 -125.5t-24 -158q0 -76 30.5 -116.5t88.5 -40.5t100 46.5t66 125.5t24 158q0 76 -30.5 116.5t-88.5 40.5zM188 -13q-66 0 -102.5 48t-36.5 134q0 89 29 173.5t76 129t109 44.5q66 0 102.5 -48t36.5 -134q0 -89 -29 -173.5t-76 -129
t-109 -44.5zM216 631q-8 0 -13.5 5t-5.5 14q0 11 6.5 18.5t16.5 7.5q8 0 13.5 -5t5.5 -14q0 -11 -7 -18.5t-16 -7.5zM374 631q-8 0 -13.5 5t-5.5 14q0 11 6.5 18.5t16.5 7.5q8 0 13.5 -5t5.5 -14q0 -11 -7 -18.5t-16 -7.5z" />
    <glyph glyph-name="divide" unicode="&#xf7;" 
d="M77 342l4 20h365l-4 -20h-365zM227 158q-19 0 -19 19q0 11 6.5 18.5t15.5 7.5q19 0 19 -19q0 -11 -6.5 -18.5t-15.5 -7.5zM293 496q-19 0 -19 19q0 11 6.5 18.5t15.5 7.5q19 0 19 -19q0 -11 -6.5 -18.5t-15.5 -7.5z" />
    <glyph glyph-name="oslash" unicode="&#xf8;" horiz-adv-x="452" 
d="M14 -6l54 70q-19 41 -19 105q0 89 29 173.5t76 129t109 44.5q73 0 110 -59l47 61l14 -13l-51 -66q19 -44 19 -105q0 -89 -29 -173.5t-76 -129t-109 -44.5q-75 0 -110 58l-50 -64zM261 495q-58 0 -100 -46.5t-66 -125.5t-24 -158q0 -47 12 -82l276 356q-31 56 -98 56z
M380 338q0 48 -12 81l-276 -356q29 -55 98 -55q58 0 100 46.5t66 125.5t24 158z" />
    <glyph glyph-name="ugrave" unicode="&#xf9;" horiz-adv-x="456" 
d="M306 0l20 114q-40 -59 -90 -93t-94 -34q-41 0 -63.5 26t-22.5 75q0 41 25 169l48 246h21l-48 -246q-24 -121 -24 -167q0 -82 69 -82q43 0 92 36t93 101l70 358h21l-98 -503h-19zM268 603l-53 145h27l46 -145h-20z" />
    <glyph glyph-name="uacute" unicode="&#xfa;" horiz-adv-x="456" 
d="M306 0l20 114q-40 -59 -90 -93t-94 -34q-41 0 -63.5 26t-22.5 75q0 41 25 169l48 246h21l-48 -246q-24 -121 -24 -167q0 -82 69 -82q43 0 92 36t93 101l70 358h21l-98 -503h-19zM266 603l103 145h29l-110 -145h-22z" />
    <glyph glyph-name="ucircumflex" unicode="&#xfb;" horiz-adv-x="456" 
d="M306 0l20 114q-40 -59 -90 -93t-94 -34q-41 0 -63.5 26t-22.5 75q0 41 25 169l48 246h21l-48 -246q-24 -121 -24 -167q0 -82 69 -82q43 0 92 36t93 101l70 358h21l-98 -503h-19zM305 728l-122 -125h-27l141 145h22l82 -145h-23z" />
    <glyph glyph-name="udieresis" unicode="&#xfc;" horiz-adv-x="456" 
d="M306 0l20 114q-40 -59 -90 -93t-94 -34q-41 0 -63.5 26t-22.5 75q0 41 25 169l48 246h21l-48 -246q-24 -121 -24 -167q0 -82 69 -82q43 0 92 36t93 101l70 358h21l-98 -503h-19zM218 631q-8 0 -13.5 5t-5.5 14q0 11 6.5 18.5t16.5 7.5q8 0 13.5 -5t5.5 -14
q0 -11 -7 -18.5t-16 -7.5zM376 631q-8 0 -13.5 5t-5.5 14q0 11 6.5 18.5t16.5 7.5q8 0 13.5 -5t5.5 -14q0 -11 -7 -18.5t-16 -7.5z" />
    <glyph glyph-name="yacute" unicode="&#xfd;" horiz-adv-x="366" 
d="M-63 -199q41 11 81 48q58 56 117 151l-74 503h21l68 -481q49 85 118 232t107 249h23q-135 -336 -260 -533q-51 -79 -100 -127t-91 -60zM215 603l103 145h29l-110 -145h-22z" />
    <glyph glyph-name="thorn" unicode="&#xfe;" horiz-adv-x="443" 
d="M133 409q42 52 84 79.5t79 27.5q47 0 73 -43t26 -119q0 -105 -33.5 -189.5t-88.5 -131t-119 -46.5q-51 0 -97 32l-44 -225h-21l184 946h21zM292 495q-37 0 -79.5 -31t-86.5 -90l-65 -335q24 -17 45.5 -24t51.5 -7q61 0 110.5 48.5t76.5 127t27 170.5q0 67 -21 104t-59 37
z" />
    <glyph glyph-name="ydieresis" unicode="&#xff;" horiz-adv-x="366" 
d="M-63 -199q41 11 81 48q58 56 117 151l-74 503h21l68 -481q49 85 118 232t107 249h23q-135 -336 -260 -533q-51 -79 -100 -127t-91 -60zM167 631q-8 0 -13.5 5t-5.5 14q0 11 6.5 18.5t16.5 7.5q8 0 13.5 -5t5.5 -14q0 -11 -7 -18.5t-16 -7.5zM325 631q-8 0 -13.5 5
t-5.5 14q0 11 6.5 18.5t16.5 7.5q8 0 13.5 -5t5.5 -14q0 -11 -7 -18.5t-16 -7.5z" />
    <glyph glyph-name="Amacron" unicode="&#x100;" horiz-adv-x="485" 
d="M394 0l-26 230h-260l-113 -230h-25l344 693h22l81 -693h-23zM118 251h248l-47 409zM225 819l4 20h225l-4 -20h-225z" />
    <glyph glyph-name="amacron" unicode="&#x101;" horiz-adv-x="440" 
d="M144 -13q-49 0 -74.5 38.5t-25.5 111.5q0 108 35.5 195.5t92.5 135.5t123 48q48 0 109 -29l-95 -487h-19l16 92q-80 -105 -162 -105zM148 8q37 0 79.5 29.5t84.5 85.5l68 351q-44 21 -87 21q-64 0 -116 -50t-81 -131.5t-29 -176.5q0 -129 81 -129zM200 661l4 19h225
l-4 -19h-225z" />
    <glyph glyph-name="Abreve" unicode="&#x102;" horiz-adv-x="485" 
d="M394 0l-26 230h-260l-113 -230h-25l344 693h22l81 -693h-23zM118 251h248l-47 409zM335 768q-37 0 -58 18.5t-21 52.5q0 10 2.5 21.5t6.5 17.5h18q-6 -21 -6 -38q0 -52 60 -52q37 0 61 20t32 57l3 13h19q-3 -49 -35.5 -79.5t-81.5 -30.5z" />
    <glyph glyph-name="abreve" unicode="&#x103;" horiz-adv-x="440" 
d="M144 -13q-49 0 -74.5 38.5t-25.5 111.5q0 108 35.5 195.5t92.5 135.5t123 48q48 0 109 -29l-95 -487h-19l16 92q-80 -105 -162 -105zM148 8q37 0 79.5 29.5t84.5 85.5l68 351q-44 21 -87 21q-64 0 -116 -50t-81 -131.5t-29 -176.5q0 -129 81 -129zM293 601q-37 0 -58 22
t-21 62q0 12 2.5 25.5t6.5 20.5h17q-6 -24 -6 -45q0 -32 16 -49t45 -17q37 0 62 25t33 70l3 16h18q-3 -58 -35.5 -94t-82.5 -36z" />
    <glyph glyph-name="Aogonek" unicode="&#x104;" horiz-adv-x="485" 
d="M395 0l-26 230h-260l-113 -230h-25l344 693h22l81 -693h-23zM119 251h248l-47 409zM405 -193q-23 -20 -54 -20q-29 0 -44.5 16.5t-15.5 48.5q0 43 29 84t82 73l15 -9q-50 -34 -76.5 -71.5t-26.5 -76.5q0 -44 41 -44q20 0 44 16z" />
    <glyph glyph-name="aogonek" unicode="&#x105;" horiz-adv-x="440" 
d="M144 -13q-49 0 -74.5 38.5t-25.5 111.5q0 108 35.5 195.5t92.5 135.5t123 48q48 0 109 -29l-95 -487h-19l16 92q-80 -105 -162 -105zM148 8q37 0 79.5 29.5t84.5 85.5l68 351q-44 21 -87 21q-64 0 -116 -50t-81 -131.5t-29 -176.5q0 -129 81 -129zM297 -193
q-23 -20 -53 -20q-29 0 -44.5 16.5t-15.5 48.5q0 43 29 84t82 73l14 -9q-50 -34 -76.5 -71.5t-26.5 -76.5q0 -45 42 -45q20 0 44 16z" />
    <glyph glyph-name="Cacute" unicode="&#x106;" horiz-adv-x="493" 
d="M434 48q-78 -63 -174 -63q-84 0 -131.5 65t-47.5 180q0 137 46 246t121.5 169t165.5 60q30 0 58.5 -8.5t50.5 -23.5l-4 -20q-49 30 -106 30q-88 0 -159 -62t-110 -164.5t-39 -224.5q0 -108 40.5 -166.5t116.5 -58.5q46 0 85 14t80 46zM423 769h-24l96 112h32z" />
    <glyph glyph-name="cacute" unicode="&#x107;" horiz-adv-x="381" 
d="M310 55q-32 -32 -71 -50t-77 -18q-57 0 -86.5 42.5t-29.5 124.5q0 103 36 186.5t93.5 129.5t124.5 46q38 0 74 -19l-4 -19q-41 17 -71 17q-66 0 -119 -48t-82 -125.5t-29 -168.5q0 -145 98 -145q69 0 135 64zM275 603l103 145h29l-110 -145h-22z" />
    <glyph glyph-name="Ccircumflex" unicode="&#x108;" horiz-adv-x="493" 
d="M434 48q-78 -63 -174 -63q-84 0 -131.5 65t-47.5 180q0 137 46 246t121.5 169t165.5 60q30 0 58.5 -8.5t50.5 -23.5l-4 -20q-49 30 -106 30q-88 0 -159 -62t-110 -164.5t-39 -224.5q0 -108 40.5 -166.5t116.5 -58.5q46 0 85 14t80 46zM434 873l-119 -104h-29l140 124h20
l90 -124h-25z" />
    <glyph glyph-name="ccircumflex" unicode="&#x109;" horiz-adv-x="381" 
d="M310 55q-32 -32 -71 -50t-77 -18q-57 0 -86.5 42.5t-29.5 124.5q0 103 36 186.5t93.5 129.5t124.5 46q38 0 74 -19l-4 -19q-41 17 -71 17q-66 0 -119 -48t-82 -125.5t-29 -168.5q0 -145 98 -145q69 0 135 64zM314 728l-122 -125h-27l141 145h22l82 -145h-23z" />
    <glyph glyph-name="Cdotaccent" unicode="&#x10a;" horiz-adv-x="493" 
d="M434 48q-78 -63 -174 -63q-84 0 -131.5 65t-47.5 180q0 137 46 246t121.5 169t165.5 60q30 0 58.5 -8.5t50.5 -23.5l-4 -20q-49 30 -106 30q-88 0 -159 -62t-110 -164.5t-39 -224.5q0 -108 40.5 -166.5t116.5 -58.5q46 0 85 14t80 46zM423 802q-21 0 -21 20q0 12 7 20
t18 8q21 0 21 -20q0 -12 -7.5 -20t-17.5 -8z" />
    <glyph glyph-name="cdotaccent" unicode="&#x10b;" horiz-adv-x="381" 
d="M310 55q-32 -32 -71 -50t-77 -18q-57 0 -86.5 42.5t-29.5 124.5q0 103 36 186.5t93.5 129.5t124.5 46q38 0 74 -19l-4 -19q-41 17 -71 17q-66 0 -119 -48t-82 -125.5t-29 -168.5q0 -145 98 -145q69 0 135 64zM302 630q-9 0 -14.5 5t-5.5 14q0 12 7 19.5t17 7.5
q9 0 14.5 -5t5.5 -14q0 -12 -7 -19.5t-17 -7.5z" />
    <glyph glyph-name="Ccaron" unicode="&#x10c;" horiz-adv-x="493" 
d="M434 48q-78 -63 -174 -63q-84 0 -131.5 65t-47.5 180q0 137 46 246t121.5 169t165.5 60q30 0 58.5 -8.5t50.5 -23.5l-4 -20q-49 30 -106 30q-88 0 -159 -62t-110 -164.5t-39 -224.5q0 -108 40.5 -166.5t116.5 -58.5q46 0 85 14t80 46zM339 893l75 -106l117 106h31
l-140 -124h-20l-90 124h27z" />
    <glyph glyph-name="ccaron" unicode="&#x10d;" horiz-adv-x="381" 
d="M310 55q-32 -32 -71 -50t-77 -18q-57 0 -86.5 42.5t-29.5 124.5q0 103 36 186.5t93.5 129.5t124.5 46q38 0 74 -19l-4 -19q-41 17 -71 17q-66 0 -119 -48t-82 -125.5t-29 -168.5q0 -145 98 -145q69 0 135 64zM220 748l71 -127l120 127h29l-140 -145h-22l-83 145h25z" />
    <glyph glyph-name="Dcaron" unicode="&#x10e;" horiz-adv-x="564" 
d="M43 0l135 693h151q89 0 139.5 -64t50.5 -179q0 -129 -44 -232.5t-116.5 -160.5t-158.5 -57h-157zM196 672l-127 -651h130q86 0 154 59t105.5 157t37.5 213q0 106 -45 164t-126 58h-129zM275 893l75 -106l117 106h31l-140 -124h-20l-90 124h27z" />
    <glyph glyph-name="dcaron" unicode="&#x10f;" horiz-adv-x="465" 
d="M294 0l16 92q-40 -51 -82.5 -78t-82.5 -27q-49 0 -75 38.5t-26 111.5q0 108 35.5 195t92.5 135.5t124 48.5q42 0 92 -23l48 247h21l-144 -740h-19zM294 495q-64 0 -116.5 -50t-81.5 -131.5t-29 -176.5q0 -129 82 -129q38 0 82 30.5t85 84.5l68 350q-49 22 -90 22z
M503 559l36 188q5 5 12 5t10 -5l-43 -188h-15z" />
    <glyph glyph-name="Dcroat" unicode="&#x110;" horiz-adv-x="574" 
d="M53 0l67 346h-63l4 21h63l64 326h151q89 0 139.5 -64t50.5 -179q0 -129 -44 -232.5t-116.5 -160.5t-158.5 -57h-157zM142 346l-63 -325h130q86 0 154 59t105.5 157t37.5 213q0 106 -45 164t-126 58h-129l-60 -305h147l-4 -21h-147z" />
    <glyph glyph-name="dcroat" unicode="&#x111;" horiz-adv-x="444" 
d="M433 618l-120 -618h-19l16 92q-40 -51 -82.5 -78t-82.5 -27q-49 0 -75 38.5t-26 111.5q0 108 35.5 195t92.5 135.5t124 48.5q42 0 92 -23l24 125h-171l4 19h170l21 103h21l-20 -103h52l-4 -19h-52zM294 495q-64 0 -116.5 -50t-81.5 -131.5t-29 -176.5q0 -129 82 -129
q38 0 82 30.5t85 84.5l68 350q-49 22 -90 22z" />
    <glyph glyph-name="Emacron" unicode="&#x112;" horiz-adv-x="454" 
d="M43 0l135 693h305l-4 -21h-283l-59 -301h245l-4 -21h-245l-64 -329h283l-4 -21h-305zM235 819l4 20h225l-4 -20h-225z" />
    <glyph glyph-name="emacron" unicode="&#x113;" horiz-adv-x="394" 
d="M319 56q-32 -32 -73.5 -50.5t-82.5 -18.5q-59 0 -88 41t-29 125q0 77 21 145.5t54.5 117t74.5 74.5t84 26q42 0 66 -26.5t24 -72.5q0 -152 -249 -219l-53 -14v-30q0 -75 24 -110.5t74 -35.5q36 0 75 17.5t70 47.5zM279 495q-51 0 -96.5 -41.5t-75 -108t-37.5 -142.5
l50 14q227 63 227 200q0 38 -17.5 58t-50.5 20zM187 661l4 19h225l-4 -19h-225z" />
    <glyph glyph-name="Ebreve" unicode="&#x114;" horiz-adv-x="454" 
d="M43 0l135 693h305l-4 -21h-283l-59 -301h245l-4 -21h-245l-64 -329h283l-4 -21h-305zM345 768q-37 0 -58 18.5t-21 52.5q0 10 2.5 21.5t6.5 17.5h18q-6 -21 -6 -38q0 -52 60 -52q37 0 61 20t32 57l3 13h19q-3 -49 -35.5 -79.5t-81.5 -30.5z" />
    <glyph glyph-name="ebreve" unicode="&#x115;" horiz-adv-x="394" 
d="M319 56q-32 -32 -73.5 -50.5t-82.5 -18.5q-59 0 -88 41t-29 125q0 77 21 145.5t54.5 117t74.5 74.5t84 26q42 0 66 -26.5t24 -72.5q0 -152 -249 -219l-53 -14v-30q0 -75 24 -110.5t74 -35.5q36 0 75 17.5t70 47.5zM279 495q-51 0 -96.5 -41.5t-75 -108t-37.5 -142.5
l50 14q227 63 227 200q0 38 -17.5 58t-50.5 20zM280 601q-37 0 -58 22t-21 62q0 12 2.5 25.5t6.5 20.5h17q-6 -24 -6 -45q0 -32 16 -49t45 -17q37 0 62 25t33 70l3 16h18q-3 -58 -35.5 -94t-82.5 -36z" />
    <glyph glyph-name="Edotaccent" unicode="&#x116;" horiz-adv-x="454" 
d="M43 0l135 693h305l-4 -21h-283l-59 -301h245l-4 -21h-245l-64 -329h283l-4 -21h-305zM352 802q-21 0 -21 20q0 12 7 20t18 8q21 0 21 -20q0 -12 -7.5 -20t-17.5 -8z" />
    <glyph glyph-name="edotaccent" unicode="&#x117;" horiz-adv-x="394" 
d="M319 56q-32 -32 -73.5 -50.5t-82.5 -18.5q-59 0 -88 41t-29 125q0 77 21 145.5t54.5 117t74.5 74.5t84 26q42 0 66 -26.5t24 -72.5q0 -152 -249 -219l-53 -14v-30q0 -75 24 -110.5t74 -35.5q36 0 75 17.5t70 47.5zM279 495q-51 0 -96.5 -41.5t-75 -108t-37.5 -142.5
l50 14q227 63 227 200q0 38 -17.5 58t-50.5 20zM292 630q-9 0 -14.5 5t-5.5 14q0 12 7 19.5t17 7.5q9 0 14.5 -5t5.5 -14q0 -12 -7 -19.5t-17 -7.5z" />
    <glyph glyph-name="Eogonek" unicode="&#x118;" horiz-adv-x="454" 
d="M43 0l135 693h305l-4 -21h-283l-59 -301h245l-4 -21h-245l-64 -329h283l-4 -21h-305zM336 -193q-23 -20 -54 -20q-29 0 -44.5 16.5t-15.5 48.5q0 43 29 84t82 73l15 -9q-50 -34 -76.5 -71.5t-26.5 -76.5q0 -44 41 -44q20 0 44 16z" />
    <glyph glyph-name="eogonek" unicode="&#x119;" horiz-adv-x="394" 
d="M163 -13q-59 0 -88 41t-29 125q0 77 21 145.5t54.5 117t74.5 74.5t84 26q42 0 66 -26.5t24 -72.5q0 -152 -249 -219l-53 -14v-30q0 -75 24 -110.5t74 -35.5q36 0 75 17.5t70 47.5l8 -17q-24 -24 -63 -46q-61 -34 -92.5 -73.5t-31.5 -83.5q0 -46 42 -46q20 0 44 16l5 -16
q-23 -20 -53 -20q-29 0 -44.5 17t-15.5 49q0 38 22.5 74t65.5 64q-16 -4 -35 -4zM120 217q227 63 227 200q0 38 -17.5 58t-50.5 20q-51 0 -96.5 -41.5t-75 -108t-37.5 -142.5z" />
    <glyph glyph-name="Ecaron" unicode="&#x11a;" horiz-adv-x="454" 
d="M43 0l135 693h305l-4 -21h-283l-59 -301h245l-4 -21h-245l-64 -329h283l-4 -21h-305zM268 893l75 -106l117 106h31l-140 -124h-20l-90 124h27z" />
    <glyph glyph-name="ecaron" unicode="&#x11b;" horiz-adv-x="394" 
d="M319 56q-32 -32 -73.5 -50.5t-82.5 -18.5q-59 0 -88 41t-29 125q0 77 21 145.5t54.5 117t74.5 74.5t84 26q42 0 66 -26.5t24 -72.5q0 -152 -249 -219l-53 -14v-30q0 -75 24 -110.5t74 -35.5q36 0 75 17.5t70 47.5zM279 495q-51 0 -96.5 -41.5t-75 -108t-37.5 -142.5
l50 14q227 63 227 200q0 38 -17.5 58t-50.5 20zM210 748l71 -127l120 127h29l-140 -145h-22l-83 145h25z" />
    <glyph glyph-name="Gcircumflex" unicode="&#x11c;" horiz-adv-x="564" 
d="M285 7q39 0 75.5 9t62.5 25l53 270h-156l4 21h177l-59 -303q-28 -20 -71.5 -32t-88.5 -12q-96 0 -148.5 68.5t-52.5 192.5q0 102 27 188t72.5 146.5t104 92.5t123.5 32q38 0 74.5 -10t62.5 -28l-4 -20q-61 36 -134 36q-87 0 -156.5 -59.5t-107.5 -158t-38 -217.5
q0 -118 46 -179.5t134 -61.5zM436 873l-119 -104h-29l140 124h20l90 -124h-25z" />
    <glyph glyph-name="gcircumflex" unicode="&#x11d;" horiz-adv-x="447" 
d="M46 151q0 103 35.5 187.5t92.5 131t122 46.5q54 0 115 -29l-82 -422q-29 -150 -79 -216.5t-134 -66.5q-59 0 -107 37l6 20q46 -36 103 -36q74 0 118.5 61.5t72.5 205.5l10 53q-41 -57 -84.5 -87.5t-84.5 -30.5q-50 0 -77 38.5t-27 107.5zM153 26q40 0 86 35t87 96l61 317
q-45 21 -91 21q-64 0 -116.5 -48t-81.5 -126t-29 -170q0 -125 84 -125zM322 728l-122 -125h-27l141 145h22l82 -145h-23z" />
    <glyph glyph-name="Gbreve" unicode="&#x11e;" horiz-adv-x="564" 
d="M285 7q39 0 75.5 9t62.5 25l53 270h-156l4 21h177l-59 -303q-28 -20 -71.5 -32t-88.5 -12q-96 0 -148.5 68.5t-52.5 192.5q0 102 27 188t72.5 146.5t104 92.5t123.5 32q38 0 74.5 -10t62.5 -28l-4 -20q-61 36 -134 36q-87 0 -156.5 -59.5t-107.5 -158t-38 -217.5
q0 -118 46 -179.5t134 -61.5zM418 768q-37 0 -58 18.5t-21 52.5q0 10 2.5 21.5t6.5 17.5h18q-6 -21 -6 -38q0 -52 60 -52q37 0 61 20t32 57l3 13h19q-3 -49 -35.5 -79.5t-81.5 -30.5z" />
    <glyph glyph-name="gbreve" unicode="&#x11f;" horiz-adv-x="447" 
d="M46 151q0 103 35.5 187.5t92.5 131t122 46.5q54 0 115 -29l-82 -422q-29 -150 -79 -216.5t-134 -66.5q-59 0 -107 37l6 20q46 -36 103 -36q74 0 118.5 61.5t72.5 205.5l10 53q-41 -57 -84.5 -87.5t-84.5 -30.5q-50 0 -77 38.5t-27 107.5zM153 26q40 0 86 35t87 96l61 317
q-45 21 -91 21q-64 0 -116.5 -48t-81.5 -126t-29 -170q0 -125 84 -125zM298 601q-37 0 -58 22t-21 62q0 12 2.5 25.5t6.5 20.5h17q-6 -24 -6 -45q0 -32 16 -49t45 -17q37 0 62 25t33 70l3 16h18q-3 -58 -35.5 -94t-82.5 -36z" />
    <glyph glyph-name="Gdotaccent" unicode="&#x120;" horiz-adv-x="564" 
d="M285 7q39 0 75.5 9t62.5 25l53 270h-156l4 21h177l-59 -303q-28 -20 -71.5 -32t-88.5 -12q-96 0 -148.5 68.5t-52.5 192.5q0 102 27 188t72.5 146.5t104 92.5t123.5 32q38 0 74.5 -10t62.5 -28l-4 -20q-61 36 -134 36q-87 0 -156.5 -59.5t-107.5 -158t-38 -217.5
q0 -118 46 -179.5t134 -61.5zM425 802q-21 0 -21 20q0 12 7 20t18 8q21 0 21 -20q0 -12 -7.5 -20t-17.5 -8z" />
    <glyph glyph-name="gdotaccent" unicode="&#x121;" horiz-adv-x="447" 
d="M46 151q0 103 35.5 187.5t92.5 131t122 46.5q54 0 115 -29l-82 -422q-29 -150 -79 -216.5t-134 -66.5q-59 0 -107 37l6 20q46 -36 103 -36q74 0 118.5 61.5t72.5 205.5l10 53q-41 -57 -84.5 -87.5t-84.5 -30.5q-50 0 -77 38.5t-27 107.5zM153 26q40 0 86 35t87 96l61 317
q-45 21 -91 21q-64 0 -116.5 -48t-81.5 -126t-29 -170q0 -125 84 -125zM310 630q-9 0 -14.5 5t-5.5 14q0 12 7 19.5t17 7.5q9 0 14.5 -5t5.5 -14q0 -12 -7 -19.5t-17 -7.5z" />
    <glyph glyph-name="uni0122" unicode="&#x122;" horiz-adv-x="564" 
d="M285 7q39 0 75.5 9t62.5 25l53 270h-156l4 21h177l-59 -303q-28 -20 -71.5 -32t-88.5 -12q-96 0 -148.5 68.5t-52.5 192.5q0 102 27 188t72.5 146.5t104 92.5t123.5 32q38 0 74.5 -10t62.5 -28l-4 -20q-61 36 -134 36q-87 0 -156.5 -59.5t-107.5 -158t-38 -217.5
q0 -118 46 -179.5t134 -61.5zM205 -264l67 194h8q11 0 11 -10t-12 -40l-56 -144h-18z" />
    <glyph glyph-name="uni0123" unicode="&#x123;" horiz-adv-x="447" 
d="M46 151q0 103 35.5 187.5t92.5 131t122 46.5q54 0 115 -29l-82 -422q-29 -150 -79 -216.5t-134 -66.5q-59 0 -107 37l6 20q46 -36 103 -36q74 0 118.5 61.5t72.5 205.5l10 53q-41 -57 -84.5 -87.5t-84.5 -30.5q-50 0 -77 38.5t-27 107.5zM153 26q40 0 86 35t87 96l61 317
q-45 21 -91 21q-64 0 -116.5 -48t-81.5 -126t-29 -170q0 -125 84 -125zM302 588h-6q-12 0 -12 10q0 6 13 40l58 151h17z" />
    <glyph glyph-name="Hcircumflex" unicode="&#x124;" horiz-adv-x="577" 
d="M414 0l68 345h-350l-67 -345h-22l135 693h22l-64 -327h350l63 327h22l-135 -693h-22zM405 873l-119 -104h-29l140 124h20l90 -124h-25z" />
    <glyph glyph-name="hcircumflex" unicode="&#x125;" horiz-adv-x="465" 
d="M130 396q45 56 95.5 88t92.5 32q89 0 89 -107q0 -19 -4 -47t-20 -111l-49 -251h-21l49 251q15 78 19 106t4 49q0 46 -17 67.5t-55 21.5q-42 0 -92 -34.5t-97 -95.5l-71 -365h-21l144 740h21zM212 893l-119 -104h-29l140 124h20l90 -124h-25z" />
    <glyph glyph-name="Hbar" unicode="&#x126;" horiz-adv-x="597" 
d="M424 0l68 345h-350l-67 -345h-22l100 513h-63l4 20h63l31 160h22l-32 -160h350l31 160h22l-31 -160h63l-4 -20h-63l-100 -513h-22zM496 366l28 147h-350l-28 -147h350z" />
    <glyph glyph-name="hbar" unicode="&#x127;" horiz-adv-x="465" 
d="M177 637h175l-4 -19h-175l-43 -222q45 56 95.5 88t92.5 32q89 0 89 -107q0 -19 -4 -47t-20 -111l-49 -251h-21l49 251q15 78 19 106t4 49q0 46 -17 67.5t-55 21.5q-42 0 -92 -34.5t-97 -95.5l-71 -365h-21l120 618h-52l4 19h52l20 103h21z" />
    <glyph glyph-name="Itilde" unicode="&#x128;" horiz-adv-x="206" 
d="M43 0l135 693h22l-135 -693h-22zM155 878q17 0 29 -8.5t29 -32.5q20 -26 28 -32.5t20 -6.5q30 0 43 50l7 27h18q-1 -16 -6 -31q-19 -65 -63 -65q-17 0 -29 8t-29 33q-18 25 -26.5 32t-21.5 7q-31 0 -44 -50l-7 -27h-18q1 16 6 31q9 32 25.5 48.5t38.5 16.5z" />
    <glyph glyph-name="itilde" unicode="&#x129;" horiz-adv-x="193" 
d="M135 503h21l-98 -503h-21zM114 718q17 0 29 -8.5t30 -32.5q20 -26 28 -32.5t20 -6.5q33 0 46 50l7 27h17q-1 -16 -6 -31q-19 -65 -65 -65q-17 0 -29 8.5t-30 33.5q-18 24 -26.5 31t-21.5 7q-33 0 -46 -50l-7 -27h-17q1 16 6 31q18 65 65 65z" />
    <glyph glyph-name="Imacron" unicode="&#x12a;" horiz-adv-x="206" 
d="M43 0l135 693h22l-135 -693h-22zM93 819l4 20h225l-4 -20h-225z" />
    <glyph glyph-name="imacron" unicode="&#x12b;" horiz-adv-x="193" 
d="M135 503h21l-98 -503h-21zM58 661l4 19h225l-4 -19h-225z" />
    <glyph glyph-name="Ibreve" unicode="&#x12c;" horiz-adv-x="206" 
d="M43 0l135 693h22l-135 -693h-22zM203 768q-37 0 -58 18.5t-21 52.5q0 10 2.5 21.5t6.5 17.5h18q-6 -21 -6 -38q0 -52 60 -52q37 0 61 20t32 57l3 13h19q-3 -49 -35.5 -79.5t-81.5 -30.5z" />
    <glyph glyph-name="ibreve" unicode="&#x12d;" horiz-adv-x="193" 
d="M135 503h21l-98 -503h-21zM151 601q-37 0 -58 22t-21 62q0 12 2.5 25.5t6.5 20.5h17q-6 -24 -6 -45q0 -32 16 -49t45 -17q37 0 62 25t33 70l3 16h18q-3 -58 -35.5 -94t-82.5 -36z" />
    <glyph glyph-name="Iogonek" unicode="&#x12e;" horiz-adv-x="206" 
d="M43 0l135 693h22l-135 -693h-22zM53 -193q-23 -20 -54 -20q-29 0 -44.5 16.5t-15.5 48.5q0 43 29 84t82 73l15 -9q-50 -34 -76.5 -71.5t-26.5 -76.5q0 -44 41 -44q20 0 44 16z" />
    <glyph glyph-name="iogonek" unicode="&#x12f;" horiz-adv-x="193" 
d="M135 503h21l-98 -503h-21zM167 632q-19 0 -19 18q0 11 6.5 18.5t16.5 7.5q19 0 19 -18q0 -11 -6.5 -18.5t-16.5 -7.5zM46 -193q-23 -20 -53 -20q-29 0 -44.5 16.5t-15.5 48.5q0 43 29 84t82 73l14 -9q-50 -34 -76.5 -71.5t-26.5 -76.5q0 -45 42 -45q20 0 44 16z" />
    <glyph glyph-name="Idotaccent" unicode="&#x130;" horiz-adv-x="206" 
d="M43 0l135 693h22l-135 -693h-22zM210 802q-21 0 -21 20q0 12 7 20t18 8q21 0 21 -20q0 -12 -7.5 -20t-17.5 -8z" />
    <glyph glyph-name="dotlessi" unicode="&#x131;" horiz-adv-x="193" 
d="M135 503h21l-98 -503h-21z" />
    <glyph glyph-name="IJ" unicode="&#x132;" horiz-adv-x="547" 
d="M523 693h22l-104 -534q-17 -89 -56 -131.5t-103 -42.5q-56 0 -91 26l4 20q35 -24 86 -24q58 0 90.5 37.5t49.5 122.5zM43 0l135 693h22l-135 -693h-22z" />
    <glyph glyph-name="ij" unicode="&#x133;" horiz-adv-x="386" 
d="M349 503l-116 -597q-14 -70 -34 -97t-58 -27q-20 0 -43 11l3 18q19 -9 38 -9q31 0 46 22t27 82l116 597h21zM360 632q-19 0 -19 18q0 11 6.5 18.5t16.5 7.5q19 0 19 -18q0 -11 -6.5 -18.5t-16.5 -7.5zM135 503h21l-98 -503h-21zM167 632q-19 0 -19 18q0 11 6.5 18.5
t16.5 7.5q19 0 19 -18q0 -11 -6.5 -18.5t-16.5 -7.5z" />
    <glyph glyph-name="Jcircumflex" unicode="&#x134;" horiz-adv-x="341" 
d="M317 693h22l-104 -534q-17 -89 -56 -131.5t-103 -42.5q-56 0 -91 26l4 20q35 -24 86 -24q58 0 90.5 37.5t49.5 122.5zM360 873l-119 -104h-29l140 124h20l90 -124h-25z" />
    <glyph glyph-name="jcircumflex" unicode="&#x135;" horiz-adv-x="193" 
d="M156 503l-116 -597q-14 -70 -34 -97t-58 -27q-20 0 -43 11l3 18q19 -9 38 -9q31 0 46 22t27 82l116 597h21zM175 728l-122 -125h-27l141 145h22l82 -145h-23z" />
    <glyph glyph-name="uni0136" unicode="&#x136;" horiz-adv-x="430" 
d="M43 0l135 693h22l-62 -318l319 318h28l-331 -329l221 -364h-26l-215 356l-69 -356h-22zM109 -264l67 194h8q11 0 11 -10t-12 -40l-56 -144h-18z" />
    <glyph glyph-name="uni0137" unicode="&#x137;" horiz-adv-x="365" 
d="M32 0l144 740h21l-90 -465l250 228h31l-261 -236l185 -267h-27l-181 263l-51 -263h-21zM76 -264l67 194h7q11 0 11 -10t-12 -40l-56 -144h-17z" />
    <glyph glyph-name="kgreenlandic" unicode="&#x138;" horiz-adv-x="365" 
d="M32 0l98 503h21l-46 -234l252 234h31l-266 -246l192 -257h-27l-186 250l-48 -250h-21z" />
    <glyph glyph-name="Lacute" unicode="&#x139;" horiz-adv-x="416" 
d="M43 0l135 693h22l-131 -672h282l-4 -21h-304zM210 769h-24l96 112h32z" />
    <glyph glyph-name="lacute" unicode="&#x13a;" horiz-adv-x="210" 
d="M130 7q-20 -10 -40 -10q-46 0 -46 50q0 13 7 49l125 644h21l-125 -644q-7 -35 -7 -49q0 -30 30 -30q15 0 30 6zM201 789h-24l96 112h32z" />
    <glyph glyph-name="uni013B" unicode="&#x13b;" horiz-adv-x="416" 
d="M43 0l135 693h22l-131 -672h282l-4 -21h-304zM112 -264l67 194h8q11 0 11 -10t-12 -40l-56 -144h-18z" />
    <glyph glyph-name="uni013C" unicode="&#x13c;" horiz-adv-x="210" 
d="M130 7q-20 -10 -40 -10q-46 0 -46 50q0 13 7 49l125 644h21l-125 -644q-7 -35 -7 -49q0 -30 30 -30q15 0 30 6zM-13 -264l67 194h7q11 0 11 -10t-12 -40l-56 -144h-17z" />
    <glyph glyph-name="Lcaron" unicode="&#x13d;" horiz-adv-x="416" 
d="M43 0l135 693h22l-131 -672h282l-4 -21h-304zM279 538l36 188q5 5 12 5t10 -5l-43 -188h-15z" />
    <glyph glyph-name="lcaron" unicode="&#x13e;" horiz-adv-x="205" 
d="M130 7q-20 -10 -40 -10q-46 0 -46 50q0 13 7 49l125 644h21l-125 -644q-7 -35 -7 -49q0 -30 30 -30q15 0 30 6zM243 559l36 188q5 5 12 5t10 -5l-43 -188h-15z" />
    <glyph glyph-name="Ldot" unicode="&#x13f;" horiz-adv-x="416" 
d="M43 0l135 693h22l-131 -672h282l-4 -21h-304zM322 337q-8 0 -13.5 5t-5.5 14q0 12 7 19.5t16 7.5q8 0 13.5 -5t5.5 -14q0 -12 -7 -19.5t-16 -7.5z" />
    <glyph glyph-name="ldot" unicode="&#x140;" horiz-adv-x="230" 
d="M130 7q-20 -10 -40 -10q-46 0 -46 50q0 13 7 49l125 644h21l-125 -644q-7 -35 -7 -49q0 -30 30 -30q15 0 30 6zM223 337q-8 0 -13.5 5t-5.5 14q0 12 7 19.5t16 7.5q8 0 13.5 -5t5.5 -14q0 -12 -7 -19.5t-16 -7.5z" />
    <glyph glyph-name="Lslash" unicode="&#x141;" horiz-adv-x="426" 
d="M135 309l-56 -288h282l-4 -21h-304l57 292l-81 -52l5 25l81 52l73 376h22l-70 -360l192 125l-5 -25z" />
    <glyph glyph-name="lslash" unicode="&#x142;" horiz-adv-x="230" 
d="M140 7q-20 -10 -40 -10q-46 0 -46 50q0 13 7 49l50 256l-75 -46l4 23l75 47l71 364h21l-68 -350l81 51l-4 -23l-82 -51l-52 -271q-7 -35 -7 -49q0 -30 30 -30q15 0 30 6z" />
    <glyph glyph-name="Nacute" unicode="&#x143;" horiz-adv-x="571" 
d="M406 0l-214 655l-128 -655h-21l135 693h24l214 -656l128 656h21l-135 -693h-24zM392 769h-24l96 112h32z" />
    <glyph glyph-name="nacute" unicode="&#x144;" horiz-adv-x="465" 
d="M313 0l49 251q15 78 19 106t4 49q0 46 -17 67.5t-55 21.5q-42 0 -92 -34.5t-97 -95.5l-71 -365h-21l98 503h19l-19 -108q44 56 94.5 88.5t93.5 32.5q89 0 89 -107q0 -20 -3.5 -45t-20.5 -113l-49 -251h-21zM278 603l103 145h29l-110 -145h-22z" />
    <glyph glyph-name="uni0145" unicode="&#x145;" horiz-adv-x="571" 
d="M406 0l-214 655l-128 -655h-21l135 693h24l214 -656l128 656h21l-135 -693h-24zM147 -264l67 194h8q11 0 11 -10t-12 -40l-56 -144h-18z" />
    <glyph glyph-name="uni0146" unicode="&#x146;" horiz-adv-x="465" 
d="M313 0l49 251q15 78 19 106t4 49q0 46 -17 67.5t-55 21.5q-42 0 -92 -34.5t-97 -95.5l-71 -365h-21l98 503h19l-19 -108q44 56 94.5 88.5t93.5 32.5q89 0 89 -107q0 -20 -3.5 -45t-20.5 -113l-49 -251h-21zM99 -264l67 194h7q11 0 11 -10t-12 -40l-56 -144h-17z" />
    <glyph glyph-name="Ncaron" unicode="&#x147;" horiz-adv-x="571" 
d="M406 0l-214 655l-128 -655h-21l135 693h24l214 -656l128 656h21l-135 -693h-24zM308 893l75 -106l117 106h31l-140 -124h-20l-90 124h27z" />
    <glyph glyph-name="ncaron" unicode="&#x148;" horiz-adv-x="465" 
d="M313 0l49 251q15 78 19 106t4 49q0 46 -17 67.5t-55 21.5q-42 0 -92 -34.5t-97 -95.5l-71 -365h-21l98 503h19l-19 -108q44 56 94.5 88.5t93.5 32.5q89 0 89 -107q0 -20 -3.5 -45t-20.5 -113l-49 -251h-21zM223 748l71 -127l120 127h29l-140 -145h-22l-83 145h25z" />
    <glyph glyph-name="napostrophe" unicode="&#x149;" horiz-adv-x="549" 
d="M397 0l49 251q15 78 19 106t4 49q0 46 -17 67.5t-55 21.5q-42 0 -92 -34.5t-97 -95.5l-71 -365h-21l98 503h19l-19 -108q44 56 94.5 88.5t93.5 32.5q89 0 89 -107q0 -20 -3.5 -45t-20.5 -113l-49 -251h-21zM179 693h10q11 0 11 -8q0 -9 -13 -42l-54 -140h-17z" />
    <glyph glyph-name="Eng" unicode="&#x14a;" horiz-adv-x="571" 
d="M43 0l135 693h24l215 -652l127 652h21l-144 -738q-17 -88 -56 -130.5t-103 -42.5q-56 0 -91 26l4 20q35 -24 86 -24q58 0 90.5 37.5t49.5 123.5l7 35l-216 655l-128 -655h-21z" />
    <glyph glyph-name="eng" unicode="&#x14b;" horiz-adv-x="465" 
d="M201 -218q-26 0 -48 13l4 17q21 -10 45 -10q39 0 61 27t35 92l64 330q15 78 19 106t4 49q0 46 -17 67.5t-55 21.5q-43 0 -92.5 -34t-96.5 -96l-71 -365h-21l98 503h19l-19 -108q45 57 95 89t93 32q89 0 89 -107q0 -20 -3.5 -45t-20.5 -113l-64 -331q-14 -73 -41.5 -105.5
t-76.5 -32.5z" />
    <glyph glyph-name="Omacron" unicode="&#x14c;" horiz-adv-x="627" 
d="M379 683q-84 0 -145 -63t-95.5 -170t-34.5 -216t47 -168t133 -59q84 0 145 63t95.5 170t34.5 216t-47 168t-133 59zM382 705q95 0 147.5 -65.5t52.5 -183.5q0 -93 -24 -185t-64.5 -156t-94 -97t-118.5 -33q-95 0 -147.5 65.5t-52.5 183.5q0 93 24 185t64.5 156t94 97
t118.5 33zM299 819l4 20h225l-4 -20h-225z" />
    <glyph glyph-name="omacron" unicode="&#x14d;" horiz-adv-x="452" 
d="M261 495q-58 0 -100 -46.5t-66 -125.5t-24 -158q0 -76 30.5 -116.5t88.5 -40.5t100 46.5t66 125.5t24 158q0 76 -30.5 116.5t-88.5 40.5zM188 -13q-66 0 -102.5 48t-36.5 134q0 89 29 173.5t76 129t109 44.5q66 0 102.5 -48t36.5 -134q0 -89 -29 -173.5t-76 -129
t-109 -44.5zM186 661l4 19h225l-4 -19h-225z" />
    <glyph glyph-name="Obreve" unicode="&#x14e;" horiz-adv-x="627" 
d="M379 683q-84 0 -145 -63t-95.5 -170t-34.5 -216t47 -168t133 -59q84 0 145 63t95.5 170t34.5 216t-47 168t-133 59zM382 705q95 0 147.5 -65.5t52.5 -183.5q0 -93 -24 -185t-64.5 -156t-94 -97t-118.5 -33q-95 0 -147.5 65.5t-52.5 183.5q0 93 24 185t64.5 156t94 97
t118.5 33zM409 768q-37 0 -58 18.5t-21 52.5q0 10 2.5 21.5t6.5 17.5h18q-6 -21 -6 -38q0 -52 60 -52q37 0 61 20t32 57l3 13h19q-3 -49 -35.5 -79.5t-81.5 -30.5z" />
    <glyph glyph-name="obreve" unicode="&#x14f;" horiz-adv-x="452" 
d="M261 495q-58 0 -100 -46.5t-66 -125.5t-24 -158q0 -76 30.5 -116.5t88.5 -40.5t100 46.5t66 125.5t24 158q0 76 -30.5 116.5t-88.5 40.5zM188 -13q-66 0 -102.5 48t-36.5 134q0 89 29 173.5t76 129t109 44.5q66 0 102.5 -48t36.5 -134q0 -89 -29 -173.5t-76 -129
t-109 -44.5zM279 601q-37 0 -58 22t-21 62q0 12 2.5 25.5t6.5 20.5h17q-6 -24 -6 -45q0 -32 16 -49t45 -17q37 0 62 25t33 70l3 16h18q-3 -58 -35.5 -94t-82.5 -36z" />
    <glyph glyph-name="Ohungarumlaut" unicode="&#x150;" horiz-adv-x="627" 
d="M379 683q-84 0 -145 -63t-95.5 -170t-34.5 -216t47 -168t133 -59q84 0 145 63t95.5 170t34.5 216t-47 168t-133 59zM382 705q95 0 147.5 -65.5t52.5 -183.5q0 -93 -24 -185t-64.5 -156t-94 -97t-118.5 -33q-95 0 -147.5 65.5t-52.5 183.5q0 93 24 185t64.5 156t94 97
t118.5 33zM466 769h-22l86 112h29zM330 769h-22l86 112h29z" />
    <glyph glyph-name="ohungarumlaut" unicode="&#x151;" horiz-adv-x="452" 
d="M261 495q-58 0 -100 -46.5t-66 -125.5t-24 -158q0 -76 30.5 -116.5t88.5 -40.5t100 46.5t66 125.5t24 158q0 76 -30.5 116.5t-88.5 40.5zM188 -13q-66 0 -102.5 48t-36.5 134q0 89 29 173.5t76 129t109 44.5q66 0 102.5 -48t36.5 -134q0 -89 -29 -173.5t-76 -129
t-109 -44.5zM195 601l103 145h28l-109 -145h-22zM312 601l103 145h28l-109 -145h-22z" />
    <glyph glyph-name="OE" unicode="&#x152;" horiz-adv-x="865" 
d="M369 705q80 0 127.5 -59t51.5 -165l42 212h304l-4 -21h-283l-59 -301h245l-4 -21h-245l-64 -329h283l-4 -21h-304l30 153q-38 -82 -94 -125t-126 -43q-86 0 -135 65t-49 178q0 94 23 187.5t61.5 158.5t89.5 98t114 33zM366 683q-81 0 -139 -63t-90.5 -172t-32.5 -221
q0 -103 44 -161.5t121 -58.5q81 0 139 63t90.5 172t32.5 221q0 104 -43.5 162t-121.5 58z" />
    <glyph glyph-name="oe" unicode="&#x153;" horiz-adv-x="708" 
d="M633 56q-32 -32 -73.5 -50.5t-82.5 -18.5q-58 0 -86.5 38.5t-29.5 115.5q-29 -75 -74.5 -114.5t-102.5 -39.5q-64 0 -99.5 48t-35.5 134q0 89 29.5 173.5t77.5 129t111 44.5q61 0 95 -44.5t36 -127.5q33 79 85.5 125.5t110.5 46.5q42 0 66 -26.5t24 -72.5
q0 -152 -249 -219l-53 -14v-30q0 -75 24 -110.5t74 -35.5q36 0 75 17.5t70 47.5zM265 495q-59 0 -102 -46.5t-67.5 -125t-24.5 -158.5q0 -76 29.5 -116.5t85.5 -40.5q58 0 100 47.5t66.5 126.5t24.5 156t-28.5 117t-83.5 40zM593 495q-51 0 -96.5 -41.5t-75 -108
t-37.5 -142.5l50 14q227 63 227 200q0 38 -17.5 58t-50.5 20z" />
    <glyph glyph-name="Racute" unicode="&#x154;" horiz-adv-x="484" 
d="M386 0l-109 308q-10 -2 -35 -2h-118l-59 -306h-22l135 693h135q74 0 115 -41t41 -114q0 -87 -47 -149.5t-123 -77.5l110 -311h-23zM128 326h119q91 0 145 58t54 155q0 65 -36 99t-103 34h-111zM331 769h-24l96 112h32z" />
    <glyph glyph-name="racute" unicode="&#x155;" horiz-adv-x="268" 
d="M32 0l98 503h19l-17 -96q65 98 138 98q16 0 26 -3l-4 -20q-14 2 -27 2q-34 0 -67 -26t-73 -86l-72 -372h-21zM208 603l103 145h29l-110 -145h-22z" />
    <glyph glyph-name="uni0156" unicode="&#x156;" horiz-adv-x="484" 
d="M386 0l-109 308q-10 -2 -35 -2h-118l-59 -306h-22l135 693h135q74 0 115 -41t41 -114q0 -87 -47 -149.5t-123 -77.5l110 -311h-23zM128 326h119q91 0 145 58t54 155q0 65 -36 99t-103 34h-111zM132 -264l67 194h8q11 0 11 -10t-12 -40l-56 -144h-18z" />
    <glyph glyph-name="uni0157" unicode="&#x157;" horiz-adv-x="268" 
d="M32 0l98 503h19l-17 -96q65 98 138 98q16 0 26 -3l-4 -20q-14 2 -27 2q-34 0 -67 -26t-73 -86l-72 -372h-21zM-46 -264l67 194h7q11 0 11 -10t-12 -40l-56 -144h-17z" />
    <glyph glyph-name="Rcaron" unicode="&#x158;" horiz-adv-x="484" 
d="M386 0l-109 308q-10 -2 -35 -2h-118l-59 -306h-22l135 693h135q74 0 115 -41t41 -114q0 -87 -47 -149.5t-123 -77.5l110 -311h-23zM128 326h119q91 0 145 58t54 155q0 65 -36 99t-103 34h-111zM247 893l75 -106l117 106h31l-140 -124h-20l-90 124h27z" />
    <glyph glyph-name="rcaron" unicode="&#x159;" horiz-adv-x="268" 
d="M32 0l98 503h19l-17 -96q65 98 138 98q16 0 26 -3l-4 -20q-14 2 -27 2q-34 0 -67 -26t-73 -86l-72 -372h-21zM153 748l71 -127l120 127h29l-140 -145h-22l-83 145h25z" />
    <glyph glyph-name="Sacute" unicode="&#x15a;" horiz-adv-x="469" 
d="M237 352q-61 38 -87 76t-26 91q0 55 27 97.5t72 65.5t100 23q69 0 123 -39l-4 -20q-31 20 -59 28.5t-61 8.5q-77 0 -126 -45.5t-49 -117.5q0 -47 22 -80t76 -67l53 -33q51 -32 72.5 -66t21.5 -81q0 -62 -28 -109.5t-77 -73t-111 -25.5q-87 0 -140 42l4 21q53 -41 138 -41
q57 0 100.5 23.5t67 64t23.5 91.5q0 44 -18 74.5t-60 57.5zM334 769h-24l96 112h32z" />
    <glyph glyph-name="sacute" unicode="&#x15b;" horiz-adv-x="343" 
d="M105 374q0 -27 12 -47.5t40 -40.5l59 -42q31 -23 45 -47.5t14 -57.5q0 -69 -41.5 -110.5t-107.5 -41.5q-29 0 -60 9.5t-52 25.5l6 20q23 -16 51.5 -25t55.5 -9q57 0 91.5 34.5t34.5 94.5q0 25 -12 47.5t-33 37.5l-59 42q-35 25 -50.5 50.5t-15.5 57.5q0 63 40.5 103.5
t105.5 40.5q49 0 93 -25l-4 -20q-47 24 -91 24q-55 0 -88.5 -33t-33.5 -88zM227 603l103 145h29l-110 -145h-22z" />
    <glyph glyph-name="Scircumflex" unicode="&#x15c;" horiz-adv-x="469" 
d="M237 352q-61 38 -87 76t-26 91q0 55 27 97.5t72 65.5t100 23q69 0 123 -39l-4 -20q-31 20 -59 28.5t-61 8.5q-77 0 -126 -45.5t-49 -117.5q0 -47 22 -80t76 -67l53 -33q51 -32 72.5 -66t21.5 -81q0 -62 -28 -109.5t-77 -73t-111 -25.5q-87 0 -140 42l4 21q53 -41 138 -41
q57 0 100.5 23.5t67 64t23.5 91.5q0 44 -18 74.5t-60 57.5zM345 873l-119 -104h-29l140 124h20l90 -124h-25z" />
    <glyph glyph-name="scircumflex" unicode="&#x15d;" horiz-adv-x="343" 
d="M105 374q0 -27 12 -47.5t40 -40.5l59 -42q31 -23 45 -47.5t14 -57.5q0 -69 -41.5 -110.5t-107.5 -41.5q-29 0 -60 9.5t-52 25.5l6 20q23 -16 51.5 -25t55.5 -9q57 0 91.5 34.5t34.5 94.5q0 25 -12 47.5t-33 37.5l-59 42q-35 25 -50.5 50.5t-15.5 57.5q0 63 40.5 103.5
t105.5 40.5q49 0 93 -25l-4 -20q-47 24 -91 24q-55 0 -88.5 -33t-33.5 -88zM266 728l-122 -125h-27l141 145h22l82 -145h-23z" />
    <glyph glyph-name="Scedilla" unicode="&#x15e;" horiz-adv-x="469" 
d="M237 352q-61 38 -87 76t-26 91q0 55 27 97.5t72 65.5t100 23q69 0 123 -39l-4 -20q-31 20 -59 28.5t-61 8.5q-77 0 -126 -45.5t-49 -117.5q0 -47 22 -80t76 -67l53 -33q51 -32 72.5 -66t21.5 -81q0 -62 -28 -109.5t-77 -73t-111 -25.5q-87 0 -140 42l4 21q53 -41 138 -41
q57 0 100.5 23.5t67 64t23.5 91.5q0 44 -18 74.5t-60 57.5zM121 -252q47 28 72.5 60.5t25.5 65.5q0 36 -36 36q-19 0 -35 -6l4 19q18 8 36 8q25 0 39 -15t14 -42q0 -37 -29 -75t-80 -67z" />
    <glyph glyph-name="scedilla" unicode="&#x15f;" horiz-adv-x="343" 
d="M105 374q0 -27 12 -47.5t40 -40.5l59 -42q31 -23 45 -47.5t14 -57.5q0 -69 -41.5 -110.5t-107.5 -41.5q-29 0 -60 9.5t-52 25.5l6 20q23 -16 51.5 -25t55.5 -9q57 0 91.5 34.5t34.5 94.5q0 25 -12 47.5t-33 37.5l-59 42q-35 25 -50.5 50.5t-15.5 57.5q0 63 40.5 103.5
t105.5 40.5q49 0 93 -25l-4 -20q-47 24 -91 24q-55 0 -88.5 -33t-33.5 -88zM48 -253q48 29 73.5 61.5t25.5 65.5q0 37 -37 37q-18 0 -34 -6l4 18q18 8 35 8q25 0 39 -15t14 -42q0 -37 -29 -75t-80 -67z" />
    <glyph glyph-name="Scaron" unicode="&#x160;" horiz-adv-x="469" 
d="M237 352q-61 38 -87 76t-26 91q0 55 27 97.5t72 65.5t100 23q69 0 123 -39l-4 -20q-31 20 -59 28.5t-61 8.5q-77 0 -126 -45.5t-49 -117.5q0 -47 22 -80t76 -67l53 -33q51 -32 72.5 -66t21.5 -81q0 -62 -28 -109.5t-77 -73t-111 -25.5q-87 0 -140 42l4 21q53 -41 138 -41
q57 0 100.5 23.5t67 64t23.5 91.5q0 44 -18 74.5t-60 57.5zM250 893l75 -106l117 106h31l-140 -124h-20l-90 124h27z" />
    <glyph glyph-name="scaron" unicode="&#x161;" horiz-adv-x="343" 
d="M105 374q0 -27 12 -47.5t40 -40.5l59 -42q31 -23 45 -47.5t14 -57.5q0 -69 -41.5 -110.5t-107.5 -41.5q-29 0 -60 9.5t-52 25.5l6 20q23 -16 51.5 -25t55.5 -9q57 0 91.5 34.5t34.5 94.5q0 25 -12 47.5t-33 37.5l-59 42q-35 25 -50.5 50.5t-15.5 57.5q0 63 40.5 103.5
t105.5 40.5q49 0 93 -25l-4 -20q-47 24 -91 24q-55 0 -88.5 -33t-33.5 -88zM172 748l71 -127l120 127h29l-140 -145h-22l-83 145h25z" />
    <glyph glyph-name="uni0162" unicode="&#x162;" horiz-adv-x="435" 
d="M157 0l131 672h-184l4 21h390l-4 -21h-184l-131 -672h-22zM84 -252q47 28 72.5 60.5t25.5 65.5q0 36 -36 36q-19 0 -35 -6l4 19q18 8 36 8q25 0 39 -15t14 -42q0 -37 -29 -75t-80 -67z" />
    <glyph glyph-name="uni0163" unicode="&#x163;" horiz-adv-x="303" 
d="M233 24q-40 -30 -87 -30q-36 0 -54.5 18t-18.5 53q0 22 17 109l60 309h-82l3 16l83 4l33 146h17l-29 -146h124l-4 -20h-124l-61 -315q-16 -80 -16 -103q0 -24 14.5 -37.5t39.5 -13.5q22 0 40 6t38 21zM54 -253q48 29 73.5 61.5t25.5 65.5q0 37 -37 37q-18 0 -34 -6l4 18
q18 8 35 8q25 0 39 -15t14 -42q0 -37 -29 -75t-80 -67z" />
    <glyph glyph-name="Tcaron" unicode="&#x164;" horiz-adv-x="435" 
d="M157 0l131 672h-184l4 21h390l-4 -21h-184l-131 -672h-22zM238 893l75 -106l117 106h31l-140 -124h-20l-90 124h27z" />
    <glyph glyph-name="tcaron" unicode="&#x165;" horiz-adv-x="303" 
d="M233 24q-40 -30 -87 -30q-36 0 -54.5 18t-18.5 53q0 22 17 109l60 309h-82l3 16l83 4l33 146h17l-29 -146h124l-4 -20h-124l-61 -315q-16 -80 -16 -103q0 -24 14.5 -37.5t39.5 -13.5q22 0 40 6t38 21zM285 585l28 148q5 5 12 5t10 -5l-35 -148h-15z" />
    <glyph glyph-name="Tbar" unicode="&#x166;" horiz-adv-x="435" 
d="M157 0l66 340h-123l4 21h123l61 311h-184l4 21h390l-4 -21h-184l-61 -311h123l-4 -21h-123l-66 -340h-22z" />
    <glyph glyph-name="tbar" unicode="&#x167;" horiz-adv-x="323" 
d="M243 24q-40 -30 -87 -30q-36 0 -54.5 18t-18.5 53q0 22 17 109l16 82h-82l4 19h81l41 208h-82l3 16l83 4l33 146h17l-29 -146h124l-4 -20h-124l-41 -208h125l-4 -19h-124l-17 -88q-16 -80 -16 -103q0 -24 14.5 -37.5t39.5 -13.5q22 0 40 6t38 21z" />
    <glyph glyph-name="Utilde" unicode="&#x168;" horiz-adv-x="566" 
d="M542 693h22l-92 -472q-46 -236 -228 -236q-80 0 -122 44t-42 128q0 32 4 66t15 90l74 380h22l-75 -384q-12 -62 -15.5 -90.5t-3.5 -59.5q0 -152 145 -152q81 0 133 54.5t72 161.5zM334 878q17 0 29 -8.5t29 -32.5q20 -26 28 -32.5t20 -6.5q30 0 43 50l7 27h18
q-1 -16 -6 -31q-19 -65 -63 -65q-17 0 -29 8t-29 33q-18 25 -26.5 32t-21.5 7q-31 0 -44 -50l-7 -27h-18q1 16 6 31q9 32 25.5 48.5t38.5 16.5z" />
    <glyph glyph-name="utilde" unicode="&#x169;" horiz-adv-x="456" 
d="M306 0l20 114q-40 -59 -90 -93t-94 -34q-41 0 -63.5 26t-22.5 75q0 41 25 169l48 246h21l-48 -246q-24 -121 -24 -167q0 -82 69 -82q43 0 92 36t93 101l70 358h21l-98 -503h-19zM244 718q17 0 29 -8.5t30 -32.5q20 -26 28 -32.5t20 -6.5q33 0 46 50l7 27h17
q-1 -16 -6 -31q-19 -65 -65 -65q-17 0 -29 8.5t-30 33.5q-18 24 -26.5 31t-21.5 7q-33 0 -46 -50l-7 -27h-17q1 16 6 31q18 65 65 65z" />
    <glyph glyph-name="Umacron" unicode="&#x16a;" horiz-adv-x="566" 
d="M542 693h22l-92 -472q-46 -236 -228 -236q-80 0 -122 44t-42 128q0 32 4 66t15 90l74 380h22l-75 -384q-12 -62 -15.5 -90.5t-3.5 -59.5q0 -152 145 -152q81 0 133 54.5t72 161.5zM272 819l4 20h225l-4 -20h-225z" />
    <glyph glyph-name="umacron" unicode="&#x16b;" horiz-adv-x="456" 
d="M306 0l20 114q-40 -59 -90 -93t-94 -34q-41 0 -63.5 26t-22.5 75q0 41 25 169l48 246h21l-48 -246q-24 -121 -24 -167q0 -82 69 -82q43 0 92 36t93 101l70 358h21l-98 -503h-19zM188 661l4 19h225l-4 -19h-225z" />
    <glyph glyph-name="Ubreve" unicode="&#x16c;" horiz-adv-x="566" 
d="M542 693h22l-92 -472q-46 -236 -228 -236q-80 0 -122 44t-42 128q0 32 4 66t15 90l74 380h22l-75 -384q-12 -62 -15.5 -90.5t-3.5 -59.5q0 -152 145 -152q81 0 133 54.5t72 161.5zM382 768q-37 0 -58 18.5t-21 52.5q0 10 2.5 21.5t6.5 17.5h18q-6 -21 -6 -38
q0 -52 60 -52q37 0 61 20t32 57l3 13h19q-3 -49 -35.5 -79.5t-81.5 -30.5z" />
    <glyph glyph-name="ubreve" unicode="&#x16d;" horiz-adv-x="456" 
d="M306 0l20 114q-40 -59 -90 -93t-94 -34q-41 0 -63.5 26t-22.5 75q0 41 25 169l48 246h21l-48 -246q-24 -121 -24 -167q0 -82 69 -82q43 0 92 36t93 101l70 358h21l-98 -503h-19zM281 601q-37 0 -58 22t-21 62q0 12 2.5 25.5t6.5 20.5h17q-6 -24 -6 -45q0 -32 16 -49
t45 -17q37 0 62 25t33 70l3 16h18q-3 -58 -35.5 -94t-82.5 -36z" />
    <glyph glyph-name="Uring" unicode="&#x16e;" horiz-adv-x="566" 
d="M542 693h22l-92 -472q-46 -236 -228 -236q-80 0 -122 44t-42 128q0 32 4 66t15 90l74 380h22l-75 -384q-12 -62 -15.5 -90.5t-3.5 -59.5q0 -152 145 -152q81 0 133 54.5t72 161.5zM386 742q-36 0 -58 21t-22 55q0 41 27 68.5t67 27.5q36 0 58 -21t22 -55q0 -41 -27 -68.5
t-67 -27.5zM397 895q-30 0 -50 -22t-20 -55q0 -26 17 -41.5t45 -15.5q30 0 50 22t20 55q0 26 -17 41.5t-45 15.5z" />
    <glyph glyph-name="uring" unicode="&#x16f;" horiz-adv-x="456" 
d="M306 0l20 114q-40 -59 -90 -93t-94 -34q-41 0 -63.5 26t-22.5 75q0 41 25 169l48 246h21l-48 -246q-24 -121 -24 -167q0 -82 69 -82q43 0 92 36t93 101l70 358h21l-98 -503h-19zM292 584q-35 0 -56 22t-21 58q0 42 27 74t68 32q35 0 56 -22t21 -58q0 -42 -27 -74t-68 -32
zM309 751q-31 0 -52 -25t-21 -61q0 -28 15.5 -45t41.5 -17q31 0 52 25t21 61q0 28 -15.5 45t-41.5 17z" />
    <glyph glyph-name="Uhungarumlaut" unicode="&#x170;" horiz-adv-x="566" 
d="M542 693h22l-92 -472q-46 -236 -228 -236q-80 0 -122 44t-42 128q0 32 4 66t15 90l74 380h22l-75 -384q-12 -62 -15.5 -90.5t-3.5 -59.5q0 -152 145 -152q81 0 133 54.5t72 161.5zM439 769h-22l86 112h29zM303 769h-22l86 112h29z" />
    <glyph glyph-name="uhungarumlaut" unicode="&#x171;" horiz-adv-x="456" 
d="M306 0l20 114q-40 -59 -90 -93t-94 -34q-41 0 -63.5 26t-22.5 75q0 41 25 169l48 246h21l-48 -246q-24 -121 -24 -167q0 -82 69 -82q43 0 92 36t93 101l70 358h21l-98 -503h-19zM197 601l103 145h28l-109 -145h-22zM314 601l103 145h28l-109 -145h-22z" />
    <glyph glyph-name="Uogonek" unicode="&#x172;" horiz-adv-x="566" 
d="M244 -15q-80 0 -122 44t-42 128q0 32 4 66t15 90l74 380h22l-75 -384q-12 -62 -15.5 -90.5t-3.5 -59.5q0 -152 145 -152q81 0 133 54.5t72 161.5l91 470h22l-92 -472q-31 -159 -124 -211q-60 -34 -91.5 -74t-31.5 -83q0 -45 42 -45q20 0 44 16l6 -17q-25 -20 -54 -20
q-30 0 -45.5 17t-15.5 49q0 37 21.5 72t61.5 64q-24 -4 -41 -4z" />
    <glyph glyph-name="uogonek" unicode="&#x173;" horiz-adv-x="456" 
d="M306 0l20 114q-40 -59 -90 -93t-94 -34q-41 0 -63.5 26t-22.5 75q0 41 25 169l48 246h21l-48 -246q-24 -121 -24 -167q0 -82 69 -82q43 0 92 36t93 101l70 358h21l-98 -503h-19zM313 -193q-23 -20 -53 -20q-29 0 -44.5 16.5t-15.5 48.5q0 43 29 84t82 73l14 -9
q-50 -34 -76.5 -71.5t-26.5 -76.5q0 -45 42 -45q20 0 44 16z" />
    <glyph glyph-name="Wcircumflex" unicode="&#x174;" horiz-adv-x="717" 
d="M443 0l-13 634l-260 -634h-25l-35 693h22l32 -658l260 633h26l12 -631l292 656h24l-310 -693h-25zM467 873l-119 -104h-29l140 124h20l90 -124h-25z" />
    <glyph glyph-name="wcircumflex" unicode="&#x175;" horiz-adv-x="541" 
d="M328 0l-18 470l-196 -470h-23l-28 503h21l24 -473l196 473h24l17 -478q51 97 109 233.5t94 244.5h23q-44 -124 -103.5 -261t-116.5 -242h-23zM343 728l-122 -125h-27l141 145h22l82 -145h-23z" />
    <glyph glyph-name="Ycircumflex" unicode="&#x176;" horiz-adv-x="451" 
d="M164 0l49 250l-104 443h23l96 -419l261 419h25l-280 -445l-48 -248h-22zM341 873l-119 -104h-29l140 124h20l90 -124h-25z" />
    <glyph glyph-name="ycircumflex" unicode="&#x177;" horiz-adv-x="366" 
d="M-63 -199q41 11 81 48q58 56 117 151l-74 503h21l68 -481q49 85 118 232t107 249h23q-135 -336 -260 -533q-51 -79 -100 -127t-91 -60zM254 728l-122 -125h-27l141 145h22l82 -145h-23z" />
    <glyph glyph-name="Ydieresis" unicode="&#x178;" horiz-adv-x="451" 
d="M164 0l49 250l-104 443h23l96 -419l261 419h25l-280 -445l-48 -248h-22zM251 802q-9 0 -14.5 5t-5.5 14q0 12 7 20t17 8q9 0 14.5 -5t5.5 -14q0 -12 -7 -20t-17 -8zM409 802q-9 0 -14.5 5t-5.5 14q0 12 7 20t17 8q9 0 14.5 -5t5.5 -14q0 -12 -7 -20t-17 -8z" />
    <glyph glyph-name="Zacute" unicode="&#x179;" horiz-adv-x="458" 
d="M2 0l4 19l452 653h-305l4 21h333l-4 -19l-452 -653h326l-4 -21h-354zM343 769h-24l96 112h32z" />
    <glyph glyph-name="zacute" unicode="&#x17a;" horiz-adv-x="377" 
d="M-2 0l4 19l341 464h-247l4 20h274l-4 -19l-341 -464h255l-4 -20h-282zM231 603l103 145h29l-110 -145h-22z" />
    <glyph glyph-name="Zdotaccent" unicode="&#x17b;" horiz-adv-x="458" 
d="M2 0l4 19l452 653h-305l4 21h333l-4 -19l-452 -653h326l-4 -21h-354zM343 802q-21 0 -21 20q0 12 7 20t18 8q21 0 21 -20q0 -12 -7.5 -20t-17.5 -8z" />
    <glyph glyph-name="zdotaccent" unicode="&#x17c;" horiz-adv-x="377" 
d="M-2 0l4 19l341 464h-247l4 20h274l-4 -19l-341 -464h255l-4 -20h-282zM258 630q-9 0 -14.5 5t-5.5 14q0 12 7 19.5t17 7.5q9 0 14.5 -5t5.5 -14q0 -12 -7 -19.5t-17 -7.5z" />
    <glyph glyph-name="Zcaron" unicode="&#x17d;" horiz-adv-x="458" 
d="M2 0l4 19l452 653h-305l4 21h333l-4 -19l-452 -653h326l-4 -21h-354zM259 893l75 -106l117 106h31l-140 -124h-20l-90 124h27z" />
    <glyph glyph-name="zcaron" unicode="&#x17e;" horiz-adv-x="377" 
d="M-2 0l4 19l341 464h-247l4 20h274l-4 -19l-341 -464h255l-4 -20h-282zM176 748l71 -127l120 127h29l-140 -145h-22l-83 145h25z" />
    <glyph glyph-name="longs" unicode="&#x17f;" horiz-adv-x="167" 
d="M33 0l123 633q12 63 40 92t75 29q37 0 71 -21l-4 -18q-35 19 -65 19q-41 0 -63.5 -24t-32.5 -77l-123 -633h-21z" />
    <glyph glyph-name="florin" unicode="&#x192;" horiz-adv-x="289" 
d="M181 483l-114 -584q-7 -37 -23 -63.5t-38.5 -40t-49.5 -13.5q-32 0 -62 14l4 18q25 -12 59 -12t57 26.5t33 76.5l113 578h-86l3 16l87 4l25 130q12 63 40 92t75 29q37 0 71 -21l-4 -18q-35 19 -65 19q-41 0 -63.5 -24t-32.5 -77l-25 -130h140l-4 -20h-140z" />
    <glyph glyph-name="uni01D3" unicode="&#x1d3;" horiz-adv-x="566" 
d="M542 693h22l-92 -472q-46 -236 -228 -236q-80 0 -122 44t-42 128q0 32 4 66t15 90l74 380h22l-75 -384q-12 -62 -15.5 -90.5t-3.5 -59.5q0 -152 145 -152q81 0 133 54.5t72 161.5zM305 893l75 -106l117 106h31l-140 -124h-20l-90 124h27z" />
    <glyph glyph-name="uni01D4" unicode="&#x1d4;" horiz-adv-x="456" 
d="M306 0l20 114q-40 -59 -90 -93t-94 -34q-41 0 -63.5 26t-22.5 75q0 41 25 169l48 246h21l-48 -246q-24 -121 -24 -167q0 -82 69 -82q43 0 92 36t93 101l70 358h21l-98 -503h-19zM211 748l71 -127l120 127h29l-140 -145h-22l-83 145h25z" />
    <glyph glyph-name="Aringacute" unicode="&#x1fa;" horiz-adv-x="485" 
d="M394 0l-26 230h-256l-117 -230h-25l328 636q-27 5 -42.5 24.5t-15.5 47.5q0 41 28 69.5t68 28.5q35 0 56.5 -20.5t21.5 -53.5q0 -25 -11.5 -46.5t-30.5 -35t-42 -16.5l87 -634h-23zM123 251h242l-53 370zM335 787q-31 0 -52.5 -22.5t-21.5 -55.5q0 -25 15.5 -40.5
t42.5 -15.5q31 0 52.5 22.5t21.5 55.5q0 25 -15.5 40.5t-42.5 15.5zM328 851l96 112h30l-103 -112h-23z" />
    <glyph glyph-name="aringacute" unicode="&#x1fb;" horiz-adv-x="440" 
d="M144 -13q-49 0 -74.5 38.5t-25.5 111.5q0 108 35.5 195.5t92.5 135.5t123 48q48 0 109 -29l-95 -487h-19l16 92q-80 -105 -162 -105zM148 8q37 0 79.5 29.5t84.5 85.5l68 351q-44 21 -87 21q-64 0 -116 -50t-81 -131.5t-29 -176.5q0 -129 81 -129zM302 585
q-35 0 -56.5 20.5t-21.5 53.5q0 41 28 69.5t68 28.5q35 0 56.5 -20.5t21.5 -53.5q0 -41 -28 -69.5t-68 -28.5zM319 738q-31 0 -52.5 -22.5t-21.5 -55.5q0 -25 15.5 -40.5t42.5 -15.5q31 0 52.5 22.5t21.5 55.5q0 25 -15.5 40.5t-42.5 15.5zM312 802l96 112h30l-103 -112h-23
z" />
    <glyph glyph-name="AEacute" unicode="&#x1fc;" horiz-adv-x="748" 
d="M777 693l-4 -21h-283l-59 -301h245l-4 -21h-245l-64 -329h283l-4 -21h-305l53 271h-207l-186 -271h-27l478 693h329zM197 292h197l74 380h-10zM624 769h-24l96 112h32z" />
    <glyph glyph-name="aeacute" unicode="&#x1fd;" horiz-adv-x="672" 
d="M558 516q42 0 66 -26.5t24 -72.5q0 -152 -249 -219l-53 -14v-30q0 -75 24 -110.5t74 -35.5q36 0 75 17.5t70 47.5l8 -17q-32 -32 -73.5 -50.5t-82.5 -18.5q-117 0 -117 165v8q-31 -83 -78.5 -128t-101.5 -45q-49 0 -74.5 38.5t-25.5 113.5q0 107 35.5 194t92.5 135
t123 48q74 0 129 -68q61 68 134 68zM293 495q-64 0 -116 -50t-81 -131t-29 -175q0 -131 81 -131q39 0 77.5 32.5t66.5 86t40 118.5q9 52 30 101.5t50 86.5q-30 33 -57.5 47.5t-61.5 14.5zM398 217q227 63 227 200q0 38 -17.5 58t-50.5 20q-51 0 -96.5 -41.5t-75 -108
t-37.5 -142.5zM418 603l103 145h29l-110 -145h-22z" />
    <glyph glyph-name="Oslashacute" unicode="&#x1fe;" horiz-adv-x="627" 
d="M34 -9l77 95q-30 59 -30 148q0 93 24 185t64.5 156t94 97t118.5 33q53 0 93.5 -21t66.5 -62l73 91l14 -13l-77 -96q30 -58 30 -148q0 -93 -24 -185t-64.5 -156t-94 -97t-118.5 -33q-108 0 -160 83l-73 -90zM559 456q0 76 -24 128l-399 -496q46 -81 148 -81q84 0 145 63
t95.5 170t34.5 216zM379 683q-84 0 -145 -63t-95.5 -170t-34.5 -216q0 -74 23 -128l399 496q-46 81 -147 81zM416 769h-24l96 112h32z" />
    <glyph glyph-name="oslashacute" unicode="&#x1ff;" horiz-adv-x="452" 
d="M14 -6l54 70q-19 41 -19 105q0 89 29 173.5t76 129t109 44.5q73 0 110 -59l47 61l14 -13l-51 -66q19 -44 19 -105q0 -89 -29 -173.5t-76 -129t-109 -44.5q-75 0 -110 58l-50 -64zM261 495q-58 0 -100 -46.5t-66 -125.5t-24 -158q0 -47 12 -82l276 356q-31 56 -98 56z
M380 338q0 48 -12 81l-276 -356q29 -55 98 -55q58 0 100 46.5t66 125.5t24 158zM264 603l103 145h29l-110 -145h-22z" />
    <glyph glyph-name="uni0218" unicode="&#x218;" horiz-adv-x="469" 
d="M237 352q-61 38 -87 76t-26 91q0 55 27 97.5t72 65.5t100 23q69 0 123 -39l-4 -20q-31 20 -59 28.5t-61 8.5q-77 0 -126 -45.5t-49 -117.5q0 -47 22 -80t76 -67l53 -33q51 -32 72.5 -66t21.5 -81q0 -62 -28 -109.5t-77 -73t-111 -25.5q-87 0 -140 42l4 21q53 -41 138 -41
q57 0 100.5 23.5t67 64t23.5 91.5q0 44 -18 74.5t-60 57.5zM121 -264l67 194h8q11 0 11 -10t-12 -40l-56 -144h-18z" />
    <glyph glyph-name="uni0219" unicode="&#x219;" horiz-adv-x="343" 
d="M105 374q0 -27 12 -47.5t40 -40.5l59 -42q31 -23 45 -47.5t14 -57.5q0 -69 -41.5 -110.5t-107.5 -41.5q-29 0 -60 9.5t-52 25.5l6 20q23 -16 51.5 -25t55.5 -9q57 0 91.5 34.5t34.5 94.5q0 25 -12 47.5t-33 37.5l-59 42q-35 25 -50.5 50.5t-15.5 57.5q0 63 40.5 103.5
t105.5 40.5q49 0 93 -25l-4 -20q-47 24 -91 24q-55 0 -88.5 -33t-33.5 -88zM49 -264l67 194h7q11 0 11 -10t-12 -40l-56 -144h-17z" />
    <glyph glyph-name="uni021A" unicode="&#x21a;" horiz-adv-x="435" 
d="M157 0l131 672h-184l4 21h390l-4 -21h-184l-131 -672h-22zM84 -264l67 194h8q11 0 11 -10t-12 -40l-56 -144h-18z" />
    <glyph glyph-name="uni021B" unicode="&#x21b;" horiz-adv-x="303" 
d="M233 24q-40 -30 -87 -30q-36 0 -54.5 18t-18.5 53q0 22 17 109l60 309h-82l3 16l83 4l33 146h17l-29 -146h124l-4 -20h-124l-61 -315q-16 -80 -16 -103q0 -24 14.5 -37.5t39.5 -13.5q22 0 40 6t38 21zM55 -264l67 194h7q11 0 11 -10t-12 -40l-56 -144h-17z" />
    <glyph glyph-name="uni0237" unicode="&#x237;" horiz-adv-x="193" 
d="M156 503l-116 -597q-14 -70 -34 -97t-58 -27q-20 0 -43 11l3 18q19 -9 38 -9q31 0 46 22t27 82l116 597h21z" />
    <glyph glyph-name="uni02B9" unicode="&#x2b9;" horiz-adv-x="189" 
d="M106 478l97 216q6 3 14 3q9 0 13 -3l-106 -216h-18z" />
    <glyph glyph-name="uni02BA" unicode="&#x2ba;" horiz-adv-x="274" 
d="M106 478l97 216q6 3 14 3q9 0 13 -3l-106 -216h-18zM191 478l97 216q6 3 14 3q9 0 13 -3l-106 -216h-18z" />
    <glyph glyph-name="uni02BB" unicode="&#x2bb;" horiz-adv-x="184" 
d="M218 681q-58 -71 -79 -149q-4 -14 -7 -33h-9q-12 0 -12 13q0 22 15 56.5t36.5 68t44.5 56.5z" />
    <glyph glyph-name="uni02BC" unicode="&#x2bc;" horiz-adv-x="184" 
d="M98 511q58 71 79 149q4 14 7 33h9q12 0 12 -13q0 -22 -15 -56.5t-36.5 -68t-44.5 -56.5z" />
    <glyph glyph-name="circumflex" unicode="&#x2c6;" horiz-adv-x="500" 
d="M349 728l-122 -125h-27l141 145h22l82 -145h-23z" />
    <glyph glyph-name="caron" unicode="&#x2c7;" horiz-adv-x="500" 
d="M250 748l71 -127l120 127h29l-140 -145h-22l-83 145h25z" />
    <glyph glyph-name="uni02C9" unicode="&#x2c9;" horiz-adv-x="500" 
d="M222 661l4 19h225l-4 -19h-225z" />
    <glyph glyph-name="uni02CA" unicode="&#x2ca;" horiz-adv-x="500" 
d="M260 603l103 145h29l-110 -145h-22z" />
    <glyph glyph-name="uni02CB" unicode="&#x2cb;" horiz-adv-x="500" 
d="M352 603l-53 145h27l46 -145h-20z" />
    <glyph glyph-name="breve" unicode="&#x2d8;" horiz-adv-x="500" 
d="M315 601q-37 0 -58 22t-21 62q0 12 2.5 25.5t6.5 20.5h17q-6 -24 -6 -45q0 -32 16 -49t45 -17q37 0 62 25t33 70l3 16h18q-3 -58 -35.5 -94t-82.5 -36z" />
    <glyph glyph-name="dotaccent" unicode="&#x2d9;" horiz-adv-x="500" 
d="M327 630q-9 0 -14.5 5t-5.5 14q0 12 7 19.5t17 7.5q9 0 14.5 -5t5.5 -14q0 -12 -7 -19.5t-17 -7.5z" />
    <glyph glyph-name="ring" unicode="&#x2da;" horiz-adv-x="500" 
d="M326 584q-35 0 -56 22t-21 58q0 42 27 74t68 32q35 0 56 -22t21 -58q0 -42 -27 -74t-68 -32zM343 751q-31 0 -52 -25t-21 -61q0 -28 15.5 -45t41.5 -17q31 0 52 25t21 61q0 28 -15.5 45t-41.5 17z" />
    <glyph glyph-name="ogonek" unicode="&#x2db;" horiz-adv-x="500" 
d="M238 -193q-23 -20 -53 -20q-29 0 -44.5 16.5t-15.5 48.5q0 43 29 84t82 73l14 -9q-50 -34 -76.5 -71.5t-26.5 -76.5q0 -45 42 -45q20 0 44 16z" />
    <glyph glyph-name="tilde" unicode="&#x2dc;" horiz-adv-x="500" 
d="M278 718q17 0 29 -8.5t30 -32.5q20 -26 28 -32.5t20 -6.5q33 0 46 50l7 27h17q-1 -16 -6 -31q-19 -65 -65 -65q-17 0 -29 8.5t-30 33.5q-18 24 -26.5 31t-21.5 7q-33 0 -46 -50l-7 -27h-17q1 16 6 31q18 65 65 65z" />
    <glyph glyph-name="hungarumlaut" unicode="&#x2dd;" horiz-adv-x="500" 
d="M211 601l103 145h28l-109 -145h-22zM328 601l103 145h28l-109 -145h-22z" />
    <glyph glyph-name="gravecomb" unicode="&#x300;" horiz-adv-x="0" 
d="M-8 603l-53 145h27l46 -145h-20z" />
    <glyph glyph-name="acutecomb" unicode="&#x301;" horiz-adv-x="0" 
d="M-10 603l103 145h29l-110 -145h-22z" />
    <glyph glyph-name="uni0302" unicode="&#x302;" horiz-adv-x="0" 
d="M29 728l-122 -125h-27l141 145h22l82 -145h-23z" />
    <glyph glyph-name="tildecomb" unicode="&#x303;" horiz-adv-x="0" 
d="M-32 718q17 0 29 -8.5t30 -32.5q20 -26 28 -32.5t20 -6.5q33 0 46 50l7 27h17q-1 -16 -6 -31q-19 -65 -65 -65q-17 0 -29 8.5t-30 33.5q-18 24 -26.5 31t-21.5 7q-33 0 -46 -50l-7 -27h-17q1 16 6 31q18 65 65 65z" />
    <glyph glyph-name="uni0304" unicode="&#x304;" horiz-adv-x="0" 
d="M-88 661l4 19h225l-4 -19h-225z" />
    <glyph glyph-name="uni0306" unicode="&#x306;" horiz-adv-x="0" 
d="M5 601q-37 0 -58 22t-21 62q0 12 2.5 25.5t6.5 20.5h17q-6 -24 -6 -45q0 -32 16 -49t45 -17q37 0 62 25t33 70l3 16h18q-3 -58 -35.5 -94t-82.5 -36z" />
    <glyph glyph-name="uni0307" unicode="&#x307;" horiz-adv-x="0" 
d="M17 630q-9 0 -14.5 5t-5.5 14q0 12 7 19.5t17 7.5q9 0 14.5 -5t5.5 -14q0 -12 -7 -19.5t-17 -7.5z" />
    <glyph glyph-name="uni0308" unicode="&#x308;" horiz-adv-x="0" 
d="M-58 631q-8 0 -13.5 5t-5.5 14q0 11 6.5 18.5t16.5 7.5q8 0 13.5 -5t5.5 -14q0 -11 -7 -18.5t-16 -7.5zM100 631q-8 0 -13.5 5t-5.5 14q0 11 6.5 18.5t16.5 7.5q8 0 13.5 -5t5.5 -14q0 -11 -7 -18.5t-16 -7.5z" />
    <glyph glyph-name="uni030A" unicode="&#x30a;" horiz-adv-x="0" 
d="M16 584q-35 0 -56 22t-21 58q0 42 27 74t68 32q35 0 56 -22t21 -58q0 -42 -27 -74t-68 -32zM33 751q-31 0 -52 -25t-21 -61q0 -28 15.5 -45t41.5 -17q31 0 52 25t21 61q0 28 -15.5 45t-41.5 17z" />
    <glyph glyph-name="uni030B" unicode="&#x30b;" horiz-adv-x="0" 
d="M-79 601l103 145h28l-109 -145h-22zM38 601l103 145h28l-109 -145h-22z" />
    <glyph glyph-name="uni030C" unicode="&#x30c;" horiz-adv-x="0" 
d="M-65 748l71 -127l120 127h29l-140 -145h-22l-83 145h25z" />
    <glyph glyph-name="uni0312" unicode="&#x312;" horiz-adv-x="0" 
d="M9 588h-6q-12 0 -12 10q0 6 13 40l58 151h17z" />
    <glyph glyph-name="uni0315" unicode="&#x315;" horiz-adv-x="0" 
d="M-52 559l36 188q5 5 12 5t10 -5l-43 -188h-15z" />
    <glyph glyph-name="uni0326" unicode="&#x326;" horiz-adv-x="0" 
d="M-77 -264l67 194h7q11 0 11 -10t-12 -40l-56 -144h-17z" />
    <glyph glyph-name="uni0327" unicode="&#x327;" horiz-adv-x="0" 
d="M-78 -253q48 29 73.5 61.5t25.5 65.5q0 37 -37 37q-18 0 -34 -6l4 18q18 8 35 8q25 0 39 -15t14 -42q0 -37 -29 -75t-80 -67z" />
    <glyph glyph-name="uni0328" unicode="&#x328;" horiz-adv-x="0" 
d="M-12 -193q-23 -20 -53 -20q-29 0 -44.5 16.5t-15.5 48.5q0 43 29 84t82 73l14 -9q-50 -34 -76.5 -71.5t-26.5 -76.5q0 -45 42 -45q20 0 44 16z" />
    <glyph glyph-name="uni0344" unicode="&#x344;" horiz-adv-x="0" 
d="M16 688l75 147h28l-85 -147h-18zM-63 631q-8 0 -13.5 5t-5.5 14q0 11 6.5 18.5t16.5 7.5q8 0 13.5 -5t5.5 -14q0 -11 -7 -18.5t-16 -7.5zM105 631q-8 0 -13.5 5t-5.5 14q0 11 6.5 18.5t16.5 7.5q8 0 13.5 -5t5.5 -14q0 -11 -7 -18.5t-16 -7.5z" />
    <glyph glyph-name="uni0374" unicode="&#x374;" horiz-adv-x="189" 
d="M106 478l97 216q6 3 14 3q9 0 13 -3l-106 -216h-18z" />
    <glyph glyph-name="uni0375" unicode="&#x375;" horiz-adv-x="189" 
d="M-28 -216l97 216q6 3 14 3q9 0 13 -3l-107 -216h-17z" />
    <glyph glyph-name="uni037E" unicode="&#x37e;" horiz-adv-x="184" 
d="M-27 -142l74 197h9q12 0 12 -8t-14 -41l-63 -148h-18zM134 461q-9 0 -14.5 5t-5.5 14q0 12 7 19.5t17 7.5q9 0 14.5 -5t5.5 -14q0 -12 -7 -19.5t-17 -7.5z" />
    <glyph glyph-name="tonos" unicode="&#x384;" horiz-adv-x="500" 
d="M277 760h27l-88 -157h-20z" />
    <glyph glyph-name="dieresistonos" unicode="&#x385;" horiz-adv-x="500" 
d="M243 688l75 147h28l-85 -147h-18zM164 631q-8 0 -13.5 5t-5.5 14q0 11 6.5 18.5t16.5 7.5q8 0 13.5 -5t5.5 -14q0 -11 -7 -18.5t-16 -7.5zM332 631q-8 0 -13.5 5t-5.5 14q0 11 6.5 18.5t16.5 7.5q8 0 13.5 -5t5.5 -14q0 -11 -7 -18.5t-16 -7.5z" />
    <glyph glyph-name="Alphatonos" unicode="&#x386;" horiz-adv-x="479" 
d="M388 0l-26 230h-260l-113 -230h-25l344 693h22l81 -693h-23zM112 251h248l-47 409zM155 693h28l-89 -157h-20z" />
    <glyph glyph-name="anoteleia" unicode="&#x387;" horiz-adv-x="184" 
d="M134 461q-9 0 -14.5 5t-5.5 14q0 12 7 19.5t17 7.5q9 0 14.5 -5t5.5 -14q0 -12 -7 -19.5t-17 -7.5z" />
    <glyph glyph-name="Epsilontonos" unicode="&#x388;" horiz-adv-x="513" 
d="M102 0l135 693h305l-4 -21h-283l-59 -301h245l-4 -21h-245l-64 -329h283l-4 -21h-305zM148 693h28l-89 -157h-20z" />
    <glyph glyph-name="Etatonos" unicode="&#x389;" horiz-adv-x="636" 
d="M473 0l68 345h-350l-67 -345h-22l135 693h22l-64 -327h350l63 327h22l-135 -693h-22zM148 693h28l-89 -157h-20z" />
    <glyph glyph-name="Iotatonos" unicode="&#x38a;" horiz-adv-x="265" 
d="M102 0l135 693h22l-135 -693h-22zM148 693h28l-89 -157h-20z" />
    <glyph glyph-name="Omicrontonos" unicode="&#x38c;" horiz-adv-x="680" 
d="M432 683q-84 0 -145 -63t-95.5 -170t-34.5 -216t47 -168t133 -59q84 0 145 63t95.5 170t34.5 216t-47 168t-133 59zM435 705q95 0 147.5 -65.5t52.5 -183.5q0 -93 -24 -185t-64.5 -156t-94 -97t-118.5 -33q-95 0 -147.5 65.5t-52.5 183.5q0 93 24 185t64.5 156t94 97
t118.5 33zM148 693h28l-89 -157h-20z" />
    <glyph glyph-name="Upsilontonos" unicode="&#x38e;" horiz-adv-x="555" 
d="M268 0l49 250l-104 443h23l96 -419l261 419h25l-280 -445l-48 -248h-22zM148 693h28l-89 -157h-20z" />
    <glyph glyph-name="Omegatonos" unicode="&#x38f;" horiz-adv-x="650" 
d="M54 0l4 21h161q-39 44 -61.5 117t-22.5 158q0 122 38 215.5t104 143.5t152 50q96 0 149 -71t53 -196q0 -89 -28 -171t-78 -146t-114 -100h166l-4 -21h-196l4 23q104 58 165 169.5t61 244.5q0 118 -46 182t-133 64q-83 0 -143.5 -50t-93 -138t-32.5 -199
q0 -87 23.5 -159.5t63.5 -113.5l-5 -23h-187zM148 693h28l-89 -157h-20z" />
    <glyph glyph-name="iotadieresistonos" unicode="&#x390;" horiz-adv-x="203" 
d="M142 11q-23 -14 -50 -14q-48 0 -48 50q0 13 7 49l79 407h21l-79 -407q-7 -35 -7 -49q0 -30 32 -30q20 0 40 10zM160 688l75 147h28l-85 -147h-18zM81 631q-8 0 -13.5 5t-5.5 14q0 11 6.5 18.5t16.5 7.5q8 0 13.5 -5t5.5 -14q0 -11 -7 -18.5t-16 -7.5zM249 631
q-8 0 -13.5 5t-5.5 14q0 11 6.5 18.5t16.5 7.5q8 0 13.5 -5t5.5 -14q0 -11 -7 -18.5t-16 -7.5z" />
    <glyph glyph-name="Alpha" unicode="&#x391;" horiz-adv-x="485" 
d="M394 0l-26 230h-260l-113 -230h-25l344 693h22l81 -693h-23zM118 251h248l-47 409z" />
    <glyph glyph-name="Beta" unicode="&#x392;" horiz-adv-x="494" 
d="M43 0l135 693h145q65 0 100.5 -36.5t35.5 -101.5q0 -73 -34 -127.5t-90 -71.5q44 -10 68 -43t24 -84q0 -65 -28 -117.5t-74 -82t-101 -29.5h-181zM132 345l-63 -324h154q53 0 94.5 28t64 75.5t22.5 105.5q0 55 -28.5 85t-79.5 30h-164zM196 672l-60 -306h159
q41 0 73.5 26t50 69t17.5 94q0 56 -30 86.5t-86 30.5h-124z" />
    <glyph glyph-name="Gamma" unicode="&#x393;" horiz-adv-x="390" 
d="M43 0l135 693h277l-4 -21h-255l-131 -672h-22z" />
    <glyph glyph-name="uni0394" unicode="&#x394;" 
d="M-11 22l324 671h22l74 -671l-5 -22h-420zM14 21h372l-67 640z" />
    <glyph glyph-name="Epsilon" unicode="&#x395;" horiz-adv-x="454" 
d="M43 0l135 693h305l-4 -21h-283l-59 -301h245l-4 -21h-245l-64 -329h283l-4 -21h-305z" />
    <glyph glyph-name="Zeta" unicode="&#x396;" horiz-adv-x="458" 
d="M2 0l4 19l452 653h-305l4 21h333l-4 -19l-452 -653h326l-4 -21h-354z" />
    <glyph glyph-name="Eta" unicode="&#x397;" horiz-adv-x="577" 
d="M414 0l68 345h-350l-67 -345h-22l135 693h22l-64 -327h350l63 327h22l-135 -693h-22z" />
    <glyph glyph-name="Theta" unicode="&#x398;" horiz-adv-x="627" 
d="M281 -15q-95 0 -147.5 65.5t-52.5 183.5q0 93 24 185t64.5 156t94 97t118.5 33q95 0 147.5 -65.5t52.5 -183.5q0 -93 -24 -185t-64.5 -156t-94 -97t-118.5 -33zM284 7q84 0 145 63t95.5 170t34.5 216t-47 168t-133 59q-84 0 -145 -63t-95.5 -170t-34.5 -216t47 -168
t133 -59zM200 361h268l-5 -20h-268z" />
    <glyph glyph-name="Iota" unicode="&#x399;" horiz-adv-x="206" 
d="M43 0l135 693h22l-135 -693h-22z" />
    <glyph glyph-name="Kappa" unicode="&#x39a;" horiz-adv-x="430" 
d="M43 0l135 693h22l-62 -318l319 318h28l-331 -329l221 -364h-26l-215 356l-69 -356h-22z" />
    <glyph glyph-name="Lambda" unicode="&#x39b;" horiz-adv-x="472" 
d="M311 659l-316 -659h-25l336 693h22l76 -693h-23z" />
    <glyph glyph-name="Mu" unicode="&#x39c;" horiz-adv-x="665" 
d="M503 0l127 650l-299 -459h-21l-119 464l-127 -655h-21l135 693h25l121 -477l311 477h24l-135 -693h-21z" />
    <glyph glyph-name="Nu" unicode="&#x39d;" horiz-adv-x="571" 
d="M406 0l-214 655l-128 -655h-21l135 693h24l214 -656l128 656h21l-135 -693h-24z" />
    <glyph glyph-name="Xi" unicode="&#x39e;" horiz-adv-x="458" 
d="M7 21h354l-4 -21h-354zM116 371h270l-4 -21h-270zM146 693h336l-4 -21h-336z" />
    <glyph glyph-name="Omicron" unicode="&#x39f;" horiz-adv-x="627" 
d="M379 683q-84 0 -145 -63t-95.5 -170t-34.5 -216t47 -168t133 -59q84 0 145 63t95.5 170t34.5 216t-47 168t-133 59zM382 705q95 0 147.5 -65.5t52.5 -183.5q0 -93 -24 -185t-64.5 -156t-94 -97t-118.5 -33q-95 0 -147.5 65.5t-52.5 183.5q0 93 24 185t64.5 156t94 97
t118.5 33z" />
    <glyph glyph-name="Pi" unicode="&#x3a0;" horiz-adv-x="553" 
d="M390 0l131 672h-325l-131 -672h-22l135 693h369l-135 -693h-22z" />
    <glyph glyph-name="Rho" unicode="&#x3a1;" horiz-adv-x="472" 
d="M123 297l-58 -297h-22l135 693h135q75 0 115.5 -40.5t40.5 -115.5q0 -73 -30.5 -127.5t-83.5 -83.5t-121 -29h-111zM196 672l-69 -354h109q96 0 153 61t57 162q0 64 -35.5 97.5t-102.5 33.5h-112z" />
    <glyph glyph-name="Sigma" unicode="&#x3a3;" horiz-adv-x="455" 
d="M7 22l263 334l-129 315l4 22h354l-4 -21h-330l131 -318l-262 -333h342l-4 -21h-369z" />
    <glyph glyph-name="Tau" unicode="&#x3a4;" horiz-adv-x="435" 
d="M157 0l131 672h-184l4 21h390l-4 -21h-184l-131 -672h-22z" />
    <glyph glyph-name="Upsilon" unicode="&#x3a5;" horiz-adv-x="451" 
d="M164 0l49 250l-104 443h23l96 -419l261 419h25l-280 -445l-48 -248h-22z" />
    <glyph glyph-name="Phi" unicode="&#x3a6;" horiz-adv-x="658" 
d="M280 58q-92 4 -148 64t-56 155q0 105 41.5 186.5t113.5 126t162 46.5l17 87h21l-17 -87q92 -5 148 -65t56 -154q0 -106 -41.5 -187t-113 -125.5t-162.5 -46.5l-17 -88h-21zM596 417q0 87 -50 140.5t-136 58.5l-105 -538q87 2 153.5 47t102 121t35.5 171zM98 277
q0 -88 50 -141.5t136 -57.5l105 538q-87 -2 -153.5 -47t-102 -121t-35.5 -171z" />
    <glyph glyph-name="Chi" unicode="&#x3a7;" horiz-adv-x="455" 
d="M364 0l-118 339l-251 -339h-28l269 360l-114 333h24l107 -317l235 317h27l-252 -337l126 -356h-25z" />
    <glyph glyph-name="Psi" unicode="&#x3a8;" horiz-adv-x="636" 
d="M255 0l36 188q-84 5 -132 56.5t-48 137.5q0 43 16 126l36 185h22l-36 -185q-16 -78 -16 -125q0 -78 43 -124t119 -50l95 484h22l-95 -485q105 0 171.5 68.5t92.5 201.5l42 215h22l-43 -220q-57 -286 -289 -286l-36 -187h-22z" />
    <glyph glyph-name="uni03A9" unicode="&#x3a9;" horiz-adv-x="619" 
d="M1 0l4 21h161q-39 44 -61.5 117t-22.5 158q0 122 38 215.5t104 143.5t152 50q96 0 149 -71t53 -196q0 -89 -28 -171t-78 -146t-114 -100h166l-4 -21h-196l4 23q104 58 165 169.5t61 244.5q0 118 -46 182t-133 64q-83 0 -143.5 -50t-93 -138t-32.5 -199q0 -87 23.5 -159.5
t63.5 -113.5l-5 -23h-187z" />
    <glyph glyph-name="Iotadieresis" unicode="&#x3aa;" horiz-adv-x="206" 
d="M43 0l135 693h22l-135 -693h-22zM131 802q-9 0 -14.5 5t-5.5 14q0 12 7 20t17 8q9 0 14.5 -5t5.5 -14q0 -12 -7 -20t-17 -8zM289 802q-9 0 -14.5 5t-5.5 14q0 12 7 20t17 8q9 0 14.5 -5t5.5 -14q0 -12 -7 -20t-17 -8z" />
    <glyph glyph-name="Upsilondieresis" unicode="&#x3ab;" horiz-adv-x="451" 
d="M164 0l49 250l-104 443h23l96 -419l261 419h25l-280 -445l-48 -248h-22zM251 802q-9 0 -14.5 5t-5.5 14q0 12 7 20t17 8q9 0 14.5 -5t5.5 -14q0 -12 -7 -20t-17 -8zM409 802q-9 0 -14.5 5t-5.5 14q0 12 7 20t17 8q9 0 14.5 -5t5.5 -14q0 -12 -7 -20t-17 -8z" />
    <glyph glyph-name="alphatonos" unicode="&#x3ac;" horiz-adv-x="476" 
d="M143 -13q-50 0 -74.5 38.5t-24.5 116.5q0 99 34.5 186.5t86 137t105.5 49.5q102 0 103 -184q26 87 56 172h22l-15 -43q-36 -104 -56 -175t-30 -132q-10 -59 -10 -89q0 -26 7 -36.5t24 -10.5q20 0 38 8l5 -17q-24 -11 -45 -11q-26 0 -38 15.5t-12 50.5q0 46 16 117
q-35 -88 -87 -140.5t-105 -52.5zM146 8q55 0 108.5 67.5t100.5 197.5q4 114 -17 167.5t-70 53.5q-53 0 -100 -53.5t-74 -133.5t-27 -165q0 -68 19.5 -101t59.5 -33zM344 760h27l-88 -157h-20z" />
    <glyph glyph-name="epsilontonos" unicode="&#x3ad;" horiz-adv-x="341" 
d="M162 -13q-61 0 -96 35.5t-35 96.5q0 58 33.5 99t90.5 53q-33 12 -50 38.5t-17 64.5q0 61 43.5 101.5t108.5 40.5q58 0 108 -28l-5 -19q-48 26 -103 26q-56 0 -92.5 -34t-36.5 -87q0 -47 28.5 -72t82.5 -25h56l-4 -20h-82q-61 0 -99.5 -39t-38.5 -100q0 -53 29 -81.5
t82 -28.5q33 0 65 12t69 39l8 -16q-70 -56 -145 -56zM319 760h27l-88 -157h-20z" />
    <glyph glyph-name="etatonos" unicode="&#x3ae;" horiz-adv-x="483" 
d="M291 -206l89 457q15 78 19 106t4 49q0 46 -17 67.5t-55 21.5q-42 0 -92 -34.5t-97 -95.5l-71 -365h-21l79 406q6 33 6 50t-6.5 25t-21.5 8q-16 0 -34 -9l-5 17q19 12 43 12q22 0 33.5 -13t11.5 -37q0 -18 -6 -51l-2 -13q44 56 94.5 88.5t93.5 32.5q89 0 89 -107
q0 -20 -3.5 -45t-20.5 -113l-89 -457h-21zM377 760h27l-88 -157h-20z" />
    <glyph glyph-name="iotatonos" unicode="&#x3af;" horiz-adv-x="203" 
d="M142 11q-23 -14 -50 -14q-48 0 -48 50q0 13 7 49l79 407h21l-79 -407q-7 -35 -7 -49q0 -30 32 -30q20 0 40 10zM216 760h27l-88 -157h-20z" />
    <glyph glyph-name="upsilondieresistonos" unicode="&#x3b0;" horiz-adv-x="416" 
d="M161 -15q-52 0 -78.5 30.5t-26.5 90.5q0 40 13 104l37 194q7 35 7 52t-6.5 25t-21.5 8q-19 0 -34 -9l-5 17q20 12 43 12q45 0 45 -52q0 -17 -7 -52l-38 -199q-11 -54 -11 -99q0 -52 21.5 -76.5t64.5 -24.5q54 0 98 49.5t68 130t24 174.5q0 68 -19 143h22q19 -66 19 -143
q0 -108 -29.5 -194.5t-78 -133.5t-107.5 -47zM263 688l75 147h28l-85 -147h-18zM184 631q-8 0 -13.5 5t-5.5 14q0 11 6.5 18.5t16.5 7.5q8 0 13.5 -5t5.5 -14q0 -11 -7 -18.5t-16 -7.5zM352 631q-8 0 -13.5 5t-5.5 14q0 11 6.5 18.5t16.5 7.5q8 0 13.5 -5t5.5 -14
q0 -11 -7 -18.5t-16 -7.5z" />
    <glyph glyph-name="alpha" unicode="&#x3b1;" horiz-adv-x="476" 
d="M143 -13q-50 0 -74.5 38.5t-24.5 116.5q0 99 34.5 186.5t86 137t105.5 49.5q102 0 103 -184q26 87 56 172h22l-15 -43q-36 -104 -56 -175t-30 -132q-10 -59 -10 -89q0 -26 7 -36.5t24 -10.5q20 0 38 8l5 -17q-24 -11 -45 -11q-26 0 -38 15.5t-12 50.5q0 46 16 117
q-35 -88 -87 -140.5t-105 -52.5zM146 8q55 0 108.5 67.5t100.5 197.5q4 114 -17 167.5t-70 53.5q-53 0 -100 -53.5t-74 -133.5t-27 -165q0 -68 19.5 -101t59.5 -33z" />
    <glyph glyph-name="beta" unicode="&#x3b2;" horiz-adv-x="443" 
d="M184 -15q-33 0 -67.5 12.5t-57.5 32.5l-46 -236h-21l146 750q40 210 174 210q52 0 80.5 -36.5t28.5 -103.5q0 -81 -36 -139t-98 -76q45 -14 69.5 -57.5t24.5 -110.5q0 -75 -26 -131t-70.5 -85.5t-100.5 -29.5zM63 52q22 -21 55 -33.5t67 -12.5q77 0 125 62t48 161
q0 75 -30.5 116.5t-84.5 41.5h-40l5 20h23q74 0 120.5 57.5t46.5 147.5q0 59 -22.5 90t-65.5 31q-58 0 -95.5 -48t-56.5 -146z" />
    <glyph glyph-name="gamma" unicode="&#x3b3;" horiz-adv-x="340" 
d="M69 -206q21 133 21 255q0 183 -36 454h23q31 -241 34 -407q0 -28 -2 -78q73 104 132 229.5t98 255.5h24q-40 -136 -106.5 -270.5t-148.5 -247.5q-3 -93 -19 -191h-20z" />
    <glyph glyph-name="delta" unicode="&#x3b4;" horiz-adv-x="440" 
d="M179 -13q-62 0 -96.5 48.5t-34.5 135.5q0 113 57.5 197t160.5 119v1q-41 36 -59.5 69.5t-18.5 70.5q0 56 38.5 91t101.5 35q62 0 112 -31l-4 -19q-55 29 -109 29t-85 -28.5t-31 -77.5q0 -31 16 -60t54 -64q60 -55 82.5 -104.5t22.5 -122.5q0 -83 -28.5 -149.5t-75.5 -103
t-103 -36.5zM364 277q0 64 -18 108t-64 88q-100 -32 -155.5 -112t-55.5 -191q0 -78 28.5 -120t80.5 -42q53 0 95.5 37t65.5 98.5t23 133.5z" />
    <glyph glyph-name="epsilon" unicode="&#x3b5;" horiz-adv-x="341" 
d="M162 -13q-61 0 -96 35.5t-35 96.5q0 58 33.5 99t90.5 53q-33 12 -50 38.5t-17 64.5q0 61 43.5 101.5t108.5 40.5q58 0 108 -28l-5 -19q-48 26 -103 26q-56 0 -92.5 -34t-36.5 -87q0 -47 28.5 -72t82.5 -25h56l-4 -20h-82q-61 0 -99.5 -39t-38.5 -100q0 -53 29 -81.5
t82 -28.5q33 0 65 12t69 39l8 -16q-70 -56 -145 -56z" />
    <glyph glyph-name="zeta" unicode="&#x3b6;" horiz-adv-x="319" 
d="M145 -192q92 49 92 112q0 21 -13.5 36t-48.5 32l-40 20q-46 23 -68 60.5t-22 93.5q0 121 77.5 255.5t243.5 302.5h-208l4 20h232l-4 -20q-171 -176 -246.5 -306t-75.5 -251q0 -50 18.5 -83t58.5 -53l40 -20q41 -20 57.5 -39.5t16.5 -46.5q0 -37 -27.5 -71t-77.5 -59z" />
    <glyph glyph-name="eta" unicode="&#x3b7;" horiz-adv-x="483" 
d="M291 -206l89 457q15 78 19 106t4 49q0 46 -17 67.5t-55 21.5q-42 0 -92 -34.5t-97 -95.5l-71 -365h-21l79 406q6 33 6 50t-6.5 25t-21.5 8q-16 0 -34 -9l-5 17q19 12 43 12q22 0 33.5 -13t11.5 -37q0 -18 -6 -51l-2 -13q44 56 94.5 88.5t93.5 32.5q89 0 89 -107
q0 -20 -3.5 -45t-20.5 -113l-89 -457h-21z" />
    <glyph glyph-name="theta" unicode="&#x3b8;" horiz-adv-x="460" 
d="M193 -13q-60 0 -90.5 54t-30.5 159q0 116 20 221.5t53 180t75.5 113.5t92.5 39q60 0 90.5 -54t30.5 -159q0 -116 -20 -221.5t-53 -180t-75.5 -113.5t-92.5 -39zM195 8q69 0 124 98.5t78 256.5h-291q-11 -73 -11 -162q0 -97 24.5 -145t75.5 -48zM311 733q-46 0 -86 -44.5
t-70 -124.5t-46 -182h291q11 82 11 158q0 97 -24.5 145t-75.5 48z" />
    <glyph glyph-name="iota" unicode="&#x3b9;" horiz-adv-x="203" 
d="M142 11q-23 -14 -50 -14q-48 0 -48 50q0 13 7 49l79 407h21l-79 -407q-7 -35 -7 -49q0 -30 32 -30q20 0 40 10z" />
    <glyph glyph-name="kappa" unicode="&#x3ba;" horiz-adv-x="372" 
d="M402 503l-198 -219q21 -63 57 -141.5t73 -142.5h-26q-43 82 -70 141.5t-51 124.5l-105 -115l-29 -151h-21l98 503h21l-61 -315l283 315h29z" />
    <glyph glyph-name="lambda" unicode="&#x3bb;" horiz-adv-x="354" 
d="M275 0l-48 467q-65 -92 -129 -221.5t-102 -245.5h-23q37 118 107.5 256.5t143.5 237.5l-17 160q-5 44 -16.5 62t-34.5 18q-19 0 -43 -8l-5 17q26 11 51 11q31 0 47 -23.5t21 -75.5l71 -655h-23z" />
    <glyph glyph-name="uni03BC" unicode="&#x3bc;" horiz-adv-x="467" 
d="M-8 -206l138 709h21l-48 -246q-24 -121 -24 -164q0 -41 16.5 -63t48.5 -22q45 0 95.5 36t92.5 97l71 362h21l-80 -411q-5 -28 -5 -42q0 -32 27 -32q18 0 31 7l4 -16q-14 -10 -38 -10q-44 0 -44 50q0 28 8 61q-41 -57 -91 -90t-95 -33q-34 0 -53.5 20t-22.5 59l-53 -272
h-20z" />
    <glyph glyph-name="nu" unicode="&#x3bd;" horiz-adv-x="361" 
d="M61 503h23l47 -480q74 103 138 235.5t92 244.5h23q-30 -118 -100.5 -260.5t-147.5 -242.5h-22z" />
    <glyph glyph-name="xi" unicode="&#x3be;" horiz-adv-x="326" 
d="M149 -192q91 48 91 112q0 22 -13.5 37t-47.5 31l-40 20q-48 24 -71.5 63t-23.5 96q0 54 21.5 101.5t58 80t82.5 44.5q-34 15 -54 53.5t-20 92.5q0 62 25 111.5t66.5 76.5t90.5 27q44 0 81 -19l-4 -19q-34 17 -78 17q-46 0 -82 -26.5t-56 -70.5t-20 -97q0 -63 28 -100.5
t77 -37.5h30l-4 -20h-28q-55 0 -98.5 -30.5t-68 -79.5t-24.5 -104q0 -99 82 -140l40 -20q41 -20 57.5 -39.5t16.5 -46.5q0 -37 -27.5 -71t-77.5 -59z" />
    <glyph glyph-name="omicron" unicode="&#x3bf;" horiz-adv-x="443" 
d="M257 495q-56 0 -97 -47t-64 -126t-23 -157q0 -76 29.5 -116.5t83.5 -40.5q56 0 97 47t64 126t23 157q0 76 -29.5 116.5t-83.5 40.5zM184 -13q-63 0 -98.5 48.5t-35.5 133.5q0 88 28.5 173t74.5 129.5t106 44.5q63 0 98.5 -48.5t35.5 -133.5q0 -88 -28.5 -173
t-74.5 -129.5t-106 -44.5z" />
    <glyph glyph-name="pi" unicode="&#x3c0;" horiz-adv-x="464" 
d="M333 -3q-48 0 -48 50q0 13 7 49l75 387h-181q-29 -163 -57.5 -267t-75.5 -216h-24q51 121 79.5 224.5t55.5 258.5h-97l4 20h412l-4 -20h-91l-75 -387q-7 -32 -7 -49q0 -30 32 -30q20 0 40 10l5 -16q-23 -14 -50 -14z" />
    <glyph glyph-name="rho" unicode="&#x3c1;" horiz-adv-x="431" 
d="M-16 -206l94 490q21 110 70 170.5t117 60.5q56 0 87 -44t31 -124q0 -104 -33 -187.5t-87 -129t-117 -45.5q-51 0 -98 33l-43 -224h-21zM51 38q25 -18 47 -25t52 -7q60 0 108.5 48t75 125.5t26.5 167.5q0 71 -24.5 109t-71.5 38q-59 0 -102.5 -56t-63.5 -159z" />
    <glyph glyph-name="sigma1" unicode="&#x3c2;" horiz-adv-x="348" 
d="M152 -192q92 49 92 110q0 23 -14 39.5t-48 30.5l-40 17q-51 22 -72.5 59.5t-21.5 103.5q0 92 36.5 174t92 128t115.5 46q42 0 74 -19l-4 -19q-31 17 -71 17q-59 0 -110.5 -49.5t-80.5 -124t-29 -153.5q0 -60 18.5 -92.5t62.5 -51.5l40 -17q39 -17 56.5 -38t17.5 -50
q0 -36 -27.5 -69.5t-77.5 -58.5z" />
    <glyph glyph-name="sigma" unicode="&#x3c3;" horiz-adv-x="453" 
d="M181 -15q-64 0 -97.5 47.5t-33.5 136.5q0 95 31.5 172.5t83 119.5t112.5 42h190l-4 -20h-132q27 -25 42.5 -75.5t15.5 -110.5q0 -88 -29 -160t-76.5 -112t-102.5 -40zM366 300q0 67 -16.5 116t-44.5 67h-30q-59 0 -105 -43.5t-71.5 -115.5t-25.5 -159q0 -78 28 -118.5
t82 -40.5q52 0 94 40.5t65.5 107.5t23.5 146z" />
    <glyph glyph-name="tau" unicode="&#x3c4;" horiz-adv-x="344" 
d="M156 -3q-48 0 -48 50q0 13 7 49l75 387h-128l4 20h303l-4 -20h-153l-75 -387q-7 -35 -7 -49q0 -16 7.5 -23t23.5 -7q20 0 40 10l5 -16q-23 -14 -50 -14z" />
    <glyph glyph-name="upsilon" unicode="&#x3c5;" horiz-adv-x="416" 
d="M161 -15q-52 0 -78.5 30.5t-26.5 90.5q0 40 13 104l37 194q7 35 7 52t-6.5 25t-21.5 8q-19 0 -34 -9l-5 17q20 12 43 12q45 0 45 -52q0 -17 -7 -52l-38 -199q-11 -54 -11 -99q0 -52 21.5 -76.5t64.5 -24.5q54 0 98 49.5t68 130t24 174.5q0 68 -19 143h22q19 -66 19 -143
q0 -108 -29.5 -194.5t-78 -133.5t-107.5 -47z" />
    <glyph glyph-name="phi" unicode="&#x3c6;" horiz-adv-x="583" 
d="M192 -206l37 194q-54 4 -94 31.5t-61 73t-21 104.5q0 93 37 166.5t100 113t142 39.5l24 123h21l-24 -124q54 -4 94 -31.5t61 -73t21 -104.5q0 -93 -37 -166t-100 -113t-142 -40l-37 -193h-21zM76 197q0 -84 41.5 -134t115.5 -55l95 487q-76 0 -133 -39.5t-88 -107.5
t-31 -151zM506 306q0 84 -42 134t-115 55l-95 -487q75 0 132.5 39.5t88.5 107t31 151.5z" />
    <glyph glyph-name="chi" unicode="&#x3c7;" horiz-adv-x="343" 
d="M154 157l-31 255q-5 41 -15 59t-27 18q-13 0 -26 -4l-5 18q18 6 33 6q28 0 41.5 -22t19.5 -75l28 -233l188 324h25l-208 -352l37 -286q4 -30 13 -43.5t26 -13.5q16 0 29 4l2 -18q-15 -6 -34 -6q-46 0 -56 71l-35 270l-196 -335h-25z" />
    <glyph glyph-name="psi" unicode="&#x3c8;" horiz-adv-x="560" 
d="M185 -206l37 191q-75 7 -115 53.5t-40 126.5q0 35 8 75l31 164q7 35 7 53q0 17 -6.5 24.5t-21.5 7.5q-19 0 -34 -9l-5 17q20 12 43 12q45 0 45 -52q0 -17 -7 -52l-32 -169q-7 -38 -7 -70q0 -72 35.5 -114t102.5 -47l123 634h21l-123 -634q79 2 135.5 46t86 123t29.5 185
q0 77 -17 144h21q18 -72 18 -148q0 -86 -20.5 -155.5t-57.5 -117t-88 -72.5t-111 -25l-37 -191h-21z" />
    <glyph glyph-name="omega" unicode="&#x3c9;" horiz-adv-x="554" 
d="M132 -9q-46 0 -71 38.5t-25 109.5q0 87 37.5 181t107.5 183h25q-72 -93 -109.5 -185.5t-37.5 -179.5q0 -62 19 -94t57 -32q89 0 126 190l27 138h22l-25 -130q-3 -13 -5.5 -39.5t-2.5 -44.5q0 -55 19 -84.5t54 -29.5q40 0 72.5 39.5t50.5 103.5t18 139q0 108 -35 209h23
q35 -102 35 -209q0 -86 -23 -156t-60.5 -108.5t-81.5 -38.5q-42 0 -66 34t-25 92q-19 -61 -51.5 -93.5t-74.5 -32.5z" />
    <glyph glyph-name="iotadieresis" unicode="&#x3ca;" horiz-adv-x="203" 
d="M142 11q-23 -14 -50 -14q-48 0 -48 50q0 13 7 49l79 407h21l-79 -407q-7 -35 -7 -49q0 -30 32 -30q20 0 40 10zM86 631q-8 0 -13.5 5t-5.5 14q0 11 6.5 18.5t16.5 7.5q8 0 13.5 -5t5.5 -14q0 -11 -7 -18.5t-16 -7.5zM244 631q-8 0 -13.5 5t-5.5 14q0 11 6.5 18.5
t16.5 7.5q8 0 13.5 -5t5.5 -14q0 -11 -7 -18.5t-16 -7.5z" />
    <glyph glyph-name="upsilondieresis" unicode="&#x3cb;" horiz-adv-x="416" 
d="M161 -15q-52 0 -78.5 30.5t-26.5 90.5q0 40 13 104l37 194q7 35 7 52t-6.5 25t-21.5 8q-19 0 -34 -9l-5 17q20 12 43 12q45 0 45 -52q0 -17 -7 -52l-38 -199q-11 -54 -11 -99q0 -52 21.5 -76.5t64.5 -24.5q54 0 98 49.5t68 130t24 174.5q0 68 -19 143h22q19 -66 19 -143
q0 -108 -29.5 -194.5t-78 -133.5t-107.5 -47zM189 631q-8 0 -13.5 5t-5.5 14q0 11 6.5 18.5t16.5 7.5q8 0 13.5 -5t5.5 -14q0 -11 -7 -18.5t-16 -7.5zM347 631q-8 0 -13.5 5t-5.5 14q0 11 6.5 18.5t16.5 7.5q8 0 13.5 -5t5.5 -14q0 -11 -7 -18.5t-16 -7.5z" />
    <glyph glyph-name="omicrontonos" unicode="&#x3cc;" horiz-adv-x="443" 
d="M257 495q-56 0 -97 -47t-64 -126t-23 -157q0 -76 29.5 -116.5t83.5 -40.5q56 0 97 47t64 126t23 157q0 76 -29.5 116.5t-83.5 40.5zM184 -13q-63 0 -98.5 48.5t-35.5 133.5q0 88 28.5 173t74.5 129.5t106 44.5q63 0 98.5 -48.5t35.5 -133.5q0 -88 -28.5 -173
t-74.5 -129.5t-106 -44.5zM346 760h27l-88 -157h-20z" />
    <glyph glyph-name="upsilontonos" unicode="&#x3cd;" horiz-adv-x="416" 
d="M161 -15q-52 0 -78.5 30.5t-26.5 90.5q0 40 13 104l37 194q7 35 7 52t-6.5 25t-21.5 8q-19 0 -34 -9l-5 17q20 12 43 12q45 0 45 -52q0 -17 -7 -52l-38 -199q-11 -54 -11 -99q0 -52 21.5 -76.5t64.5 -24.5q54 0 98 49.5t68 130t24 174.5q0 68 -19 143h22q19 -66 19 -143
q0 -108 -29.5 -194.5t-78 -133.5t-107.5 -47zM319 760h27l-88 -157h-20z" />
    <glyph glyph-name="omegatonos" unicode="&#x3ce;" horiz-adv-x="554" 
d="M132 -9q-46 0 -71 38.5t-25 109.5q0 87 37.5 181t107.5 183h25q-72 -93 -109.5 -185.5t-37.5 -179.5q0 -62 19 -94t57 -32q89 0 126 190l27 138h22l-25 -130q-3 -13 -5.5 -39.5t-2.5 -44.5q0 -55 19 -84.5t54 -29.5q40 0 72.5 39.5t50.5 103.5t18 139q0 108 -35 209h23
q35 -102 35 -209q0 -86 -23 -156t-60.5 -108.5t-81.5 -38.5q-42 0 -66 34t-25 92q-19 -61 -51.5 -93.5t-74.5 -32.5zM390 760h27l-88 -157h-20z" />
    <glyph glyph-name="uni03D7" unicode="&#x3d7;" horiz-adv-x="394" 
d="M402 503l-198 -219q21 -64 54.5 -138t70.5 -137q-15 -109 -61.5 -168t-117.5 -59q-32 0 -66 12v20q32 -12 63 -12q63 0 103 50.5t56 149.5q-40 76 -66.5 135.5t-52.5 128.5l-105 -115l-29 -151h-21l98 503h21l-61 -315l283 315h29z" />
    <glyph glyph-name="uni0400" unicode="&#x400;" horiz-adv-x="454" 
d="M43 0l135 693h305l-4 -21h-283l-59 -301h245l-4 -21h-245l-64 -329h283l-4 -21h-305zM327 769l-63 112h30l55 -112h-22z" />
    <glyph glyph-name="uni0401" unicode="&#x401;" horiz-adv-x="454" 
d="M43 0l135 693h305l-4 -21h-283l-59 -301h245l-4 -21h-245l-64 -329h283l-4 -21h-305zM273 802q-9 0 -14.5 5t-5.5 14q0 12 7 20t17 8q9 0 14.5 -5t5.5 -14q0 -12 -7 -20t-17 -8zM431 802q-9 0 -14.5 5t-5.5 14q0 12 7 20t17 8q9 0 14.5 -5t5.5 -14q0 -12 -7 -20t-17 -8z
" />
    <glyph glyph-name="uni0402" unicode="&#x402;" horiz-adv-x="600" 
d="M127 0l131 672h-155l4 21h382l-4 -21h-205l-55 -282q90 40 163 40t112 -42t39 -121q0 -129 -60 -204t-164 -75q-33 0 -63 12l4 20q28 -11 59 -11q94 0 147.5 68.5t53.5 189.5q0 142 -131 142q-77 0 -164 -40l-72 -369h-22z" />
    <glyph glyph-name="uni0403" unicode="&#x403;" horiz-adv-x="390" 
d="M43 0l135 693h277l-4 -21h-255l-131 -672h-22zM338 769h-24l96 112h32z" />
    <glyph glyph-name="uni0404" unicode="&#x404;" horiz-adv-x="501" 
d="M442 48q-38 -30 -83.5 -46.5t-94.5 -16.5q-86 0 -134.5 65t-48.5 180q0 137 46.5 246t123 169t167.5 60q30 0 60 -8.5t53 -23.5l-4 -20q-23 14 -52 22t-58 8q-72 0 -133.5 -41t-104 -112.5t-61.5 -163.5h318l-4 -21h-318q-9 -54 -9 -113q0 -109 42 -167t119 -58
q48 0 88 14t81 46z" />
    <glyph glyph-name="uni0405" unicode="&#x405;" horiz-adv-x="469" 
d="M237 352q-61 38 -87 76t-26 91q0 55 27 97.5t72 65.5t100 23q69 0 123 -39l-4 -20q-31 20 -59 28.5t-61 8.5q-77 0 -126 -45.5t-49 -117.5q0 -47 22 -80t76 -67l53 -33q51 -32 72.5 -66t21.5 -81q0 -62 -28 -109.5t-77 -73t-111 -25.5q-87 0 -140 42l4 21q53 -41 138 -41
q57 0 100.5 23.5t67 64t23.5 91.5q0 44 -18 74.5t-60 57.5z" />
    <glyph glyph-name="uni0406" unicode="&#x406;" horiz-adv-x="206" 
d="M43 0l135 693h22l-135 -693h-22z" />
    <glyph glyph-name="uni0407" unicode="&#x407;" horiz-adv-x="206" 
d="M43 0l135 693h22l-135 -693h-22zM131 802q-9 0 -14.5 5t-5.5 14q0 12 7 20t17 8q9 0 14.5 -5t5.5 -14q0 -12 -7 -20t-17 -8zM289 802q-9 0 -14.5 5t-5.5 14q0 12 7 20t17 8q9 0 14.5 -5t5.5 -14q0 -12 -7 -20t-17 -8z" />
    <glyph glyph-name="uni0408" unicode="&#x408;" horiz-adv-x="341" 
d="M317 693h22l-104 -534q-17 -89 -56 -131.5t-103 -42.5q-56 0 -91 26l4 20q35 -24 86 -24q58 0 90.5 37.5t49.5 122.5z" />
    <glyph glyph-name="uni0409" unicode="&#x409;" horiz-adv-x="740" 
d="M260 693h226l-64 -326h108q72 0 110.5 -37.5t38.5 -107.5q0 -67 -29 -117.5t-79.5 -77.5t-114.5 -27h-127l131 672h-183q-63 -257 -108 -400.5t-84.5 -208.5t-83.5 -65q-14 0 -22 4l4 20q8 -2 17 -2q34 0 69.5 61.5t80 202.5t105.5 389zM418 346l-63 -325h103
q90 0 144 56t54 149q0 58 -33.5 89t-97.5 31h-107z" />
    <glyph glyph-name="uni040A" unicode="&#x40a;" horiz-adv-x="759" 
d="M348 0l68 346h-284l-67 -346h-22l135 693h22l-64 -326h284l63 326h22l-64 -326h108q72 0 110.5 -37.5t38.5 -107.5q0 -67 -29 -117.5t-79.5 -77.5t-114.5 -27h-127zM437 346l-63 -325h103q90 0 144 56t54 149q0 58 -33.5 89t-97.5 31h-107z" />
    <glyph glyph-name="uni040B" unicode="&#x40b;" horiz-adv-x="614" 
d="M127 0l131 672h-155l4 21h382l-4 -21h-205l-55 -282q44 18 96 29t97 11q61 0 93 -29t32 -86q0 -28 -10 -78l-46 -237h-22l48 243q8 44 8 69q0 50 -26 73.5t-81 23.5q-92 0 -193 -41l-72 -368h-22z" />
    <glyph glyph-name="uni040C" unicode="&#x40c;" horiz-adv-x="430" 
d="M43 0l135 693h22l-63 -323l325 323h28l-332 -329l222 -364h-26l-219 361l-70 -361h-22zM351 769h-24l96 112h32z" />
    <glyph glyph-name="uni040D" unicode="&#x40d;" horiz-adv-x="586" 
d="M424 0l125 646l-485 -646h-21l135 693h21l-127 -649l487 649h21l-135 -693h-21zM367 769l-63 112h30l55 -112h-22z" />
    <glyph glyph-name="uni040E" unicode="&#x40e;" horiz-adv-x="439" 
d="M126 693l102 -511l257 511h25l-262 -516q-55 -109 -94.5 -150.5t-87.5 -41.5q-17 0 -33 7l4 19q14 -5 29 -5q37 0 71 34t76 116l-109 537h22zM318 768q-46 0 -73 20.5t-27 56.5q0 30 13 59h19q-12 -30 -12 -58t22 -43t60 -15q56 0 85 27t40 89h19q-15 -136 -146 -136z
" />
    <glyph glyph-name="uni040F" unicode="&#x40f;" horiz-adv-x="545" 
d="M213 0h-170l135 693h22l-131 -672h317l131 672h22l-135 -693h-170l-34 -176h-21z" />
    <glyph glyph-name="uni0410" unicode="&#x410;" horiz-adv-x="485" 
d="M394 0l-26 230h-260l-113 -230h-25l344 693h22l81 -693h-23zM118 251h248l-47 409z" />
    <glyph glyph-name="uni0411" unicode="&#x411;" horiz-adv-x="469" 
d="M43 0l135 693h283l-4 -21h-261l-54 -275h112q74 0 114.5 -40.5t40.5 -115.5q0 -73 -30.5 -128t-83.5 -84t-120 -29h-132zM138 376l-69 -355h108q95 0 152 61.5t57 162.5q0 64 -35 97.5t-102 33.5h-111z" />
    <glyph glyph-name="uni0412" unicode="&#x412;" horiz-adv-x="494" 
d="M43 0l135 693h145q65 0 100.5 -36.5t35.5 -101.5q0 -73 -34 -127.5t-90 -71.5q44 -10 68 -43t24 -84q0 -65 -28 -117.5t-74 -82t-101 -29.5h-181zM132 345l-63 -324h154q53 0 94.5 28t64 75.5t22.5 105.5q0 55 -28.5 85t-79.5 30h-164zM196 672l-60 -306h159
q41 0 73.5 26t50 69t17.5 94q0 56 -30 86.5t-86 30.5h-124z" />
    <glyph glyph-name="uni0413" unicode="&#x413;" horiz-adv-x="390" 
d="M43 0l135 693h277l-4 -21h-255l-131 -672h-22z" />
    <glyph glyph-name="uni0414" unicode="&#x414;" horiz-adv-x="566" 
d="M-7 21h34q49 44 105 192t130 430l13 50h263l-131 -672h67l-38 -197h-21l34 176h-439l-34 -176h-21zM292 672q-68 -271 -127.5 -435.5t-108.5 -215.5h329l127 651h-220z" />
    <glyph glyph-name="uni0415" unicode="&#x415;" horiz-adv-x="454" 
d="M43 0l135 693h305l-4 -21h-283l-59 -301h245l-4 -21h-245l-64 -329h283l-4 -21h-305z" />
    <glyph glyph-name="uni0416" unicode="&#x416;" horiz-adv-x="587" 
d="M-33 0l318 371l-171 322h24l169 -321l63 321h22l-62 -320l287 320h28l-296 -327l173 -366h-26l-168 364l-71 -364h-22l71 363l-310 -363h-29z" />
    <glyph glyph-name="uni0417" unicode="&#x417;" horiz-adv-x="427" 
d="M147 -15q-37 0 -68.5 8t-65.5 26l4 20q60 -32 129 -32q58 0 101.5 27t66.5 74.5t23 108.5q0 129 -123 129h-79l4 20h80q47 0 84.5 25.5t58 66.5t20.5 90q0 65 -35.5 100t-101.5 35q-70 0 -133 -42l-6 16q29 23 66.5 35.5t78.5 12.5q72 0 113 -42t41 -115
q0 -70 -40 -123.5t-103 -68.5q48 -9 73 -44.5t25 -94.5q0 -69 -28.5 -122t-76.5 -81.5t-108 -28.5z" />
    <glyph glyph-name="uni0418" unicode="&#x418;" horiz-adv-x="586" 
d="M424 0l125 646l-485 -646h-21l135 693h21l-127 -649l487 649h21l-135 -693h-21z" />
    <glyph glyph-name="uni0419" unicode="&#x419;" horiz-adv-x="586" 
d="M424 0l125 646l-485 -646h-21l135 693h21l-127 -649l487 649h21l-135 -693h-21zM389 768q-46 0 -73 20.5t-27 56.5q0 30 13 59h19q-12 -30 -12 -58t22 -43t60 -15q56 0 85 27t40 89h19q-15 -136 -146 -136z" />
    <glyph glyph-name="uni041A" unicode="&#x41a;" horiz-adv-x="435" 
d="M43 0l135 693h22l-63 -323l325 323h28l-332 -329l222 -364h-26l-219 361l-70 -361h-22z" />
    <glyph glyph-name="uni041B" unicode="&#x41b;" horiz-adv-x="534" 
d="M502 672h-225q-63 -257 -108 -400.5t-84.5 -208.5t-83.5 -65q-14 0 -22 4l4 20q8 -2 17 -2q34 0 69.5 61.5t80 202.5t105.5 389l5 20h268l-135 -693h-22z" />
    <glyph glyph-name="uni041C" unicode="&#x41c;" horiz-adv-x="665" 
d="M503 0l127 650l-299 -459h-21l-119 464l-127 -655h-21l135 693h25l121 -477l311 477h24l-135 -693h-21z" />
    <glyph glyph-name="uni041D" unicode="&#x41d;" horiz-adv-x="577" 
d="M414 0l68 345h-350l-67 -345h-22l135 693h22l-64 -327h350l63 327h22l-135 -693h-22z" />
    <glyph glyph-name="uni041E" unicode="&#x41e;" horiz-adv-x="627" 
d="M379 683q-84 0 -145 -63t-95.5 -170t-34.5 -216t47 -168t133 -59q84 0 145 63t95.5 170t34.5 216t-47 168t-133 59zM382 705q95 0 147.5 -65.5t52.5 -183.5q0 -93 -24 -185t-64.5 -156t-94 -97t-118.5 -33q-95 0 -147.5 65.5t-52.5 183.5q0 93 24 185t64.5 156t94 97
t118.5 33z" />
    <glyph glyph-name="uni041F" unicode="&#x41f;" horiz-adv-x="553" 
d="M390 0l131 672h-325l-131 -672h-22l135 693h369l-135 -693h-22z" />
    <glyph glyph-name="uni0420" unicode="&#x420;" horiz-adv-x="472" 
d="M123 297l-58 -297h-22l135 693h135q75 0 115.5 -40.5t40.5 -115.5q0 -73 -30.5 -127.5t-83.5 -83.5t-121 -29h-111zM196 672l-69 -354h109q96 0 153 61t57 162q0 64 -35.5 97.5t-102.5 33.5h-112z" />
    <glyph glyph-name="uni0421" unicode="&#x421;" horiz-adv-x="493" 
d="M434 48q-78 -63 -174 -63q-84 0 -131.5 65t-47.5 180q0 137 46 246t121.5 169t165.5 60q30 0 58.5 -8.5t50.5 -23.5l-4 -20q-49 30 -106 30q-88 0 -159 -62t-110 -164.5t-39 -224.5q0 -108 40.5 -166.5t116.5 -58.5q46 0 85 14t80 46z" />
    <glyph glyph-name="uni0422" unicode="&#x422;" horiz-adv-x="435" 
d="M157 0l131 672h-184l4 21h390l-4 -21h-184l-131 -672h-22z" />
    <glyph glyph-name="uni0423" unicode="&#x423;" horiz-adv-x="439" 
d="M126 693l102 -511l257 511h25l-262 -516q-55 -109 -94.5 -150.5t-87.5 -41.5q-17 0 -33 7l4 19q14 -5 29 -5q37 0 71 34t76 116l-109 537h22z" />
    <glyph glyph-name="uni0424" unicode="&#x424;" horiz-adv-x="658" 
d="M280 58q-92 4 -148 64t-56 155q0 105 41.5 186.5t113.5 126t162 46.5l17 87h21l-17 -87q92 -5 148 -65t56 -154q0 -106 -41.5 -187t-113 -125.5t-162.5 -46.5l-17 -88h-21zM596 417q0 87 -50 140.5t-136 58.5l-105 -538q87 2 153.5 47t102 121t35.5 171zM98 277
q0 -88 50 -141.5t136 -57.5l105 538q-87 -2 -153.5 -47t-102 -121t-35.5 -171z" />
    <glyph glyph-name="uni0425" unicode="&#x425;" horiz-adv-x="455" 
d="M364 0l-118 339l-251 -339h-28l269 360l-114 333h24l107 -317l235 317h27l-252 -337l126 -356h-25z" />
    <glyph glyph-name="uni0426" unicode="&#x426;" horiz-adv-x="558" 
d="M407 -176l34 176h-398l135 693h22l-131 -672h308l131 672h22l-131 -672h67l-38 -197h-21z" />
    <glyph glyph-name="uni0427" unicode="&#x427;" horiz-adv-x="519" 
d="M356 0l64 326q-90 -42 -195 -42q-63 0 -93 25.5t-30 79.5q0 26 7.5 68t17.5 92l28 144h22l-28 -144l-13.5 -67.5t-8.5 -48.5t-3 -42q0 -46 24.5 -66t78.5 -20q105 0 198 42l66 346h22l-135 -693h-22z" />
    <glyph glyph-name="uni0428" unicode="&#x428;" horiz-adv-x="774" 
d="M178 693h22l-131 -672h262l131 672h22l-131 -672h262l131 672h22l-135 -693h-590z" />
    <glyph glyph-name="uni0429" unicode="&#x429;" horiz-adv-x="783" 
d="M632 -176l34 176h-623l135 693h22l-131 -672h255l131 672h22l-131 -672h256l131 672h22l-131 -672h67l-38 -197h-21z" />
    <glyph glyph-name="uni042A" unicode="&#x42a;" horiz-adv-x="532" 
d="M111 0l131 672h-145l4 21h167l-59 -302h110q73 0 112.5 -40t39.5 -114q0 -72 -30 -126t-82 -82.5t-118 -28.5h-130zM205 370l-68 -349h106q93 0 149 60t56 160q0 63 -34.5 96t-99.5 33h-109z" />
    <glyph glyph-name="uni042B" unicode="&#x42b;" horiz-adv-x="601" 
d="M141 391h106q71 0 109.5 -40t38.5 -114q0 -72 -29 -125.5t-80 -82.5t-115 -29h-128l135 693h22zM137 370l-68 -349h104q90 0 144.5 60t54.5 160q0 63 -33 96t-97 33h-105zM438 0l135 693h22l-135 -693h-22z" />
    <glyph glyph-name="uni042C" unicode="&#x42c;" horiz-adv-x="487" 
d="M43 0l135 693h22l-59 -302h120q80 0 122.5 -40t42.5 -114q0 -72 -32 -126t-87 -82.5t-125 -28.5h-139zM137 370l-68 -349h115q67 0 116.5 28t76 77.5t26.5 114.5q0 63 -37.5 96t-109.5 33h-119z" />
    <glyph glyph-name="uni042D" unicode="&#x42d;" horiz-adv-x="494" 
d="M138 -15q-36 0 -69 8t-56 23l4 20q52 -29 122 -29q72 0 132.5 44t99 120.5t50.5 173.5h-296l4 21h294q3 29 3 59q0 125 -46.5 191.5t-134.5 66.5q-36 0 -75.5 -14t-72.5 -39l-7 17q29 24 73.5 41t80.5 17q100 0 152.5 -72.5t52.5 -211.5q0 -127 -42 -227t-112.5 -154.5
t-156.5 -54.5z" />
    <glyph glyph-name="uni042E" unicode="&#x42e;" horiz-adv-x="781" 
d="M451 -15q-86 0 -133.5 63.5t-47.5 177.5q0 58 10 119h-148l-67 -345h-22l135 693h22l-64 -327h147q19 104 58.5 181.5t93.5 117.5t120 40q86 0 133.5 -63.5t47.5 -177.5q0 -92 -23.5 -186t-62 -160t-89 -99.5t-110.5 -33.5zM551 683q-79 0 -136 -64.5t-89.5 -174
t-32.5 -218.5q0 -105 42.5 -162t119.5 -57q79 0 136 64.5t89.5 174t32.5 218.5q0 105 -42.5 162t-119.5 57z" />
    <glyph glyph-name="uni042F" unicode="&#x42f;" horiz-adv-x="476" 
d="M214 321q-52 13 -79.5 48.5t-27.5 91.5q0 107 55 169.5t148 62.5h160l-135 -693h-22l62 318h-138l-234 -318h-27zM130 464q0 -58 31.5 -91.5t85.5 -33.5h132l65 333h-133q-84 0 -132.5 -56t-48.5 -152z" />
    <glyph glyph-name="uni0430" unicode="&#x430;" horiz-adv-x="444" 
d="M144 -13q-49 0 -74.5 38.5t-25.5 111.5q0 108 35.5 195.5t92.5 135.5t123 48q48 0 109 -29l-95 -487h-19l16 92q-80 -105 -162 -105zM148 8q37 0 79.5 29.5t84.5 85.5l68 351q-44 21 -87 21q-64 0 -116 -50t-81 -131.5t-29 -176.5q0 -129 81 -129z" />
    <glyph glyph-name="uni0431" unicode="&#x431;" horiz-adv-x="462" 
d="M197 -13q-64 0 -99 52t-35 145q0 105 24 204t64 173t89 110q28 21 102 39l141 34l-4 -22l-123 -29q-47 -11 -69.5 -20t-40.5 -23q-44 -35 -81.5 -108.5t-57.5 -165.5q36 39 80 60t89 21q65 0 96 -42.5t31 -130.5q0 -86 -28 -154t-74.5 -105.5t-103.5 -37.5zM273 436
q-44 0 -89 -21.5t-82 -61.5q-9 -45 -12.5 -81.5t-3.5 -87.5q0 -84 29.5 -130t82.5 -46t94.5 37t64.5 99.5t23 139.5q0 79 -25.5 115.5t-81.5 36.5z" />
    <glyph glyph-name="uni0432" unicode="&#x432;" horiz-adv-x="423" 
d="M343 154q0 -74 -46 -120.5t-120 -46.5q-62 0 -96 41.5t-34 116.5q0 107 33 192.5t87.5 132t118.5 46.5q44 0 70 -25.5t26 -69.5q0 -47 -36.5 -87t-101.5 -64q31 -3 53 -18.5t34 -40.5t12 -57zM74 223q-5 -31 -5 -78q0 -67 28 -102t81 -35q65 0 104 40t39 106
q0 46 -26.5 73.5t-73.5 32.5q-13 -5 -29 -8zM188 271q84 22 128 60t44 90q0 35 -19.5 54.5t-56.5 19.5q-50 0 -93 -32.5t-73 -90t-42 -130.5z" />
    <glyph glyph-name="uni0433" unicode="&#x433;" horiz-adv-x="346" 
d="M143 -13q-53 0 -84.5 31t-31.5 83t31 90.5t98 69.5l30 14q65 30 93 61.5t28 75.5q0 40 -24 61.5t-70 21.5q-64 0 -106 -26l-7 16q44 31 114 31q54 0 84.5 -28t30.5 -76q0 -50 -33 -87t-106 -70l-28 -13q-58 -27 -85.5 -61.5t-27.5 -79.5q0 -43 25.5 -68t69.5 -25
q70 0 117 34l5 -17q-49 -38 -123 -38z" />
    <glyph glyph-name="uni0434" unicode="&#x434;" horiz-adv-x="447" 
d="M46 159q0 62 17 126t45 109t64.5 68t79.5 23q59 0 91 -33.5t39 -101.5q7 56 7 137q0 119 -37.5 176t-121.5 66l2 19q90 -4 134 -68.5t44 -194.5q0 -152 -28 -265.5t-79 -173t-122 -59.5q-64 0 -99.5 45t-35.5 127zM253 464q-43 0 -77 -26t-57.5 -71t-36.5 -102t-13 -110
q0 -71 29.5 -109t84.5 -38q56 0 97 43.5t64 117t23 148.5q0 71 -29.5 109t-84.5 38z" />
    <glyph glyph-name="uni0435" unicode="&#x435;" horiz-adv-x="394" 
d="M319 56q-32 -32 -73.5 -50.5t-82.5 -18.5q-59 0 -88 41t-29 125q0 77 21 145.5t54.5 117t74.5 74.5t84 26q42 0 66 -26.5t24 -72.5q0 -152 -249 -219l-53 -14v-30q0 -75 24 -110.5t74 -35.5q36 0 75 17.5t70 47.5zM279 495q-51 0 -96.5 -41.5t-75 -108t-37.5 -142.5
l50 14q227 63 227 200q0 38 -17.5 58t-50.5 20z" />
    <glyph glyph-name="uni0436" unicode="&#x436;" horiz-adv-x="708" 
d="M676 516q21 0 35 -7l-4 -18q-13 4 -32 4q-51 0 -92 -51.5t-63.5 -135t-22.5 -181.5q0 -61 16 -90t50 -29q25 0 45 10l7 -17q-22 -14 -57 -14q-41 0 -62 35.5t-21 105.5q0 67 10 121h-123l-48 -249h-21l48 249h-122q-20 -117 -72 -189.5t-118 -72.5q-21 0 -35 7l4 18
q13 -4 32 -4q51 0 92 51.5t63.5 135t22.5 181.5q0 61 -16 90t-50 29q-25 0 -45 -10l-7 17q22 14 57 14q41 0 62 -35.5t21 -105.5q0 -52 -8 -106h123l46 234h21l-46 -234h122q23 112 74 179.5t114 67.5z" />
    <glyph glyph-name="uni0437" unicode="&#x437;" horiz-adv-x="359" 
d="M104 -13q-35 0 -60 6.5t-48 21.5l4 19q22 -14 46 -20t57 -6q69 0 111 41t42 109q0 90 -99 90h-61l4 21h60q57 0 94.5 40t37.5 100q0 42 -24 64t-69 22q-62 0 -107 -34l-7 16q23 18 53.5 28.5t62.5 10.5q54 0 83.5 -28.5t29.5 -79.5q0 -57 -33.5 -98t-86.5 -51
q40 -5 62 -31.5t22 -69.5q0 -75 -48.5 -123t-125.5 -48z" />
    <glyph glyph-name="uni0438" unicode="&#x438;" horiz-adv-x="464" 
d="M310 0l20 114q-40 -59 -90 -93t-94 -34q-41 0 -63.5 26t-22.5 75q0 41 25 169l48 246h21l-48 -246q-24 -121 -24 -167q0 -82 69 -82q43 0 92 36t93 101l70 358h21l-98 -503h-19z" />
    <glyph glyph-name="uni0439" unicode="&#x439;" horiz-adv-x="464" 
d="M310 0l20 114q-40 -59 -90 -93t-94 -34q-41 0 -63.5 26t-22.5 75q0 41 25 169l48 246h21l-48 -246q-24 -121 -24 -167q0 -82 69 -82q43 0 92 36t93 101l70 358h21l-98 -503h-19zM287 601q-46 0 -72.5 22.5t-26.5 60.5q0 33 13 63h18q-7 -20 -9.5 -33t-2.5 -29
q0 -31 21.5 -48t60.5 -17q55 0 84.5 30t40.5 97h18q-15 -146 -145 -146z" />
    <glyph glyph-name="uni043A" unicode="&#x43a;" horiz-adv-x="369" 
d="M36 0l98 503h21l-46 -237l253 237h30l-263 -244l187 -259h-27l-183 254l-49 -254h-21z" />
    <glyph glyph-name="uni043B" unicode="&#x43b;" horiz-adv-x="450" 
d="M-5 -13q-16 0 -26 5l4 18q8 -2 21 -2q43 0 80 108l49 143q37 108 63 160.5t56 74.5t77 22q46 0 94 -20l-97 -496h-21l95 483q-36 12 -73 12q-36 0 -61.5 -16.5t-49.5 -63t-63 -162.5l-49 -143q-22 -64 -45.5 -93.5t-53.5 -29.5z" />
    <glyph glyph-name="uni043C" unicode="&#x43c;" horiz-adv-x="554" 
d="M398 0l89 457l-229 -353h-20l-91 360l-90 -464h-21l98 503h23l94 -375l243 375h23l-98 -503h-21z" />
    <glyph glyph-name="uni043D" unicode="&#x43d;" horiz-adv-x="474" 
d="M318 0l48 249h-261l-48 -249h-21l98 503h21l-46 -234h261l46 234h21l-98 -503h-21z" />
    <glyph glyph-name="uni043E" unicode="&#x43e;" horiz-adv-x="452" 
d="M261 495q-58 0 -100 -46.5t-66 -125.5t-24 -158q0 -76 30.5 -116.5t88.5 -40.5t100 46.5t66 125.5t24 158q0 76 -30.5 116.5t-88.5 40.5zM188 -13q-66 0 -102.5 48t-36.5 134q0 89 29 173.5t76 129t109 44.5q66 0 102.5 -48t36.5 -134q0 -89 -29 -173.5t-76 -129
t-109 -44.5z" />
    <glyph glyph-name="uni043F" unicode="&#x43f;" horiz-adv-x="473" 
d="M317 0l49 251q15 78 19 106t4 49q0 46 -17 67.5t-55 21.5q-42 0 -92 -34.5t-97 -95.5l-71 -365h-21l98 503h19l-19 -108q44 56 94.5 88.5t93.5 32.5q89 0 89 -107q0 -20 -3.5 -45t-20.5 -113l-49 -251h-21z" />
    <glyph glyph-name="uni0440" unicode="&#x440;" horiz-adv-x="447" 
d="M399 354q0 -106 -33 -190.5t-88 -130.5t-120 -46q-51 0 -97 32l-44 -225h-21l138 709h19l-17 -96q42 52 84.5 80.5t79.5 28.5q47 0 73 -43t26 -119zM296 495q-37 0 -82 -33t-84 -87l-65 -336q24 -17 45.5 -24t51.5 -7q61 0 110.5 48t76.5 126.5t27 171.5q0 67 -21 104
t-59 37z" />
    <glyph glyph-name="uni0441" unicode="&#x441;" horiz-adv-x="381" 
d="M310 55q-32 -32 -71 -50t-77 -18q-57 0 -86.5 42.5t-29.5 124.5q0 103 36 186.5t93.5 129.5t124.5 46q38 0 74 -19l-4 -19q-41 17 -71 17q-66 0 -119 -48t-82 -125.5t-29 -168.5q0 -145 98 -145q69 0 135 64z" />
    <glyph glyph-name="uni0442" unicode="&#x442;" horiz-adv-x="717" 
d="M562 0l49 251q14 69 18 98t4 56q0 47 -17.5 68.5t-53.5 21.5q-38 0 -83.5 -34.5t-90.5 -98.5q-1 -24 -19 -111l-49 -251h-21l49 251q15 74 18.5 101t3.5 53q0 47 -17.5 68.5t-53.5 21.5q-38 0 -82.5 -33.5t-88.5 -94.5l-71 -367h-21l98 503h19l-19 -106q40 55 85.5 87
t84.5 32q88 0 88 -104v-11.5t-1 -11.5q42 59 89 93t87 34q88 0 88 -108q0 -18 -2 -37.5t-7.5 -47.5t-13.5 -71l-49 -252h-21z" />
    <glyph glyph-name="uni0443" unicode="&#x443;" horiz-adv-x="366" 
d="M-63 -199q41 11 81 48q58 56 117 151l-74 503h21l68 -481q49 85 118 232t107 249h23q-135 -336 -260 -533q-51 -79 -100 -127t-91 -60z" />
    <glyph glyph-name="uni0444" unicode="&#x444;" horiz-adv-x="610" 
d="M204 -206l47 245q-29 -25 -58.5 -38.5t-54.5 -13.5q-45 0 -69.5 40.5t-24.5 115.5q0 108 30 193.5t80 132.5t109 47q38 0 75 -30l49 254h21l-54 -277q63 53 114 53q45 0 69.5 -40.5t24.5 -115.5q0 -108 -30 -193.5t-80 -132.5t-109 -47q-37 0 -75 30l-43 -223h-21z
M464 495q-25 0 -55 -14t-59 -39l-79 -408q19 -14 35.5 -20t39.5 -6q55 0 99.5 49t69 128.5t24.5 174.5q0 66 -19.5 100.5t-55.5 34.5zM142 8q25 0 55 14t58 38l79 409q-20 15 -36 20.5t-38 5.5q-55 0 -99.5 -49t-69 -128.5t-24.5 -174.5q0 -66 19.5 -100.5t55.5 -34.5z" />
    <glyph glyph-name="uni0445" unicode="&#x445;" horiz-adv-x="342" 
d="M255 0l-86 245l-177 -245h-27l195 264l-85 239h24l78 -226l163 226h26l-181 -245l94 -258h-24z" />
    <glyph glyph-name="uni0446" unicode="&#x446;" horiz-adv-x="465" 
d="M368 -1q-46 1 -46 50q0 21 9 65q-41 -59 -91 -93t-94 -34q-41 0 -63.5 26t-22.5 75q0 41 25 169l48 246h21l-48 -246q-24 -121 -24 -167q0 -82 69 -82q43 0 92 36t93 101l70 358h21l-65 -334q-19 -94 -19 -118q0 -33 28 -33q11 0 21 3l-36 -185h-20z" />
    <glyph glyph-name="uni0447" unicode="&#x447;" horiz-adv-x="432" 
d="M276 0l42 216q-70 -30 -143 -30q-103 0 -103 108q0 35 18 122l17 87h21l-17 -87q-12 -58 -15 -77.5t-3 -42.5q0 -45 20.5 -67t63.5 -22q77 0 145 29l52 267h21l-98 -503h-21z" />
    <glyph glyph-name="uni0448" unicode="&#x448;" horiz-adv-x="690" 
d="M536 0l20 116q-36 -60 -81.5 -94.5t-86.5 -34.5q-37 0 -57.5 26t-20.5 75q0 24 2 40q-37 -66 -84 -103.5t-90 -37.5q-37 0 -57.5 26t-20.5 75q0 46 24 169l48 246h21l-48 -246q-23 -116 -23 -167q0 -82 60 -82q41 0 87 40t88 113q5 32 17 96l48 246h21l-48 -246
q-23 -116 -23 -167q0 -82 60 -82q40 0 85.5 38t85.5 105l69 352h21l-98 -503h-19z" />
    <glyph glyph-name="uni0449" unicode="&#x449;" horiz-adv-x="691" 
d="M594 -1q-46 1 -46 50q0 22 9 68q-36 -60 -82 -95t-87 -35q-37 0 -57.5 26t-20.5 75q0 24 2 40q-37 -66 -84 -103.5t-90 -37.5q-37 0 -57.5 26t-20.5 75q0 46 24 169l48 246h21l-48 -246q-23 -116 -23 -167q0 -82 60 -82q41 0 87 40t88 113q5 32 17 96l48 246h21l-48 -246
q-23 -116 -23 -167q0 -82 60 -82q40 0 85.5 38t85.5 105l69 352h21l-65 -334q-19 -97 -19 -118q0 -33 28 -33q11 0 21 3l-36 -185h-20z" />
    <glyph glyph-name="uni044A" unicode="&#x44a;" horiz-adv-x="444" 
d="M195 482h-130l4 21h152l-47 -213q53 28 106 28q51 0 81 -37t30 -102q0 -54 -23 -98.5t-61 -69t-82 -24.5q-54 0 -79.5 29t-25.5 90q0 22 3.5 46.5t13.5 68.5zM278 297q-58 0 -109 -27l-11 -51q-16 -71 -16 -111q0 -53 20 -76.5t64 -23.5q41 0 74 24t51 63t18 85
q0 55 -24 86t-67 31z" />
    <glyph glyph-name="uni044B" unicode="&#x44b;" horiz-adv-x="524" 
d="M164 -13q-53 0 -78 29t-25 90q0 39 17 115l63 282h21l-47 -213q52 28 104 28q51 0 80 -37t29 -102q0 -54 -23 -98.5t-60.5 -69t-80.5 -24.5zM217 297q-57 0 -107 -27l-11 -51q-16 -71 -16 -111q0 -52 19.5 -76t62.5 -24q40 0 72.5 24t50.5 63t18 85q0 56 -23.5 86.5
t-65.5 30.5zM367 0l98 503h21l-98 -503h-21z" />
    <glyph glyph-name="uni044C" unicode="&#x44c;" horiz-adv-x="391" 
d="M169 -13q-55 0 -81.5 29t-26.5 90q0 22 3.5 46t13.5 69l63 282h21l-47 -213q53 28 109 28q53 0 83.5 -37t30.5 -102q0 -54 -23.5 -98.5t-62 -69t-83.5 -24.5zM222 297q-59 0 -112 -27l-11 -51q-16 -71 -16 -111q0 -53 21 -76.5t66 -23.5q42 0 75.5 24t52 63t18.5 85
q0 56 -24.5 86.5t-69.5 30.5z" />
    <glyph glyph-name="uni044D" unicode="&#x44d;" horiz-adv-x="390" 
d="M93 269h219q3 26 3 54q0 83 -32.5 127.5t-93.5 44.5q-52 0 -102 -39l-7 16q24 20 54 32t57 12q69 0 107.5 -51t38.5 -143q0 -102 -31 -178t-86.5 -116.5t-126.5 -40.5q-51 0 -89 22l4 19q40 -20 85 -20q86 0 144 64.5t73 176.5h-221z" />
    <glyph glyph-name="uni044E" unicode="&#x44e;" horiz-adv-x="604" 
d="M352 -13q-61 0 -94 46t-33 130q0 42 7 85h-127l-48 -248h-21l98 503h21l-46 -235h126q14 76 42.5 133t66 86t83.5 29q61 0 94 -46t33 -130q0 -89 -27.5 -175.5t-72.5 -132t-102 -45.5zM425 495q-54 0 -93.5 -48.5t-62 -129t-22.5 -159.5q0 -72 27.5 -111t79.5 -39
q54 0 93.5 48.5t62 129t22.5 159.5q0 72 -27.5 111t-79.5 39z" />
    <glyph glyph-name="uni044F" unicode="&#x44f;" horiz-adv-x="398" 
d="M208 220q-23 0 -33 2l-165 -222h-25l170 227q-39 13 -60 43.5t-21 76.5q0 75 47.5 122t123.5 47q30 0 60.5 -7t55.5 -20l-95 -489h-21l42 220h-79zM246 495q-67 0 -108 -40.5t-41 -107.5q0 -51 28.5 -79t81.5 -28h84l47 238q-45 17 -92 17z" />
    <glyph glyph-name="uni0450" unicode="&#x450;" horiz-adv-x="394" 
d="M319 56q-32 -32 -73.5 -50.5t-82.5 -18.5q-59 0 -88 41t-29 125q0 77 21 145.5t54.5 117t74.5 74.5t84 26q42 0 66 -26.5t24 -72.5q0 -152 -249 -219l-53 -14v-30q0 -75 24 -110.5t74 -35.5q36 0 75 17.5t70 47.5zM279 495q-51 0 -96.5 -41.5t-75 -108t-37.5 -142.5
l50 14q227 63 227 200q0 38 -17.5 58t-50.5 20zM267 603l-53 145h27l46 -145h-20z" />
    <glyph glyph-name="uni0451" unicode="&#x451;" horiz-adv-x="394" 
d="M319 56q-32 -32 -73.5 -50.5t-82.5 -18.5q-59 0 -88 41t-29 125q0 77 21 145.5t54.5 117t74.5 74.5t84 26q42 0 66 -26.5t24 -72.5q0 -152 -249 -219l-53 -14v-30q0 -75 24 -110.5t74 -35.5q36 0 75 17.5t70 47.5zM279 495q-51 0 -96.5 -41.5t-75 -108t-37.5 -142.5
l50 14q227 63 227 200q0 38 -17.5 58t-50.5 20zM217 631q-8 0 -13.5 5t-5.5 14q0 11 6.5 18.5t16.5 7.5q8 0 13.5 -5t5.5 -14q0 -11 -7 -18.5t-16 -7.5zM375 631q-8 0 -13.5 5t-5.5 14q0 11 6.5 18.5t16.5 7.5q8 0 13.5 -5t5.5 -14q0 -11 -7 -18.5t-16 -7.5z" />
    <glyph glyph-name="uni0452" unicode="&#x452;" horiz-adv-x="467" 
d="M182 588l-55 -282q45 57 91.5 87.5t88.5 30.5q44 0 66.5 -40t22.5 -116q0 -124 -36.5 -241t-92 -181t-121.5 -64q-23 0 -41 7l4 17q16 -4 38 -4q64 0 115.5 70t81.5 178.5t30 214.5q0 68 -18 103t-52 35q-85 0 -183 -130l-53 -273h-21l114 588h-76l4 20h76l26 132h21
l-26 -132h163l-4 -20h-163z" />
    <glyph glyph-name="uni0453" unicode="&#x453;" horiz-adv-x="346" 
d="M143 -13q-53 0 -84.5 31t-31.5 83t31 90.5t98 69.5l30 14q65 30 93 61.5t28 75.5q0 40 -24 61.5t-70 21.5q-64 0 -106 -26l-7 16q44 31 114 31q54 0 84.5 -28t30.5 -76q0 -50 -33 -87t-106 -70l-28 -13q-58 -27 -85.5 -61.5t-27.5 -79.5q0 -43 25.5 -68t69.5 -25
q70 0 117 34l5 -17q-49 -38 -123 -38zM204 603l103 145h29l-110 -145h-22z" />
    <glyph glyph-name="uni0454" unicode="&#x454;" horiz-adv-x="393" 
d="M314 249h-236q-9 -46 -9 -96q0 -145 104 -145q36 0 73 16.5t68 47.5l8 -17q-32 -32 -73 -50t-81 -18q-60 0 -91 42.5t-31 124.5q0 79 22 147t59 116t83 73.5t96 25.5q41 0 80 -19l-4 -19q-41 17 -77 17q-76 0 -137 -62t-86 -164h236z" />
    <glyph glyph-name="uni0455" unicode="&#x455;" horiz-adv-x="343" 
d="M105 374q0 -27 12 -47.5t40 -40.5l59 -42q31 -23 45 -47.5t14 -57.5q0 -69 -41.5 -110.5t-107.5 -41.5q-29 0 -60 9.5t-52 25.5l6 20q23 -16 51.5 -25t55.5 -9q57 0 91.5 34.5t34.5 94.5q0 25 -12 47.5t-33 37.5l-59 42q-35 25 -50.5 50.5t-15.5 57.5q0 63 40.5 103.5
t105.5 40.5q49 0 93 -25l-4 -20q-47 24 -91 24q-55 0 -88.5 -33t-33.5 -88z" />
    <glyph glyph-name="uni0456" unicode="&#x456;" horiz-adv-x="201" 
d="M139 503h21l-98 -503h-21zM171 632q-19 0 -19 18q0 11 6.5 18.5t16.5 7.5q19 0 19 -18q0 -11 -6.5 -18.5t-16.5 -7.5z" />
    <glyph glyph-name="uni0457" unicode="&#x457;" horiz-adv-x="201" 
d="M139 503h21l-98 -503h-21zM92 631q-8 0 -13.5 5t-5.5 14q0 11 6.5 18.5t16.5 7.5q8 0 13.5 -5t5.5 -14q0 -11 -7 -18.5t-16 -7.5zM250 631q-8 0 -13.5 5t-5.5 14q0 11 6.5 18.5t16.5 7.5q8 0 13.5 -5t5.5 -14q0 -11 -7 -18.5t-16 -7.5z" />
    <glyph glyph-name="uni0458" unicode="&#x458;" horiz-adv-x="201" 
d="M160 503l-116 -597q-14 -70 -34 -97t-58 -27q-20 0 -43 11l3 18q19 -9 38 -9q31 0 46 22t27 82l116 597h21zM171 632q-19 0 -19 18q0 11 6.5 18.5t16.5 7.5q19 0 19 -18q0 -11 -6.5 -18.5t-16.5 -7.5z" />
    <glyph glyph-name="uni0459" unicode="&#x459;" horiz-adv-x="614" 
d="M94 110q-22 -64 -45.5 -93.5t-53.5 -29.5q-16 0 -26 5l4 18q8 -2 21 -2q43 0 80 108l49 143q36 106 62.5 159t56.5 75.5t78 22.5q18 0 39 -4.5t37 -11.5l-46 -210q52 28 103 28q50 0 79 -37t29 -102q0 -54 -22.5 -98.5t-60 -69t-80.5 -24.5q-52 0 -77 29t-25 90
q0 22 3.5 46t13.5 69l59 266q-27 8 -54 8q-37 0 -62.5 -17.5t-50 -65t-62.5 -159.5zM451 297q-56 0 -106 -27l-11 -51q-16 -71 -16 -111q0 -53 19.5 -76.5t61.5 -23.5q59 0 99.5 49.5t40.5 122.5q0 56 -23 86.5t-65 30.5z" />
    <glyph glyph-name="uni045A" unicode="&#x45a;" horiz-adv-x="615" 
d="M399 -13q-52 0 -77 29t-25 90q0 22 3.5 46t13.5 69l6 28h-215l-48 -249h-21l98 503h21l-46 -235h215l53 235h21l-47 -213q52 28 103 28q50 0 79 -37t29 -102q0 -54 -22.5 -98.5t-60 -69t-80.5 -24.5zM452 297q-56 0 -106 -27l-11 -51q-16 -71 -16 -111q0 -53 19.5 -76.5
t61.5 -23.5q59 0 99.5 49.5t40.5 122.5q0 56 -23 86.5t-65 30.5z" />
    <glyph glyph-name="uni045B" unicode="&#x45b;" horiz-adv-x="483" 
d="M182 588l-55 -284q45 56 95.5 88t92.5 32q89 0 89 -107q0 -19 -4 -47t-20 -111l-31 -159h-21l31 159q15 78 19 106t4 49q0 46 -17 67.5t-55 21.5q-42 0 -92 -34.5t-97 -95.5l-53 -273h-21l114 588h-76l4 20h76l26 132h21l-26 -132h163l-4 -20h-163z" />
    <glyph glyph-name="uni045C" unicode="&#x45c;" horiz-adv-x="369" 
d="M36 0l98 503h21l-46 -237l253 237h30l-263 -244l187 -259h-27l-183 254l-49 -254h-21zM259 603l103 145h29l-110 -145h-22z" />
    <glyph glyph-name="uni045D" unicode="&#x45d;" horiz-adv-x="464" 
d="M310 0l20 114q-40 -59 -90 -93t-94 -34q-41 0 -63.5 26t-22.5 75q0 41 25 169l48 246h21l-48 -246q-24 -121 -24 -167q0 -82 69 -82q43 0 92 36t93 101l70 358h21l-98 -503h-19zM272 603l-53 145h27l46 -145h-20z" />
    <glyph glyph-name="uni045E" unicode="&#x45e;" horiz-adv-x="366" 
d="M-63 -199q41 11 81 48q58 56 117 151l-74 503h21l68 -481q49 85 118 232t107 249h23q-135 -336 -260 -533q-51 -79 -100 -127t-91 -60zM232 601q-46 0 -72.5 22.5t-26.5 60.5q0 33 13 63h18q-7 -20 -9.5 -33t-2.5 -29q0 -31 21.5 -48t60.5 -17q55 0 84.5 30t40.5 97h18
q-15 -146 -145 -146z" />
    <glyph glyph-name="uni045F" unicode="&#x45f;" horiz-adv-x="464" 
d="M310 0l20 114q-40 -59 -90 -93t-94 -34q-41 0 -63.5 26t-22.5 75q0 41 25 169l48 246h21l-48 -246q-24 -121 -24 -167q0 -82 69 -82q43 0 92 36t93 101l70 358h21l-98 -503h-19zM133 -214l30 144h18l-27 -144h-21z" />
    <glyph glyph-name="uni0462" unicode="&#x462;" horiz-adv-x="527" 
d="M230 579l-39 -197h115q77 0 118.5 -40t41.5 -112q0 -69 -30.5 -121.5t-84.5 -80.5t-122 -28h-134l113 579h-114l4 21h114l25 128h22l-25 -128h175l-4 -21h-175zM187 361l-66 -340h110q96 0 154 58t58 155q0 62 -36.5 94.5t-105.5 32.5h-114z" />
    <glyph glyph-name="uni0463" unicode="&#x463;" horiz-adv-x="594" 
d="M293 220q25 117 30 145.5t5 49.5q0 42 -13 61t-41 19q-68 0 -144 -121l-73 -374h-21l98 503h19l-17 -93q70 106 143 106q71 0 71 -98q0 -17 -4 -42t-17 -86q53 28 104 28q50 0 79 -37t29 -102q0 -54 -22.5 -98.5t-60 -69t-80.5 -24.5q-52 0 -77 29t-25 90q0 22 3.5 45.5
t13.5 68.5zM431 297q-56 0 -106 -27q-3 -12 -5.5 -25t-5.5 -27q-16 -75 -16 -110q0 -53 19.5 -76.5t61.5 -23.5q59 0 99.5 49.5t40.5 122.5q0 56 -23 86.5t-65 30.5z" />
    <glyph glyph-name="uni0472" unicode="&#x472;" horiz-adv-x="627" 
d="M382 705q95 0 147.5 -65.5t52.5 -183.5q0 -93 -24 -185t-64.5 -156t-94 -97t-118.5 -33q-95 0 -147.5 65.5t-52.5 183.5q0 93 24 185t64.5 156t94 97t118.5 33zM284 7q67 0 120.5 41.5t91 118t53.5 175.5h-436q-9 -57 -9 -108q0 -109 47 -168t133 -59zM379 683
q-97 0 -166 -86t-97 -234h436q7 46 7 93q0 109 -47 168t-133 59z" />
    <glyph glyph-name="uni0473" unicode="&#x473;" horiz-adv-x="452" 
d="M188 -13q-66 0 -102.5 48t-36.5 134q0 89 29 173.5t76 129t109 44.5q66 0 102.5 -48t36.5 -134q0 -89 -29 -173.5t-76 -129t-109 -44.5zM190 8q45 0 81.5 29t62 84t38.5 127h-294q-7 -42 -7 -83q0 -76 30.5 -116.5t88.5 -40.5zM261 495q-65 0 -112.5 -61.5t-67.5 -166.5
h294q5 42 5 71q0 76 -30.5 116.5t-88.5 40.5z" />
    <glyph glyph-name="uni0474" unicode="&#x474;" 
d="M180 0l-75 693h22l70 -660l276 595q20 42 39.5 58t50.5 16q15 0 28 -5l-4 -20q-10 3 -23 3q-25 0 -40 -13t-33 -51l-287 -616h-24z" />
    <glyph glyph-name="uni0475" unicode="&#x475;" horiz-adv-x="390" 
d="M123 0l-60 503h21l54 -472l200 410q19 39 36 53.5t42 14.5q12 0 22 -4l-4 -19q-6 2 -15 2q-21 0 -34 -11.5t-30 -46.5l-211 -430h-21z" />
    <glyph glyph-name="uni0490" unicode="&#x490;" horiz-adv-x="390" 
d="M43 0l135 693h256l24 123h21l-28 -144h-255l-131 -672h-22z" />
    <glyph glyph-name="uni0491" unicode="&#x491;" horiz-adv-x="323" 
d="M36 0l98 503h196l22 115h20l-26 -135h-195l-94 -483h-21z" />
    <glyph glyph-name="Wgrave" unicode="&#x1e80;" horiz-adv-x="717" 
d="M443 0l-13 634l-260 -634h-25l-35 693h22l32 -658l260 633h26l12 -631l292 656h24l-310 -693h-25zM431 769l-63 112h30l55 -112h-22z" />
    <glyph glyph-name="wgrave" unicode="&#x1e81;" horiz-adv-x="541" 
d="M328 0l-18 470l-196 -470h-23l-28 503h21l24 -473l196 473h24l17 -478q51 97 109 233.5t94 244.5h23q-44 -124 -103.5 -261t-116.5 -242h-23zM306 603l-53 145h27l46 -145h-20z" />
    <glyph glyph-name="Wacute" unicode="&#x1e82;" horiz-adv-x="717" 
d="M443 0l-13 634l-260 -634h-25l-35 693h22l32 -658l260 633h26l12 -631l292 656h24l-310 -693h-25zM456 769h-24l96 112h32z" />
    <glyph glyph-name="wacute" unicode="&#x1e83;" horiz-adv-x="541" 
d="M328 0l-18 470l-196 -470h-23l-28 503h21l24 -473l196 473h24l17 -478q51 97 109 233.5t94 244.5h23q-44 -124 -103.5 -261t-116.5 -242h-23zM304 603l103 145h29l-110 -145h-22z" />
    <glyph glyph-name="Wdieresis" unicode="&#x1e84;" horiz-adv-x="717" 
d="M443 0l-13 634l-260 -634h-25l-35 693h22l32 -658l260 633h26l12 -631l292 656h24l-310 -693h-25zM377 802q-9 0 -14.5 5t-5.5 14q0 12 7 20t17 8q9 0 14.5 -5t5.5 -14q0 -12 -7 -20t-17 -8zM535 802q-9 0 -14.5 5t-5.5 14q0 12 7 20t17 8q9 0 14.5 -5t5.5 -14
q0 -12 -7 -20t-17 -8z" />
    <glyph glyph-name="wdieresis" unicode="&#x1e85;" horiz-adv-x="541" 
d="M328 0l-18 470l-196 -470h-23l-28 503h21l24 -473l196 473h24l17 -478q51 97 109 233.5t94 244.5h23q-44 -124 -103.5 -261t-116.5 -242h-23zM256 631q-8 0 -13.5 5t-5.5 14q0 11 6.5 18.5t16.5 7.5q8 0 13.5 -5t5.5 -14q0 -11 -7 -18.5t-16 -7.5zM414 631q-8 0 -13.5 5
t-5.5 14q0 11 6.5 18.5t16.5 7.5q8 0 13.5 -5t5.5 -14q0 -11 -7 -18.5t-16 -7.5z" />
    <glyph glyph-name="uni1E9E" unicode="&#x1e9e;" horiz-adv-x="532" 
d="M166 31q39 -24 99 -24q53 0 95 30.5t64.5 80.5t22.5 109q0 62 -29.5 97t-81.5 35q-31 0 -55 -7l4 20l192 276q-56 35 -119 35q-84 0 -135.5 -53.5t-73.5 -163.5l-91 -466h-22l90 462q25 126 81 184.5t153 58.5q36 0 73.5 -12.5t65.5 -34.5l-3 -17l-184 -264q8 1 15.5 1.5
t15.5 0.5q58 0 92.5 -42t34.5 -111q0 -70 -28.5 -125.5t-75.5 -85.5t-103 -30q-29 0 -56.5 7t-44.5 19z" />
    <glyph glyph-name="Ygrave" unicode="&#x1ef2;" horiz-adv-x="451" 
d="M164 0l49 250l-104 443h23l96 -419l261 419h25l-280 -445l-48 -248h-22zM305 769l-63 112h30l55 -112h-22z" />
    <glyph glyph-name="ygrave" unicode="&#x1ef3;" horiz-adv-x="366" 
d="M-63 -199q41 11 81 48q58 56 117 151l-74 503h21l68 -481q49 85 118 232t107 249h23q-135 -336 -260 -533q-51 -79 -100 -127t-91 -60zM217 603l-53 145h27l46 -145h-20z" />
    <glyph glyph-name="uni2000" unicode="&#x2000;" horiz-adv-x="500" 
 />
    <glyph glyph-name="uni2001" unicode="&#x2001;" horiz-adv-x="1000" 
 />
    <glyph glyph-name="uni2002" unicode="&#x2002;" horiz-adv-x="500" 
 />
    <glyph glyph-name="uni2003" unicode="&#x2003;" horiz-adv-x="1000" 
 />
    <glyph glyph-name="uni2004" unicode="&#x2004;" horiz-adv-x="333" 
 />
    <glyph glyph-name="uni2005" unicode="&#x2005;" horiz-adv-x="250" 
 />
    <glyph glyph-name="uni2006" unicode="&#x2006;" horiz-adv-x="167" 
 />
    <glyph glyph-name="uni2007" unicode="&#x2007;" 
 />
    <glyph glyph-name="uni2008" unicode="&#x2008;" horiz-adv-x="184" 
 />
    <glyph glyph-name="uni2009" unicode="&#x2009;" horiz-adv-x="200" 
 />
    <glyph glyph-name="uni200A" unicode="&#x200a;" horiz-adv-x="62" 
 />
    <glyph glyph-name="uni200B" unicode="&#x200b;" horiz-adv-x="0" 
 />
    <glyph glyph-name="uni2010" unicode="&#x2010;" horiz-adv-x="332" 
d="M55 250l4 20h220l-4 -20h-220z" />
    <glyph glyph-name="uni2012" unicode="&#x2012;" 
d="M59 343l4 19h400l-4 -19h-400z" />
    <glyph glyph-name="endash" unicode="&#x2013;" horiz-adv-x="400" 
d="M-1 250l4 19h400l-4 -19h-400z" />
    <glyph glyph-name="emdash" unicode="&#x2014;" horiz-adv-x="800" 
d="M-1 250l4 19h800l-4 -19h-800z" />
    <glyph glyph-name="uni2015" unicode="&#x2015;" horiz-adv-x="800" 
d="M-1 250l4 19h800l-4 -19h-800z" />
    <glyph glyph-name="quoteleft" unicode="&#x2018;" horiz-adv-x="184" 
d="M139 503h-10q-11 0 -11 8q0 9 13 42l54 140h17z" />
    <glyph glyph-name="quoteright" unicode="&#x2019;" horiz-adv-x="184" 
d="M179 693h10q11 0 11 -8q0 -9 -13 -42l-54 -140h-17z" />
    <glyph glyph-name="quotesinglbase" unicode="&#x201a;" horiz-adv-x="184" 
d="M56 63h10q11 0 11 -8q0 -9 -13 -42l-54 -140h-17z" />
    <glyph glyph-name="uni201B" unicode="&#x201b;" horiz-adv-x="184" 
d="M149 503l-2 122v12t-0.5 15.5t-0.5 10.5q0 17 4 23.5t14 6.5h8l-7 -190h-16z" />
    <glyph glyph-name="quotedblleft" unicode="&#x201c;" horiz-adv-x="262" 
d="M139 503h-10q-11 0 -11 8q0 9 13 42l54 140h17zM217 503h-10q-11 0 -11 8q0 9 13 42l54 140h17z" />
    <glyph glyph-name="quotedblright" unicode="&#x201d;" horiz-adv-x="262" 
d="M179 693h10q11 0 11 -8q0 -9 -13 -42l-54 -140h-17zM257 693h10q11 0 11 -8q0 -9 -13 -42l-54 -140h-17z" />
    <glyph glyph-name="quotedblbase" unicode="&#x201e;" horiz-adv-x="262" 
d="M56 63h10q11 0 11 -8q0 -9 -13 -42l-54 -140h-17zM134 64h10q11 0 11 -8q0 -9 -13 -42l-54 -140h-17z" />
    <glyph glyph-name="uni201F" unicode="&#x201f;" horiz-adv-x="261" 
d="M149 503l-2 122v12t-0.5 15.5t-0.5 10.5q0 17 4 23.5t14 6.5h8l-7 -190h-16zM226 503l-2 122v12t-0.5 15.5t-0.5 10.5q0 17 4 23.5t14 6.5h8l-7 -190h-16z" />
    <glyph glyph-name="dagger" unicode="&#x2020;" horiz-adv-x="356" 
d="M92 -126l123 622l-134 -2l4 22l134 -3l43 227h23l-46 -227l134 3l-4 -22l-134 2l-120 -622h-23z" />
    <glyph glyph-name="daggerdbl" unicode="&#x2021;" horiz-adv-x="356" 
d="M91 -126l46 227l-134 -3l4 22l134 -2l35 189l39 189l-134 -2l4 22l134 -3l43 227h23l-46 -227l134 3l-4 -22l-134 2l-35 -189l-39 -189l134 2l-4 -22l-134 3l-43 -227h-23z" />
    <glyph glyph-name="bullet" unicode="&#x2022;" horiz-adv-x="276" 
d="M130 159q-39 0 -63.5 24.5t-24.5 63.5q0 47 31 80t75 33q39 0 63.5 -24.5t24.5 -63.5q0 -47 -31 -80t-75 -33z" />
    <glyph glyph-name="ellipsis" unicode="&#x2026;" horiz-adv-x="814" 
d="M88 -4q-9 0 -14.5 5t-5.5 14q0 12 7 19.5t17 7.5q9 0 14.5 -5t5.5 -14q0 -12 -7 -19.5t-17 -7.5zM359 -4q-9 0 -14.5 5t-5.5 14q0 12 7 19.5t17 7.5q9 0 14.5 -5t5.5 -14q0 -12 -7 -19.5t-17 -7.5zM630 -4q-9 0 -14.5 5t-5.5 14q0 12 7 19.5t17 7.5q9 0 14.5 -5t5.5 -14
q0 -12 -7 -19.5t-17 -7.5z" />
    <glyph glyph-name="perthousand" unicode="&#x2030;" horiz-adv-x="1116" 
d="M208 0l386 693h23l-386 -693h-23zM577 -8q-46 0 -71 32t-25 92q0 69 20.5 135.5t54.5 101t80 34.5t71 -32.5t25 -91.5q0 -69 -20.5 -135.5t-54.5 -101t-80 -34.5zM634 367q-41 0 -70 -35t-45.5 -95t-16.5 -118q0 -53 19.5 -80t57.5 -27q41 0 70 35t45.5 95t16.5 118
q0 53 -19.5 80t-57.5 27zM903 -8q-46 0 -71 32t-25 92q0 69 20.5 135.5t54.5 101t80 34.5t71 -32.5t25 -91.5q0 -69 -20.5 -135.5t-54.5 -101t-80 -34.5zM960 367q-41 0 -70 -35t-45.5 -95t-16.5 -118q0 -53 19.5 -80t57.5 -27q41 0 70 35t45.5 95t16.5 118q0 53 -19.5 80
t-57.5 27zM189 306q-46 0 -71 32t-25 92q0 69 20.5 135.5t54.5 101t80 34.5t71 -32.5t25 -91.5q0 -69 -20.5 -135.5t-54.5 -101t-80 -34.5zM246 681q-41 0 -70 -35t-45.5 -95t-16.5 -118q0 -53 19.5 -80t57.5 -27q41 0 70 35t45.5 95t16.5 118q0 53 -19.5 80t-57.5 27z" />
    <glyph glyph-name="minute" unicode="&#x2032;" horiz-adv-x="189" 
d="M106 478l97 216q6 3 14 3q9 0 13 -3l-106 -216h-18z" />
    <glyph glyph-name="second" unicode="&#x2033;" horiz-adv-x="274" 
d="M106 478l97 216q6 3 14 3q9 0 13 -3l-106 -216h-18zM191 478l97 216q6 3 14 3q9 0 13 -3l-106 -216h-18z" />
    <glyph glyph-name="guilsinglleft" unicode="&#x2039;" horiz-adv-x="238" 
d="M78 256l62 -205h-22l-63 208l142 208h24z" />
    <glyph glyph-name="guilsinglright" unicode="&#x203a;" horiz-adv-x="238" 
d="M20 51l143 210l-62 206h22l63 -208l-142 -208h-24z" />
    <glyph glyph-name="uni203D" unicode="&#x203d;" horiz-adv-x="351" 
d="M125 175l73 378q5 3 12 3q6 0 10 -3l-39 -188l5 3q164 98 164 221q0 46 -25 71t-73 25q-64 0 -126 -48l-3 19q63 50 132 50q55 0 86 -31.5t31 -87.5q0 -68 -50 -131t-146 -116l-32 -165h-19zM106 -4q-9 0 -14.5 5t-5.5 14q0 12 7 19.5t17 7.5q9 0 14.5 -5t5.5 -14
q0 -12 -7 -19.5t-17 -7.5z" />
    <glyph glyph-name="fraction" unicode="&#x2044;" horiz-adv-x="118" 
d="M-128 0l386 693h23l-386 -693h-23z" />
    <glyph glyph-name="uni2052" unicode="&#x2052;" 
d="M23 -144l434 898h25l-434 -898h-25zM227 707q-9 0 -14.5 5t-5.5 14q0 12 7 19.5t17 7.5q9 0 14.5 -5t5.5 -14q0 -12 -7 -19.5t-17 -7.5zM274 -143q-9 0 -14.5 5t-5.5 14q0 12 7 19.5t17 7.5q9 0 14.5 -5t5.5 -14q0 -12 -7 -19.5t-17 -7.5z" />
    <glyph glyph-name="uni2070" unicode="&#x2070;" horiz-adv-x="336" 
d="M204 382q-46 0 -71 32t-25 92q0 69 20.5 135.5t54.5 101t80 34.5t71 -32.5t25 -91.5q0 -69 -20.5 -135.5t-54.5 -101t-80 -34.5zM261 757q-41 0 -70 -35t-45.5 -95t-16.5 -118q0 -53 19.5 -80t57.5 -27q41 0 70 35t45.5 95t16.5 118q0 53 -19.5 80t-57.5 27z" />
    <glyph glyph-name="uni2074" unicode="&#x2074;" horiz-adv-x="336" 
d="M290 474l-16 -84h-20l16 84h-178l3 17l235 278h18l-54 -276h48l-4 -19h-48zM274 493l47 240l-202 -240h155z" />
    <glyph glyph-name="uni2075" unicode="&#x2075;" horiz-adv-x="336" 
d="M218 750l-39 -145q28 7 50 7q45 0 72 -26.5t27 -72.5q0 -56 -37.5 -93.5t-95.5 -37.5q-54 0 -87 25l4 18q33 -23 84 -23q49 0 80 31t31 80q0 39 -22 59.5t-62 20.5q-31 0 -67 -9l3 15l45 170h157l-4 -19h-139z" />
    <glyph glyph-name="uni2076" unicode="&#x2076;" horiz-adv-x="336" 
d="M291 757q-38 0 -69 -23.5t-51 -64.5t-27 -93q23 20 51 32t53 12q40 0 62 -26.5t22 -73.5q0 -58 -34 -98t-84 -40q-44 0 -69.5 36t-25.5 98q0 76 23.5 135.5t62.5 92.5t87 33q17 0 36 -5.5t34 -14.5l-4 -18q-30 18 -67 18zM244 600q-54 0 -102 -46q-1 -9 -1.5 -18.5
t-0.5 -19.5q0 -53 20.5 -83.5t55.5 -30.5q40 0 67.5 34t27.5 84q0 80 -67 80z" />
    <glyph glyph-name="uni2077" unicode="&#x2077;" horiz-adv-x="336" 
d="M138 390l213 360h-193l4 19h215l-3 -17l-213 -362h-23z" />
    <glyph glyph-name="uni2078" unicode="&#x2078;" horiz-adv-x="336" 
d="M362 700q0 -35 -25.5 -65t-71.5 -51l15 -9q29 -19 41.5 -38.5t12.5 -45.5q0 -43 -37 -76t-85 -33q-46 0 -74.5 24.5t-28.5 65.5q0 77 109 120q-30 19 -42.5 38t-12.5 44q0 44 32.5 73.5t80.5 29.5q39 0 62.5 -21t23.5 -56zM233 583q-53 -22 -78 -49t-25 -62
q0 -32 23 -51.5t60 -19.5q40 0 70 27.5t30 62.5q0 23 -12 40t-41 35zM184 674q0 -21 11.5 -37t38.5 -33l16 -10q91 42 91 106q0 26 -18 42t-48 16q-40 0 -65.5 -23.5t-25.5 -60.5z" />
    <glyph glyph-name="uni2079" unicode="&#x2079;" horiz-adv-x="336" 
d="M180 402q52 0 89.5 45.5t49.5 122.5q-20 -19 -44.5 -29.5t-47.5 -10.5q-42 0 -66.5 28.5t-24.5 77.5q0 60 33.5 100.5t82.5 40.5q45 0 69.5 -36t24.5 -101q0 -75 -22.5 -134.5t-60.5 -91.5t-84 -32q-21 0 -41.5 8t-33.5 20l3 18q31 -26 73 -26zM231 550q23 0 47 11t44 30
q3 24 3 49q0 117 -75 117q-40 0 -66.5 -34.5t-26.5 -86.5q0 -40 19.5 -63t54.5 -23z" />
    <glyph glyph-name="uni207A" unicode="&#x207a;" horiz-adv-x="336" 
d="M240 576l-21 -110h-19l21 110h-94l4 19h94l21 108h19l-21 -108h94l-4 -19h-94z" />
    <glyph glyph-name="uni207B" unicode="&#x207b;" horiz-adv-x="336" 
d="M127 576l4 19h207l-4 -19h-207z" />
    <glyph glyph-name="uni207C" unicode="&#x207c;" horiz-adv-x="336" 
d="M114 508l4 19h207l-4 -19h-207zM141 644l4 19h207l-4 -19h-207z" />
    <glyph glyph-name="uni207D" unicode="&#x207d;" horiz-adv-x="161" 
d="M127 333q-23 81 -23 152q0 89 29.5 176.5t86.5 164.5h23q-58 -77 -88 -164.5t-30 -179.5q0 -78 22 -149h-20z" />
    <glyph glyph-name="uni207E" unicode="&#x207e;" horiz-adv-x="161" 
d="M160 826q23 -81 23 -152q0 -89 -29.5 -176.5t-86.5 -164.5h-23q58 77 88 164.5t30 179.5q0 78 -22 149h20z" />
    <glyph glyph-name="uni207F" unicode="&#x207f;" horiz-adv-x="340" 
d="M294 390l37 190l11 60.5t5 45.5q0 70 -51 70q-32 0 -68.5 -20.5t-69.5 -58.5l-57 -287h-19l74 379h18l-12 -68q31 35 68 55t71 20q31 0 48.5 -22.5t17.5 -63.5q0 -28 -17 -113l-37 -187h-19z" />
    <glyph glyph-name="uni2080" unicode="&#x2080;" horiz-adv-x="336" 
d="M108 -112q-46 0 -71 32t-25 92q0 69 20.5 135.5t54.5 101t80 34.5t71 -32.5t25 -91.5q0 -69 -20.5 -135.5t-54.5 -101t-80 -34.5zM165 263q-41 0 -70 -35t-45.5 -95t-16.5 -118q0 -53 19.5 -80t57.5 -27q41 0 70 35t45.5 95t16.5 118q0 53 -19.5 80t-57.5 27z" />
    <glyph glyph-name="uni2081" unicode="&#x2081;" horiz-adv-x="336" 
d="M125 -104l69 356l-113 -52l4 20l117 55h17l-74 -379h-20z" />
    <glyph glyph-name="uni2082" unicode="&#x2082;" horiz-adv-x="336" 
d="M252 196q0 -26 -14 -54t-53.5 -72.5t-152.5 -154.5h178l-4 -19h-206l4 18q98 94 143.5 142.5t64.5 79.5t19 60q0 31 -18.5 49t-50.5 18q-53 0 -97 -40l-3 18q45 42 101 42q40 0 64.5 -24.5t24.5 -62.5z" />
    <glyph glyph-name="uni2083" unicode="&#x2083;" horiz-adv-x="336" 
d="M113 109q4 1 8 1h8q47 0 74 -23.5t27 -64.5q0 -60 -37 -97t-97 -37q-53 0 -87 25l4 19q19 -13 38.5 -18.5t45.5 -5.5q51 0 81.5 30.5t30.5 83.5q0 34 -22 52t-65 18q-28 0 -42 -3l3 14l149 153h-158l4 19h184l-3 -16z" />
    <glyph glyph-name="uni2084" unicode="&#x2084;" horiz-adv-x="336" 
d="M194 -20l-16 -84h-20l16 84h-178l3 17l235 278h18l-54 -276h48l-4 -19h-48zM178 -1l47 240l-202 -240h155z" />
    <glyph glyph-name="uni2085" unicode="&#x2085;" horiz-adv-x="336" 
d="M122 256l-39 -145q28 7 50 7q45 0 72 -26.5t27 -72.5q0 -56 -37.5 -93.5t-95.5 -37.5q-54 0 -87 25l4 18q33 -23 84 -23q49 0 80 31t31 80q0 39 -22 59.5t-62 20.5q-31 0 -67 -9l3 15l45 170h157l-4 -19h-139z" />
    <glyph glyph-name="uni2086" unicode="&#x2086;" horiz-adv-x="336" 
d="M195 263q-38 0 -69 -23.5t-51 -64.5t-27 -93q23 20 51 32t53 12q40 0 62 -26.5t22 -73.5q0 -58 -34 -98t-84 -40q-44 0 -69.5 36t-25.5 98q0 76 23.5 135.5t62.5 92.5t87 33q17 0 36 -5.5t34 -14.5l-4 -18q-30 18 -67 18zM148 106q-54 0 -102 -46q-1 -9 -1.5 -18.5
t-0.5 -19.5q0 -53 20.5 -83.5t55.5 -30.5q40 0 67.5 34t27.5 84q0 80 -67 80z" />
    <glyph glyph-name="uni2087" unicode="&#x2087;" horiz-adv-x="336" 
d="M42 -104l213 360h-193l4 19h215l-3 -17l-213 -362h-23z" />
    <glyph glyph-name="uni2088" unicode="&#x2088;" horiz-adv-x="336" 
d="M266 206q0 -35 -25.5 -65t-71.5 -51l15 -9q29 -19 41.5 -38.5t12.5 -45.5q0 -43 -37 -76t-85 -33q-46 0 -74.5 24.5t-28.5 65.5q0 77 109 120q-30 19 -42.5 38t-12.5 44q0 44 32.5 73.5t80.5 29.5q39 0 62.5 -21t23.5 -56zM137 89q-53 -22 -78 -49t-25 -62
q0 -32 23 -51.5t60 -19.5q40 0 70 27.5t30 62.5q0 23 -12 40t-41 35zM88 180q0 -21 11.5 -37t38.5 -33l16 -10q91 42 91 106q0 26 -18 42t-48 16q-40 0 -65.5 -23.5t-25.5 -60.5z" />
    <glyph glyph-name="uni2089" unicode="&#x2089;" horiz-adv-x="336" 
d="M84 -92q52 0 89.5 45.5t49.5 122.5q-20 -19 -44.5 -29.5t-47.5 -10.5q-42 0 -66.5 28.5t-24.5 77.5q0 60 33.5 100.5t82.5 40.5q45 0 69.5 -36t24.5 -101q0 -75 -22.5 -134.5t-60.5 -91.5t-84 -32q-21 0 -41.5 8t-33.5 20l3 18q31 -26 73 -26zM135 56q23 0 47 11t44 30
q3 24 3 49q0 117 -75 117q-40 0 -66.5 -34.5t-26.5 -86.5q0 -40 19.5 -63t54.5 -23z" />
    <glyph glyph-name="uni208A" unicode="&#x208a;" horiz-adv-x="336" 
d="M144 82l-21 -110h-19l21 110h-94l4 19h94l21 108h19l-21 -108h94l-4 -19h-94z" />
    <glyph glyph-name="uni208B" unicode="&#x208b;" horiz-adv-x="336" 
d="M31 82l4 19h207l-4 -19h-207z" />
    <glyph glyph-name="uni208C" unicode="&#x208c;" horiz-adv-x="336" 
d="M18 14l4 19h207l-4 -19h-207zM44 150l4 19h207l-4 -19h-207z" />
    <glyph glyph-name="uni208D" unicode="&#x208d;" horiz-adv-x="161" 
d="M31 -161q-23 81 -23 152q0 89 29.5 176.5t86.5 164.5h23q-58 -77 -88 -164.5t-30 -179.5q0 -78 22 -149h-20z" />
    <glyph glyph-name="uni208E" unicode="&#x208e;" horiz-adv-x="161" 
d="M64 332q23 -81 23 -152q0 -89 -29.5 -176.5t-86.5 -164.5h-23q58 77 88 164.5t30 179.5q0 78 -22 149h20z" />
    <glyph glyph-name="Euro" unicode="&#x20ac;" 
d="M124 260v-30q0 -104 35.5 -163.5t98.5 -59.5q38 0 77.5 15.5t68.5 42.5l8 -17q-33 -30 -74.5 -46.5t-82.5 -16.5q-73 0 -113.5 63.5t-40.5 179.5v16t1 16h-59l4 20h55q4 59 21 127h-52l4 20h54q24 85 66.5 148t94.5 96.5t108 33.5q59 0 100 -28l-5 -19q-45 25 -96 25
q-77 0 -143.5 -70t-101.5 -186h246l-9 -20h-242q-16 -60 -21 -127h215l-8 -20h-209z" />
    <glyph glyph-name="uni20B9" unicode="&#x20b9;" 
d="M279 0l-183 304l5 15h73q82 0 136 45.5t66 124.5h-243l4 19h241q1 5 1 10v10q0 65 -34.5 105.5t-88.5 40.5h-87l4 19h340l-8 -19h-181q37 -19 57 -57t20 -88v-10.5t-1 -10.5h48l-8 -19h-42q-12 -87 -72.5 -138t-152.5 -51h-50l183 -300h-27z" />
    <glyph glyph-name="uni20BA" unicode="&#x20ba;" 
d="M149 249l-44 -228h36q110 0 178 66.5t84 188.5l2 15h21l-3 -17q-23 -140 -94.5 -207t-195.5 -67h-54l46 236l-78 -42l5 23l77 42l28 144l-78 -42l5 23l78 42l52 267h22l-50 -254l185 100l-5 -23l-184 -99l-28 -145l185 100l-5 -23z" />
    <glyph glyph-name="uni2105" unicode="&#x2105;" horiz-adv-x="781" 
d="M551 -8q-53 0 -83 36t-30 100q0 66 23.5 129t62.5 96.5t89 33.5q53 0 83 -36t30 -100q0 -66 -23.5 -129t-62.5 -96.5t-89 -33.5zM610 368q-46 0 -80 -34.5t-53 -92.5t-19 -115q0 -55 25 -85t71 -30t80 34.5t53 92.5t19 115q0 55 -25 85t-71 30zM195 0l386 693h23
l-386 -693h-23zM305 356q-26 -24 -57 -37t-62 -13q-97 0 -97 126q0 77 29 139t76 96t102 34q30 0 60 -14l-3 -17q-30 12 -57 12q-53 0 -96 -35t-66.5 -92t-23.5 -124q0 -106 80 -106q53 0 108 47z" />
    <glyph glyph-name="uni2113" unicode="&#x2113;" horiz-adv-x="294" 
d="M37 163l63 77v390q0 124 75 124q37 0 58 -38t21 -107q0 -112 -31 -199.5t-101 -175.5v-143q0 -42 13 -63.5t37 -21.5q32 0 64 18v-19q-28 -19 -66 -19q-33 0 -51.5 26.5t-18.5 75.5v120l-63 -74v29zM122 268q59 78 85 157.5t26 183.5q0 57 -15.5 91t-41.5 34
q-28 0 -41 -25.5t-13 -81.5v-359z" />
    <glyph glyph-name="uni2116" unicode="&#x2116;" horiz-adv-x="822" 
d="M682 342q-46 0 -71 32t-25 90q0 60 20 116.5t52.5 86.5t75.5 30q46 0 71 -32t25 -90q0 -60 -20 -116.5t-52.5 -86.5t-75.5 -30zM731 678q-38 0 -65.5 -30.5t-43 -82t-15.5 -102.5q0 -50 20 -76t58 -26t65.5 30.5t43 82t15.5 102.5q0 50 -20 76t-58 26zM378 0l-187 654
l-127 -654h-21l135 693h24l186 -655l128 655h21l-135 -693h-24zM542 247l4 19h226l-4 -19h-226z" />
    <glyph glyph-name="uni2117" unicode="&#x2117;" horiz-adv-x="674" 
d="M355 -7q-91 0 -160.5 46.5t-107 126t-37.5 179.5q0 105 40 185.5t109 123.5t156 43q91 0 160.5 -46.5t107 -126t37.5 -179.5q0 -105 -40 -185.5t-109 -123.5t-156 -43zM355 13q86 0 150.5 42.5t99 118t34.5 171.5q0 101 -36.5 176t-100.5 115.5t-147 40.5
q-86 0 -150.5 -42.5t-99 -118t-34.5 -171.5q0 -101 36.5 -176t100.5 -115.5t147 -40.5zM278 151v386h102q44 0 70.5 -33t26.5 -87t-26.5 -87t-69.5 -33h-83v-146h-20zM298 316h82q36 0 56 26.5t20 74.5q0 46 -20.5 73.5t-55.5 27.5h-82v-202z" />
    <glyph glyph-name="trademark" unicode="&#x2122;" horiz-adv-x="641" 
d="M631 309v347l-113 -245h-17l-113 247v-349h-20v384h24l118 -257l119 257h22v-384h-20zM179 309v364h-113v20h244v-20h-111v-364h-20z" />
    <glyph glyph-name="uni2126" unicode="&#x2126;" horiz-adv-x="619" 
d="M1 0l4 21h161q-39 44 -61.5 117t-22.5 158q0 122 38 215.5t104 143.5t152 50q96 0 149 -71t53 -196q0 -89 -28 -171t-78 -146t-114 -100h166l-4 -21h-196l4 23q104 58 165 169.5t61 244.5q0 118 -46 182t-133 64q-83 0 -143.5 -50t-93 -138t-32.5 -199q0 -87 23.5 -159.5
t63.5 -113.5l-5 -23h-187z" />
    <glyph glyph-name="estimated" unicode="&#x212e;" horiz-adv-x="884" 
d="M767 124q-50 -63 -130.5 -98t-176.5 -35q-115 0 -203.5 46.5t-136 126.5t-47.5 180q0 105 52 187t139.5 126.5t194.5 44.5q115 0 203.5 -46.5t136.5 -126t48 -178.5v-15h-624q-6 0 -6 -6v-196q0 -12 9 -22q84 -96 234 -96q74 0 138 28t107 80h62zM698 358q6 0 6 6v193
q0 15 -9 25q-45 45 -107 70t-129 25q-146 0 -234 -98q-8 -10 -8 -25v-190q0 -6 6 -6h475z" />
    <glyph glyph-name="oneseventh" unicode="&#x2150;" horiz-adv-x="790" 
d="M190 0l386 693h23l-386 -693h-23zM511 0l213 360h-193l4 19h215l-3 -17l-213 -362h-23zM206 314l69 356l-113 -52l4 20l117 55h17l-74 -379h-20z" />
    <glyph glyph-name="oneninth" unicode="&#x2151;" horiz-adv-x="790" 
d="M205 0l386 693h23l-386 -693h-23zM553 12q52 0 89.5 45.5t49.5 122.5q-20 -19 -44.5 -29.5t-47.5 -10.5q-42 0 -66.5 28.5t-24.5 77.5q0 60 33.5 100.5t82.5 40.5q45 0 69.5 -36t24.5 -101q0 -75 -22.5 -134.5t-60.5 -91.5t-84 -32q-21 0 -41.5 8t-33.5 20l3 18
q31 -26 73 -26zM604 160q23 0 47 11t44 30q3 24 3 49q0 117 -75 117q-40 0 -66.5 -34.5t-26.5 -86.5q0 -40 19.5 -63t54.5 -23zM206 314l69 356l-113 -52l4 20l117 55h17l-74 -379h-20z" />
    <glyph glyph-name="onethird" unicode="&#x2153;" horiz-adv-x="790" 
d="M203 0l386 693h23l-386 -693h-23zM582 213q4 1 8 1h8q47 0 74 -23.5t27 -64.5q0 -60 -37 -97t-97 -37q-53 0 -87 25l4 19q19 -13 38.5 -18.5t45.5 -5.5q51 0 81.5 30.5t30.5 83.5q0 34 -22 52t-65 18q-28 0 -42 -3l3 14l149 153h-158l4 19h184l-3 -16zM206 314l69 356
l-113 -52l4 20l117 55h17l-74 -379h-20z" />
    <glyph glyph-name="twothirds" unicode="&#x2154;" horiz-adv-x="790" 
d="M223 0l386 693h23l-386 -693h-23zM582 213q4 1 8 1h8q47 0 74 -23.5t27 -64.5q0 -60 -37 -97t-97 -37q-53 0 -87 25l4 19q19 -13 38.5 -18.5t45.5 -5.5q51 0 81.5 30.5t30.5 83.5q0 34 -22 52t-65 18q-28 0 -42 -3l3 14l149 153h-158l4 19h184l-3 -16zM333 614
q0 -26 -14 -54t-53.5 -72.5t-152.5 -154.5h178l-4 -19h-206l4 18q98 94 143.5 142.5t64.5 79.5t19 60q0 31 -18.5 49t-50.5 18q-53 0 -97 -40l-3 18q45 42 101 42q40 0 64.5 -24.5t24.5 -62.5z" />
    <glyph glyph-name="onefifth" unicode="&#x2155;" horiz-adv-x="790" 
d="M210 0l386 693h23l-386 -693h-23zM591 360l-39 -145q28 7 50 7q45 0 72 -26.5t27 -72.5q0 -56 -37.5 -93.5t-95.5 -37.5q-54 0 -87 25l4 18q33 -23 84 -23q49 0 80 31t31 80q0 39 -22 59.5t-62 20.5q-31 0 -67 -9l3 15l45 170h157l-4 -19h-139zM206 314l69 356l-113 -52
l4 20l117 55h17l-74 -379h-20z" />
    <glyph glyph-name="twofifths" unicode="&#x2156;" horiz-adv-x="790" 
d="M230 0l386 693h23l-386 -693h-23zM591 360l-39 -145q28 7 50 7q45 0 72 -26.5t27 -72.5q0 -56 -37.5 -93.5t-95.5 -37.5q-54 0 -87 25l4 18q33 -23 84 -23q49 0 80 31t31 80q0 39 -22 59.5t-62 20.5q-31 0 -67 -9l3 15l45 170h157l-4 -19h-139zM333 614q0 -26 -14 -54
t-53.5 -72.5t-152.5 -154.5h178l-4 -19h-206l4 18q98 94 143.5 142.5t64.5 79.5t19 60q0 31 -18.5 49t-50.5 18q-53 0 -97 -40l-3 18q45 42 101 42q40 0 64.5 -24.5t24.5 -62.5z" />
    <glyph glyph-name="threefifths" unicode="&#x2157;" horiz-adv-x="790" 
d="M216 0l386 693h23l-386 -693h-23zM591 360l-39 -145q28 7 50 7q45 0 72 -26.5t27 -72.5q0 -56 -37.5 -93.5t-95.5 -37.5q-54 0 -87 25l4 18q33 -23 84 -23q49 0 80 31t31 80q0 39 -22 59.5t-62 20.5q-31 0 -67 -9l3 15l45 170h157l-4 -19h-139zM194 527q4 1 8 1h8
q47 0 74 -23.5t27 -64.5q0 -60 -37 -97t-97 -37q-53 0 -87 25l4 19q19 -13 38.5 -18.5t45.5 -5.5q51 0 81.5 30.5t30.5 83.5q0 34 -22 52t-65 18q-28 0 -42 -3l3 14l149 153h-158l4 19h184l-3 -16z" />
    <glyph glyph-name="fourfifths" unicode="&#x2158;" horiz-adv-x="790" 
d="M228 0l386 693h23l-386 -693h-23zM591 360l-39 -145q28 7 50 7q45 0 72 -26.5t27 -72.5q0 -56 -37.5 -93.5t-95.5 -37.5q-54 0 -87 25l4 18q33 -23 84 -23q49 0 80 31t31 80q0 39 -22 59.5t-62 20.5q-31 0 -67 -9l3 15l45 170h157l-4 -19h-139zM275 398l-16 -84h-20
l16 84h-178l3 17l235 278h18l-54 -276h48l-4 -19h-48zM259 417l47 240l-202 -240h155z" />
    <glyph glyph-name="onesixth" unicode="&#x2159;" horiz-adv-x="790" 
d="M204 0l386 693h23l-386 -693h-23zM664 367q-38 0 -69 -23.5t-51 -64.5t-27 -93q23 20 51 32t53 12q40 0 62 -26.5t22 -73.5q0 -58 -34 -98t-84 -40q-44 0 -69.5 36t-25.5 98q0 76 23.5 135.5t62.5 92.5t87 33q17 0 36 -5.5t34 -14.5l-4 -18q-30 18 -67 18zM617 210
q-54 0 -102 -46q-1 -9 -1.5 -18.5t-0.5 -19.5q0 -53 20.5 -83.5t55.5 -30.5q40 0 67.5 34t27.5 84q0 80 -67 80zM206 314l69 356l-113 -52l4 20l117 55h17l-74 -379h-20z" />
    <glyph glyph-name="fivesixths" unicode="&#x215a;" horiz-adv-x="790" 
d="M215 0l386 693h23l-386 -693h-23zM664 367q-38 0 -69 -23.5t-51 -64.5t-27 -93q23 20 51 32t53 12q40 0 62 -26.5t22 -73.5q0 -58 -34 -98t-84 -40q-44 0 -69.5 36t-25.5 98q0 76 23.5 135.5t62.5 92.5t87 33q17 0 36 -5.5t34 -14.5l-4 -18q-30 18 -67 18zM617 210
q-54 0 -102 -46q-1 -9 -1.5 -18.5t-0.5 -19.5q0 -53 20.5 -83.5t55.5 -30.5q40 0 67.5 34t27.5 84q0 80 -67 80zM203 674l-39 -145q28 7 50 7q45 0 72 -26.5t27 -72.5q0 -56 -37.5 -93.5t-95.5 -37.5q-54 0 -87 25l4 18q33 -23 84 -23q49 0 80 31t31 80q0 39 -22 59.5
t-62 20.5q-31 0 -67 -9l3 15l45 170h157l-4 -19h-139z" />
    <glyph glyph-name="oneeighth" unicode="&#x215b;" horiz-adv-x="790" 
d="M210 0l386 693h23l-386 -693h-23zM735 310q0 -35 -25.5 -65t-71.5 -51l15 -9q29 -19 41.5 -38.5t12.5 -45.5q0 -43 -37 -76t-85 -33q-46 0 -74.5 24.5t-28.5 65.5q0 77 109 120q-30 19 -42.5 38t-12.5 44q0 44 32.5 73.5t80.5 29.5q39 0 62.5 -21t23.5 -56zM606 193
q-53 -22 -78 -49t-25 -62q0 -32 23 -51.5t60 -19.5q40 0 70 27.5t30 62.5q0 23 -12 40t-41 35zM557 284q0 -21 11.5 -37t38.5 -33l16 -10q91 42 91 106q0 26 -18 42t-48 16q-40 0 -65.5 -23.5t-25.5 -60.5zM206 314l69 356l-113 -52l4 20l117 55h17l-74 -379h-20z" />
    <glyph glyph-name="threeeighths" unicode="&#x215c;" horiz-adv-x="790" 
d="M221 0l386 693h23l-386 -693h-23zM735 310q0 -35 -25.5 -65t-71.5 -51l15 -9q29 -19 41.5 -38.5t12.5 -45.5q0 -43 -37 -76t-85 -33q-46 0 -74.5 24.5t-28.5 65.5q0 77 109 120q-30 19 -42.5 38t-12.5 44q0 44 32.5 73.5t80.5 29.5q39 0 62.5 -21t23.5 -56zM606 193
q-53 -22 -78 -49t-25 -62q0 -32 23 -51.5t60 -19.5q40 0 70 27.5t30 62.5q0 23 -12 40t-41 35zM557 284q0 -21 11.5 -37t38.5 -33l16 -10q91 42 91 106q0 26 -18 42t-48 16q-40 0 -65.5 -23.5t-25.5 -60.5zM194 527q4 1 8 1h8q47 0 74 -23.5t27 -64.5q0 -60 -37 -97t-97 -37
q-53 0 -87 25l4 19q19 -13 38.5 -18.5t45.5 -5.5q51 0 81.5 30.5t30.5 83.5q0 34 -22 52t-65 18q-28 0 -42 -3l3 14l149 153h-158l4 19h184l-3 -16z" />
    <glyph glyph-name="fiveeighths" unicode="&#x215d;" horiz-adv-x="790" 
d="M222 0l386 693h23l-386 -693h-23zM735 310q0 -35 -25.5 -65t-71.5 -51l15 -9q29 -19 41.5 -38.5t12.5 -45.5q0 -43 -37 -76t-85 -33q-46 0 -74.5 24.5t-28.5 65.5q0 77 109 120q-30 19 -42.5 38t-12.5 44q0 44 32.5 73.5t80.5 29.5q39 0 62.5 -21t23.5 -56zM606 193
q-53 -22 -78 -49t-25 -62q0 -32 23 -51.5t60 -19.5q40 0 70 27.5t30 62.5q0 23 -12 40t-41 35zM557 284q0 -21 11.5 -37t38.5 -33l16 -10q91 42 91 106q0 26 -18 42t-48 16q-40 0 -65.5 -23.5t-25.5 -60.5zM203 674l-39 -145q28 7 50 7q45 0 72 -26.5t27 -72.5
q0 -56 -37.5 -93.5t-95.5 -37.5q-54 0 -87 25l4 18q33 -23 84 -23q49 0 80 31t31 80q0 39 -22 59.5t-62 20.5q-31 0 -67 -9l3 15l45 170h157l-4 -19h-139z" />
    <glyph glyph-name="seveneighths" unicode="&#x215e;" horiz-adv-x="790" 
d="M194 0l386 693h23l-386 -693h-23zM735 310q0 -35 -25.5 -65t-71.5 -51l15 -9q29 -19 41.5 -38.5t12.5 -45.5q0 -43 -37 -76t-85 -33q-46 0 -74.5 24.5t-28.5 65.5q0 77 109 120q-30 19 -42.5 38t-12.5 44q0 44 32.5 73.5t80.5 29.5q39 0 62.5 -21t23.5 -56zM606 193
q-53 -22 -78 -49t-25 -62q0 -32 23 -51.5t60 -19.5q40 0 70 27.5t30 62.5q0 23 -12 40t-41 35zM557 284q0 -21 11.5 -37t38.5 -33l16 -10q91 42 91 106q0 26 -18 42t-48 16q-40 0 -65.5 -23.5t-25.5 -60.5zM123 314l213 360h-193l4 19h215l-3 -17l-213 -362h-23z" />
    <glyph glyph-name="partialdiff" unicode="&#x2202;" 
d="M312 685q-67 0 -126 -46l-3 18q29 24 63 36.5t68 12.5q74 0 109.5 -55t35.5 -168q0 -141 -40 -256t-104.5 -178.5t-139.5 -63.5q-62 0 -101.5 48.5t-39.5 124.5q0 73 30 132.5t78.5 92.5t105.5 33q52 0 98.5 -26.5t74.5 -71.5q16 82 16 165q0 104 -30 153t-95 49zM177 6
q78 0 142.5 77.5t95.5 207.5q-26 48 -71.5 76t-96.5 28q-55 0 -98.5 -33t-67.5 -86.5t-24 -116.5q0 -67 34 -110t86 -43z" />
    <glyph glyph-name="uni2206" unicode="&#x2206;" 
d="M-15 0l6 21l323 672h25l74 -672l-5 -21h-423zM13 21h378l-69 646z" />
    <glyph glyph-name="product" unicode="&#x220f;" 
d="M324 -120l155 792h-318l-154 -792h-22l159 813h361l-159 -813h-22z" />
    <glyph glyph-name="summation" unicode="&#x2211;" 
d="M-17 -120l4 20l268 390l-117 382l4 21h359l-4 -21h-336l118 -386l-264 -385h354l-4 -21h-382z" />
    <glyph glyph-name="minus" unicode="&#x2212;" 
d="M77 342l4 20h365l-4 -20h-365z" />
    <glyph glyph-name="uni2215" unicode="&#x2215;" 
d="M47 0l386 693h23l-386 -693h-23z" />
    <glyph glyph-name="uni2219" unicode="&#x2219;" 
d="M253 294q-9 0 -14.5 5t-5.5 14q0 12 7 19.5t17 7.5q9 0 14.5 -5t5.5 -14q0 -12 -7 -19.5t-17 -7.5z" />
    <glyph glyph-name="radical" unicode="&#x221a;" 
d="M151 0l-36 341h-48l5 21h62l34 -337l329 715h23l-343 -740h-26z" />
    <glyph glyph-name="infinity" unicode="&#x221e;" 
d="M170 477q32 0 54 -26.5t37 -84.5q36 59 67.5 85t66.5 26q33 0 52 -28t19 -75q0 -46 -17.5 -83.5t-44.5 -58.5t-58 -21q-33 0 -55 26.5t-37 84.5q-37 -60 -67.5 -85.5t-65.5 -25.5q-32 0 -51.5 28t-19.5 75q0 46 17.5 83.5t44.5 58.5t58 21zM392 458q-30 0 -60 -28
t-65 -87q14 -60 33.5 -86.5t48.5 -26.5q41 0 69 42t28 102q0 39 -14.5 61.5t-39.5 22.5zM125 230q29 0 57.5 26.5t66.5 89.5q-15 61 -34 86.5t-47 25.5t-50.5 -20.5t-35 -53t-12.5 -70.5q0 -39 14.5 -61.5t40.5 -22.5z" />
    <glyph glyph-name="integral" unicode="&#x222b;" 
d="M30 -187q28 -10 62 -10q27 0 45.5 22t26.5 63l146 754q22 112 100 112q35 0 66 -12l-5 -19q-30 10 -62 10q-30 0 -49.5 -23.5t-29.5 -73.5l-147 -758q-9 -45 -33.5 -70.5t-58.5 -25.5q-37 0 -66 12z" />
    <glyph glyph-name="approxequal" unicode="&#x2248;" 
d="M236 228q-37 39 -53 50t-36 11q-29 0 -45.5 -21.5t-24.5 -69.5l-4 -24h-19q4 66 29 101t66 35q24 0 43 -11.5t51 -46.5q39 -41 54.5 -51.5t34.5 -10.5q29 0 45.5 21.5t24.5 69.5l4 24h19q-4 -66 -29 -101t-66 -35q-23 0 -41.5 11.5t-52.5 47.5zM279 449q-37 39 -53 50
t-36 11q-29 0 -45.5 -21.5t-24.5 -69.5l-4 -24h-19q4 66 29 101t66 35q24 0 43 -11.5t51 -46.5q39 -41 54.5 -51.5t34.5 -10.5q29 0 45.5 21.5t24.5 69.5l4 24h19q-4 -66 -29 -101t-66 -35q-23 0 -41.5 11.5t-52.5 47.5z" />
    <glyph glyph-name="notequal" unicode="&#x2260;" 
d="M346 451l-145 -202h223l-4 -20h-233l-80 -111h-26l80 111h-106l4 20h116l146 202h-223l4 20h234l80 111h25l-80 -111h106l-4 -20h-117z" />
    <glyph glyph-name="lessequal" unicode="&#x2264;" 
d="M114 406l5 24l355 198l-6 -27l-332 -186l263 -184l-5 -23zM24 71l4 20h365l-4 -20h-365z" />
    <glyph glyph-name="greaterequal" unicode="&#x2265;" 
d="M437 430l-5 -24l-355 -198l6 27l331 185l-262 185l5 23zM24 71l4 20h365l-4 -20h-365z" />
    <glyph glyph-name="lozenge" unicode="&#x25ca;" 
d="M177 0l-99 346l234 347h25l98 -346l-233 -347h-25zM413 349l-91 329l-222 -334l92 -328z" />
    <glyph glyph-name="uni27E8" unicode="&#x27e8;" horiz-adv-x="232" 
d="M103 -144l-39 449l210 449h23l-212 -453l38 -445h-20z" />
    <glyph glyph-name="uni27E9" unicode="&#x27e9;" horiz-adv-x="232" 
d="M149 754l39 -449l-210 -449h-23l212 453l-38 445h20z" />
    <glyph glyph-name="twosevenths" unicode="&#xf507;" horiz-adv-x="790" 
d="M214 0l386 693h23l-386 -693h-23zM511 0l213 360h-193l4 19h215l-3 -17l-213 -362h-23zM333 614q0 -26 -14 -54t-53.5 -72.5t-152.5 -154.5h178l-4 -19h-206l4 18q98 94 143.5 142.5t64.5 79.5t19 60q0 31 -18.5 49t-50.5 18q-53 0 -97 -40l-3 18q45 42 101 42
q40 0 64.5 -24.5t24.5 -62.5z" />
    <glyph glyph-name="threesevenths" unicode="&#xf508;" horiz-adv-x="790" 
d="M200 0l386 693h23l-386 -693h-23zM511 0l213 360h-193l4 19h215l-3 -17l-213 -362h-23zM194 527q4 1 8 1h8q47 0 74 -23.5t27 -64.5q0 -60 -37 -97t-97 -37q-53 0 -87 25l4 19q19 -13 38.5 -18.5t45.5 -5.5q51 0 81.5 30.5t30.5 83.5q0 34 -22 52t-65 18q-28 0 -42 -3
l3 14l149 153h-158l4 19h184l-3 -16z" />
    <glyph glyph-name="foursevenths" unicode="&#xf509;" horiz-adv-x="790" 
d="M208 0l386 693h23l-386 -693h-23zM511 0l213 360h-193l4 19h215l-3 -17l-213 -362h-23zM275 398l-16 -84h-20l16 84h-178l3 17l235 278h18l-54 -276h48l-4 -19h-48zM259 417l47 240l-202 -240h155z" />
    <glyph glyph-name="fivesevenths" unicode="&#xf50a;" horiz-adv-x="790" 
d="M198 0l386 693h23l-386 -693h-23zM511 0l213 360h-193l4 19h215l-3 -17l-213 -362h-23zM203 674l-39 -145q28 7 50 7q45 0 72 -26.5t27 -72.5q0 -56 -37.5 -93.5t-95.5 -37.5q-54 0 -87 25l4 18q33 -23 84 -23q49 0 80 31t31 80q0 39 -22 59.5t-62 20.5q-31 0 -67 -9
l3 15l45 170h157l-4 -19h-139z" />
    <glyph glyph-name="sixsevenths" unicode="&#xf50b;" horiz-adv-x="790" 
d="M200 0l386 693h23l-386 -693h-23zM511 0l213 360h-193l4 19h215l-3 -17l-213 -362h-23zM276 681q-38 0 -69 -23.5t-51 -64.5t-27 -93q23 20 51 32t53 12q40 0 62 -26.5t22 -73.5q0 -58 -34 -98t-84 -40q-44 0 -69.5 36t-25.5 98q0 76 23.5 135.5t62.5 92.5t87 33
q17 0 36 -5.5t34 -14.5l-4 -18q-30 18 -67 18zM229 524q-54 0 -102 -46q-1 -9 -1.5 -18.5t-0.5 -19.5q0 -53 20.5 -83.5t55.5 -30.5q40 0 67.5 34t27.5 84q0 80 -67 80z" />
    <glyph glyph-name="twoninths" unicode="&#xf50d;" horiz-adv-x="790" 
d="M225 0l386 693h23l-386 -693h-23zM553 12q52 0 89.5 45.5t49.5 122.5q-20 -19 -44.5 -29.5t-47.5 -10.5q-42 0 -66.5 28.5t-24.5 77.5q0 60 33.5 100.5t82.5 40.5q45 0 69.5 -36t24.5 -101q0 -75 -22.5 -134.5t-60.5 -91.5t-84 -32q-21 0 -41.5 8t-33.5 20l3 18
q31 -26 73 -26zM604 160q23 0 47 11t44 30q3 24 3 49q0 117 -75 117q-40 0 -66.5 -34.5t-26.5 -86.5q0 -40 19.5 -63t54.5 -23zM333 614q0 -26 -14 -54t-53.5 -72.5t-152.5 -154.5h178l-4 -19h-206l4 18q98 94 143.5 142.5t64.5 79.5t19 60q0 31 -18.5 49t-50.5 18
q-53 0 -97 -40l-3 18q45 42 101 42q40 0 64.5 -24.5t24.5 -62.5z" />
    <glyph glyph-name="fourninths" unicode="&#xf50e;" horiz-adv-x="790" 
d="M219 0l386 693h23l-386 -693h-23zM553 12q52 0 89.5 45.5t49.5 122.5q-20 -19 -44.5 -29.5t-47.5 -10.5q-42 0 -66.5 28.5t-24.5 77.5q0 60 33.5 100.5t82.5 40.5q45 0 69.5 -36t24.5 -101q0 -75 -22.5 -134.5t-60.5 -91.5t-84 -32q-21 0 -41.5 8t-33.5 20l3 18
q31 -26 73 -26zM604 160q23 0 47 11t44 30q3 24 3 49q0 117 -75 117q-40 0 -66.5 -34.5t-26.5 -86.5q0 -40 19.5 -63t54.5 -23zM275 398l-16 -84h-20l16 84h-178l3 17l235 278h18l-54 -276h48l-4 -19h-48zM259 417l47 240l-202 -240h155z" />
    <glyph glyph-name="fiveninths" unicode="&#xf50f;" horiz-adv-x="790" 
d="M212 0l386 693h23l-386 -693h-23zM553 12q52 0 89.5 45.5t49.5 122.5q-20 -19 -44.5 -29.5t-47.5 -10.5q-42 0 -66.5 28.5t-24.5 77.5q0 60 33.5 100.5t82.5 40.5q45 0 69.5 -36t24.5 -101q0 -75 -22.5 -134.5t-60.5 -91.5t-84 -32q-21 0 -41.5 8t-33.5 20l3 18
q31 -26 73 -26zM604 160q23 0 47 11t44 30q3 24 3 49q0 117 -75 117q-40 0 -66.5 -34.5t-26.5 -86.5q0 -40 19.5 -63t54.5 -23zM203 674l-39 -145q28 7 50 7q45 0 72 -26.5t27 -72.5q0 -56 -37.5 -93.5t-95.5 -37.5q-54 0 -87 25l4 18q33 -23 84 -23q49 0 80 31t31 80
q0 39 -22 59.5t-62 20.5q-31 0 -67 -9l3 15l45 170h157l-4 -19h-139z" />
    <glyph glyph-name="sevenninths" unicode="&#xf510;" horiz-adv-x="790" 
d="M187 0l386 693h23l-386 -693h-23zM553 12q52 0 89.5 45.5t49.5 122.5q-20 -19 -44.5 -29.5t-47.5 -10.5q-42 0 -66.5 28.5t-24.5 77.5q0 60 33.5 100.5t82.5 40.5q45 0 69.5 -36t24.5 -101q0 -75 -22.5 -134.5t-60.5 -91.5t-84 -32q-21 0 -41.5 8t-33.5 20l3 18
q31 -26 73 -26zM604 160q23 0 47 11t44 30q3 24 3 49q0 117 -75 117q-40 0 -66.5 -34.5t-26.5 -86.5q0 -40 19.5 -63t54.5 -23zM123 314l213 360h-193l4 19h215l-3 -17l-213 -362h-23z" />
    <glyph glyph-name="eightninths" unicode="&#xf511;" horiz-adv-x="790" 
d="M218 0l386 693h23l-386 -693h-23zM553 12q52 0 89.5 45.5t49.5 122.5q-20 -19 -44.5 -29.5t-47.5 -10.5q-42 0 -66.5 28.5t-24.5 77.5q0 60 33.5 100.5t82.5 40.5q45 0 69.5 -36t24.5 -101q0 -75 -22.5 -134.5t-60.5 -91.5t-84 -32q-21 0 -41.5 8t-33.5 20l3 18
q31 -26 73 -26zM604 160q23 0 47 11t44 30q3 24 3 49q0 117 -75 117q-40 0 -66.5 -34.5t-26.5 -86.5q0 -40 19.5 -63t54.5 -23zM347 624q0 -35 -25.5 -65t-71.5 -51l15 -9q29 -19 41.5 -38.5t12.5 -45.5q0 -43 -37 -76t-85 -33q-46 0 -74.5 24.5t-28.5 65.5q0 77 109 120
q-30 19 -42.5 38t-12.5 44q0 44 32.5 73.5t80.5 29.5q39 0 62.5 -21t23.5 -56zM218 507q-53 -22 -78 -49t-25 -62q0 -32 23 -51.5t60 -19.5q40 0 70 27.5t30 62.5q0 23 -12 40t-41 35zM169 598q0 -21 11.5 -37t38.5 -33l16 -10q91 42 91 106q0 26 -18 42t-48 16
q-40 0 -65.5 -23.5t-25.5 -60.5z" />
    <glyph glyph-name="uniFEFF" unicode="&#xfeff;" horiz-adv-x="0" 
 />
    <glyph glyph-name="uniFFFD" unicode="&#xfffd;" horiz-adv-x="1000" 
d="M29 340l471 471l471 -471l-471 -471zM609 456q0 -39 -27 -70t-86 -59l-47 -22l9 -136h78v103q85 38 125 85t40 108q0 74 -47.5 115t-132.5 41q-43 0 -85.5 -12t-79.5 -34v-74q80 42 150 42q103 0 103 -87zM500 -6q25 0 40.5 16t15.5 41t-15.5 41t-40.5 16t-40.5 -16
t-15.5 -41t15.5 -41t40.5 -16z" />
    <glyph glyph-name="zero.pnum" horiz-adv-x="495" 
d="M321 684q-54 0 -97 -43t-72.5 -116.5t-46 -165.5t-16.5 -169q0 -90 31 -136.5t90 -46.5q54 0 97 43t72.5 116.5t46 165.5t16.5 169q0 90 -30.5 136.5t-90.5 46.5zM208 -15q-68 0 -105 54t-37 154q0 92 22 194.5t57 174t80 108t98 36.5q68 0 105 -54t37 -154
q0 -92 -22 -194.5t-57 -174t-80 -108t-98 -36.5z" />
    <glyph glyph-name="one.pnum" horiz-adv-x="327" 
d="M147 0l130 667l-187 -99l5 23l189 102h19l-135 -693h-21z" />
    <glyph glyph-name="two.pnum" horiz-adv-x="436" 
d="M420 560q0 -37 -11.5 -71.5t-38 -74.5t-71 -93t-111 -126t-158.5 -174h316l-4 -21h-343l4 21q92 101 159 175t112.5 127.5t72.5 93.5t38.5 73.5t11.5 68.5q0 57 -34.5 91t-90.5 34q-42 0 -85.5 -19.5t-76.5 -52.5l-4 21q75 73 169 73q63 0 104 -40.5t41 -105.5z" />
    <glyph glyph-name="three.pnum" horiz-adv-x="426" 
d="M1 44q54 -37 137 -37q91 0 147 61.5t56 162.5q0 68 -36 102.5t-106 34.5q-30 0 -60 -7l5 22l265 289h-286l4 21h313l-4 -20l-266 -290q16 5 40 5q72 0 113 -42t41 -115q0 -72 -29.5 -128.5t-80 -87t-113.5 -30.5q-92 0 -144 38z" />
    <glyph glyph-name="four.pnum" horiz-adv-x="462" 
d="M263 0l32 168h-275l4 18l376 507h19l-98 -504h85l-4 -21h-85l-33 -168h-21zM299 189l89 455l-337 -455h248z" />
    <glyph glyph-name="five.pnum" horiz-adv-x="415" 
d="M9 38q31 -18 58.5 -24.5t67.5 -6.5q59 0 104 31.5t69 85t24 119.5t-36 102.5t-102 36.5q-52 0 -105 -15l4 22l76 304h253l-4 -21h-232l-70 -279q44 10 82 10q72 0 114.5 -42.5t42.5 -116.5q0 -76 -30 -135.5t-80 -91.5t-110 -32q-80 0 -130 32z" />
    <glyph glyph-name="six.pnum" horiz-adv-x="476" 
d="M474 661q-40 23 -98 23q-65 0 -121 -46.5t-95 -127t-55 -181.5q40 37 90.5 58t97.5 21q62 -1 96 -40t34 -112q0 -78 -29 -140.5t-75.5 -96.5t-100.5 -34q-68 0 -106.5 57.5t-38.5 161.5q0 109 26 203.5t69.5 161.5t97 102t111.5 35q62 0 101 -25zM288 386
q-47 0 -96 -21.5t-90 -60.5q-6 -49 -6 -100q0 -93 33.5 -145t91.5 -52q51 0 92.5 34.5t64 90t22.5 121.5q0 64 -28.5 98t-83.5 35z" />
    <glyph glyph-name="seven.pnum" horiz-adv-x="413" 
d="M48 0l372 672h-314l4 21h339l-4 -19l-372 -674h-25z" />
    <glyph glyph-name="eight.pnum" horiz-adv-x="463" 
d="M293 358l11 -5q52 -28 78.5 -70t26.5 -96q0 -59 -27.5 -105t-73.5 -71.5t-101 -25.5q-73 0 -115 42.5t-42 115.5q0 79 48.5 141t128.5 87l-2 1q-40 22 -61 59.5t-21 84.5q0 53 26.5 97t68.5 68.5t90 24.5q61 0 97 -36.5t36 -99.5q0 -69 -43.5 -125t-119.5 -85zM248 359
q-79 -22 -127 -80.5t-48 -135.5q0 -65 36 -101t99 -36q52 0 93 24.5t63 65t22 90.5q0 99 -96 151zM166 516q0 -90 79 -132l28 -15l6 2q73 26 116 79.5t43 119.5q0 54 -29.5 84.5t-82.5 30.5q-45 0 -82 -24t-57.5 -62.5t-20.5 -82.5z" />
    <glyph glyph-name="nine.pnum" horiz-adv-x="472" 
d="M147 7q88 0 158.5 91t97.5 239q-34 -31 -78.5 -49t-84.5 -18q-68 0 -106.5 45t-38.5 125q0 75 28.5 136.5t74.5 95.5t98 34q66 0 105 -58t39 -156q0 -144 -41.5 -261t-108.5 -181.5t-145 -64.5q-70 0 -113 35l4 20q25 -18 50.5 -25.5t60.5 -7.5zM244 292q40 0 82.5 17.5
t80.5 49.5q10 70 10 133q0 89 -33.5 140.5t-90.5 51.5q-50 0 -90 -34.5t-62.5 -90t-22.5 -119.5q0 -72 32.5 -110t93.5 -38z" />
    <glyph glyph-name="florin.crcy" 
d="M277 483l-114 -584q-7 -37 -23 -63.5t-38.5 -40t-49.5 -13.5q-32 0 -62 14l4 18q25 -12 59 -12t57 26.5t33 76.5l113 578h-86l3 16l87 4l25 130q12 63 40 92t75 29q37 0 71 -21l-4 -18q-35 19 -65 19q-41 0 -63.5 -24t-32.5 -77l-25 -130h140l-4 -20h-140z" />
    <glyph glyph-name="hyphen.case" horiz-adv-x="332" 
d="M73 343l4 20h220l-4 -20h-220z" />
    <glyph glyph-name="endash.case" horiz-adv-x="400" 
d="M17 343l4 19h400l-4 -19h-400z" />
    <glyph glyph-name="emdash.case" horiz-adv-x="800" 
d="M17 343l4 19h800l-4 -19h-800z" />
    <glyph glyph-name="parenleft.case" horiz-adv-x="233" 
d="M72 166q0 341 208 619h25q-211 -285 -211 -616q0 -159 37 -282h-22q-37 120 -37 279z" />
    <glyph glyph-name="parenright.case" horiz-adv-x="233" 
d="M193 506q0 -341 -208 -619h-25q211 285 211 616q0 159 -37 282h22q37 -120 37 -279z" />
    <glyph glyph-name="slash.case" horiz-adv-x="325" 
d="M-50 -113l432 898h24l-432 -898h-24z" />
    <glyph glyph-name="backslash.case" horiz-adv-x="325" 
d="M138 785l104 -898h-21l-104 898h21z" />
    <glyph glyph-name="bracketleft.case" horiz-adv-x="277" 
d="M21 -113l174 898h154l-4 -21h-132l-166 -856h132l-4 -21h-154z" />
    <glyph glyph-name="bracketright.case" horiz-adv-x="277" 
d="M288 785l-174 -898h-154l4 21h132l166 856h-132l4 21h154z" />
    <glyph glyph-name="braceleft.case" horiz-adv-x="282" 
d="M142 -100q26 0 49 10l3 -20q-29 -11 -57 -11q-34 0 -54 20.5t-20 55.5q0 15 4 39.5t21 114.5l12 61q12 61 15.5 82t3.5 34q0 25 -12.5 36.5t-41.5 11.5h-13l4 21h15q35 0 53.5 20t28.5 69l45 232q12 61 37.5 89t68.5 28q26 0 49 -11l-4 -19q-24 9 -44 9
q-37 0 -57.5 -24.5t-31.5 -83.5l-41 -212q-11 -55 -25.5 -78.5t-38.5 -30.5q29 -14 29 -55q0 -20 -21 -127l-12 -62q-14 -73 -18.5 -98.5t-4.5 -39.5q0 -61 58 -61z" />
    <glyph glyph-name="braceright.case" horiz-adv-x="282" 
d="M171 772q-26 0 -49 -10l-3 20q29 11 57 11q34 0 54 -20.5t20 -55.5q0 -15 -4 -39.5t-21 -114.5l-12 -61q-12 -61 -15.5 -82t-3.5 -34q0 -25 12.5 -36.5t41.5 -11.5h13l-4 -21h-15q-35 0 -53.5 -20t-28.5 -69l-45 -232q-12 -61 -37.5 -89t-68.5 -28q-26 0 -49 11l4 19
q24 -9 44 -9q37 0 57.5 24.5t31.5 83.5l41 212q10 54 24.5 78t39.5 31q-29 14 -29 55q0 20 21 127l12 62q14 73 18.5 98.5t4.5 39.5q0 61 -58 61z" />
    <glyph glyph-name="bullet.case" horiz-adv-x="276" 
d="M148 252q-39 0 -63.5 24.5t-24.5 63.5q0 47 31 80t75 33q39 0 63.5 -24.5t24.5 -63.5q0 -47 -31 -80t-75 -33z" />
    <glyph glyph-name="guilsinglleft.case" horiz-adv-x="238" 
d="M96 349l62 -205h-22l-63 208l142 208h24z" />
    <glyph glyph-name="guilsinglright.case" horiz-adv-x="238" 
d="M38 144l143 210l-62 206h22l63 -208l-142 -208h-24z" />
    <glyph glyph-name="guillemotleft.case" horiz-adv-x="334" 
d="M96 349l62 -205h-22l-63 208l142 208h24zM192 349l62 -205h-22l-63 208l142 208h24z" />
    <glyph glyph-name="guillemotright.case" horiz-adv-x="334" 
d="M38 144l143 210l-62 206h22l63 -208l-142 -208h-24zM134 144l143 210l-62 206h22l63 -208l-142 -208h-24z" />
    <glyph glyph-name="at.case" horiz-adv-x="778" 
d="M443 -86q-24 -13 -62 -21t-77 -8q-119 0 -183 77.5t-64 222.5q0 163 61.5 295t160 206t209.5 74q81 0 141 -37t91.5 -104.5t31.5 -157.5q0 -99 -32.5 -186.5t-81 -138t-97.5 -50.5q-31 0 -48 20t-17 57v10.5t1 11.5q-42 -49 -83.5 -75t-77.5 -26q-41 0 -60.5 29.5
t-19.5 88.5q0 96 35.5 179t90 129.5t115.5 46.5q43 0 101 -25l-66 -274q-15 -60 -15 -91q0 -60 46 -60q48 0 92 55t69.5 135t25.5 164q0 131 -65 204.5t-179 73.5q-113 0 -207.5 -78.5t-147 -203.5t-52.5 -271q0 -136 58.5 -208t168.5 -72q34 0 71 7.5t64 20.5zM319 105
q34 0 77.5 29.5t84.5 80.5l8 34l65 270q-42 17 -80 17q-59 0 -109.5 -48.5t-78.5 -124.5t-28 -161q0 -52 14 -74.5t47 -22.5z" />
    <glyph glyph-name="periodcentered.case" horiz-adv-x="184" 
d="M108 326q-9 0 -14.5 5t-5.5 14q0 12 7 19.5t17 7.5q9 0 14.5 -5t5.5 -14q0 -12 -7 -19.5t-17 -7.5z" />
    <glyph glyph-name="periodcentered.locl_CAT" horiz-adv-x="184" 
d="M110 337q-8 0 -13.5 5t-5.5 14q0 12 7 19.5t16 7.5q8 0 13.5 -5t5.5 -14q0 -12 -7 -19.5t-16 -7.5z" />
    <glyph glyph-name="periodcentered.locl_CAT.cap" horiz-adv-x="184" 
d="M112 348q-8 0 -13.5 5t-5.5 14q0 12 7 19.5t16 7.5q8 0 13.5 -5t5.5 -14q0 -12 -7 -19.5t-16 -7.5z" />
    <glyph glyph-name="uni0327.cap" horiz-adv-x="0" 
d="M-78 -252q47 28 72.5 60.5t25.5 65.5q0 36 -36 36q-19 0 -35 -6l4 19q18 8 36 8q25 0 39 -15t14 -42q0 -37 -29 -75t-80 -67z" />
    <glyph glyph-name="uni0326.cap" horiz-adv-x="0" 
d="M-78 -264l67 194h8q11 0 11 -10t-12 -40l-56 -144h-18z" />
    <glyph glyph-name="uni0328.cap" horiz-adv-x="0" 
d="M-12 -193q-23 -20 -54 -20q-29 0 -44.5 16.5t-15.5 48.5q0 43 29 84t82 73l15 -9q-50 -34 -76.5 -71.5t-26.5 -76.5q0 -44 41 -44q20 0 44 16z" />
    <glyph glyph-name="uni0328.round" horiz-adv-x="0" 
d="M-123 -147q0 -46 42 -46q20 0 44 16l5 -16q-23 -20 -53 -20q-29 0 -44.5 17t-15.5 49q0 50 38.5 95.5t109.5 77.5l-3 -16q-60 -33 -91.5 -73t-31.5 -84z" />
    <glyph glyph-name="uni0328.round.cap" horiz-adv-x="0" 
d="M-123 -147q0 -45 42 -45q20 0 44 16l6 -17q-25 -20 -54 -20q-30 0 -45.5 17t-15.5 49q0 50 39.5 96t109.5 78l-3 -17q-60 -33 -91.5 -73t-31.5 -84z" />
    <glyph glyph-name="iogonek.dotless" horiz-adv-x="193" 
d="M135 503h21l-98 -503h-21zM46 -193q-23 -20 -53 -20q-29 0 -44.5 16.5t-15.5 48.5q0 43 29 84t82 73l14 -9q-50 -34 -76.5 -71.5t-26.5 -76.5q0 -45 42 -45q20 0 44 16z" />
    </font>
</defs>
</svg>
