<?xml version="1.0" standalone="no"?>
<!DOCTYPE svg PUBLIC "-//W3C//DTD SVG 1.1//EN" "http://www.w3.org/Graphics/SVG/1.1/DTD/svg11.dtd" >
<svg xmlns="http://www.w3.org/2000/svg" xmlns:xlink="http://www.w3.org/1999/xlink" version="1.1">
<metadata>
Created by FontForge 20170731 at Thu Jan  8 14:56:03 2015
 By Aleksey,,,
Copyright 2015 Dalton Maag Ltd. Modification of this file requires prior written permission from Dalton Maag Ltd.
</metadata>
<defs>
<font id="AmazonEmber-Thin" horiz-adv-x="586" >
  <font-face 
    font-family="Amazon Ember Thin"
    font-weight="250"
    font-stretch="normal"
    units-per-em="1000"
    panose-1="2 11 3 3 2 2 4 2 2 4"
    ascent="800"
    descent="-200"
    x-height="503"
    cap-height="693"
    bbox="-180 -268 1260 963"
    underline-thickness="80"
    underline-position="-229"
    unicode-range="U+0008-FFFD"
  />
<missing-glyph horiz-adv-x="500" 
d="M50 0v750h400v-750h-400zM400 700h-300v-650h300v650z" />
    <glyph glyph-name="ff" unicode="ff" horiz-adv-x="644" 
d="M434 0v482h-279v-482h-22v482h-105v17l105 4v134q0 56 30 86.5t86 30.5q20 0 44.5 -4.5t43.5 -12.5v-19q-46 15 -89 15q-93 0 -93 -94v-136h279v134q0 56 30 86.5t86 30.5q20 0 44.5 -4.5t43.5 -12.5v-19q-46 15 -89 15q-93 0 -93 -94v-136h174v-21h-174v-482h-22z" />
    <glyph glyph-name="fi" unicode="fi" horiz-adv-x="544" 
d="M434 0v482h-279v-482h-22v482h-105v17l105 4v134q0 56 30 86.5t86 30.5q20 0 44.5 -4.5t43.5 -12.5v-19q-46 15 -89 15q-93 0 -93 -94v-136h301v-503h-22zM445 630q-10 0 -16 6.5t-6 16.5t6 16.5t16 6.5t16 -6.5t6 -16.5t-6 -16.5t-16 -6.5z" />
    <glyph glyph-name="fl" unicode="fl" horiz-adv-x="590" 
d="M133 0v482h-105v17l105 4v134q0 56 30 86.5t86 30.5q20 0 44.5 -4.5t43.5 -12.5v-19q-46 15 -89 15q-93 0 -93 -94v-136h174v-21h-174v-482h-22zM549 3q-18 -5 -38 -5q-30 0 -46.5 17t-16.5 49v676h22v-676q0 -45 45 -45q16 0 34 3v-19z" />
    <glyph glyph-name="ffi" unicode="ffi" horiz-adv-x="845" 
d="M735 0v482h-279v-482h-22v482h-279v-482h-22v482h-105v17l105 4v134q0 56 30 86.5t86 30.5q20 0 44.5 -4.5t43.5 -12.5v-19q-46 15 -89 15q-93 0 -93 -94v-136h279v134q0 56 30 86.5t86 30.5q20 0 44.5 -4.5t43.5 -12.5v-19q-46 15 -89 15q-93 0 -93 -94v-136h301v-503
h-22zM746 630q-10 0 -16 6.5t-6 16.5t6 16.5t16 6.5t16 -6.5t6 -16.5t-6 -16.5t-16 -6.5z" />
    <glyph glyph-name="ffl" unicode="ffl" horiz-adv-x="891" 
d="M850 3q-18 -5 -38 -5q-30 0 -46.5 17t-16.5 49v676h22v-676q0 -45 45 -45q16 0 34 3v-19zM434 0v482h-279v-482h-22v482h-105v17l105 4v134q0 56 30 86.5t86 30.5q20 0 44.5 -4.5t43.5 -12.5v-19q-46 15 -89 15q-93 0 -93 -94v-136h279v134q0 56 30 86.5t86 30.5
q20 0 44.5 -4.5t43.5 -12.5v-19q-46 15 -89 15q-93 0 -93 -94v-136h174v-21h-174v-482h-22z" />
    <glyph glyph-name=".notdef" horiz-adv-x="500" 
d="M50 0v750h400v-750h-400zM400 700h-300v-650h300v650z" />
    <glyph glyph-name=".null" horiz-adv-x="0" 
 />
    <glyph glyph-name=".null" horiz-adv-x="0" 
 />
    <glyph glyph-name=".null" horiz-adv-x="0" 
 />
    <glyph glyph-name="nonmarkingreturn" unicode="&#x9;" horiz-adv-x="262" 
 />
    <glyph glyph-name="nonmarkingreturn" unicode="&#xd;" horiz-adv-x="262" 
 />
    <glyph glyph-name="space" unicode=" " horiz-adv-x="262" 
 />
    <glyph glyph-name="exclam" unicode="!" horiz-adv-x="200" 
d="M90 175l-2 519q5 3 12 3q8 0 12 -3l-2 -519h-20zM100 -4q-11 0 -17 6.5t-6 17.5t6 17.5t17 6.5t17 -6.5t6 -17.5t-6 -17.5t-17 -6.5z" />
    <glyph glyph-name="quotedbl" unicode="&#x22;" horiz-adv-x="240" 
d="M66 477l-2 216q4 4 12 4t12 -4l-2 -216h-20zM154 477l-2 216q4 4 12 4t12 -4l-2 -216h-20z" />
    <glyph glyph-name="numbersign" unicode="#" 
d="M172 228h206l38 241h-206zM169 208l-33 -208h-22l33 208h-114v20h117l38 241h-125v20h128l32 204h22l-32 -204h206l32 204h22l-32 -204h114v-20h-117l-38 -241h125v-20h-128l-33 -208h-22l33 208h-206z" />
    <glyph glyph-name="dollar" unicode="$" 
d="M281 -7q-54 0 -104 14.5t-91 41.5v22q88 -55 195 -57v326l-56 23q-71 30 -104 68t-33 91q0 78 53 125.5t140 47.5v122h21v-122q48 -3 93 -18t77 -38v-22q-76 51 -170 57v-318l68 -27q67 -27 98.5 -64t31.5 -92q0 -47 -24.5 -86.5t-69.5 -64.5t-104 -29v-123h-21v123z
M302 334v-320q49 3 88.5 23.5t62.5 56t23 79.5q0 48 -27.5 81t-88.5 57zM281 362v312q-78 0 -123.5 -41t-45.5 -111q0 -49 30.5 -83t96.5 -60z" />
    <glyph glyph-name="percent" unicode="%" horiz-adv-x="940" 
d="M293 0l336 693h24l-336 -693h-24zM563 190q0 97 38.5 147t112.5 50t112.5 -50t38.5 -147t-38.5 -147.5t-112.5 -50.5t-112.5 50.5t-38.5 147.5zM585 190q0 -87 32.5 -132t96.5 -45t96.5 45t32.5 132q0 86 -32.5 131t-96.5 45t-96.5 -45t-32.5 -131zM75 504q0 97 38.5 147
t112.5 50t112.5 -50t38.5 -147t-38.5 -147.5t-112.5 -50.5t-112.5 50.5t-38.5 147.5zM97 504q0 -87 32.5 -132t96.5 -45t96.5 45t32.5 132q0 86 -32.5 131t-96.5 45t-96.5 -45t-32.5 -131z" />
    <glyph glyph-name="ampersand" unicode="&#x26;" horiz-adv-x="726" 
d="M48 168q0 142 161 206q-55 65 -74.5 102t-19.5 78q0 66 48.5 108.5t125.5 42.5q73 0 117.5 -38t44.5 -100q0 -56 -39 -102t-112 -76l-55 -22l233 -271q43 44 65.5 107t22.5 139v38h22v-38q0 -81 -24.5 -148t-70.5 -115q32 -35 59 -48.5t64 -13.5q20 0 52 5v-19
q-24 -7 -61 -7q-38 0 -66.5 15t-63.5 53q-85 -76 -215 -76q-97 0 -155.5 49t-58.5 131zM262 10q121 0 201 71l-240 277q-151 -59 -151 -189q0 -72 52 -115.5t138 -43.5zM139 554q0 -37 19.5 -72.5t74.5 -100.5l61 26q65 27 99 68t34 91q0 54 -37 85.5t-102 31.5
q-68 0 -108.5 -35.5t-40.5 -93.5z" />
    <glyph glyph-name="quotesingle" unicode="'" horiz-adv-x="152" 
d="M66 477l-2 216q4 4 12 4t12 -4l-2 -216h-20z" />
    <glyph glyph-name="parenleft" unicode="(" horiz-adv-x="253" 
d="M199 -144q-62 99 -95.5 215t-33.5 234q0 117 33.5 233t95.5 216h24q-61 -100 -94.5 -217t-33.5 -232t33.5 -232t94.5 -217h-24z" />
    <glyph glyph-name="parenright" unicode=")" horiz-adv-x="253" 
d="M30 -144q61 100 94.5 217t33.5 232t-33.5 232t-94.5 217h24q62 -99 95.5 -215t33.5 -234q0 -117 -33.5 -233t-95.5 -216h-24z" />
    <glyph glyph-name="asterisk" unicode="*" horiz-adv-x="390" 
d="M336 590q9 -7 9 -17q0 -4 -1 -6l-134 -41l94 -129q-2 -7 -7 -10.5t-12 -3.5l-90 135l-90 -135q-15 0 -19 14l94 129l-134 41q-1 2 -1 6q0 10 9 17l132 -50l-3 150q4 4 12 4t12 -4l-3 -150z" />
    <glyph glyph-name="plus" unicode="+" 
d="M282 131v210h-202v21h202v210h22v-210h202v-21h-202v-210h-22z" />
    <glyph glyph-name="comma" unicode="," horiz-adv-x="192" 
d="M61 -142h-18l39 197h13q12 0 12 -10q0 -7 -4 -22z" />
    <glyph glyph-name="hyphen" unicode="-" horiz-adv-x="376" 
d="M56 249v21h264v-21h-264z" />
    <glyph glyph-name="period" unicode="." horiz-adv-x="192" 
d="M96 -4q-11 0 -17 6.5t-6 17.5t6 17.5t17 6.5t17 -6.5t6 -17.5t-6 -17.5t-17 -6.5z" />
    <glyph glyph-name="slash" unicode="/" horiz-adv-x="406" 
d="M22 -144l338 898h24l-338 -898h-24z" />
    <glyph glyph-name="zero" unicode="0" 
d="M293 8q213 0 213 337q0 338 -213 338t-213 -338q0 -337 213 -337zM293 -15q-117 0 -177 91t-60 269t60 269.5t177 91.5t177 -91.5t60 -269.5t-60 -269t-177 -91z" />
    <glyph glyph-name="one" unicode="1" 
d="M350 0v668l-215 -100v22l217 103h21v-693h-23z" />
    <glyph glyph-name="two" unicode="2" 
d="M87 0v22q152 157 228 248t106 151t30 113q0 70 -41 109.5t-115 39.5q-92 0 -186 -76v23q40 36 89.5 56t98.5 20q82 0 130 -45.5t48 -124.5q0 -61 -32 -123.5t-107 -151.5t-218 -239h390v-22h-421z" />
    <glyph glyph-name="three" unicode="3" 
d="M177 372l255 299h-347v22h375v-21l-254 -298q46 6 77 6q94 0 149 -52.5t55 -142.5q0 -91 -63 -145.5t-170 -54.5q-94 0 -179 41v21q51 -21 92.5 -30t86.5 -9q97 0 153 47t56 130q0 81 -50.5 127t-138.5 46q-56 0 -97 -6v20z" />
    <glyph glyph-name="four" unicode="4" 
d="M400 0v168h-351v19l354 506h20v-503h112v-22h-112v-168h-23zM400 190v462l-323 -462h323z" />
    <glyph glyph-name="five" unicode="5" 
d="M94 44q75 -36 166 -36q97 0 153.5 49t56.5 132q0 190 -211 190q-72 0 -138 -12v21l20 305h321v-22h-299l-19 -281q61 11 115 11q116 0 175.5 -53.5t59.5 -158.5q0 -60 -28 -106t-81 -72t-125 -26q-43 0 -86.5 10t-79.5 28v21z" />
    <glyph glyph-name="six" unicode="6" 
d="M332 683q-115 0 -175 -90t-60 -261q40 35 96.5 55.5t111.5 20.5q96 0 154.5 -56t58.5 -148q0 -100 -55.5 -159.5t-150.5 -59.5q-239 0 -239 340q0 186 66.5 283.5t192.5 97.5q71 0 136 -27v-21q-62 25 -136 25zM304 385q-57 0 -111.5 -19.5t-95.5 -55.5
q0 -149 54.5 -225.5t160.5 -76.5q84 0 133 53t49 143q0 83 -51.5 132t-138.5 49z" />
    <glyph glyph-name="seven" unicode="7" 
d="M169 0l308 671h-403v22h429v-20l-309 -673h-25z" />
    <glyph glyph-name="eight" unicode="8" 
d="M488 524q0 -59 -34 -106.5t-98 -78.5q84 -34 123.5 -76t39.5 -98q0 -50 -28.5 -91t-81 -65t-120.5 -24q-101 0 -161.5 51t-60.5 137q0 130 156 195q-64 26 -94.5 64.5t-30.5 93.5q0 80 54 130t142 50q87 0 140.5 -50.5t53.5 -131.5zM246 359q-83 -37 -119 -80.5
t-36 -105.5q0 -77 53 -121.5t145 -44.5t149 44t57 114q0 52 -34.5 88t-118.5 69zM122 526q0 -51 31 -85.5t101 -61.5l82 -32q61 29 94.5 75t33.5 102q0 73 -46.5 116.5t-123.5 43.5q-78 0 -125 -43t-47 -115z" />
    <glyph glyph-name="nine" unicode="9" 
d="M101 42q67 -34 154 -34q111 0 171 85.5t61 244.5q-36 -30 -94 -49t-114 -19q-98 0 -153.5 58t-55.5 159q0 98 56.5 158.5t147.5 60.5q117 0 176.5 -88t59.5 -261q0 -182 -65.5 -277t-189.5 -95q-45 0 -85.5 9.5t-68.5 26.5v21zM279 293q56 0 113 18.5t95 48.5v11
q0 154 -54 233t-159 79q-82 0 -131 -53.5t-49 -142.5q0 -93 48.5 -143.5t136.5 -50.5z" />
    <glyph glyph-name="colon" unicode=":" horiz-adv-x="192" 
d="M96 -4q-11 0 -17 6.5t-6 17.5t6 17.5t17 6.5t17 -6.5t6 -17.5t-6 -17.5t-17 -6.5zM96 459q-11 0 -17 6.5t-6 17.5t6 17.5t17 6.5t17 -6.5t6 -17.5t-6 -17.5t-17 -6.5z" />
    <glyph glyph-name="semicolon" unicode=";" horiz-adv-x="192" 
d="M61 -142h-18l39 197h13q12 0 12 -10q0 -7 -4 -22zM96 459q-11 0 -17 6.5t-6 17.5t6 17.5t17 6.5t17 -6.5t6 -17.5t-6 -17.5t-17 -6.5z" />
    <glyph glyph-name="less" unicode="&#x3c;" 
d="M88 339v24l410 198v-26l-385 -183l385 -184v-27z" />
    <glyph glyph-name="equal" unicode="=" 
d="M80 230v21h426v-21h-426zM80 450v21h426v-21h-426z" />
    <glyph glyph-name="greater" unicode="&#x3e;" 
d="M498 363v-24l-410 -198v26l385 183l-385 184v27z" />
    <glyph glyph-name="question" unicode="?" horiz-adv-x="412" 
d="M348 555q0 60 -38.5 94t-106.5 34q-82 0 -161 -49v22q35 24 77 37t84 13q78 0 123.5 -40.5t45.5 -110.5q0 -68 -47 -121t-143 -94l-2 -165h-20l-3 176l33 16q82 40 120 85.5t38 102.5zM172 -4q-11 0 -17 6.5t-6 17.5t6 17.5t17 6.5t17 -6.5t6 -17.5t-6 -17.5t-17 -6.5z
" />
    <glyph glyph-name="at" unicode="@" horiz-adv-x="929" 
d="M412 -196q83 0 162 29v-21q-88 -30 -162 -30q-107 0 -187 45.5t-124.5 132.5t-44.5 207q0 140 57.5 255.5t163.5 185t240 69.5q102 0 182.5 -43t127 -123.5t46.5 -187.5q0 -85 -28 -160t-78.5 -122.5t-110.5 -47.5q-68 0 -77 75q-40 -41 -79 -59t-88 -18q-65 0 -105.5 48
t-40.5 125q0 78 30.5 146t85 111t119.5 43q79 0 124 -64l11 50h19l-50 -312q-5 -35 -5 -49q0 -75 56 -75q49 0 93 40t72 112t28 157q0 97 -40.5 172t-116 117.5t-175.5 42.5q-121 0 -220 -61.5t-158 -173t-59 -253.5q0 -111 39 -192.5t114 -126t179 -44.5zM412 13
q47 0 86.5 19.5t79.5 62.5q0 14 5 44l37 234q-24 36 -53 52.5t-66 16.5q-55 0 -103 -35.5t-78 -100t-30 -142.5q0 -66 34.5 -108.5t87.5 -42.5z" />
    <glyph glyph-name="A" unicode="A" horiz-adv-x="610" 
d="M565 0l-91 229h-340l-90 -229h-25l275 693h22l275 -693h-26zM142 251h323l-161 410z" />
    <glyph glyph-name="B" unicode="B" horiz-adv-x="588" 
d="M94 0v693h193q91 0 145 -48t54 -129q0 -90 -63 -134q-25 -18 -56 -25q77 -8 120.5 -52.5t43.5 -115.5q0 -86 -53.5 -137.5t-141.5 -51.5h-242zM117 344v-322h218q78 0 124.5 45.5t46.5 121.5q0 72 -50 113.5t-136 41.5h-203zM117 671v-305h195q67 0 108 41t41 109
q0 70 -47.5 112.5t-126.5 42.5h-170z" />
    <glyph glyph-name="C" unicode="C" horiz-adv-x="595" 
d="M553 18q-34 -14 -77.5 -21.5t-86.5 -7.5q-158 0 -237.5 90t-79.5 265q0 174 82 264.5t240 90.5q82 0 149 -27v-22q-77 26 -149 26q-145 0 -221 -82.5t-76 -236.5v-26q0 -155 75 -237t217 -82q79 0 164 28v-22z" />
    <glyph glyph-name="D" unicode="D" horiz-adv-x="660" 
d="M94 0v693h193q148 0 224.5 -88t76.5 -259q0 -170 -79.5 -258t-233.5 -88h-181zM117 671v-649h154q145 0 218.5 78.5t73.5 232.5v27q0 152 -70 231.5t-206 79.5h-170z" />
    <glyph glyph-name="E" unicode="E" horiz-adv-x="542" 
d="M94 0v693h390v-22h-367v-300h320v-22h-320v-327h367v-22h-390z" />
    <glyph glyph-name="F" unicode="F" horiz-adv-x="504" 
d="M94 0v693h370v-22h-347v-310h299v-22h-299v-339h-23z" />
    <glyph glyph-name="G" unicode="G" horiz-adv-x="661" 
d="M390 12q96 0 168 29v269h-206v22h229v-305q-84 -38 -191 -38q-160 0 -239 88.5t-79 266.5q0 172 81 263.5t234 91.5q89 0 174 -38v-22q-51 20 -90.5 28.5t-83.5 8.5q-140 0 -215 -83t-75 -239v-25q0 -317 293 -317z" />
    <glyph glyph-name="H" unicode="H" horiz-adv-x="694" 
d="M577 0v344h-460v-344h-23v693h23v-327h460v327h23v-693h-23z" />
    <glyph glyph-name="I" unicode="I" horiz-adv-x="219" 
d="M98 0v693h23v-693h-23z" />
    <glyph glyph-name="J" unicode="J" horiz-adv-x="413" 
d="M154 -15q-30 0 -65.5 8.5t-56.5 20.5v22q60 -28 122 -28q70 0 103 36.5t33 114.5v534h23v-534q0 -89 -39 -131.5t-120 -42.5z" />
    <glyph glyph-name="K" unicode="K" horiz-adv-x="534" 
d="M94 0v693h23v-337l353 337h30l-359 -344l389 -349h-33l-380 340v-340h-23z" />
    <glyph glyph-name="L" unicode="L" horiz-adv-x="501" 
d="M94 0v693h23v-671h365v-22h-388z" />
    <glyph glyph-name="M" unicode="M" horiz-adv-x="800" 
d="M117 652v-652h-23v693h26l281 -477l280 477h25v-693h-23v653l-272 -462h-22z" />
    <glyph glyph-name="N" unicode="N" horiz-adv-x="687" 
d="M117 657v-657h-23v693h25l451 -657v657h23v-693h-25z" />
    <glyph glyph-name="O" unicode="O" horiz-adv-x="758" 
d="M686 345q0 -171 -80.5 -265.5t-226.5 -94.5t-226.5 94.5t-80.5 265.5t80.5 265.5t226.5 94.5t226.5 -94.5t80.5 -265.5zM661 345q0 162 -73.5 249.5t-208.5 87.5t-208.5 -87.5t-73.5 -249.5t73.5 -249.5t208.5 -87.5t208.5 87.5t73.5 249.5z" />
    <glyph glyph-name="P" unicode="P" horiz-adv-x="572" 
d="M117 297v-297h-23v693h229q90 0 143.5 -54t53.5 -144t-53.5 -144t-143.5 -54h-206zM117 319h206q81 0 126.5 46.5t45.5 129.5t-45.5 129.5t-126.5 46.5h-206v-352z" />
    <glyph glyph-name="Q" unicode="Q" horiz-adv-x="758" 
d="M686 345q0 -163 -73.5 -257t-209.5 -102q67 -47 134.5 -72.5t144.5 -33.5v-22q-85 9 -159 38.5t-156 88.5q-142 5 -218.5 99t-76.5 261q0 171 80.5 265.5t226.5 94.5t226.5 -94.5t80.5 -265.5zM661 345q0 162 -73.5 249.5t-208.5 87.5t-208.5 -87.5t-73.5 -249.5
t73.5 -249.5t208.5 -87.5t208.5 87.5t73.5 249.5z" />
    <glyph glyph-name="R" unicode="R" horiz-adv-x="581" 
d="M94 0v693h231q89 0 143 -53t54 -141q0 -82 -46 -132.5t-132 -60.5l213 -306h-29l-210 305h-201v-305h-23zM117 327h204q81 0 128.5 46t47.5 126q0 78 -47 125t-125 47h-208v-344z" />
    <glyph glyph-name="S" unicode="S" horiz-adv-x="550" 
d="M207 370q-69 26 -102.5 66t-33.5 96q0 50 24.5 90.5t70.5 64t106 23.5q45 0 93 -12t86 -33v-22q-41 21 -87.5 32.5t-90.5 11.5q-82 0 -130 -42t-48 -113q0 -49 30 -83.5t97 -60.5l147 -57q61 -23 90.5 -62t29.5 -96q0 -55 -27 -98t-77.5 -67.5t-117.5 -24.5
q-108 0 -194 47v22q93 -46 193 -46q91 0 145 45.5t54 121.5q0 50 -26.5 84t-83.5 56z" />
    <glyph glyph-name="T" unicode="T" horiz-adv-x="545" 
d="M261 0v671h-238v22h499v-22h-238v-671h-23z" />
    <glyph glyph-name="U" unicode="U" horiz-adv-x="682" 
d="M569 693h23v-440q0 -131 -64 -199.5t-187 -68.5t-187 68.5t-64 199.5v440h23v-440q0 -120 58 -182.5t170 -62.5t170 62.5t58 182.5v440z" />
    <glyph glyph-name="V" unicode="V" horiz-adv-x="608" 
d="M292 0l-273 693h26l259 -661l260 661h25l-273 -693h-24z" />
    <glyph glyph-name="W" unicode="W" horiz-adv-x="894" 
d="M616 0l-172 639l-170 -639h-26l-223 693h24l211 -662l171 637h28l171 -640l215 665h24l-227 -693h-26z" />
    <glyph glyph-name="X" unicode="X" horiz-adv-x="567" 
d="M300 357l250 -357h-28l-239 339l-239 -339h-27l251 357l-235 336h28l224 -318l222 318h27z" />
    <glyph glyph-name="Y" unicode="Y" horiz-adv-x="565" 
d="M269 0v253l-246 440h26l233 -418l234 418h26l-250 -442v-251h-23z" />
    <glyph glyph-name="Z" unicode="Z" horiz-adv-x="557" 
d="M52 0v20l423 651h-395v22h423v-20l-423 -651h425v-22h-453z" />
    <glyph glyph-name="bracketleft" unicode="[" horiz-adv-x="325" 
d="M94 -144v898h201v-22h-178v-854h178v-22h-201z" />
    <glyph glyph-name="backslash" unicode="\" horiz-adv-x="406" 
d="M360 -144l-338 898h24l338 -898h-24z" />
    <glyph glyph-name="bracketright" unicode="]" horiz-adv-x="325" 
d="M30 -144v22h178v854h-178v22h201v-898h-201z" />
    <glyph glyph-name="asciicircum" unicode="^" 
d="M476 327l-183 344l-183 -344h-26l196 366h26l196 -366h-26z" />
    <glyph glyph-name="underscore" unicode="_" horiz-adv-x="500" 
d="M0 -116v20h500v-20h-500z" />
    <glyph glyph-name="grave" unicode="`" horiz-adv-x="556" 
d="M262 603l-98 145h30l91 -145h-23z" />
    <glyph glyph-name="a" unicode="a" horiz-adv-x="497" 
d="M395 0l-2 65q-44 -36 -94.5 -55t-101.5 -19q-67 0 -107 38t-40 102q0 71 48.5 112.5t132.5 41.5q36 0 81.5 -8t80.5 -20v112q0 64 -35 94.5t-108 30.5q-83 0 -168 -34v21q38 17 82.5 26t86.5 9q164 0 164 -140v-376h-20zM197 13q106 0 196 76v147q-81 27 -162 27
q-74 0 -115.5 -35t-41.5 -97q0 -53 33.5 -85.5t89.5 -32.5z" />
    <glyph glyph-name="b" unicode="b" horiz-adv-x="556" 
d="M84 0v740h22v-296q44 37 87.5 54.5t94.5 17.5q62 0 110 -31.5t75 -90.5t27 -138q0 -125 -56 -195t-156 -70q-93 0 -182 71l-2 -62h-20zM287 494q-49 0 -92.5 -17.5t-88.5 -55.5v-338q92 -70 181 -70q91 0 140 63t49 180q0 110 -50.5 174t-138.5 64z" />
    <glyph glyph-name="c" unicode="c" horiz-adv-x="446" 
d="M409 17q-59 -28 -131 -28q-109 0 -165.5 67t-56.5 196q0 127 59.5 194.5t171.5 67.5q60 0 114 -23v-21q-59 22 -114 22q-100 0 -153.5 -60.5t-53.5 -174.5v-11q0 -114 52 -174.5t150 -60.5q61 0 127 27v-21z" />
    <glyph glyph-name="d" unicode="d" horiz-adv-x="555" 
d="M451 0l-2 62q-44 -37 -88 -54t-93 -17q-62 0 -110 31.5t-75 90.5t-27 138q0 125 56 195t156 70q92 0 181 -70v294h22v-740h-20zM269 13q49 0 92.5 17t87.5 54v341q-93 69 -180 69q-91 0 -140 -63t-49 -180q0 -110 50.5 -174t138.5 -64z" />
    <glyph glyph-name="e" unicode="e" horiz-adv-x="511" 
d="M79 255q1 -125 52.5 -185.5t155.5 -60.5q80 0 163 42v-21q-71 -43 -164 -43q-230 0 -230 267q0 125 58.5 194.5t162.5 69.5q88 0 135 -51.5t47 -146.5q0 -25 -5 -65h-375zM277 496q-91 0 -143 -58t-55 -162h356q2 17 2 44q0 84 -42 130t-118 46z" />
    <glyph glyph-name="f" unicode="f" horiz-adv-x="343" 
d="M133 0v482h-105v17l105 4v134q0 56 30 86.5t86 30.5q22 0 46.5 -5t41.5 -12v-19q-46 15 -89 15q-93 0 -93 -94v-136h174v-21h-174v-482h-22z" />
    <glyph glyph-name="g" unicode="g" horiz-adv-x="550" 
d="M444 77q-43 -36 -86.5 -53t-91.5 -17q-60 0 -107.5 30.5t-75 87t-27.5 130.5q0 124 55.5 192.5t155.5 68.5q90 0 177 -70l2 57h20v-495q0 -111 -56 -168.5t-163 -57.5q-91 0 -154 36v21q73 -35 153 -35q101 0 149.5 51t48.5 158v64zM267 29q91 0 177 71v325
q-90 69 -176 69q-91 0 -139.5 -62t-48.5 -177q0 -103 51 -164.5t136 -61.5z" />
    <glyph glyph-name="h" unicode="h" horiz-adv-x="556" 
d="M452 0v360q0 134 -128 134q-53 0 -110.5 -20t-107.5 -55v-419h-22v740h22v-299q51 36 108 55.5t113 19.5q71 0 109 -38t38 -111v-367h-22z" />
    <glyph glyph-name="i" unicode="i" horiz-adv-x="198" 
d="M88 0v503h22v-503h-22zM99 630q-10 0 -16 6.5t-6 16.5t6 16.5t16 6.5t16 -6.5t6 -16.5t-6 -16.5t-16 -6.5z" />
    <glyph glyph-name="j" unicode="j" horiz-adv-x="198" 
d="M110 -136q0 -82 -80 -82q-31 0 -59 10v19q29 -8 59 -8q58 0 58 61v639h22v-639zM99 630q-10 0 -16 6.5t-6 16.5t6 16.5t16 6.5t16 -6.5t6 -16.5t-6 -16.5t-16 -6.5z" />
    <glyph glyph-name="k" unicode="k" horiz-adv-x="443" 
d="M84 0v740h22v-470l284 233h33l-293 -239l311 -264h-33l-302 256v-256h-22z" />
    <glyph glyph-name="l" unicode="l" horiz-adv-x="226" 
d="M185 3q-18 -5 -38 -5q-30 0 -46.5 17t-16.5 49v676h22v-676q0 -45 45 -45q16 0 34 3v-19z" />
    <glyph glyph-name="m" unicode="m" horiz-adv-x="860" 
d="M640 494q-50 0 -103.5 -20t-99.5 -56q5 -19 5 -51v-367h-22v360q0 134 -116 134q-47 0 -99 -19.5t-99 -54.5v-420h-22v503h20l2 -61q48 36 99.5 55t101.5 19q95 0 124 -80q49 38 104 59t108 21q65 0 100 -38t35 -111v-367h-22v360q0 134 -116 134z" />
    <glyph glyph-name="n" unicode="n" horiz-adv-x="556" 
d="M452 0v360q0 134 -128 134q-53 0 -110.5 -20t-107.5 -55v-419h-22v503h20l2 -62q50 36 107.5 55.5t113.5 19.5q71 0 109 -38t38 -111v-367h-22z" />
    <glyph glyph-name="o" unicode="o" horiz-adv-x="558" 
d="M279 9q96 0 147.5 62.5t51.5 179.5q0 118 -51.5 180.5t-147.5 62.5t-147.5 -62.5t-51.5 -179.5q0 -118 51.5 -180.5t147.5 -62.5zM279 -13q-106 0 -164.5 69.5t-58.5 195.5q0 125 58.5 194.5t164.5 69.5t164.5 -69.5t58.5 -195.5q0 -125 -58.5 -194.5t-164.5 -69.5z" />
    <glyph glyph-name="p" unicode="p" horiz-adv-x="556" 
d="M84 -206v709h20l1 -60q44 38 88 55.5t95 17.5q62 0 110 -31.5t75 -90.5t27 -138q0 -125 -56 -195t-156 -70q-93 0 -182 71v-268h-22zM287 13q91 0 140 63t49 180q0 110 -50.5 174t-138.5 64q-49 0 -92.5 -17.5t-88.5 -55.5v-338q92 -70 181 -70z" />
    <glyph glyph-name="q" unicode="q" horiz-adv-x="555" 
d="M449 -206v268q-44 -37 -87.5 -54t-93.5 -17q-62 0 -110 31.5t-75 90.5t-27 138q0 125 56 195t156 70q92 0 181 -71l2 58h20v-709h-22zM269 13q49 0 92.5 17t87.5 54v341q-93 69 -180 69q-91 0 -140 -63t-49 -180q0 -110 50.5 -174t138.5 -64z" />
    <glyph glyph-name="r" unicode="r" horiz-adv-x="324" 
d="M84 0v503h20l2 -83q33 44 71.5 65t85.5 21q25 0 41 -3v-21q-12 1 -22.5 1.5t-21.5 0.5q-48 0 -85 -21.5t-69 -67.5v-395h-22z" />
    <glyph glyph-name="s" unicode="s" horiz-adv-x="418" 
d="M204 -13q-85 0 -154 39v21q45 -21 80 -29.5t74 -8.5q74 0 112.5 30t38.5 88q0 38 -20.5 60t-73.5 41l-87 32q-62 22 -88.5 49.5t-26.5 70.5q0 60 43 98t112 38q77 0 139 -34v-21q-75 33 -140 33q-62 0 -96.5 -30t-34.5 -83q0 -37 23 -59.5t82 -43.5l87 -31
q39 -13 61.5 -29.5t32.5 -38.5t10 -52q0 -67 -45.5 -103.5t-128.5 -36.5z" />
    <glyph glyph-name="t" unicode="t" horiz-adv-x="355" 
d="M325 9q-15 -7 -40.5 -11t-50.5 -4q-109 0 -109 109v379h-101v17l101 4l4 146h18v-146h168v-21h-168v-378q0 -89 90 -89q47 0 88 13v-19z" />
    <glyph glyph-name="u" unicode="u" horiz-adv-x="544" 
d="M440 0l-2 61q-50 -36 -103.5 -55t-105.5 -19q-147 0 -147 151v365h22v-353q0 -75 30.5 -108t97.5 -33q100 0 206 74v420h22v-503h-20z" />
    <glyph glyph-name="v" unicode="v" horiz-adv-x="471" 
d="M224 0l-210 503h26l196 -476l196 476h25l-210 -503h-23z" />
    <glyph glyph-name="w" unicode="w" horiz-adv-x="728" 
d="M508 0l-147 472l-144 -472h-25l-176 503h25l164 -477l143 477h26l147 -479l167 479h24l-179 -503h-25z" />
    <glyph glyph-name="x" unicode="x" horiz-adv-x="443" 
d="M401 0l-181 241l-178 -241h-28l191 258l-178 245h28l165 -230l170 230h28l-183 -245l194 -258h-28z" />
    <glyph glyph-name="y" unicode="y" horiz-adv-x="471" 
d="M207 -100q-28 -67 -56.5 -92.5t-69.5 -25.5q-30 0 -55 11v18q29 -8 52 -8q36 0 59.5 23t48.5 83l38 91l-210 503h26l196 -476l196 476h25z" />
    <glyph glyph-name="z" unicode="z" horiz-adv-x="457" 
d="M48 0v18l326 464h-316v21h345v-18l-326 -464h332v-21h-361z" />
    <glyph glyph-name="braceleft" unicode="{" horiz-adv-x="363" 
d="M36 316h16q51 0 70.5 25t19.5 91v198q0 64 31.5 98t90.5 34q18 0 38.5 -3.5t30.5 -7.5v-20q-31 9 -69 9q-99 0 -99 -110v-194q0 -64 -16.5 -93.5t-56.5 -37.5q40 -8 56.5 -38t16.5 -93v-194q0 -110 99 -110q38 0 69 9v-20q-10 -4 -30.5 -7.5t-38.5 -3.5q-59 0 -90.5 34
t-31.5 98v198q0 66 -19.5 91t-70.5 25h-16v22z" />
    <glyph glyph-name="bar" unicode="|" horiz-adv-x="216" 
d="M97 -206v960h22v-960h-22z" />
    <glyph glyph-name="braceright" unicode="}" horiz-adv-x="363" 
d="M327 294h-16q-51 0 -70.5 -25t-19.5 -91v-198q0 -64 -31.5 -98t-90.5 -34q-18 0 -38.5 3.5t-30.5 7.5v20q32 -9 69 -9q99 0 99 110v194q0 65 16.5 94t55.5 37q-40 8 -56 37t-16 94v194q0 110 -99 110q-37 0 -69 -9v20q10 4 30.5 7.5t38.5 3.5q59 0 90.5 -34t31.5 -98
v-198q0 -66 19.5 -91t70.5 -25h16v-22z" />
    <glyph glyph-name="asciitilde" unicode="~" 
d="M293 364q62 -45 81 -54t43 -9q74 0 78 90l1 24h22v-18q0 -56 -26.5 -87t-74.5 -31q-29 0 -54.5 11t-70.5 45q-47 35 -64.5 45.5t-29.5 14t-29 3.5q-74 0 -78 -90l-1 -24h-22v18q0 56 26.5 87t74.5 31q28 0 51.5 -10t72.5 -46z" />
    <glyph glyph-name="uni00A0" unicode="&#xa0;" horiz-adv-x="262" 
 />
    <glyph glyph-name="exclamdown" unicode="&#xa1;" horiz-adv-x="200" 
d="M110 324l2 -519q-4 -3 -12 -3q-7 0 -12 3l2 519h20zM100 507q11 0 17 -6.5t6 -17.5t-6 -17.5t-17 -6.5t-17 6.5t-6 17.5t6 17.5t17 6.5z" />
    <glyph glyph-name="cent" unicode="&#xa2;" 
d="M303 -130v152q-97 14 -146 79t-49 180q0 235 195 260v152h21v-150q8 1 32 1q65 0 118 -22v-21q-49 21 -118 21h-16t-16 -1v-479q8 -1 16 -1h16q32 0 59 5.5t66 20.5v-21q-64 -27 -125 -27h-16t-16 1v-150h-21zM132 275q0 -206 171 -231v475q-87 -12 -129 -69t-42 -164
v-11z" />
    <glyph glyph-name="sterling" unicode="&#xa3;" 
d="M526 22v-22h-411v19q84 83 84 214q0 55 -12 111h-96v22h91q-9 36 -17.5 74.5t-9.5 76.5q0 54 24 97t70 68t106 25q83 0 159 -43v-22q-79 42 -159 42q-81 0 -128 -45t-47 -122q1 -34 9 -72t17 -79h230v-22h-225q13 -65 13 -111q0 -125 -77 -211h379z" />
    <glyph glyph-name="currency" unicode="&#xa4;" 
d="M114 340q0 -197 179 -197t179 197t-179 197t-179 -197zM90 340q0 101 48 157l-80 84l17 16l79 -82q53 44 139 44t139 -44l79 82l17 -16l-80 -84q48 -56 48 -157t-48 -157l80 -84l-17 -16l-79 82q-53 -44 -139 -44t-139 44l-79 -82l-17 16l80 84q-48 56 -48 157z" />
    <glyph glyph-name="yen" unicode="&#xa5;" 
d="M283 0v181h-192v22h192v49l-42 76h-150v22h138l-191 343h25l232 -417l225 417h24l-185 -343h133v-22h-145l-41 -76v-49h186v-22h-186v-181h-23z" />
    <glyph glyph-name="brokenbar" unicode="&#xa6;" horiz-adv-x="216" 
d="M97 -206v357h22v-357h-22zM97 397v357h22v-357h-22z" />
    <glyph glyph-name="section" unicode="&#xa7;" horiz-adv-x="462" 
d="M42 333q0 45 31 77.5t82 41.5q-50 22 -74 52.5t-24 72.5q0 59 45.5 94t124.5 35q81 0 141 -31v-21q-64 30 -141 30q-70 0 -108.5 -28t-38.5 -79q0 -74 107 -113l92 -34q76 -29 108 -65t32 -90q0 -43 -25 -76t-68 -46q74 -36 74 -107q0 -64 -52 -103t-137 -39
q-84 0 -164 39v21q79 -38 164 -38q75 0 120.5 33t45.5 87q0 66 -84 96l-112 41q-77 28 -108 62t-31 88zM65 333q0 -45 28.5 -74.5t96.5 -54.5l110 -40q96 24 96 111q0 47 -29 78t-97 56l-83 30q-59 -6 -90.5 -33.5t-31.5 -72.5z" />
    <glyph glyph-name="dieresis" unicode="&#xa8;" horiz-adv-x="556" 
d="M175 631q-9 0 -15 6t-6 17q0 10 5.5 16t15.5 6t15.5 -6t5.5 -16q0 -11 -6 -17t-15 -6zM381 631q-9 0 -15 6t-6 17q0 10 5.5 16t15.5 6t15.5 -6t5.5 -16q0 -11 -6 -17t-15 -6z" />
    <glyph glyph-name="copyright" unicode="&#xa9;" horiz-adv-x="764" 
d="M382 685q-93 0 -166.5 -41.5t-116 -119t-42.5 -179.5q0 -97 40 -174t114 -121.5t171 -44.5q93 0 166.5 41.5t116 119t42.5 179.5q0 97 -40 174t-114 121.5t-171 44.5zM486 166q-43 -17 -88 -17q-80 0 -123.5 52t-43.5 146q0 95 44 146.5t124 51.5q22 0 45 -4.5t39 -12.5
v-20q-45 16 -84 16q-70 0 -107.5 -44.5t-37.5 -127.5v-8q0 -82 38 -128t106 -46q48 0 88 17v-21zM382 707q97 0 176 -44.5t126 -127.5t47 -190q0 -101 -43 -183t-123 -130.5t-183 -48.5q-97 0 -176 44.5t-126 127.5t-47 190q0 101 43 183t123 130.5t183 48.5z" />
    <glyph glyph-name="ordfeminine" unicode="&#xaa;" horiz-adv-x="381" 
d="M291 346l-2 42q-26 -22 -63.5 -35.5t-74.5 -13.5q-51 0 -80.5 26t-29.5 70q0 50 36.5 79t97.5 29q53 0 114 -18v62q0 47 -23.5 68.5t-76.5 21.5q-69 0 -122 -25v19q23 12 56.5 19t67.5 7q61 0 89.5 -27t28.5 -83v-241h-18zM154 359q38 0 74 13.5t61 37.5v96q-24 7 -56 12
t-57 5q-54 0 -83.5 -23t-29.5 -64q0 -37 24 -57t67 -20zM309 266v-20h-262v20h262z" />
    <glyph glyph-name="guillemotleft" unicode="&#xab;" horiz-adv-x="387" 
d="M189 51l-136 208l136 208h25l-133 -208l133 -208h-25zM302 51l-136 208l136 208h25l-133 -208l133 -208h-25z" />
    <glyph glyph-name="logicalnot" unicode="&#xac;" 
d="M484 253v180h-404v21h426v-201h-22z" />
    <glyph glyph-name="uni00AD" unicode="&#xad;" horiz-adv-x="376" 
d="M56 249v21h264v-21h-264z" />
    <glyph glyph-name="registered" unicode="&#xae;" horiz-adv-x="534" 
d="M267 282q-66 0 -119 29t-84 83t-31 124q0 67 29 120.5t82.5 84.5t122.5 31q66 0 119 -29t84 -83t31 -124q0 -67 -29 -120.5t-82.5 -84.5t-122.5 -31zM267 302q61 0 109 26.5t75.5 75.5t27.5 114q0 62 -26 111t-74 77t-112 28q-61 0 -109 -26.5t-75.5 -75.5t-27.5 -114
q0 -62 26 -111t74 -77t112 -28zM191 390v262h89q38 0 60.5 -21.5t22.5 -57.5q0 -28 -15.5 -47t-44.5 -26l68 -110h-25l-66 108h-68v-108h-21zM212 516h59q70 0 70 57q0 27 -17 43.5t-46 16.5h-66v-117z" />
    <glyph glyph-name="macron" unicode="&#xaf;" horiz-adv-x="556" 
d="M131 660v20h294v-20h-294z" />
    <glyph glyph-name="degree" unicode="&#xb0;" horiz-adv-x="362" 
d="M181 459q47 0 75 30.5t28 80.5t-28 80.5t-75 30.5t-75 -30.5t-28 -80.5t28 -80.5t75 -30.5zM181 439q-55 0 -90 36.5t-35 94.5t35 94.5t90 36.5t90 -36.5t35 -94.5t-35 -94.5t-90 -36.5z" />
    <glyph glyph-name="plusminus" unicode="&#xb1;" 
d="M282 199v210h-202v21h202v210h22v-210h202v-21h-202v-210h-22zM80 71v21h426v-21h-426z" />
    <glyph glyph-name="uni00B2" unicode="&#xb2;" horiz-adv-x="410" 
d="M89 735q51 42 112 42q50 0 81 -28.5t31 -74.5q0 -50 -48.5 -112t-155.5 -152h222v-20h-254v19q81 69 127.5 117t66.5 83t20 65q0 36 -25 59t-65 23q-53 0 -112 -41v20z" />
    <glyph glyph-name="uni00B3" unicode="&#xb3;" horiz-adv-x="410" 
d="M190 382q-63 0 -113 25v20q30 -14 54.5 -19t58.5 -5q58 0 91.5 25.5t33.5 69.5q0 43 -30 65t-88 22q-36 0 -60 -3v18l146 149h-204v20h234v-17l-148 -149q20 2 42 2q62 0 96 -28t34 -79q0 -53 -40 -84.5t-107 -31.5z" />
    <glyph glyph-name="acute" unicode="&#xb4;" horiz-adv-x="556" 
d="M271 603l91 145h30l-98 -145h-23z" />
    <glyph glyph-name="mu" unicode="&#xb5;" 
d="M553 3q-13 -5 -34 -5q-27 0 -42.5 16.5t-17.5 47.5q-47 -35 -102 -55t-105 -20q-99 0 -128 71v-264h-22v709h22v-348q0 -146 128 -146q101 0 206 74v420h22v-417q0 -36 10 -51.5t34 -15.5q16 0 29 3v-19z" />
    <glyph glyph-name="paragraph" unicode="&#xb6;" horiz-adv-x="580" 
d="M459 -104v775h-172v-877h-23v477q-101 0 -160.5 55.5t-59.5 146.5q0 103 66.5 161.5t185.5 58.5h186v-797h-23z" />
    <glyph glyph-name="periodcentered" unicode="&#xb7;" horiz-adv-x="192" 
d="M96 230q-11 0 -17 6.5t-6 17.5t6 17.5t17 6.5t17 -6.5t6 -17.5t-6 -17.5t-17 -6.5z" />
    <glyph glyph-name="cedilla" unicode="&#xb8;" horiz-adv-x="556" 
d="M252 -69q39 0 60 -16.5t21 -45.5q0 -33 -28.5 -69.5t-77.5 -67.5l-17 13q46 29 73 62.5t27 60.5q0 42 -60 42q-22 0 -44 -6v19q21 8 46 8z" />
    <glyph glyph-name="uni00B9" unicode="&#xb9;" horiz-adv-x="410" 
d="M232 390v357l-129 -52v18l133 56h18v-379h-22z" />
    <glyph glyph-name="ordmasculine" unicode="&#xba;" horiz-adv-x="403" 
d="M350 266v-20h-298v20h298zM47 520q0 84 41 130.5t113 46.5t113 -46.5t41 -130.5t-40.5 -131t-113.5 -47t-113.5 47t-40.5 131zM69 520q0 -75 34.5 -116.5t97.5 -41.5t97.5 41.5t34.5 116.5q0 74 -35 115.5t-97 41.5t-97 -41.5t-35 -115.5z" />
    <glyph glyph-name="guillemotright" unicode="&#xbb;" horiz-adv-x="387" 
d="M85 467l136 -208l-136 -208h-25l133 208l-133 208h25zM198 467l136 -208l-136 -208h-25l133 208l-133 208h25z" />
    <glyph glyph-name="onequarter" unicode="&#xbc;" horiz-adv-x="940" 
d="M310 0l336 693h24l-336 -693h-24zM802 0v84h-214v18l217 283h18v-281h63v-20h-63v-84h-21zM614 104h188v246zM232 314v357l-129 -52v18l133 56h18v-379h-22z" />
    <glyph glyph-name="onehalf" unicode="&#xbd;" horiz-adv-x="940" 
d="M269 0l336 693h24l-336 -693h-24zM619 345q51 42 112 42q50 0 81 -28.5t31 -74.5q0 -50 -48.5 -112t-155.5 -152h222v-20h-254v19q81 69 127.5 117t66.5 83t20 65q0 36 -25 59t-65 23q-53 0 -112 -41v20zM232 314v357l-129 -52v18l133 56h18v-379h-22z" />
    <glyph glyph-name="threequarters" unicode="&#xbe;" horiz-adv-x="940" 
d="M305 0l336 693h24l-336 -693h-24zM802 0v84h-214v18l217 283h18v-281h63v-20h-63v-84h-21zM614 104h188v246zM190 306q-63 0 -113 25v20q30 -14 54.5 -19t58.5 -5q58 0 91.5 25.5t33.5 69.5q0 43 -30 65t-88 22q-36 0 -60 -3v18l146 149h-204v20h234v-17l-148 -149
q20 2 42 2q62 0 96 -28t34 -79q0 -53 -40 -84.5t-107 -31.5z" />
    <glyph glyph-name="questiondown" unicode="&#xbf;" horiz-adv-x="412" 
d="M64 -54q0 -60 38.5 -94t106.5 -34q82 0 161 49v-22q-35 -24 -77 -37t-84 -13q-78 0 -123.5 40.5t-45.5 110.5q0 68 47 121t143 94v165h20l5 -176l-33 -16q-82 -40 -120 -85.5t-38 -102.5zM238 507q11 0 17 -6.5t6 -17.5t-6 -17.5t-17 -6.5t-17 6.5t-6 17.5t6 17.5t17 6.5
z" />
    <glyph glyph-name="Agrave" unicode="&#xc0;" horiz-adv-x="610" 
d="M565 0l-91 229h-340l-90 -229h-25l275 693h22l275 -693h-26zM142 251h323l-161 410zM295 769l-100 112h35l91 -112h-26z" />
    <glyph glyph-name="Aacute" unicode="&#xc1;" horiz-adv-x="610" 
d="M565 0l-91 229h-340l-90 -229h-25l275 693h22l275 -693h-26zM142 251h323l-161 410zM289 769l91 112h35l-100 -112h-26z" />
    <glyph glyph-name="Acircumflex" unicode="&#xc2;" horiz-adv-x="610" 
d="M565 0l-91 229h-340l-90 -229h-25l275 693h22l275 -693h-26zM142 251h323l-161 410zM458 769h-33l-120 105l-120 -105h-33l143 124h20z" />
    <glyph glyph-name="Atilde" unicode="&#xc3;" horiz-adv-x="610" 
d="M565 0l-91 229h-340l-90 -229h-25l275 693h22l275 -693h-26zM142 251h323l-161 410zM377 779q-21 0 -38 8.5t-36 28.5q-21 23 -36.5 32t-32.5 9q-26 0 -38.5 -15t-12.5 -47v-13h-20q-1 8 -1 18q0 35 19.5 56.5t52.5 21.5q21 0 38 -8.5t36 -28.5q21 -23 36.5 -32t32.5 -9
q26 0 38.5 15t12.5 47v13h20q1 -8 1 -18q0 -35 -19.5 -56.5t-52.5 -21.5z" />
    <glyph glyph-name="Adieresis" unicode="&#xc4;" horiz-adv-x="610" 
d="M565 0l-91 229h-340l-90 -229h-25l275 693h22l275 -693h-26zM142 251h323l-161 410zM203 802q-22 0 -22 24t22 24t22 -24t-22 -24zM407 802q-22 0 -22 24t22 24t22 -24t-22 -24z" />
    <glyph glyph-name="Aring" unicode="&#xc5;" horiz-adv-x="610" 
d="M565 0l-91 229h-340l-90 -229h-25l275 693h22l275 -693h-26zM142 251h323l-161 410zM305 743q-42 0 -67.5 23.5t-25.5 61.5q0 39 25.5 62.5t67.5 23.5t67.5 -23.5t25.5 -62.5q0 -38 -25.5 -61.5t-67.5 -23.5zM305 763q32 0 51.5 17.5t19.5 47.5q0 31 -19.5 48.5
t-51.5 17.5t-51.5 -17.5t-19.5 -48.5q0 -30 19.5 -47.5t51.5 -17.5z" />
    <glyph glyph-name="AE" unicode="&#xc6;" horiz-adv-x="921" 
d="M473 0v270h-262l-168 -270h-26l432 693h414v-22h-367v-300h320v-22h-320v-327h367v-22h-390zM224 292h249v379h-12z" />
    <glyph glyph-name="Ccedilla" unicode="&#xc7;" horiz-adv-x="595" 
d="M553 18q-34 -14 -77.5 -21.5t-86.5 -7.5q-158 0 -237.5 90t-79.5 265q0 174 82 264.5t240 90.5q82 0 149 -27v-22q-77 26 -149 26q-145 0 -221 -82.5t-76 -236.5v-26q0 -155 75 -237t217 -82q79 0 164 28v-22zM357 -69q39 0 60 -16.5t21 -45.5q0 -33 -28.5 -70t-77.5 -67
l-17 13q46 29 72.5 62.5t26.5 60.5q0 20 -15.5 30.5t-43.5 10.5q-22 0 -42 -5v20q19 7 44 7z" />
    <glyph glyph-name="Egrave" unicode="&#xc8;" horiz-adv-x="542" 
d="M94 0v693h390v-22h-367v-300h320v-22h-320v-327h367v-22h-390zM279 769l-100 112h35l91 -112h-26z" />
    <glyph glyph-name="Eacute" unicode="&#xc9;" horiz-adv-x="542" 
d="M94 0v693h390v-22h-367v-300h320v-22h-320v-327h367v-22h-390zM273 769l91 112h35l-100 -112h-26z" />
    <glyph glyph-name="Ecircumflex" unicode="&#xca;" horiz-adv-x="542" 
d="M94 0v693h390v-22h-367v-300h320v-22h-320v-327h367v-22h-390zM442 769h-33l-120 105l-120 -105h-33l143 124h20z" />
    <glyph glyph-name="Edieresis" unicode="&#xcb;" horiz-adv-x="542" 
d="M94 0v693h390v-22h-367v-300h320v-22h-320v-327h367v-22h-390zM187 802q-22 0 -22 24t22 24t22 -24t-22 -24zM391 802q-22 0 -22 24t22 24t22 -24t-22 -24z" />
    <glyph glyph-name="Igrave" unicode="&#xcc;" horiz-adv-x="219" 
d="M98 0v693h23v-693h-23zM99 769l-100 112h35l91 -112h-26z" />
    <glyph glyph-name="Iacute" unicode="&#xcd;" horiz-adv-x="219" 
d="M98 0v693h23v-693h-23zM93 769l91 112h35l-100 -112h-26z" />
    <glyph glyph-name="Icircumflex" unicode="&#xce;" horiz-adv-x="219" 
d="M98 0v693h23v-693h-23zM262 769h-33l-120 105l-120 -105h-33l143 124h20z" />
    <glyph glyph-name="Idieresis" unicode="&#xcf;" horiz-adv-x="219" 
d="M98 0v693h23v-693h-23zM7 802q-22 0 -22 24t22 24t22 -24t-22 -24zM211 802q-22 0 -22 24t22 24t22 -24t-22 -24z" />
    <glyph glyph-name="Eth" unicode="&#xd0;" horiz-adv-x="667" 
d="M101 0v345h-80v22h80v326h193q148 0 224.5 -88t76.5 -259q0 -170 -79.5 -258t-233.5 -88h-181zM124 345v-323h154q145 0 218.5 78.5t73.5 232.5v27q0 152 -70 231.5t-206 79.5h-170v-304h187v-22h-187z" />
    <glyph glyph-name="Ntilde" unicode="&#xd1;" horiz-adv-x="687" 
d="M117 657v-657h-23v693h25l451 -657v657h23v-693h-25zM415 779q-21 0 -38 8.5t-36 28.5q-21 23 -36.5 32t-32.5 9q-26 0 -38.5 -15t-12.5 -47v-13h-20q-1 8 -1 18q0 35 19.5 56.5t52.5 21.5q21 0 38 -8.5t36 -28.5q21 -23 36.5 -32t32.5 -9q26 0 38.5 15t12.5 47v13h20
q1 -8 1 -18q0 -35 -19.5 -56.5t-52.5 -21.5z" />
    <glyph glyph-name="Ograve" unicode="&#xd2;" horiz-adv-x="758" 
d="M686 345q0 -171 -80.5 -265.5t-226.5 -94.5t-226.5 94.5t-80.5 265.5t80.5 265.5t226.5 94.5t226.5 -94.5t80.5 -265.5zM661 345q0 162 -73.5 249.5t-208.5 87.5t-208.5 -87.5t-73.5 -249.5t73.5 -249.5t208.5 -87.5t208.5 87.5t73.5 249.5zM369 769l-100 112h35l91 -112
h-26z" />
    <glyph glyph-name="Oacute" unicode="&#xd3;" horiz-adv-x="758" 
d="M686 345q0 -171 -80.5 -265.5t-226.5 -94.5t-226.5 94.5t-80.5 265.5t80.5 265.5t226.5 94.5t226.5 -94.5t80.5 -265.5zM661 345q0 162 -73.5 249.5t-208.5 87.5t-208.5 -87.5t-73.5 -249.5t73.5 -249.5t208.5 -87.5t208.5 87.5t73.5 249.5zM363 769l91 112h35l-100 -112
h-26z" />
    <glyph glyph-name="Ocircumflex" unicode="&#xd4;" horiz-adv-x="758" 
d="M686 345q0 -171 -80.5 -265.5t-226.5 -94.5t-226.5 94.5t-80.5 265.5t80.5 265.5t226.5 94.5t226.5 -94.5t80.5 -265.5zM661 345q0 162 -73.5 249.5t-208.5 87.5t-208.5 -87.5t-73.5 -249.5t73.5 -249.5t208.5 -87.5t208.5 87.5t73.5 249.5zM532 769h-33l-120 105
l-120 -105h-33l143 124h20z" />
    <glyph glyph-name="Otilde" unicode="&#xd5;" horiz-adv-x="758" 
d="M686 345q0 -171 -80.5 -265.5t-226.5 -94.5t-226.5 94.5t-80.5 265.5t80.5 265.5t226.5 94.5t226.5 -94.5t80.5 -265.5zM661 345q0 162 -73.5 249.5t-208.5 87.5t-208.5 -87.5t-73.5 -249.5t73.5 -249.5t208.5 -87.5t208.5 87.5t73.5 249.5zM451 779q-21 0 -38 8.5
t-36 28.5q-21 23 -36.5 32t-32.5 9q-26 0 -38.5 -15t-12.5 -47v-13h-20q-1 8 -1 18q0 35 19.5 56.5t52.5 21.5q21 0 38 -8.5t36 -28.5q21 -23 36.5 -32t32.5 -9q26 0 38.5 15t12.5 47v13h20q1 -8 1 -18q0 -35 -19.5 -56.5t-52.5 -21.5z" />
    <glyph glyph-name="Odieresis" unicode="&#xd6;" horiz-adv-x="758" 
d="M686 345q0 -171 -80.5 -265.5t-226.5 -94.5t-226.5 94.5t-80.5 265.5t80.5 265.5t226.5 94.5t226.5 -94.5t80.5 -265.5zM661 345q0 162 -73.5 249.5t-208.5 87.5t-208.5 -87.5t-73.5 -249.5t73.5 -249.5t208.5 -87.5t208.5 87.5t73.5 249.5zM277 802q-22 0 -22 24t22 24
t22 -24t-22 -24zM481 802q-22 0 -22 24t22 24t22 -24t-22 -24z" />
    <glyph glyph-name="multiply" unicode="&#xd7;" 
d="M309 345l167 -180l-17 -15l-166 178l-165 -178l-17 15l167 180l-167 179l17 15l165 -178l166 178l17 -15z" />
    <glyph glyph-name="Oslash" unicode="&#xd8;" horiz-adv-x="758" 
d="M82 -9l71 89q-81 93 -81 265q0 171 80.5 265.5t226.5 94.5q132 0 211 -79l70 87l17 -13l-72 -90q81 -93 81 -265q0 -171 -80.5 -265.5t-226.5 -94.5q-132 0 -211 79l-69 -86zM661 345q0 158 -71 246l-407 -508q72 -75 196 -75q135 0 208.5 87.5t73.5 249.5zM97 345
q0 -158 71 -246l407 508q-72 75 -196 75q-135 0 -208.5 -87.5t-73.5 -249.5z" />
    <glyph glyph-name="Ugrave" unicode="&#xd9;" horiz-adv-x="682" 
d="M569 693h23v-440q0 -131 -64 -199.5t-187 -68.5t-187 68.5t-64 199.5v440h23v-440q0 -120 58 -182.5t170 -62.5t170 62.5t58 182.5v440zM331 769l-100 112h35l91 -112h-26z" />
    <glyph glyph-name="Uacute" unicode="&#xda;" horiz-adv-x="682" 
d="M569 693h23v-440q0 -131 -64 -199.5t-187 -68.5t-187 68.5t-64 199.5v440h23v-440q0 -120 58 -182.5t170 -62.5t170 62.5t58 182.5v440zM325 769l91 112h35l-100 -112h-26z" />
    <glyph glyph-name="Ucircumflex" unicode="&#xdb;" horiz-adv-x="682" 
d="M569 693h23v-440q0 -131 -64 -199.5t-187 -68.5t-187 68.5t-64 199.5v440h23v-440q0 -120 58 -182.5t170 -62.5t170 62.5t58 182.5v440zM494 769h-33l-120 105l-120 -105h-33l143 124h20z" />
    <glyph glyph-name="Udieresis" unicode="&#xdc;" horiz-adv-x="682" 
d="M569 693h23v-440q0 -131 -64 -199.5t-187 -68.5t-187 68.5t-64 199.5v440h23v-440q0 -120 58 -182.5t170 -62.5t170 62.5t58 182.5v440zM239 802q-22 0 -22 24t22 24t22 -24t-22 -24zM443 802q-22 0 -22 24t22 24t22 -24t-22 -24z" />
    <glyph glyph-name="Yacute" unicode="&#xdd;" horiz-adv-x="565" 
d="M269 0v253l-246 440h26l233 -418l234 418h26l-250 -442v-251h-23zM266 769l91 112h35l-100 -112h-26z" />
    <glyph glyph-name="Thorn" unicode="&#xde;" horiz-adv-x="571" 
d="M116 159v-159h-22v693h22v-139h203q90 0 143.5 -53.5t53.5 -144.5q0 -90 -53.5 -143.5t-143.5 -53.5h-203zM116 180h203q81 0 127 47t46 129q0 83 -46 130t-127 47h-203v-353z" />
    <glyph glyph-name="germandbls" unicode="&#xdf;" horiz-adv-x="554" 
d="M81 0v508q0 115 53 180.5t147 65.5q75 0 120.5 -41t45.5 -108q0 -33 -13.5 -58t-48.5 -55l-33 -29q-29 -25 -41 -43.5t-12 -37.5q0 -28 18 -46.5t73 -47.5l33 -18q53 -29 77 -61t24 -76q0 -67 -47 -107.5t-125 -40.5q-64 0 -117 28v21q55 -27 114 -27q70 0 111 33.5
t41 91.5q0 37 -20.5 64.5t-68.5 53.5l-36 19q-56 29 -78 53.5t-22 56.5q0 27 13.5 48t49.5 52l33 29q31 28 41.5 47t10.5 49q0 59 -38.5 93.5t-104.5 34.5q-84 0 -130.5 -58t-46.5 -164v-510h-23z" />
    <glyph glyph-name="agrave" unicode="&#xe0;" horiz-adv-x="497" 
d="M395 0l-2 65q-44 -36 -94.5 -55t-101.5 -19q-67 0 -107 38t-40 102q0 71 48.5 112.5t132.5 41.5q36 0 81.5 -8t80.5 -20v112q0 64 -35 94.5t-108 30.5q-83 0 -168 -34v21q38 17 82.5 26t86.5 9q164 0 164 -140v-376h-20zM197 13q106 0 196 76v147q-81 27 -162 27
q-74 0 -115.5 -35t-41.5 -97q0 -53 33.5 -85.5t89.5 -32.5zM227 603l-98 145h30l91 -145h-23z" />
    <glyph glyph-name="aacute" unicode="&#xe1;" horiz-adv-x="497" 
d="M395 0l-2 65q-44 -36 -94.5 -55t-101.5 -19q-67 0 -107 38t-40 102q0 71 48.5 112.5t132.5 41.5q36 0 81.5 -8t80.5 -20v112q0 64 -35 94.5t-108 30.5q-83 0 -168 -34v21q38 17 82.5 26t86.5 9q164 0 164 -140v-376h-20zM197 13q106 0 196 76v147q-81 27 -162 27
q-74 0 -115.5 -35t-41.5 -97q0 -53 33.5 -85.5t89.5 -32.5zM230 603l91 145h30l-98 -145h-23z" />
    <glyph glyph-name="acircumflex" unicode="&#xe2;" horiz-adv-x="497" 
d="M395 0l-2 65q-44 -36 -94.5 -55t-101.5 -19q-67 0 -107 38t-40 102q0 71 48.5 112.5t132.5 41.5q36 0 81.5 -8t80.5 -20v112q0 64 -35 94.5t-108 30.5q-83 0 -168 -34v21q38 17 82.5 26t86.5 9q164 0 164 -140v-376h-20zM197 13q106 0 196 76v147q-81 27 -162 27
q-74 0 -115.5 -35t-41.5 -97q0 -53 33.5 -85.5t89.5 -32.5zM361 603l-121 125l-121 -125h-28l139 145h20l139 -145h-28z" />
    <glyph glyph-name="atilde" unicode="&#xe3;" horiz-adv-x="497" 
d="M395 0l-2 65q-44 -36 -94.5 -55t-101.5 -19q-67 0 -107 38t-40 102q0 71 48.5 112.5t132.5 41.5q36 0 81.5 -8t80.5 -20v112q0 64 -35 94.5t-108 30.5q-83 0 -168 -34v21q38 17 82.5 26t86.5 9q164 0 164 -140v-376h-20zM197 13q106 0 196 76v147q-81 27 -162 27
q-74 0 -115.5 -35t-41.5 -97q0 -53 33.5 -85.5t89.5 -32.5zM312 619q-21 0 -38 8.5t-36 28.5q-22 23 -37 32.5t-32 9.5q-26 0 -38.5 -15.5t-12.5 -47.5v-13h-20q-1 8 -1 18q0 35 19.5 56.5t52.5 21.5q21 0 38 -8.5t36 -28.5q22 -23 37 -32.5t32 -9.5q26 0 38.5 15.5
t12.5 47.5v13h20q1 -8 1 -18q0 -35 -19.5 -56.5t-52.5 -21.5z" />
    <glyph glyph-name="adieresis" unicode="&#xe4;" horiz-adv-x="497" 
d="M395 0l-2 65q-44 -36 -94.5 -55t-101.5 -19q-67 0 -107 38t-40 102q0 71 48.5 112.5t132.5 41.5q36 0 81.5 -8t80.5 -20v112q0 64 -35 94.5t-108 30.5q-83 0 -168 -34v21q38 17 82.5 26t86.5 9q164 0 164 -140v-376h-20zM197 13q106 0 196 76v147q-81 27 -162 27
q-74 0 -115.5 -35t-41.5 -97q0 -53 33.5 -85.5t89.5 -32.5zM137 631q-9 0 -15 6t-6 17q0 10 5.5 16t15.5 6t15.5 -6t5.5 -16q0 -11 -6 -17t-15 -6zM343 631q-9 0 -15 6t-6 17q0 10 5.5 16t15.5 6t15.5 -6t5.5 -16q0 -11 -6 -17t-15 -6z" />
    <glyph glyph-name="aring" unicode="&#xe5;" horiz-adv-x="497" 
d="M395 0l-2 65q-44 -36 -94.5 -55t-101.5 -19q-67 0 -107 38t-40 102q0 71 48.5 112.5t132.5 41.5q36 0 81.5 -8t80.5 -20v112q0 64 -35 94.5t-108 30.5q-83 0 -168 -34v21q38 17 82.5 26t86.5 9q164 0 164 -140v-376h-20zM197 13q106 0 196 76v147q-81 27 -162 27
q-74 0 -115.5 -35t-41.5 -97q0 -53 33.5 -85.5t89.5 -32.5zM240 584q-42 0 -69 25.5t-27 67.5q0 41 27 67t69 26t69 -25.5t27 -67.5q0 -41 -27 -67t-69 -26zM240 604q34 0 54 20t20 53t-20 53t-54 20t-54 -20t-20 -53t20 -53t54 -20z" />
    <glyph glyph-name="ae" unicode="&#xe6;" horiz-adv-x="834" 
d="M412 249q0 -124 48 -182t152 -58q77 0 161 42v-21q-33 -20 -75.5 -31.5t-85.5 -11.5q-143 0 -193 105q-56 -52 -110.5 -76.5t-112.5 -24.5q-66 0 -106 39.5t-40 105.5q0 73 50.5 113t143.5 40q79 0 145 -19v88q0 72 -32.5 103.5t-105.5 31.5q-88 0 -169 -34v21
q79 35 169 35q77 0 115.5 -31t42.5 -98q22 64 72 98t123 34q85 0 131.5 -52t46.5 -146q0 -21 -5 -71h-365zM199 13q52 0 106 24.5t106 71.5q-22 60 -22 139q-66 19 -145 19q-170 0 -170 -131q0 -57 33.5 -90t91.5 -33zM604 496q-188 0 -192 -226h346q2 11 2 50
q0 83 -41.5 129.5t-114.5 46.5z" />
    <glyph glyph-name="ccedilla" unicode="&#xe7;" horiz-adv-x="446" 
d="M409 17q-59 -28 -131 -28q-109 0 -165.5 67t-56.5 196q0 127 59.5 194.5t171.5 67.5q60 0 114 -23v-21q-59 22 -114 22q-100 0 -153.5 -60.5t-53.5 -174.5v-11q0 -114 52 -174.5t150 -60.5q61 0 127 27v-21zM259 -69q39 0 60 -16.5t21 -45.5q0 -33 -28.5 -69.5
t-77.5 -67.5l-17 13q46 29 73 62.5t27 60.5q0 42 -60 42q-22 0 -44 -6v19q21 8 46 8z" />
    <glyph glyph-name="egrave" unicode="&#xe8;" horiz-adv-x="511" 
d="M79 255q1 -125 52.5 -185.5t155.5 -60.5q80 0 163 42v-21q-71 -43 -164 -43q-230 0 -230 267q0 125 58.5 194.5t162.5 69.5q88 0 135 -51.5t47 -146.5q0 -25 -5 -65h-375zM277 496q-91 0 -143 -58t-55 -162h356q2 17 2 44q0 84 -42 130t-118 46zM260 603l-98 145h30
l91 -145h-23z" />
    <glyph glyph-name="eacute" unicode="&#xe9;" horiz-adv-x="511" 
d="M79 255q1 -125 52.5 -185.5t155.5 -60.5q80 0 163 42v-21q-71 -43 -164 -43q-230 0 -230 267q0 125 58.5 194.5t162.5 69.5q88 0 135 -51.5t47 -146.5q0 -25 -5 -65h-375zM277 496q-91 0 -143 -58t-55 -162h356q2 17 2 44q0 84 -42 130t-118 46zM263 603l91 145h30
l-98 -145h-23z" />
    <glyph glyph-name="ecircumflex" unicode="&#xea;" horiz-adv-x="511" 
d="M79 255q1 -125 52.5 -185.5t155.5 -60.5q80 0 163 42v-21q-71 -43 -164 -43q-230 0 -230 267q0 125 58.5 194.5t162.5 69.5q88 0 135 -51.5t47 -146.5q0 -25 -5 -65h-375zM277 496q-91 0 -143 -58t-55 -162h356q2 17 2 44q0 84 -42 130t-118 46zM394 603l-121 125
l-121 -125h-28l139 145h20l139 -145h-28z" />
    <glyph glyph-name="edieresis" unicode="&#xeb;" horiz-adv-x="511" 
d="M79 255q1 -125 52.5 -185.5t155.5 -60.5q80 0 163 42v-21q-71 -43 -164 -43q-230 0 -230 267q0 125 58.5 194.5t162.5 69.5q88 0 135 -51.5t47 -146.5q0 -25 -5 -65h-375zM277 496q-91 0 -143 -58t-55 -162h356q2 17 2 44q0 84 -42 130t-118 46zM170 631q-9 0 -15 6
t-6 17q0 10 5.5 16t15.5 6t15.5 -6t5.5 -16q0 -11 -6 -17t-15 -6zM376 631q-9 0 -15 6t-6 17q0 10 5.5 16t15.5 6t15.5 -6t5.5 -16q0 -11 -6 -17t-15 -6z" />
    <glyph glyph-name="igrave" unicode="&#xec;" horiz-adv-x="198" 
d="M88 0v503h22v-503h-22zM86 603l-98 145h30l91 -145h-23z" />
    <glyph glyph-name="iacute" unicode="&#xed;" horiz-adv-x="198" 
d="M88 0v503h22v-503h-22zM89 603l91 145h30l-98 -145h-23z" />
    <glyph glyph-name="icircumflex" unicode="&#xee;" horiz-adv-x="198" 
d="M88 0v503h22v-503h-22zM220 603l-121 125l-121 -125h-28l139 145h20l139 -145h-28z" />
    <glyph glyph-name="idieresis" unicode="&#xef;" horiz-adv-x="198" 
d="M88 0v503h22v-503h-22zM-4 631q-9 0 -15 6t-6 17q0 10 5.5 16t15.5 6t15.5 -6t5.5 -16q0 -11 -6 -17t-15 -6zM202 631q-9 0 -15 6t-6 17q0 10 5.5 16t15.5 6t15.5 -6t5.5 -16q0 -11 -6 -17t-15 -6z" />
    <glyph glyph-name="eth" unicode="&#xf0;" horiz-adv-x="547" 
d="M189 557l104 96q-62 41 -148 61v22q94 -20 164 -69l99 92l13 -15l-96 -89q81 -63 123.5 -162.5t42.5 -228.5q0 -135 -55.5 -207t-158.5 -72q-104 0 -162.5 65t-58.5 181t57.5 180.5t160.5 64.5q70 0 119 -32.5t73 -93.5q-31 196 -157 291l-107 -99zM277 7q90 0 140 61.5
t50 163.5q0 106 -51 164t-142 58q-95 0 -144.5 -57t-49.5 -166q0 -107 51.5 -165.5t145.5 -58.5z" />
    <glyph glyph-name="ntilde" unicode="&#xf1;" horiz-adv-x="556" 
d="M452 0v360q0 134 -128 134q-53 0 -110.5 -20t-107.5 -55v-419h-22v503h20l2 -62q50 36 107.5 55.5t113.5 19.5q71 0 109 -38t38 -111v-367h-22zM362 619q-21 0 -38 8.5t-36 28.5q-22 23 -37 32.5t-32 9.5q-26 0 -38.5 -15.5t-12.5 -47.5v-13h-20q-1 8 -1 18
q0 35 19.5 56.5t52.5 21.5q21 0 38 -8.5t36 -28.5q22 -23 37 -32.5t32 -9.5q26 0 38.5 15.5t12.5 47.5v13h20q1 -8 1 -18q0 -35 -19.5 -56.5t-52.5 -21.5z" />
    <glyph glyph-name="ograve" unicode="&#xf2;" horiz-adv-x="558" 
d="M279 9q96 0 147.5 62.5t51.5 179.5q0 118 -51.5 180.5t-147.5 62.5t-147.5 -62.5t-51.5 -179.5q0 -118 51.5 -180.5t147.5 -62.5zM279 -13q-106 0 -164.5 69.5t-58.5 195.5q0 125 58.5 194.5t164.5 69.5t164.5 -69.5t58.5 -195.5q0 -125 -58.5 -194.5t-164.5 -69.5z
M266 603l-98 145h30l91 -145h-23z" />
    <glyph glyph-name="oacute" unicode="&#xf3;" horiz-adv-x="558" 
d="M279 9q96 0 147.5 62.5t51.5 179.5q0 118 -51.5 180.5t-147.5 62.5t-147.5 -62.5t-51.5 -179.5q0 -118 51.5 -180.5t147.5 -62.5zM279 -13q-106 0 -164.5 69.5t-58.5 195.5q0 125 58.5 194.5t164.5 69.5t164.5 -69.5t58.5 -195.5q0 -125 -58.5 -194.5t-164.5 -69.5z
M269 603l91 145h30l-98 -145h-23z" />
    <glyph glyph-name="ocircumflex" unicode="&#xf4;" horiz-adv-x="558" 
d="M279 9q96 0 147.5 62.5t51.5 179.5q0 118 -51.5 180.5t-147.5 62.5t-147.5 -62.5t-51.5 -179.5q0 -118 51.5 -180.5t147.5 -62.5zM279 -13q-106 0 -164.5 69.5t-58.5 195.5q0 125 58.5 194.5t164.5 69.5t164.5 -69.5t58.5 -195.5q0 -125 -58.5 -194.5t-164.5 -69.5z
M400 603l-121 125l-121 -125h-28l139 145h20l139 -145h-28z" />
    <glyph glyph-name="otilde" unicode="&#xf5;" horiz-adv-x="558" 
d="M279 9q96 0 147.5 62.5t51.5 179.5q0 118 -51.5 180.5t-147.5 62.5t-147.5 -62.5t-51.5 -179.5q0 -118 51.5 -180.5t147.5 -62.5zM279 -13q-106 0 -164.5 69.5t-58.5 195.5q0 125 58.5 194.5t164.5 69.5t164.5 -69.5t58.5 -195.5q0 -125 -58.5 -194.5t-164.5 -69.5z
M351 619q-21 0 -38 8.5t-36 28.5q-22 23 -37 32.5t-32 9.5q-26 0 -38.5 -15.5t-12.5 -47.5v-13h-20q-1 8 -1 18q0 35 19.5 56.5t52.5 21.5q21 0 38 -8.5t36 -28.5q22 -23 37 -32.5t32 -9.5q26 0 38.5 15.5t12.5 47.5v13h20q1 -8 1 -18q0 -35 -19.5 -56.5t-52.5 -21.5z" />
    <glyph glyph-name="odieresis" unicode="&#xf6;" horiz-adv-x="558" 
d="M279 9q96 0 147.5 62.5t51.5 179.5q0 118 -51.5 180.5t-147.5 62.5t-147.5 -62.5t-51.5 -179.5q0 -118 51.5 -180.5t147.5 -62.5zM279 -13q-106 0 -164.5 69.5t-58.5 195.5q0 125 58.5 194.5t164.5 69.5t164.5 -69.5t58.5 -195.5q0 -125 -58.5 -194.5t-164.5 -69.5z
M176 631q-9 0 -15 6t-6 17q0 10 5.5 16t15.5 6t15.5 -6t5.5 -16q0 -11 -6 -17t-15 -6zM382 631q-9 0 -15 6t-6 17q0 10 5.5 16t15.5 6t15.5 -6t5.5 -16q0 -11 -6 -17t-15 -6z" />
    <glyph glyph-name="divide" unicode="&#xf7;" 
d="M293 500q-10 0 -16 6t-6 16q0 11 6 17t16 6t16 -6.5t6 -16.5t-6 -16t-16 -6zM293 158q-10 0 -16 6t-6 16q0 11 6 17t16 6t16 -6.5t6 -16.5t-6 -16t-16 -6zM80 341v21h426v-21h-426z" />
    <glyph glyph-name="oslash" unicode="&#xf8;" horiz-adv-x="558" 
d="M61 -4l51 63q-56 68 -56 193t58.5 194.5t164.5 69.5q93 0 152 -57l47 59l16 -14l-49 -60q57 -69 57 -193q0 -125 -58.5 -194.5t-164.5 -69.5q-97 0 -153 56l-50 -62zM279 9q96 0 147.5 62.5t51.5 179.5q0 112 -47 174l-291 -364q52 -52 139 -52zM80 252q0 -111 46 -174
l291 364q-52 52 -138 52q-96 0 -147.5 -62.5t-51.5 -179.5z" />
    <glyph glyph-name="ugrave" unicode="&#xf9;" horiz-adv-x="544" 
d="M440 0l-2 61q-50 -36 -103.5 -55t-105.5 -19q-147 0 -147 151v365h22v-353q0 -75 30.5 -108t97.5 -33q100 0 206 74v420h22v-503h-20zM258 603l-98 145h30l91 -145h-23z" />
    <glyph glyph-name="uacute" unicode="&#xfa;" horiz-adv-x="544" 
d="M440 0l-2 61q-50 -36 -103.5 -55t-105.5 -19q-147 0 -147 151v365h22v-353q0 -75 30.5 -108t97.5 -33q100 0 206 74v420h22v-503h-20zM261 603l91 145h30l-98 -145h-23z" />
    <glyph glyph-name="ucircumflex" unicode="&#xfb;" horiz-adv-x="544" 
d="M440 0l-2 61q-50 -36 -103.5 -55t-105.5 -19q-147 0 -147 151v365h22v-353q0 -75 30.5 -108t97.5 -33q100 0 206 74v420h22v-503h-20zM392 603l-121 125l-121 -125h-28l139 145h20l139 -145h-28z" />
    <glyph glyph-name="udieresis" unicode="&#xfc;" horiz-adv-x="544" 
d="M440 0l-2 61q-50 -36 -103.5 -55t-105.5 -19q-147 0 -147 151v365h22v-353q0 -75 30.5 -108t97.5 -33q100 0 206 74v420h22v-503h-20zM168 631q-9 0 -15 6t-6 17q0 10 5.5 16t15.5 6t15.5 -6t5.5 -16q0 -11 -6 -17t-15 -6zM374 631q-9 0 -15 6t-6 17q0 10 5.5 16t15.5 6
t15.5 -6t5.5 -16q0 -11 -6 -17t-15 -6z" />
    <glyph glyph-name="yacute" unicode="&#xfd;" horiz-adv-x="471" 
d="M207 -100q-28 -67 -56.5 -92.5t-69.5 -25.5q-30 0 -55 11v18q29 -8 52 -8q36 0 59.5 23t48.5 83l38 91l-210 503h26l196 -476l196 476h25zM225 603l91 145h30l-98 -145h-23z" />
    <glyph glyph-name="thorn" unicode="&#xfe;" horiz-adv-x="556" 
d="M288 -9q-93 0 -182 71v-268h-22v946h22v-296q44 37 87.5 54.5t94.5 17.5q62 0 110 -31.5t75 -90.5t27 -138q0 -125 -56 -195t-156 -70zM287 494q-49 0 -92.5 -17.5t-88.5 -55.5v-338q92 -70 181 -70q91 0 140 63t49 180q0 110 -50.5 174t-138.5 64z" />
    <glyph glyph-name="ydieresis" unicode="&#xff;" horiz-adv-x="471" 
d="M207 -100q-28 -67 -56.5 -92.5t-69.5 -25.5q-30 0 -55 11v18q29 -8 52 -8q36 0 59.5 23t48.5 83l38 91l-210 503h26l196 -476l196 476h25zM132 631q-9 0 -15 6t-6 17q0 10 5.5 16t15.5 6t15.5 -6t5.5 -16q0 -11 -6 -17t-15 -6zM338 631q-9 0 -15 6t-6 17q0 10 5.5 16
t15.5 6t15.5 -6t5.5 -16q0 -11 -6 -17t-15 -6z" />
    <glyph glyph-name="Amacron" unicode="&#x100;" horiz-adv-x="610" 
d="M565 0l-91 229h-340l-90 -229h-25l275 693h22l275 -693h-26zM142 251h323l-161 410zM158 818v21h294v-21h-294z" />
    <glyph glyph-name="amacron" unicode="&#x101;" horiz-adv-x="497" 
d="M395 0l-2 65q-44 -36 -94.5 -55t-101.5 -19q-67 0 -107 38t-40 102q0 71 48.5 112.5t132.5 41.5q36 0 81.5 -8t80.5 -20v112q0 64 -35 94.5t-108 30.5q-83 0 -168 -34v21q38 17 82.5 26t86.5 9q164 0 164 -140v-376h-20zM197 13q106 0 196 76v147q-81 27 -162 27
q-74 0 -115.5 -35t-41.5 -97q0 -53 33.5 -85.5t89.5 -32.5zM93 660v20h294v-20h-294z" />
    <glyph glyph-name="Abreve" unicode="&#x102;" horiz-adv-x="610" 
d="M565 0l-91 229h-340l-90 -229h-25l275 693h22l275 -693h-26zM142 251h323l-161 410zM305 768q-54 0 -88.5 27.5t-34.5 68.5v6.5t1 7.5h22v-8q0 -36 28 -58.5t72 -22.5t72 22.5t28 58.5v8h22q1 -4 1 -7.5v-6.5q0 -41 -34.5 -68.5t-88.5 -27.5z" />
    <glyph glyph-name="abreve" unicode="&#x103;" horiz-adv-x="497" 
d="M395 0l-2 65q-44 -36 -94.5 -55t-101.5 -19q-67 0 -107 38t-40 102q0 71 48.5 112.5t132.5 41.5q36 0 81.5 -8t80.5 -20v112q0 64 -35 94.5t-108 30.5q-83 0 -168 -34v21q38 17 82.5 26t86.5 9q164 0 164 -140v-376h-20zM197 13q106 0 196 76v147q-81 27 -162 27
q-74 0 -115.5 -35t-41.5 -97q0 -53 33.5 -85.5t89.5 -32.5zM240 601q-57 0 -90 29t-33 80q0 15 1 21h21v-19q0 -43 27 -67t74 -24t74 24t27 67v19h21q1 -6 1 -21q0 -51 -33 -80t-90 -29z" />
    <glyph glyph-name="Aogonek" unicode="&#x104;" horiz-adv-x="610" 
d="M617 -203q-23 -10 -51 -10q-41 0 -63 20t-22 56q0 39 22 76.5t60 63.5l-89 226h-340l-90 -229h-25l275 693h22l275 -693q-42 -30 -64 -64.5t-22 -71.5q0 -29 16 -42t49 -13q23 0 47 8v-20zM142 251h323l-161 410z" />
    <glyph glyph-name="aogonek" unicode="&#x105;" horiz-adv-x="497" 
d="M442 -203q-23 -10 -51 -10q-41 0 -63 20t-22 56q0 39 23.5 77.5t65.5 66.5l-2 58q-44 -36 -94.5 -55t-101.5 -19q-67 0 -107 38t-40 102q0 71 48.5 112.5t132.5 41.5q36 0 81.5 -8t80.5 -20v112q0 64 -35 94.5t-108 30.5q-83 0 -168 -34v21q38 17 82.5 26t86.5 9
q164 0 164 -140v-376q-42 -30 -64 -64.5t-22 -71.5q0 -56 66 -56q23 0 47 8v-19zM197 13q106 0 196 76v147q-81 27 -162 27q-74 0 -115.5 -35t-41.5 -97q0 -53 33.5 -85.5t89.5 -32.5z" />
    <glyph glyph-name="Cacute" unicode="&#x106;" horiz-adv-x="595" 
d="M553 18q-34 -14 -77.5 -21.5t-86.5 -7.5q-158 0 -237.5 90t-79.5 265q0 174 82 264.5t240 90.5q82 0 149 -27v-22q-77 26 -149 26q-145 0 -221 -82.5t-76 -236.5v-26q0 -155 75 -237t217 -82q79 0 164 28v-22zM356 769l91 112h35l-100 -112h-26z" />
    <glyph glyph-name="cacute" unicode="&#x107;" horiz-adv-x="446" 
d="M409 17q-59 -28 -131 -28q-109 0 -165.5 67t-56.5 196q0 127 59.5 194.5t171.5 67.5q60 0 114 -23v-21q-59 22 -114 22q-100 0 -153.5 -60.5t-53.5 -174.5v-11q0 -114 52 -174.5t150 -60.5q61 0 127 27v-21zM255 603l91 145h30l-98 -145h-23z" />
    <glyph glyph-name="Ccircumflex" unicode="&#x108;" horiz-adv-x="595" 
d="M553 18q-34 -14 -77.5 -21.5t-86.5 -7.5q-158 0 -237.5 90t-79.5 265q0 174 82 264.5t240 90.5q82 0 149 -27v-22q-77 26 -149 26q-145 0 -221 -82.5t-76 -236.5v-26q0 -155 75 -237t217 -82q79 0 164 28v-22zM525 769h-33l-120 105l-120 -105h-33l143 124h20z" />
    <glyph glyph-name="ccircumflex" unicode="&#x109;" horiz-adv-x="446" 
d="M409 17q-59 -28 -131 -28q-109 0 -165.5 67t-56.5 196q0 127 59.5 194.5t171.5 67.5q60 0 114 -23v-21q-59 22 -114 22q-100 0 -153.5 -60.5t-53.5 -174.5v-11q0 -114 52 -174.5t150 -60.5q61 0 127 27v-21zM386 603l-121 125l-121 -125h-28l139 145h20l139 -145h-28z
" />
    <glyph glyph-name="Cdotaccent" unicode="&#x10a;" horiz-adv-x="595" 
d="M553 18q-34 -14 -77.5 -21.5t-86.5 -7.5q-158 0 -237.5 90t-79.5 265q0 174 82 264.5t240 90.5q82 0 149 -27v-22q-77 26 -149 26q-145 0 -221 -82.5t-76 -236.5v-26q0 -155 75 -237t217 -82q79 0 164 28v-22zM372 802q-11 0 -17 6.5t-6 17.5t6 17.5t17 6.5t17 -6.5
t6 -17.5t-6 -17.5t-17 -6.5z" />
    <glyph glyph-name="cdotaccent" unicode="&#x10b;" horiz-adv-x="446" 
d="M409 17q-59 -28 -131 -28q-109 0 -165.5 67t-56.5 196q0 127 59.5 194.5t171.5 67.5q60 0 114 -23v-21q-59 22 -114 22q-100 0 -153.5 -60.5t-53.5 -174.5v-11q0 -114 52 -174.5t150 -60.5q61 0 127 27v-21zM265 630q-10 0 -16 6.5t-6 16.5t6 16.5t16 6.5t16 -6.5
t6 -16.5t-6 -16.5t-16 -6.5z" />
    <glyph glyph-name="Ccaron" unicode="&#x10c;" horiz-adv-x="595" 
d="M553 18q-34 -14 -77.5 -21.5t-86.5 -7.5q-158 0 -237.5 90t-79.5 265q0 174 82 264.5t240 90.5q82 0 149 -27v-22q-77 26 -149 26q-145 0 -221 -82.5t-76 -236.5v-26q0 -155 75 -237t217 -82q79 0 164 28v-22zM362 769l-143 124h37l116 -106l116 106h37l-143 -124h-20z
" />
    <glyph glyph-name="ccaron" unicode="&#x10d;" horiz-adv-x="446" 
d="M409 17q-59 -28 -131 -28q-109 0 -165.5 67t-56.5 196q0 127 59.5 194.5t171.5 67.5q60 0 114 -23v-21q-59 22 -114 22q-100 0 -153.5 -60.5t-53.5 -174.5v-11q0 -114 52 -174.5t150 -60.5q61 0 127 27v-21zM414 748l-139 -145h-20l-139 145h32l117 -126l117 126h32z" />
    <glyph glyph-name="Dcaron" unicode="&#x10e;" horiz-adv-x="660" 
d="M94 0v693h193q148 0 224.5 -88t76.5 -259q0 -170 -79.5 -258t-233.5 -88h-181zM117 671v-649h154q145 0 218.5 78.5t73.5 232.5v27q0 152 -70 231.5t-206 79.5h-170zM287 769l-143 124h37l116 -106l116 106h37l-143 -124h-20z" />
    <glyph glyph-name="dcaron" unicode="&#x10f;" horiz-adv-x="610" 
d="M451 0l-2 62q-44 -37 -88 -54t-93 -17q-62 0 -110 31.5t-75 90.5t-27 138q0 125 56 195t156 70q92 0 181 -70v294h22v-740h-20zM269 13q49 0 92.5 17t87.5 54v341q-93 69 -180 69q-91 0 -140 -63t-49 -180q0 -110 50.5 -174t138.5 -64zM560 559v188q5 5 12 5q8 0 12 -5
l-8 -188h-16z" />
    <glyph glyph-name="Dcroat" unicode="&#x110;" horiz-adv-x="667" 
d="M101 0v345h-80v22h80v326h193q148 0 224.5 -88t76.5 -259q0 -170 -79.5 -258t-233.5 -88h-181zM124 345v-323h154q145 0 218.5 78.5t73.5 232.5v27q0 152 -70 231.5t-206 79.5h-170v-304h187v-22h-187z" />
    <glyph glyph-name="dcroat" unicode="&#x111;" horiz-adv-x="555" 
d="M471 617v-617h-20l-2 62q-44 -37 -88 -54t-93 -17q-62 0 -110 31.5t-75 90.5t-27 138q0 125 56 195t156 70q94 0 181 -70v171h-204v20h204v103h22v-103h78v-20h-78zM269 13q95 0 180 72v340q-48 35 -91.5 52t-88.5 17q-91 0 -140 -63t-49 -180q0 -110 50.5 -174
t138.5 -64z" />
    <glyph glyph-name="Emacron" unicode="&#x112;" horiz-adv-x="542" 
d="M94 0v693h390v-22h-367v-300h320v-22h-320v-327h367v-22h-390zM142 818v21h294v-21h-294z" />
    <glyph glyph-name="emacron" unicode="&#x113;" horiz-adv-x="511" 
d="M79 255q1 -125 52.5 -185.5t155.5 -60.5q80 0 163 42v-21q-71 -43 -164 -43q-230 0 -230 267q0 125 58.5 194.5t162.5 69.5q88 0 135 -51.5t47 -146.5q0 -25 -5 -65h-375zM277 496q-91 0 -143 -58t-55 -162h356q2 17 2 44q0 84 -42 130t-118 46zM126 660v20h294v-20h-294
z" />
    <glyph glyph-name="Ebreve" unicode="&#x114;" horiz-adv-x="542" 
d="M94 0v693h390v-22h-367v-300h320v-22h-320v-327h367v-22h-390zM289 768q-54 0 -88.5 27.5t-34.5 68.5v6.5t1 7.5h22v-8q0 -36 28 -58.5t72 -22.5t72 22.5t28 58.5v8h22q1 -4 1 -7.5v-6.5q0 -41 -34.5 -68.5t-88.5 -27.5z" />
    <glyph glyph-name="ebreve" unicode="&#x115;" horiz-adv-x="511" 
d="M79 255q1 -125 52.5 -185.5t155.5 -60.5q80 0 163 42v-21q-71 -43 -164 -43q-230 0 -230 267q0 125 58.5 194.5t162.5 69.5q88 0 135 -51.5t47 -146.5q0 -25 -5 -65h-375zM277 496q-91 0 -143 -58t-55 -162h356q2 17 2 44q0 84 -42 130t-118 46zM273 601q-57 0 -90 29
t-33 80q0 15 1 21h21v-19q0 -43 27 -67t74 -24t74 24t27 67v19h21q1 -6 1 -21q0 -51 -33 -80t-90 -29z" />
    <glyph glyph-name="Edotaccent" unicode="&#x116;" horiz-adv-x="542" 
d="M94 0v693h390v-22h-367v-300h320v-22h-320v-327h367v-22h-390zM289 802q-11 0 -17 6.5t-6 17.5t6 17.5t17 6.5t17 -6.5t6 -17.5t-6 -17.5t-17 -6.5z" />
    <glyph glyph-name="edotaccent" unicode="&#x117;" horiz-adv-x="511" 
d="M79 255q1 -125 52.5 -185.5t155.5 -60.5q80 0 163 42v-21q-71 -43 -164 -43q-230 0 -230 267q0 125 58.5 194.5t162.5 69.5q88 0 135 -51.5t47 -146.5q0 -25 -5 -65h-375zM277 496q-91 0 -143 -58t-55 -162h356q2 17 2 44q0 84 -42 130t-118 46zM273 630q-10 0 -16 6.5
t-6 16.5t6 16.5t16 6.5t16 -6.5t6 -16.5t-6 -16.5t-16 -6.5z" />
    <glyph glyph-name="Eogonek" unicode="&#x118;" horiz-adv-x="542" 
d="M510 -203q-23 -10 -51 -10q-41 0 -63 20t-22 56q0 37 21 73.5t57 63.5h-358v693h390v-22h-367v-300h320v-22h-320v-327h367v-22q-42 -30 -64 -64.5t-22 -71.5q0 -29 16 -42t49 -13q23 0 47 8v-20z" />
    <glyph glyph-name="eogonek" unicode="&#x119;" horiz-adv-x="511" 
d="M358 -213q-42 0 -64.5 21t-22.5 59t23.5 73t62.5 57q-35 -10 -71 -10q-230 0 -230 267q0 125 58.5 194.5t162.5 69.5q88 0 135 -51.5t47 -146.5q0 -21 -5 -65h-375q1 -125 52.5 -185.5t155.5 -60.5q80 0 163 42v-21l-40 -20q-57 -27 -86.5 -62.5t-29.5 -75.5
q0 -34 16.5 -49t51.5 -15q21 0 47 8v-19q-21 -10 -51 -10zM277 496q-91 0 -143 -57.5t-55 -162.5h356q2 16 2 44q0 84 -42 130t-118 46z" />
    <glyph glyph-name="Ecaron" unicode="&#x11a;" horiz-adv-x="542" 
d="M94 0v693h390v-22h-367v-300h320v-22h-320v-327h367v-22h-390zM279 769l-143 124h37l116 -106l116 106h37l-143 -124h-20z" />
    <glyph glyph-name="ecaron" unicode="&#x11b;" horiz-adv-x="511" 
d="M79 255q1 -125 52.5 -185.5t155.5 -60.5q80 0 163 42v-21q-71 -43 -164 -43q-230 0 -230 267q0 125 58.5 194.5t162.5 69.5q88 0 135 -51.5t47 -146.5q0 -25 -5 -65h-375zM277 496q-91 0 -143 -58t-55 -162h356q2 17 2 44q0 84 -42 130t-118 46zM422 748l-139 -145h-20
l-139 145h32l117 -126l117 126h32z" />
    <glyph glyph-name="Gcircumflex" unicode="&#x11c;" horiz-adv-x="661" 
d="M390 12q96 0 168 29v269h-206v22h229v-305q-84 -38 -191 -38q-160 0 -239 88.5t-79 266.5q0 172 81 263.5t234 91.5q89 0 174 -38v-22q-51 20 -90.5 28.5t-83.5 8.5q-140 0 -215 -83t-75 -239v-25q0 -317 293 -317zM525 769h-33l-120 105l-120 -105h-33l143 124h20z" />
    <glyph glyph-name="gcircumflex" unicode="&#x11d;" horiz-adv-x="550" 
d="M444 77q-43 -36 -86.5 -53t-91.5 -17q-60 0 -107.5 30.5t-75 87t-27.5 130.5q0 124 55.5 192.5t155.5 68.5q90 0 177 -70l2 57h20v-495q0 -111 -56 -168.5t-163 -57.5q-91 0 -154 36v21q73 -35 153 -35q101 0 149.5 51t48.5 158v64zM267 29q91 0 177 71v325
q-90 69 -176 69q-91 0 -139.5 -62t-48.5 -177q0 -103 51 -164.5t136 -61.5zM395 603l-121 125l-121 -125h-28l139 145h20l139 -145h-28z" />
    <glyph glyph-name="Gbreve" unicode="&#x11e;" horiz-adv-x="661" 
d="M390 12q96 0 168 29v269h-206v22h229v-305q-84 -38 -191 -38q-160 0 -239 88.5t-79 266.5q0 172 81 263.5t234 91.5q89 0 174 -38v-22q-51 20 -90.5 28.5t-83.5 8.5q-140 0 -215 -83t-75 -239v-25q0 -317 293 -317zM372 768q-54 0 -88.5 27.5t-34.5 68.5v6.5t1 7.5h22v-8
q0 -36 28 -58.5t72 -22.5t72 22.5t28 58.5v8h22q1 -4 1 -7.5v-6.5q0 -41 -34.5 -68.5t-88.5 -27.5z" />
    <glyph glyph-name="gbreve" unicode="&#x11f;" horiz-adv-x="550" 
d="M444 77q-43 -36 -86.5 -53t-91.5 -17q-60 0 -107.5 30.5t-75 87t-27.5 130.5q0 124 55.5 192.5t155.5 68.5q90 0 177 -70l2 57h20v-495q0 -111 -56 -168.5t-163 -57.5q-91 0 -154 36v21q73 -35 153 -35q101 0 149.5 51t48.5 158v64zM267 29q91 0 177 71v325
q-90 69 -176 69q-91 0 -139.5 -62t-48.5 -177q0 -103 51 -164.5t136 -61.5zM274 601q-57 0 -90 29t-33 80q0 15 1 21h21v-19q0 -43 27 -67t74 -24t74 24t27 67v19h21q1 -6 1 -21q0 -51 -33 -80t-90 -29z" />
    <glyph glyph-name="Gdotaccent" unicode="&#x120;" horiz-adv-x="661" 
d="M390 12q96 0 168 29v269h-206v22h229v-305q-84 -38 -191 -38q-160 0 -239 88.5t-79 266.5q0 172 81 263.5t234 91.5q89 0 174 -38v-22q-51 20 -90.5 28.5t-83.5 8.5q-140 0 -215 -83t-75 -239v-25q0 -317 293 -317zM372 802q-11 0 -17 6.5t-6 17.5t6 17.5t17 6.5t17 -6.5
t6 -17.5t-6 -17.5t-17 -6.5z" />
    <glyph glyph-name="gdotaccent" unicode="&#x121;" horiz-adv-x="550" 
d="M444 77q-43 -36 -86.5 -53t-91.5 -17q-60 0 -107.5 30.5t-75 87t-27.5 130.5q0 124 55.5 192.5t155.5 68.5q90 0 177 -70l2 57h20v-495q0 -111 -56 -168.5t-163 -57.5q-91 0 -154 36v21q73 -35 153 -35q101 0 149.5 51t48.5 158v64zM267 29q91 0 177 71v325
q-90 69 -176 69q-91 0 -139.5 -62t-48.5 -177q0 -103 51 -164.5t136 -61.5zM274 630q-10 0 -16 6.5t-6 16.5t6 16.5t16 6.5t16 -6.5t6 -16.5t-6 -16.5t-16 -6.5z" />
    <glyph glyph-name="uni0122" unicode="&#x122;" horiz-adv-x="661" 
d="M390 12q96 0 168 29v269h-206v22h229v-305q-84 -38 -191 -38q-160 0 -239 88.5t-79 266.5q0 172 81 263.5t234 91.5q89 0 174 -38v-22q-51 20 -90.5 28.5t-83.5 8.5q-140 0 -215 -83t-75 -239v-25q0 -317 293 -317zM348 -264l37 194h11q14 0 14 -10q0 -7 -5 -29l-36 -155
h-21z" />
    <glyph glyph-name="uni0123" unicode="&#x123;" horiz-adv-x="550" 
d="M444 77q-43 -36 -86.5 -53t-91.5 -17q-60 0 -107.5 30.5t-75 87t-27.5 130.5q0 124 55.5 192.5t155.5 68.5q90 0 177 -70l2 57h20v-495q0 -111 -56 -168.5t-163 -57.5q-91 0 -154 36v21q73 -35 153 -35q101 0 149.5 51t48.5 158v64zM267 29q91 0 177 71v325
q-90 69 -176 69q-91 0 -139.5 -62t-48.5 -177q0 -103 51 -164.5t136 -61.5zM319 789l-38 -201h-9q-14 0 -14 10q0 7 5 29l37 162h19z" />
    <glyph glyph-name="Hcircumflex" unicode="&#x124;" horiz-adv-x="694" 
d="M577 0v344h-460v-344h-23v693h23v-327h460v327h23v-693h-23zM500 769h-33l-120 105l-120 -105h-33l143 124h20z" />
    <glyph glyph-name="hcircumflex" unicode="&#x125;" horiz-adv-x="556" 
d="M452 0v360q0 134 -128 134q-53 0 -110.5 -20t-107.5 -55v-419h-22v740h22v-299q51 36 108 55.5t113 19.5q71 0 109 -38t38 -111v-367h-22zM248 789h-33l-120 105l-120 -105h-33l143 124h20z" />
    <glyph glyph-name="Hbar" unicode="&#x126;" horiz-adv-x="714" 
d="M587 0v344h-460v-344h-23v512h-80v21h80v160h23v-160h460v160h23v-160h80v-21h-80v-512h-23zM587 366v146h-460v-146h460z" />
    <glyph glyph-name="hbar" unicode="&#x127;" horiz-adv-x="553" 
d="M449 0v360q0 134 -128 134q-53 0 -110.5 -20t-107.5 -55v-419h-22v617h-77v20h77v103h22v-103h217v-20h-217v-176q51 36 108 55.5t113 19.5q71 0 109 -38t38 -111v-367h-22z" />
    <glyph glyph-name="Itilde" unicode="&#x128;" horiz-adv-x="219" 
d="M98 0v693h23v-693h-23zM181 779q-21 0 -38 8.5t-36 28.5q-21 23 -36.5 32t-32.5 9q-26 0 -38.5 -15t-12.5 -47v-13h-20q-1 8 -1 18q0 35 19.5 56.5t52.5 21.5q21 0 38 -8.5t36 -28.5q21 -23 36.5 -32t32.5 -9q26 0 38.5 15t12.5 47v13h20q1 -8 1 -18q0 -35 -19.5 -56.5
t-52.5 -21.5z" />
    <glyph glyph-name="itilde" unicode="&#x129;" horiz-adv-x="198" 
d="M88 0v503h22v-503h-22zM171 619q-21 0 -38 8.5t-36 28.5q-22 23 -37 32.5t-32 9.5q-26 0 -38.5 -15.5t-12.5 -47.5v-13h-20q-1 8 -1 18q0 35 19.5 56.5t52.5 21.5q21 0 38 -8.5t36 -28.5q22 -23 37 -32.5t32 -9.5q26 0 38.5 15.5t12.5 47.5v13h20q1 -8 1 -18
q0 -35 -19.5 -56.5t-52.5 -21.5z" />
    <glyph glyph-name="Imacron" unicode="&#x12a;" horiz-adv-x="219" 
d="M98 0v693h23v-693h-23zM-38 818v21h294v-21h-294z" />
    <glyph glyph-name="imacron" unicode="&#x12b;" horiz-adv-x="198" 
d="M88 0v503h22v-503h-22zM-48 660v20h294v-20h-294z" />
    <glyph glyph-name="Ibreve" unicode="&#x12c;" horiz-adv-x="219" 
d="M98 0v693h23v-693h-23zM109 768q-54 0 -88.5 27.5t-34.5 68.5v6.5t1 7.5h22v-8q0 -36 28 -58.5t72 -22.5t72 22.5t28 58.5v8h22q1 -4 1 -7.5v-6.5q0 -41 -34.5 -68.5t-88.5 -27.5z" />
    <glyph glyph-name="ibreve" unicode="&#x12d;" horiz-adv-x="198" 
d="M88 0v503h22v-503h-22zM99 601q-57 0 -90 29t-33 80q0 15 1 21h21v-19q0 -43 27 -67t74 -24t74 24t27 67v19h21q1 -6 1 -21q0 -51 -33 -80t-90 -29z" />
    <glyph glyph-name="Iogonek" unicode="&#x12e;" horiz-adv-x="219" 
d="M147 -203q-23 -10 -51 -10q-41 0 -63 20t-22 56q0 39 23.5 77.5t63.5 65.5v687h23v-693q-42 -30 -64 -64.5t-22 -71.5q0 -29 16 -42t49 -13q23 0 47 8v-20z" />
    <glyph glyph-name="iogonek" unicode="&#x12f;" horiz-adv-x="198" 
d="M137 -203q-23 -10 -51 -10q-41 0 -63 20t-22 56q0 39 23 77t64 65v498h22v-503q-42 -30 -64 -64.5t-22 -71.5q0 -56 66 -56q23 0 47 8v-19zM99 630q-10 0 -16 6.5t-6 16.5t6 16.5t16 6.5t16 -6.5t6 -16.5t-6 -16.5t-16 -6.5z" />
    <glyph glyph-name="Idotaccent" unicode="&#x130;" horiz-adv-x="219" 
d="M98 0v693h23v-693h-23zM109 802q-11 0 -17 6.5t-6 17.5t6 17.5t17 6.5t17 -6.5t6 -17.5t-6 -17.5t-17 -6.5z" />
    <glyph glyph-name="dotlessi" unicode="&#x131;" horiz-adv-x="198" 
d="M88 0v503h22v-503h-22z" />
    <glyph glyph-name="IJ" unicode="&#x132;" horiz-adv-x="599" 
d="M340 -15q-30 0 -65.5 8.5t-56.5 20.5v22q60 -28 122 -28q70 0 103 36.5t33 114.5v534h23v-534q0 -89 -39 -131.5t-120 -42.5zM98 0v693h23v-693h-23z" />
    <glyph glyph-name="ij" unicode="&#x133;" horiz-adv-x="396" 
d="M308 -136q0 -82 -80 -82q-31 0 -59 10v19q29 -8 59 -8q58 0 58 61v639h22v-639zM297 630q-10 0 -16 6.5t-6 16.5t6 16.5t16 6.5t16 -6.5t6 -16.5t-6 -16.5t-16 -6.5zM88 0v503h22v-503h-22zM99 630q-10 0 -16 6.5t-6 16.5t6 16.5t16 6.5t16 -6.5t6 -16.5t-6 -16.5
t-16 -6.5z" />
    <glyph glyph-name="Jcircumflex" unicode="&#x134;" horiz-adv-x="413" 
d="M154 -15q-30 0 -65.5 8.5t-56.5 20.5v22q60 -28 122 -28q70 0 103 36.5t33 114.5v534h23v-534q0 -89 -39 -131.5t-120 -42.5zM454 769h-33l-120 105l-120 -105h-33l143 124h20z" />
    <glyph glyph-name="jcircumflex" unicode="&#x135;" horiz-adv-x="198" 
d="M110 -136q0 -82 -80 -82q-29 0 -59 10v19q29 -8 59 -8q58 0 58 61v639h22v-639zM220 603l-121 125l-121 -125h-28l139 145h20l139 -145h-28z" />
    <glyph glyph-name="uni0136" unicode="&#x136;" horiz-adv-x="534" 
d="M94 0v693h23v-337l353 337h30l-359 -344l389 -349h-33l-380 340v-340h-23zM240 -264l37 194h11q14 0 14 -10q0 -7 -5 -29l-36 -155h-21z" />
    <glyph glyph-name="uni0137" unicode="&#x137;" horiz-adv-x="443" 
d="M84 0v740h22v-470l284 233h33l-293 -239l311 -264h-33l-302 256v-256h-22zM192 -264l37 194h9q14 0 14 -10q0 -7 -5 -29l-36 -155h-19z" />
    <glyph glyph-name="kgreenlandic" unicode="&#x138;" horiz-adv-x="443" 
d="M84 0v503h22v-242l285 242h32l-293 -249l311 -254h-32l-303 246v-246h-22z" />
    <glyph glyph-name="Lacute" unicode="&#x139;" horiz-adv-x="501" 
d="M94 0v693h23v-671h365v-22h-388zM89 769l91 112h35l-100 -112h-26z" />
    <glyph glyph-name="lacute" unicode="&#x13a;" horiz-adv-x="226" 
d="M185 3q-18 -5 -38 -5q-30 0 -46.5 17t-16.5 49v676h22v-676q0 -45 45 -45q16 0 34 3v-19zM79 789l91 112h35l-100 -112h-26z" />
    <glyph glyph-name="uni013B" unicode="&#x13b;" horiz-adv-x="501" 
d="M94 0v693h23v-671h365v-22h-388zM246 -264l37 194h11q14 0 14 -10q0 -7 -5 -29l-36 -155h-21z" />
    <glyph glyph-name="uni013C" unicode="&#x13c;" horiz-adv-x="226" 
d="M185 3q-18 -5 -38 -5q-30 0 -46.5 17t-16.5 49v676h22v-676q0 -45 45 -45q16 0 34 3v-19zM94 -264l37 194h9q14 0 14 -10q0 -7 -5 -29l-36 -155h-19z" />
    <glyph glyph-name="Lcaron" unicode="&#x13d;" horiz-adv-x="501" 
d="M94 0v693h23v-671h365v-22h-388zM227 539v188q5 5 12 5q8 0 12 -5l-8 -188h-16z" />
    <glyph glyph-name="lcaron" unicode="&#x13e;" horiz-adv-x="245" 
d="M185 3q-18 -5 -38 -5q-30 0 -46.5 17t-16.5 49v676h22v-676q0 -45 45 -45q16 0 34 3v-19zM195 559v188q5 5 12 5q8 0 12 -5l-8 -188h-16z" />
    <glyph glyph-name="Ldot" unicode="&#x13f;" horiz-adv-x="501" 
d="M94 0v693h23v-671h365v-22h-388zM350 337q-10 0 -16 6.5t-6 16.5t6 16.5t16 6.5t16 -6.5t6 -16.5t-6 -16.5t-16 -6.5z" />
    <glyph glyph-name="ldot" unicode="&#x140;" horiz-adv-x="250" 
d="M185 3q-18 -5 -38 -5q-30 0 -46.5 17t-16.5 49v676h22v-676q0 -45 45 -45q16 0 34 3v-19zM220 337q-10 0 -16 6.5t-6 16.5t6 16.5t16 6.5t16 -6.5t6 -16.5t-6 -16.5t-16 -6.5z" />
    <glyph glyph-name="Lslash" unicode="&#x141;" horiz-adv-x="534" 
d="M132 0v293l-91 -53v23l91 52v378h23v-364l223 129v-23l-223 -130v-283h365v-22h-388z" />
    <glyph glyph-name="lslash" unicode="&#x142;" horiz-adv-x="266" 
d="M202 3q-18 -5 -38 -5q-30 0 -46.5 17t-16.5 49v290l-83 -48v22l83 48v364h22v-351l89 52v-22l-89 -52v-303q0 -45 45 -45q16 0 34 3v-19z" />
    <glyph glyph-name="Nacute" unicode="&#x143;" horiz-adv-x="687" 
d="M117 657v-657h-23v693h25l451 -657v657h23v-693h-25zM327 769l91 112h35l-100 -112h-26z" />
    <glyph glyph-name="nacute" unicode="&#x144;" horiz-adv-x="556" 
d="M452 0v360q0 134 -128 134q-53 0 -110.5 -20t-107.5 -55v-419h-22v503h20l2 -62q50 36 107.5 55.5t113.5 19.5q71 0 109 -38t38 -111v-367h-22zM280 603l91 145h30l-98 -145h-23z" />
    <glyph glyph-name="uni0145" unicode="&#x145;" horiz-adv-x="687" 
d="M117 657v-657h-23v693h25l451 -657v657h23v-693h-25zM301 -264l37 194h11q14 0 14 -10q0 -7 -5 -29l-36 -155h-21z" />
    <glyph glyph-name="uni0146" unicode="&#x146;" horiz-adv-x="556" 
d="M452 0v360q0 134 -128 134q-53 0 -110.5 -20t-107.5 -55v-419h-22v503h20l2 -62q50 36 107.5 55.5t113.5 19.5q71 0 109 -38t38 -111v-367h-22zM238 -264l37 194h9q14 0 14 -10q0 -7 -5 -29l-36 -155h-19z" />
    <glyph glyph-name="Ncaron" unicode="&#x147;" horiz-adv-x="687" 
d="M117 657v-657h-23v693h25l451 -657v657h23v-693h-25zM333 769l-143 124h37l116 -106l116 106h37l-143 -124h-20z" />
    <glyph glyph-name="ncaron" unicode="&#x148;" horiz-adv-x="556" 
d="M452 0v360q0 134 -128 134q-53 0 -110.5 -20t-107.5 -55v-419h-22v503h20l2 -62q50 36 107.5 55.5t113.5 19.5q71 0 109 -38t38 -111v-367h-22zM439 748l-139 -145h-20l-139 145h32l117 -126l117 126h32z" />
    <glyph glyph-name="napostrophe" unicode="&#x149;" horiz-adv-x="654" 
d="M550 0v360q0 134 -128 134q-53 0 -110.5 -20t-107.5 -55v-419h-22v503h20l2 -62q50 36 107.5 55.5t113.5 19.5q71 0 109 -38t38 -111v-367h-22zM67 503l35 190h11q12 0 12 -11q0 -4 -6 -33l-34 -146h-18z" />
    <glyph glyph-name="Eng" unicode="&#x14a;" horiz-adv-x="687" 
d="M593 -15q0 -102 -43.5 -152.5t-133.5 -50.5q-29 0 -61.5 8.5t-54.5 22.5v21q56 -30 116 -30q80 0 116 43t36 138v15l-451 656v-656h-23v693h25l451 -657v657h23v-708z" />
    <glyph glyph-name="eng" unicode="&#x14b;" horiz-adv-x="556" 
d="M474 -103q0 -56 -26.5 -85.5t-76.5 -29.5q-39 0 -80 16v20q41 -15 80 -15q42 0 61.5 23t19.5 72v462q0 134 -128 134q-53 0 -110.5 -20t-107.5 -55v-419h-22v503h20l2 -62q52 36 109 55.5t112 19.5q71 0 109 -38t38 -111v-470z" />
    <glyph glyph-name="Omacron" unicode="&#x14c;" horiz-adv-x="758" 
d="M686 345q0 -171 -80.5 -265.5t-226.5 -94.5t-226.5 94.5t-80.5 265.5t80.5 265.5t226.5 94.5t226.5 -94.5t80.5 -265.5zM661 345q0 162 -73.5 249.5t-208.5 87.5t-208.5 -87.5t-73.5 -249.5t73.5 -249.5t208.5 -87.5t208.5 87.5t73.5 249.5zM232 818v21h294v-21h-294z
" />
    <glyph glyph-name="omacron" unicode="&#x14d;" horiz-adv-x="558" 
d="M279 9q96 0 147.5 62.5t51.5 179.5q0 118 -51.5 180.5t-147.5 62.5t-147.5 -62.5t-51.5 -179.5q0 -118 51.5 -180.5t147.5 -62.5zM279 -13q-106 0 -164.5 69.5t-58.5 195.5q0 125 58.5 194.5t164.5 69.5t164.5 -69.5t58.5 -195.5q0 -125 -58.5 -194.5t-164.5 -69.5z
M132 660v20h294v-20h-294z" />
    <glyph glyph-name="Obreve" unicode="&#x14e;" horiz-adv-x="758" 
d="M686 345q0 -171 -80.5 -265.5t-226.5 -94.5t-226.5 94.5t-80.5 265.5t80.5 265.5t226.5 94.5t226.5 -94.5t80.5 -265.5zM661 345q0 162 -73.5 249.5t-208.5 87.5t-208.5 -87.5t-73.5 -249.5t73.5 -249.5t208.5 -87.5t208.5 87.5t73.5 249.5zM379 768q-54 0 -88.5 27.5
t-34.5 68.5v6.5t1 7.5h22v-8q0 -36 28 -58.5t72 -22.5t72 22.5t28 58.5v8h22q1 -4 1 -7.5v-6.5q0 -41 -34.5 -68.5t-88.5 -27.5z" />
    <glyph glyph-name="obreve" unicode="&#x14f;" horiz-adv-x="558" 
d="M279 9q96 0 147.5 62.5t51.5 179.5q0 118 -51.5 180.5t-147.5 62.5t-147.5 -62.5t-51.5 -179.5q0 -118 51.5 -180.5t147.5 -62.5zM279 -13q-106 0 -164.5 69.5t-58.5 195.5q0 125 58.5 194.5t164.5 69.5t164.5 -69.5t58.5 -195.5q0 -125 -58.5 -194.5t-164.5 -69.5z
M279 601q-57 0 -90 29t-33 80q0 15 1 21h21v-19q0 -43 27 -67t74 -24t74 24t27 67v19h21q1 -6 1 -21q0 -51 -33 -80t-90 -29z" />
    <glyph glyph-name="Ohungarumlaut" unicode="&#x150;" horiz-adv-x="758" 
d="M686 345q0 -171 -80.5 -265.5t-226.5 -94.5t-226.5 94.5t-80.5 265.5t80.5 265.5t226.5 94.5t226.5 -94.5t80.5 -265.5zM661 345q0 162 -73.5 249.5t-208.5 87.5t-208.5 -87.5t-73.5 -249.5t73.5 -249.5t208.5 -87.5t208.5 87.5t73.5 249.5zM284 769l93 112h32l-100 -112
h-25zM451 769l93 112h32l-100 -112h-25z" />
    <glyph glyph-name="ohungarumlaut" unicode="&#x151;" horiz-adv-x="558" 
d="M279 9q96 0 147.5 62.5t51.5 179.5q0 118 -51.5 180.5t-147.5 62.5t-147.5 -62.5t-51.5 -179.5q0 -118 51.5 -180.5t147.5 -62.5zM279 -13q-106 0 -164.5 69.5t-58.5 195.5q0 125 58.5 194.5t164.5 69.5t164.5 -69.5t58.5 -195.5q0 -125 -58.5 -194.5t-164.5 -69.5z
M195 601l91 145h30l-98 -145h-23zM338 601l91 145h30l-98 -145h-23z" />
    <glyph glyph-name="OE" unicode="&#x152;" horiz-adv-x="1060" 
d="M627 0v187q-30 -98 -98 -150t-165 -52q-138 0 -215 94.5t-77 265.5t77 265.5t215 94.5q97 0 165 -52.5t98 -150.5v191h375v-22h-353v-300h305v-22h-305v-327h353v-22h-375zM626 354q0 101 -31 174.5t-90 113.5t-141 40q-127 0 -197 -88t-70 -249t70 -249t197 -88
q80 0 139 38t91 111t32 176v21z" />
    <glyph glyph-name="oe" unicode="&#x153;" horiz-adv-x="898" 
d="M675 -13q-91 0 -142 39t-67 121q-14 -78 -64 -119t-131 -41q-103 0 -159 69t-56 196t56 195.5t159 68.5q77 0 128.5 -40.5t67.5 -113.5q16 72 68 114t126 42q88 0 136.5 -52t48.5 -146q0 -21 -5 -65h-361q0 -130 46.5 -188t149.5 -58q78 0 161 42v-21q-71 -43 -162 -43z
M456 253q0 241 -185 241q-93 0 -142 -62t-49 -180t49 -180.5t142 -62.5q94 0 139.5 60.5t45.5 183.5zM661 496q-86 0 -132 -56.5t-49 -163.5h342q2 16 2 44q0 83 -43.5 129.5t-119.5 46.5z" />
    <glyph glyph-name="Racute" unicode="&#x154;" horiz-adv-x="581" 
d="M94 0v693h231q89 0 143 -53t54 -141q0 -82 -46 -132.5t-132 -60.5l213 -306h-29l-210 305h-201v-305h-23zM117 327h204q81 0 128.5 46t47.5 126q0 78 -47 125t-125 47h-208v-344zM283 769l91 112h35l-100 -112h-26z" />
    <glyph glyph-name="racute" unicode="&#x155;" horiz-adv-x="324" 
d="M84 0v503h20l2 -83q33 44 71.5 65t85.5 21q25 0 41 -3v-21q-12 1 -22.5 1.5t-21.5 0.5q-48 0 -85 -21.5t-69 -67.5v-395h-22zM192 603l91 145h30l-98 -145h-23z" />
    <glyph glyph-name="uni0156" unicode="&#x156;" horiz-adv-x="581" 
d="M94 0v693h231q89 0 143 -53t54 -141q0 -82 -46 -132.5t-132 -60.5l213 -306h-29l-210 305h-201v-305h-23zM117 327h204q81 0 128.5 46t47.5 126q0 78 -47 125t-125 47h-208v-344zM261 -264l37 194h11q14 0 14 -10q0 -7 -5 -29l-36 -155h-21z" />
    <glyph glyph-name="uni0157" unicode="&#x157;" horiz-adv-x="324" 
d="M84 0v503h20l2 -83q33 44 71.5 65t85.5 21q25 0 41 -3v-21q-12 1 -22.5 1.5t-21.5 0.5q-48 0 -85 -21.5t-69 -67.5v-395h-22zM54 -264l37 194h9q14 0 14 -10q0 -7 -5 -29l-36 -155h-19z" />
    <glyph glyph-name="Rcaron" unicode="&#x158;" horiz-adv-x="581" 
d="M94 0v693h231q89 0 143 -53t54 -141q0 -82 -46 -132.5t-132 -60.5l213 -306h-29l-210 305h-201v-305h-23zM117 327h204q81 0 128.5 46t47.5 126q0 78 -47 125t-125 47h-208v-344zM289 769l-143 124h37l116 -106l116 106h37l-143 -124h-20z" />
    <glyph glyph-name="rcaron" unicode="&#x159;" horiz-adv-x="324" 
d="M84 0v503h20l2 -83q33 44 71.5 65t85.5 21q25 0 41 -3v-21q-12 1 -22.5 1.5t-21.5 0.5q-48 0 -85 -21.5t-69 -67.5v-395h-22zM351 748l-139 -145h-20l-139 145h32l117 -126l117 126h32z" />
    <glyph glyph-name="Sacute" unicode="&#x15a;" horiz-adv-x="550" 
d="M207 370q-69 26 -102.5 66t-33.5 96q0 50 24.5 90.5t70.5 64t106 23.5q45 0 93 -12t86 -33v-22q-41 21 -87.5 32.5t-90.5 11.5q-82 0 -130 -42t-48 -113q0 -49 30 -83.5t97 -60.5l147 -57q61 -23 90.5 -62t29.5 -96q0 -55 -27 -98t-77.5 -67.5t-117.5 -24.5
q-108 0 -194 47v22q93 -46 193 -46q91 0 145 45.5t54 121.5q0 50 -26.5 84t-83.5 56zM254 769l91 112h35l-100 -112h-26z" />
    <glyph glyph-name="sacute" unicode="&#x15b;" horiz-adv-x="418" 
d="M204 -13q-85 0 -154 39v21q45 -21 80 -29.5t74 -8.5q74 0 112.5 30t38.5 88q0 38 -20.5 60t-73.5 41l-87 32q-62 22 -88.5 49.5t-26.5 70.5q0 60 43 98t112 38q77 0 139 -34v-21q-75 33 -140 33q-62 0 -96.5 -30t-34.5 -83q0 -37 23 -59.5t82 -43.5l87 -31
q39 -13 61.5 -29.5t32.5 -38.5t10 -52q0 -67 -45.5 -103.5t-128.5 -36.5zM202 603l91 145h30l-98 -145h-23z" />
    <glyph glyph-name="Scircumflex" unicode="&#x15c;" horiz-adv-x="550" 
d="M207 370q-69 26 -102.5 66t-33.5 96q0 50 24.5 90.5t70.5 64t106 23.5q45 0 93 -12t86 -33v-22q-41 21 -87.5 32.5t-90.5 11.5q-82 0 -130 -42t-48 -113q0 -49 30 -83.5t97 -60.5l147 -57q61 -23 90.5 -62t29.5 -96q0 -55 -27 -98t-77.5 -67.5t-117.5 -24.5
q-108 0 -194 47v22q93 -46 193 -46q91 0 145 45.5t54 121.5q0 50 -26.5 84t-83.5 56zM423 769h-33l-120 105l-120 -105h-33l143 124h20z" />
    <glyph glyph-name="scircumflex" unicode="&#x15d;" horiz-adv-x="418" 
d="M204 -13q-85 0 -154 39v21q45 -21 80 -29.5t74 -8.5q74 0 112.5 30t38.5 88q0 38 -20.5 60t-73.5 41l-87 32q-62 22 -88.5 49.5t-26.5 70.5q0 60 43 98t112 38q77 0 139 -34v-21q-75 33 -140 33q-62 0 -96.5 -30t-34.5 -83q0 -37 23 -59.5t82 -43.5l87 -31
q39 -13 61.5 -29.5t32.5 -38.5t10 -52q0 -67 -45.5 -103.5t-128.5 -36.5zM333 603l-121 125l-121 -125h-28l139 145h20l139 -145h-28z" />
    <glyph glyph-name="Scedilla" unicode="&#x15e;" horiz-adv-x="550" 
d="M207 370q-69 26 -102.5 66t-33.5 96q0 50 24.5 90.5t70.5 64t106 23.5q45 0 93 -12t86 -33v-22q-41 21 -87.5 32.5t-90.5 11.5q-82 0 -130 -42t-48 -113q0 -49 30 -83.5t97 -60.5l147 -57q61 -23 90.5 -62t29.5 -96q0 -55 -27 -98t-77.5 -67.5t-117.5 -24.5
q-108 0 -194 47v22q93 -46 193 -46q91 0 145 45.5t54 121.5q0 50 -26.5 84t-83.5 56zM247 -69q39 0 60 -16.5t21 -45.5q0 -33 -28.5 -70t-77.5 -67l-17 13q46 29 72.5 62.5t26.5 60.5q0 20 -15.5 30.5t-43.5 10.5q-22 0 -42 -5v20q19 7 44 7z" />
    <glyph glyph-name="scedilla" unicode="&#x15f;" horiz-adv-x="418" 
d="M204 -13q-85 0 -154 39v21q45 -21 80 -29.5t74 -8.5q74 0 112.5 30t38.5 88q0 38 -20.5 60t-73.5 41l-87 32q-62 22 -88.5 49.5t-26.5 70.5q0 60 43 98t112 38q77 0 139 -34v-21q-75 33 -140 33q-62 0 -96.5 -30t-34.5 -83q0 -37 23 -59.5t82 -43.5l87 -31
q39 -13 61.5 -29.5t32.5 -38.5t10 -52q0 -67 -45.5 -103.5t-128.5 -36.5zM195 -69q39 0 60 -16.5t21 -45.5q0 -33 -28.5 -69.5t-77.5 -67.5l-17 13q46 29 73 62.5t27 60.5q0 42 -60 42q-22 0 -44 -6v19q21 8 46 8z" />
    <glyph glyph-name="Scaron" unicode="&#x160;" horiz-adv-x="550" 
d="M207 370q-69 26 -102.5 66t-33.5 96q0 50 24.5 90.5t70.5 64t106 23.5q45 0 93 -12t86 -33v-22q-41 21 -87.5 32.5t-90.5 11.5q-82 0 -130 -42t-48 -113q0 -49 30 -83.5t97 -60.5l147 -57q61 -23 90.5 -62t29.5 -96q0 -55 -27 -98t-77.5 -67.5t-117.5 -24.5
q-108 0 -194 47v22q93 -46 193 -46q91 0 145 45.5t54 121.5q0 50 -26.5 84t-83.5 56zM260 769l-143 124h37l116 -106l116 106h37l-143 -124h-20z" />
    <glyph glyph-name="scaron" unicode="&#x161;" horiz-adv-x="418" 
d="M204 -13q-85 0 -154 39v21q45 -21 80 -29.5t74 -8.5q74 0 112.5 30t38.5 88q0 38 -20.5 60t-73.5 41l-87 32q-62 22 -88.5 49.5t-26.5 70.5q0 60 43 98t112 38q77 0 139 -34v-21q-75 33 -140 33q-62 0 -96.5 -30t-34.5 -83q0 -37 23 -59.5t82 -43.5l87 -31
q39 -13 61.5 -29.5t32.5 -38.5t10 -52q0 -67 -45.5 -103.5t-128.5 -36.5zM361 748l-139 -145h-20l-139 145h32l117 -126l117 126h32z" />
    <glyph glyph-name="uni0162" unicode="&#x162;" horiz-adv-x="545" 
d="M261 0v671h-238v22h499v-22h-238v-671h-23zM257 -69q39 0 60 -16.5t21 -45.5q0 -33 -28.5 -70t-77.5 -67l-17 13q46 29 72.5 62.5t26.5 60.5q0 20 -15.5 30.5t-43.5 10.5q-22 0 -42 -5v20q19 7 44 7z" />
    <glyph glyph-name="uni0163" unicode="&#x163;" horiz-adv-x="355" 
d="M325 9q-15 -7 -40.5 -11t-50.5 -4q-109 0 -109 109v379h-101v17l101 4l4 146h18v-146h168v-21h-168v-378q0 -89 90 -89q47 0 88 13v-19zM199 -69q39 0 60 -16.5t21 -45.5q0 -33 -28.5 -69.5t-77.5 -67.5l-17 13q46 29 73 62.5t27 60.5q0 42 -60 42q-22 0 -44 -6v19
q21 8 46 8z" />
    <glyph glyph-name="Tcaron" unicode="&#x164;" horiz-adv-x="545" 
d="M261 0v671h-238v22h499v-22h-238v-671h-23zM262 769l-143 124h37l116 -106l116 106h37l-143 -124h-20z" />
    <glyph glyph-name="tcaron" unicode="&#x165;" horiz-adv-x="355" 
d="M325 9q-15 -7 -40.5 -11t-50.5 -4q-109 0 -109 109v379h-101v17l101 4l4 146h18v-146h168v-21h-168v-378q0 -89 90 -89q47 0 88 13v-19zM243 585v148q5 5 13 5t11 -5l-8 -148h-16z" />
    <glyph glyph-name="Tbar" unicode="&#x166;" horiz-adv-x="545" 
d="M261 0v339h-156v22h156v310h-238v22h499v-22h-238v-310h155v-22h-155v-339h-23z" />
    <glyph glyph-name="tbar" unicode="&#x167;" horiz-adv-x="395" 
d="M345 9q-15 -7 -40.5 -11t-50.5 -4q-109 0 -109 109v152h-101v20h101v207h-101v17l101 4l4 146h18v-146h168v-21h-168v-207h168v-20h-168v-151q0 -89 90 -89q47 0 88 13v-19z" />
    <glyph glyph-name="Utilde" unicode="&#x168;" horiz-adv-x="682" 
d="M569 693h23v-440q0 -131 -64 -199.5t-187 -68.5t-187 68.5t-64 199.5v440h23v-440q0 -120 58 -182.5t170 -62.5t170 62.5t58 182.5v440zM413 779q-21 0 -38 8.5t-36 28.5q-21 23 -36.5 32t-32.5 9q-26 0 -38.5 -15t-12.5 -47v-13h-20q-1 8 -1 18q0 35 19.5 56.5
t52.5 21.5q21 0 38 -8.5t36 -28.5q21 -23 36.5 -32t32.5 -9q26 0 38.5 15t12.5 47v13h20q1 -8 1 -18q0 -35 -19.5 -56.5t-52.5 -21.5z" />
    <glyph glyph-name="utilde" unicode="&#x169;" horiz-adv-x="544" 
d="M440 0l-2 61q-50 -36 -103.5 -55t-105.5 -19q-147 0 -147 151v365h22v-353q0 -75 30.5 -108t97.5 -33q100 0 206 74v420h22v-503h-20zM343 619q-21 0 -38 8.5t-36 28.5q-22 23 -37 32.5t-32 9.5q-26 0 -38.5 -15.5t-12.5 -47.5v-13h-20q-1 8 -1 18q0 35 19.5 56.5
t52.5 21.5q21 0 38 -8.5t36 -28.5q22 -23 37 -32.5t32 -9.5q26 0 38.5 15.5t12.5 47.5v13h20q1 -8 1 -18q0 -35 -19.5 -56.5t-52.5 -21.5z" />
    <glyph glyph-name="Umacron" unicode="&#x16a;" horiz-adv-x="682" 
d="M569 693h23v-440q0 -131 -64 -199.5t-187 -68.5t-187 68.5t-64 199.5v440h23v-440q0 -120 58 -182.5t170 -62.5t170 62.5t58 182.5v440zM194 818v21h294v-21h-294z" />
    <glyph glyph-name="umacron" unicode="&#x16b;" horiz-adv-x="544" 
d="M440 0l-2 61q-50 -36 -103.5 -55t-105.5 -19q-147 0 -147 151v365h22v-353q0 -75 30.5 -108t97.5 -33q100 0 206 74v420h22v-503h-20zM124 660v20h294v-20h-294z" />
    <glyph glyph-name="Ubreve" unicode="&#x16c;" horiz-adv-x="682" 
d="M569 693h23v-440q0 -131 -64 -199.5t-187 -68.5t-187 68.5t-64 199.5v440h23v-440q0 -120 58 -182.5t170 -62.5t170 62.5t58 182.5v440zM341 768q-54 0 -88.5 27.5t-34.5 68.5v6.5t1 7.5h22v-8q0 -36 28 -58.5t72 -22.5t72 22.5t28 58.5v8h22q1 -4 1 -7.5v-6.5
q0 -41 -34.5 -68.5t-88.5 -27.5z" />
    <glyph glyph-name="ubreve" unicode="&#x16d;" horiz-adv-x="544" 
d="M440 0l-2 61q-50 -36 -103.5 -55t-105.5 -19q-147 0 -147 151v365h22v-353q0 -75 30.5 -108t97.5 -33q100 0 206 74v420h22v-503h-20zM271 601q-57 0 -90 29t-33 80q0 15 1 21h21v-19q0 -43 27 -67t74 -24t74 24t27 67v19h21q1 -6 1 -21q0 -51 -33 -80t-90 -29z" />
    <glyph glyph-name="Uring" unicode="&#x16e;" horiz-adv-x="682" 
d="M569 693h23v-440q0 -131 -64 -199.5t-187 -68.5t-187 68.5t-64 199.5v440h23v-440q0 -120 58 -182.5t170 -62.5t170 62.5t58 182.5v440zM341 743q-42 0 -67.5 23.5t-25.5 61.5q0 39 25.5 62.5t67.5 23.5t67.5 -23.5t25.5 -62.5q0 -38 -25.5 -61.5t-67.5 -23.5zM341 763
q32 0 51.5 17.5t19.5 47.5q0 31 -19.5 48.5t-51.5 17.5t-51.5 -17.5t-19.5 -48.5q0 -30 19.5 -47.5t51.5 -17.5z" />
    <glyph glyph-name="uring" unicode="&#x16f;" horiz-adv-x="544" 
d="M440 0l-2 61q-50 -36 -103.5 -55t-105.5 -19q-147 0 -147 151v365h22v-353q0 -75 30.5 -108t97.5 -33q100 0 206 74v420h22v-503h-20zM271 584q-42 0 -69 25.5t-27 67.5q0 41 27 67t69 26t69 -25.5t27 -67.5q0 -41 -27 -67t-69 -26zM271 604q34 0 54 20t20 53t-20 53
t-54 20t-54 -20t-20 -53t20 -53t54 -20z" />
    <glyph glyph-name="Uhungarumlaut" unicode="&#x170;" horiz-adv-x="682" 
d="M569 693h23v-440q0 -131 -64 -199.5t-187 -68.5t-187 68.5t-64 199.5v440h23v-440q0 -120 58 -182.5t170 -62.5t170 62.5t58 182.5v440zM246 769l93 112h32l-100 -112h-25zM413 769l93 112h32l-100 -112h-25z" />
    <glyph glyph-name="uhungarumlaut" unicode="&#x171;" horiz-adv-x="544" 
d="M440 0l-2 61q-50 -36 -103.5 -55t-105.5 -19q-147 0 -147 151v365h22v-353q0 -75 30.5 -108t97.5 -33q100 0 206 74v420h22v-503h-20zM187 601l91 145h30l-98 -145h-23zM330 601l91 145h30l-98 -145h-23z" />
    <glyph glyph-name="Uogonek" unicode="&#x172;" horiz-adv-x="682" 
d="M346 -128q0 -34 16 -48.5t51 -14.5q21 0 47 8v-20q-21 -10 -51 -10q-42 0 -64.5 21t-22.5 59q0 37 20.5 70.5t54.5 52.5q-28 -5 -56 -5q-123 0 -187 68.5t-64 199.5v440h23v-440q0 -120 58 -182.5t170 -62.5t170 62.5t58 182.5v440h23v-440q0 -190 -133 -247
q-53 -22 -83 -57t-30 -77z" />
    <glyph glyph-name="uogonek" unicode="&#x173;" horiz-adv-x="544" 
d="M487 -203q-23 -10 -51 -10q-41 0 -63 20t-22 56q0 39 23.5 77.5t65.5 66.5l-2 54q-50 -36 -103.5 -55t-105.5 -19q-147 0 -147 151v365h22v-353q0 -75 30.5 -108t97.5 -33q100 0 206 74v420h22v-503q-42 -30 -64 -64.5t-22 -71.5q0 -56 66 -56q23 0 47 8v-19z" />
    <glyph glyph-name="Wcircumflex" unicode="&#x174;" horiz-adv-x="894" 
d="M616 0l-172 639l-170 -639h-26l-223 693h24l211 -662l171 637h28l171 -640l215 665h24l-227 -693h-26zM600 769h-33l-120 105l-120 -105h-33l143 124h20z" />
    <glyph glyph-name="wcircumflex" unicode="&#x175;" horiz-adv-x="728" 
d="M508 0l-147 472l-144 -472h-25l-176 503h25l164 -477l143 477h26l147 -479l167 479h24l-179 -503h-25zM482 603l-121 125l-121 -125h-28l139 145h20l139 -145h-28z" />
    <glyph glyph-name="Ycircumflex" unicode="&#x176;" horiz-adv-x="565" 
d="M269 0v253l-246 440h26l233 -418l234 418h26l-250 -442v-251h-23zM435 769h-33l-120 105l-120 -105h-33l143 124h20z" />
    <glyph glyph-name="ycircumflex" unicode="&#x177;" horiz-adv-x="471" 
d="M207 -100q-28 -67 -56.5 -92.5t-69.5 -25.5q-30 0 -55 11v18q29 -8 52 -8q36 0 59.5 23t48.5 83l38 91l-210 503h26l196 -476l196 476h25zM356 603l-121 125l-121 -125h-28l139 145h20l139 -145h-28z" />
    <glyph glyph-name="Ydieresis" unicode="&#x178;" horiz-adv-x="565" 
d="M269 0v253l-246 440h26l233 -418l234 418h26l-250 -442v-251h-23zM180 802q-22 0 -22 24t22 24t22 -24t-22 -24zM384 802q-22 0 -22 24t22 24t22 -24t-22 -24z" />
    <glyph glyph-name="Zacute" unicode="&#x179;" horiz-adv-x="557" 
d="M52 0v20l423 651h-395v22h423v-20l-423 -651h425v-22h-453zM275 769l91 112h35l-100 -112h-26z" />
    <glyph glyph-name="zacute" unicode="&#x17a;" horiz-adv-x="457" 
d="M48 0v18l326 464h-316v21h345v-18l-326 -464h332v-21h-361zM220 603l91 145h30l-98 -145h-23z" />
    <glyph glyph-name="Zdotaccent" unicode="&#x17b;" horiz-adv-x="557" 
d="M52 0v20l423 651h-395v22h423v-20l-423 -651h425v-22h-453zM291 802q-11 0 -17 6.5t-6 17.5t6 17.5t17 6.5t17 -6.5t6 -17.5t-6 -17.5t-17 -6.5z" />
    <glyph glyph-name="zdotaccent" unicode="&#x17c;" horiz-adv-x="457" 
d="M48 0v18l326 464h-316v21h345v-18l-326 -464h332v-21h-361zM230 630q-10 0 -16 6.5t-6 16.5t6 16.5t16 6.5t16 -6.5t6 -16.5t-6 -16.5t-16 -6.5z" />
    <glyph glyph-name="Zcaron" unicode="&#x17d;" horiz-adv-x="557" 
d="M52 0v20l423 651h-395v22h423v-20l-423 -651h425v-22h-453zM281 769l-143 124h37l116 -106l116 106h37l-143 -124h-20z" />
    <glyph glyph-name="zcaron" unicode="&#x17e;" horiz-adv-x="457" 
d="M48 0v18l326 464h-316v21h345v-18l-326 -464h332v-21h-361zM379 748l-139 -145h-20l-139 145h32l117 -126l117 126h32z" />
    <glyph glyph-name="longs" unicode="&#x17f;" horiz-adv-x="194" 
d="M84 0v637q0 56 30 86.5t86 30.5q20 0 44.5 -4.5t43.5 -12.5v-19q-46 15 -89 15q-93 0 -93 -94v-639h-22z" />
    <glyph glyph-name="florin" unicode="&#x192;" horiz-adv-x="343" 
d="M155 -101q0 -56 -30 -86.5t-86 -30.5q-41 0 -74 13v20q35 -12 75 -12q93 0 93 94v585h-105v17l105 4v134q0 56 30 86.5t86 30.5q20 0 44.5 -4.5t43.5 -12.5v-19q-46 15 -89 15q-93 0 -93 -94v-136h174v-21h-174v-583z" />
    <glyph glyph-name="uni01D3" unicode="&#x1d3;" horiz-adv-x="682" 
d="M569 693h23v-440q0 -131 -64 -199.5t-187 -68.5t-187 68.5t-64 199.5v440h23v-440q0 -120 58 -182.5t170 -62.5t170 62.5t58 182.5v440zM331 769l-143 124h37l116 -106l116 106h37l-143 -124h-20z" />
    <glyph glyph-name="uni01D4" unicode="&#x1d4;" horiz-adv-x="544" 
d="M440 0l-2 61q-50 -36 -103.5 -55t-105.5 -19q-147 0 -147 151v365h22v-353q0 -75 30.5 -108t97.5 -33q100 0 206 74v420h22v-503h-20zM420 748l-139 -145h-20l-139 145h32l117 -126l117 126h32z" />
    <glyph glyph-name="Aringacute" unicode="&#x1fa;" horiz-adv-x="610" 
d="M565 0l-91 229h-337l-93 -229h-25l263 640q-33 6 -52 28.5t-19 55.5q0 39 25.5 62.5t67.5 23.5t67.5 -23.5t25.5 -62.5q0 -33 -19 -55t-51 -28l264 -641h-26zM146 251h319l-161 387zM304 659q32 0 51.5 17.5t19.5 47.5q0 31 -19.5 48.5t-51.5 17.5t-51.5 -17.5
t-19.5 -48.5q0 -30 19.5 -47.5t51.5 -17.5zM288 851l91 112h32l-98 -112h-25z" />
    <glyph glyph-name="aringacute" unicode="&#x1fb;" horiz-adv-x="497" 
d="M395 0l-2 65q-44 -36 -94.5 -55t-101.5 -19q-67 0 -107 38t-40 102q0 71 48.5 112.5t132.5 41.5q36 0 81.5 -8t80.5 -20v112q0 64 -35 94.5t-108 30.5q-83 0 -168 -34v21q38 17 82.5 26t86.5 9q164 0 164 -140v-376h-20zM197 13q106 0 196 76v147q-81 27 -162 27
q-74 0 -115.5 -35t-41.5 -97q0 -53 33.5 -85.5t89.5 -32.5zM240 586q-42 0 -67.5 23t-25.5 62t25.5 62t67.5 23t67.5 -23t25.5 -62t-25.5 -62t-67.5 -23zM240 606q33 0 52 17.5t19 47.5t-19 47.5t-52 17.5t-52 -17.5t-19 -47.5t19 -47.5t52 -17.5zM223 802l91 112h32
l-98 -112h-25z" />
    <glyph glyph-name="AEacute" unicode="&#x1fc;" horiz-adv-x="921" 
d="M473 0v270h-262l-168 -270h-26l432 693h414v-22h-367v-300h320v-22h-320v-327h367v-22h-390zM224 292h249v379h-12zM640 769l91 112h35l-100 -112h-26z" />
    <glyph glyph-name="aeacute" unicode="&#x1fd;" horiz-adv-x="834" 
d="M412 249q0 -124 48 -182t152 -58q77 0 161 42v-21q-33 -20 -75.5 -31.5t-85.5 -11.5q-143 0 -193 105q-56 -52 -110.5 -76.5t-112.5 -24.5q-66 0 -106 39.5t-40 105.5q0 73 50.5 113t143.5 40q79 0 145 -19v88q0 72 -32.5 103.5t-105.5 31.5q-88 0 -169 -34v21
q79 35 169 35q77 0 115.5 -31t42.5 -98q22 64 72 98t123 34q85 0 131.5 -52t46.5 -146q0 -21 -5 -71h-365zM199 13q52 0 106 24.5t106 71.5q-22 60 -22 139q-66 19 -145 19q-170 0 -170 -131q0 -57 33.5 -90t91.5 -33zM604 496q-188 0 -192 -226h346q2 11 2 50
q0 83 -41.5 129.5t-114.5 46.5zM404 603l91 145h30l-98 -145h-23z" />
    <glyph glyph-name="Oslashacute" unicode="&#x1fe;" horiz-adv-x="758" 
d="M82 -9l71 89q-81 93 -81 265q0 171 80.5 265.5t226.5 94.5q132 0 211 -79l70 87l17 -13l-72 -90q81 -93 81 -265q0 -171 -80.5 -265.5t-226.5 -94.5q-132 0 -211 79l-69 -86zM661 345q0 158 -71 246l-407 -508q72 -75 196 -75q135 0 208.5 87.5t73.5 249.5zM97 345
q0 -158 71 -246l407 508q-72 75 -196 75q-135 0 -208.5 -87.5t-73.5 -249.5zM363 769l91 112h35l-100 -112h-26z" />
    <glyph glyph-name="oslashacute" unicode="&#x1ff;" horiz-adv-x="558" 
d="M61 -4l51 63q-56 68 -56 193t58.5 194.5t164.5 69.5q93 0 152 -57l47 59l16 -14l-49 -60q57 -69 57 -193q0 -125 -58.5 -194.5t-164.5 -69.5q-97 0 -153 56l-50 -62zM279 9q96 0 147.5 62.5t51.5 179.5q0 112 -47 174l-291 -364q52 -52 139 -52zM80 252q0 -111 46 -174
l291 364q-52 52 -138 52q-96 0 -147.5 -62.5t-51.5 -179.5zM269 603l91 145h30l-98 -145h-23z" />
    <glyph glyph-name="uni0218" unicode="&#x218;" horiz-adv-x="550" 
d="M207 370q-69 26 -102.5 66t-33.5 96q0 50 24.5 90.5t70.5 64t106 23.5q45 0 93 -12t86 -33v-22q-41 21 -87.5 32.5t-90.5 11.5q-82 0 -130 -42t-48 -113q0 -49 30 -83.5t97 -60.5l147 -57q61 -23 90.5 -62t29.5 -96q0 -55 -27 -98t-77.5 -67.5t-117.5 -24.5
q-108 0 -194 47v22q93 -46 193 -46q91 0 145 45.5t54 121.5q0 50 -26.5 84t-83.5 56zM220 -264l37 194h11q14 0 14 -10q0 -7 -5 -29l-36 -155h-21z" />
    <glyph glyph-name="uni0219" unicode="&#x219;" horiz-adv-x="418" 
d="M204 -13q-85 0 -154 39v21q45 -21 80 -29.5t74 -8.5q74 0 112.5 30t38.5 88q0 38 -20.5 60t-73.5 41l-87 32q-62 22 -88.5 49.5t-26.5 70.5q0 60 43 98t112 38q77 0 139 -34v-21q-75 33 -140 33q-62 0 -96.5 -30t-34.5 -83q0 -37 23 -59.5t82 -43.5l87 -31
q39 -13 61.5 -29.5t32.5 -38.5t10 -52q0 -67 -45.5 -103.5t-128.5 -36.5zM181 -264l37 194h9q14 0 14 -10q0 -7 -5 -29l-36 -155h-19z" />
    <glyph glyph-name="uni021A" unicode="&#x21a;" horiz-adv-x="545" 
d="M261 0v671h-238v22h499v-22h-238v-671h-23zM230 -264l37 194h11q14 0 14 -10q0 -7 -5 -29l-36 -155h-21z" />
    <glyph glyph-name="uni021B" unicode="&#x21b;" horiz-adv-x="355" 
d="M325 9q-15 -7 -40.5 -11t-50.5 -4q-109 0 -109 109v379h-101v17l101 4l4 146h18v-146h168v-21h-168v-378q0 -89 90 -89q47 0 88 13v-19zM185 -264l37 194h9q14 0 14 -10q0 -7 -5 -29l-36 -155h-19z" />
    <glyph glyph-name="uni0237" unicode="&#x237;" horiz-adv-x="198" 
d="M110 -136q0 -82 -80 -82q-29 0 -59 10v19q29 -8 59 -8q58 0 58 61v639h22v-639z" />
    <glyph glyph-name="uni02B9" unicode="&#x2b9;" horiz-adv-x="210" 
d="M81 478h-17l76 216q6 3 14 3t12 -3z" />
    <glyph glyph-name="uni02BA" unicode="&#x2ba;" horiz-adv-x="309" 
d="M81 478h-17l76 216q6 3 14 3t12 -3zM180 478h-17l76 216q6 3 14 3t12 -3z" />
    <glyph glyph-name="uni02BB" unicode="&#x2bb;" horiz-adv-x="192" 
d="M141 684q-41 -59 -49 -125q-3 -24 -3 -59h-12q-14 0 -14 14q2 102 64 180z" />
    <glyph glyph-name="uni02BC" unicode="&#x2bc;" horiz-adv-x="192" 
d="M51 509q41 59 49 125q3 24 3 59h12q14 0 14 -14q-2 -102 -64 -180z" />
    <glyph glyph-name="circumflex" unicode="&#x2c6;" horiz-adv-x="556" 
d="M399 603l-121 125l-121 -125h-28l139 145h20l139 -145h-28z" />
    <glyph glyph-name="caron" unicode="&#x2c7;" horiz-adv-x="556" 
d="M427 748l-139 -145h-20l-139 145h32l117 -126l117 126h32z" />
    <glyph glyph-name="uni02C9" unicode="&#x2c9;" horiz-adv-x="556" 
d="M131 660v20h294v-20h-294z" />
    <glyph glyph-name="uni02CA" unicode="&#x2ca;" horiz-adv-x="556" 
d="M271 603l91 145h30l-98 -145h-23z" />
    <glyph glyph-name="uni02CB" unicode="&#x2cb;" horiz-adv-x="556" 
d="M262 603l-98 145h30l91 -145h-23z" />
    <glyph glyph-name="breve" unicode="&#x2d8;" horiz-adv-x="556" 
d="M278 601q-57 0 -90 29t-33 80q0 15 1 21h21v-19q0 -43 27 -67t74 -24t74 24t27 67v19h21q1 -6 1 -21q0 -51 -33 -80t-90 -29z" />
    <glyph glyph-name="dotaccent" unicode="&#x2d9;" horiz-adv-x="556" 
d="M278 630q-10 0 -16 6.5t-6 16.5t6 16.5t16 6.5t16 -6.5t6 -16.5t-6 -16.5t-16 -6.5z" />
    <glyph glyph-name="ring" unicode="&#x2da;" horiz-adv-x="556" 
d="M278 584q-42 0 -69 25.5t-27 67.5q0 41 27 67t69 26t69 -25.5t27 -67.5q0 -41 -27 -67t-69 -26zM278 604q34 0 54 20t20 53t-20 53t-54 20t-54 -20t-20 -53t20 -53t54 -20z" />
    <glyph glyph-name="ogonek" unicode="&#x2db;" horiz-adv-x="556" 
d="M339 -203q-23 -10 -51 -10q-41 0 -63 20t-22 56q0 39 23.5 77.5t65.5 66.5l20 -7q-42 -30 -64 -64.5t-22 -71.5q0 -56 66 -56q23 0 47 8v-19z" />
    <glyph glyph-name="tilde" unicode="&#x2dc;" horiz-adv-x="556" 
d="M350 619q-21 0 -38 8.5t-36 28.5q-22 23 -37 32.5t-32 9.5q-26 0 -38.5 -15.5t-12.5 -47.5v-13h-20q-1 8 -1 18q0 35 19.5 56.5t52.5 21.5q21 0 38 -8.5t36 -28.5q22 -23 37 -32.5t32 -9.5q26 0 38.5 15.5t12.5 47.5v13h20q1 -8 1 -18q0 -35 -19.5 -56.5t-52.5 -21.5z
" />
    <glyph glyph-name="hungarumlaut" unicode="&#x2dd;" horiz-adv-x="556" 
d="M146 601l91 145h30l-98 -145h-23zM289 601l91 145h30l-98 -145h-23z" />
    <glyph glyph-name="gravecomb" unicode="&#x300;" horiz-adv-x="0" 
d="M-13 603l-98 145h30l91 -145h-23z" />
    <glyph glyph-name="acutecomb" unicode="&#x301;" horiz-adv-x="0" 
d="M-10 603l91 145h30l-98 -145h-23z" />
    <glyph glyph-name="uni0302" unicode="&#x302;" horiz-adv-x="0" 
d="M121 603l-121 125l-121 -125h-28l139 145h20l139 -145h-28z" />
    <glyph glyph-name="tildecomb" unicode="&#x303;" horiz-adv-x="0" 
d="M72 619q-21 0 -38 8.5t-36 28.5q-22 23 -37 32.5t-32 9.5q-26 0 -38.5 -15.5t-12.5 -47.5v-13h-20q-1 8 -1 18q0 35 19.5 56.5t52.5 21.5q21 0 38 -8.5t36 -28.5q22 -23 37 -32.5t32 -9.5q26 0 38.5 15.5t12.5 47.5v13h20q1 -8 1 -18q0 -35 -19.5 -56.5t-52.5 -21.5z" />
    <glyph glyph-name="uni0304" unicode="&#x304;" horiz-adv-x="0" 
d="M-147 660v20h294v-20h-294z" />
    <glyph glyph-name="uni0306" unicode="&#x306;" horiz-adv-x="0" 
d="M0 601q-57 0 -90 29t-33 80q0 15 1 21h21v-19q0 -43 27 -67t74 -24t74 24t27 67v19h21q1 -6 1 -21q0 -51 -33 -80t-90 -29z" />
    <glyph glyph-name="uni0307" unicode="&#x307;" horiz-adv-x="0" 
d="M0 630q-10 0 -16 6.5t-6 16.5t6 16.5t16 6.5t16 -6.5t6 -16.5t-6 -16.5t-16 -6.5z" />
    <glyph glyph-name="uni0308" unicode="&#x308;" horiz-adv-x="0" 
d="M-103 631q-9 0 -15 6t-6 17q0 10 5.5 16t15.5 6t15.5 -6t5.5 -16q0 -11 -6 -17t-15 -6zM103 631q-9 0 -15 6t-6 17q0 10 5.5 16t15.5 6t15.5 -6t5.5 -16q0 -11 -6 -17t-15 -6z" />
    <glyph glyph-name="uni030A" unicode="&#x30a;" horiz-adv-x="0" 
d="M0 584q-42 0 -69 25.5t-27 67.5q0 41 27 67t69 26t69 -25.5t27 -67.5q0 -41 -27 -67t-69 -26zM0 604q34 0 54 20t20 53t-20 53t-54 20t-54 -20t-20 -53t20 -53t54 -20z" />
    <glyph glyph-name="uni030B" unicode="&#x30b;" horiz-adv-x="0" 
d="M-84 601l91 145h30l-98 -145h-23zM59 601l91 145h30l-98 -145h-23z" />
    <glyph glyph-name="uni030C" unicode="&#x30c;" horiz-adv-x="0" 
d="M149 748l-139 -145h-20l-139 145h32l117 -126l117 126h32z" />
    <glyph glyph-name="uni0312" unicode="&#x312;" horiz-adv-x="0" 
d="M45 789l-38 -201h-9q-14 0 -14 10q0 7 5 29l37 162h19z" />
    <glyph glyph-name="uni0315" unicode="&#x315;" horiz-adv-x="0" 
d="M-10 559v188q5 5 12 5q8 0 12 -5l-8 -188h-16z" />
    <glyph glyph-name="uni0326" unicode="&#x326;" horiz-adv-x="0" 
d="M-41 -264l37 194h9q14 0 14 -10q0 -7 -5 -29l-36 -155h-19z" />
    <glyph glyph-name="uni0327" unicode="&#x327;" horiz-adv-x="0" 
d="M-27 -69q39 0 60 -16.5t21 -45.5q0 -33 -28.5 -69.5t-77.5 -67.5l-17 13q46 29 73 62.5t27 60.5q0 42 -60 42q-22 0 -44 -6v19q21 8 46 8z" />
    <glyph glyph-name="uni0328" unicode="&#x328;" horiz-adv-x="0" 
d="M27 -203q-23 -10 -51 -10q-41 0 -63 20t-22 56q0 39 23.5 77.5t65.5 66.5l20 -7q-42 -30 -64 -64.5t-22 -71.5q0 -56 66 -56q23 0 47 8v-19z" />
    <glyph glyph-name="uni0344" unicode="&#x344;" horiz-adv-x="0" 
d="M46 835h28l-65 -147h-20zM-103 631q-9 0 -15 6t-6 17q0 10 5.5 16t15.5 6t15.5 -6t5.5 -16q0 -11 -6 -17t-15 -6zM103 631q-9 0 -15 6t-6 17q0 10 5.5 16t15.5 6t15.5 -6t5.5 -16q0 -11 -6 -17t-15 -6z" />
    <glyph glyph-name="uni0374" unicode="&#x374;" horiz-adv-x="210" 
d="M81 478h-17l76 216q6 3 14 3t12 -3z" />
    <glyph glyph-name="uni0375" unicode="&#x375;" horiz-adv-x="210" 
d="M81 -217h-17l76 217q6 3 14 3t12 -3z" />
    <glyph glyph-name="uni037E" unicode="&#x37e;" horiz-adv-x="192" 
d="M61 -142h-18l39 197h13q12 0 12 -10q0 -7 -4 -22zM96 459q-11 0 -17 6.5t-6 17.5t6 17.5t17 6.5t17 -6.5t6 -17.5t-6 -17.5t-17 -6.5z" />
    <glyph glyph-name="tonos" unicode="&#x384;" horiz-adv-x="556" 
d="M316 760h28l-69 -157h-21z" />
    <glyph glyph-name="dieresistonos" unicode="&#x385;" horiz-adv-x="556" 
d="M324 835h28l-65 -147h-20zM175 631q-9 0 -15 6t-6 17q0 10 5.5 16t15.5 6t15.5 -6t5.5 -16q0 -11 -6 -17t-15 -6zM381 631q-9 0 -15 6t-6 17q0 10 5.5 16t15.5 6t15.5 -6t5.5 -16q0 -11 -6 -17t-15 -6z" />
    <glyph glyph-name="Alphatonos" unicode="&#x386;" horiz-adv-x="568" 
d="M524 0l-91 229h-340l-90 -229h-25l275 693h22l275 -693h-26zM101 251h323l-161 410zM77 693h29l-71 -157h-22z" />
    <glyph glyph-name="anoteleia" unicode="&#x387;" horiz-adv-x="192" 
d="M96 459q-11 0 -17 6.5t-6 17.5t6 17.5t17 6.5t17 -6.5t6 -17.5t-6 -17.5t-17 -6.5z" />
    <glyph glyph-name="Epsilontonos" unicode="&#x388;" horiz-adv-x="623" 
d="M175 0v693h390v-22h-367v-300h320v-22h-320v-327h367v-22h-390zM81 693h29l-71 -157h-22z" />
    <glyph glyph-name="Etatonos" unicode="&#x389;" horiz-adv-x="775" 
d="M658 0v344h-460v-344h-23v693h23v-327h460v327h23v-693h-23zM81 693h29l-71 -157h-22z" />
    <glyph glyph-name="Iotatonos" unicode="&#x38a;" horiz-adv-x="333" 
d="M175 0v693h23v-693h-23zM81 693h29l-71 -157h-22z" />
    <glyph glyph-name="Omicrontonos" unicode="&#x38c;" horiz-adv-x="807" 
d="M735 345q0 -171 -80.5 -265.5t-226.5 -94.5t-226.5 94.5t-80.5 265.5t80.5 265.5t226.5 94.5t226.5 -94.5t80.5 -265.5zM710 345q0 162 -73.5 249.5t-208.5 87.5t-208.5 -87.5t-73.5 -249.5t73.5 -249.5t208.5 -87.5t208.5 87.5t73.5 249.5zM81 693h29l-71 -157h-22z" />
    <glyph glyph-name="Upsilontonos" unicode="&#x38e;" horiz-adv-x="704" 
d="M408 0v253l-246 440h26l233 -418l234 418h26l-250 -442v-251h-23zM81 693h29l-71 -157h-22z" />
    <glyph glyph-name="Omegatonos" unicode="&#x38f;" horiz-adv-x="803" 
d="M430 682q-135 0 -205.5 -80t-70.5 -235q0 -115 48.5 -206t135.5 -139v-22h-231v22h192q-81 54 -125.5 144.5t-44.5 200.5q0 163 77.5 250.5t223.5 87.5t223.5 -87.5t77.5 -250.5q0 -110 -44.5 -200t-126.5 -145h193v-22h-231v22q87 48 135.5 139t48.5 206
q0 155 -70.5 235t-205.5 80zM81 693h29l-71 -157h-22z" />
    <glyph glyph-name="iotadieresistonos" unicode="&#x390;" horiz-adv-x="219" 
d="M197 5q-21 -7 -49 -7q-67 0 -67 66v439h22v-439q0 -23 12 -34t37 -11q20 0 45 5v-19zM138 835h28l-65 -147h-20zM-11 631q-9 0 -15 6t-6 17q0 10 5.5 16t15.5 6t15.5 -6t5.5 -16q0 -11 -6 -17t-15 -6zM195 631q-9 0 -15 6t-6 17q0 10 5.5 16t15.5 6t15.5 -6t5.5 -16
q0 -11 -6 -17t-15 -6z" />
    <glyph glyph-name="Alpha" unicode="&#x391;" horiz-adv-x="610" 
d="M565 0l-91 229h-340l-90 -229h-25l275 693h22l275 -693h-26zM142 251h323l-161 410z" />
    <glyph glyph-name="Beta" unicode="&#x392;" horiz-adv-x="588" 
d="M94 0v693h193q91 0 145 -48t54 -129q0 -90 -63 -134q-25 -18 -56 -25q77 -8 120.5 -52.5t43.5 -115.5q0 -86 -53.5 -137.5t-141.5 -51.5h-242zM117 344v-322h218q78 0 124.5 45.5t46.5 121.5q0 72 -50 113.5t-136 41.5h-203zM117 671v-305h195q67 0 108 41t41 109
q0 70 -47.5 112.5t-126.5 42.5h-170z" />
    <glyph glyph-name="Gamma" unicode="&#x393;" horiz-adv-x="471" 
d="M94 0v693h356v-22h-333v-671h-23z" />
    <glyph glyph-name="uni0394" unicode="&#x394;" horiz-adv-x="608" 
d="M315 693l262 -669v-24h-546v24l262 669h22zM55 22h497l-248 640z" />
    <glyph glyph-name="Epsilon" unicode="&#x395;" horiz-adv-x="542" 
d="M94 0v693h390v-22h-367v-300h320v-22h-320v-327h367v-22h-390z" />
    <glyph glyph-name="Zeta" unicode="&#x396;" horiz-adv-x="557" 
d="M52 0v20l423 651h-395v22h423v-20l-423 -651h425v-22h-453z" />
    <glyph glyph-name="Eta" unicode="&#x397;" horiz-adv-x="694" 
d="M577 0v344h-460v-344h-23v693h23v-327h460v327h23v-693h-23z" />
    <glyph glyph-name="Theta" unicode="&#x398;" horiz-adv-x="758" 
d="M198 340v21h362v-21h-362zM686 345q0 -171 -80.5 -265.5t-226.5 -94.5t-226.5 94.5t-80.5 265.5t80.5 265.5t226.5 94.5t226.5 -94.5t80.5 -265.5zM661 345q0 162 -73.5 249.5t-208.5 87.5t-208.5 -87.5t-73.5 -249.5t73.5 -249.5t208.5 -87.5t208.5 87.5t73.5 249.5z
" />
    <glyph glyph-name="Iota" unicode="&#x399;" horiz-adv-x="219" 
d="M98 0v693h23v-693h-23z" />
    <glyph glyph-name="Kappa" unicode="&#x39a;" horiz-adv-x="534" 
d="M94 0v693h23v-337l353 337h30l-359 -344l389 -349h-33l-380 340v-340h-23z" />
    <glyph glyph-name="Lambda" unicode="&#x39b;" horiz-adv-x="593" 
d="M548 0l-254 660l-250 -660h-25l265 693h22l268 -693h-26z" />
    <glyph glyph-name="Mu" unicode="&#x39c;" horiz-adv-x="800" 
d="M117 652v-652h-23v693h26l281 -477l280 477h25v-693h-23v653l-272 -462h-22z" />
    <glyph glyph-name="Nu" unicode="&#x39d;" horiz-adv-x="687" 
d="M117 657v-657h-23v693h25l451 -657v657h23v-693h-25z" />
    <glyph glyph-name="Xi" unicode="&#x39e;" horiz-adv-x="562" 
d="M52 0v22h458v-22h-458zM107 349v22h348v-22h-348zM65 671v22h432v-22h-432z" />
    <glyph glyph-name="Omicron" unicode="&#x39f;" horiz-adv-x="758" 
d="M686 345q0 -171 -80.5 -265.5t-226.5 -94.5t-226.5 94.5t-80.5 265.5t80.5 265.5t226.5 94.5t226.5 -94.5t80.5 -265.5zM661 345q0 162 -73.5 249.5t-208.5 87.5t-208.5 -87.5t-73.5 -249.5t73.5 -249.5t208.5 -87.5t208.5 87.5t73.5 249.5z" />
    <glyph glyph-name="Pi" unicode="&#x3a0;" horiz-adv-x="663" 
d="M546 0v671h-429v-671h-23v693h475v-693h-23z" />
    <glyph glyph-name="Rho" unicode="&#x3a1;" horiz-adv-x="572" 
d="M117 297v-297h-23v693h229q90 0 143.5 -54t53.5 -144t-53.5 -144t-143.5 -54h-206zM117 319h206q81 0 126.5 46.5t45.5 129.5t-45.5 129.5t-126.5 46.5h-206v-352z" />
    <glyph glyph-name="Sigma" unicode="&#x3a3;" horiz-adv-x="565" 
d="M81 22h451v-22h-479v22l261 332l-250 317v22h459v-22h-430l250 -316z" />
    <glyph glyph-name="Tau" unicode="&#x3a4;" horiz-adv-x="545" 
d="M261 0v671h-238v22h499v-22h-238v-671h-23z" />
    <glyph glyph-name="Upsilon" unicode="&#x3a5;" horiz-adv-x="565" 
d="M269 0v253l-246 440h26l233 -418l234 418h26l-250 -442v-251h-23z" />
    <glyph glyph-name="Phi" unicode="&#x3a6;" horiz-adv-x="804" 
d="M391 -30v85q-104 1 -177 35t-111.5 99t-38.5 158q0 92 37.5 157t111 99.5t178.5 35.5v84h22v-84q104 -1 177 -35t111.5 -99t38.5 -158q0 -92 -37.5 -157t-111 -99.5t-178.5 -35.5v-85h-22zM391 618q-302 -8 -302 -271t302 -271v542zM715 347q0 263 -302 271v-542
q302 8 302 271z" />
    <glyph glyph-name="Chi" unicode="&#x3a7;" horiz-adv-x="567" 
d="M300 357l250 -357h-28l-239 339l-239 -339h-27l251 357l-235 336h28l224 -318l222 318h27z" />
    <glyph glyph-name="Psi" unicode="&#x3a8;" horiz-adv-x="782" 
d="M380 187q-142 2 -221.5 76.5t-79.5 206.5v223h22v-217q0 -128 72 -197t207 -70v484h22v-484q135 1 207 70t72 197v217h22v-223q0 -132 -79.5 -206.5t-221.5 -76.5v-187h-22v187z" />
    <glyph glyph-name="uni03A9" unicode="&#x3a9;" horiz-adv-x="746" 
d="M373 682q-135 0 -205.5 -80t-70.5 -235q0 -115 48.5 -206t135.5 -139v-22h-231v22h192q-81 54 -125.5 144.5t-44.5 200.5q0 163 77.5 250.5t223.5 87.5t223.5 -87.5t77.5 -250.5q0 -110 -44.5 -200t-126.5 -145h193v-22h-231v22q87 48 135.5 139t48.5 206
q0 155 -70.5 235t-205.5 80z" />
    <glyph glyph-name="Iotadieresis" unicode="&#x3aa;" horiz-adv-x="219" 
d="M98 0v693h23v-693h-23zM7 802q-22 0 -22 24t22 24t22 -24t-22 -24zM211 802q-22 0 -22 24t22 24t22 -24t-22 -24z" />
    <glyph glyph-name="Upsilondieresis" unicode="&#x3ab;" horiz-adv-x="565" 
d="M269 0v253l-246 440h26l233 -418l234 418h26l-250 -442v-251h-23zM180 802q-22 0 -22 24t22 24t22 -24t-22 -24zM384 802q-22 0 -22 24t22 24t22 -24t-22 -24z" />
    <glyph glyph-name="alphatonos" unicode="&#x3ac;" horiz-adv-x="572" 
d="M555 3q-13 -5 -35 -5q-24 0 -41 10q-25 15 -35 50.5t-10 111.5q-20 -88 -70 -136.5t-120 -48.5q-54 0 -96.5 31t-67 89t-24.5 136t24.5 140t70.5 98.5t106 36.5q68 0 115 -50t69 -147q6 54 33 184h22l-13 -68q-28 -145 -28 -266q0 -67 9 -100t30 -44q7 -4 13.5 -5
t19.5 -1q12 0 28 3v-19zM244 7q79 0 128 67t65 197q-27 117 -70 170t-109 53q-51 0 -91.5 -30.5t-63.5 -88t-23 -134.5q0 -106 45 -170t119 -64zM319 760h28l-69 -157h-21z" />
    <glyph glyph-name="epsilontonos" unicode="&#x3ad;" horiz-adv-x="452" 
d="M337 256h-111q-68 0 -107 -32.5t-39 -87.5q0 -61 44.5 -94t126.5 -33q90 0 161 32v-21q-69 -33 -161 -33t-143.5 39t-51.5 110q0 52 31 87t84 46q-49 11 -75 39t-26 69q0 66 47.5 102.5t132.5 36.5q80 0 145 -31v-21q-66 30 -145 30q-75 0 -115.5 -30t-40.5 -87
q0 -48 43.5 -74t123.5 -26h76v-21zM296 760h28l-69 -157h-21z" />
    <glyph glyph-name="etatonos" unicode="&#x3ae;" horiz-adv-x="571" 
d="M57 509q31 0 47.5 -17.5t17.5 -50.5q51 36 108 55.5t113 19.5q71 0 109 -38t38 -111v-573h-22v566q0 134 -128 134q-53 0 -110.5 -20t-107.5 -55v-419h-22v440q0 25 -11 36.5t-36 11.5q-14 0 -30 -4v19q17 6 34 6zM335 760h28l-69 -157h-21z" />
    <glyph glyph-name="iotatonos" unicode="&#x3af;" horiz-adv-x="219" 
d="M197 5q-21 -7 -49 -7q-67 0 -67 66v439h22v-439q0 -23 12 -34t37 -11q20 0 45 5v-19zM144 760h28l-69 -157h-21z" />
    <glyph glyph-name="upsilondieresistonos" unicode="&#x3b0;" horiz-adv-x="532" 
d="M116 209q0 -97 40.5 -148.5t116.5 -51.5q86 0 132 63.5t46 177.5q0 67 -15 134t-41 119h25q25 -53 39.5 -118.5t14.5 -128.5q0 -126 -52.5 -197.5t-148.5 -71.5q-86 0 -132.5 57.5t-46.5 164.5v234q0 45 -46 45q-14 0 -30 -4v19q17 6 34 6q31 0 47.5 -17t16.5 -49v-234z
M297 835h28l-65 -147h-20zM148 631q-9 0 -15 6t-6 17q0 10 5.5 16t15.5 6t15.5 -6t5.5 -16q0 -11 -6 -17t-15 -6zM354 631q-9 0 -15 6t-6 17q0 10 5.5 16t15.5 6t15.5 -6t5.5 -16q0 -11 -6 -17t-15 -6z" />
    <glyph glyph-name="alpha" unicode="&#x3b1;" horiz-adv-x="572" 
d="M555 3q-13 -5 -35 -5q-24 0 -41 10q-25 15 -35 50.5t-10 111.5q-20 -88 -70 -136.5t-120 -48.5q-54 0 -96.5 31t-67 89t-24.5 136t24.5 140t70.5 98.5t106 36.5q68 0 115 -50t69 -147q6 54 33 184h22l-13 -68q-28 -145 -28 -266q0 -67 9 -100t30 -44q7 -4 13.5 -5
t19.5 -1q12 0 28 3v-19zM244 7q79 0 128 67t65 197q-27 117 -70 170t-109 53q-51 0 -91.5 -30.5t-63.5 -88t-23 -134.5q0 -106 45 -170t119 -64z" />
    <glyph glyph-name="beta" unicode="&#x3b2;" horiz-adv-x="546" 
d="M282 -13q-88 0 -179 68v-261h-22v709q0 121 52 186t146 65q48 0 86.5 -22t61 -61.5t22.5 -91.5q0 -76 -32 -122t-94 -58q81 -13 124 -63.5t43 -133.5q0 -100 -56 -157.5t-152 -57.5zM282 9q87 0 135.5 51t48.5 142q0 88 -53.5 136t-152.5 48h-47v21h47q165 0 165 172
q0 69 -40 111t-106 42q-85 0 -130.5 -59t-45.5 -170v-427q50 -35 92.5 -51t86.5 -16z" />
    <glyph glyph-name="gamma" unicode="&#x3b3;" horiz-adv-x="455" 
d="M206 -206l-2 39q-7 130 -51.5 284.5t-143.5 385.5h27q131 -315 168 -501q68 100 120 229.5t80 271.5h25q-29 -148 -86 -285t-133 -244q12 -66 17 -141l2 -39h-23z" />
    <glyph glyph-name="delta" unicode="&#x3b4;" horiz-adv-x="546" 
d="M273 -13q-101 0 -159 63t-58 173q0 96 52 165.5t146 98.5q-70 35 -98 67.5t-28 77.5q0 55 45 88.5t120 33.5q39 0 80.5 -9t71.5 -24v-21q-31 14 -73.5 23t-78.5 9q-66 0 -103.5 -26.5t-37.5 -73.5q0 -39 25.5 -66.5t93.5 -61.5q83 -42 130.5 -82.5t68 -86.5t20.5 -107
q0 -69 -26.5 -123.5t-76 -86t-114.5 -31.5zM466 228q0 59 -19 101t-60 76.5t-111 70.5q-93 -26 -144.5 -92.5t-51.5 -160.5q0 -101 51 -157.5t142 -56.5q87 0 140 60.5t53 158.5z" />
    <glyph glyph-name="epsilon" unicode="&#x3b5;" horiz-adv-x="452" 
d="M337 256h-111q-68 0 -107 -32.5t-39 -87.5q0 -61 44.5 -94t126.5 -33q90 0 161 32v-21q-69 -33 -161 -33t-143.5 39t-51.5 110q0 52 31 87t84 46q-49 11 -75 39t-26 69q0 66 47.5 102.5t132.5 36.5q80 0 145 -31v-21q-66 30 -145 30q-75 0 -115.5 -30t-40.5 -87
q0 -48 43.5 -74t123.5 -26h76v-21z" />
    <glyph glyph-name="zeta" unicode="&#x3b6;" horiz-adv-x="397" 
d="M222 7q-87 25 -126.5 72.5t-39.5 129.5q0 83 31.5 160t99 161.5t177.5 188.5h-288v21h315v-21q-121 -116 -188 -201t-95 -157.5t-28 -151.5q0 -76 34 -117t116 -65l55 -16q66 -19 89 -40.5t23 -65.5q0 -59 -33 -111h-21q30 56 30 110q0 35 -19 52.5t-76 34.5z" />
    <glyph glyph-name="eta" unicode="&#x3b7;" horiz-adv-x="575" 
d="M60 509q31 0 47.5 -17.5t17.5 -50.5q51 36 108 55.5t113 19.5q71 0 109 -38t38 -111v-573h-22v566q0 134 -128 134q-53 0 -110.5 -20t-107.5 -55v-419h-22v440q0 25 -11 36.5t-36 11.5q-14 0 -30 -4v19q17 6 34 6z" />
    <glyph glyph-name="theta" unicode="&#x3b8;" horiz-adv-x="536" 
d="M268 -13q-107 0 -157.5 93.5t-50.5 291.5q0 194 51 288t157 94t157 -94t51 -288q0 -198 -50.5 -291.5t-157.5 -93.5zM268 9q96 0 140 84.5t45 268.5h-370q1 -185 45 -269t140 -84zM268 732q-96 0 -140 -83t-45 -267h370q-1 184 -45.5 267t-139.5 83z" />
    <glyph glyph-name="iota" unicode="&#x3b9;" horiz-adv-x="219" 
d="M197 5q-21 -7 -49 -7q-67 0 -67 66v439h22v-439q0 -23 12 -34t37 -11q20 0 45 5v-19z" />
    <glyph glyph-name="kappa" unicode="&#x3ba;" horiz-adv-x="459" 
d="M84 0v503h22v-303l285 303h31l-214 -226l243 -277h-30l-229 262l-86 -91v-171h-22z" />
    <glyph glyph-name="lambda" unicode="&#x3bb;" horiz-adv-x="469" 
d="M249 476l-205 -476h-25l218 501l-53 137q-15 39 -28.5 59t-28.5 28t-36 8q-27 0 -46 -6v19q19 8 46 8q42 0 66 -22.5t48 -84.5l249 -647h-25z" />
    <glyph glyph-name="uni03BC" unicode="&#x3bc;" horiz-adv-x="574" 
d="M536 3q-13 -5 -34 -5q-27 0 -42.5 16.5t-17.5 47.5q-47 -35 -102 -55t-105 -20q-99 0 -128 71v-264h-22v709h22v-348q0 -146 128 -146q101 0 206 74v420h22v-417q0 -36 10 -51.5t34 -15.5q16 0 29 3v-19z" />
    <glyph glyph-name="nu" unicode="&#x3bd;" horiz-adv-x="461" 
d="M435 503q-17 -112 -71.5 -247t-129.5 -256h-28l-195 503h26l185 -483q70 116 121 245t68 238h24z" />
    <glyph glyph-name="xi" unicode="&#x3be;" horiz-adv-x="414" 
d="M233 3q-96 26 -136.5 70t-40.5 122q0 74 38.5 126t108.5 71q-62 21 -92 63.5t-30 108.5q0 86 55 138t146 52q29 0 61 -6t57 -17v-21q-58 22 -118 22q-82 0 -129.5 -45.5t-47.5 -122.5t45.5 -120t127.5 -43h68v-21h-73q-89 0 -141 -49.5t-52 -135.5q0 -51 16 -82.5
t51 -52.5t94 -37l44 -12q47 -13 70.5 -26.5t32.5 -32t9 -47.5q0 -59 -33 -111h-21q30 56 30 110q0 36 -20 54t-75 33z" />
    <glyph glyph-name="omicron" unicode="&#x3bf;" horiz-adv-x="550" 
d="M275 9q93 0 144 62.5t51 179.5t-50.5 180t-144.5 63q-93 0 -144 -62.5t-51 -179.5t50.5 -180t144.5 -63zM275 -13q-104 0 -161.5 69.5t-57.5 195.5q0 125 58 194.5t161 69.5q104 0 161.5 -69.5t57.5 -195.5q0 -125 -58 -194.5t-161 -69.5z" />
    <glyph glyph-name="pi" unicode="&#x3c0;" horiz-adv-x="597" 
d="M22 503h545v-21h-112v-418q0 -23 12 -34t38 -11q19 0 44 5v-19q-21 -7 -48 -7q-68 0 -68 66v418h-277v-482h-22v482h-112v21z" />
    <glyph glyph-name="rho" unicode="&#x3c1;" horiz-adv-x="549" 
d="M277 -13q-93 0 -182 71v-264h-22v459q0 121 57.5 192t155.5 71q96 0 151.5 -70.5t55.5 -194.5q0 -122 -58 -193t-158 -71zM277 9q91 0 141.5 63.5t50.5 178.5q0 114 -48 178.5t-135 64.5q-88 0 -139.5 -64.5t-51.5 -176.5v-174q93 -70 182 -70z" />
    <glyph glyph-name="sigma1" unicode="&#x3c2;" horiz-adv-x="435" 
d="M236 3q-50 14 -79.5 29.5t-48.5 38.5q-52 61 -52 181q0 126 58.5 194t167.5 68q70 0 114 -23v-21q-59 22 -114 22q-97 0 -149.5 -61t-52.5 -174v-7q0 -58 11.5 -98.5t35.5 -68.5q18 -20 44.5 -33.5t72.5 -26.5l43 -12q67 -19 89.5 -40.5t22.5 -65.5q0 -59 -33 -111h-21
q30 56 30 110q0 36 -19.5 54t-75.5 33z" />
    <glyph glyph-name="sigma" unicode="&#x3c3;" horiz-adv-x="570" 
d="M359 482q58 -39 90.5 -103t32.5 -141q0 -115 -57.5 -183t-155.5 -68t-155.5 68t-57.5 183q0 122 64 193.5t174 71.5h241v-21h-176zM458 238q0 79 -36 145t-96 99h-32q-100 0 -157 -65.5t-57 -178.5q0 -107 50.5 -168t138.5 -61t138.5 61t50.5 168z" />
    <glyph glyph-name="tau" unicode="&#x3c4;" horiz-adv-x="423" 
d="M16 503h383v-21h-199v-400q0 -32 16.5 -47.5t51.5 -15.5q37 0 77 13v-19q-15 -6 -38 -10.5t-43 -4.5q-42 0 -64 21.5t-22 62.5v400h-162v21z" />
    <glyph glyph-name="upsilon" unicode="&#x3c5;" horiz-adv-x="532" 
d="M116 209q0 -97 40.5 -148.5t116.5 -51.5q86 0 132 63.5t46 177.5q0 67 -15 134t-41 119h25q25 -53 39.5 -118.5t14.5 -128.5q0 -126 -52.5 -197.5t-148.5 -71.5q-86 0 -132.5 57.5t-46.5 164.5v234q0 45 -46 45q-14 0 -30 -4v19q17 6 34 6q31 0 47.5 -17t16.5 -49v-234z
" />
    <glyph glyph-name="phi" unicode="&#x3c6;" horiz-adv-x="710" 
d="M344 -206v192q-140 0 -214 68t-74 197t74 197t214 68v123h22v-123q140 0 214 -68t74 -197t-74 -197t-214 -68v-192h-22zM366 6q131 0 197.5 61.5t66.5 183.5t-66.5 183.5t-197.5 61.5v-490zM80 251q0 -122 66.5 -183.5t197.5 -61.5v490q-131 0 -197.5 -61.5t-66.5 -183.5
z" />
    <glyph glyph-name="chi" unicode="&#x3c7;" horiz-adv-x="452" 
d="M219 165l-121 278q-11 26 -21.5 35.5t-27.5 9.5q-22 0 -35 -4v19q20 6 36 6q25 0 40 -12.5t28 -42.5l116 -268l160 317h25l-173 -342l134 -307q13 -30 20.5 -37.5t22.5 -7.5q22 0 35 4v-19q-19 -6 -37 -6q-21 0 -33.5 11.5t-26.5 43.5l-129 298l-176 -347h-25z" />
    <glyph glyph-name="psi" unicode="&#x3c8;" horiz-adv-x="688" 
d="M333 -206v191q-133 2 -203 75t-70 208v235h22v-226q0 -268 251 -271v633h22v-633q251 3 251 271v226h22v-235q0 -135 -70 -208t-203 -75v-191h-22z" />
    <glyph glyph-name="omega" unicode="&#x3c9;" horiz-adv-x="716" 
d="M347 339h22v-179q0 -36 16 -72t43.5 -57.5t64.5 -21.5q67 0 105 56.5t38 150.5q0 77 -29 154.5t-77 132.5h26q46 -52 75 -131.5t29 -155.5q0 -104 -44.5 -166.5t-122.5 -62.5q-103 0 -135 113q-16 -54 -51 -83.5t-84 -29.5q-78 0 -122.5 62.5t-44.5 166.5q0 76 29 155.5
t75 131.5h26q-48 -55 -77 -132.5t-29 -154.5q0 -94 38 -150.5t105 -56.5q34 0 61.5 19.5t45 56t17.5 75.5v179z" />
    <glyph glyph-name="iotadieresis" unicode="&#x3ca;" horiz-adv-x="219" 
d="M197 5q-21 -7 -49 -7q-67 0 -67 66v439h22v-439q0 -23 12 -34t37 -11q20 0 45 5v-19zM-11 631q-9 0 -15 6t-6 17q0 10 5.5 16t15.5 6t15.5 -6t5.5 -16q0 -11 -6 -17t-15 -6zM195 631q-9 0 -15 6t-6 17q0 10 5.5 16t15.5 6t15.5 -6t5.5 -16q0 -11 -6 -17t-15 -6z" />
    <glyph glyph-name="upsilondieresis" unicode="&#x3cb;" horiz-adv-x="532" 
d="M116 209q0 -97 40.5 -148.5t116.5 -51.5q86 0 132 63.5t46 177.5q0 67 -15 134t-41 119h25q25 -53 39.5 -118.5t14.5 -128.5q0 -126 -52.5 -197.5t-148.5 -71.5q-86 0 -132.5 57.5t-46.5 164.5v234q0 45 -46 45q-14 0 -30 -4v19q17 6 34 6q31 0 47.5 -17t16.5 -49v-234z
M148 631q-9 0 -15 6t-6 17q0 10 5.5 16t15.5 6t15.5 -6t5.5 -16q0 -11 -6 -17t-15 -6zM354 631q-9 0 -15 6t-6 17q0 10 5.5 16t15.5 6t15.5 -6t5.5 -16q0 -11 -6 -17t-15 -6z" />
    <glyph glyph-name="omicrontonos" unicode="&#x3cc;" horiz-adv-x="550" 
d="M275 9q93 0 144 62.5t51 179.5t-50.5 180t-144.5 63q-93 0 -144 -62.5t-51 -179.5t50.5 -180t144.5 -63zM275 -13q-104 0 -161.5 69.5t-57.5 195.5q0 125 58 194.5t161 69.5q104 0 161.5 -69.5t57.5 -195.5q0 -125 -58 -194.5t-161 -69.5zM327 760h28l-69 -157h-21z" />
    <glyph glyph-name="upsilontonos" unicode="&#x3cd;" horiz-adv-x="532" 
d="M116 209q0 -97 40.5 -148.5t116.5 -51.5q86 0 132 63.5t46 177.5q0 67 -15 134t-41 119h25q25 -53 39.5 -118.5t14.5 -128.5q0 -126 -52.5 -197.5t-148.5 -71.5q-86 0 -132.5 57.5t-46.5 164.5v234q0 45 -46 45q-14 0 -30 -4v19q17 6 34 6q31 0 47.5 -17t16.5 -49v-234z
M303 760h28l-69 -157h-21z" />
    <glyph glyph-name="omegatonos" unicode="&#x3ce;" horiz-adv-x="716" 
d="M347 339h22v-179q0 -36 16 -72t43.5 -57.5t64.5 -21.5q67 0 105 56.5t38 150.5q0 77 -29 154.5t-77 132.5h26q46 -52 75 -131.5t29 -155.5q0 -104 -44.5 -166.5t-122.5 -62.5q-103 0 -135 113q-16 -54 -51 -83.5t-84 -29.5q-78 0 -122.5 62.5t-44.5 166.5q0 76 29 155.5
t75 131.5h26q-48 -55 -77 -132.5t-29 -154.5q0 -94 38 -150.5t105 -56.5q34 0 61.5 19.5t45 56t17.5 75.5v179zM410 760h28l-69 -157h-21z" />
    <glyph glyph-name="uni03D7" unicode="&#x3d7;" horiz-adv-x="457" 
d="M84 0v503h22v-303l285 303h31l-214 -226l179 -204q21 -24 37 -36.5t35 -20.5v-6q0 -116 -44.5 -172t-137.5 -56q-54 0 -99 15v19q42 -14 99 -14q80 0 119.5 49.5t41.5 151.5q-18 7 -30.5 16.5t-34.5 35.5l-181 207l-86 -91v-171h-22z" />
    <glyph glyph-name="uni0400" unicode="&#x400;" horiz-adv-x="542" 
d="M94 0v693h390v-22h-367v-300h320v-22h-320v-327h367v-22h-390zM279 769l-100 112h35l91 -112h-26z" />
    <glyph glyph-name="uni0401" unicode="&#x401;" horiz-adv-x="542" 
d="M94 0v693h390v-22h-367v-300h320v-22h-320v-327h367v-22h-390zM187 802q-22 0 -22 24t22 24t22 -24t-22 -24zM391 802q-22 0 -22 24t22 24t22 -24t-22 -24z" />
    <glyph glyph-name="uni0402" unicode="&#x402;" horiz-adv-x="729" 
d="M456 407q-51 0 -109 -9t-111 -25v-373h-23v671h-193v22h482v-22h-266v-279q118 37 219 37q220 0 220 -220q0 -221 -210 -221q-50 0 -90 14v21q42 -13 86 -13q97 0 143 48t46 150q0 101 -48 150t-146 49z" />
    <glyph glyph-name="uni0403" unicode="&#x403;" horiz-adv-x="471" 
d="M94 0v693h356v-22h-333v-671h-23zM256 769l91 112h35l-100 -112h-26z" />
    <glyph glyph-name="uni0404" unicode="&#x404;" horiz-adv-x="604" 
d="M391 -10q-163 0 -241 86.5t-78 267.5q0 179 80 267t244 88q40 0 81.5 -7.5t71.5 -19.5v-21q-79 25 -152 25q-151 0 -224 -75.5t-76 -234.5h398v-22h-398v-5q0 -167 71.5 -246.5t221.5 -79.5q85 0 172 27v-21q-35 -13 -81 -21t-90 -8z" />
    <glyph glyph-name="uni0405" unicode="&#x405;" horiz-adv-x="550" 
d="M207 370q-69 26 -102.5 66t-33.5 96q0 50 24.5 90.5t70.5 64t106 23.5q45 0 93 -12t86 -33v-22q-41 21 -87.5 32.5t-90.5 11.5q-82 0 -130 -42t-48 -113q0 -49 30 -83.5t97 -60.5l147 -57q61 -23 90.5 -62t29.5 -96q0 -55 -27 -98t-77.5 -67.5t-117.5 -24.5
q-108 0 -194 47v22q93 -46 193 -46q91 0 145 45.5t54 121.5q0 50 -26.5 84t-83.5 56z" />
    <glyph glyph-name="uni0406" unicode="&#x406;" horiz-adv-x="219" 
d="M98 0v693h23v-693h-23z" />
    <glyph glyph-name="uni0407" unicode="&#x407;" horiz-adv-x="219" 
d="M98 0v693h23v-693h-23zM7 802q-22 0 -22 24t22 24t22 -24t-22 -24zM211 802q-22 0 -22 24t22 24t22 -24t-22 -24z" />
    <glyph glyph-name="uni0408" unicode="&#x408;" horiz-adv-x="413" 
d="M154 -15q-30 0 -65.5 8.5t-56.5 20.5v22q60 -28 122 -28q70 0 103 36.5t33 114.5v534h23v-534q0 -89 -39 -131.5t-120 -42.5z" />
    <glyph glyph-name="uni0409" unicode="&#x409;" horiz-adv-x="935" 
d="M508 693v-306h177q90 0 143 -52t53 -140q0 -89 -53.5 -142t-142.5 -53h-200v671h-243q-18 -220 -36 -348.5t-39 -197.5t-48 -97t-65 -28q-13 0 -27 4v21q10 -2 25 -2q36 0 60.5 35.5t43 112t33.5 197.5t30 301l2 24h287zM508 365v-343h176q80 0 126.5 46.5t46.5 126.5
q0 79 -46 124.5t-127 45.5h-176z" />
    <glyph glyph-name="uni040A" unicode="&#x40a;" horiz-adv-x="939" 
d="M114 367h375v326h23v-326h177q90 0 143 -49.5t53 -132.5q0 -84 -53.5 -134.5t-142.5 -50.5h-200v345h-375v-345h-23v693h23v-326zM688 22q80 0 126.5 43.5t46.5 119.5q0 74 -46.5 117t-126.5 43h-176v-323h176z" />
    <glyph glyph-name="uni040B" unicode="&#x40b;" horiz-adv-x="754" 
d="M236 392q53 17 117.5 27.5t119.5 10.5q97 0 149 -44.5t52 -127.5v-258h-23v254q0 76 -45.5 115t-133.5 39q-55 0 -120 -10t-116 -26v-372h-23v671h-193v22h482v-22h-266v-279z" />
    <glyph glyph-name="uni040C" unicode="&#x40c;" horiz-adv-x="528" 
d="M92 0v693h23v-340l353 340h30l-356 -344l386 -349h-33l-380 343v-343h-23zM263 769l91 112h35l-100 -112h-26z" />
    <glyph glyph-name="uni040D" unicode="&#x40d;" horiz-adv-x="708" 
d="M94 693h23v-654l475 654h22v-693h-23v654l-475 -654h-22v693zM344 769l-100 112h35l91 -112h-26z" />
    <glyph glyph-name="uni040E" unicode="&#x40e;" horiz-adv-x="536" 
d="M84 11q22 -4 46 -4q36 0 61 14.5t45.5 47t41.5 86.5l-272 538h27l257 -511l211 511h25l-235 -568q-33 -80 -68.5 -110t-92.5 -30q-23 0 -46 6v20zM281 769q-67 0 -102.5 31.5t-35.5 90.5v6.5t1 7.5h22v-6q0 -109 115 -109t115 109v6h22q1 -4 1 -7.5v-6.5
q0 -59 -35.5 -90.5t-102.5 -31.5z" />
    <glyph glyph-name="uni040F" unicode="&#x40f;" horiz-adv-x="652" 
d="M315 -176v176h-221v693h23v-671h418v671h23v-693h-221v-176h-22z" />
    <glyph glyph-name="uni0410" unicode="&#x410;" horiz-adv-x="610" 
d="M565 0l-91 229h-340l-90 -229h-25l275 693h22l275 -693h-26zM142 251h323l-161 410z" />
    <glyph glyph-name="uni0411" unicode="&#x411;" horiz-adv-x="567" 
d="M117 397h196q90 0 143.5 -53.5t53.5 -143.5q0 -91 -54 -145.5t-143 -54.5h-219v693h366v-22h-343v-274zM313 22q80 0 126 47.5t46 130.5q0 82 -45.5 128.5t-126.5 46.5h-196v-353h196z" />
    <glyph glyph-name="uni0412" unicode="&#x412;" horiz-adv-x="588" 
d="M94 0v693h193q91 0 145 -48t54 -129q0 -90 -63 -134q-25 -18 -56 -25q77 -8 120.5 -52.5t43.5 -115.5q0 -86 -53.5 -137.5t-141.5 -51.5h-242zM117 344v-322h218q78 0 124.5 45.5t46.5 121.5q0 72 -50 113.5t-136 41.5h-203zM117 671v-305h195q67 0 108 41t41 109
q0 70 -47.5 112.5t-126.5 42.5h-170z" />
    <glyph glyph-name="uni0413" unicode="&#x413;" horiz-adv-x="471" 
d="M94 0v693h356v-22h-333v-671h-23z" />
    <glyph glyph-name="uni0414" unicode="&#x414;" horiz-adv-x="706" 
d="M37 22h34q62 55 101 208t60 425l3 38h339v-671h85v-198h-23v176h-576v-176h-23v198zM258 671q-21 -275 -58.5 -432t-96.5 -217h448v649h-293z" />
    <glyph glyph-name="uni0415" unicode="&#x415;" horiz-adv-x="542" 
d="M94 0v693h390v-22h-367v-300h320v-22h-320v-327h367v-22h-390z" />
    <glyph glyph-name="uni0416" unicode="&#x416;" horiz-adv-x="797" 
d="M14 0l348 349l-325 344h30l320 -340v340h23v-340l320 340h30l-325 -344l348 -349h-32l-341 343v-343h-23v343l-341 -343h-32z" />
    <glyph glyph-name="uni0417" unicode="&#x417;" horiz-adv-x="528" 
d="M230 -16q-47 0 -98 10.5t-94 28.5v21q97 -37 193 -37q101 0 159.5 47.5t58.5 130.5q0 77 -45.5 118t-130.5 41h-135v22h104q94 0 142.5 39t48.5 115t-51 120t-138 44q-50 0 -95 -9.5t-94 -29.5v21q88 41 190 41q98 0 155.5 -50.5t57.5 -136.5q0 -62 -34 -104t-97 -58
q71 -12 109 -57t38 -116q0 -94 -65.5 -147.5t-178.5 -53.5z" />
    <glyph glyph-name="uni0418" unicode="&#x418;" horiz-adv-x="708" 
d="M94 693h23v-654l475 654h22v-693h-23v654l-475 -654h-22v693z" />
    <glyph glyph-name="uni0419" unicode="&#x419;" horiz-adv-x="708" 
d="M94 693h23v-654l475 654h22v-693h-23v654l-475 -654h-22v693zM354 769q-67 0 -102.5 31.5t-35.5 90.5v6.5t1 7.5h22v-6q0 -109 115 -109t115 109v6h22q1 -4 1 -7.5v-6.5q0 -59 -35.5 -90.5t-102.5 -31.5z" />
    <glyph glyph-name="uni041A" unicode="&#x41a;" horiz-adv-x="536" 
d="M94 0v693h23v-340l353 340h30l-356 -344l386 -349h-33l-380 343v-343h-23z" />
    <glyph glyph-name="uni041B" unicode="&#x41b;" horiz-adv-x="655" 
d="M538 0v671h-296q-18 -220 -36 -348.5t-39 -197.5t-48 -97t-65 -28q-13 0 -27 4v21q10 -2 25 -2q46 0 74.5 61t49.5 198.5t43 386.5l2 24h340v-693h-23z" />
    <glyph glyph-name="uni041C" unicode="&#x41c;" horiz-adv-x="800" 
d="M117 652v-652h-23v693h26l281 -477l280 477h25v-693h-23v653l-272 -462h-22z" />
    <glyph glyph-name="uni041D" unicode="&#x41d;" horiz-adv-x="694" 
d="M577 0v344h-460v-344h-23v693h23v-327h460v327h23v-693h-23z" />
    <glyph glyph-name="uni041E" unicode="&#x41e;" horiz-adv-x="758" 
d="M686 345q0 -171 -80.5 -265.5t-226.5 -94.5t-226.5 94.5t-80.5 265.5t80.5 265.5t226.5 94.5t226.5 -94.5t80.5 -265.5zM661 345q0 162 -73.5 249.5t-208.5 87.5t-208.5 -87.5t-73.5 -249.5t73.5 -249.5t208.5 -87.5t208.5 87.5t73.5 249.5z" />
    <glyph glyph-name="uni041F" unicode="&#x41f;" horiz-adv-x="663" 
d="M546 0v671h-429v-671h-23v693h475v-693h-23z" />
    <glyph glyph-name="uni0420" unicode="&#x420;" horiz-adv-x="572" 
d="M117 297v-297h-23v693h229q90 0 143.5 -54t53.5 -144t-53.5 -144t-143.5 -54h-206zM117 319h206q81 0 126.5 46.5t45.5 129.5t-45.5 129.5t-126.5 46.5h-206v-352z" />
    <glyph glyph-name="uni0421" unicode="&#x421;" horiz-adv-x="595" 
d="M553 18q-34 -14 -77.5 -21.5t-86.5 -7.5q-158 0 -237.5 90t-79.5 265q0 174 82 264.5t240 90.5q82 0 149 -27v-22q-77 26 -149 26q-145 0 -221 -82.5t-76 -236.5v-26q0 -155 75 -237t217 -82q79 0 164 28v-22z" />
    <glyph glyph-name="uni0422" unicode="&#x422;" horiz-adv-x="545" 
d="M261 0v671h-238v22h499v-22h-238v-671h-23z" />
    <glyph glyph-name="uni0423" unicode="&#x423;" horiz-adv-x="536" 
d="M84 11q22 -4 46 -4q36 0 61 14.5t45.5 47t41.5 86.5l-272 538h27l257 -511l211 511h25l-235 -568q-33 -80 -68.5 -110t-92.5 -30q-23 0 -46 6v20z" />
    <glyph glyph-name="uni0424" unicode="&#x424;" horiz-adv-x="804" 
d="M391 -30v85q-104 1 -177 35t-111.5 99t-38.5 158q0 92 37.5 157t111 99.5t178.5 35.5v84h22v-84q104 -1 177 -35t111.5 -99t38.5 -158q0 -92 -37.5 -157t-111 -99.5t-178.5 -35.5v-85h-22zM391 618q-302 -8 -302 -271t302 -271v542zM715 347q0 263 -302 271v-542
q302 8 302 271z" />
    <glyph glyph-name="uni0425" unicode="&#x425;" horiz-adv-x="567" 
d="M300 357l250 -357h-28l-239 339l-239 -339h-27l251 357l-235 336h28l224 -318l222 318h27z" />
    <glyph glyph-name="uni0426" unicode="&#x426;" horiz-adv-x="678" 
d="M608 -176v176h-514v693h23v-671h406v671h23v-671h85v-198h-23z" />
    <glyph glyph-name="uni0427" unicode="&#x427;" horiz-adv-x="626" 
d="M509 329q-113 -45 -245 -45q-91 0 -142 44t-51 123v242h23v-239q0 -70 45 -109t125 -39q67 0 130.5 11.5t114.5 32.5v343h23v-693h-23v329z" />
    <glyph glyph-name="uni0428" unicode="&#x428;" horiz-adv-x="947" 
d="M94 0v693h23v-671h345v671h23v-671h345v671h23v-693h-759z" />
    <glyph glyph-name="uni0429" unicode="&#x429;" horiz-adv-x="969" 
d="M899 -176v176h-805v693h23v-671h337v671h23v-671h337v671h23v-671h85v-198h-23z" />
    <glyph glyph-name="uni042A" unicode="&#x42a;" horiz-adv-x="657" 
d="M220 391h186q91 0 144 -52.5t53 -141.5q0 -90 -53.5 -143.5t-143.5 -53.5h-209v671h-183v22h206v-302zM405 22q80 0 126.5 46.5t46.5 128.5q0 80 -46 126t-127 46h-185v-347h185z" />
    <glyph glyph-name="uni042B" unicode="&#x42b;" horiz-adv-x="715" 
d="M94 693h23v-302h179q92 0 143 -52t51 -144q0 -90 -52.5 -142.5t-141.5 -52.5h-202v693zM117 369v-347h178q81 0 125.5 45.5t44.5 127.5q0 84 -43.5 129t-126.5 45h-178zM598 693h23v-693h-23v693z" />
    <glyph glyph-name="uni042C" unicode="&#x42c;" horiz-adv-x="585" 
d="M117 391h218q90 0 143 -52.5t53 -141.5q0 -90 -53.5 -143.5t-142.5 -53.5h-241v693h23v-302zM334 22q80 0 126.5 46.5t46.5 128.5q0 80 -46 126t-127 46h-217v-347h217z" />
    <glyph glyph-name="uni042D" unicode="&#x42d;" horiz-adv-x="601" 
d="M219 -10q-100 0 -181 35v21q95 -33 180 -33q149 0 218 79.5t69 251.5h-394v22h394q-3 157 -71.5 233.5t-207.5 76.5q-87 0 -175 -32v21q35 16 82 25t92 9q155 0 229.5 -86.5t74.5 -267.5q0 -184 -75 -269.5t-235 -85.5z" />
    <glyph glyph-name="uni042E" unicode="&#x42e;" horiz-adv-x="984" 
d="M912 345q0 -170 -80 -265t-223 -95t-222.5 94.5t-79.5 264.5h-190v-344h-23v693h23v-327h190q5 161 84.5 250t217.5 89q143 0 223 -95t80 -265zM887 345q0 161 -72.5 249t-205.5 88t-205.5 -88t-72.5 -249t72.5 -249t205.5 -88t205.5 88t72.5 249z" />
    <glyph glyph-name="uni042F" unicode="&#x42f;" horiz-adv-x="580" 
d="M226 319q-74 11 -113.5 59t-39.5 125q0 89 53 139.5t145 50.5h215v-693h-23v317h-198h-14l-197 -317h-28zM98 503q0 -80 44 -122t126 -42h195v332h-190q-85 0 -130 -43.5t-45 -124.5z" />
    <glyph glyph-name="uni0430" unicode="&#x430;" horiz-adv-x="501" 
d="M395 0l-2 65q-44 -36 -94.5 -55t-101.5 -19q-67 0 -107 38t-40 102q0 71 48.5 112.5t132.5 41.5q36 0 81.5 -8t80.5 -20v112q0 64 -35 94.5t-108 30.5q-83 0 -168 -34v21q38 17 82.5 26t86.5 9q164 0 164 -140v-376h-20zM197 13q106 0 196 76v147q-81 27 -162 27
q-74 0 -115.5 -35t-41.5 -97q0 -53 33.5 -85.5t89.5 -32.5z" />
    <glyph glyph-name="uni0431" unicode="&#x431;" horiz-adv-x="541" 
d="M276 -15q-110 0 -163.5 75t-53.5 230q0 144 23 229t73.5 129.5t137.5 62.5l164 33v-22l-161 -33q-73 -15 -116 -49t-65 -93t-29 -151q38 37 92 59.5t106 22.5q104 0 153.5 -61t49.5 -186q0 -114 -56.5 -180t-154.5 -66zM283 456q-53 0 -107.5 -24t-91.5 -64
q-1 -25 -1 -78q0 -145 47 -213.5t146 -68.5q89 0 138 58.5t49 164.5q0 117 -43 171t-137 54z" />
    <glyph glyph-name="uni0432" unicode="&#x432;" horiz-adv-x="515" 
d="M88 500h189q73 0 113 -32.5t40 -93.5q0 -41 -23.5 -71t-64.5 -44q54 -7 84 -39t30 -82q0 -64 -41.5 -101t-111.5 -37h-215v500zM110 246v-225h191q62 0 96.5 31t34.5 86q0 52 -33 80t-93 28h-196zM110 479v-212h172q58 0 91 28t33 79t-33.5 78t-97.5 27h-165z" />
    <glyph glyph-name="uni0433" unicode="&#x433;" horiz-adv-x="376" 
d="M88 0v503h265v-21h-243v-482h-22z" />
    <glyph glyph-name="uni0434" unicode="&#x434;" horiz-adv-x="551" 
d="M30 21h28q52 31 80 136t44 332l1 14h266v-482h74v-185h-21v164h-451v-164h-21v185zM204 482q-15 -209 -41.5 -318t-70.5 -143h335v461h-223z" />
    <glyph glyph-name="uni0435" unicode="&#x435;" horiz-adv-x="511" 
d="M79 255q1 -125 52.5 -185.5t155.5 -60.5q80 0 163 42v-21q-71 -43 -164 -43q-230 0 -230 267q0 125 58.5 194.5t162.5 69.5q88 0 135 -51.5t47 -146.5q0 -25 -5 -65h-375zM277 496q-91 0 -143 -58t-55 -162h356q2 17 2 44q0 84 -42 130t-118 46z" />
    <glyph glyph-name="uni0436" unicode="&#x436;" horiz-adv-x="642" 
d="M12 0l274 253l-258 250h31l251 -245v245h22v-245l251 245h31l-258 -250l274 -253h-30l-268 248v-248h-22v248l-268 -248h-30z" />
    <glyph glyph-name="uni0437" unicode="&#x437;" horiz-adv-x="453" 
d="M57 485q71 31 145 31q85 0 129.5 -35.5t44.5 -102.5q0 -45 -26 -75.5t-74 -41.5q54 -9 85 -42t31 -84q0 -69 -53.5 -109.5t-144.5 -40.5q-38 0 -80 8t-74 21v20q82 -27 155 -27q82 0 127.5 33.5t45.5 94.5q0 54 -37 83t-106 29h-93v22h64q156 0 156 109q0 116 -151 116
q-69 0 -144 -29v20z" />
    <glyph glyph-name="uni0438" unicode="&#x438;" horiz-adv-x="572" 
d="M462 0v469l-352 -469h-22v503h22v-469l352 469h22v-503h-22z" />
    <glyph glyph-name="uni0439" unicode="&#x439;" horiz-adv-x="572" 
d="M462 0v469l-352 -469h-22v503h22v-469l352 469h22v-503h-22zM286 602q-63 0 -101 34t-38 91q0 10 1 21h21v-19q0 -49 32.5 -78t84.5 -29t84.5 29t32.5 78v19h21q1 -11 1 -21q0 -57 -38 -91t-101 -34z" />
    <glyph glyph-name="uni043A" unicode="&#x43a;" horiz-adv-x="451" 
d="M88 0v503h22v-242l285 242h32l-293 -249l311 -254h-32l-303 246v-246h-22z" />
    <glyph glyph-name="uni043B" unicode="&#x43b;" horiz-adv-x="531" 
d="M421 0v482h-233q-13 -183 -32.5 -287.5t-49 -150.5t-72.5 -46q-3 0 -6.5 0.5t-7.5 1.5v20h6q41 0 67 46t43 147.5t30 275.5l1 14h276v-503h-22z" />
    <glyph glyph-name="uni043C" unicode="&#x43c;" horiz-adv-x="660" 
d="M550 0v465l-210 -361h-21l-209 359v-463h-22v503h24l218 -377l218 377h24v-503h-22z" />
    <glyph glyph-name="uni043D" unicode="&#x43d;" horiz-adv-x="562" 
d="M452 0v248h-342v-248h-22v503h22v-234h342v234h22v-503h-22z" />
    <glyph glyph-name="uni043E" unicode="&#x43e;" horiz-adv-x="558" 
d="M279 9q96 0 147.5 62.5t51.5 179.5q0 118 -51.5 180.5t-147.5 62.5t-147.5 -62.5t-51.5 -179.5q0 -118 51.5 -180.5t147.5 -62.5zM279 -13q-106 0 -164.5 69.5t-58.5 195.5q0 125 58.5 194.5t164.5 69.5t164.5 -69.5t58.5 -195.5q0 -125 -58.5 -194.5t-164.5 -69.5z" />
    <glyph glyph-name="uni043F" unicode="&#x43f;" horiz-adv-x="555" 
d="M445 0v482h-335v-482h-22v503h379v-503h-22z" />
    <glyph glyph-name="uni0440" unicode="&#x440;" horiz-adv-x="560" 
d="M88 -206v709h20l1 -60q44 38 88 55.5t95 17.5q62 0 110 -31.5t75 -90.5t27 -138q0 -125 -56 -195t-156 -70q-93 0 -182 71v-268h-22zM291 13q91 0 140 63t49 180q0 110 -50.5 174t-138.5 64q-49 0 -92.5 -17.5t-88.5 -55.5v-338q92 -70 181 -70z" />
    <glyph glyph-name="uni0441" unicode="&#x441;" horiz-adv-x="446" 
d="M409 17q-59 -28 -131 -28q-109 0 -165.5 67t-56.5 196q0 127 59.5 194.5t171.5 67.5q60 0 114 -23v-21q-59 22 -114 22q-100 0 -153.5 -60.5t-53.5 -174.5v-11q0 -114 52 -174.5t150 -60.5q61 0 127 27v-21z" />
    <glyph glyph-name="uni0442" unicode="&#x442;" horiz-adv-x="430" 
d="M204 0v482h-183v21h388v-21h-183v-482h-22z" />
    <glyph glyph-name="uni0443" unicode="&#x443;" horiz-adv-x="471" 
d="M207 -100q-28 -67 -56.5 -92.5t-69.5 -25.5q-30 0 -55 11v18q29 -8 52 -8q36 0 59.5 23t48.5 83l38 91l-210 503h26l196 -476l196 476h25z" />
    <glyph glyph-name="uni0444" unicode="&#x444;" horiz-adv-x="710" 
d="M344 -206v192q-140 0 -214 68t-74 197t74 197t214 68v224h22v-224q140 0 214 -68t74 -197t-74 -197t-214 -68v-192h-22zM366 6q131 0 197.5 61.5t66.5 183.5t-66.5 183.5t-197.5 61.5v-490zM80 251q0 -122 66.5 -183.5t197.5 -61.5v490q-131 0 -197.5 -61.5t-66.5 -183.5
z" />
    <glyph glyph-name="uni0445" unicode="&#x445;" horiz-adv-x="443" 
d="M401 0l-181 241l-178 -241h-28l191 258l-178 245h28l165 -230l170 230h28l-183 -245l194 -258h-28z" />
    <glyph glyph-name="uni0446" unicode="&#x446;" horiz-adv-x="556" 
d="M507 -164v164h-419v503h22v-482h322v482h22v-482h74v-185h-21z" />
    <glyph glyph-name="uni0447" unicode="&#x447;" horiz-adv-x="518" 
d="M408 0v227q-44 -19 -94 -30t-96 -11q-158 0 -158 144v173h22v-166q0 -69 32.5 -98.5t108.5 -29.5q93 0 185 38v256h22v-503h-22z" />
    <glyph glyph-name="uni0448" unicode="&#x448;" horiz-adv-x="728" 
d="M640 503v-503h-552v503h22v-482h243v482h22v-482h243v482h22z" />
    <glyph glyph-name="uni0449" unicode="&#x449;" horiz-adv-x="734" 
d="M632 503v-482h82v-185h-21v164h-605v503h22v-482h239v482h22v-482h239v482h22z" />
    <glyph glyph-name="uni044A" unicode="&#x44a;" horiz-adv-x="567" 
d="M186 482h-164v21h186v-209h169q74 0 115 -38.5t41 -107.5q0 -71 -40 -109.5t-117 -38.5h-190v482zM208 273v-252h167q68 0 101 31.5t33 95.5q0 60 -34 92.5t-99 32.5h-168z" />
    <glyph glyph-name="uni044B" unicode="&#x44b;" horiz-adv-x="624" 
d="M88 503h22v-209h160q74 0 115 -38.5t41 -107.5q0 -71 -40 -109.5t-117 -38.5h-181v503zM110 273v-252h158q68 0 101 31.5t33 95.5q0 60 -34 92.5t-99 32.5h-159zM514 503h22v-503h-22v503z" />
    <glyph glyph-name="uni044C" unicode="&#x44c;" horiz-adv-x="485" 
d="M88 503h22v-209h185q74 0 115 -38.5t41 -107.5q0 -71 -40 -109.5t-117 -38.5h-206v503zM110 273v-252h183q68 0 101 31.5t33 95.5q0 60 -34 92.5t-99 32.5h-184z" />
    <glyph glyph-name="uni044D" unicode="&#x44d;" horiz-adv-x="448" 
d="M109 248v21h261q-4 118 -51.5 171.5t-148.5 53.5q-64 0 -123 -19v20q60 21 124 21q113 0 167.5 -64t54.5 -197q0 -137 -52.5 -202.5t-164.5 -65.5q-35 0 -71.5 7t-64.5 19v20q39 -13 69 -18.5t66 -5.5q101 0 147.5 56.5t47.5 182.5h-261z" />
    <glyph glyph-name="uni044E" unicode="&#x44e;" horiz-adv-x="744" 
d="M481 -13q-98 0 -151.5 67.5t-54.5 192.5h-165v-247h-22v503h22v-235h165q3 119 56.5 183.5t149.5 64.5q100 0 153.5 -68.5t53.5 -196.5q0 -126 -54 -195t-153 -69zM481 9q89 0 136 62t47 180q0 119 -47 181t-136 62t-136 -62t-47 -180q0 -119 47 -181t136 -62z" />
    <glyph glyph-name="uni044F" unicode="&#x44f;" horiz-adv-x="469" 
d="M173 223q-55 11 -83.5 45.5t-28.5 90.5q0 67 41 105.5t115 38.5h164v-503h-22v219h-135q-17 0 -27 1l-134 -220h-27zM85 359q0 -119 137 -119h137v242h-142q-132 0 -132 -123z" />
    <glyph glyph-name="uni0450" unicode="&#x450;" horiz-adv-x="511" 
d="M79 255q1 -125 52.5 -185.5t155.5 -60.5q80 0 163 42v-21q-71 -43 -164 -43q-230 0 -230 267q0 125 58.5 194.5t162.5 69.5q88 0 135 -51.5t47 -146.5q0 -25 -5 -65h-375zM277 496q-91 0 -143 -58t-55 -162h356q2 17 2 44q0 84 -42 130t-118 46zM260 603l-98 145h30
l91 -145h-23z" />
    <glyph glyph-name="uni0451" unicode="&#x451;" horiz-adv-x="511" 
d="M79 255q1 -125 52.5 -185.5t155.5 -60.5q80 0 163 42v-21q-71 -43 -164 -43q-230 0 -230 267q0 125 58.5 194.5t162.5 69.5q88 0 135 -51.5t47 -146.5q0 -25 -5 -65h-375zM277 496q-91 0 -143 -58t-55 -162h356q2 17 2 44q0 84 -42 130t-118 46zM170 631q-9 0 -15 6
t-6 17q0 10 5.5 16t15.5 6t15.5 -6t5.5 -16q0 -11 -6 -17t-15 -6zM376 631q-9 0 -15 6t-6 17q0 10 5.5 16t15.5 6t15.5 -6t5.5 -16q0 -11 -6 -17t-15 -6z" />
    <glyph glyph-name="uni0452" unicode="&#x452;" horiz-adv-x="569" 
d="M131 587v-238q92 75 196 75q93 0 134 -68t41 -222q0 -179 -52 -265.5t-158 -86.5q-23 0 -49 6v20q20 -4 51 -4q95 0 139.5 79.5t44.5 250.5q0 100 -15.5 158t-49 84t-88.5 26q-99 0 -194 -75v-327h-22v587h-97v21h97v132h22v-132h217v-21h-217z" />
    <glyph glyph-name="uni0453" unicode="&#x453;" horiz-adv-x="376" 
d="M88 0v503h265v-21h-243v-482h-22zM210 603l91 145h30l-98 -145h-23z" />
    <glyph glyph-name="uni0454" unicode="&#x454;" horiz-adv-x="445" 
d="M80 247q0 -125 44.5 -180.5t145.5 -55.5q36 0 68 5.5t70 18.5v-20q-68 -26 -139 -26q-110 0 -161.5 63t-51.5 198t52 198t162 63q70 0 130 -21v-20q-56 19 -129 19q-98 0 -143.5 -51.5t-47.5 -168.5h258v-22h-258z" />
    <glyph glyph-name="uni0455" unicode="&#x455;" horiz-adv-x="418" 
d="M204 -13q-85 0 -154 39v21q45 -21 80 -29.5t74 -8.5q74 0 112.5 30t38.5 88q0 38 -20.5 60t-73.5 41l-87 32q-62 22 -88.5 49.5t-26.5 70.5q0 60 43 98t112 38q77 0 139 -34v-21q-75 33 -140 33q-62 0 -96.5 -30t-34.5 -83q0 -37 23 -59.5t82 -43.5l87 -31
q39 -13 61.5 -29.5t32.5 -38.5t10 -52q0 -67 -45.5 -103.5t-128.5 -36.5z" />
    <glyph glyph-name="uni0456" unicode="&#x456;" horiz-adv-x="206" 
d="M92 0v503h22v-503h-22zM103 630q-10 0 -16 6.5t-6 16.5t6 16.5t16 6.5t16 -6.5t6 -16.5t-6 -16.5t-16 -6.5z" />
    <glyph glyph-name="uni0457" unicode="&#x457;" horiz-adv-x="206" 
d="M92 0v503h22v-503h-22zM0 631q-9 0 -15 6t-6 17q0 10 5.5 16t15.5 6t15.5 -6t5.5 -16q0 -11 -6 -17t-15 -6zM206 631q-9 0 -15 6t-6 17q0 10 5.5 16t15.5 6t15.5 -6t5.5 -16q0 -11 -6 -17t-15 -6z" />
    <glyph glyph-name="uni0458" unicode="&#x458;" horiz-adv-x="206" 
d="M114 -136q0 -82 -80 -82q-31 0 -59 10v19q29 -8 59 -8q58 0 58 61v639h22v-639zM103 630q-10 0 -16 6.5t-6 16.5t6 16.5t16 6.5t16 -6.5t6 -16.5t-6 -16.5t-16 -6.5z" />
    <glyph glyph-name="uni0459" unicode="&#x459;" horiz-adv-x="757" 
d="M406 503v-209h161q74 0 115 -38.5t41 -107.5q0 -71 -40 -109.5t-117 -38.5h-182v482h-196q-13 -183 -32.5 -287.5t-49 -150.5t-72.5 -46q-3 0 -6.5 0.5t-7.5 1.5v20h6q41 0 67.5 46.5t43.5 148.5t29 274l1 14h239zM406 273v-252h159q68 0 101 31.5t33 95.5q0 60 -34 92.5
t-99 32.5h-160z" />
    <glyph glyph-name="uni045A" unicode="&#x45a;" horiz-adv-x="785" 
d="M393 267h-283v-267h-22v503h22v-215h283v215h22v-215h180q73 0 114.5 -38t41.5 -105q0 -70 -40.5 -107.5t-116.5 -37.5h-201v267zM415 267v-246h178q134 0 134 124q0 58 -34.5 90t-98.5 32h-179z" />
    <glyph glyph-name="uni045B" unicode="&#x45b;" horiz-adv-x="582" 
d="M478 0v268q0 134 -128 134q-53 0 -110.5 -20t-107.5 -55v-327h-22v587h-98v21h98v132h22v-132h216v-21h-216v-238q51 36 108 55.5t113 19.5q71 0 109 -38t38 -111v-275h-22z" />
    <glyph glyph-name="uni045C" unicode="&#x45c;" horiz-adv-x="451" 
d="M88 0v503h22v-242l285 242h32l-293 -249l311 -254h-32l-303 246v-246h-22zM246 603l91 145h30l-98 -145h-23z" />
    <glyph glyph-name="uni045D" unicode="&#x45d;" horiz-adv-x="572" 
d="M462 0v469l-352 -469h-22v503h22v-469l352 469h22v-503h-22zM273 603l-98 145h30l91 -145h-23z" />
    <glyph glyph-name="uni045E" unicode="&#x45e;" horiz-adv-x="471" 
d="M207 -100q-28 -67 -56.5 -92.5t-69.5 -25.5q-30 0 -55 11v18q29 -8 52 -8q36 0 59.5 23t48.5 83l38 91l-210 503h26l196 -476l196 476h25zM235 602q-63 0 -101 34t-38 91q0 10 1 21h21v-19q0 -49 32.5 -78t84.5 -29t84.5 29t32.5 78v19h21q1 -11 1 -21q0 -57 -38 -91
t-101 -34z" />
    <glyph glyph-name="uni045F" unicode="&#x45f;" horiz-adv-x="557" 
d="M268 -164v164h-180v503h22v-482h337v482h22v-503h-180v-164h-21z" />
    <glyph glyph-name="uni0462" unicode="&#x462;" horiz-adv-x="647" 
d="M30 590h151v103h23v-103h227v-22h-227v-196h218q91 0 143.5 -50t52.5 -135t-53 -136t-143 -51h-241v568h-151v22zM421 22q80 0 126.5 44t46.5 121q0 76 -46 119.5t-127 43.5h-217v-328h217z" />
    <glyph glyph-name="uni0463" unicode="&#x463;" horiz-adv-x="549" 
d="M157 486v143h22v-143h185v-21h-185v-171h180q74 0 115 -38.5t41 -107.5q0 -71 -40 -109.5t-117 -38.5h-201v465h-135v21h135zM179 273v-252h178q68 0 101 31.5t33 95.5q0 60 -34 92.5t-99 32.5h-179z" />
    <glyph glyph-name="uni0472" unicode="&#x472;" horiz-adv-x="758" 
d="M686 345q0 -171 -80.5 -265.5t-226.5 -94.5t-226.5 94.5t-80.5 265.5t80.5 265.5t226.5 94.5t226.5 -94.5t80.5 -265.5zM379 8q89 0 151.5 38t96 113t34.5 182h-564q1 -160 74.5 -246.5t207.5 -86.5zM379 682q-131 0 -204.5 -83t-77.5 -236h564q-5 153 -78 236t-204 83z
" />
    <glyph glyph-name="uni0473" unicode="&#x473;" horiz-adv-x="558" 
d="M279 -13q-106 0 -164.5 69.5t-58.5 195.5q0 125 58.5 194.5t164.5 69.5t164.5 -69.5t58.5 -195.5q0 -125 -58.5 -194.5t-164.5 -69.5zM279 9q95 0 146.5 61.5t52.5 176.5h-398q1 -115 52.5 -176.5t146.5 -61.5zM279 494q-93 0 -144.5 -58.5t-54.5 -168.5h398
q-4 110 -55.5 168.5t-143.5 58.5z" />
    <glyph glyph-name="uni0474" unicode="&#x474;" horiz-adv-x="613" 
d="M289 0l-272 693h25l258 -660l194 555q22 64 47.5 89t67.5 25q21 0 34 -4v-21q-20 2 -33 2q-35 0 -55 -21t-41 -81l-202 -577h-23z" />
    <glyph glyph-name="uni0475" unicode="&#x475;" horiz-adv-x="491" 
d="M212 0l-202 503h25l189 -477l158 417q14 36 31 51t43 15q21 0 36 -6v-20q-17 4 -35 4q-19 0 -31 -12.5t-24 -43.5l-167 -431h-23z" />
    <glyph glyph-name="uni0490" unicode="&#x490;" horiz-adv-x="471" 
d="M94 0v693h334v129h22v-151h-333v-671h-23z" />
    <glyph glyph-name="uni0491" unicode="&#x491;" horiz-adv-x="373" 
d="M88 0v503h241v115h21v-136h-240v-482h-22z" />
    <glyph glyph-name="Wgrave" unicode="&#x1e80;" horiz-adv-x="894" 
d="M616 0l-172 639l-170 -639h-26l-223 693h24l211 -662l171 637h28l171 -640l215 665h24l-227 -693h-26zM437 769l-100 112h35l91 -112h-26z" />
    <glyph glyph-name="wgrave" unicode="&#x1e81;" horiz-adv-x="728" 
d="M508 0l-147 472l-144 -472h-25l-176 503h25l164 -477l143 477h26l147 -479l167 479h24l-179 -503h-25zM348 603l-98 145h30l91 -145h-23z" />
    <glyph glyph-name="Wacute" unicode="&#x1e82;" horiz-adv-x="894" 
d="M616 0l-172 639l-170 -639h-26l-223 693h24l211 -662l171 637h28l171 -640l215 665h24l-227 -693h-26zM431 769l91 112h35l-100 -112h-26z" />
    <glyph glyph-name="wacute" unicode="&#x1e83;" horiz-adv-x="728" 
d="M508 0l-147 472l-144 -472h-25l-176 503h25l164 -477l143 477h26l147 -479l167 479h24l-179 -503h-25zM351 603l91 145h30l-98 -145h-23z" />
    <glyph glyph-name="Wdieresis" unicode="&#x1e84;" horiz-adv-x="894" 
d="M616 0l-172 639l-170 -639h-26l-223 693h24l211 -662l171 637h28l171 -640l215 665h24l-227 -693h-26zM345 802q-22 0 -22 24t22 24t22 -24t-22 -24zM549 802q-22 0 -22 24t22 24t22 -24t-22 -24z" />
    <glyph glyph-name="wdieresis" unicode="&#x1e85;" horiz-adv-x="728" 
d="M508 0l-147 472l-144 -472h-25l-176 503h25l164 -477l143 477h26l147 -479l167 479h24l-179 -503h-25zM258 631q-9 0 -15 6t-6 17q0 10 5.5 16t15.5 6t15.5 -6t5.5 -16q0 -11 -6 -17t-15 -6zM464 631q-9 0 -15 6t-6 17q0 10 5.5 16t15.5 6t15.5 -6t5.5 -16q0 -11 -6 -17
t-15 -6z" />
    <glyph glyph-name="uni1E9E" unicode="&#x1e9e;" horiz-adv-x="643" 
d="M339 374q28 5 53 5q93 0 147.5 -52t54.5 -141q0 -92 -57 -146.5t-155 -54.5q-69 0 -135 24v23q67 -24 134 -24q88 0 138 47t50 130q0 82 -49 127.5t-136 45.5q-34 0 -71 -8v22l184 272q-32 18 -78 28.5t-90 10.5q-106 0 -162.5 -60t-56.5 -174v-449h-23v449
q0 124 63.5 190.5t181.5 66.5q104 0 188 -49v-18z" />
    <glyph glyph-name="Ygrave" unicode="&#x1ef2;" horiz-adv-x="565" 
d="M269 0v253l-246 440h26l233 -418l234 418h26l-250 -442v-251h-23zM272 769l-100 112h35l91 -112h-26z" />
    <glyph glyph-name="ygrave" unicode="&#x1ef3;" horiz-adv-x="471" 
d="M207 -100q-28 -67 -56.5 -92.5t-69.5 -25.5q-30 0 -55 11v18q29 -8 52 -8q36 0 59.5 23t48.5 83l38 91l-210 503h26l196 -476l196 476h25zM222 603l-98 145h30l91 -145h-23z" />
    <glyph glyph-name="uni2000" unicode="&#x2000;" horiz-adv-x="500" 
 />
    <glyph glyph-name="uni2001" unicode="&#x2001;" horiz-adv-x="1000" 
 />
    <glyph glyph-name="uni2002" unicode="&#x2002;" horiz-adv-x="500" 
 />
    <glyph glyph-name="uni2003" unicode="&#x2003;" horiz-adv-x="1000" 
 />
    <glyph glyph-name="uni2004" unicode="&#x2004;" horiz-adv-x="333" 
 />
    <glyph glyph-name="uni2005" unicode="&#x2005;" horiz-adv-x="250" 
 />
    <glyph glyph-name="uni2006" unicode="&#x2006;" horiz-adv-x="166" 
 />
    <glyph glyph-name="uni2007" unicode="&#x2007;" 
 />
    <glyph glyph-name="uni2008" unicode="&#x2008;" horiz-adv-x="192" 
 />
    <glyph glyph-name="uni2009" unicode="&#x2009;" horiz-adv-x="200" 
 />
    <glyph glyph-name="uni200A" unicode="&#x200a;" horiz-adv-x="50" 
 />
    <glyph glyph-name="uni200B" unicode="&#x200b;" horiz-adv-x="0" 
 />
    <glyph glyph-name="uni2010" unicode="&#x2010;" horiz-adv-x="376" 
d="M56 249v21h264v-21h-264z" />
    <glyph glyph-name="uni2012" unicode="&#x2012;" 
d="M43 342v20h500v-20h-500z" />
    <glyph glyph-name="endash" unicode="&#x2013;" horiz-adv-x="500" 
d="M0 252v20h500v-20h-500z" />
    <glyph glyph-name="emdash" unicode="&#x2014;" horiz-adv-x="1000" 
d="M0 250v21h1000v-21h-1000z" />
    <glyph glyph-name="uni2015" unicode="&#x2015;" horiz-adv-x="1000" 
d="M0 250v21h1000v-21h-1000z" />
    <glyph glyph-name="quoteleft" unicode="&#x2018;" horiz-adv-x="192" 
d="M125 693l-35 -190h-11q-12 0 -12 11q0 5 6 33l34 146h18z" />
    <glyph glyph-name="quoteright" unicode="&#x2019;" horiz-adv-x="192" 
d="M67 503l35 190h11q12 0 12 -11q0 -4 -6 -33l-34 -146h-18z" />
    <glyph glyph-name="quotesinglbase" unicode="&#x201a;" horiz-adv-x="192" 
d="M67 -126l35 190h11q12 0 12 -11q0 -4 -6 -33l-34 -146h-18z" />
    <glyph glyph-name="uni201B" unicode="&#x201b;" horiz-adv-x="192" 
d="M107 503l-34 146q-6 29 -6 33q0 11 12 11h11l35 -190h-18z" />
    <glyph glyph-name="quotedblleft" unicode="&#x201c;" horiz-adv-x="285" 
d="M125 693l-35 -190h-11q-12 0 -12 11q0 5 6 33l34 146h18zM218 693l-35 -190h-11q-12 0 -12 11q0 5 6 33l34 146h18z" />
    <glyph glyph-name="quotedblright" unicode="&#x201d;" horiz-adv-x="285" 
d="M67 503l35 190h11q12 0 12 -11q0 -4 -6 -33l-34 -146h-18zM160 503l35 190h11q12 0 12 -11q0 -4 -6 -33l-34 -146h-18z" />
    <glyph glyph-name="quotedblbase" unicode="&#x201e;" horiz-adv-x="285" 
d="M67 -126l35 190h11q12 0 12 -11q0 -4 -6 -33l-34 -146h-18zM160 -126l35 190h11q12 0 12 -11q0 -4 -6 -33l-34 -146h-18z" />
    <glyph glyph-name="uni201F" unicode="&#x201f;" horiz-adv-x="285" 
d="M107 503l-34 146q-6 29 -6 33q0 11 12 11h11l35 -190h-18zM200 503l-34 146q-6 29 -6 33q0 11 12 11h11l35 -190h-18z" />
    <glyph glyph-name="dagger" unicode="&#x2020;" horiz-adv-x="434" 
d="M228 496v-622h-22v622l-174 -2v23l174 -3v226h22v-226l174 3v-23z" />
    <glyph glyph-name="daggerdbl" unicode="&#x2021;" horiz-adv-x="434" 
d="M206 -126l2 226l-176 -3v23l176 -3l-3 190l3 190l-176 -3v23l176 -3l-2 226h22l-2 -226l176 3v-23l-176 3l3 -190l-3 -190l176 3v-23l-176 3l2 -226h-22z" />
    <glyph glyph-name="bullet" unicode="&#x2022;" horiz-adv-x="312" 
d="M156 155q-45 0 -75 30t-30 74q0 45 30 75t75 30t75 -30t30 -74q0 -45 -30 -75t-75 -30z" />
    <glyph glyph-name="ellipsis" unicode="&#x2026;" horiz-adv-x="1000" 
d="M167 -4q-11 0 -17 6.5t-6 17.5t6 17.5t17 6.5t17 -6.5t6 -17.5t-6 -17.5t-17 -6.5zM500 -4q-11 0 -17 6.5t-6 17.5t6 17.5t17 6.5t17 -6.5t6 -17.5t-6 -17.5t-17 -6.5zM833 -4q-11 0 -17 6.5t-6 17.5t6 17.5t17 6.5t17 -6.5t6 -17.5t-6 -17.5t-17 -6.5z" />
    <glyph glyph-name="perthousand" unicode="&#x2030;" horiz-adv-x="1335" 
d="M293 0l336 693h24l-336 -693h-24zM563 190q0 97 38.5 147t112.5 50t112.5 -50t38.5 -147t-38.5 -147.5t-112.5 -50.5t-112.5 50.5t-38.5 147.5zM585 190q0 -87 32.5 -132t96.5 -45t96.5 45t32.5 132q0 86 -32.5 131t-96.5 45t-96.5 -45t-32.5 -131zM958 190
q0 97 38.5 147t112.5 50t112.5 -50t38.5 -147t-38.5 -147.5t-112.5 -50.5t-112.5 50.5t-38.5 147.5zM980 190q0 -87 32.5 -132t96.5 -45t96.5 45t32.5 132q0 86 -32.5 131t-96.5 45t-96.5 -45t-32.5 -131zM75 504q0 97 38.5 147t112.5 50t112.5 -50t38.5 -147t-38.5 -147.5
t-112.5 -50.5t-112.5 50.5t-38.5 147.5zM97 504q0 -87 32.5 -132t96.5 -45t96.5 45t32.5 132q0 86 -32.5 131t-96.5 45t-96.5 -45t-32.5 -131z" />
    <glyph glyph-name="minute" unicode="&#x2032;" horiz-adv-x="210" 
d="M81 478h-17l76 216q6 3 14 3t12 -3z" />
    <glyph glyph-name="second" unicode="&#x2033;" horiz-adv-x="309" 
d="M81 478h-17l76 216q6 3 14 3t12 -3zM180 478h-17l76 216q6 3 14 3t12 -3z" />
    <glyph glyph-name="guilsinglleft" unicode="&#x2039;" horiz-adv-x="274" 
d="M189 51l-136 208l136 208h25l-133 -208l133 -208h-25z" />
    <glyph glyph-name="guilsinglright" unicode="&#x203a;" horiz-adv-x="274" 
d="M85 467l136 -208l-136 -208h-25l133 208l-133 208h25z" />
    <glyph glyph-name="uni203D" unicode="&#x203d;" horiz-adv-x="412" 
d="M183 363q85 40 125 86.5t40 105.5q0 60 -38.5 94t-106.5 34q-82 0 -161 -49v22q35 24 77 37t84 13q78 0 123.5 -40.5t45.5 -110.5q0 -135 -189 -215l-1 -165h-20l-2 387q5 3 12 3q8 0 12 -3zM172 -4q-11 0 -17 6.5t-6 17.5t6 17.5t17 6.5t17 -6.5t6 -17.5t-6 -17.5
t-17 -6.5z" />
    <glyph glyph-name="fraction" unicode="&#x2044;" horiz-adv-x="0" 
d="M-180 0l336 693h24l-336 -693h-24z" />
    <glyph glyph-name="uni2052" unicode="&#x2052;" 
d="M112 -144l338 898h24l-338 -898h-24zM165 705q-11 0 -17 6.5t-6 17.5t6 17.5t17 6.5t17 -6.5t6 -17.5t-6 -17.5t-17 -6.5zM421 -143q-11 0 -17 6.5t-6 17.5t6 17.5t17 6.5t17 -6.5t6 -17.5t-6 -17.5t-17 -6.5z" />
    <glyph glyph-name="uni2070" unicode="&#x2070;" horiz-adv-x="410" 
d="M54 580q0 97 38.5 147t112.5 50t112.5 -50t38.5 -147t-38.5 -147.5t-112.5 -50.5t-112.5 50.5t-38.5 147.5zM76 580q0 -87 32.5 -132t96.5 -45t96.5 45t32.5 132q0 86 -32.5 131t-96.5 45t-96.5 -45t-32.5 -131z" />
    <glyph glyph-name="uni2074" unicode="&#x2074;" horiz-adv-x="410" 
d="M272 390v84h-214v18l217 283h18v-281h63v-20h-63v-84h-21zM84 494h188v246z" />
    <glyph glyph-name="uni2075" unicode="&#x2075;" horiz-adv-x="410" 
d="M196 382q-66 0 -111 24v20q44 -23 111 -23q60 0 92.5 24.5t32.5 70.5t-30 70t-88 24q-54 0 -97 -10v15l11 172h200v-20h-179l-10 -144q32 7 75 7q66 0 103 -30t37 -84q0 -53 -40 -84.5t-107 -31.5z" />
    <glyph glyph-name="uni2076" unicode="&#x2076;" horiz-adv-x="410" 
d="M231 756q-66 0 -99.5 -44t-36.5 -133q61 41 119 41q59 0 94 -32t35 -86q0 -53 -35 -86.5t-90 -33.5q-69 0 -107 48.5t-38 138.5q0 100 41 154t117 54q24 0 42 -4t39 -15v-20q-40 18 -81 18zM214 599q-60 0 -119 -41q6 -155 123 -155q47 0 75 27t28 72q0 46 -28 71.5
t-79 25.5z" />
    <glyph glyph-name="uni2077" unicode="&#x2077;" horiz-adv-x="410" 
d="M144 390l170 359h-237v20h260v-17l-169 -362h-24z" />
    <glyph glyph-name="uni2078" unicode="&#x2078;" horiz-adv-x="410" 
d="M204 777q53 0 87.5 -28t34.5 -71q0 -30 -19.5 -58t-54.5 -45q49 -18 69 -40t20 -57q0 -42 -38.5 -69t-98.5 -27q-64 0 -100 27.5t-36 74.5q0 70 81 108q-32 14 -49 36t-17 50q0 44 33.5 71.5t87.5 27.5zM169 584q-38 -16 -58.5 -42t-20.5 -58q0 -37 31 -59t83 -22
q53 0 84 20t31 55q0 31 -21.5 50t-76.5 38zM105 678q0 -28 18.5 -46t62.5 -34l48 -16q33 18 51.5 43t18.5 53q0 34 -28.5 56t-71.5 22q-45 0 -72 -21.5t-27 -56.5z" />
    <glyph glyph-name="uni2079" unicode="&#x2079;" horiz-adv-x="410" 
d="M82 430q49 -27 103 -27q120 0 129 170q-24 -20 -55.5 -31.5t-61.5 -11.5q-59 0 -93.5 33.5t-34.5 90.5q0 52 37.5 87.5t92.5 35.5q65 0 100.5 -48t35.5 -137q0 -103 -38.5 -156.5t-111.5 -53.5q-28 0 -55.5 7.5t-47.5 20.5v20zM197 551q62 0 117 43q-2 162 -115 162
q-48 0 -78 -28.5t-30 -73.5q0 -49 27.5 -76t78.5 -27z" />
    <glyph glyph-name="uni207A" unicode="&#x207a;" horiz-adv-x="410" 
d="M194 459v116h-111v20h111v115h22v-115h111v-20h-111v-116h-22z" />
    <glyph glyph-name="uni207B" unicode="&#x207b;" horiz-adv-x="410" 
d="M83 574v21h244v-21h-244z" />
    <glyph glyph-name="uni207C" unicode="&#x207c;" horiz-adv-x="410" 
d="M83 506v21h244v-21h-244zM83 642v21h244v-21h-244z" />
    <glyph glyph-name="uni207D" unicode="&#x207d;" horiz-adv-x="189" 
d="M132 333q-38 54 -58 118t-20 129t20.5 129.5t57.5 116.5h25q-38 -51 -59 -116t-21 -130t21 -130t59 -117h-25z" />
    <glyph glyph-name="uni207E" unicode="&#x207e;" horiz-adv-x="189" 
d="M57 826q38 -54 58 -118t20 -129t-20.5 -129.5t-57.5 -116.5h-25q38 51 59 116t21 130t-21 130t-59 117h25z" />
    <glyph glyph-name="uni207F" unicode="&#x207f;" horiz-adv-x="409" 
d="M334 390v276q0 90 -90 90q-41 0 -84.5 -17t-82.5 -48v-301h-22v379h18l4 -56q40 30 84 46.5t84 16.5q54 0 82.5 -28t28.5 -81v-277h-22z" />
    <glyph glyph-name="uni2080" unicode="&#x2080;" horiz-adv-x="410" 
d="M54 86q0 97 38.5 147t112.5 50t112.5 -50t38.5 -147t-38.5 -147.5t-112.5 -50.5t-112.5 50.5t-38.5 147.5zM76 86q0 -87 32.5 -132t96.5 -45t96.5 45t32.5 132q0 86 -32.5 131t-96.5 45t-96.5 -45t-32.5 -131z" />
    <glyph glyph-name="uni2081" unicode="&#x2081;" horiz-adv-x="410" 
d="M232 -104v357l-129 -52v18l133 56h18v-379h-22z" />
    <glyph glyph-name="uni2082" unicode="&#x2082;" horiz-adv-x="410" 
d="M89 241q51 42 112 42q50 0 81 -28.5t31 -74.5q0 -50 -48.5 -112t-155.5 -152h222v-20h-254v19q81 69 127.5 117t66.5 83t20 65q0 36 -25 59t-65 23q-53 0 -112 -41v20z" />
    <glyph glyph-name="uni2083" unicode="&#x2083;" horiz-adv-x="410" 
d="M190 -112q-63 0 -113 25v20q30 -14 54.5 -19t58.5 -5q58 0 91.5 25.5t33.5 69.5q0 43 -30 65t-88 22q-36 0 -60 -3v18l146 149h-204v20h234v-17l-148 -149q20 2 42 2q62 0 96 -28t34 -79q0 -53 -40 -84.5t-107 -31.5z" />
    <glyph glyph-name="uni2084" unicode="&#x2084;" horiz-adv-x="410" 
d="M272 -104v84h-214v18l217 283h18v-281h63v-20h-63v-84h-21zM84 0h188v246z" />
    <glyph glyph-name="uni2085" unicode="&#x2085;" horiz-adv-x="410" 
d="M196 -112q-66 0 -111 24v20q44 -23 111 -23q60 0 92.5 24.5t32.5 70.5t-30 70t-88 24q-54 0 -97 -10v15l11 172h200v-20h-179l-10 -144q32 7 75 7q66 0 103 -30t37 -84q0 -53 -40 -84.5t-107 -31.5z" />
    <glyph glyph-name="uni2086" unicode="&#x2086;" horiz-adv-x="410" 
d="M231 262q-66 0 -99.5 -44t-36.5 -133q61 41 119 41q59 0 94 -32t35 -86q0 -53 -35 -86.5t-90 -33.5q-69 0 -107 48.5t-38 138.5q0 100 41 154t117 54q24 0 42 -4t39 -15v-20q-40 18 -81 18zM214 105q-60 0 -119 -41q6 -155 123 -155q47 0 75 27t28 72q0 46 -28 71.5
t-79 25.5z" />
    <glyph glyph-name="uni2087" unicode="&#x2087;" horiz-adv-x="410" 
d="M144 -104l170 359h-237v20h260v-17l-169 -362h-24z" />
    <glyph glyph-name="uni2088" unicode="&#x2088;" horiz-adv-x="410" 
d="M204 283q53 0 87.5 -28t34.5 -71q0 -30 -19.5 -58t-54.5 -45q49 -18 69 -40t20 -57q0 -42 -38.5 -69t-98.5 -27q-64 0 -100 27.5t-36 74.5q0 70 81 108q-32 14 -49 36t-17 50q0 44 33.5 71.5t87.5 27.5zM169 90q-38 -16 -58.5 -42t-20.5 -58q0 -37 31 -59t83 -22
q53 0 84 20t31 55q0 31 -21.5 50t-76.5 38zM105 184q0 -28 18.5 -46t62.5 -34l48 -16q33 18 51.5 43t18.5 53q0 34 -28.5 56t-71.5 22q-45 0 -72 -21.5t-27 -56.5z" />
    <glyph glyph-name="uni2089" unicode="&#x2089;" horiz-adv-x="410" 
d="M82 -64q49 -27 103 -27q120 0 129 170q-24 -20 -55.5 -31.5t-61.5 -11.5q-59 0 -93.5 33.5t-34.5 90.5q0 52 37.5 87.5t92.5 35.5q65 0 100.5 -48t35.5 -137q0 -103 -38.5 -156.5t-111.5 -53.5q-28 0 -55.5 7.5t-47.5 20.5v20zM197 57q62 0 117 43q-2 162 -115 162
q-48 0 -78 -28.5t-30 -73.5q0 -49 27.5 -76t78.5 -27z" />
    <glyph glyph-name="uni208A" unicode="&#x208a;" horiz-adv-x="410" 
d="M194 -35v116h-111v20h111v115h22v-115h111v-20h-111v-116h-22z" />
    <glyph glyph-name="uni208B" unicode="&#x208b;" horiz-adv-x="410" 
d="M83 80v21h244v-21h-244z" />
    <glyph glyph-name="uni208C" unicode="&#x208c;" horiz-adv-x="410" 
d="M83 13v21h244v-21h-244zM83 148v21h244v-21h-244z" />
    <glyph glyph-name="uni208D" unicode="&#x208d;" horiz-adv-x="189" 
d="M132 -161q-38 54 -58 118t-20 129t20.5 129.5t57.5 116.5h25q-38 -51 -59 -116t-21 -130t21 -130t59 -117h-25z" />
    <glyph glyph-name="uni208E" unicode="&#x208e;" horiz-adv-x="189" 
d="M57 332q38 -54 58 -118t20 -129t-20.5 -129.5t-57.5 -116.5h-25q38 51 59 116t21 130t-21 130t-59 117h25z" />
    <glyph glyph-name="Euro" unicode="&#x20ac;" 
d="M394 -10q-119 0 -189.5 68t-86.5 201h-70v22h68q-2 36 -2 57q0 35 3 68h-69v22h71q18 133 90 202t193 69q78 0 132 -26v-22q-62 25 -132 25q-225 0 -258 -248h311l-6 -22h-307q-3 -33 -3 -68q0 -39 2 -57h279l-6 -22h-271q15 -121 78.5 -183.5t172.5 -62.5q77 0 144 28
v-22q-69 -29 -144 -29z" />
    <glyph glyph-name="uni20B9" unicode="&#x20b9;" 
d="M404 0l-313 300v19h51q257 0 263 169h-314v22h313q-5 78 -58 119.5t-149 41.5h-106v22h437l-4 -22h-211q110 -41 116 -161h67l-4 -22h-62q-4 -93 -78 -142t-210 -49h-18l311 -297h-31z" />
    <glyph glyph-name="uni20BA" unicode="&#x20ba;" 
d="M170 240v-219h34q298 0 298 253v17h22v-17q0 -136 -80.5 -205t-239.5 -69h-56v230l-92 -43v22l92 43v138l-92 -43v22l92 43v281h22v-271l218 103v-22l-218 -103v-138l218 103v-22z" />
    <glyph glyph-name="uni2105" unicode="&#x2105;" horiz-adv-x="932" 
d="M855 193q0 85 -38.5 129.5t-110.5 44.5t-110.5 -44.5t-38.5 -129.5t39.5 -133t109.5 -48t109.5 47.5t39.5 133.5zM706 -8q-81 0 -126 53t-45 148q0 92 45 143t126 51t126 -51t45 -143q0 -95 -45 -148t-126 -53zM310 322q-40 -16 -89 -16q-79 0 -123 51.5t-44 145.5
q0 95 44 146.5t124 51.5q47 0 85 -16v-19q-38 15 -85 15q-69 0 -107.5 -45.5t-38.5 -125.5v-11q0 -81 38.5 -127t106.5 -46q47 0 89 15v-19zM269 0l336 693h24l-336 -693h-24z" />
    <glyph glyph-name="uni2113" unicode="&#x2113;" horiz-adv-x="343" 
d="M41 165l76 77v388q0 58 24 91t65 33q44 0 69 -38t25 -107q0 -108 -38 -196t-123 -178v-144q0 -84 62 -84q20 0 37 4t41 14v-20q-37 -19 -79 -19q-40 0 -61.5 26.5t-21.5 75.5v125l-76 -76v28zM139 264q74 80 106.5 161t32.5 184q0 58 -19 91t-52 33q-68 0 -68 -106v-363z
" />
    <glyph glyph-name="uni2116" unicode="&#x2116;" horiz-adv-x="1006" 
d="M662 520q0 84 39.5 130.5t108.5 46.5t108.5 -46.5t39.5 -130.5t-39 -131t-109 -47t-109 47t-39 131zM684 520q0 -75 32.5 -116.5t93.5 -41.5t93.5 41.5t32.5 116.5t-33 116t-93 41t-93 -41t-33 -116zM117 655v-655h-23v693h24l418 -656v656h23v-693h-24zM953 266v-20
h-286v20h286z" />
    <glyph glyph-name="uni2117" unicode="&#x2117;" horiz-adv-x="764" 
d="M382 707q97 0 176 -44.5t126 -127.5t47 -190q0 -101 -43 -183t-123 -130.5t-183 -48.5q-97 0 -176 44.5t-126 127.5t-47 190q0 101 43 183t123 130.5t183 48.5zM382 685q-93 0 -166.5 -41.5t-116 -119t-42.5 -179.5q0 -97 40 -174t114 -121.5t171 -44.5q93 0 166.5 41.5
t116 119t42.5 179.5q0 97 -40 174t-114 121.5t-171 44.5zM288 151v386h129q50 0 80.5 -33t30.5 -87t-30 -87t-80 -33h-108v-146h-22zM310 317h106q43 0 66 26t23 74q0 47 -24 73.5t-66 26.5h-105v-200z" />
    <glyph glyph-name="trademark" unicode="&#x2122;" horiz-adv-x="792" 
d="M404 693l148 -258l148 258h25v-384h-21v348l-142 -246h-20l-142 246v-348h-21v384h25zM154 309v364h-134v20h287v-20h-132v-364h-21z" />
    <glyph glyph-name="uni2126" unicode="&#x2126;" horiz-adv-x="746" 
d="M373 682q-135 0 -205.5 -80t-70.5 -235q0 -115 48.5 -206t135.5 -139v-22h-231v22h192q-81 54 -125.5 144.5t-44.5 200.5q0 163 77.5 250.5t223.5 87.5t223.5 -87.5t77.5 -250.5q0 -110 -44.5 -200t-126.5 -145h193v-22h-231v22q87 48 135.5 139t48.5 206
q0 155 -70.5 235t-205.5 80z" />
    <glyph glyph-name="estimated" unicode="&#x212e;" horiz-adv-x="882" 
d="M198 134q0 -12 9 -22q84 -96 234 -96q74 0 138 28t107 80h62q-50 -63 -130.5 -98t-176.5 -35q-115 0 -203.5 46.5t-136 126.5t-47.5 180q0 105 52 187t139.5 126.5t194.5 44.5q115 0 203.5 -46.5t136.5 -126t48 -178.5v-15h-624q-6 0 -6 -6v-196zM679 358q6 0 6 6v193
q0 18 -9 25q-45 45 -107 70t-129 25q-146 0 -234 -98q-8 -10 -8 -25v-190q0 -6 6 -6h475z" />
    <glyph glyph-name="oneseventh" unicode="&#x2150;" horiz-adv-x="940" 
d="M252 0l336 693h24l-336 -693h-24zM674 0l170 359h-237v20h260v-17l-169 -362h-24zM232 314v357l-129 -52v18l133 56h18v-379h-22z" />
    <glyph glyph-name="oneninth" unicode="&#x2151;" horiz-adv-x="940" 
d="M274 0l336 693h24l-336 -693h-24zM612 40q49 -27 103 -27q120 0 129 170q-24 -20 -55.5 -31.5t-61.5 -11.5q-59 0 -93.5 33.5t-34.5 90.5q0 52 37.5 87.5t92.5 35.5q65 0 100.5 -48t35.5 -137q0 -103 -38.5 -156.5t-111.5 -53.5q-28 0 -55.5 7.5t-47.5 20.5v20zM727 161
q62 0 117 43q-2 162 -115 162q-48 0 -78 -28.5t-30 -73.5q0 -49 27.5 -76t78.5 -27zM232 314v357l-129 -52v18l133 56h18v-379h-22z" />
    <glyph glyph-name="onethird" unicode="&#x2153;" horiz-adv-x="940" 
d="M259 0l336 693h24l-336 -693h-24zM720 -8q-63 0 -113 25v20q30 -14 54.5 -19t58.5 -5q58 0 91.5 25.5t33.5 69.5q0 43 -30 65t-88 22q-36 0 -60 -3v18l146 149h-204v20h234v-17l-148 -149q20 2 42 2q62 0 96 -28t34 -79q0 -53 -40 -84.5t-107 -31.5zM232 314v357
l-129 -52v18l133 56h18v-379h-22z" />
    <glyph glyph-name="twothirds" unicode="&#x2154;" horiz-adv-x="940" 
d="M288 0l336 693h24l-336 -693h-24zM720 -8q-63 0 -113 25v20q30 -14 54.5 -19t58.5 -5q58 0 91.5 25.5t33.5 69.5q0 43 -30 65t-88 22q-36 0 -60 -3v18l146 149h-204v20h234v-17l-148 -149q20 2 42 2q62 0 96 -28t34 -79q0 -53 -40 -84.5t-107 -31.5zM89 659q51 42 112 42
q50 0 81 -28.5t31 -74.5q0 -50 -48.5 -112t-155.5 -152h222v-20h-254v19q81 69 127.5 117t66.5 83t20 65q0 36 -25 59t-65 23q-53 0 -112 -41v20z" />
    <glyph glyph-name="onefifth" unicode="&#x2155;" horiz-adv-x="940" 
d="M275 0l336 693h24l-336 -693h-24zM725 -8q-66 0 -111 24v20q44 -23 111 -23q60 0 92.5 24.5t32.5 70.5t-30 70t-88 24q-54 0 -97 -10v15l11 172h200v-20h-179l-10 -144q32 7 75 7q66 0 103 -30t37 -84q0 -53 -40 -84.5t-107 -31.5zM232 314v357l-129 -52v18l133 56h18
v-379h-22z" />
    <glyph glyph-name="twofifths" unicode="&#x2156;" horiz-adv-x="940" 
d="M310 0l336 693h24l-336 -693h-24zM725 -8q-66 0 -111 24v20q44 -23 111 -23q60 0 92.5 24.5t32.5 70.5t-30 70t-88 24q-54 0 -97 -10v15l11 172h200v-20h-179l-10 -144q32 7 75 7q66 0 103 -30t37 -84q0 -53 -40 -84.5t-107 -31.5zM89 659q51 42 112 42q50 0 81 -28.5
t31 -74.5q0 -50 -48.5 -112t-155.5 -152h222v-20h-254v19q81 69 127.5 117t66.5 83t20 65q0 36 -25 59t-65 23q-53 0 -112 -41v20z" />
    <glyph glyph-name="threefifths" unicode="&#x2157;" horiz-adv-x="940" 
d="M292 0l336 693h24l-336 -693h-24zM725 -8q-66 0 -111 24v20q44 -23 111 -23q60 0 92.5 24.5t32.5 70.5t-30 70t-88 24q-54 0 -97 -10v15l11 172h200v-20h-179l-10 -144q32 7 75 7q66 0 103 -30t37 -84q0 -53 -40 -84.5t-107 -31.5zM190 306q-63 0 -113 25v20
q30 -14 54.5 -19t58.5 -5q58 0 91.5 25.5t33.5 69.5q0 43 -30 65t-88 22q-36 0 -60 -3v18l146 149h-204v20h234v-17l-148 -149q20 2 42 2q62 0 96 -28t34 -79q0 -53 -40 -84.5t-107 -31.5z" />
    <glyph glyph-name="fourfifths" unicode="&#x2158;" horiz-adv-x="940" 
d="M309 0l336 693h24l-336 -693h-24zM725 -8q-66 0 -111 24v20q44 -23 111 -23q60 0 92.5 24.5t32.5 70.5t-30 70t-88 24q-54 0 -97 -10v15l11 172h200v-20h-179l-10 -144q32 7 75 7q66 0 103 -30t37 -84q0 -53 -40 -84.5t-107 -31.5zM272 314v84h-214v18l217 283h18v-281
h63v-20h-63v-84h-21zM84 418h188v246z" />
    <glyph glyph-name="onesixth" unicode="&#x2159;" horiz-adv-x="940" 
d="M284 0l336 693h24l-336 -693h-24zM761 366q-66 0 -99.5 -44t-36.5 -133q61 41 119 41q59 0 94 -32t35 -86q0 -53 -35 -86.5t-90 -33.5q-69 0 -107 48.5t-38 138.5q0 100 41 154t117 54q24 0 42 -4t39 -15v-20q-40 18 -81 18zM744 209q-60 0 -119 -41q6 -155 123 -155
q47 0 75 27t28 72q0 46 -28 71.5t-79 25.5zM232 314v357l-129 -52v18l133 56h18v-379h-22z" />
    <glyph glyph-name="fivesixths" unicode="&#x215a;" horiz-adv-x="940" 
d="M303 0l336 693h24l-336 -693h-24zM761 366q-66 0 -99.5 -44t-36.5 -133q61 41 119 41q59 0 94 -32t35 -86q0 -53 -35 -86.5t-90 -33.5q-69 0 -107 48.5t-38 138.5q0 100 41 154t117 54q24 0 42 -4t39 -15v-20q-40 18 -81 18zM744 209q-60 0 -119 -41q6 -155 123 -155
q47 0 75 27t28 72q0 46 -28 71.5t-79 25.5zM196 306q-66 0 -111 24v20q44 -23 111 -23q60 0 92.5 24.5t32.5 70.5t-30 70t-88 24q-54 0 -97 -10v15l11 172h200v-20h-179l-10 -144q32 7 75 7q66 0 103 -30t37 -84q0 -53 -40 -84.5t-107 -31.5z" />
    <glyph glyph-name="oneeighth" unicode="&#x215b;" horiz-adv-x="940" 
d="M279 0l336 693h24l-336 -693h-24zM734 387q53 0 87.5 -28t34.5 -71q0 -30 -19.5 -58t-54.5 -45q49 -18 69 -40t20 -57q0 -42 -38.5 -69t-98.5 -27q-64 0 -100 27.5t-36 74.5q0 70 81 108q-32 14 -49 36t-17 50q0 44 33.5 71.5t87.5 27.5zM699 194q-38 -16 -58.5 -42
t-20.5 -58q0 -37 31 -59t83 -22q53 0 84 20t31 55q0 31 -21.5 50t-76.5 38zM635 288q0 -28 18.5 -46t62.5 -34l48 -16q33 18 51.5 43t18.5 53q0 34 -28.5 56t-71.5 22q-45 0 -72 -21.5t-27 -56.5zM232 314v357l-129 -52v18l133 56h18v-379h-22z" />
    <glyph glyph-name="threeeighths" unicode="&#x215c;" horiz-adv-x="940" 
d="M293 0l336 693h24l-336 -693h-24zM734 387q53 0 87.5 -28t34.5 -71q0 -30 -19.5 -58t-54.5 -45q49 -18 69 -40t20 -57q0 -42 -38.5 -69t-98.5 -27q-64 0 -100 27.5t-36 74.5q0 70 81 108q-32 14 -49 36t-17 50q0 44 33.5 71.5t87.5 27.5zM699 194q-38 -16 -58.5 -42
t-20.5 -58q0 -37 31 -59t83 -22q53 0 84 20t31 55q0 31 -21.5 50t-76.5 38zM635 288q0 -28 18.5 -46t62.5 -34l48 -16q33 18 51.5 43t18.5 53q0 34 -28.5 56t-71.5 22q-45 0 -72 -21.5t-27 -56.5zM190 306q-63 0 -113 25v20q30 -14 54.5 -19t58.5 -5q58 0 91.5 25.5
t33.5 69.5q0 43 -30 65t-88 22q-36 0 -60 -3v18l146 149h-204v20h234v-17l-148 -149q20 2 42 2q62 0 96 -28t34 -79q0 -53 -40 -84.5t-107 -31.5z" />
    <glyph glyph-name="fiveeighths" unicode="&#x215d;" horiz-adv-x="940" 
d="M299 0l336 693h24l-336 -693h-24zM734 387q53 0 87.5 -28t34.5 -71q0 -30 -19.5 -58t-54.5 -45q49 -18 69 -40t20 -57q0 -42 -38.5 -69t-98.5 -27q-64 0 -100 27.5t-36 74.5q0 70 81 108q-32 14 -49 36t-17 50q0 44 33.5 71.5t87.5 27.5zM699 194q-38 -16 -58.5 -42
t-20.5 -58q0 -37 31 -59t83 -22q53 0 84 20t31 55q0 31 -21.5 50t-76.5 38zM635 288q0 -28 18.5 -46t62.5 -34l48 -16q33 18 51.5 43t18.5 53q0 34 -28.5 56t-71.5 22q-45 0 -72 -21.5t-27 -56.5zM196 306q-66 0 -111 24v20q44 -23 111 -23q60 0 92.5 24.5t32.5 70.5t-30 70
t-88 24q-54 0 -97 -10v15l11 172h200v-20h-179l-10 -144q32 7 75 7q66 0 103 -30t37 -84q0 -53 -40 -84.5t-107 -31.5z" />
    <glyph glyph-name="seveneighths" unicode="&#x215e;" horiz-adv-x="940" 
d="M277 0l336 693h24l-336 -693h-24zM734 387q53 0 87.5 -28t34.5 -71q0 -30 -19.5 -58t-54.5 -45q49 -18 69 -40t20 -57q0 -42 -38.5 -69t-98.5 -27q-64 0 -100 27.5t-36 74.5q0 70 81 108q-32 14 -49 36t-17 50q0 44 33.5 71.5t87.5 27.5zM699 194q-38 -16 -58.5 -42
t-20.5 -58q0 -37 31 -59t83 -22q53 0 84 20t31 55q0 31 -21.5 50t-76.5 38zM635 288q0 -28 18.5 -46t62.5 -34l48 -16q33 18 51.5 43t18.5 53q0 34 -28.5 56t-71.5 22q-45 0 -72 -21.5t-27 -56.5zM144 314l170 359h-237v20h260v-17l-169 -362h-24z" />
    <glyph glyph-name="partialdiff" unicode="&#x2202;" 
d="M303 706q107 0 164.5 -75.5t57.5 -217.5q0 -209 -71 -318.5t-206 -109.5q-90 0 -141 51t-51 141q0 68 29 122t82 85.5t123 31.5q60 0 116 -25.5t92 -68.5q4 39 4 91q0 132 -51.5 202t-148.5 70q-44 0 -82.5 -13t-77.5 -40v20q34 26 76.5 40t84.5 14zM248 6q214 0 247 291
q-36 46 -90 72t-115 26t-108.5 -26.5t-75 -76t-27.5 -115.5q0 -80 45.5 -125.5t123.5 -45.5z" />
    <glyph glyph-name="uni2206" unicode="&#x2206;" 
d="M20 0v18l261 675h23l263 -675v-18h-547zM293 666l-248 -645h498z" />
    <glyph glyph-name="product" unicode="&#x220f;" 
d="M506 -120v792h-426v-792h-22v813h470v-813h-22z" />
    <glyph glyph-name="summation" unicode="&#x2211;" 
d="M65 675v18h458v-21h-429l245 -382l-252 -389h466v-21h-495v18l255 392z" />
    <glyph glyph-name="minus" unicode="&#x2212;" 
d="M80 341v21h426v-21h-426z" />
    <glyph glyph-name="uni2215" unicode="&#x2215;" 
d="M113 0l336 693h24l-336 -693h-24z" />
    <glyph glyph-name="uni2219" unicode="&#x2219;" 
d="M293 294q-11 0 -17 6.5t-6 17.5t6 17.5t17 6.5t17 -6.5t6 -17.5t-6 -17.5t-17 -6.5z" />
    <glyph glyph-name="radical" unicode="&#x221a;" 
d="M543 740h21l-270 -740h-28l-135 343h-66v19h80l135 -343z" />
    <glyph glyph-name="infinity" unicode="&#x221e;" 
d="M434 211q-28 0 -51.5 11t-44 33.5t-45.5 67.5q-31 -49 -52.5 -71t-44 -31.5t-48.5 -9.5q-54 0 -87.5 36.5t-33.5 94.5q0 60 35 97.5t90 37.5q28 0 52 -11t44.5 -33.5t45.5 -67.5q44 69 74.5 90.5t69.5 21.5q54 0 87.5 -36.5t33.5 -94.5q0 -60 -35 -97.5t-90 -37.5z
M147 231q25 0 45 10t38.5 31t50.5 72q-22 40 -37 59.5t-30 31t-30.5 17t-33.5 5.5q-44 0 -72.5 -31.5t-28.5 -82.5q0 -50 27 -81t71 -31zM439 457q-24 0 -43 -9.5t-37.5 -30t-52.5 -74.5q36 -66 65 -89t65 -23q44 0 72.5 31.5t28.5 82.5q0 50 -27 81t-71 31z" />
    <glyph glyph-name="integral" unicode="&#x222b;" 
d="M283 622q0 64 31.5 98t89.5 34q35 0 64 -11v-20q-36 10 -64 10q-99 0 -99 -111v-708q0 -64 -31.5 -98t-89.5 -34q-35 0 -64 11v20q36 -10 64 -10q99 0 99 111v708z" />
    <glyph glyph-name="approxequal" unicode="&#x2248;" 
d="M293 475q62 -45 81 -54t43 -9q74 0 78 90l1 24h22v-18q0 -56 -26.5 -87t-74.5 -31q-29 0 -54.5 11t-70.5 45q-47 35 -64.5 45.5t-29.5 14t-29 3.5q-74 0 -78 -90l-1 -24h-22v18q0 56 26.5 87t74.5 31q28 0 51.5 -10t72.5 -46zM293 255q62 -45 81 -54t43 -9q74 0 78 90
l1 24h22v-18q0 -56 -26.5 -87t-74.5 -31q-29 0 -54.5 11t-70.5 45q-47 35 -64.5 45.5t-29.5 14t-29 3.5q-74 0 -78 -90l-1 -24h-22v18q0 56 26.5 87t74.5 31q28 0 51.5 -10t72.5 -46z" />
    <glyph glyph-name="notequal" unicode="&#x2260;" 
d="M151 118l62 111h-133v21h145l110 200h-255v21h267l62 111h25l-62 -111h134v-21h-146l-110 -200h256v-21h-268l-62 -111h-25z" />
    <glyph glyph-name="lessequal" unicode="&#x2264;" 
d="M88 407v24l410 198v-26l-385 -183l385 -184v-27zM80 71v21h426v-21h-426z" />
    <glyph glyph-name="greaterequal" unicode="&#x2265;" 
d="M498 431v-24l-410 -198v26l385 183l-385 184v27zM80 71v21h426v-21h-426z" />
    <glyph glyph-name="lozenge" unicode="&#x25ca;" 
d="M281 0l-217 346l217 347h24l217 -347l-217 -346h-24zM497 346l-204 327l-204 -327l204 -326z" />
    <glyph glyph-name="uni27E8" unicode="&#x27e8;" horiz-adv-x="267" 
d="M215 -144l-162 449l162 449h23l-161 -449l161 -449h-23z" />
    <glyph glyph-name="uni27E9" unicode="&#x27e9;" horiz-adv-x="267" 
d="M52 754l162 -449l-162 -449h-23l161 449l-161 449h23z" />
    <glyph glyph-name="twosevenths" unicode="&#xf507;" horiz-adv-x="940" 
d="M290 0l336 693h24l-336 -693h-24zM674 0l170 359h-237v20h260v-17l-169 -362h-24zM89 659q51 42 112 42q50 0 81 -28.5t31 -74.5q0 -50 -48.5 -112t-155.5 -152h222v-20h-254v19q81 69 127.5 117t66.5 83t20 65q0 36 -25 59t-65 23q-53 0 -112 -41v20z" />
    <glyph glyph-name="threesevenths" unicode="&#xf508;" horiz-adv-x="940" 
d="M288 0l336 693h24l-336 -693h-24zM674 0l170 359h-237v20h260v-17l-169 -362h-24zM190 306q-63 0 -113 25v20q30 -14 54.5 -19t58.5 -5q58 0 91.5 25.5t33.5 69.5q0 43 -30 65t-88 22q-36 0 -60 -3v18l146 149h-204v20h234v-17l-148 -149q20 2 42 2q62 0 96 -28t34 -79
q0 -53 -40 -84.5t-107 -31.5z" />
    <glyph glyph-name="foursevenths" unicode="&#xf509;" horiz-adv-x="940" 
d="M283 0l336 693h24l-336 -693h-24zM674 0l170 359h-237v20h260v-17l-169 -362h-24zM272 314v84h-214v18l217 283h18v-281h63v-20h-63v-84h-21zM84 418h188v246z" />
    <glyph glyph-name="fivesevenths" unicode="&#xf50a;" horiz-adv-x="940" 
d="M276 0l336 693h24l-336 -693h-24zM674 0l170 359h-237v20h260v-17l-169 -362h-24zM196 306q-66 0 -111 24v20q44 -23 111 -23q60 0 92.5 24.5t32.5 70.5t-30 70t-88 24q-54 0 -97 -10v15l11 172h200v-20h-179l-10 -144q32 7 75 7q66 0 103 -30t37 -84q0 -53 -40 -84.5
t-107 -31.5z" />
    <glyph glyph-name="sixsevenths" unicode="&#xf50b;" horiz-adv-x="940" 
d="M275 0l336 693h24l-336 -693h-24zM674 0l170 359h-237v20h260v-17l-169 -362h-24zM231 680q-66 0 -99.5 -44t-36.5 -133q61 41 119 41q59 0 94 -32t35 -86q0 -53 -35 -86.5t-90 -33.5q-69 0 -107 48.5t-38 138.5q0 100 41 154t117 54q24 0 42 -4t39 -15v-20
q-40 18 -81 18zM214 523q-60 0 -119 -41q6 -155 123 -155q47 0 75 27t28 72q0 46 -28 71.5t-79 25.5z" />
    <glyph glyph-name="twoninths" unicode="&#xf50d;" horiz-adv-x="940" 
d="M302 0l336 693h24l-336 -693h-24zM612 40q49 -27 103 -27q120 0 129 170q-24 -20 -55.5 -31.5t-61.5 -11.5q-59 0 -93.5 33.5t-34.5 90.5q0 52 37.5 87.5t92.5 35.5q65 0 100.5 -48t35.5 -137q0 -103 -38.5 -156.5t-111.5 -53.5q-28 0 -55.5 7.5t-47.5 20.5v20zM727 161
q62 0 117 43q-2 162 -115 162q-48 0 -78 -28.5t-30 -73.5q0 -49 27.5 -76t78.5 -27zM89 659q51 42 112 42q50 0 81 -28.5t31 -74.5q0 -50 -48.5 -112t-155.5 -152h222v-20h-254v19q81 69 127.5 117t66.5 83t20 65q0 36 -25 59t-65 23q-53 0 -112 -41v20z" />
    <glyph glyph-name="fourninths" unicode="&#xf50e;" horiz-adv-x="940" 
d="M300 0l336 693h24l-336 -693h-24zM612 40q49 -27 103 -27q120 0 129 170q-24 -20 -55.5 -31.5t-61.5 -11.5q-59 0 -93.5 33.5t-34.5 90.5q0 52 37.5 87.5t92.5 35.5q65 0 100.5 -48t35.5 -137q0 -103 -38.5 -156.5t-111.5 -53.5q-28 0 -55.5 7.5t-47.5 20.5v20zM727 161
q62 0 117 43q-2 162 -115 162q-48 0 -78 -28.5t-30 -73.5q0 -49 27.5 -76t78.5 -27zM272 314v84h-214v18l217 283h18v-281h63v-20h-63v-84h-21zM84 418h188v246z" />
    <glyph glyph-name="fiveninths" unicode="&#xf50f;" horiz-adv-x="940" 
d="M296 0l336 693h24l-336 -693h-24zM612 40q49 -27 103 -27q120 0 129 170q-24 -20 -55.5 -31.5t-61.5 -11.5q-59 0 -93.5 33.5t-34.5 90.5q0 52 37.5 87.5t92.5 35.5q65 0 100.5 -48t35.5 -137q0 -103 -38.5 -156.5t-111.5 -53.5q-28 0 -55.5 7.5t-47.5 20.5v20zM727 161
q62 0 117 43q-2 162 -115 162q-48 0 -78 -28.5t-30 -73.5q0 -49 27.5 -76t78.5 -27zM196 306q-66 0 -111 24v20q44 -23 111 -23q60 0 92.5 24.5t32.5 70.5t-30 70t-88 24q-54 0 -97 -10v15l11 172h200v-20h-179l-10 -144q32 7 75 7q66 0 103 -30t37 -84q0 -53 -40 -84.5
t-107 -31.5z" />
    <glyph glyph-name="sevenninths" unicode="&#xf510;" horiz-adv-x="940" 
d="M254 0l336 693h24l-336 -693h-24zM612 40q49 -27 103 -27q120 0 129 170q-24 -20 -55.5 -31.5t-61.5 -11.5q-59 0 -93.5 33.5t-34.5 90.5q0 52 37.5 87.5t92.5 35.5q65 0 100.5 -48t35.5 -137q0 -103 -38.5 -156.5t-111.5 -53.5q-28 0 -55.5 7.5t-47.5 20.5v20zM727 161
q62 0 117 43q-2 162 -115 162q-48 0 -78 -28.5t-30 -73.5q0 -49 27.5 -76t78.5 -27zM144 314l170 359h-237v20h260v-17l-169 -362h-24z" />
    <glyph glyph-name="eightninths" unicode="&#xf511;" horiz-adv-x="940" 
d="M298 0l336 693h24l-336 -693h-24zM612 40q49 -27 103 -27q120 0 129 170q-24 -20 -55.5 -31.5t-61.5 -11.5q-59 0 -93.5 33.5t-34.5 90.5q0 52 37.5 87.5t92.5 35.5q65 0 100.5 -48t35.5 -137q0 -103 -38.5 -156.5t-111.5 -53.5q-28 0 -55.5 7.5t-47.5 20.5v20zM727 161
q62 0 117 43q-2 162 -115 162q-48 0 -78 -28.5t-30 -73.5q0 -49 27.5 -76t78.5 -27zM204 701q53 0 87.5 -28t34.5 -71q0 -30 -19.5 -58t-54.5 -45q49 -18 69 -40t20 -57q0 -42 -38.5 -69t-98.5 -27q-64 0 -100 27.5t-36 74.5q0 70 81 108q-32 14 -49 36t-17 50
q0 44 33.5 71.5t87.5 27.5zM169 508q-38 -16 -58.5 -42t-20.5 -58q0 -37 31 -59t83 -22q53 0 84 20t31 55q0 31 -21.5 50t-76.5 38zM105 602q0 -28 18.5 -46t62.5 -34l48 -16q33 18 51.5 43t18.5 53q0 34 -28.5 56t-71.5 22q-45 0 -72 -21.5t-27 -56.5z" />
    <glyph glyph-name="uniFEFF" unicode="&#xfeff;" horiz-adv-x="0" 
 />
    <glyph glyph-name="uniFFFD" unicode="&#xfffd;" horiz-adv-x="1000" 
d="M29 340l471 471l471 -471l-471 -471zM609 456q0 -39 -27 -70t-86 -59l-47 -22l9 -136h78v103q85 38 125 85t40 108q0 74 -47.5 115t-132.5 41q-43 0 -85.5 -12t-79.5 -34v-74q80 42 150 42q103 0 103 -87zM500 -6q25 0 40.5 16t15.5 41t-15.5 41t-40.5 16t-40.5 -16
t-15.5 -41t15.5 -41t40.5 -16z" />
    <glyph glyph-name="zero.pnum" horiz-adv-x="602" 
d="M301 8q213 0 213 337q0 338 -213 338t-213 -338q0 -337 213 -337zM301 -15q-117 0 -177 91t-60 269t60 269.5t177 91.5t177 -91.5t60 -269.5t-60 -269t-177 -91z" />
    <glyph glyph-name="one.pnum" horiz-adv-x="393" 
d="M241 0v668l-215 -100v22l217 103h21v-693h-23z" />
    <glyph glyph-name="two.pnum" horiz-adv-x="521" 
d="M53 0v22q152 157 228 248t106 151t30 113q0 70 -41 109.5t-115 39.5q-92 0 -186 -76v23q40 36 89.5 56t98.5 20q82 0 130 -45.5t48 -124.5q0 -61 -32 -123.5t-107 -151.5t-218 -239h390v-22h-421z" />
    <glyph glyph-name="three.pnum" horiz-adv-x="510" 
d="M143 372l255 299h-347v22h375v-21l-254 -298q46 6 77 6q94 0 149 -52.5t55 -142.5q0 -91 -63 -145.5t-170 -54.5q-94 0 -179 41v21q51 -21 92.5 -30t86.5 -9q97 0 153 47t56 130q0 81 -50.5 127t-138.5 46q-56 0 -97 -6v20z" />
    <glyph glyph-name="four.pnum" horiz-adv-x="570" 
d="M392 0v168h-351v19l354 506h20v-503h112v-22h-112v-168h-23zM392 190v462l-323 -462h323z" />
    <glyph glyph-name="five.pnum" horiz-adv-x="512" 
d="M61 44q75 -36 166 -36q97 0 153.5 49t56.5 132q0 190 -211 190q-72 0 -138 -12v21l20 305h321v-22h-299l-19 -281q61 11 115 11q116 0 175.5 -53.5t59.5 -158.5q0 -60 -28 -106t-81 -72t-125 -26q-43 0 -86.5 10t-79.5 28v21z" />
    <glyph glyph-name="six.pnum" horiz-adv-x="567" 
d="M324 683q-115 0 -175 -90t-60 -261q40 35 96.5 55.5t111.5 20.5q96 0 154.5 -56t58.5 -148q0 -100 -55.5 -159.5t-150.5 -59.5q-239 0 -239 340q0 186 66.5 283.5t192.5 97.5q71 0 136 -27v-21q-62 25 -136 25zM296 385q-57 0 -111.5 -19.5t-95.5 -55.5
q0 -149 54.5 -225.5t160.5 -76.5q84 0 133 53t49 143q0 83 -51.5 132t-138.5 49z" />
    <glyph glyph-name="seven.pnum" horiz-adv-x="507" 
d="M122 0l308 671h-403v22h429v-20l-309 -673h-25z" />
    <glyph glyph-name="eight.pnum" horiz-adv-x="568" 
d="M480 524q0 -59 -34 -106.5t-98 -78.5q84 -34 123.5 -76t39.5 -98q0 -50 -28.5 -91t-81 -65t-120.5 -24q-101 0 -161.5 51t-60.5 137q0 130 156 195q-64 26 -94.5 64.5t-30.5 93.5q0 80 54 130t142 50q87 0 140.5 -50.5t53.5 -131.5zM238 359q-83 -37 -119 -80.5
t-36 -105.5q0 -77 53 -121.5t145 -44.5t149 44t57 114q0 52 -34.5 88t-118.5 69zM114 526q0 -51 31 -85.5t101 -61.5l82 -32q61 29 94.5 75t33.5 102q0 73 -46.5 116.5t-123.5 43.5q-78 0 -125 -43t-47 -115z" />
    <glyph glyph-name="nine.pnum" horiz-adv-x="560" 
d="M88 42q67 -34 154 -34q111 0 171 85.5t61 244.5q-36 -30 -94 -49t-114 -19q-98 0 -153.5 58t-55.5 159q0 98 56.5 158.5t147.5 60.5q117 0 176.5 -88t59.5 -261q0 -182 -65.5 -277t-189.5 -95q-45 0 -85.5 9.5t-68.5 26.5v21zM266 293q56 0 113 18.5t95 48.5v11
q0 154 -54 233t-159 79q-82 0 -131 -53.5t-49 -142.5q0 -93 48.5 -143.5t136.5 -50.5z" />
    <glyph glyph-name="florin.crcy" 
d="M297 -101q0 -56 -30 -86.5t-86 -30.5q-41 0 -74 13v20q35 -12 75 -12q93 0 93 94v585h-105v17l105 4v134q0 56 30 86.5t86 30.5q20 0 44.5 -4.5t43.5 -12.5v-19q-46 15 -89 15q-93 0 -93 -94v-136h174v-21h-174v-583z" />
    <glyph glyph-name="hyphen.case" horiz-adv-x="376" 
d="M56 342v21h264v-21h-264z" />
    <glyph glyph-name="endash.case" horiz-adv-x="500" 
d="M0 345v20h500v-20h-500z" />
    <glyph glyph-name="emdash.case" horiz-adv-x="1000" 
d="M0 343v21h1000v-21h-1000z" />
    <glyph glyph-name="parenleft.case" horiz-adv-x="253" 
d="M199 -113q-62 99 -95.5 215t-33.5 234q0 117 33.5 233t95.5 216h24q-61 -100 -94.5 -217t-33.5 -232t33.5 -232t94.5 -217h-24z" />
    <glyph glyph-name="parenright.case" horiz-adv-x="253" 
d="M30 -113q61 100 94.5 217t33.5 232t-33.5 232t-94.5 217h24q62 -99 95.5 -215t33.5 -234q0 -117 -33.5 -233t-95.5 -216h-24z" />
    <glyph glyph-name="slash.case" horiz-adv-x="406" 
d="M22 -113l338 898h24l-338 -898h-24z" />
    <glyph glyph-name="backslash.case" horiz-adv-x="406" 
d="M360 -113l-338 898h24l338 -898h-24z" />
    <glyph glyph-name="bracketleft.case" horiz-adv-x="325" 
d="M94 -113v898h201v-22h-178v-854h178v-22h-201z" />
    <glyph glyph-name="bracketright.case" horiz-adv-x="325" 
d="M30 -113v22h178v854h-178v22h201v-898h-201z" />
    <glyph glyph-name="braceleft.case" horiz-adv-x="363" 
d="M36 347h16q51 0 70.5 25t19.5 91v198q0 64 31.5 98t90.5 34q18 0 38.5 -3.5t30.5 -7.5v-20q-31 9 -69 9q-99 0 -99 -110v-194q0 -64 -16.5 -93.5t-56.5 -37.5q40 -8 56.5 -38t16.5 -93v-194q0 -110 99 -110q38 0 69 9v-20q-10 -4 -30.5 -7.5t-38.5 -3.5q-59 0 -90.5 34
t-31.5 98v198q0 66 -19.5 91t-70.5 25h-16v22z" />
    <glyph glyph-name="braceright.case" horiz-adv-x="363" 
d="M327 325h-16q-51 0 -70.5 -25t-19.5 -91v-198q0 -64 -31.5 -98t-90.5 -34q-18 0 -38.5 3.5t-30.5 7.5v20q32 -9 69 -9q99 0 99 110v194q0 65 16.5 94t55.5 37q-40 8 -56 37t-16 94v194q0 110 -99 110q-37 0 -69 -9v20q10 4 30.5 7.5t38.5 3.5q59 0 90.5 -34t31.5 -98
v-198q0 -66 19.5 -91t70.5 -25h16v-22z" />
    <glyph glyph-name="bullet.case" horiz-adv-x="312" 
d="M156 248q-45 0 -75 30t-30 74q0 45 30 75t75 30t75 -30t30 -74q0 -45 -30 -75t-75 -30z" />
    <glyph glyph-name="guilsinglleft.case" horiz-adv-x="274" 
d="M189 144l-136 208l136 208h25l-133 -208l133 -208h-25z" />
    <glyph glyph-name="guilsinglright.case" horiz-adv-x="274" 
d="M85 560l136 -208l-136 -208h-25l133 208l-133 208h25z" />
    <glyph glyph-name="guillemotleft.case" horiz-adv-x="387" 
d="M189 144l-136 208l136 208h25l-133 -208l133 -208h-25zM302 144l-136 208l136 208h25l-133 -208l133 -208h-25z" />
    <glyph glyph-name="guillemotright.case" horiz-adv-x="387" 
d="M85 560l136 -208l-136 -208h-25l133 208l-133 208h25zM198 560l136 -208l-136 -208h-25l133 208l-133 208h25z" />
    <glyph glyph-name="at.case" horiz-adv-x="929" 
d="M412 -103q83 0 162 29v-21q-88 -30 -162 -30q-107 0 -187 45.5t-124.5 132.5t-44.5 207q0 140 57.5 255.5t163.5 185t240 69.5q102 0 182.5 -43t127 -123.5t46.5 -187.5q0 -85 -28 -160t-78.5 -122.5t-110.5 -47.5q-68 0 -77 75q-40 -41 -79 -59t-88 -18q-65 0 -105.5 48
t-40.5 125q0 78 30.5 146t85 111t119.5 43q79 0 124 -64l11 50h19l-50 -312q-5 -35 -5 -49q0 -75 56 -75q49 0 93 40t72 112t28 157q0 97 -40.5 172t-116 117.5t-175.5 42.5q-121 0 -220 -61.5t-158 -173t-59 -253.5q0 -111 39 -192.5t114 -126t179 -44.5zM412 106
q47 0 86.5 19.5t79.5 62.5q0 14 5 44l37 234q-24 36 -53 52.5t-66 16.5q-55 0 -103 -35.5t-78 -100t-30 -142.5q0 -66 34.5 -108.5t87.5 -42.5z" />
    <glyph glyph-name="periodcentered.case" horiz-adv-x="192" 
d="M96 325q-11 0 -17 6.5t-6 17.5t6 17.5t17 6.5t17 -6.5t6 -17.5t-6 -17.5t-17 -6.5z" />
    <glyph glyph-name="periodcentered.locl_CAT" horiz-adv-x="192" 
d="M96 337q-10 0 -16 6.5t-6 16.5t6 16.5t16 6.5t16 -6.5t6 -16.5t-6 -16.5t-16 -6.5z" />
    <glyph glyph-name="periodcentered.locl_CAT.cap" horiz-adv-x="192" 
d="M96 347q-10 0 -16 6.5t-6 16.5t6 16.5t16 6.5t16 -6.5t6 -16.5t-6 -16.5t-16 -6.5z" />
    <glyph glyph-name="uni0327.cap" horiz-adv-x="0" 
d="M-15 -69q39 0 60 -16.5t21 -45.5q0 -33 -28.5 -70t-77.5 -67l-17 13q46 29 72.5 62.5t26.5 60.5q0 20 -15.5 30.5t-43.5 10.5q-22 0 -42 -5v20q19 7 44 7z" />
    <glyph glyph-name="uni0326.cap" horiz-adv-x="0" 
d="M-42 -264l37 194h11q14 0 14 -10q0 -7 -5 -29l-36 -155h-21z" />
    <glyph glyph-name="uni0328.cap" horiz-adv-x="0" 
d="M26 -203q-23 -10 -51 -10q-41 0 -63 20t-22 56q0 39 23.5 77.5t63.5 65.5l23 -6q-42 -30 -64 -64.5t-22 -71.5q0 -29 16 -42t49 -13q23 0 47 8v-20z" />
    <glyph glyph-name="uni0328.round" horiz-adv-x="0" 
d="M6 -203q-23 -10 -51 -10q-42 0 -64.5 20.5t-22.5 59.5q0 48 36 92t96 67v-16q-49 -22 -79 -59.5t-30 -78.5q0 -33 16 -48.5t52 -15.5q23 0 47 8v-19z" />
    <glyph glyph-name="uni0328.round.cap" horiz-adv-x="0" 
d="M0 5q-50 -23 -79 -58t-29 -75q0 -33 15.5 -48t51.5 -15q23 0 47 8v-20q-23 -10 -51 -10q-42 0 -64.5 20.5t-22.5 59.5q0 48 34 88.5t98 67.5v-18z" />
    <glyph glyph-name="iogonek.dotless" horiz-adv-x="198" 
d="M137 -203q-23 -10 -51 -10q-41 0 -63 20t-22 56q0 39 23 77t64 65v498h22v-503q-42 -30 -64 -64.5t-22 -71.5q0 -56 66 -56q23 0 47 8v-19z" />
    <glyph glyph-name="acutecomb.cap" horiz-adv-x="0" 
d="M-16 769l91 112h35l-100 -112h-26z" />
    <glyph glyph-name="uni030B.cap" horiz-adv-x="0" 
d="M-95 769l93 112h32l-100 -112h-25zM72 769l93 112h32l-100 -112h-25z" />
    <glyph glyph-name="gravecomb.cap" horiz-adv-x="0" 
d="M-10 769l-100 112h35l91 -112h-26z" />
    <glyph glyph-name="uni0302.cap" horiz-adv-x="0" 
d="M153 769h-33l-120 105l-120 -105h-33l143 124h20z" />
    <glyph glyph-name="tildecomb.cap" horiz-adv-x="0" 
d="M72 779q-21 0 -38 8.5t-36 28.5q-21 23 -36.5 32t-32.5 9q-26 0 -38.5 -15t-12.5 -47v-13h-20q-1 8 -1 18q0 35 19.5 56.5t52.5 21.5q21 0 38 -8.5t36 -28.5q21 -23 36.5 -32t32.5 -9q26 0 38.5 15t12.5 47v13h20q1 -8 1 -18q0 -35 -19.5 -56.5t-52.5 -21.5z" />
    <glyph glyph-name="uni030C.cap" horiz-adv-x="0" 
d="M-10 769l-143 124h37l116 -106l116 106h37l-143 -124h-20z" />
    <glyph glyph-name="uni0315.short" horiz-adv-x="0" 
d="M-10 585v148q5 5 13 5t11 -5l-8 -148h-16z" />
    <glyph glyph-name="uni0304.cap" horiz-adv-x="0" 
d="M-147 818v21h294v-21h-294z" />
    <glyph glyph-name="uni0308.cap" horiz-adv-x="0" 
d="M-102 802q-22 0 -22 24t22 24t22 -24t-22 -24zM102 802q-22 0 -22 24t22 24t22 -24t-22 -24z" />
    <glyph glyph-name="uni0306.cap" horiz-adv-x="0" 
d="M0 768q-54 0 -88.5 27.5t-34.5 68.5v6.5t1 7.5h22v-8q0 -36 28 -58.5t72 -22.5t72 22.5t28 58.5v8h22q1 -4 1 -7.5v-6.5q0 -41 -34.5 -68.5t-88.5 -27.5z" />
    <glyph glyph-name="uni0307.cap" horiz-adv-x="0" 
d="M0 802q-11 0 -17 6.5t-6 17.5t6 17.5t17 6.5t17 -6.5t6 -17.5t-6 -17.5t-17 -6.5z" />
    <glyph glyph-name="uni030A.cap" horiz-adv-x="0" 
d="M0 743q-42 0 -67.5 23.5t-25.5 61.5q0 39 25.5 62.5t67.5 23.5t67.5 -23.5t25.5 -62.5q0 -38 -25.5 -61.5t-67.5 -23.5zM0 763q32 0 51.5 17.5t19.5 47.5q0 31 -19.5 48.5t-51.5 17.5t-51.5 -17.5t-19.5 -48.5q0 -30 19.5 -47.5t51.5 -17.5z" />
    <glyph glyph-name="uni030A0301" horiz-adv-x="0" 
d="M0 586q-42 0 -67.5 23t-25.5 62t25.5 62t67.5 23t67.5 -23t25.5 -62t-25.5 -62t-67.5 -23zM0 606q33 0 52 17.5t19 47.5t-19 47.5t-52 17.5t-52 -17.5t-19 -47.5t19 -47.5t52 -17.5zM-17 802l91 112h32l-98 -112h-25z" />
    <glyph glyph-name="uni0431.locl_MKDSRB" horiz-adv-x="534" 
d="M249 477l-66 42q-39 25 -54.5 50.5t-15.5 62.5q0 45 32.5 71t95.5 30l177 11v-22l-176 -11q-105 -6 -105 -79q0 -31 13.5 -52.5t48.5 -43.5l147 -95q41 -26 66.5 -50t39.5 -49.5t20 -55.5t6 -70q0 -107 -56.5 -169t-154.5 -62q-100 0 -155.5 61t-55.5 170q0 85 40 145.5
t122 100.5zM80 216q0 -98 49.5 -153.5t137.5 -55.5t137.5 55.5t49.5 153.5q0 52 -11 87t-35.5 61.5t-67.5 54.5l-74 47l-24 -13q-87 -45 -124.5 -99.5t-37.5 -137.5z" />
    <glyph glyph-name="uni0432.locl_BGR" horiz-adv-x="533" 
d="M444 572q0 -73 -30 -119t-87 -63q72 -11 109.5 -59.5t37.5 -131.5q0 -101 -49.5 -157.5t-138.5 -56.5q-112 0 -164 85.5t-52 270.5v44q0 175 57 272t161 97q76 0 116 -47t40 -135zM94 376v-5v-20q0 -184 44.5 -264t147.5 -80q79 0 121.5 50t42.5 142q0 86 -43 131.5
t-124 45.5h-189zM420 572q0 160 -132 160q-91 0 -140.5 -85.5t-53.5 -248.5h157q85 0 127 43t42 131z" />
    <glyph glyph-name="uni0433.locl_BGR" horiz-adv-x="433" 
d="M78 120q0 -111 148 -111q44 0 81.5 8t76.5 26v-21q-68 -35 -158 -35q-84 0 -127.5 34t-43.5 99q0 48 26 78.5t88 53.5l88 33q59 23 83 47.5t24 62.5q0 101 -137 101q-74 0 -146 -28v20q30 14 69 22t77 8q78 0 119 -31.5t41 -90.5q0 -46 -27.5 -76.5t-92.5 -54.5l-94 -35
q-51 -19 -73 -44.5t-22 -65.5z" />
    <glyph glyph-name="uni0434.locl_BGR" horiz-adv-x="554" 
d="M444 77q-43 -36 -86.5 -53t-91.5 -17q-60 0 -107.5 30.5t-75 87t-27.5 130.5q0 124 55.5 192.5t155.5 68.5q90 0 177 -70l2 57h20v-495q0 -111 -56 -168.5t-163 -57.5q-91 0 -154 36v21q73 -35 153 -35q101 0 149.5 51t48.5 158v64zM267 29q91 0 177 71v325
q-90 69 -176 69q-91 0 -139.5 -62t-48.5 -177q0 -103 51 -164.5t136 -61.5z" />
    <glyph glyph-name="uni0436.locl_BGR" horiz-adv-x="642" 
d="M12 0l274 253l-258 250h31l251 -245v482h22v-482l251 245h31l-258 -250l274 -253h-30l-268 248v-248h-22v248l-268 -248h-30z" />
    <glyph glyph-name="uni0437.locl_BGR" horiz-adv-x="436" 
d="M178 -214q-39 0 -83 9.5t-74 24.5v20q35 -15 77.5 -23.5t80.5 -8.5q86 0 135 49t49 135q0 78 -43 121t-122 43h-78v22h46q168 0 168 163q0 73 -39 114t-109 41q-72 0 -146 -30v20q30 14 71 23t77 9q79 0 124.5 -47.5t45.5 -129.5q0 -66 -30.5 -110.5t-86.5 -60.5
q71 -11 108.5 -57t37.5 -121q0 -95 -56.5 -150.5t-152.5 -55.5z" />
    <glyph glyph-name="uni0438.locl_BGR" horiz-adv-x="552" 
d="M444 0l-2 61q-50 -36 -103.5 -55t-105.5 -19q-147 0 -147 151v365h22v-353q0 -75 30.5 -108t97.5 -33q100 0 206 74v420h22v-503h-20z" />
    <glyph glyph-name="uni043A.locl_BGR" horiz-adv-x="451" 
d="M88 0v740h22v-470l284 233h33l-293 -239l311 -264h-33l-302 256v-256h-22z" />
    <glyph glyph-name="uni043F.locl_BGR" horiz-adv-x="564" 
d="M456 0v360q0 134 -128 134q-53 0 -110.5 -20t-107.5 -55v-419h-22v503h20l2 -62q50 36 107.5 55.5t113.5 19.5q71 0 109 -38t38 -111v-367h-22z" />
    <glyph glyph-name="uni0442.locl_BGR" horiz-adv-x="868" 
d="M644 494q-50 0 -103.5 -20t-99.5 -56q5 -19 5 -51v-367h-22v360q0 134 -116 134q-47 0 -99 -19.5t-99 -54.5v-420h-22v503h20l2 -61q48 36 99.5 55t101.5 19q95 0 124 -80q49 38 104 59t108 21q65 0 100 -38t35 -111v-367h-22v360q0 134 -116 134z" />
    <glyph glyph-name="uni0446.locl_BGR" horiz-adv-x="556" 
d="M507 -164v163q-65 0 -65 62q-50 -36 -103.5 -55t-105.5 -19q-147 0 -147 151v365h22v-353q0 -75 30.5 -108t97.5 -33q100 0 206 74v420h22v-437q0 -24 9.5 -34.5t32.5 -10.5h10.5t11.5 1v-186h-21z" />
    <glyph glyph-name="uni0448.locl_BGR" horiz-adv-x="847" 
d="M559 -13q-104 0 -134 75q-51 -40 -96 -57.5t-96 -17.5q-147 0 -147 151v365h22v-353q0 -75 30.5 -108t97.5 -33q49 0 91.5 16.5t91.5 53.5q-7 24 -7 59v365h22v-353q0 -75 30.5 -108t97.5 -33q46 0 86 16.5t89 56.5v421h22v-503h-20l-2 60q-47 -39 -89 -56t-89 -17z" />
    <glyph glyph-name="uni0449.locl_BGR" horiz-adv-x="853" 
d="M562 9q46 0 86 16.5t89 56.5v421h22v-437q0 -24 10.5 -34.5t33.5 -10.5q16 0 22 1v-186h-21v164q-65 0 -67 60q-47 -39 -89 -56t-89 -17q-104 0 -134 75q-51 -40 -96 -57.5t-96 -17.5q-147 0 -147 151v365h22v-353q0 -75 30.5 -108t97.5 -33q49 0 91.5 16.5t91.5 53.5
q-7 24 -7 59v365h22v-353q0 -75 30.5 -108t97.5 -33z" />
    <glyph glyph-name="uni044A.locl_BGR" horiz-adv-x="565" 
d="M361 -15q-87 0 -134 55t-47 157v284h-158v22h180v-241q34 24 76 38t84 14q78 0 123.5 -43t45.5 -116q0 -75 -47 -122.5t-123 -47.5zM361 7q66 0 106 40t40 108q0 63 -39 100t-107 37q-40 0 -81.5 -13.5t-77.5 -38.5v-43q0 -91 41 -140.5t118 -49.5z" />
    <glyph glyph-name="uni044C.locl_BGR" horiz-adv-x="471" 
d="M267 -15q-87 0 -134 55t-47 157v306h22v-241q34 24 76 38t84 14q78 0 123.5 -43t45.5 -116q0 -75 -47 -122.5t-123 -47.5zM267 7q66 0 106 40t40 108q0 63 -39 100t-107 37q-40 0 -81.5 -13.5t-77.5 -38.5v-43q0 -91 41 -140.5t118 -49.5z" />
    <glyph glyph-name="uni044E.locl_BGR" horiz-adv-x="744" 
d="M481 -13q-98 0 -151.5 67.5t-54.5 192.5h-165v-247h-22v740h22v-472h165q3 119 56.5 183.5t149.5 64.5q100 0 153.5 -68.5t53.5 -196.5q0 -126 -54 -195t-153 -69zM481 9q89 0 136 62t47 180q0 119 -47 181t-136 62t-136 -62t-47 -180q0 -119 47 -181t136 -62z" />
    <glyph glyph-name="uni0306.cyrl" horiz-adv-x="0" 
d="M0 602q-63 0 -101 34t-38 91q0 10 1 21h21v-19q0 -49 32.5 -78t84.5 -29t84.5 29t32.5 78v19h21q1 -11 1 -21q0 -57 -38 -91t-101 -34z" />
    <glyph glyph-name="uni0306.cyrl.cap" horiz-adv-x="0" 
d="M0 769q-67 0 -102.5 31.5t-35.5 90.5v6.5t1 7.5h22v-6q0 -109 115 -109t115 109v6h22q1 -4 1 -7.5v-6.5q0 -59 -35.5 -90.5t-102.5 -31.5z" />
    <glyph glyph-name="uni0439.locl_BGR" horiz-adv-x="552" 
d="M444 0l-2 61q-50 -36 -103.5 -55t-105.5 -19q-147 0 -147 151v365h22v-353q0 -75 30.5 -108t97.5 -33q100 0 206 74v420h22v-503h-20zM275 602q-63 0 -101 34t-38 91q0 10 1 21h21v-19q0 -49 32.5 -78t84.5 -29t84.5 29t32.5 78v19h21q1 -11 1 -21q0 -57 -38 -91
t-101 -34z" />
    <glyph glyph-name="acutecomb.grek" horiz-adv-x="0" 
d="M52 760h28l-69 -157h-21z" />
    <glyph glyph-name="acutecomb.grek.cap" horiz-adv-x="0" 
d="M53 693h29l-71 -157h-22z" />
    </font>
</defs>
</svg>
