<?xml version="1.0" standalone="no"?>
<!DOCTYPE svg PUBLIC "-//W3C//DTD SVG 1.1//EN" "http://www.w3.org/Graphics/SVG/1.1/DTD/svg11.dtd" >
<svg xmlns="http://www.w3.org/2000/svg" xmlns:xlink="http://www.w3.org/1999/xlink" version="1.1">
<metadata>
Created by FontForge 20170731 at Fri Dec 16 15:58:51 2016
 By Aleksey,,,
Copyright 2016 Dalton Maag Ltd. Modification of this file requires prior written permission from Dalton Maag Ltd.
</metadata>
<defs>
<font id="AmazonEmberDisplay-Regular" horiz-adv-x="586" >
  <font-face 
    font-family="Amazon Ember Display"
    font-weight="400"
    font-stretch="normal"
    units-per-em="1000"
    panose-1="2 15 6 3 2 2 4 2 2 4"
    ascent="800"
    descent="-200"
    x-height="507"
    cap-height="693"
    bbox="-184 -278 1292 974"
    underline-thickness="80"
    underline-position="-229"
    unicode-range="U+0008-FFFD"
  />
<missing-glyph horiz-adv-x="500" 
d="M50 750h400v-750h-400v750zM400 50v650h-300v-650h300z" />
    <glyph glyph-name="ff" unicode="ff" horiz-adv-x="705" 
d="M132 0q-20 0 -20 20v409h-74q-20 0 -20 20v25q0 10 4.5 15t17.5 7l72 9v82q0 167 160 167q38 0 80 -11q11 -3 15.5 -9t4.5 -21v-26q0 -19 -15 -19q-9 0 -25.5 3t-37.5 3q-46 0 -64.5 -17.5t-18.5 -57.5v-92h233v80q0 167 160 167q38 0 80 -11q11 -3 15.5 -9t4.5 -21v-26
q0 -19 -15 -19q-9 0 -25.5 3t-37.5 3q-46 0 -64.5 -17.5t-18.5 -57.5v-92h135q20 0 20 -20v-38q0 -20 -20 -20h-135v-409q0 -20 -20 -20h-59q-20 0 -20 20v409h-233v-409q0 -20 -20 -20h-59z" />
    <glyph glyph-name="fi" unicode="fi" horiz-adv-x="621" 
d="M132 0q-20 0 -20 20v409h-74q-20 0 -20 20v25q0 10 4.5 15t17.5 7l72 9v82q0 167 160 167q38 0 80 -11q11 -3 15.5 -9t4.5 -21v-26q0 -19 -15 -19q-9 0 -25.5 3t-37.5 3q-46 0 -64.5 -17.5t-18.5 -57.5v-92h312q20 0 20 -20v-467q0 -20 -20 -20h-59q-20 0 -20 20v409
h-233v-409q0 -20 -20 -20h-59zM494 597q-29 0 -45.5 16.5t-16.5 43.5t16.5 43.5t45.5 16.5t45.5 -16.5t16.5 -43.5t-16.5 -43.5t-45.5 -16.5z" />
    <glyph glyph-name="fl" unicode="fl" horiz-adv-x="651" 
d="M132 0q-20 0 -20 20v409h-74q-20 0 -20 20v25q0 10 4.5 15t17.5 7l72 9v82q0 167 160 167q38 0 80 -11q11 -3 15.5 -9t4.5 -21v-26q0 -19 -15 -19q-9 0 -25.5 3t-37.5 3q-46 0 -64.5 -17.5t-18.5 -57.5v-92h141q20 0 20 -20v-38q0 -20 -20 -20h-141v-409q0 -20 -20 -20
h-59zM549 -5q-53 0 -81 30.5t-28 87.5v607q0 20 20 20h59q20 0 20 -20v-601q0 -23 9.5 -33.5t31.5 -10.5q6 0 12.5 1t11.5 1q10 0 13.5 -5t3.5 -15v-32q0 -10 -4.5 -15.5t-15.5 -8.5q-25 -6 -52 -6z" />
    <glyph glyph-name="ffi" unicode="ffi" horiz-adv-x="953" 
d="M132 0q-20 0 -20 20v409h-74q-20 0 -20 20v25q0 10 4.5 15t17.5 7l72 9v82q0 167 160 167q38 0 80 -11q11 -3 15.5 -9t4.5 -21v-26q0 -19 -15 -19q-9 0 -25.5 3t-37.5 3q-46 0 -64.5 -17.5t-18.5 -57.5v-92h233v80q0 167 160 167q38 0 80 -11q11 -3 15.5 -9t4.5 -21v-26
q0 -19 -15 -19q-9 0 -25.5 3t-37.5 3q-46 0 -64.5 -17.5t-18.5 -57.5v-92h312q20 0 20 -20v-467q0 -20 -20 -20h-59q-20 0 -20 20v409h-233v-409q0 -20 -20 -20h-59q-20 0 -20 20v409h-233v-409q0 -20 -20 -20h-59zM826 597q-29 0 -45.5 16.5t-16.5 43.5t16.5 43.5
t45.5 16.5t45.5 -16.5t16.5 -43.5t-16.5 -43.5t-45.5 -16.5z" />
    <glyph glyph-name="ffl" unicode="ffl" horiz-adv-x="983" 
d="M132 0q-20 0 -20 20v409h-74q-20 0 -20 20v25q0 10 4.5 15t17.5 7l72 9v82q0 167 160 167q38 0 80 -11q11 -3 15.5 -9t4.5 -21v-26q0 -19 -15 -19q-9 0 -25.5 3t-37.5 3q-46 0 -64.5 -17.5t-18.5 -57.5v-92h233v80q0 167 160 167q38 0 80 -11q11 -3 15.5 -9t4.5 -21v-26
q0 -19 -15 -19q-9 0 -25.5 3t-37.5 3q-46 0 -64.5 -17.5t-18.5 -57.5v-92h141q20 0 20 -20v-38q0 -20 -20 -20h-141v-409q0 -20 -20 -20h-59q-20 0 -20 20v409h-233v-409q0 -20 -20 -20h-59zM881 -5q-53 0 -81 30.5t-28 87.5v607q0 20 20 20h59q20 0 20 -20v-601
q0 -23 9.5 -33.5t31.5 -10.5q6 0 12.5 1t11.5 1q10 0 13.5 -5t3.5 -15v-32q0 -10 -4.5 -15.5t-15.5 -8.5q-25 -6 -52 -6z" />
    <glyph glyph-name=".notdef" horiz-adv-x="500" 
d="M50 750h400v-750h-400v750zM400 50v650h-300v-650h300z" />
    <glyph glyph-name=".null" horiz-adv-x="0" 
 />
    <glyph glyph-name=".null" horiz-adv-x="0" 
 />
    <glyph glyph-name=".null" horiz-adv-x="0" 
 />
    <glyph glyph-name="nonmarkingreturn" unicode="&#x9;" horiz-adv-x="262" 
 />
    <glyph glyph-name="nonmarkingreturn" unicode="&#xd;" horiz-adv-x="262" 
 />
    <glyph glyph-name="space" unicode=" " horiz-adv-x="262" 
 />
    <glyph glyph-name="exclam" unicode="!" horiz-adv-x="258" 
d="M129 -10q-29 0 -47 18.5t-18 47.5t18 47.5t47 18.5t47 -18.5t18 -47.5t-18 -47.5t-47 -18.5zM107 210q-20 0 -20 20l-11 374q-2 38 -2 71q0 31 55 31q24 0 39.5 -8t15.5 -23q0 -33 -2 -71l-11 -374q0 -20 -20 -20h-44z" />
    <glyph glyph-name="quotedbl" unicode="&#x22;" horiz-adv-x="373" 
d="M87 449q-16 0 -17 17l-10 174q-2 30 -2 38q0 17 15 21q17 5 32 5q16 0 33 -5q15 -4 15 -21q0 -8 -2 -38l-10 -174q0 -17 -17 -17h-37zM249 449q-16 0 -17 17l-10 174q-2 30 -2 38q0 17 15 21q17 5 32 5q16 0 33 -5q15 -4 15 -21q0 -8 -2 -38l-10 -174q0 -17 -17 -17h-37z
" />
    <glyph glyph-name="numbersign" unicode="#" 
d="M355 254l29 189h-153l-29 -189h153zM104 0q-15 0 -15 13q0 8 4 32l22 139h-73q-20 0 -20 20v30q0 20 20 20h84l29 189h-83q-20 0 -20 20v30q0 20 20 20h94l26 161q1 10 6 14.5t16 4.5h39q15 0 15 -13q0 -8 -4 -32l-22 -135h153l26 161q1 10 6 14.5t16 4.5h39q15 0 15 -13
q0 -8 -4 -32l-22 -135h73q20 0 20 -20v-30q0 -20 -20 -20h-84l-29 -189h83q20 0 20 -20v-30q0 -20 -20 -20h-94l-26 -165q-1 -10 -6 -14.5t-16 -4.5h-39q-15 0 -15 13q0 8 4 32l22 139h-153l-26 -165q-1 -10 -6 -14.5t-16 -4.5h-39z" />
    <glyph glyph-name="dollar" unicode="$" 
d="M278 -130q-17 0 -17 17v105q-89 6 -169 48q-13 7 -16.5 13t-3.5 18v33q0 19 14 19q4 0 14.5 -4.5t36.5 -16.5q63 -28 124 -33v245l-42 16q-78 29 -115 71.5t-37 102.5q0 54 25 97t69 67.5t100 27.5v104q0 17 17 17h28q17 0 17 -17v-105q70 -6 133 -40q13 -6 17 -12.5
t4 -18.5v-33q0 -18 -13 -18q-6 0 -12 2.5t-22 10.5q-57 27 -107 32v-237l43 -16q79 -28 116.5 -69.5t37.5 -101.5q0 -84 -53 -138t-144 -64v-105q0 -17 -17 -17h-28zM323 70q51 6 80 37.5t29 81.5q0 38 -25 63t-84 46v-228zM261 619q-51 -4 -79 -33t-28 -79q0 -38 25 -63.5
t82 -45.5v221z" />
    <glyph glyph-name="percent" unicode="%" horiz-adv-x="940" 
d="M284 0q-13 0 -13 11q0 5 2.5 11t7.5 15l303 631q8 16 14 20.5t19 4.5h39q13 0 13 -11q0 -5 -2.5 -11t-7.5 -15l-303 -631q-8 -16 -14 -20.5t-19 -4.5h-39zM735 -8q-78 0 -121.5 53t-43.5 149q0 97 43 150.5t122 53.5q78 0 121.5 -53t43.5 -149q0 -97 -43 -150.5
t-122 -53.5zM735 57q42 0 62 33.5t20 103.5q0 72 -20 105.5t-62 33.5t-62 -33.5t-20 -103.5q0 -72 20 -105.5t62 -33.5zM205 295q-78 0 -121.5 53t-43.5 149q0 97 43 150.5t122 53.5q78 0 121.5 -53t43.5 -149q0 -97 -43 -150.5t-122 -53.5zM205 360q42 0 62 33.5t20 103.5
q0 72 -20 105.5t-62 33.5t-62 -33.5t-20 -103.5q0 -72 20 -105.5t62 -33.5z" />
    <glyph glyph-name="ampersand" unicode="&#x26;" horiz-adv-x="734" 
d="M278 63q85 0 146 41l-193 223q-100 -52 -100 -144q0 -58 38 -89t109 -31zM192 547q0 -31 15 -57t61 -78l36 19q43 23 66.5 55.5t23.5 68.5t-27 58.5t-70 22.5q-48 0 -76.5 -24t-28.5 -65zM273 -16q-110 0 -173 51t-63 140q0 67 39 119.5t111 83.5q-51 58 -69 93t-18 78
q0 72 53.5 115.5t141.5 43.5q84 0 136 -39.5t52 -105.5q0 -54 -38 -102.5t-109 -84.5l-25 -13l174 -197q51 74 51 187v11q0 20 20 20h47q20 0 20 -20v-19q0 -70 -21 -131.5t-61 -109.5q19 -18 40.5 -25.5t54.5 -7.5q15 0 26.5 2t16.5 2q15 0 15 -19v-25q0 -15 -4.5 -21
t-15.5 -9q-32 -8 -67 -8q-34 0 -64.5 13t-61.5 41q-90 -63 -208 -63z" />
    <glyph glyph-name="quotesingle" unicode="'" horiz-adv-x="211" 
d="M87 449q-16 0 -17 17l-10 174q-2 30 -2 38q0 17 15 21q17 5 32 5q16 0 33 -5q15 -4 15 -21q0 -8 -2 -38l-10 -174q0 -17 -17 -17h-37z" />
    <glyph glyph-name="parenleft" unicode="(" horiz-adv-x="312" 
d="M216 -144q-12 0 -19 4.5t-14 16.5q-59 94 -90.5 205t-31.5 223t31.5 223t90.5 205q7 12 14 16.5t19 4.5h48q16 0 16 -12q0 -8 -17 -38q-47 -84 -72 -187.5t-25 -211.5t25 -211.5t72 -187.5q17 -30 17 -38q0 -12 -16 -12h-48z" />
    <glyph glyph-name="parenright" unicode=")" horiz-adv-x="312" 
d="M48 -144q-16 0 -16 12q0 8 17 38q47 84 72 187.5t25 211.5t-25 211.5t-72 187.5q-17 30 -17 38q0 12 16 12h48q12 0 19 -4.5t14 -16.5q59 -94 90.5 -205t31.5 -223t-31.5 -223t-90.5 -205q-7 -12 -14 -16.5t-19 -4.5h-48z" />
    <glyph glyph-name="asterisk" unicode="*" horiz-adv-x="396" 
d="M117 365q-9 0 -20 6t-20 16q-7 8 -7 18t10 21l73 82l-98 23q-19 5 -19 22q0 21 11 38q8 13 19 13t31 -10l73 -36l-10 92q-1 8 -1.5 13.5t-0.5 8.5q0 24 39 24q41 0 41 -24q0 -3 -0.5 -8.5t-1.5 -13.5l-10 -92l73 36q20 10 31 10t19 -13q11 -17 11 -38q0 -17 -19 -22
l-98 -23l73 -82q10 -11 10 -21t-7 -18q-9 -10 -20 -16t-20 -6q-15 0 -23 15l-58 100l-58 -100q-8 -15 -23 -15z" />
    <glyph glyph-name="plus" unicode="+" 
d="M270 117q-20 0 -20 20v171h-163q-20 0 -20 20v40q0 20 20 20h163v171q0 20 20 20h46q20 0 20 -20v-171h163q20 0 20 -20v-40q0 -20 -20 -20h-163v-171q0 -20 -20 -20h-46z" />
    <glyph glyph-name="comma" unicode="," horiz-adv-x="248" 
d="M52 -153q-18 0 -18 15q0 4 4 28l39 205q3 21 23 21h13q34 0 48.5 -8.5t14.5 -28.5q0 -16 -13 -53l-59 -162q-7 -17 -25 -17h-27z" />
    <glyph glyph-name="hyphen" unicode="-" horiz-adv-x="390" 
d="M66 217q-20 0 -20 20v44q0 20 20 20h258q20 0 20 -20v-44q0 -20 -20 -20h-258z" />
    <glyph glyph-name="period" unicode="." horiz-adv-x="248" 
d="M124 -10q-29 0 -47 18.5t-18 47.5t18 47.5t47 18.5t47 -18.5t18 -47.5t-18 -47.5t-47 -18.5z" />
    <glyph glyph-name="slash" unicode="/" horiz-adv-x="469" 
d="M36 -144q-14 0 -14 13q0 8 8 28l315 830q7 18 13 22.5t22 4.5h53q14 0 14 -13q0 -8 -8 -28l-315 -830q-7 -18 -13 -22.5t-22 -4.5h-53z" />
    <glyph glyph-name="zero" unicode="0" 
d="M293 69q79 0 116 66.5t37 211.5q0 143 -37 210t-116 67t-116 -67t-37 -210q0 -144 37 -211t116 -67zM293 -15q-123 0 -189 93.5t-66 268.5q0 174 65.5 267.5t189.5 93.5q123 0 189 -93t66 -268t-65.5 -268.5t-189.5 -93.5z" />
    <glyph glyph-name="one" unicode="1" 
d="M316 0q-20 0 -20 20v574l-160 -63q-13 -6 -21 -6q-12 0 -12 14v35q0 14 3 20.5t12 10.5l162 77q16 7 24 9t20 2h52q20 0 20 -20v-653q0 -20 -20 -20h-60z" />
    <glyph glyph-name="two" unicode="2" 
d="M87 0q-20 0 -20 20v38q0 20 14 34q125 128 190.5 203t94 125t28.5 95q0 50 -30.5 78.5t-82.5 28.5q-38 0 -80.5 -14.5t-79.5 -39.5q-13 -9 -21 -9q-14 0 -14 21v35q0 12 3 17.5t15 13.5q45 32 91.5 47t100.5 15q91 0 146.5 -51t55.5 -135q0 -53 -27 -107.5t-93.5 -131
t-195.5 -200.5h328q20 0 20 -20v-43q0 -20 -20 -20h-423z" />
    <glyph glyph-name="three" unicode="3" 
d="M249 -15q-83 0 -166 32q-11 4 -15.5 10t-4.5 20v37q0 17 13 17q5 0 26 -7q73 -25 147 -25q76 0 117 34t41 97q0 121 -153 121q-30 0 -48.5 -1.5t-26.5 -1.5q-20 0 -20 20v25q0 19 15 35l195 213h-276q-20 0 -20 20v42q0 20 20 20h367q20 0 20 -20v-38q0 -11 -3.5 -19.5
t-11.5 -17.5l-191 -202q5 1 10 1h10q99 0 157 -53.5t58 -143.5q0 -98 -70.5 -156.5t-189.5 -58.5z" />
    <glyph glyph-name="four" unicode="4" 
d="M382 0q-20 0 -20 20v129h-312q-20 0 -20 20v39q0 12 2.5 18.5t9.5 16.5l301 427q10 14 17.5 18.5t22.5 4.5h52q20 0 20 -20v-443h77q20 0 20 -20v-41q0 -20 -20 -20h-77v-129q0 -20 -20 -20h-53zM362 230v332l-232 -332h232z" />
    <glyph glyph-name="five" unicode="5" 
d="M259 -15q-44 0 -88.5 8t-80.5 23q-13 5 -17.5 11.5t-4.5 18.5v35q0 19 15 19q8 0 29 -7q74 -24 146 -24q76 0 116.5 34.5t40.5 99.5q0 71 -38 103t-124 32q-53 0 -88 -3.5t-47 -4.5q-20 0 -20 20v44l18 279q1 20 20 20h326q20 0 20 -20v-42q0 -20 -20 -20h-261l-13 -203
q55 10 99 10q108 0 169 -57t61 -157q0 -98 -71 -158.5t-187 -60.5z" />
    <glyph glyph-name="six" unicode="6" 
d="M306 67q63 0 97.5 36t34.5 104q0 62 -35.5 96.5t-101.5 34.5q-36 0 -75 -11.5t-75 -31.5q6 -228 155 -228zM303 -15q-125 0 -188 85t-63 254q0 182 74.5 283t208.5 101q74 0 137 -24q11 -4 15.5 -10t4.5 -20v-30q0 -19 -15 -19q-4 0 -8.5 1t-15.5 4q-56 16 -105 16
q-96 0 -144.5 -65.5t-52.5 -199.5q40 27 86 42t90 15q64 0 112 -26.5t73.5 -72.5t25.5 -105q0 -104 -64 -166.5t-171 -62.5z" />
    <glyph glyph-name="seven" unicode="7" 
d="M168 0q-16 0 -16 13q0 7 9 27l260 571h-349q-20 0 -20 20v42q0 20 20 20h431q19 0 19 -20v-39q0 -22 -8 -38l-252 -569q-8 -18 -13.5 -22.5t-20.5 -4.5h-60z" />
    <glyph glyph-name="eight" unicode="8" 
d="M290 -15q-110 0 -175.5 50t-65.5 136q0 61 34.5 110t100.5 79q-55 28 -81.5 66.5t-26.5 91.5q0 86 59.5 138t157.5 52q97 0 157.5 -51t60.5 -133q0 -55 -30.5 -100t-84.5 -72q75 -34 108 -74t33 -98q0 -90 -66.5 -142.5t-180.5 -52.5zM293 64q70 0 109 30.5t39 86.5
q0 41 -28.5 67.5t-105.5 58.5l-61 25q-101 -57 -101 -144q0 -59 38.5 -91.5t109.5 -32.5zM334 378q83 55 83 136q0 57 -33 88t-92 31q-58 0 -90 -29t-32 -81q0 -41 27 -70.5t85 -53.5z" />
    <glyph glyph-name="nine" unicode="9" 
d="M285 338q38 0 76.5 10t70.5 28v14q-3 236 -151 236q-59 0 -94.5 -39.5t-35.5 -105.5q0 -70 34 -106.5t100 -36.5zM243 -15q-81 0 -145 31q-12 6 -16 12t-4 19v30q0 19 15 19q5 0 26 -7q43 -14 65 -18t45 -4q96 0 145.5 59t56.5 183q-36 -24 -80 -37.5t-90 -13.5
q-97 0 -153.5 58t-56.5 159q0 70 30.5 123t83 81.5t118.5 28.5q121 0 184.5 -85t63.5 -248q0 -188 -75 -289t-213 -101z" />
    <glyph glyph-name="colon" unicode=":" horiz-adv-x="248" 
d="M124 -10q-29 0 -47 18.5t-18 47.5t18 47.5t47 18.5t47 -18.5t18 -47.5t-18 -47.5t-47 -18.5zM124 385q-29 0 -47 18.5t-18 47.5t18 47.5t47 18.5t47 -18.5t18 -47.5t-18 -47.5t-47 -18.5z" />
    <glyph glyph-name="semicolon" unicode=";" horiz-adv-x="248" 
d="M52 -153q-18 0 -18 15q0 4 4 28l39 205q3 21 23 21h13q34 0 48.5 -8.5t14.5 -28.5q0 -16 -13 -53l-59 -162q-7 -17 -25 -17h-27zM124 385q-29 0 -47 18.5t-18 47.5t18 47.5t47 18.5t47 -18.5t18 -47.5t-18 -47.5t-47 -18.5z" />
    <glyph glyph-name="less" unicode="&#x3c;" 
d="M500 122q-7 0 -25 8l-377 169q-23 9 -23 32v36q0 13 5 19.5t18 12.5l377 169q18 8 25 8q11 0 11 -14v-45q0 -13 -3.5 -19.5t-13.5 -10.5l-324 -137l324 -137q10 -4 13.5 -10t3.5 -19v-48q0 -14 -11 -14z" />
    <glyph glyph-name="equal" unicode="=" 
d="M87 198q-20 0 -20 20v40q0 20 20 20h412q20 0 20 -20v-40q0 -20 -20 -20h-412zM87 419q-20 0 -20 20v40q0 20 20 20h412q20 0 20 -20v-40q0 -20 -20 -20h-412z" />
    <glyph glyph-name="greater" unicode="&#x3e;" 
d="M86 122q-11 0 -11 14v45q0 13 3.5 19.5t13.5 10.5l324 137l-324 137q-10 4 -13.5 10t-3.5 19v48q0 14 11 14q7 0 25 -8l377 -169q23 -9 23 -32v-36q0 -13 -5 -19.5t-18 -12.5l-377 -169q-18 -8 -25 -8z" />
    <glyph glyph-name="question" unicode="?" horiz-adv-x="429" 
d="M183 -10q-29 0 -47 18.5t-18 47.5t18 47.5t47 18.5t47 -18.5t18 -47.5t-18 -47.5t-47 -18.5zM160 210q-19 0 -20 20l-5 90q-2 27 -2 38q0 13 14 20l31 16q68 35 95.5 66t27.5 73q0 45 -27.5 68.5t-80.5 23.5q-56 0 -109 -23q-14 -6 -22.5 -9.5t-12.5 -3.5q-15 0 -15 19
v33q0 13 4 18.5t16 11.5q32 17 74.5 27t80.5 10q89 0 139.5 -44t50.5 -121q0 -66 -42.5 -116t-133.5 -91v-106q0 -20 -20 -20h-43z" />
    <glyph glyph-name="at" unicode="@" horiz-adv-x="957" 
d="M443 62q61 0 117 55q0 11 3 33l34 208q-37 37 -90 37q-43 0 -77.5 -31t-53.5 -80.5t-19 -106.5q0 -56 22 -85.5t64 -29.5zM420 -218q-117 0 -201 47t-127.5 134t-43.5 204q0 149 66 266t176 180.5t244 63.5q116 0 201 -45t129.5 -126t44.5 -189q0 -95 -31 -169.5
t-83 -115.5t-115 -41q-43 0 -71.5 17t-41.5 49q-31 -33 -70 -50.5t-80 -17.5q-71 0 -111.5 47.5t-40.5 131.5q0 82 33 151.5t85 109t110 39.5q36 0 66.5 -15t51.5 -42l9 24q4 11 8.5 14.5t14.5 3.5h30q20 0 20 -16q0 -4 -1.5 -12t-3.5 -21l-44 -262q-3 -19 -3 -34
q0 -25 11 -36.5t34 -11.5q40 0 72 36t49.5 94t17.5 127q0 134 -77.5 209t-215.5 75q-117 0 -208 -58t-140 -156t-49 -219q0 -149 76 -229.5t215 -80.5q65 0 138 21q8 2 11.5 3t6.5 1q13 0 13 -20v-25q0 -12 -4.5 -18.5t-16.5 -11.5q-70 -26 -154 -26z" />
    <glyph glyph-name="A" unicode="A" horiz-adv-x="642" 
d="M437 261l-118 340l-116 -340h234zM33 0q-17 0 -17 13q0 7 6 23l234 630q6 18 12.5 22.5t21.5 4.5h62q15 0 21.5 -4.5t12.5 -22.5l234 -630q6 -16 6 -23q0 -13 -17 -13h-57q-15 0 -21.5 4.5t-12.5 22.5l-55 157h-287l-53 -157q-6 -18 -12.5 -22.5t-21.5 -4.5h-56z" />
    <glyph glyph-name="B" unicode="B" horiz-adv-x="613" 
d="M104 0q-20 0 -20 20v653q0 20 20 20h209q97 0 156 -50t59 -133q0 -52 -24 -89.5t-69 -57.5q64 -19 98 -62.5t34 -107.5q0 -88 -62 -140.5t-166 -52.5h-235zM337 78q127 0 127 119q0 59 -32.5 89t-96.5 30h-154v-238h156zM303 392q124 0 124 111q0 55 -30.5 83.5
t-90.5 28.5h-125v-223h122z" />
    <glyph glyph-name="C" unicode="C" horiz-adv-x="607" 
d="M397 -12q-164 0 -248.5 90.5t-84.5 265.5q0 173 87.5 266t250.5 93q70 0 140 -20q12 -4 16 -10.5t4 -19.5v-38q0 -19 -14 -19q-4 0 -10.5 1t-23.5 5q-54 12 -100 12q-126 0 -184 -61.5t-58 -195.5v-24q0 -132 56.5 -194t179.5 -62q41 0 119 16q14 3 20 4t10 1
q15 0 15 -19v-37q0 -13 -4 -19.5t-16 -10.5q-72 -24 -155 -24z" />
    <glyph glyph-name="D" unicode="D" horiz-adv-x="690" 
d="M104 0q-20 0 -20 20v653q0 20 20 20h208q153 0 233.5 -88.5t80.5 -258.5q0 -168 -82 -257t-235 -89h-205zM186 80h112q223 0 223 255v23q0 127 -56 191t-167 64h-112v-533z" />
    <glyph glyph-name="E" unicode="E" horiz-adv-x="561" 
d="M104 0q-20 0 -20 20v653q0 20 20 20h391q20 0 20 -20v-42q0 -20 -20 -20h-309v-213h256q20 0 20 -20v-42q0 -20 -20 -20h-256v-234h309q20 0 20 -20v-42q0 -20 -20 -20h-391z" />
    <glyph glyph-name="F" unicode="F" horiz-adv-x="524" 
d="M104 0q-20 0 -20 20v653q0 20 20 20h371q20 0 20 -20v-42q0 -20 -20 -20h-289v-223h235q20 0 20 -20v-42q0 -20 -20 -20h-235v-286q0 -20 -20 -20h-62z" />
    <glyph glyph-name="G" unicode="G" horiz-adv-x="692" 
d="M398 -12q-164 0 -249 90t-85 264q0 176 87 268.5t252 92.5q93 0 172 -32q12 -5 16.5 -11.5t4.5 -18.5v-35q0 -19 -14 -19q-7 0 -29 7q-73 23 -139 23q-127 0 -186 -63.5t-59 -198.5v-22q0 -133 60.5 -196t188.5 -63q59 0 106 11v203h-135q-20 0 -20 20v39q0 20 20 20h211
q20 0 20 -20v-284q0 -16 -4.5 -23.5t-17.5 -13.5q-84 -38 -200 -38z" />
    <glyph glyph-name="H" unicode="H" horiz-adv-x="718" 
d="M104 0q-20 0 -20 20v653q0 20 20 20h62q20 0 20 -20v-278h346v278q0 20 20 20h62q20 0 20 -20v-653q0 -20 -20 -20h-62q-20 0 -20 20v292h-346v-292q0 -20 -20 -20h-62z" />
    <glyph glyph-name="I" unicode="I" horiz-adv-x="278" 
d="M108 0q-20 0 -20 20v653q0 20 20 20h62q20 0 20 -20v-653q0 -20 -20 -20h-62z" />
    <glyph glyph-name="J" unicode="J" horiz-adv-x="437" 
d="M148 -17q-49 0 -102 18q-11 4 -15.5 10t-4.5 20v34q0 19 14 19q7 0 24 -5q41 -10 75 -10q62 0 89 31.5t27 103.5v469q0 20 20 20h62q20 0 20 -20v-467q0 -223 -209 -223z" />
    <glyph glyph-name="K" unicode="K" horiz-adv-x="617" 
d="M104 0q-20 0 -20 20v653q0 20 20 20h62q20 0 20 -20v-290l273 295q8 9 16.5 12t23.5 3h65q14 0 14 -12q0 -7 -9 -16l-286 -303l313 -334q9 -9 9 -16q0 -12 -14 -12h-68q-16 0 -25 3t-17 12l-295 316v-311q0 -20 -20 -20h-62z" />
    <glyph glyph-name="L" unicode="L" horiz-adv-x="524" 
d="M104 0q-20 0 -20 20v653q0 20 20 20h62q20 0 20 -20v-589h307q20 0 20 -20v-44q0 -20 -20 -20h-389z" />
    <glyph glyph-name="M" unicode="M" horiz-adv-x="840" 
d="M104 0q-20 0 -20 20v653q0 20 20 20h75q11 0 17 -3.5t11 -13.5l215 -408l214 408q5 10 11 13.5t17 3.5h72q20 0 20 -20v-653q0 -20 -20 -20h-54q-20 0 -20 20v525l-186 -351q-8 -17 -29 -17h-53q-11 0 -17.5 4t-11.5 13l-187 352v-526q0 -20 -20 -20h-54z" />
    <glyph glyph-name="N" unicode="N" horiz-adv-x="714" 
d="M104 0q-20 0 -20 20v653q0 20 20 20h64q28 0 38 -18l330 -536v534q0 20 20 20h54q20 0 20 -20v-653q0 -20 -20 -20h-65q-27 0 -38 18l-329 533v-531q0 -20 -20 -20h-54z" />
    <glyph glyph-name="O" unicode="O" horiz-adv-x="777" 
d="M389 69q107 0 163 71t56 206t-56 205.5t-163 70.5q-108 0 -164 -70.5t-56 -205.5q0 -136 56.5 -206.5t163.5 -70.5zM389 -17q-102 0 -175.5 44.5t-111.5 126t-38 192.5q0 113 39.5 195t112.5 124.5t173 42.5q151 0 237.5 -96.5t86.5 -265.5q0 -114 -39.5 -195.5
t-112.5 -124.5t-172 -43z" />
    <glyph glyph-name="P" unicode="P" horiz-adv-x="600" 
d="M104 0q-20 0 -20 20v653q0 20 20 20h231q101 0 161 -57.5t60 -155.5q0 -97 -60 -154.5t-161 -57.5h-152v-248q0 -20 -20 -20h-59zM326 349q63 0 95 33.5t32 97.5q0 132 -127 132h-143v-263h143z" />
    <glyph glyph-name="Q" unicode="Q" horiz-adv-x="777" 
d="M693 -160q-11 0 -48 8q-141 31 -269 136q-147 4 -229.5 100t-82.5 262q0 113 39.5 195t112.5 124.5t173 42.5q151 0 237.5 -96.5t86.5 -265.5q0 -141 -61 -233t-173 -119q50 -28 99 -43t105 -20q15 -1 19.5 -6t4.5 -24v-47q0 -14 -14 -14zM389 69q107 0 163 71t56 206
t-56 205.5t-163 70.5q-108 0 -164 -70.5t-56 -205.5q0 -136 56.5 -206.5t163.5 -70.5z" />
    <glyph glyph-name="R" unicode="R" horiz-adv-x="613" 
d="M104 0q-20 0 -20 20v653q0 20 20 20h233q101 0 161 -55.5t60 -149.5q0 -69 -37.5 -119.5t-105.5 -73.5l165 -263q8 -12 8 -20q0 -5 -4 -8.5t-11 -3.5h-56q-17 0 -24.5 3t-12.5 12l-162 264h-135v-259q0 -20 -20 -20h-59zM324 360q64 0 97.5 32t33.5 95q0 62 -32 93.5
t-95 31.5h-145v-252h141z" />
    <glyph glyph-name="S" unicode="S" horiz-adv-x="570" 
d="M264 -17q-48 0 -96 8.5t-84 23.5q-12 5 -16 11t-4 19v36q0 19 15 19q6 0 28 -7q35 -11 77 -17.5t78 -6.5q71 0 111.5 31t40.5 84q0 37 -23.5 61.5t-79.5 46.5l-97 37q-82 31 -119 75t-37 111q0 58 30 102t82.5 67.5t119.5 23.5q83 0 165 -29q11 -4 15.5 -10t4.5 -20v-35
q0 -19 -14 -19q-5 0 -10 1t-19 5q-72 21 -135 21q-65 0 -100.5 -26.5t-35.5 -75.5q0 -40 24 -63.5t89 -47.5l91 -34q81 -30 116.5 -72.5t35.5 -109.5q0 -96 -68.5 -153t-184.5 -57z" />
    <glyph glyph-name="T" unicode="T" horiz-adv-x="574" 
d="M256 0q-20 0 -20 20v589h-201q-20 0 -20 20v44q0 20 20 20h504q20 0 20 -20v-44q0 -20 -20 -20h-201v-589q0 -20 -20 -20h-62z" />
    <glyph glyph-name="U" unicode="U" horiz-adv-x="706" 
d="M353 -17q-132 0 -202.5 69.5t-70.5 200.5v420q0 20 20 20h62q20 0 20 -20v-429q0 -84 44 -129.5t127 -45.5t127 45.5t44 129.5v429q0 20 20 20h62q20 0 20 -20v-420q0 -130 -70.5 -200t-202.5 -70z" />
    <glyph glyph-name="V" unicode="V" horiz-adv-x="640" 
d="M289 0q-16 0 -22 5t-12 22l-232 630q-6 17 -6 23q0 13 16 13h65q16 0 21.5 -4.5t11.5 -22.5l191 -564l191 564q6 18 11.5 22.5t21.5 4.5h61q16 0 16 -13q0 -6 -6 -23l-232 -630q-6 -17 -12 -22t-22 -5h-62z" />
    <glyph glyph-name="W" unicode="W" horiz-adv-x="929" 
d="M245 0q-16 0 -22.5 5t-11.5 22l-185 630q-5 18 -5 23q0 13 16 13h64q18 0 23.5 -5t9.5 -22l143 -554l127 535q4 16 10.5 21t22.5 5h58q16 0 22.5 -5t10.5 -21l127 -536l144 555q4 17 9.5 22t23.5 5h60q16 0 16 -13q0 -5 -5 -23l-185 -630q-5 -17 -11.5 -22t-22.5 -5h-61
q-17 0 -23.5 5.5t-10.5 21.5l-124 516l-125 -516q-4 -16 -10.5 -21.5t-23.5 -5.5h-61z" />
    <glyph glyph-name="X" unicode="X" horiz-adv-x="604" 
d="M35 0q-17 0 -17 13q0 7 11 23l215 322l-200 299q-11 17 -11 23q0 13 17 13h68q10 0 15.5 -2.5t9.5 -8.5l161 -249l159 249q4 6 9.5 8.5t15.5 2.5h65q17 0 17 -13q0 -8 -11 -23l-200 -296l216 -325q11 -16 11 -23q0 -13 -17 -13h-69q-10 0 -15.5 2.5t-9.5 8.5l-176 275
l-174 -275q-4 -6 -9.5 -8.5t-15.5 -2.5h-65z" />
    <glyph glyph-name="Y" unicode="Y" horiz-adv-x="602" 
d="M269 0q-20 0 -20 20v235l-218 401q-11 20 -11 26q0 11 15 11h72q10 0 15 -2.5t10 -12.5l169 -340l172 340q5 10 10 12.5t15 2.5h69q15 0 15 -11q0 -6 -11 -26l-222 -403v-233q0 -20 -20 -20h-60z" />
    <glyph glyph-name="Z" unicode="Z" horiz-adv-x="579" 
d="M62 0q-20 0 -20 20v34q0 23 17 47l367 509h-342q-20 0 -20 20v43q0 20 20 20h433q20 0 20 -20v-34q0 -13 -3.5 -23t-12.5 -23l-369 -510h365q20 0 20 -20v-43q0 -20 -20 -20h-455z" />
    <glyph glyph-name="bracketleft" unicode="[" horiz-adv-x="351" 
d="M104 -144q-20 0 -20 20v858q0 20 20 20h207q20 0 20 -20v-40q0 -20 -20 -20h-125v-738h125q20 0 20 -20v-40q0 -20 -20 -20h-207z" />
    <glyph glyph-name="backslash" unicode="\" horiz-adv-x="469" 
d="M380 -144q-16 0 -22 4.5t-13 22.5l-315 830q-8 20 -8 28q0 13 14 13h53q16 0 22 -4.5t13 -22.5l315 -830q8 -20 8 -28q0 -13 -14 -13h-53z" />
    <glyph glyph-name="bracketright" unicode="]" horiz-adv-x="351" 
d="M40 -144q-20 0 -20 20v40q0 20 20 20h125v738h-125q-20 0 -20 20v40q0 20 20 20h207q20 0 20 -20v-858q0 -20 -20 -20h-207z" />
    <glyph glyph-name="asciicircum" unicode="^" 
d="M72 303q-7 0 -11 3.5t-4 8.5t10 23l170 328q10 19 15 23t19 4h44q14 0 19 -4t15 -23l170 -328q10 -16 10 -23q0 -5 -4 -8.5t-11 -3.5h-51q-15 0 -21.5 5t-14.5 22l-134 275l-136 -275q-9 -19 -14.5 -23t-19.5 -4h-51z" />
    <glyph glyph-name="underscore" unicode="_" horiz-adv-x="500" 
d="M20 -149q-20 0 -20 20v40q0 20 20 20h460q20 0 20 -20v-40q0 -20 -20 -20h-460z" />
    <glyph glyph-name="grave" unicode="`" horiz-adv-x="588" 
d="M339 601q-14 0 -21.5 4.5t-17.5 16.5l-89 108q-10 11 -10 19q0 5 4 8.5t10 3.5h64q14 0 21.5 -5t15.5 -19l64 -106q7 -11 7 -18q0 -5 -4 -8.5t-11 -3.5h-33z" />
    <glyph glyph-name="a" unicode="a" horiz-adv-x="527" 
d="M198 -13q-71 0 -113.5 40.5t-42.5 108.5q0 73 52 116.5t140 43.5q56 0 126 -17v66q0 54 -24.5 76t-83.5 22q-69 0 -135 -20q-23 -7 -29 -7q-12 0 -12 18v27q0 13 4 19t16 11q31 14 78.5 22.5t94.5 8.5q95 0 140 -39.5t45 -120.5v-342q0 -20 -20 -20h-43q-19 0 -22 19
l-5 33q-36 -31 -79.5 -48t-86.5 -17zM222 62q33 0 69 13t69 38v102q-54 13 -106 13q-113 0 -113 -87q0 -38 21 -58.5t60 -20.5z" />
    <glyph glyph-name="b" unicode="b" horiz-adv-x="592" 
d="M305 69q138 0 138 186q0 95 -33.5 141t-102.5 46q-71 0 -134 -46v-279q63 -48 132 -48zM328 -11q-92 0 -161 64l-7 -33q-3 -20 -23 -20h-43q-20 0 -20 20v700q0 20 20 20h59q20 0 20 -20v-261q75 63 162 63q97 0 153 -70t56 -192q0 -123 -59 -197t-157 -74z" />
    <glyph glyph-name="c" unicode="c" horiz-adv-x="461" 
d="M291 -11q-118 0 -180.5 67.5t-62.5 195.5q0 127 64.5 196.5t182.5 69.5q54 0 106 -19q11 -4 15.5 -10t4.5 -20v-27q0 -20 -13 -20q-5 0 -16 3q-41 12 -83 12q-84 0 -121 -42.5t-37 -135.5v-13q0 -91 37.5 -133.5t118.5 -42.5q42 0 90 14q11 3 15 3q13 0 13 -20v-27
q0 -13 -4 -19t-16 -11q-49 -21 -114 -21z" />
    <glyph glyph-name="d" unicode="d" horiz-adv-x="590" 
d="M261 -11q-66 0 -114 33t-73.5 92t-25.5 137q0 83 27 144.5t76 94t113 32.5q85 0 153 -56v254q0 20 20 20h59q20 0 20 -20v-700q0 -20 -20 -20h-44q-9 0 -14.5 4t-8.5 16l-8 32q-33 -30 -75 -46.5t-85 -16.5zM291 69q62 0 126 46v283q-31 23 -62.5 33.5t-69.5 10.5
q-136 0 -136 -188q0 -185 142 -185z" />
    <glyph glyph-name="e" unicode="e" horiz-adv-x="529" 
d="M297 -15q-123 0 -186 68t-63 201q0 127 63 197.5t176 70.5q95 0 146 -53.5t51 -151.5q0 -32 -5 -65q-2 -12 -6.5 -16t-14.5 -4h-314q2 -86 42.5 -127t125.5 -41q30 0 57.5 4t69.5 17q7 2 12 3.5t9 1.5q13 0 13 -18v-28q0 -13 -4 -18.5t-17 -11.5q-30 -13 -71.5 -21
t-83.5 -8zM393 298q1 8 1 26q0 61 -28.5 92t-83.5 31q-63 0 -98 -37.5t-40 -111.5h249z" />
    <glyph glyph-name="f" unicode="f" horiz-adv-x="373" 
d="M132 0q-20 0 -20 20v409h-74q-20 0 -20 20v25q0 10 4.5 15t17.5 7l72 9v82q0 167 160 167q38 0 80 -11q11 -3 15.5 -9t4.5 -21v-26q0 -19 -15 -19q-9 0 -25.5 3t-37.5 3q-46 0 -64.5 -17.5t-18.5 -57.5v-92h135q20 0 20 -20v-38q0 -20 -20 -20h-135v-409q0 -20 -20 -20
h-59z" />
    <glyph glyph-name="g" unicode="g" horiz-adv-x="580" 
d="M262 -218q-82 0 -153 30q-12 5 -16 11t-4 19v29q0 18 12 18q6 0 14.5 -3t23.5 -7q62 -17 115 -17q80 0 117 38.5t37 123.5v45q-34 -29 -73 -44.5t-79 -15.5q-64 0 -111 32t-72 89t-25 131q0 120 57 190.5t153 70.5q90 0 157 -62l5 28q2 11 7.5 15t15.5 4h43q20 0 20 -20
v-456q0 -119 -63.5 -184t-180.5 -65zM285 89q62 0 123 46v263q-30 23 -61 33.5t-68 10.5q-130 0 -130 -177q0 -87 34.5 -131.5t101.5 -44.5z" />
    <glyph glyph-name="h" unicode="h" horiz-adv-x="588" 
d="M94 0q-20 0 -20 20v700q0 20 20 20h59q20 0 20 -20v-265q95 67 194 67q73 0 111 -38.5t38 -111.5v-352q0 -20 -20 -20h-59q-20 0 -20 20v319q0 53 -21.5 78t-67.5 25q-79 0 -155 -51v-371q0 -20 -20 -20h-59z" />
    <glyph glyph-name="i" unicode="i" horiz-adv-x="255" 
d="M98 0q-20 0 -20 20v467q0 20 20 20h59q20 0 20 -20v-467q0 -20 -20 -20h-59zM128 597q-29 0 -45.5 16.5t-16.5 43.5t16.5 43.5t45.5 16.5t45.5 -16.5t16.5 -43.5t-16.5 -43.5t-45.5 -16.5z" />
    <glyph glyph-name="j" unicode="j" horiz-adv-x="255" 
d="M51 -218q-37 0 -65 7q-11 3 -15.5 9.5t-4.5 20.5v27q0 19 15 19q5 0 17 -1.5t27 -1.5q28 0 40.5 10.5t12.5 34.5v580q0 20 20 20h59q20 0 20 -20v-572q0 -65 -32 -99t-94 -34zM128 597q-29 0 -45.5 16.5t-16.5 43.5t16.5 43.5t45.5 16.5t45.5 -16.5t16.5 -43.5
t-16.5 -43.5t-45.5 -16.5z" />
    <glyph glyph-name="k" unicode="k" horiz-adv-x="526" 
d="M94 0q-20 0 -20 20v700q0 20 20 20h59q20 0 20 -20v-434l206 208q8 8 15.5 10.5t19.5 2.5h64q15 0 15 -12q0 -8 -8 -16l-216 -213l233 -238q8 -8 8 -16q0 -12 -15 -12h-70q-23 0 -35 14l-217 226v-220q0 -20 -20 -20h-59z" />
    <glyph glyph-name="l" unicode="l" horiz-adv-x="285" 
d="M183 -5q-53 0 -81 30.5t-28 87.5v607q0 20 20 20h59q20 0 20 -20v-601q0 -23 9.5 -33.5t31.5 -10.5q6 0 12.5 1t11.5 1q10 0 13.5 -5t3.5 -15v-32q0 -10 -4.5 -15.5t-15.5 -8.5q-25 -6 -52 -6z" />
    <glyph glyph-name="m" unicode="m" horiz-adv-x="893" 
d="M94 0q-20 0 -20 20v467q0 20 20 20h44q10 0 15.5 -4t7.5 -15l6 -32q96 66 187 66q93 0 126 -71q99 71 198 71q69 0 106 -39t37 -111v-352q0 -20 -20 -20h-59q-20 0 -20 20v324q0 50 -19 74t-60 24q-73 0 -147 -45q1 -7 1 -15v-16v-346q0 -20 -20 -20h-59q-20 0 -20 20
v324q0 50 -19 74t-60 24q-76 0 -146 -44v-378q0 -20 -20 -20h-59z" />
    <glyph glyph-name="n" unicode="n" horiz-adv-x="588" 
d="M94 0q-20 0 -20 20v467q0 20 20 20h44q10 0 15.5 -4t7.5 -15l6 -37q95 71 200 71q73 0 111 -38.5t38 -111.5v-352q0 -20 -20 -20h-59q-20 0 -20 20v319q0 53 -21.5 78t-67.5 25q-79 0 -155 -51v-371q0 -20 -20 -20h-59z" />
    <glyph glyph-name="o" unicode="o" horiz-adv-x="580" 
d="M290 -15q-114 0 -178 71t-64 198q0 126 64 197t178 71t178 -71t64 -197q0 -127 -64 -198t-178 -71zM290 65q141 0 141 189q0 188 -141 188t-141 -188q0 -189 141 -189z" />
    <glyph glyph-name="p" unicode="p" horiz-adv-x="592" 
d="M94 -206q-20 0 -20 20v673q0 20 20 20h44q20 0 23 -20l5 -32q76 67 169 67q97 0 153 -70.5t56 -191.5q0 -123 -59 -197t-157 -74q-90 0 -155 59v-234q0 -20 -20 -20h-59zM305 69q138 0 138 186q0 95 -33.5 141t-102.5 46q-71 0 -134 -46v-279q65 -48 132 -48z" />
    <glyph glyph-name="q" unicode="q" horiz-adv-x="590" 
d="M437 -206q-20 0 -20 20v234q-33 -28 -73.5 -43.5t-82.5 -15.5q-66 0 -114 33t-73.5 92t-25.5 137q0 84 27 145t75.5 93.5t112.5 32.5q95 0 162 -63l4 28q3 20 23 20h44q20 0 20 -20v-673q0 -20 -20 -20h-59zM291 69q62 0 126 46v283q-31 23 -62.5 33.5t-69.5 10.5
q-136 0 -136 -188q0 -185 142 -185z" />
    <glyph glyph-name="r" unicode="r" horiz-adv-x="373" 
d="M94 0q-20 0 -20 20v467q0 20 20 20h44q10 0 15.5 -4t7.5 -15l7 -56q27 29 51 46t49.5 25t54.5 8q12 0 24 -1q17 -2 17 -18v-54q0 -18 -18 -18q-9 0 -17.5 1t-18.5 1q-80 0 -137 -48v-354q0 -20 -20 -20h-59z" />
    <glyph glyph-name="s" unicode="s" horiz-adv-x="432" 
d="M210 -15q-84 0 -151 28q-12 5 -16.5 11t-4.5 19v28q0 18 12 18q7 0 25 -6q66 -21 137 -21q49 0 74.5 19t25.5 55q0 24 -15.5 39t-56.5 30l-85 32q-111 41 -111 140q0 65 50.5 105t132.5 40q65 0 127 -23q12 -4 17 -10.5t5 -19.5v-27q0 -18 -13 -18q-7 0 -23 5
q-53 16 -108 16q-96 0 -96 -65q0 -26 16 -41t63 -33l78 -30q59 -23 85 -54.5t26 -81.5q0 -71 -53 -113t-141 -42z" />
    <glyph glyph-name="t" unicode="t" horiz-adv-x="383" 
d="M248 -7q-142 0 -142 142v294h-72q-20 0 -20 20v25q0 10 4.5 15t17.5 7l73 9l13 124q2 20 21 20h42q20 0 20 -20v-122h130q20 0 20 -20v-38q0 -20 -20 -20h-130v-289q0 -37 16.5 -52t56.5 -15q19 0 47 5q15 3 20 3q8 0 11 -4.5t3 -14.5v-27q0 -13 -4 -19.5t-16 -10.5
q-39 -12 -91 -12z" />
    <glyph glyph-name="u" unicode="u" horiz-adv-x="575" 
d="M217 -15q-71 0 -109 40t-38 113v349q0 20 20 20h59q20 0 20 -20v-317q0 -54 21 -79.5t67 -25.5q72 0 145 48v374q0 20 20 20h59q20 0 20 -20v-467q0 -20 -20 -20h-43q-10 0 -15.5 4t-7.5 15l-7 35q-93 -69 -191 -69z" />
    <glyph glyph-name="v" unicode="v" horiz-adv-x="512" 
d="M231 0q-14 0 -20.5 4t-13.5 23l-177 444q-2 6 -4.5 12t-2.5 11q0 13 15 13h59q15 0 21 -4t13 -23l137 -390l137 390q7 19 13 23t21 4h55q15 0 15 -13q0 -5 -2.5 -11t-4.5 -12l-176 -444q-7 -19 -13.5 -23t-20.5 -4h-51z" />
    <glyph glyph-name="w" unicode="w" horiz-adv-x="769" 
d="M200 0q-15 0 -21.5 5.5t-12.5 22.5l-148 442q-6 18 -6 23q0 14 15 14h57q16 0 22.5 -5.5t11.5 -22.5l109 -378l100 378q5 17 12 22.5t22 5.5h46q15 0 22 -5.5t12 -22.5l101 -383l112 383q5 17 11.5 22.5t22.5 5.5h54q15 0 15 -14q0 -5 -6 -23l-152 -442
q-6 -17 -12.5 -22.5t-21.5 -5.5h-49q-15 0 -22 6t-12 23l-100 368l-99 -368q-5 -17 -12 -23t-22 -6h-49z" />
    <glyph glyph-name="x" unicode="x" horiz-adv-x="481" 
d="M31 0q-7 0 -11 3.5t-4 8.5q0 8 12 24l158 224l-148 211q-12 16 -12 24q0 12 15 12h60q12 0 19 -3.5t12 -11.5l110 -162l109 162q5 8 12.5 11.5t19.5 3.5h54q15 0 15 -12q0 -8 -12 -24l-147 -205l160 -230q12 -17 12 -24q0 -5 -4 -8.5t-11 -3.5h-61q-12 0 -19 3.5
t-12 11.5l-121 179l-119 -179q-5 -8 -12.5 -11.5t-19.5 -3.5h-55z" />
    <glyph glyph-name="y" unicode="y" horiz-adv-x="509" 
d="M116 -218q-32 0 -57 7q-12 3 -16.5 10t-4.5 20v26q0 19 15 19q5 0 15 -2t27 -2q37 0 58.5 18.5t38.5 65.5l19 51l-193 476q-7 17 -7 24q0 12 14 12h60q16 0 22 -5t12 -22l140 -388l135 388q6 17 12 22t22 5h56q14 0 14 -12q0 -7 -7 -24l-220 -560q-27 -69 -63 -99
t-92 -30z" />
    <glyph glyph-name="z" unicode="z" horiz-adv-x="476" 
d="M56 0q-20 0 -20 20v34q0 13 2.5 20t14.5 22l274 333h-261q-20 0 -20 20v38q0 20 20 20h351q20 0 20 -20v-33q0 -13 -2.5 -20.5t-13.5 -20.5l-279 -335h278q11 0 15.5 -4.5t4.5 -14.5v-39q0 -20 -20 -20h-364z" />
    <glyph glyph-name="braceleft" unicode="{" horiz-adv-x="382" 
d="M279 -152q-74 0 -115.5 44.5t-41.5 124.5v179q0 38 -16 54t-54 16h-4q-19 0 -19 20v38q0 20 19 20h4q38 0 54 16t16 54v179q0 80 41.5 124.5t115.5 44.5q38 0 62 -8q12 -4 16 -10.5t4 -19.5v-27q0 -19 -15 -19q-5 0 -17 2.5t-32 2.5q-37 0 -55 -20t-18 -61v-182
q0 -48 -20.5 -75t-67.5 -40q47 -13 67.5 -40t20.5 -75v-182q0 -41 18 -61t55 -20q20 0 32 2.5t17 2.5q15 0 15 -19v-27q0 -13 -4 -19.5t-16 -10.5q-24 -8 -62 -8z" />
    <glyph glyph-name="bar" unicode="|" horiz-adv-x="281" 
d="M110 -206q-20 0 -20 20v920q0 20 20 20h61q20 0 20 -20v-920q0 -20 -20 -20h-61z" />
    <glyph glyph-name="braceright" unicode="}" horiz-adv-x="382" 
d="M103 -152q-38 0 -62 8q-12 4 -16 10.5t-4 19.5v27q0 19 15 19q5 0 17 -2.5t32 -2.5q37 0 55 20t18 61v182q0 48 20.5 75t67.5 40q-47 13 -67.5 40t-20.5 75v182q0 41 -18 61t-55 20q-20 0 -32 -2.5t-17 -2.5q-15 0 -15 19v27q0 13 4 19.5t16 10.5q24 8 62 8
q74 0 115.5 -44.5t41.5 -124.5v-179q0 -38 16 -54t54 -16h4q19 0 19 -20v-38q0 -20 -19 -20h-4q-38 0 -54 -16t-16 -54v-179q0 -80 -41.5 -124.5t-115.5 -44.5z" />
    <glyph glyph-name="asciitilde" unicode="~" 
d="M410 259q-59 0 -130 53q-40 30 -59 39t-40 9q-24 0 -36 -14.5t-14 -45.5l-1 -15q-1 -20 -20 -20h-36q-10 0 -14 4.5t-6 15.5q-1 8 -1 26q0 59 32.5 92.5t90.5 33.5q59 0 130 -53q40 -30 59 -39t40 -9q24 0 36 14.5t14 45.5l1 15q1 20 20 20h36q10 0 14.5 -4.5t5.5 -15.5
q1 -8 1 -26q0 -59 -32.5 -92.5t-90.5 -33.5z" />
    <glyph glyph-name="uni00A0" unicode="&#xa0;" horiz-adv-x="262" 
 />
    <glyph glyph-name="exclamdown" unicode="&#xa1;" horiz-adv-x="258" 
d="M129 385q-29 0 -47 18.5t-18 47.5t18 47.5t47 18.5t47 -18.5t18 -47.5t-18 -47.5t-47 -18.5zM129 -199q-24 0 -39.5 8t-15.5 23q0 33 2 71l11 374q0 20 20 20h44q20 0 20 -20l11 -374q2 -38 2 -71q0 -31 -55 -31z" />
    <glyph glyph-name="cent" unicode="&#xa2;" 
d="M327 -130q-17 0 -17 17v133q-106 10 -160.5 76t-54.5 185q0 115 55.5 182.5t159.5 78.5v134q0 17 17 17h28q17 0 17 -17v-133q52 -2 101 -20q12 -4 16 -10t4 -20v-26q0 -20 -13 -20q-6 0 -25 5q-42 11 -83 12v-365q16 0 42 4t45 9q18 5 24 5q14 0 14 -20v-25
q0 -13 -4 -19t-16 -11q-46 -19 -105 -22v-133q0 -17 -17 -17h-28zM310 459q-60 -11 -88.5 -52.5t-28.5 -118.5v-13q0 -77 28.5 -119t88.5 -53v356z" />
    <glyph glyph-name="sterling" unicode="&#xa3;" 
d="M111 0q-20 0 -20 20v37q0 12 3.5 18.5t14.5 17.5q62 61 62 161q0 13 -0.5 26t-2.5 26h-81q-20 0 -20 20v38q0 20 20 20h67q-8 35 -14.5 66.5t-6.5 60.5q0 60 28.5 104.5t78.5 68t115 23.5q85 0 152 -35q13 -6 17 -12.5t4 -18.5v-35q0 -18 -14 -18q-7 0 -17.5 4.5
t-25.5 9.5q-55 20 -107 20q-65 0 -98.5 -31t-33.5 -92q0 -38 17 -115h188q20 0 20 -20v-38q0 -20 -20 -20h-173q4 -24 4 -53q0 -100 -71 -170h320q20 0 20 -20v-43q0 -20 -20 -20h-406z" />
    <glyph glyph-name="currency" unicode="&#xa4;" 
d="M94 70q-8 0 -14 6l-31 28q-7 6 -7 14q0 7 11 18l60 62q-43 59 -43 142t43 142l-60 62q-11 11 -11 18q0 8 7 14l31 28q6 6 14 6q5 0 9 -3t12 -11l59 -63q51 31 119 31t119 -31l59 63q8 8 12 11t9 3q8 0 14 -6l31 -28q7 -6 7 -14q0 -7 -10 -17l-62 -63q44 -58 44 -142
t-44 -142l62 -63q10 -10 10 -17q0 -8 -7 -14l-31 -28q-6 -6 -14 -6q-5 0 -9 3t-12 11l-59 63q-51 -31 -119 -31t-119 31l-59 -63q-8 -8 -12 -11t-9 -3zM293 189q134 0 134 151t-134 151t-134 -151t134 -151z" />
    <glyph glyph-name="yen" unicode="&#xa5;" 
d="M264 0q-20 0 -20 20v135h-157q-17 0 -17 17v32q0 17 17 17h157v32l-29 56h-128q-17 0 -17 17v32q0 17 17 17h95l-146 281q-10 20 -10 26q0 11 15 11h69q10 0 15 -2.5t10 -12.5l159 -343l162 343q5 10 10 12.5t15 2.5h64q15 0 15 -11q0 -6 -10 -26l-147 -281h95
q17 0 17 -17v-32q0 -17 -17 -17h-128l-29 -57v-31h157q17 0 17 -17v-32q0 -17 -17 -17h-157v-135q0 -20 -20 -20h-57z" />
    <glyph glyph-name="brokenbar" unicode="&#xa6;" horiz-adv-x="281" 
d="M110 397q-20 0 -20 20v317q0 20 20 20h61q20 0 20 -20v-317q0 -20 -20 -20h-61zM110 -206q-20 0 -20 20v317q0 20 20 20h61q20 0 20 -20v-317q0 -20 -20 -20h-61z" />
    <glyph glyph-name="section" unicode="&#xa7;" horiz-adv-x="475" 
d="M280 202q33 10 50.5 33t17.5 55q0 34 -21.5 57t-73.5 43l-36 13q-44 -5 -67 -27t-23 -59q0 -31 19 -50t71 -40zM219 -96q-80 0 -153 29q-12 5 -16.5 11t-4.5 19v28q0 18 12 18q6 0 14.5 -3t23.5 -7q66 -18 121 -18q113 0 113 73q0 27 -18 43.5t-68 35.5l-83 32
q-66 25 -95 58.5t-29 82.5t27 82.5t74 45.5q-85 40 -85 125q0 69 50.5 109t136.5 40q63 0 133 -24q13 -4 18 -11t5 -19v-25q0 -10 -3 -14.5t-11 -4.5q-6 0 -15 2.5t-26 6.5q-52 12 -97 12q-51 0 -75.5 -17t-24.5 -52q0 -25 15.5 -41t58.5 -33l88 -35q73 -29 103.5 -63.5
t30.5 -86.5q0 -96 -91 -132q72 -43 72 -117q0 -70 -53.5 -110t-147.5 -40z" />
    <glyph glyph-name="dieresis" unicode="&#xa8;" horiz-adv-x="588" 
d="M186 594q-27 0 -43 16t-16 42t16 41.5t43 15.5q28 0 44 -15.5t16 -41.5t-16 -42t-44 -16zM402 594q-28 0 -44 16t-16 42t16 41.5t44 15.5q27 0 43 -15.5t16 -41.5t-16 -42t-43 -16z" />
    <glyph glyph-name="copyright" unicode="&#xa9;" horiz-adv-x="774" 
d="M387 -17q-107 0 -189.5 48t-127 130t-44.5 184q0 107 48 190t130 127.5t183 44.5q107 0 189.5 -48t127 -130t44.5 -184q0 -107 -48 -190t-130 -127.5t-183 -44.5zM387 46q87 0 152.5 39t100.5 106.5t35 153.5q0 90 -37.5 158t-102.5 104.5t-148 36.5q-87 0 -152.5 -39
t-100.5 -106.5t-35 -153.5q0 -90 37.5 -158t102.5 -104.5t148 -36.5zM408 147q-89 0 -137 53t-48 150q0 96 49 149.5t137 53.5q41 0 75 -13q10 -4 13.5 -9t3.5 -16v-22q0 -17 -12 -17q-5 0 -19 3q-22 6 -54 6q-108 0 -108 -125v-18q0 -64 27.5 -95t84.5 -31q29 0 52 7
q15 4 21 4q7 0 9.5 -3.5t2.5 -13.5v-24q0 -11 -3.5 -16t-13.5 -9q-40 -14 -80 -14z" />
    <glyph glyph-name="ordfeminine" unicode="&#xaa;" horiz-adv-x="399" 
d="M167 393q42 0 91 30v69q-35 7 -70 7q-77 0 -77 -56q0 -24 15 -37t41 -13zM144 336q-50 0 -80 28.5t-30 74.5q0 52 38 81t105 29q40 0 81 -11v45q0 34 -16 47.5t-55 13.5q-51 0 -103 -16q-10 -3 -14 -3q-11 0 -11 15v18q0 11 3.5 16t13.5 9q57 22 125 22t101 -27.5
t33 -84.5v-230q0 -17 -17 -17h-34q-16 0 -19 16l-4 20q-56 -46 -117 -46zM58 216q-17 0 -17 17v26q0 17 17 17h260q17 0 17 -17v-26q0 -17 -17 -17h-260z" />
    <glyph glyph-name="guillemotleft" unicode="&#xab;" horiz-adv-x="527" 
d="M202 51q-12 0 -17.5 4t-16.5 20l-111 167q-6 9 -6 17t6 17l111 167q11 16 16.5 20t17.5 4h55q13 0 13 -11q0 -7 -11 -25l-107 -172l107 -172q11 -18 11 -25q0 -11 -13 -11h-55zM398 51q-12 0 -17.5 4t-16.5 20l-111 167q-6 9 -6 17t6 17l111 167q11 16 16.5 20t17.5 4h55
q13 0 13 -11q0 -7 -11 -25l-107 -172l107 -172q11 -18 11 -25q0 -11 -13 -11h-55z" />
    <glyph glyph-name="logicalnot" unicode="&#xac;" 
d="M453 222q-20 0 -20 20v154h-346q-20 0 -20 20v40q0 20 20 20h412q20 0 20 -20v-214q0 -20 -20 -20h-46z" />
    <glyph glyph-name="uni00AD" unicode="&#xad;" horiz-adv-x="390" 
d="M66 217q-20 0 -20 20v44q0 20 20 20h258q20 0 20 -20v-44q0 -20 -20 -20h-258z" />
    <glyph glyph-name="registered" unicode="&#xae;" horiz-adv-x="534" 
d="M267 275q-71 0 -126 31.5t-85 85.5t-30 122q0 71 32 126t86.5 84.5t122.5 29.5q71 0 126 -31.5t85 -85.5t30 -122q0 -71 -32 -126t-86.5 -84.5t-122.5 -29.5zM267 317q87 0 139 54t52 144q0 89 -52 143t-139 54t-139 -54t-52 -144q0 -89 52 -143t139 -54zM195 386
q-8 0 -11.5 3.5t-3.5 11.5v232q0 9 3.5 12t11.5 3h83q42 0 66 -22t24 -61q0 -25 -13.5 -43.5t-37.5 -27.5l56 -86q6 -8 6 -14q0 -8 -10 -8h-25q-8 0 -12 2t-7 7l-55 91h-39v-85q0 -8 -3 -11.5t-12 -3.5h-21zM269 526q45 0 45 38q0 19 -10.5 30.5t-28.5 11.5h-44v-80h38z" />
    <glyph glyph-name="macron" unicode="&#xaf;" horiz-adv-x="588" 
d="M149 636q-17 0 -17 17v31q0 17 17 17h288q17 0 17 -17v-31q0 -17 -17 -17h-288z" />
    <glyph glyph-name="degree" unicode="&#xb0;" horiz-adv-x="376" 
d="M188 423q-63 0 -100.5 38t-37.5 101t37.5 101t100.5 38t100.5 -38t37.5 -101t-37.5 -101t-100.5 -38zM188 481q33 0 51.5 21.5t18.5 59.5t-18.5 59.5t-51.5 21.5t-51.5 -21.5t-18.5 -59.5t18.5 -59.5t51.5 -21.5z" />
    <glyph glyph-name="plusminus" unicode="&#xb1;" 
d="M87 25q-20 0 -20 20v40q0 20 20 20h412q20 0 20 -20v-40q0 -20 -20 -20h-412zM270 185q-20 0 -20 20v171h-163q-20 0 -20 20v40q0 20 20 20h163v171q0 20 20 20h46q20 0 20 -20v-171h163q20 0 20 -20v-40q0 -20 -20 -20h-163v-171q0 -20 -20 -20h-46z" />
    <glyph glyph-name="uni00B2" unicode="&#xb2;" horiz-adv-x="410" 
d="M83 390q-17 0 -17 17v22q0 18 12 29q99 91 134.5 135.5t35.5 77.5q0 24 -15.5 37.5t-42.5 13.5q-19 0 -42 -7t-41 -18q-16 -9 -20 -9q-12 0 -12 18v22q0 10 3.5 16t12.5 11q54 33 117 33q56 0 90 -29.5t34 -78.5q0 -43 -37 -91t-137 -136h171q17 0 17 -17v-29
q0 -17 -17 -17h-246z" />
    <glyph glyph-name="uni00B3" unicode="&#xb3;" horiz-adv-x="410" 
d="M188 382q-56 0 -101 17q-11 5 -14 10.5t-3 15.5v22q0 15 11 15q5 0 24 -6q38 -12 79 -12t63.5 16.5t22.5 45.5t-19.5 42.5t-62.5 13.5q-20 0 -30 -1t-18 -1t-11.5 3.5t-3.5 11.5v12q0 8 2.5 13.5t10.5 13.5l104 104h-152q-17 0 -17 17v28q0 17 17 17h218q17 0 17 -17v-20
q0 -11 -3 -18t-10 -14l-97 -97h12q57 0 89 -28.5t32 -78.5q0 -59 -42.5 -92t-117.5 -33z" />
    <glyph glyph-name="acute" unicode="&#xb4;" horiz-adv-x="588" 
d="M213 601q-7 0 -11 3.5t-4 8.5q0 7 7 18l64 106q8 14 15.5 19t21.5 5h64q6 0 10 -3.5t4 -8.5q0 -8 -10 -19l-89 -108q-10 -12 -17.5 -16.5t-21.5 -4.5h-33z" />
    <glyph glyph-name="mu" unicode="&#xb5;" 
d="M92 -206q-20 0 -20 20v673q0 20 20 20h59q20 0 20 -20v-317q0 -105 98 -105q37 0 69 13t66 41v368q0 20 20 20h59q20 0 20 -20v-372q0 -21 9.5 -30.5t32.5 -9.5q6 0 12 0.5t9 0.5q14 0 14 -20v-25q0 -14 -4.5 -20.5t-15.5 -9.5q-25 -6 -49 -6q-74 0 -95 64
q-76 -74 -161 -74q-56 0 -89 28v-199q0 -20 -20 -20h-54z" />
    <glyph glyph-name="paragraph" unicode="&#xb6;" horiz-adv-x="604" 
d="M258 -206q-20 0 -20 20v430q-97 13 -150 69t-53 145q0 111 72 173t200 62h189q20 0 20 -20v-757q0 -20 -20 -20h-43q-20 0 -20 20v702h-112v-804q0 -20 -20 -20h-43z" />
    <glyph glyph-name="periodcentered" unicode="&#xb7;" horiz-adv-x="248" 
d="M124 195q-29 0 -47 18.5t-18 47.5t18 47.5t47 18.5t47 -18.5t18 -47.5t-18 -47.5t-47 -18.5z" />
    <glyph glyph-name="cedilla" unicode="&#xb8;" horiz-adv-x="588" 
d="M258 -276q-10 0 -17 7l-12 11q-7 7 -7 12q0 6 9 12q66 49 66 84q0 26 -38 26q-7 0 -13 -0.5t-10 -0.5q-14 0 -14 16v21q0 17 15 20q22 5 46 5q42 0 66.5 -19.5t24.5 -52.5q0 -38 -25.5 -72.5t-75.5 -63.5q-8 -5 -15 -5z" />
    <glyph glyph-name="uni00B9" unicode="&#xb9;" horiz-adv-x="410" 
d="M216 390q-17 0 -17 17v295l-90 -32q-13 -5 -18 -5q-10 0 -10 12v24q0 13 2.5 18t9.5 8l96 44q13 6 19.5 7.5t17.5 1.5h36q17 0 17 -17v-356q0 -17 -17 -17h-46z" />
    <glyph glyph-name="ordmasculine" unicode="&#xba;" horiz-adv-x="418" 
d="M209 333q-79 0 -124 49.5t-45 136.5q0 86 45 136t124 50t124 -50t45 -136q0 -87 -45 -136.5t-124 -49.5zM209 396q46 0 67 29t21 94q0 64 -21.5 93.5t-66.5 29.5t-66.5 -29.5t-21.5 -93.5q0 -65 21 -94t67 -29zM69 216q-17 0 -17 17v26q0 17 17 17h282q17 0 17 -17v-26
q0 -17 -17 -17h-282z" />
    <glyph glyph-name="guillemotright" unicode="&#xbb;" horiz-adv-x="527" 
d="M74 51q-13 0 -13 11q0 7 11 25l107 172l-107 172q-11 18 -11 25q0 11 13 11h55q12 0 17.5 -4t16.5 -20l111 -167q6 -9 6 -17t-6 -17l-111 -167q-11 -16 -16.5 -20t-17.5 -4h-55zM270 51q-13 0 -13 11q0 7 11 25l107 172l-107 172q-11 18 -11 25q0 11 13 11h55
q12 0 17.5 -4t16.5 -20l111 -167q6 -9 6 -17t-6 -17l-111 -167q-11 -16 -16.5 -20t-17.5 -4h-55z" />
    <glyph glyph-name="onequarter" unicode="&#xbc;" horiz-adv-x="940" 
d="M293 0q-13 0 -13 11q0 5 2.5 11t7.5 15l303 631q8 16 14 20.5t19 4.5h39q13 0 13 -11q0 -5 -2.5 -11t-7.5 -15l-303 -631q-8 -16 -14 -20.5t-19 -4.5h-39zM770 138v170l-125 -170h125zM787 0q-17 0 -17 17v63h-179q-17 0 -17 17v24q0 11 2 16.5t8 13.5l167 226
q8 12 14.5 15.5t19.5 3.5h38q17 0 17 -17v-241h42q17 0 17 -17v-24q0 -17 -17 -17h-42v-63q0 -17 -17 -17h-36zM216 303q-17 0 -17 17v295l-90 -32q-13 -5 -18 -5q-10 0 -10 12v24q0 13 2.5 18t9.5 8l96 44q13 6 19.5 7.5t17.5 1.5h36q17 0 17 -17v-356q0 -17 -17 -17h-46z
" />
    <glyph glyph-name="onehalf" unicode="&#xbd;" horiz-adv-x="940" 
d="M266 0q-13 0 -13 11q0 5 2.5 11t7.5 15l303 631q8 16 14 20.5t19 4.5h39q13 0 13 -11q0 -5 -2.5 -11t-7.5 -15l-303 -631q-8 -16 -14 -20.5t-19 -4.5h-39zM613 0q-17 0 -17 17v22q0 18 12 29q99 91 134.5 135.5t35.5 77.5q0 24 -15.5 37.5t-42.5 13.5q-19 0 -42 -7
t-41 -18q-16 -9 -20 -9q-12 0 -12 18v22q0 10 3.5 16t12.5 11q54 33 117 33q56 0 90 -29.5t34 -78.5q0 -43 -37 -91t-137 -136h171q17 0 17 -17v-29q0 -17 -17 -17h-246zM216 303q-17 0 -17 17v295l-90 -32q-13 -5 -18 -5q-10 0 -10 12v24q0 13 2.5 18t9.5 8l96 44
q13 6 19.5 7.5t17.5 1.5h36q17 0 17 -17v-356q0 -17 -17 -17h-46z" />
    <glyph glyph-name="threequarters" unicode="&#xbe;" horiz-adv-x="940" 
d="M300 0q-13 0 -13 11q0 5 2.5 11t7.5 15l303 631q8 16 14 20.5t19 4.5h39q13 0 13 -11q0 -5 -2.5 -11t-7.5 -15l-303 -631q-8 -16 -14 -20.5t-19 -4.5h-39zM770 138v170l-125 -170h125zM787 0q-17 0 -17 17v63h-179q-17 0 -17 17v24q0 11 2 16.5t8 13.5l167 226
q8 12 14.5 15.5t19.5 3.5h38q17 0 17 -17v-241h42q17 0 17 -17v-24q0 -17 -17 -17h-42v-63q0 -17 -17 -17h-36zM188 295q-56 0 -101 17q-11 5 -14 10.5t-3 15.5v22q0 15 11 15q5 0 24 -6q38 -12 79 -12t63.5 16.5t22.5 45.5t-19.5 42.5t-62.5 13.5q-20 0 -30 -1t-18 -1
t-11.5 3.5t-3.5 11.5v12q0 8 2.5 13.5t10.5 13.5l104 104h-152q-17 0 -17 17v28q0 17 17 17h218q17 0 17 -17v-20q0 -11 -3 -18t-10 -14l-97 -97h12q57 0 89 -28.5t32 -78.5q0 -59 -42.5 -92t-117.5 -33z" />
    <glyph glyph-name="questiondown" unicode="&#xbf;" horiz-adv-x="429" 
d="M246 385q-29 0 -47 18.5t-18 47.5t18 47.5t47 18.5t47 -18.5t18 -47.5t-18 -47.5t-47 -18.5zM220 -201q-89 0 -139.5 44t-50.5 121q0 66 42.5 116t133.5 91v106q0 20 20 20h43q19 0 20 -20l5 -90q2 -27 2 -38q0 -13 -14 -20l-31 -16q-68 -35 -95.5 -66t-27.5 -73
q0 -45 27.5 -68.5t80.5 -23.5q56 0 109 23q14 6 22.5 9.5t12.5 3.5q15 0 15 -19v-33q0 -13 -4 -18.5t-16 -11.5q-32 -17 -74.5 -27t-80.5 -10z" />
    <glyph glyph-name="Agrave" unicode="&#xc0;" horiz-adv-x="642" 
d="M437 261l-118 340l-116 -340h234zM33 0q-17 0 -17 13q0 7 6 23l234 630q6 18 12.5 22.5t21.5 4.5h62q15 0 21.5 -4.5t12.5 -22.5l234 -630q6 -16 6 -23q0 -13 -17 -13h-57q-15 0 -21.5 4.5t-12.5 22.5l-55 157h-287l-53 -157q-6 -18 -12.5 -22.5t-21.5 -4.5h-56zM299 769
q-10 0 -19 4.5t-22 15.5l-79 73q-8 7 -10.5 11t-2.5 8q0 11 13 11h67q12 0 20 -4t19 -18l59 -72q11 -12 11 -17q0 -12 -15 -12h-41z" />
    <glyph glyph-name="Aacute" unicode="&#xc1;" horiz-adv-x="642" 
d="M437 261l-118 340l-116 -340h234zM33 0q-17 0 -17 13q0 7 6 23l234 630q6 18 12.5 22.5t21.5 4.5h62q15 0 21.5 -4.5t12.5 -22.5l234 -630q6 -16 6 -23q0 -13 -17 -13h-57q-15 0 -21.5 4.5t-12.5 22.5l-55 157h-287l-53 -157q-6 -18 -12.5 -22.5t-21.5 -4.5h-56zM302 769
q-15 0 -15 12q0 5 11 17l59 72q11 14 19 18t20 4h67q13 0 13 -11q0 -4 -2.5 -8t-10.5 -11l-79 -73q-13 -11 -22 -15.5t-19 -4.5h-41z" />
    <glyph glyph-name="Acircumflex" unicode="&#xc2;" horiz-adv-x="642" 
d="M437 261l-118 340l-116 -340h234zM33 0q-17 0 -17 13q0 7 6 23l234 630q6 18 12.5 22.5t21.5 4.5h62q15 0 21.5 -4.5t12.5 -22.5l234 -630q6 -16 6 -23q0 -13 -17 -13h-57q-15 0 -21.5 4.5t-12.5 22.5l-55 157h-287l-53 -157q-6 -18 -12.5 -22.5t-21.5 -4.5h-56zM168 769
q-16 0 -16 12q0 7 10 17l86 85q13 13 20 17t18 4h70q11 0 18 -4t20 -17l86 -85q10 -10 10 -17q0 -12 -16 -12h-46q-19 0 -35 15l-72 65l-72 -65q-16 -15 -35 -15h-46z" />
    <glyph glyph-name="Atilde" unicode="&#xc3;" horiz-adv-x="642" 
d="M437 261l-118 340l-116 -340h234zM33 0q-17 0 -17 13q0 7 6 23l234 630q6 18 12.5 22.5t21.5 4.5h62q15 0 21.5 -4.5t12.5 -22.5l234 -630q6 -16 6 -23q0 -13 -17 -13h-57q-15 0 -21.5 4.5t-12.5 22.5l-55 157h-287l-53 -157q-6 -18 -12.5 -22.5t-21.5 -4.5h-56zM391 769
q-48 0 -86 37q-20 18 -31 24.5t-24 6.5q-14 0 -20.5 -8.5t-8.5 -29.5l-1 -12q-1 -8 -4.5 -11.5t-13.5 -3.5h-28q-11 0 -15 5.5t-4 21.5v5q0 44 26 69.5t70 25.5q48 0 86 -37q20 -18 31 -24.5t24 -6.5q14 0 20.5 8.5t8.5 29.5l1 12q1 8 4.5 11.5t13.5 3.5h28q11 0 15 -5.5
t4 -21.5v-5q0 -44 -26 -69.5t-70 -25.5z" />
    <glyph glyph-name="Adieresis" unicode="&#xc4;" horiz-adv-x="642" 
d="M437 261l-118 340l-116 -340h234zM33 0q-17 0 -17 13q0 7 6 23l234 630q6 18 12.5 22.5t21.5 4.5h62q15 0 21.5 -4.5t12.5 -22.5l234 -630q6 -16 6 -23q0 -13 -17 -13h-57q-15 0 -21.5 4.5t-12.5 22.5l-55 157h-287l-53 -157q-6 -18 -12.5 -22.5t-21.5 -4.5h-56zM215 779
q-27 0 -44 16t-17 42t16.5 42t44.5 16q27 0 44 -16t17 -42t-16.5 -42t-44.5 -16zM427 779q-27 0 -44 16t-17 42t16.5 42t44.5 16q27 0 44 -16t17 -42t-16.5 -42t-44.5 -16z" />
    <glyph glyph-name="Aring" unicode="&#xc5;" horiz-adv-x="642" 
d="M437 261l-118 340l-116 -340h234zM33 0q-17 0 -17 13q0 7 6 23l234 630q6 18 12.5 22.5t21.5 4.5h62q15 0 21.5 -4.5t12.5 -22.5l234 -630q6 -16 6 -23q0 -13 -17 -13h-57q-15 0 -21.5 4.5t-12.5 22.5l-55 157h-287l-53 -157q-6 -18 -12.5 -22.5t-21.5 -4.5h-56zM321 737
q-50 0 -80 27t-30 71t30 71t80 27t80 -27t30 -71t-30 -71t-80 -27zM321 787q22 0 35 12.5t13 35.5t-13 35.5t-35 12.5t-35 -12.5t-13 -35.5t13 -35.5t35 -12.5z" />
    <glyph glyph-name="AE" unicode="&#xc6;" horiz-adv-x="950" 
d="M473 276v335h-12l-188 -335h200zM36 0q-17 0 -17 14q0 6 10 23l362 628q10 17 17.5 22.5t23.5 5.5h452q20 0 20 -20v-42q0 -20 -20 -20h-309v-213h256q20 0 20 -20v-42q0 -20 -20 -20h-256v-234h309q20 0 20 -20v-42q0 -20 -20 -20h-391q-20 0 -20 20v180h-242l-95 -173
q-9 -17 -16 -22t-22 -5h-62z" />
    <glyph glyph-name="Ccedilla" unicode="&#xc7;" horiz-adv-x="607" 
d="M397 -12q-164 0 -248.5 90.5t-84.5 265.5q0 173 87.5 266t250.5 93q70 0 140 -20q12 -4 16 -10.5t4 -19.5v-38q0 -19 -14 -19q-4 0 -10.5 1t-23.5 5q-54 12 -100 12q-126 0 -184 -61.5t-58 -195.5v-24q0 -132 56.5 -194t179.5 -62q41 0 119 16q14 3 20 4t10 1
q15 0 15 -19v-37q0 -13 -4 -19.5t-16 -10.5q-72 -24 -155 -24zM349 -276q-10 0 -17 7l-14 13q-7 7 -7 12q0 6 9 12q66 47 66 82q0 24 -36 24q-7 0 -13 -0.5t-10 -0.5q-14 0 -14 16v23q0 17 15 20q22 5 46 5q42 0 66.5 -19.5t24.5 -52.5q0 -38 -25.5 -72.5t-75.5 -63.5
q-8 -5 -15 -5z" />
    <glyph glyph-name="Egrave" unicode="&#xc8;" horiz-adv-x="561" 
d="M104 0q-20 0 -20 20v653q0 20 20 20h391q20 0 20 -20v-42q0 -20 -20 -20h-309v-213h256q20 0 20 -20v-42q0 -20 -20 -20h-256v-234h309q20 0 20 -20v-42q0 -20 -20 -20h-391zM277 769q-10 0 -19 4.5t-22 15.5l-79 73q-8 7 -10.5 11t-2.5 8q0 11 13 11h67q12 0 20 -4
t19 -18l59 -72q11 -12 11 -17q0 -12 -15 -12h-41z" />
    <glyph glyph-name="Eacute" unicode="&#xc9;" horiz-adv-x="561" 
d="M104 0q-20 0 -20 20v653q0 20 20 20h391q20 0 20 -20v-42q0 -20 -20 -20h-309v-213h256q20 0 20 -20v-42q0 -20 -20 -20h-256v-234h309q20 0 20 -20v-42q0 -20 -20 -20h-391zM280 769q-15 0 -15 12q0 5 11 17l59 72q11 14 19 18t20 4h67q13 0 13 -11q0 -4 -2.5 -8
t-10.5 -11l-79 -73q-13 -11 -22 -15.5t-19 -4.5h-41z" />
    <glyph glyph-name="Ecircumflex" unicode="&#xca;" horiz-adv-x="561" 
d="M104 0q-20 0 -20 20v653q0 20 20 20h391q20 0 20 -20v-42q0 -20 -20 -20h-309v-213h256q20 0 20 -20v-42q0 -20 -20 -20h-256v-234h309q20 0 20 -20v-42q0 -20 -20 -20h-391zM146 769q-16 0 -16 12q0 7 10 17l86 85q13 13 20 17t18 4h70q11 0 18 -4t20 -17l86 -85
q10 -10 10 -17q0 -12 -16 -12h-46q-19 0 -35 15l-72 65l-72 -65q-16 -15 -35 -15h-46z" />
    <glyph glyph-name="Edieresis" unicode="&#xcb;" horiz-adv-x="561" 
d="M104 0q-20 0 -20 20v653q0 20 20 20h391q20 0 20 -20v-42q0 -20 -20 -20h-309v-213h256q20 0 20 -20v-42q0 -20 -20 -20h-256v-234h309q20 0 20 -20v-42q0 -20 -20 -20h-391zM193 779q-27 0 -44 16t-17 42t16.5 42t44.5 16q27 0 44 -16t17 -42t-16.5 -42t-44.5 -16z
M405 779q-27 0 -44 16t-17 42t16.5 42t44.5 16q27 0 44 -16t17 -42t-16.5 -42t-44.5 -16z" />
    <glyph glyph-name="Igrave" unicode="&#xcc;" horiz-adv-x="278" 
d="M108 0q-20 0 -20 20v653q0 20 20 20h62q20 0 20 -20v-653q0 -20 -20 -20h-62zM117 769q-10 0 -19 4.5t-22 15.5l-79 73q-8 7 -10.5 11t-2.5 8q0 11 13 11h67q12 0 20 -4t19 -18l59 -72q11 -12 11 -17q0 -12 -15 -12h-41z" />
    <glyph glyph-name="Iacute" unicode="&#xcd;" horiz-adv-x="278" 
d="M108 0q-20 0 -20 20v653q0 20 20 20h62q20 0 20 -20v-653q0 -20 -20 -20h-62zM120 769q-15 0 -15 12q0 5 11 17l59 72q11 14 19 18t20 4h67q13 0 13 -11q0 -4 -2.5 -8t-10.5 -11l-79 -73q-13 -11 -22 -15.5t-19 -4.5h-41z" />
    <glyph glyph-name="Icircumflex" unicode="&#xce;" horiz-adv-x="278" 
d="M108 0q-20 0 -20 20v653q0 20 20 20h62q20 0 20 -20v-653q0 -20 -20 -20h-62zM-14 769q-16 0 -16 12q0 7 10 17l86 85q13 13 20 17t18 4h70q11 0 18 -4t20 -17l86 -85q10 -10 10 -17q0 -12 -16 -12h-46q-19 0 -35 15l-72 65l-72 -65q-16 -15 -35 -15h-46z" />
    <glyph glyph-name="Idieresis" unicode="&#xcf;" horiz-adv-x="278" 
d="M108 0q-20 0 -20 20v653q0 20 20 20h62q20 0 20 -20v-653q0 -20 -20 -20h-62zM33 779q-27 0 -44 16t-17 42t16.5 42t44.5 16q27 0 44 -16t17 -42t-16.5 -42t-44.5 -16zM245 779q-27 0 -44 16t-17 42t16.5 42t44.5 16q27 0 44 -16t17 -42t-16.5 -42t-44.5 -16z" />
    <glyph glyph-name="Eth" unicode="&#xd0;" horiz-adv-x="700" 
d="M114 0q-20 0 -20 20v299h-63q-17 0 -17 17v41q0 17 17 17h63v279q0 20 20 20h208q153 0 233.5 -88.5t80.5 -258.5q0 -168 -82 -257t-235 -89h-205zM196 80h112q223 0 223 255v23q0 127 -56 191t-167 64h-112v-219h139q17 0 17 -17v-41q0 -17 -17 -17h-139v-239z" />
    <glyph glyph-name="Ntilde" unicode="&#xd1;" horiz-adv-x="714" 
d="M104 0q-20 0 -20 20v653q0 20 20 20h64q28 0 38 -18l330 -536v534q0 20 20 20h54q20 0 20 -20v-653q0 -20 -20 -20h-65q-27 0 -38 18l-329 533v-531q0 -20 -20 -20h-54zM435 769q-48 0 -86 37q-20 18 -31 24.5t-24 6.5q-14 0 -20.5 -8.5t-8.5 -29.5l-1 -12
q-1 -8 -4.5 -11.5t-13.5 -3.5h-28q-11 0 -15 5.5t-4 21.5v5q0 44 26 69.5t70 25.5q48 0 86 -37q20 -18 31 -24.5t24 -6.5q14 0 20.5 8.5t8.5 29.5l1 12q1 8 4.5 11.5t13.5 3.5h28q11 0 15 -5.5t4 -21.5v-5q0 -44 -26 -69.5t-70 -25.5z" />
    <glyph glyph-name="Ograve" unicode="&#xd2;" horiz-adv-x="777" 
d="M389 69q107 0 163 71t56 206t-56 205.5t-163 70.5q-108 0 -164 -70.5t-56 -205.5q0 -136 56.5 -206.5t163.5 -70.5zM389 -17q-102 0 -175.5 44.5t-111.5 126t-38 192.5q0 113 39.5 195t112.5 124.5t173 42.5q151 0 237.5 -96.5t86.5 -265.5q0 -114 -39.5 -195.5
t-112.5 -124.5t-172 -43zM367 769q-10 0 -19 4.5t-22 15.5l-79 73q-8 7 -10.5 11t-2.5 8q0 11 13 11h67q12 0 20 -4t19 -18l59 -72q11 -12 11 -17q0 -12 -15 -12h-41z" />
    <glyph glyph-name="Oacute" unicode="&#xd3;" horiz-adv-x="777" 
d="M389 69q107 0 163 71t56 206t-56 205.5t-163 70.5q-108 0 -164 -70.5t-56 -205.5q0 -136 56.5 -206.5t163.5 -70.5zM389 -17q-102 0 -175.5 44.5t-111.5 126t-38 192.5q0 113 39.5 195t112.5 124.5t173 42.5q151 0 237.5 -96.5t86.5 -265.5q0 -114 -39.5 -195.5
t-112.5 -124.5t-172 -43zM370 769q-15 0 -15 12q0 5 11 17l59 72q11 14 19 18t20 4h67q13 0 13 -11q0 -4 -2.5 -8t-10.5 -11l-79 -73q-13 -11 -22 -15.5t-19 -4.5h-41z" />
    <glyph glyph-name="Ocircumflex" unicode="&#xd4;" horiz-adv-x="777" 
d="M389 69q107 0 163 71t56 206t-56 205.5t-163 70.5q-108 0 -164 -70.5t-56 -205.5q0 -136 56.5 -206.5t163.5 -70.5zM389 -17q-102 0 -175.5 44.5t-111.5 126t-38 192.5q0 113 39.5 195t112.5 124.5t173 42.5q151 0 237.5 -96.5t86.5 -265.5q0 -114 -39.5 -195.5
t-112.5 -124.5t-172 -43zM236 769q-16 0 -16 12q0 7 10 17l86 85q13 13 20 17t18 4h70q11 0 18 -4t20 -17l86 -85q10 -10 10 -17q0 -12 -16 -12h-46q-19 0 -35 15l-72 65l-72 -65q-16 -15 -35 -15h-46z" />
    <glyph glyph-name="Otilde" unicode="&#xd5;" horiz-adv-x="777" 
d="M389 69q107 0 163 71t56 206t-56 205.5t-163 70.5q-108 0 -164 -70.5t-56 -205.5q0 -136 56.5 -206.5t163.5 -70.5zM389 -17q-102 0 -175.5 44.5t-111.5 126t-38 192.5q0 113 39.5 195t112.5 124.5t173 42.5q151 0 237.5 -96.5t86.5 -265.5q0 -114 -39.5 -195.5
t-112.5 -124.5t-172 -43zM459 769q-48 0 -86 37q-20 18 -31 24.5t-24 6.5q-14 0 -20.5 -8.5t-8.5 -29.5l-1 -12q-1 -8 -4.5 -11.5t-13.5 -3.5h-28q-11 0 -15 5.5t-4 21.5v5q0 44 26 69.5t70 25.5q48 0 86 -37q20 -18 31 -24.5t24 -6.5q14 0 20.5 8.5t8.5 29.5l1 12
q1 8 4.5 11.5t13.5 3.5h28q11 0 15 -5.5t4 -21.5v-5q0 -44 -26 -69.5t-70 -25.5z" />
    <glyph glyph-name="Odieresis" unicode="&#xd6;" horiz-adv-x="777" 
d="M389 69q107 0 163 71t56 206t-56 205.5t-163 70.5q-108 0 -164 -70.5t-56 -205.5q0 -136 56.5 -206.5t163.5 -70.5zM389 -17q-102 0 -175.5 44.5t-111.5 126t-38 192.5q0 113 39.5 195t112.5 124.5t173 42.5q151 0 237.5 -96.5t86.5 -265.5q0 -114 -39.5 -195.5
t-112.5 -124.5t-172 -43zM283 779q-27 0 -44 16t-17 42t16.5 42t44.5 16q27 0 44 -16t17 -42t-16.5 -42t-44.5 -16zM495 779q-27 0 -44 16t-17 42t16.5 42t44.5 16q27 0 44 -16t17 -42t-16.5 -42t-44.5 -16z" />
    <glyph glyph-name="multiply" unicode="&#xd7;" 
d="M146 137q-8 0 -14 6l-29 29q-7 6 -7 14q0 7 10 17l132 138l-132 138q-10 10 -10 17q0 8 7 14l29 29q6 6 14 6q5 0 9 -3t12 -11l126 -134l126 134q8 8 12 11t9 3q8 0 14 -6l29 -29q7 -6 7 -14q0 -7 -10 -17l-132 -138l132 -138q10 -10 10 -17q0 -8 -7 -14l-29 -29
q-6 -6 -14 -6q-5 0 -9 3t-12 11l-126 134l-126 -134q-8 -8 -12 -11t-9 -3z" />
    <glyph glyph-name="Oslash" unicode="&#xd8;" horiz-adv-x="777" 
d="M529 575q-53 47 -140 47q-108 0 -164 -70.5t-56 -205.5q0 -112 37 -177zM389 69q107 0 163 71t56 206q0 105 -35 172l-322 -405q53 -44 138 -44zM128 -33q-8 0 -16 7l-21 17q-9 8 -9 14q0 9 9 19l51 65q-78 95 -78 257q0 113 39.5 195t112.5 124.5t173 42.5
q118 0 198 -60l49 61q10 13 17 13q8 0 16 -7l21 -17q9 -8 9 -14q0 -8 -9 -19l-53 -66q76 -96 76 -253q0 -114 -39.5 -195.5t-112.5 -124.5t-172 -43q-116 0 -195 58l-49 -61q-10 -13 -17 -13z" />
    <glyph glyph-name="Ugrave" unicode="&#xd9;" horiz-adv-x="706" 
d="M353 -17q-132 0 -202.5 69.5t-70.5 200.5v420q0 20 20 20h62q20 0 20 -20v-429q0 -84 44 -129.5t127 -45.5t127 45.5t44 129.5v429q0 20 20 20h62q20 0 20 -20v-420q0 -130 -70.5 -200t-202.5 -70zM331 769q-10 0 -19 4.5t-22 15.5l-79 73q-8 7 -10.5 11t-2.5 8
q0 11 13 11h67q12 0 20 -4t19 -18l59 -72q11 -12 11 -17q0 -12 -15 -12h-41z" />
    <glyph glyph-name="Uacute" unicode="&#xda;" horiz-adv-x="706" 
d="M353 -17q-132 0 -202.5 69.5t-70.5 200.5v420q0 20 20 20h62q20 0 20 -20v-429q0 -84 44 -129.5t127 -45.5t127 45.5t44 129.5v429q0 20 20 20h62q20 0 20 -20v-420q0 -130 -70.5 -200t-202.5 -70zM334 769q-15 0 -15 12q0 5 11 17l59 72q11 14 19 18t20 4h67
q13 0 13 -11q0 -4 -2.5 -8t-10.5 -11l-79 -73q-13 -11 -22 -15.5t-19 -4.5h-41z" />
    <glyph glyph-name="Ucircumflex" unicode="&#xdb;" horiz-adv-x="706" 
d="M353 -17q-132 0 -202.5 69.5t-70.5 200.5v420q0 20 20 20h62q20 0 20 -20v-429q0 -84 44 -129.5t127 -45.5t127 45.5t44 129.5v429q0 20 20 20h62q20 0 20 -20v-420q0 -130 -70.5 -200t-202.5 -70zM200 769q-16 0 -16 12q0 7 10 17l86 85q13 13 20 17t18 4h70q11 0 18 -4
t20 -17l86 -85q10 -10 10 -17q0 -12 -16 -12h-46q-19 0 -35 15l-72 65l-72 -65q-16 -15 -35 -15h-46z" />
    <glyph glyph-name="Udieresis" unicode="&#xdc;" horiz-adv-x="706" 
d="M353 -17q-132 0 -202.5 69.5t-70.5 200.5v420q0 20 20 20h62q20 0 20 -20v-429q0 -84 44 -129.5t127 -45.5t127 45.5t44 129.5v429q0 20 20 20h62q20 0 20 -20v-420q0 -130 -70.5 -200t-202.5 -70zM247 779q-27 0 -44 16t-17 42t16.5 42t44.5 16q27 0 44 -16t17 -42
t-16.5 -42t-44.5 -16zM459 779q-27 0 -44 16t-17 42t16.5 42t44.5 16q27 0 44 -16t17 -42t-16.5 -42t-44.5 -16z" />
    <glyph glyph-name="Yacute" unicode="&#xdd;" horiz-adv-x="602" 
d="M269 0q-20 0 -20 20v235l-218 401q-11 20 -11 26q0 11 15 11h72q10 0 15 -2.5t10 -12.5l169 -340l172 340q5 10 10 12.5t15 2.5h69q15 0 15 -11q0 -6 -11 -26l-222 -403v-233q0 -20 -20 -20h-60zM283 769q-15 0 -15 12q0 5 11 17l59 72q11 14 19 18t20 4h67q13 0 13 -11
q0 -4 -2.5 -8t-10.5 -11l-79 -73q-13 -11 -22 -15.5t-19 -4.5h-41z" />
    <glyph glyph-name="Thorn" unicode="&#xde;" horiz-adv-x="596" 
d="M104 0q-20 0 -20 20v653q0 20 20 20h59q20 0 20 -20v-108h148q101 0 161 -57t60 -154t-59.5 -153.5t-161.5 -56.5h-148v-124q0 -20 -20 -20h-59zM183 225h139q127 0 127 129q0 130 -127 130h-139v-259z" />
    <glyph glyph-name="germandbls" unicode="&#xdf;" horiz-adv-x="610" 
d="M393 -15q-60 0 -111 19q-12 4 -16.5 10.5t-4.5 19.5v32q0 18 12 18q5 0 23 -6q46 -16 95 -16q50 0 77.5 20.5t27.5 57.5q0 25 -15.5 43.5t-55.5 39.5l-38 21q-55 30 -78 58.5t-23 65.5q0 33 16.5 60t61.5 68q31 27 42.5 47t11.5 45q0 42 -29 65.5t-80 23.5
q-138 0 -138 -178v-479q0 -20 -20 -20h-57q-20 0 -20 20v477q0 122 63 189.5t177 67.5q91 0 144.5 -43t53.5 -116q0 -43 -18.5 -76t-65.5 -72q-30 -25 -40 -40t-10 -33q0 -16 15.5 -30t61.5 -40l33 -18q53 -29 77 -63t24 -81q0 -71 -53.5 -114t-142.5 -43z" />
    <glyph glyph-name="agrave" unicode="&#xe0;" horiz-adv-x="527" 
d="M198 -13q-71 0 -113.5 40.5t-42.5 108.5q0 73 52 116.5t140 43.5q56 0 126 -17v66q0 54 -24.5 76t-83.5 22q-69 0 -135 -20q-23 -7 -29 -7q-12 0 -12 18v27q0 13 4 19t16 11q31 14 78.5 22.5t94.5 8.5q95 0 140 -39.5t45 -120.5v-342q0 -20 -20 -20h-43q-19 0 -22 19
l-5 33q-36 -31 -79.5 -48t-86.5 -17zM222 62q33 0 69 13t69 38v102q-54 13 -106 13q-113 0 -113 -87q0 -38 21 -58.5t60 -20.5zM250 601q-14 0 -21.5 4.5t-17.5 16.5l-89 108q-10 11 -10 19q0 5 4 8.5t10 3.5h64q14 0 21.5 -5t15.5 -19l64 -106q7 -11 7 -18q0 -5 -4 -8.5
t-11 -3.5h-33z" />
    <glyph glyph-name="aacute" unicode="&#xe1;" horiz-adv-x="527" 
d="M198 -13q-71 0 -113.5 40.5t-42.5 108.5q0 73 52 116.5t140 43.5q56 0 126 -17v66q0 54 -24.5 76t-83.5 22q-69 0 -135 -20q-23 -7 -29 -7q-12 0 -12 18v27q0 13 4 19t16 11q31 14 78.5 22.5t94.5 8.5q95 0 140 -39.5t45 -120.5v-342q0 -20 -20 -20h-43q-19 0 -22 19
l-5 33q-36 -31 -79.5 -48t-86.5 -17zM222 62q33 0 69 13t69 38v102q-54 13 -106 13q-113 0 -113 -87q0 -38 21 -58.5t60 -20.5zM249 601q-7 0 -11 3.5t-4 8.5q0 7 7 18l64 106q8 14 15.5 19t21.5 5h64q6 0 10 -3.5t4 -8.5q0 -8 -10 -19l-89 -108q-10 -12 -17.5 -16.5
t-21.5 -4.5h-33z" />
    <glyph glyph-name="acircumflex" unicode="&#xe2;" horiz-adv-x="527" 
d="M198 -13q-71 0 -113.5 40.5t-42.5 108.5q0 73 52 116.5t140 43.5q56 0 126 -17v66q0 54 -24.5 76t-83.5 22q-69 0 -135 -20q-23 -7 -29 -7q-12 0 -12 18v27q0 13 4 19t16 11q31 14 78.5 22.5t94.5 8.5q95 0 140 -39.5t45 -120.5v-342q0 -20 -20 -20h-43q-19 0 -22 19
l-5 33q-36 -31 -79.5 -48t-86.5 -17zM222 62q33 0 69 13t69 38v102q-54 13 -106 13q-113 0 -113 -87q0 -38 21 -58.5t60 -20.5zM115 601q-16 0 -16 12q0 7 10 19l89 108q12 14 18.5 18t17.5 4h64q11 0 17.5 -4t18.5 -18l89 -108q10 -12 10 -19q0 -12 -16 -12h-36
q-10 0 -18 4.5t-20 16.5l-77 82l-77 -82q-12 -12 -20 -16.5t-18 -4.5h-36z" />
    <glyph glyph-name="atilde" unicode="&#xe3;" horiz-adv-x="527" 
d="M198 -13q-71 0 -113.5 40.5t-42.5 108.5q0 73 52 116.5t140 43.5q56 0 126 -17v66q0 54 -24.5 76t-83.5 22q-69 0 -135 -20q-23 -7 -29 -7q-12 0 -12 18v27q0 13 4 19t16 11q31 14 78.5 22.5t94.5 8.5q95 0 140 -39.5t45 -120.5v-342q0 -20 -20 -20h-43q-19 0 -22 19
l-5 33q-36 -31 -79.5 -48t-86.5 -17zM222 62q33 0 69 13t69 38v102q-54 13 -106 13q-113 0 -113 -87q0 -38 21 -58.5t60 -20.5zM336 603q-48 0 -86 37q-22 20 -32.5 26.5t-22.5 6.5q-15 0 -22 -10t-8 -30l-1 -12q-1 -15 -17 -15h-28q-11 0 -15 6t-4 21v5q0 44 26 69.5
t70 25.5q48 0 86 -37q22 -20 32.5 -26.5t22.5 -6.5q15 0 22 10t8 30l1 12q1 15 18 15h27q11 0 15 -6t4 -21v-5q0 -44 -26 -69.5t-70 -25.5z" />
    <glyph glyph-name="adieresis" unicode="&#xe4;" horiz-adv-x="527" 
d="M198 -13q-71 0 -113.5 40.5t-42.5 108.5q0 73 52 116.5t140 43.5q56 0 126 -17v66q0 54 -24.5 76t-83.5 22q-69 0 -135 -20q-23 -7 -29 -7q-12 0 -12 18v27q0 13 4 19t16 11q31 14 78.5 22.5t94.5 8.5q95 0 140 -39.5t45 -120.5v-342q0 -20 -20 -20h-43q-19 0 -22 19
l-5 33q-36 -31 -79.5 -48t-86.5 -17zM222 62q33 0 69 13t69 38v102q-54 13 -106 13q-113 0 -113 -87q0 -38 21 -58.5t60 -20.5zM158 594q-27 0 -43 16t-16 42t16 41.5t43 15.5q28 0 44 -15.5t16 -41.5t-16 -42t-44 -16zM374 594q-28 0 -44 16t-16 42t16 41.5t44 15.5
q27 0 43 -15.5t16 -41.5t-16 -42t-43 -16z" />
    <glyph glyph-name="aring" unicode="&#xe5;" horiz-adv-x="527" 
d="M198 -13q-71 0 -113.5 40.5t-42.5 108.5q0 73 52 116.5t140 43.5q56 0 126 -17v66q0 54 -24.5 76t-83.5 22q-69 0 -135 -20q-23 -7 -29 -7q-12 0 -12 18v27q0 13 4 19t16 11q31 14 78.5 22.5t94.5 8.5q95 0 140 -39.5t45 -120.5v-342q0 -20 -20 -20h-43q-19 0 -22 19
l-5 33q-36 -31 -79.5 -48t-86.5 -17zM222 62q33 0 69 13t69 38v102q-54 13 -106 13q-113 0 -113 -87q0 -38 21 -58.5t60 -20.5zM266 585q-53 0 -85.5 29t-32.5 78q0 48 32.5 77t85.5 29t85.5 -29t32.5 -77q0 -49 -32.5 -78t-85.5 -29zM266 637q24 0 38 14.5t14 40.5
q0 25 -14 39.5t-38 14.5t-38 -14.5t-14 -39.5q0 -26 14 -40.5t38 -14.5z" />
    <glyph glyph-name="ae" unicode="&#xe6;" horiz-adv-x="844" 
d="M224 60q38 0 80.5 18.5t79.5 51.5q-14 41 -17 102q-49 4 -108 4q-120 0 -120 -94q0 -82 85 -82zM710 293q1 11 1 27q0 127 -114 127q-132 0 -140 -154h253zM204 -13q-75 0 -118.5 40.5t-43.5 108.5q0 76 53 120.5t144 44.5q63 0 130 -9v44q0 55 -28.5 81t-89.5 26
q-68 0 -134 -20q-23 -7 -29 -7q-12 0 -12 18v27q0 13 4 19t16 11q32 14 78 22.5t86 8.5q61 0 103.5 -21t62.5 -61q30 40 75 61t101 21q95 0 146 -53.5t51 -152.5q0 -37 -5 -70q-2 -12 -6.5 -16t-14.5 -4h-316q4 -84 44.5 -123t125.5 -39q30 0 57.5 4t69.5 17q7 2 12 3.5
t9 1.5q13 0 13 -18v-28q0 -13 -4 -18.5t-17 -11.5q-65 -29 -154 -29q-143 0 -203 91q-43 -42 -97.5 -65.5t-108.5 -23.5z" />
    <glyph glyph-name="ccedilla" unicode="&#xe7;" horiz-adv-x="461" 
d="M291 -11q-118 0 -180.5 67.5t-62.5 195.5q0 127 64.5 196.5t182.5 69.5q54 0 106 -19q11 -4 15.5 -10t4.5 -20v-27q0 -20 -13 -20q-5 0 -16 3q-41 12 -83 12q-84 0 -121 -42.5t-37 -135.5v-13q0 -91 37.5 -133.5t118.5 -42.5q42 0 90 14q11 3 15 3q13 0 13 -20v-27
q0 -13 -4 -19t-16 -11q-49 -21 -114 -21zM245 -276q-10 0 -17 7l-12 11q-7 7 -7 12q0 6 9 12q66 49 66 84q0 26 -38 26q-7 0 -13 -0.5t-10 -0.5q-14 0 -14 16v21q0 17 15 20q22 5 46 5q42 0 66.5 -19.5t24.5 -52.5q0 -38 -25.5 -72.5t-75.5 -63.5q-8 -5 -15 -5z" />
    <glyph glyph-name="egrave" unicode="&#xe8;" horiz-adv-x="529" 
d="M297 -15q-123 0 -186 68t-63 201q0 127 63 197.5t176 70.5q95 0 146 -53.5t51 -151.5q0 -32 -5 -65q-2 -12 -6.5 -16t-14.5 -4h-314q2 -86 42.5 -127t125.5 -41q30 0 57.5 4t69.5 17q7 2 12 3.5t9 1.5q13 0 13 -18v-28q0 -13 -4 -18.5t-17 -11.5q-30 -13 -71.5 -21
t-83.5 -8zM393 298q1 8 1 26q0 61 -28.5 92t-83.5 31q-63 0 -98 -37.5t-40 -111.5h249zM258 601q-14 0 -21.5 4.5t-17.5 16.5l-89 108q-10 11 -10 19q0 5 4 8.5t10 3.5h64q14 0 21.5 -5t15.5 -19l64 -106q7 -11 7 -18q0 -5 -4 -8.5t-11 -3.5h-33z" />
    <glyph glyph-name="eacute" unicode="&#xe9;" horiz-adv-x="529" 
d="M297 -15q-123 0 -186 68t-63 201q0 127 63 197.5t176 70.5q95 0 146 -53.5t51 -151.5q0 -32 -5 -65q-2 -12 -6.5 -16t-14.5 -4h-314q2 -86 42.5 -127t125.5 -41q30 0 57.5 4t69.5 17q7 2 12 3.5t9 1.5q13 0 13 -18v-28q0 -13 -4 -18.5t-17 -11.5q-30 -13 -71.5 -21
t-83.5 -8zM393 298q1 8 1 26q0 61 -28.5 92t-83.5 31q-63 0 -98 -37.5t-40 -111.5h249zM257 601q-7 0 -11 3.5t-4 8.5q0 7 7 18l64 106q8 14 15.5 19t21.5 5h64q6 0 10 -3.5t4 -8.5q0 -8 -10 -19l-89 -108q-10 -12 -17.5 -16.5t-21.5 -4.5h-33z" />
    <glyph glyph-name="ecircumflex" unicode="&#xea;" horiz-adv-x="529" 
d="M297 -15q-123 0 -186 68t-63 201q0 127 63 197.5t176 70.5q95 0 146 -53.5t51 -151.5q0 -32 -5 -65q-2 -12 -6.5 -16t-14.5 -4h-314q2 -86 42.5 -127t125.5 -41q30 0 57.5 4t69.5 17q7 2 12 3.5t9 1.5q13 0 13 -18v-28q0 -13 -4 -18.5t-17 -11.5q-30 -13 -71.5 -21
t-83.5 -8zM393 298q1 8 1 26q0 61 -28.5 92t-83.5 31q-63 0 -98 -37.5t-40 -111.5h249zM123 601q-16 0 -16 12q0 7 10 19l89 108q12 14 18.5 18t17.5 4h64q11 0 17.5 -4t18.5 -18l89 -108q10 -12 10 -19q0 -12 -16 -12h-36q-10 0 -18 4.5t-20 16.5l-77 82l-77 -82
q-12 -12 -20 -16.5t-18 -4.5h-36z" />
    <glyph glyph-name="edieresis" unicode="&#xeb;" horiz-adv-x="529" 
d="M297 -15q-123 0 -186 68t-63 201q0 127 63 197.5t176 70.5q95 0 146 -53.5t51 -151.5q0 -32 -5 -65q-2 -12 -6.5 -16t-14.5 -4h-314q2 -86 42.5 -127t125.5 -41q30 0 57.5 4t69.5 17q7 2 12 3.5t9 1.5q13 0 13 -18v-28q0 -13 -4 -18.5t-17 -11.5q-30 -13 -71.5 -21
t-83.5 -8zM393 298q1 8 1 26q0 61 -28.5 92t-83.5 31q-63 0 -98 -37.5t-40 -111.5h249zM166 594q-27 0 -43 16t-16 42t16 41.5t43 15.5q28 0 44 -15.5t16 -41.5t-16 -42t-44 -16zM382 594q-28 0 -44 16t-16 42t16 41.5t44 15.5q27 0 43 -15.5t16 -41.5t-16 -42t-43 -16z" />
    <glyph glyph-name="igrave" unicode="&#xec;" horiz-adv-x="255" 
d="M98 0q-20 0 -20 20v467q0 20 20 20h59q20 0 20 -20v-467q0 -20 -20 -20h-59zM111 601q-14 0 -21.5 4.5t-17.5 16.5l-89 108q-10 11 -10 19q0 5 4 8.5t10 3.5h64q14 0 21.5 -5t15.5 -19l64 -106q7 -11 7 -18q0 -5 -4 -8.5t-11 -3.5h-33z" />
    <glyph glyph-name="iacute" unicode="&#xed;" horiz-adv-x="255" 
d="M98 0q-20 0 -20 20v467q0 20 20 20h59q20 0 20 -20v-467q0 -20 -20 -20h-59zM110 601q-7 0 -11 3.5t-4 8.5q0 7 7 18l64 106q8 14 15.5 19t21.5 5h64q6 0 10 -3.5t4 -8.5q0 -8 -10 -19l-89 -108q-10 -12 -17.5 -16.5t-21.5 -4.5h-33z" />
    <glyph glyph-name="icircumflex" unicode="&#xee;" horiz-adv-x="255" 
d="M98 0q-20 0 -20 20v467q0 20 20 20h59q20 0 20 -20v-467q0 -20 -20 -20h-59zM-24 601q-16 0 -16 12q0 7 10 19l89 108q12 14 18.5 18t17.5 4h64q11 0 17.5 -4t18.5 -18l89 -108q10 -12 10 -19q0 -12 -16 -12h-36q-10 0 -18 4.5t-20 16.5l-77 82l-77 -82
q-12 -12 -20 -16.5t-18 -4.5h-36z" />
    <glyph glyph-name="idieresis" unicode="&#xef;" horiz-adv-x="255" 
d="M98 0q-20 0 -20 20v467q0 20 20 20h59q20 0 20 -20v-467q0 -20 -20 -20h-59zM19 594q-27 0 -43 16t-16 42t16 41.5t43 15.5q28 0 44 -15.5t16 -41.5t-16 -42t-44 -16zM235 594q-28 0 -44 16t-16 42t16 41.5t44 15.5q27 0 43 -15.5t16 -41.5t-16 -42t-43 -16z" />
    <glyph glyph-name="eth" unicode="&#xf0;" horiz-adv-x="564" 
d="M281 61q69 0 105 44.5t36 128.5t-36.5 129t-104.5 45q-134 0 -134 -173q0 -85 33.5 -129.5t100.5 -44.5zM283 -15q-110 0 -172.5 66.5t-62.5 183.5q0 113 60 180t161 67q108 0 165 -80q-19 74 -53.5 128.5t-82.5 84.5l-73 -68q-14 -14 -22 -14t-14 6l-13 15q-7 10 -7 14
q0 8 9 17l66 59q-38 18 -86 29q-16 4 -20.5 9.5t-4.5 22.5v32q0 7 4 12t10 5q4 0 8 -0.5t8 -1.5q74 -16 138 -52l64 60q14 14 22 14t14 -6l14 -16q7 -10 7 -14q0 -8 -9 -17l-60 -55q79 -62 121 -159.5t42 -221.5q0 -300 -233 -300z" />
    <glyph glyph-name="ntilde" unicode="&#xf1;" horiz-adv-x="588" 
d="M94 0q-20 0 -20 20v467q0 20 20 20h44q10 0 15.5 -4t7.5 -15l6 -37q95 71 200 71q73 0 111 -38.5t38 -111.5v-352q0 -20 -20 -20h-59q-20 0 -20 20v319q0 53 -21.5 78t-67.5 25q-79 0 -155 -51v-371q0 -20 -20 -20h-59zM377 603q-48 0 -86 37q-22 20 -32.5 26.5
t-22.5 6.5q-15 0 -22 -10t-8 -30l-1 -12q-1 -15 -17 -15h-28q-11 0 -15 6t-4 21v5q0 44 26 69.5t70 25.5q48 0 86 -37q22 -20 32.5 -26.5t22.5 -6.5q15 0 22 10t8 30l1 12q1 15 18 15h27q11 0 15 -6t4 -21v-5q0 -44 -26 -69.5t-70 -25.5z" />
    <glyph glyph-name="ograve" unicode="&#xf2;" horiz-adv-x="580" 
d="M290 -15q-114 0 -178 71t-64 198q0 126 64 197t178 71t178 -71t64 -197q0 -127 -64 -198t-178 -71zM290 65q141 0 141 189q0 188 -141 188t-141 -188q0 -189 141 -189zM274 601q-14 0 -21.5 4.5t-17.5 16.5l-89 108q-10 11 -10 19q0 5 4 8.5t10 3.5h64q14 0 21.5 -5
t15.5 -19l64 -106q7 -11 7 -18q0 -5 -4 -8.5t-11 -3.5h-33z" />
    <glyph glyph-name="oacute" unicode="&#xf3;" horiz-adv-x="580" 
d="M290 -15q-114 0 -178 71t-64 198q0 126 64 197t178 71t178 -71t64 -197q0 -127 -64 -198t-178 -71zM290 65q141 0 141 189q0 188 -141 188t-141 -188q0 -189 141 -189zM273 601q-7 0 -11 3.5t-4 8.5q0 7 7 18l64 106q8 14 15.5 19t21.5 5h64q6 0 10 -3.5t4 -8.5
q0 -8 -10 -19l-89 -108q-10 -12 -17.5 -16.5t-21.5 -4.5h-33z" />
    <glyph glyph-name="ocircumflex" unicode="&#xf4;" horiz-adv-x="580" 
d="M290 -15q-114 0 -178 71t-64 198q0 126 64 197t178 71t178 -71t64 -197q0 -127 -64 -198t-178 -71zM290 65q141 0 141 189q0 188 -141 188t-141 -188q0 -189 141 -189zM139 601q-16 0 -16 12q0 7 10 19l89 108q12 14 18.5 18t17.5 4h64q11 0 17.5 -4t18.5 -18l89 -108
q10 -12 10 -19q0 -12 -16 -12h-36q-10 0 -18 4.5t-20 16.5l-77 82l-77 -82q-12 -12 -20 -16.5t-18 -4.5h-36z" />
    <glyph glyph-name="otilde" unicode="&#xf5;" horiz-adv-x="580" 
d="M290 -15q-114 0 -178 71t-64 198q0 126 64 197t178 71t178 -71t64 -197q0 -127 -64 -198t-178 -71zM290 65q141 0 141 189q0 188 -141 188t-141 -188q0 -189 141 -189zM360 603q-48 0 -86 37q-22 20 -32.5 26.5t-22.5 6.5q-15 0 -22 -10t-8 -30l-1 -12q-1 -15 -17 -15
h-28q-11 0 -15 6t-4 21v5q0 44 26 69.5t70 25.5q48 0 86 -37q22 -20 32.5 -26.5t22.5 -6.5q15 0 22 10t8 30l1 12q1 15 18 15h27q11 0 15 -6t4 -21v-5q0 -44 -26 -69.5t-70 -25.5z" />
    <glyph glyph-name="odieresis" unicode="&#xf6;" horiz-adv-x="580" 
d="M290 -15q-114 0 -178 71t-64 198q0 126 64 197t178 71t178 -71t64 -197q0 -127 -64 -198t-178 -71zM290 65q141 0 141 189q0 188 -141 188t-141 -188q0 -189 141 -189zM182 594q-27 0 -43 16t-16 42t16 41.5t43 15.5q28 0 44 -15.5t16 -41.5t-16 -42t-44 -16zM398 594
q-28 0 -44 16t-16 42t16 41.5t44 15.5q27 0 43 -15.5t16 -41.5t-16 -42t-43 -16z" />
    <glyph glyph-name="divide" unicode="&#xf7;" 
d="M293 110q-25 0 -41.5 16.5t-16.5 41.5q0 26 16 42.5t42 16.5t42 -16t16 -43q0 -25 -16 -41.5t-42 -16.5zM293 469q-25 0 -41.5 16.5t-16.5 41.5q0 26 16 42.5t42 16.5t42 -16.5t16 -42.5t-16 -42t-42 -16zM87 308q-20 0 -20 20v40q0 20 20 20h412q20 0 20 -20v-40
q0 -20 -20 -20h-412z" />
    <glyph glyph-name="oslash" unicode="&#xf8;" horiz-adv-x="580" 
d="M378 413q-34 29 -88 29q-141 0 -141 -188q0 -65 17 -108zM290 65q141 0 141 189q0 59 -16 104l-212 -266q35 -27 87 -27zM102 -26q-8 0 -16 7l-16 13q-9 8 -9 14q0 7 9 19l32 40q-54 71 -54 187q0 126 64 197t178 71q85 0 143 -41l30 38q10 13 17 13q8 0 16 -7l16 -13
q9 -8 9 -14q0 -7 -9 -19l-33 -42q53 -70 53 -183q0 -127 -64 -198t-178 -71q-83 0 -142 39l-29 -37q-10 -13 -17 -13z" />
    <glyph glyph-name="ugrave" unicode="&#xf9;" horiz-adv-x="575" 
d="M217 -15q-71 0 -109 40t-38 113v349q0 20 20 20h59q20 0 20 -20v-317q0 -54 21 -79.5t67 -25.5q72 0 145 48v374q0 20 20 20h59q20 0 20 -20v-467q0 -20 -20 -20h-43q-10 0 -15.5 4t-7.5 15l-7 35q-93 -69 -191 -69zM269 601q-14 0 -21.5 4.5t-17.5 16.5l-89 108
q-10 11 -10 19q0 5 4 8.5t10 3.5h64q14 0 21.5 -5t15.5 -19l64 -106q7 -11 7 -18q0 -5 -4 -8.5t-11 -3.5h-33z" />
    <glyph glyph-name="uacute" unicode="&#xfa;" horiz-adv-x="575" 
d="M217 -15q-71 0 -109 40t-38 113v349q0 20 20 20h59q20 0 20 -20v-317q0 -54 21 -79.5t67 -25.5q72 0 145 48v374q0 20 20 20h59q20 0 20 -20v-467q0 -20 -20 -20h-43q-10 0 -15.5 4t-7.5 15l-7 35q-93 -69 -191 -69zM268 601q-7 0 -11 3.5t-4 8.5q0 7 7 18l64 106
q8 14 15.5 19t21.5 5h64q6 0 10 -3.5t4 -8.5q0 -8 -10 -19l-89 -108q-10 -12 -17.5 -16.5t-21.5 -4.5h-33z" />
    <glyph glyph-name="ucircumflex" unicode="&#xfb;" horiz-adv-x="575" 
d="M217 -15q-71 0 -109 40t-38 113v349q0 20 20 20h59q20 0 20 -20v-317q0 -54 21 -79.5t67 -25.5q72 0 145 48v374q0 20 20 20h59q20 0 20 -20v-467q0 -20 -20 -20h-43q-10 0 -15.5 4t-7.5 15l-7 35q-93 -69 -191 -69zM134 601q-16 0 -16 12q0 7 10 19l89 108
q12 14 18.5 18t17.5 4h64q11 0 17.5 -4t18.5 -18l89 -108q10 -12 10 -19q0 -12 -16 -12h-36q-10 0 -18 4.5t-20 16.5l-77 82l-77 -82q-12 -12 -20 -16.5t-18 -4.5h-36z" />
    <glyph glyph-name="udieresis" unicode="&#xfc;" horiz-adv-x="575" 
d="M217 -15q-71 0 -109 40t-38 113v349q0 20 20 20h59q20 0 20 -20v-317q0 -54 21 -79.5t67 -25.5q72 0 145 48v374q0 20 20 20h59q20 0 20 -20v-467q0 -20 -20 -20h-43q-10 0 -15.5 4t-7.5 15l-7 35q-93 -69 -191 -69zM177 594q-27 0 -43 16t-16 42t16 41.5t43 15.5
q28 0 44 -15.5t16 -41.5t-16 -42t-44 -16zM393 594q-28 0 -44 16t-16 42t16 41.5t44 15.5q27 0 43 -15.5t16 -41.5t-16 -42t-43 -16z" />
    <glyph glyph-name="yacute" unicode="&#xfd;" horiz-adv-x="509" 
d="M116 -218q-32 0 -57 7q-12 3 -16.5 10t-4.5 20v26q0 19 15 19q5 0 15 -2t27 -2q37 0 58.5 18.5t38.5 65.5l19 51l-193 476q-7 17 -7 24q0 12 14 12h60q16 0 22 -5t12 -22l140 -388l135 388q6 17 12 22t22 5h56q14 0 14 -12q0 -7 -7 -24l-220 -560q-27 -69 -63 -99
t-92 -30zM237 601q-7 0 -11 3.5t-4 8.5q0 7 7 18l64 106q8 14 15.5 19t21.5 5h64q6 0 10 -3.5t4 -8.5q0 -8 -10 -19l-89 -108q-10 -12 -17.5 -16.5t-21.5 -4.5h-33z" />
    <glyph glyph-name="thorn" unicode="&#xfe;" horiz-adv-x="592" 
d="M94 -206q-20 0 -20 20v906q0 20 20 20h59q20 0 20 -20v-261q75 63 162 63q97 0 153 -70t56 -192q0 -123 -59 -197t-157 -74q-89 0 -155 60v-235q0 -20 -20 -20h-59zM305 69q138 0 138 186q0 95 -33.5 141t-102.5 46q-71 0 -134 -46v-279q63 -48 132 -48z" />
    <glyph glyph-name="ydieresis" unicode="&#xff;" horiz-adv-x="509" 
d="M116 -218q-32 0 -57 7q-12 3 -16.5 10t-4.5 20v26q0 19 15 19q5 0 15 -2t27 -2q37 0 58.5 18.5t38.5 65.5l19 51l-193 476q-7 17 -7 24q0 12 14 12h60q16 0 22 -5t12 -22l140 -388l135 388q6 17 12 22t22 5h56q14 0 14 -12q0 -7 -7 -24l-220 -560q-27 -69 -63 -99
t-92 -30zM146 594q-27 0 -43 16t-16 42t16 41.5t43 15.5q28 0 44 -15.5t16 -41.5t-16 -42t-44 -16zM362 594q-28 0 -44 16t-16 42t16 41.5t44 15.5q27 0 43 -15.5t16 -41.5t-16 -42t-43 -16z" />
    <glyph glyph-name="Amacron" unicode="&#x100;" horiz-adv-x="642" 
d="M437 261l-118 340l-116 -340h234zM33 0q-17 0 -17 13q0 7 6 23l234 630q6 18 12.5 22.5t21.5 4.5h62q15 0 21.5 -4.5t12.5 -22.5l234 -630q6 -16 6 -23q0 -13 -17 -13h-57q-15 0 -21.5 4.5t-12.5 22.5l-55 157h-287l-53 -157q-6 -18 -12.5 -22.5t-21.5 -4.5h-56zM177 799
q-17 0 -17 17v34q0 17 17 17h288q17 0 17 -17v-34q0 -17 -17 -17h-288z" />
    <glyph glyph-name="amacron" unicode="&#x101;" horiz-adv-x="527" 
d="M198 -13q-71 0 -113.5 40.5t-42.5 108.5q0 73 52 116.5t140 43.5q56 0 126 -17v66q0 54 -24.5 76t-83.5 22q-69 0 -135 -20q-23 -7 -29 -7q-12 0 -12 18v27q0 13 4 19t16 11q31 14 78.5 22.5t94.5 8.5q95 0 140 -39.5t45 -120.5v-342q0 -20 -20 -20h-43q-19 0 -22 19
l-5 33q-36 -31 -79.5 -48t-86.5 -17zM222 62q33 0 69 13t69 38v102q-54 13 -106 13q-113 0 -113 -87q0 -38 21 -58.5t60 -20.5zM122 636q-17 0 -17 17v31q0 17 17 17h288q17 0 17 -17v-31q0 -17 -17 -17h-288z" />
    <glyph glyph-name="Abreve" unicode="&#x102;" horiz-adv-x="642" 
d="M437 261l-118 340l-116 -340h234zM33 0q-17 0 -17 13q0 7 6 23l234 630q6 18 12.5 22.5t21.5 4.5h62q15 0 21.5 -4.5t12.5 -22.5l234 -630q6 -16 6 -23q0 -13 -17 -13h-57q-15 0 -21.5 4.5t-12.5 22.5l-55 157h-287l-53 -157q-6 -18 -12.5 -22.5t-21.5 -4.5h-56zM321 766
q-67 0 -105.5 30t-38.5 81q0 12 4.5 17t15.5 5h28q10 0 14.5 -4t5.5 -13q9 -50 76 -50t76 50q1 9 5.5 13t14.5 4h28q11 0 15.5 -5t4.5 -17q0 -51 -38.5 -81t-105.5 -30z" />
    <glyph glyph-name="abreve" unicode="&#x103;" horiz-adv-x="527" 
d="M198 -13q-71 0 -113.5 40.5t-42.5 108.5q0 73 52 116.5t140 43.5q56 0 126 -17v66q0 54 -24.5 76t-83.5 22q-69 0 -135 -20q-23 -7 -29 -7q-12 0 -12 18v27q0 13 4 19t16 11q31 14 78.5 22.5t94.5 8.5q95 0 140 -39.5t45 -120.5v-342q0 -20 -20 -20h-43q-19 0 -22 19
l-5 33q-36 -31 -79.5 -48t-86.5 -17zM222 62q33 0 69 13t69 38v102q-54 13 -106 13q-113 0 -113 -87q0 -38 21 -58.5t60 -20.5zM266 599q-67 0 -105.5 33t-38.5 90v6q0 22 16 22h34q16 0 17 -17l1 -8q4 -31 22.5 -46t53.5 -15t53.5 15t22.5 46l1 8q1 17 17 17h34
q9 0 12.5 -4.5t3.5 -17.5v-6q0 -57 -38.5 -90t-105.5 -33z" />
    <glyph glyph-name="Aogonek" unicode="&#x104;" horiz-adv-x="642" 
d="M574 -224q-51 0 -79.5 22.5t-28.5 63.5q0 37 22.5 72t65.5 66q-16 0 -23 4.5t-13 22.5l-55 157h-287l-53 -157q-6 -18 -12.5 -22.5t-21.5 -4.5h-56q-17 0 -17 13q0 7 6 23l234 630q6 18 12.5 22.5t21.5 4.5h62q15 0 21.5 -4.5t12.5 -22.5l234 -630q2 -6 4.5 -12.5
t2.5 -14.5q0 -7 -3.5 -12t-11.5 -13q-31 -28 -48 -55.5t-17 -51.5q0 -38 52 -38q10 0 18.5 1.5t12.5 1.5q13 0 13 -15v-24q0 -10 -3 -14t-12 -7q-16 -6 -54 -6zM437 261l-118 340l-116 -340h234z" />
    <glyph glyph-name="aogonek" unicode="&#x105;" horiz-adv-x="527" 
d="M400 -224q-53 0 -81.5 22.5t-28.5 63.5q0 76 90 139q-10 5 -11 18l-5 33q-36 -31 -79.5 -48t-86.5 -17q-71 0 -113.5 40.5t-42.5 108.5q0 73 52 116.5t140 43.5q56 0 126 -17v66q0 54 -24.5 76t-83.5 22q-69 0 -135 -20q-23 -7 -29 -7q-12 0 -12 18v27q0 13 4 19t16 11
q31 14 78.5 22.5t94.5 8.5q95 0 140 -39.5t45 -120.5v-342q0 -13 -4 -19.5t-16 -16.5q-65 -56 -65 -108q0 -39 55 -39q10 0 18 1.5t12 1.5q13 0 13 -15v-22q0 -10 -3 -14t-12 -7q-20 -6 -52 -6zM222 62q33 0 69 13t69 38v102q-54 13 -106 13q-113 0 -113 -87q0 -38 21 -58.5
t60 -20.5z" />
    <glyph glyph-name="Cacute" unicode="&#x106;" horiz-adv-x="607" 
d="M397 -12q-164 0 -248.5 90.5t-84.5 265.5q0 173 87.5 266t250.5 93q70 0 140 -20q12 -4 16 -10.5t4 -19.5v-38q0 -19 -14 -19q-4 0 -10.5 1t-23.5 5q-54 12 -100 12q-126 0 -184 -61.5t-58 -195.5v-24q0 -132 56.5 -194t179.5 -62q41 0 119 16q14 3 20 4t10 1
q15 0 15 -19v-37q0 -13 -4 -19.5t-16 -10.5q-72 -24 -155 -24zM367 769q-15 0 -15 12q0 5 11 17l59 72q11 14 19 18t20 4h67q13 0 13 -11q0 -4 -2.5 -8t-10.5 -11l-79 -73q-13 -11 -22 -15.5t-19 -4.5h-41z" />
    <glyph glyph-name="cacute" unicode="&#x107;" horiz-adv-x="461" 
d="M291 -11q-118 0 -180.5 67.5t-62.5 195.5q0 127 64.5 196.5t182.5 69.5q54 0 106 -19q11 -4 15.5 -10t4.5 -20v-27q0 -20 -13 -20q-5 0 -16 3q-41 12 -83 12q-84 0 -121 -42.5t-37 -135.5v-13q0 -91 37.5 -133.5t118.5 -42.5q42 0 90 14q11 3 15 3q13 0 13 -20v-27
q0 -13 -4 -19t-16 -11q-49 -21 -114 -21zM252 601q-7 0 -11 3.5t-4 8.5q0 7 7 18l64 106q8 14 15.5 19t21.5 5h64q6 0 10 -3.5t4 -8.5q0 -8 -10 -19l-89 -108q-10 -12 -17.5 -16.5t-21.5 -4.5h-33z" />
    <glyph glyph-name="Ccircumflex" unicode="&#x108;" horiz-adv-x="607" 
d="M397 -12q-164 0 -248.5 90.5t-84.5 265.5q0 173 87.5 266t250.5 93q70 0 140 -20q12 -4 16 -10.5t4 -19.5v-38q0 -19 -14 -19q-4 0 -10.5 1t-23.5 5q-54 12 -100 12q-126 0 -184 -61.5t-58 -195.5v-24q0 -132 56.5 -194t179.5 -62q41 0 119 16q14 3 20 4t10 1
q15 0 15 -19v-37q0 -13 -4 -19.5t-16 -10.5q-72 -24 -155 -24zM233 769q-16 0 -16 12q0 7 10 17l86 85q13 13 20 17t18 4h70q11 0 18 -4t20 -17l86 -85q10 -10 10 -17q0 -12 -16 -12h-46q-19 0 -35 15l-72 65l-72 -65q-16 -15 -35 -15h-46z" />
    <glyph glyph-name="ccircumflex" unicode="&#x109;" horiz-adv-x="461" 
d="M291 -11q-118 0 -180.5 67.5t-62.5 195.5q0 127 64.5 196.5t182.5 69.5q54 0 106 -19q11 -4 15.5 -10t4.5 -20v-27q0 -20 -13 -20q-5 0 -16 3q-41 12 -83 12q-84 0 -121 -42.5t-37 -135.5v-13q0 -91 37.5 -133.5t118.5 -42.5q42 0 90 14q11 3 15 3q13 0 13 -20v-27
q0 -13 -4 -19t-16 -11q-49 -21 -114 -21zM118 601q-16 0 -16 12q0 7 10 19l89 108q12 14 18.5 18t17.5 4h64q11 0 17.5 -4t18.5 -18l89 -108q10 -12 10 -19q0 -12 -16 -12h-36q-10 0 -18 4.5t-20 16.5l-77 82l-77 -82q-12 -12 -20 -16.5t-18 -4.5h-36z" />
    <glyph glyph-name="Cdotaccent" unicode="&#x10a;" horiz-adv-x="607" 
d="M397 -12q-164 0 -248.5 90.5t-84.5 265.5q0 173 87.5 266t250.5 93q70 0 140 -20q12 -4 16 -10.5t4 -19.5v-38q0 -19 -14 -19q-4 0 -10.5 1t-23.5 5q-54 12 -100 12q-126 0 -184 -61.5t-58 -195.5v-24q0 -132 56.5 -194t179.5 -62q41 0 119 16q14 3 20 4t10 1
q15 0 15 -19v-37q0 -13 -4 -19.5t-16 -10.5q-72 -24 -155 -24zM386 779q-30 0 -46.5 16.5t-16.5 44.5t16.5 44.5t46.5 16.5t46.5 -16.5t16.5 -44.5t-16.5 -44.5t-46.5 -16.5z" />
    <glyph glyph-name="cdotaccent" unicode="&#x10b;" horiz-adv-x="461" 
d="M291 -11q-118 0 -180.5 67.5t-62.5 195.5q0 127 64.5 196.5t182.5 69.5q54 0 106 -19q11 -4 15.5 -10t4.5 -20v-27q0 -20 -13 -20q-5 0 -16 3q-41 12 -83 12q-84 0 -121 -42.5t-37 -135.5v-13q0 -91 37.5 -133.5t118.5 -42.5q42 0 90 14q11 3 15 3q13 0 13 -20v-27
q0 -13 -4 -19t-16 -11q-49 -21 -114 -21zM269 597q-29 0 -45.5 16.5t-16.5 43.5t16.5 43.5t45.5 16.5t45.5 -16.5t16.5 -43.5t-16.5 -43.5t-45.5 -16.5z" />
    <glyph glyph-name="Ccaron" unicode="&#x10c;" horiz-adv-x="607" 
d="M397 -12q-164 0 -248.5 90.5t-84.5 265.5q0 173 87.5 266t250.5 93q70 0 140 -20q12 -4 16 -10.5t4 -19.5v-38q0 -19 -14 -19q-4 0 -10.5 1t-23.5 5q-54 12 -100 12q-126 0 -184 -61.5t-58 -195.5v-24q0 -132 56.5 -194t179.5 -62q41 0 119 16q14 3 20 4t10 1
q15 0 15 -19v-37q0 -13 -4 -19.5t-16 -10.5q-72 -24 -155 -24zM356 769q-19 0 -35 15l-91 90q-8 7 -10.5 11t-2.5 8q0 11 13 11h62q11 0 16.5 -3t18.5 -18l59 -69l59 69q13 15 18.5 18t16.5 3h62q13 0 13 -11q0 -4 -2.5 -8t-10.5 -11l-91 -90q-16 -15 -35 -15h-60z" />
    <glyph glyph-name="ccaron" unicode="&#x10d;" horiz-adv-x="461" 
d="M291 -11q-118 0 -180.5 67.5t-62.5 195.5q0 127 64.5 196.5t182.5 69.5q54 0 106 -19q11 -4 15.5 -10t4.5 -20v-27q0 -20 -13 -20q-5 0 -16 3q-41 12 -83 12q-84 0 -121 -42.5t-37 -135.5v-13q0 -91 37.5 -133.5t118.5 -42.5q42 0 90 14q11 3 15 3q13 0 13 -20v-27
q0 -13 -4 -19t-16 -11q-49 -21 -114 -21zM241 601q-12 0 -20 4.5t-18 16.5l-91 109q-12 15 -12 21q0 10 13 10h55q12 0 18 -4t16 -18l67 -91l67 91q10 14 16 18t18 4h55q13 0 13 -10q0 -6 -12 -21l-91 -109q-10 -12 -18 -16.5t-20 -4.5h-56z" />
    <glyph glyph-name="Dcaron" unicode="&#x10e;" horiz-adv-x="690" 
d="M104 0q-20 0 -20 20v653q0 20 20 20h208q153 0 233.5 -88.5t80.5 -258.5q0 -168 -82 -257t-235 -89h-205zM186 80h112q223 0 223 255v23q0 127 -56 191t-167 64h-112v-533zM284 769q-19 0 -35 15l-91 90q-8 7 -10.5 11t-2.5 8q0 11 13 11h62q11 0 16.5 -3t18.5 -18
l59 -69l59 69q13 15 18.5 18t16.5 3h62q13 0 13 -11q0 -4 -2.5 -8t-10.5 -11l-91 -90q-16 -15 -35 -15h-60z" />
    <glyph glyph-name="dcaron" unicode="&#x10f;" horiz-adv-x="655" 
d="M261 -11q-66 0 -114 33t-73.5 92t-25.5 137q0 83 27 144.5t76 94t113 32.5q85 0 153 -56v254q0 20 20 20h59q20 0 20 -20v-700q0 -20 -20 -20h-44q-9 0 -14.5 4t-8.5 16l-8 32q-33 -30 -75 -46.5t-85 -16.5zM291 69q62 0 126 46v283q-31 23 -62.5 33.5t-69.5 10.5
q-136 0 -136 -188q0 -185 142 -185zM608 545q-9 0 -12.5 3.5t-4.5 13.5v165q0 18 15 21q16 4 32 4q19 0 33 -5q15 -6 15 -21q0 -8 -7 -44l-21 -120q-1 -10 -5.5 -13.5t-12.5 -3.5h-32z" />
    <glyph glyph-name="Dcroat" unicode="&#x110;" horiz-adv-x="700" 
d="M114 0q-20 0 -20 20v299h-63q-17 0 -17 17v41q0 17 17 17h63v279q0 20 20 20h208q153 0 233.5 -88.5t80.5 -258.5q0 -168 -82 -257t-235 -89h-205zM196 80h112q223 0 223 255v23q0 127 -56 191t-167 64h-112v-219h139q17 0 17 -17v-41q0 -17 -17 -17h-139v-239z" />
    <glyph glyph-name="dcroat" unicode="&#x111;" horiz-adv-x="590" 
d="M261 -11q-66 0 -114 33t-73.5 92t-25.5 137q0 83 27 144.5t76 94t113 32.5q85 0 153 -56v126h-155q-17 0 -17 17v35q0 17 17 17h155v59q0 20 20 20h59q20 0 20 -20v-59h53q17 0 17 -17v-35q0 -17 -17 -17h-53v-572q0 -20 -20 -20h-44q-9 0 -14.5 4t-8.5 16l-8 32
q-33 -30 -75 -46.5t-85 -16.5zM291 69q62 0 126 46v283q-31 23 -62.5 33.5t-69.5 10.5q-136 0 -136 -188q0 -185 142 -185z" />
    <glyph glyph-name="Emacron" unicode="&#x112;" horiz-adv-x="561" 
d="M104 0q-20 0 -20 20v653q0 20 20 20h391q20 0 20 -20v-42q0 -20 -20 -20h-309v-213h256q20 0 20 -20v-42q0 -20 -20 -20h-256v-234h309q20 0 20 -20v-42q0 -20 -20 -20h-391zM155 799q-17 0 -17 17v34q0 17 17 17h288q17 0 17 -17v-34q0 -17 -17 -17h-288z" />
    <glyph glyph-name="emacron" unicode="&#x113;" horiz-adv-x="529" 
d="M297 -15q-123 0 -186 68t-63 201q0 127 63 197.5t176 70.5q95 0 146 -53.5t51 -151.5q0 -32 -5 -65q-2 -12 -6.5 -16t-14.5 -4h-314q2 -86 42.5 -127t125.5 -41q30 0 57.5 4t69.5 17q7 2 12 3.5t9 1.5q13 0 13 -18v-28q0 -13 -4 -18.5t-17 -11.5q-30 -13 -71.5 -21
t-83.5 -8zM393 298q1 8 1 26q0 61 -28.5 92t-83.5 31q-63 0 -98 -37.5t-40 -111.5h249zM130 636q-17 0 -17 17v31q0 17 17 17h288q17 0 17 -17v-31q0 -17 -17 -17h-288z" />
    <glyph glyph-name="Ebreve" unicode="&#x114;" horiz-adv-x="561" 
d="M104 0q-20 0 -20 20v653q0 20 20 20h391q20 0 20 -20v-42q0 -20 -20 -20h-309v-213h256q20 0 20 -20v-42q0 -20 -20 -20h-256v-234h309q20 0 20 -20v-42q0 -20 -20 -20h-391zM299 766q-67 0 -105.5 30t-38.5 81q0 12 4.5 17t15.5 5h28q10 0 14.5 -4t5.5 -13q9 -50 76 -50
t76 50q1 9 5.5 13t14.5 4h28q11 0 15.5 -5t4.5 -17q0 -51 -38.5 -81t-105.5 -30z" />
    <glyph glyph-name="ebreve" unicode="&#x115;" horiz-adv-x="529" 
d="M297 -15q-123 0 -186 68t-63 201q0 127 63 197.5t176 70.5q95 0 146 -53.5t51 -151.5q0 -32 -5 -65q-2 -12 -6.5 -16t-14.5 -4h-314q2 -86 42.5 -127t125.5 -41q30 0 57.5 4t69.5 17q7 2 12 3.5t9 1.5q13 0 13 -18v-28q0 -13 -4 -18.5t-17 -11.5q-30 -13 -71.5 -21
t-83.5 -8zM393 298q1 8 1 26q0 61 -28.5 92t-83.5 31q-63 0 -98 -37.5t-40 -111.5h249zM274 599q-67 0 -105.5 33t-38.5 90v6q0 22 16 22h34q16 0 17 -17l1 -8q4 -31 22.5 -46t53.5 -15t53.5 15t22.5 46l1 8q1 17 17 17h34q9 0 12.5 -4.5t3.5 -17.5v-6q0 -57 -38.5 -90
t-105.5 -33z" />
    <glyph glyph-name="Edotaccent" unicode="&#x116;" horiz-adv-x="561" 
d="M104 0q-20 0 -20 20v653q0 20 20 20h391q20 0 20 -20v-42q0 -20 -20 -20h-309v-213h256q20 0 20 -20v-42q0 -20 -20 -20h-256v-234h309q20 0 20 -20v-42q0 -20 -20 -20h-391zM299 779q-30 0 -46.5 16.5t-16.5 44.5t16.5 44.5t46.5 16.5t46.5 -16.5t16.5 -44.5
t-16.5 -44.5t-46.5 -16.5z" />
    <glyph glyph-name="edotaccent" unicode="&#x117;" horiz-adv-x="529" 
d="M297 -15q-123 0 -186 68t-63 201q0 127 63 197.5t176 70.5q95 0 146 -53.5t51 -151.5q0 -32 -5 -65q-2 -12 -6.5 -16t-14.5 -4h-314q2 -86 42.5 -127t125.5 -41q30 0 57.5 4t69.5 17q7 2 12 3.5t9 1.5q13 0 13 -18v-28q0 -13 -4 -18.5t-17 -11.5q-30 -13 -71.5 -21
t-83.5 -8zM393 298q1 8 1 26q0 61 -28.5 92t-83.5 31q-63 0 -98 -37.5t-40 -111.5h249zM274 597q-29 0 -45.5 16.5t-16.5 43.5t16.5 43.5t45.5 16.5t45.5 -16.5t16.5 -43.5t-16.5 -43.5t-45.5 -16.5z" />
    <glyph glyph-name="Eogonek" unicode="&#x118;" horiz-adv-x="561" 
d="M457 -224q-51 0 -79.5 22.5t-28.5 63.5q0 37 22.5 72t65.5 66h-333q-20 0 -20 20v653q0 20 20 20h391q20 0 20 -20v-42q0 -20 -20 -20h-309v-213h256q20 0 20 -20v-42q0 -20 -20 -20h-256v-234h309q20 0 20 -20v-42q0 -13 -3 -18.5t-11 -12.5q-71 -60 -71 -112
q0 -38 52 -38q10 0 18.5 1.5t12.5 1.5q13 0 13 -15v-24q0 -10 -3 -14t-12 -7q-16 -6 -54 -6z" />
    <glyph glyph-name="eogonek" unicode="&#x119;" horiz-adv-x="529" 
d="M364 -224q-53 0 -81.5 22.5t-28.5 63.5q0 72 85 126q-21 -3 -42 -3q-123 0 -186 68t-63 201q0 127 63 197.5t176 70.5q95 0 146 -53.5t51 -151.5q0 -32 -5 -65q-2 -12 -6.5 -16t-14.5 -4h-314q2 -86 42.5 -127t125.5 -41q30 0 57.5 4t69.5 17q7 2 12 3.5t9 1.5
q13 0 13 -18v-28q0 -12 -3.5 -17t-17.5 -13q-119 -62 -119 -138q0 -39 55 -39q10 0 18 1.5t12 1.5q13 0 13 -15v-22q0 -10 -3 -14t-12 -7q-19 -6 -52 -6zM393 298q1 8 1 26q0 61 -28.5 92t-83.5 31q-63 0 -98 -37.5t-40 -111.5h249z" />
    <glyph glyph-name="Ecaron" unicode="&#x11a;" horiz-adv-x="561" 
d="M104 0q-20 0 -20 20v653q0 20 20 20h391q20 0 20 -20v-42q0 -20 -20 -20h-309v-213h256q20 0 20 -20v-42q0 -20 -20 -20h-256v-234h309q20 0 20 -20v-42q0 -20 -20 -20h-391zM269 769q-19 0 -35 15l-91 90q-8 7 -10.5 11t-2.5 8q0 11 13 11h62q11 0 16.5 -3t18.5 -18
l59 -69l59 69q13 15 18.5 18t16.5 3h62q13 0 13 -11q0 -4 -2.5 -8t-10.5 -11l-91 -90q-16 -15 -35 -15h-60z" />
    <glyph glyph-name="ecaron" unicode="&#x11b;" horiz-adv-x="529" 
d="M297 -15q-123 0 -186 68t-63 201q0 127 63 197.5t176 70.5q95 0 146 -53.5t51 -151.5q0 -32 -5 -65q-2 -12 -6.5 -16t-14.5 -4h-314q2 -86 42.5 -127t125.5 -41q30 0 57.5 4t69.5 17q7 2 12 3.5t9 1.5q13 0 13 -18v-28q0 -13 -4 -18.5t-17 -11.5q-30 -13 -71.5 -21
t-83.5 -8zM393 298q1 8 1 26q0 61 -28.5 92t-83.5 31q-63 0 -98 -37.5t-40 -111.5h249zM246 601q-12 0 -20 4.5t-18 16.5l-91 109q-12 15 -12 21q0 10 13 10h55q12 0 18 -4t16 -18l67 -91l67 91q10 14 16 18t18 4h55q13 0 13 -10q0 -6 -12 -21l-91 -109q-10 -12 -18 -16.5
t-20 -4.5h-56z" />
    <glyph glyph-name="Gcircumflex" unicode="&#x11c;" horiz-adv-x="692" 
d="M398 -12q-164 0 -249 90t-85 264q0 176 87 268.5t252 92.5q93 0 172 -32q12 -5 16.5 -11.5t4.5 -18.5v-35q0 -19 -14 -19q-7 0 -29 7q-73 23 -139 23q-127 0 -186 -63.5t-59 -198.5v-22q0 -133 60.5 -196t188.5 -63q59 0 106 11v203h-135q-20 0 -20 20v39q0 20 20 20h211
q20 0 20 -20v-284q0 -16 -4.5 -23.5t-17.5 -13.5q-84 -38 -200 -38zM241 769q-16 0 -16 12q0 7 10 17l86 85q13 13 20 17t18 4h70q11 0 18 -4t20 -17l86 -85q10 -10 10 -17q0 -12 -16 -12h-46q-19 0 -35 15l-72 65l-72 -65q-16 -15 -35 -15h-46z" />
    <glyph glyph-name="gcircumflex" unicode="&#x11d;" horiz-adv-x="580" 
d="M262 -218q-82 0 -153 30q-12 5 -16 11t-4 19v29q0 18 12 18q6 0 14.5 -3t23.5 -7q62 -17 115 -17q80 0 117 38.5t37 123.5v45q-34 -29 -73 -44.5t-79 -15.5q-64 0 -111 32t-72 89t-25 131q0 120 57 190.5t153 70.5q90 0 157 -62l5 28q2 11 7.5 15t15.5 4h43q20 0 20 -20
v-456q0 -119 -63.5 -184t-180.5 -65zM285 89q62 0 123 46v263q-30 23 -61 33.5t-68 10.5q-130 0 -130 -177q0 -87 34.5 -131.5t101.5 -44.5zM143 601q-16 0 -16 12q0 7 10 19l89 108q12 14 18.5 18t17.5 4h64q11 0 17.5 -4t18.5 -18l89 -108q10 -12 10 -19q0 -12 -16 -12
h-36q-10 0 -18 4.5t-20 16.5l-77 82l-77 -82q-12 -12 -20 -16.5t-18 -4.5h-36z" />
    <glyph glyph-name="Gbreve" unicode="&#x11e;" horiz-adv-x="692" 
d="M398 -12q-164 0 -249 90t-85 264q0 176 87 268.5t252 92.5q93 0 172 -32q12 -5 16.5 -11.5t4.5 -18.5v-35q0 -19 -14 -19q-7 0 -29 7q-73 23 -139 23q-127 0 -186 -63.5t-59 -198.5v-22q0 -133 60.5 -196t188.5 -63q59 0 106 11v203h-135q-20 0 -20 20v39q0 20 20 20h211
q20 0 20 -20v-284q0 -16 -4.5 -23.5t-17.5 -13.5q-84 -38 -200 -38zM394 766q-67 0 -105.5 30t-38.5 81q0 12 4.5 17t15.5 5h28q10 0 14.5 -4t5.5 -13q9 -50 76 -50t76 50q1 9 5.5 13t14.5 4h28q11 0 15.5 -5t4.5 -17q0 -51 -38.5 -81t-105.5 -30z" />
    <glyph glyph-name="gbreve" unicode="&#x11f;" horiz-adv-x="580" 
d="M262 -218q-82 0 -153 30q-12 5 -16 11t-4 19v29q0 18 12 18q6 0 14.5 -3t23.5 -7q62 -17 115 -17q80 0 117 38.5t37 123.5v45q-34 -29 -73 -44.5t-79 -15.5q-64 0 -111 32t-72 89t-25 131q0 120 57 190.5t153 70.5q90 0 157 -62l5 28q2 11 7.5 15t15.5 4h43q20 0 20 -20
v-456q0 -119 -63.5 -184t-180.5 -65zM285 89q62 0 123 46v263q-30 23 -61 33.5t-68 10.5q-130 0 -130 -177q0 -87 34.5 -131.5t101.5 -44.5zM294 599q-67 0 -105.5 33t-38.5 90v6q0 22 16 22h34q16 0 17 -17l1 -8q4 -31 22.5 -46t53.5 -15t53.5 15t22.5 46l1 8q1 17 17 17
h34q9 0 12.5 -4.5t3.5 -17.5v-6q0 -57 -38.5 -90t-105.5 -33z" />
    <glyph glyph-name="Gdotaccent" unicode="&#x120;" horiz-adv-x="692" 
d="M398 -12q-164 0 -249 90t-85 264q0 176 87 268.5t252 92.5q93 0 172 -32q12 -5 16.5 -11.5t4.5 -18.5v-35q0 -19 -14 -19q-7 0 -29 7q-73 23 -139 23q-127 0 -186 -63.5t-59 -198.5v-22q0 -133 60.5 -196t188.5 -63q59 0 106 11v203h-135q-20 0 -20 20v39q0 20 20 20h211
q20 0 20 -20v-284q0 -16 -4.5 -23.5t-17.5 -13.5q-84 -38 -200 -38zM394 779q-30 0 -46.5 16.5t-16.5 44.5t16.5 44.5t46.5 16.5t46.5 -16.5t16.5 -44.5t-16.5 -44.5t-46.5 -16.5z" />
    <glyph glyph-name="gdotaccent" unicode="&#x121;" horiz-adv-x="580" 
d="M262 -218q-82 0 -153 30q-12 5 -16 11t-4 19v29q0 18 12 18q6 0 14.5 -3t23.5 -7q62 -17 115 -17q80 0 117 38.5t37 123.5v45q-34 -29 -73 -44.5t-79 -15.5q-64 0 -111 32t-72 89t-25 131q0 120 57 190.5t153 70.5q90 0 157 -62l5 28q2 11 7.5 15t15.5 4h43q20 0 20 -20
v-456q0 -119 -63.5 -184t-180.5 -65zM285 89q62 0 123 46v263q-30 23 -61 33.5t-68 10.5q-130 0 -130 -177q0 -87 34.5 -131.5t101.5 -44.5zM294 597q-29 0 -45.5 16.5t-16.5 43.5t16.5 43.5t45.5 16.5t45.5 -16.5t16.5 -43.5t-16.5 -43.5t-45.5 -16.5z" />
    <glyph glyph-name="uni0122" unicode="&#x122;" horiz-adv-x="692" 
d="M398 -12q-164 0 -249 90t-85 264q0 176 87 268.5t252 92.5q93 0 172 -32q12 -5 16.5 -11.5t4.5 -18.5v-35q0 -19 -14 -19q-7 0 -29 7q-73 23 -139 23q-127 0 -186 -63.5t-59 -198.5v-22q0 -133 60.5 -196t188.5 -63q59 0 106 11v203h-135q-20 0 -20 20v39q0 20 20 20h211
q20 0 20 -20v-284q0 -16 -4.5 -23.5t-17.5 -13.5q-84 -38 -200 -38zM335 -278q-14 0 -14 14q0 5 2 17l27 164q3 18 20 18h19q54 0 54 -34q0 -12 -17 -58l-39 -107q-6 -14 -21 -14h-31z" />
    <glyph glyph-name="uni0123" unicode="&#x123;" horiz-adv-x="580" 
d="M262 -218q-82 0 -153 30q-12 5 -16 11t-4 19v29q0 18 12 18q6 0 14.5 -3t23.5 -7q62 -17 115 -17q80 0 117 38.5t37 123.5v45q-34 -29 -73 -44.5t-79 -15.5q-64 0 -111 32t-72 89t-25 131q0 120 57 190.5t153 70.5q90 0 157 -62l5 28q2 11 7.5 15t15.5 4h43q20 0 20 -20
v-456q0 -119 -63.5 -184t-180.5 -65zM285 89q62 0 123 46v263q-30 23 -61 33.5t-68 10.5q-130 0 -130 -177q0 -87 34.5 -131.5t101.5 -44.5zM299 588q-54 0 -54 34q0 14 16 58l39 114q6 14 21 14h30q14 0 14 -14q0 -5 -2 -17l-28 -171q-3 -18 -20 -18h-16z" />
    <glyph glyph-name="Hcircumflex" unicode="&#x124;" horiz-adv-x="718" 
d="M104 0q-20 0 -20 20v653q0 20 20 20h62q20 0 20 -20v-278h346v278q0 20 20 20h62q20 0 20 -20v-653q0 -20 -20 -20h-62q-20 0 -20 20v292h-346v-292q0 -20 -20 -20h-62zM206 769q-16 0 -16 12q0 7 10 17l86 85q13 13 20 17t18 4h70q11 0 18 -4t20 -17l86 -85
q10 -10 10 -17q0 -12 -16 -12h-46q-19 0 -35 15l-72 65l-72 -65q-16 -15 -35 -15h-46z" />
    <glyph glyph-name="hcircumflex" unicode="&#x125;" horiz-adv-x="588" 
d="M94 0q-20 0 -20 20v700q0 20 20 20h59q20 0 20 -20v-265q95 67 194 67q73 0 111 -38.5t38 -111.5v-352q0 -20 -20 -20h-59q-20 0 -20 20v319q0 53 -21.5 78t-67.5 25q-79 0 -155 -51v-371q0 -20 -20 -20h-59zM-30 789q-16 0 -16 12q0 7 10 17l86 85q13 13 20 17t18 4h70
q11 0 18 -4t20 -17l86 -85q10 -10 10 -17q0 -12 -16 -12h-46q-19 0 -35 15l-72 65l-72 -65q-16 -15 -35 -15h-46z" />
    <glyph glyph-name="Hbar" unicode="&#x126;" horiz-adv-x="738" 
d="M114 0q-20 0 -20 20v481h-63q-17 0 -17 17v37q0 17 17 17h63v101q0 20 20 20h62q20 0 20 -20v-101h346v101q0 20 20 20h62q20 0 20 -20v-101h63q17 0 17 -17v-37q0 -17 -17 -17h-63v-481q0 -20 -20 -20h-62q-20 0 -20 20v292h-346v-292q0 -20 -20 -20h-62zM542 395v106
h-346v-106h346z" />
    <glyph glyph-name="hbar" unicode="&#x127;" horiz-adv-x="588" 
d="M94 0q-20 0 -20 20v572h-53q-17 0 -17 17v35q0 17 17 17h53v59q0 20 20 20h59q20 0 20 -20v-59h163q17 0 17 -17v-35q0 -17 -17 -17h-163v-137q95 67 194 67q73 0 111 -38.5t38 -111.5v-352q0 -20 -20 -20h-59q-20 0 -20 20v319q0 53 -21.5 78t-67.5 25q-79 0 -155 -51
v-371q0 -20 -20 -20h-59z" />
    <glyph glyph-name="Itilde" unicode="&#x128;" horiz-adv-x="278" 
d="M108 0q-20 0 -20 20v653q0 20 20 20h62q20 0 20 -20v-653q0 -20 -20 -20h-62zM209 769q-48 0 -86 37q-20 18 -31 24.5t-24 6.5q-14 0 -20.5 -8.5t-8.5 -29.5l-1 -12q-1 -8 -4.5 -11.5t-13.5 -3.5h-28q-11 0 -15 5.5t-4 21.5v5q0 44 26 69.5t70 25.5q48 0 86 -37
q20 -18 31 -24.5t24 -6.5q14 0 20.5 8.5t8.5 29.5l1 12q1 8 4.5 11.5t13.5 3.5h28q11 0 15 -5.5t4 -21.5v-5q0 -44 -26 -69.5t-70 -25.5z" />
    <glyph glyph-name="itilde" unicode="&#x129;" horiz-adv-x="255" 
d="M98 0q-20 0 -20 20v467q0 20 20 20h59q20 0 20 -20v-467q0 -20 -20 -20h-59zM197 603q-48 0 -86 37q-22 20 -32.5 26.5t-22.5 6.5q-15 0 -22 -10t-8 -30l-1 -12q-1 -15 -17 -15h-28q-11 0 -15 6t-4 21v5q0 44 26 69.5t70 25.5q48 0 86 -37q22 -20 32.5 -26.5t22.5 -6.5
q15 0 22 10t8 30l1 12q1 15 18 15h27q11 0 15 -6t4 -21v-5q0 -44 -26 -69.5t-70 -25.5z" />
    <glyph glyph-name="Imacron" unicode="&#x12a;" horiz-adv-x="278" 
d="M108 0q-20 0 -20 20v653q0 20 20 20h62q20 0 20 -20v-653q0 -20 -20 -20h-62zM-5 799q-17 0 -17 17v34q0 17 17 17h288q17 0 17 -17v-34q0 -17 -17 -17h-288z" />
    <glyph glyph-name="imacron" unicode="&#x12b;" horiz-adv-x="255" 
d="M98 0q-20 0 -20 20v467q0 20 20 20h59q20 0 20 -20v-467q0 -20 -20 -20h-59zM-17 636q-17 0 -17 17v31q0 17 17 17h288q17 0 17 -17v-31q0 -17 -17 -17h-288z" />
    <glyph glyph-name="Ibreve" unicode="&#x12c;" horiz-adv-x="278" 
d="M108 0q-20 0 -20 20v653q0 20 20 20h62q20 0 20 -20v-653q0 -20 -20 -20h-62zM139 766q-67 0 -105.5 30t-38.5 81q0 12 4.5 17t15.5 5h28q10 0 14.5 -4t5.5 -13q9 -50 76 -50t76 50q1 9 5.5 13t14.5 4h28q11 0 15.5 -5t4.5 -17q0 -51 -38.5 -81t-105.5 -30z" />
    <glyph glyph-name="ibreve" unicode="&#x12d;" horiz-adv-x="255" 
d="M98 0q-20 0 -20 20v467q0 20 20 20h59q20 0 20 -20v-467q0 -20 -20 -20h-59zM127 599q-67 0 -105.5 33t-38.5 90v6q0 22 16 22h34q16 0 17 -17l1 -8q4 -31 22.5 -46t53.5 -15t53.5 15t22.5 46l1 8q1 17 17 17h34q9 0 12.5 -4.5t3.5 -17.5v-6q0 -57 -38.5 -90t-105.5 -33z
" />
    <glyph glyph-name="Iogonek" unicode="&#x12e;" horiz-adv-x="278" 
d="M132 -224q-51 0 -79.5 22.5t-28.5 63.5q0 37 22.5 72t65.5 66h-4q-20 0 -20 20v653q0 20 20 20h62q20 0 20 -20v-657q-1 -10 -3.5 -15t-10.5 -12q-71 -61 -71 -112q0 -38 52 -38q10 0 18.5 1.5t12.5 1.5q13 0 13 -15v-24q0 -10 -3 -14t-12 -7q-16 -6 -54 -6z" />
    <glyph glyph-name="iogonek" unicode="&#x12f;" horiz-adv-x="255" 
d="M123 -224q-53 0 -81.5 22.5t-28.5 63.5q0 37 22.5 72.5t65.5 65.5h-4q-10 0 -14.5 4.5t-4.5 15.5v467q0 20 20 20h59q20 0 20 -20v-471q0 -10 -3 -15t-11 -12q-34 -28 -52.5 -57.5t-18.5 -55.5q0 -39 55 -39q10 0 18 1.5t12 1.5q13 0 13 -15v-22q0 -10 -3 -14t-12 -7
q-19 -6 -52 -6zM128 597q-29 0 -45.5 16.5t-16.5 43.5t16.5 43.5t45.5 16.5t45.5 -16.5t16.5 -43.5t-16.5 -43.5t-45.5 -16.5z" />
    <glyph glyph-name="Idotaccent" unicode="&#x130;" horiz-adv-x="278" 
d="M108 0q-20 0 -20 20v653q0 20 20 20h62q20 0 20 -20v-653q0 -20 -20 -20h-62zM139 779q-30 0 -46.5 16.5t-16.5 44.5t16.5 44.5t46.5 16.5t46.5 -16.5t16.5 -44.5t-16.5 -44.5t-46.5 -16.5z" />
    <glyph glyph-name="dotlessi" unicode="&#x131;" horiz-adv-x="255" 
d="M98 0q-20 0 -20 20v467q0 20 20 20h59q20 0 20 -20v-467q0 -20 -20 -20h-59z" />
    <glyph glyph-name="IJ" unicode="&#x132;" horiz-adv-x="694" 
d="M108 0q-20 0 -20 20v653q0 20 20 20h62q20 0 20 -20v-653q0 -20 -20 -20h-62zM405 -17q-49 0 -102 18q-11 4 -15.5 10t-4.5 20v34q0 19 14 19q7 0 24 -5q41 -10 75 -10q62 0 89 31.5t27 103.5v469q0 20 20 20h62q20 0 20 -20v-467q0 -223 -209 -223z" />
    <glyph glyph-name="ij" unicode="&#x133;" horiz-adv-x="510" 
d="M98 0q-20 0 -20 20v467q0 20 20 20h59q20 0 20 -20v-467q0 -20 -20 -20h-59zM128 597q-29 0 -45.5 16.5t-16.5 43.5t16.5 43.5t45.5 16.5t45.5 -16.5t16.5 -43.5t-16.5 -43.5t-45.5 -16.5zM306 -218q-37 0 -65 7q-11 3 -15.5 9.5t-4.5 20.5v27q0 19 15 19q5 0 17 -1.5
t27 -1.5q28 0 40.5 10.5t12.5 34.5v580q0 20 20 20h59q20 0 20 -20v-572q0 -65 -32 -99t-94 -34zM383 597q-29 0 -45.5 16.5t-16.5 43.5t16.5 43.5t45.5 16.5t45.5 -16.5t16.5 -43.5t-16.5 -43.5t-45.5 -16.5z" />
    <glyph glyph-name="Jcircumflex" unicode="&#x134;" horiz-adv-x="437" 
d="M148 -17q-49 0 -102 18q-11 4 -15.5 10t-4.5 20v34q0 19 14 19q7 0 24 -5q41 -10 75 -10q62 0 89 31.5t27 103.5v469q0 20 20 20h62q20 0 20 -20v-467q0 -223 -209 -223zM153 769q-16 0 -16 12q0 7 10 17l86 85q13 13 20 17t18 4h70q11 0 18 -4t20 -17l86 -85
q10 -10 10 -17q0 -12 -16 -12h-46q-19 0 -35 15l-72 65l-72 -65q-16 -15 -35 -15h-46z" />
    <glyph glyph-name="jcircumflex" unicode="&#x135;" horiz-adv-x="255" 
d="M51 -218q-37 0 -65 7q-11 3 -15.5 9.5t-4.5 20.5v27q0 19 15 19q5 0 17 -1.5t27 -1.5q28 0 40.5 10.5t12.5 34.5v580q0 20 20 20h59q20 0 20 -20v-572q0 -65 -32 -99t-94 -34zM-24 601q-16 0 -16 12q0 7 10 19l89 108q12 14 18.5 18t17.5 4h64q11 0 17.5 -4t18.5 -18
l89 -108q10 -12 10 -19q0 -12 -16 -12h-36q-10 0 -18 4.5t-20 16.5l-77 82l-77 -82q-12 -12 -20 -16.5t-18 -4.5h-36z" />
    <glyph glyph-name="uni0136" unicode="&#x136;" horiz-adv-x="617" 
d="M104 0q-20 0 -20 20v653q0 20 20 20h62q20 0 20 -20v-290l273 295q8 9 16.5 12t23.5 3h65q14 0 14 -12q0 -7 -9 -16l-286 -303l313 -334q9 -9 9 -16q0 -12 -14 -12h-68q-16 0 -25 3t-17 12l-295 316v-311q0 -20 -20 -20h-62zM271 -278q-14 0 -14 14q0 5 2 17l27 164
q3 18 20 18h19q54 0 54 -34q0 -12 -17 -58l-39 -107q-6 -14 -21 -14h-31z" />
    <glyph glyph-name="uni0137" unicode="&#x137;" horiz-adv-x="526" 
d="M94 0q-20 0 -20 20v700q0 20 20 20h59q20 0 20 -20v-434l206 208q8 8 15.5 10.5t19.5 2.5h64q15 0 15 -12q0 -8 -8 -16l-216 -213l233 -238q8 -8 8 -16q0 -12 -15 -12h-70q-23 0 -35 14l-217 226v-220q0 -20 -20 -20h-59zM217 -278q-14 0 -14 14q0 5 2 17l27 164
q3 18 20 18h16q54 0 54 -34q0 -15 -16 -58l-38 -107q-6 -14 -21 -14h-30z" />
    <glyph glyph-name="kgreenlandic" unicode="&#x138;" horiz-adv-x="526" 
d="M94 0q-20 0 -20 20v467q0 20 20 20h59q20 0 20 -20v-212l205 219q8 8 15.5 10.5t19.5 2.5h64q15 0 15 -12q0 -8 -8 -16l-215 -221l231 -230q8 -8 8 -16q0 -12 -15 -12h-70q-21 0 -35 14l-215 215v-209q0 -20 -20 -20h-59z" />
    <glyph glyph-name="Lacute" unicode="&#x139;" horiz-adv-x="524" 
d="M104 0q-20 0 -20 20v653q0 20 20 20h62q20 0 20 -20v-589h307q20 0 20 -20v-44q0 -20 -20 -20h-389zM116 769q-15 0 -15 12q0 5 11 17l59 72q11 14 19 18t20 4h67q13 0 13 -11q0 -4 -2.5 -8t-10.5 -11l-79 -73q-13 -11 -22 -15.5t-19 -4.5h-41z" />
    <glyph glyph-name="lacute" unicode="&#x13a;" horiz-adv-x="285" 
d="M183 -5q-53 0 -81 30.5t-28 87.5v607q0 20 20 20h59q20 0 20 -20v-601q0 -23 9.5 -33.5t31.5 -10.5q6 0 12.5 1t11.5 1q10 0 13.5 -5t3.5 -15v-32q0 -10 -4.5 -15.5t-15.5 -8.5q-25 -6 -52 -6zM104 789q-15 0 -15 12q0 5 11 17l59 72q11 14 19 18t20 4h67q13 0 13 -11
q0 -4 -2.5 -8t-10.5 -11l-79 -73q-13 -11 -22 -15.5t-19 -4.5h-41z" />
    <glyph glyph-name="uni013B" unicode="&#x13b;" horiz-adv-x="524" 
d="M104 0q-20 0 -20 20v653q0 20 20 20h62q20 0 20 -20v-589h307q20 0 20 -20v-44q0 -20 -20 -20h-389zM237 -278q-14 0 -14 14q0 5 2 17l27 164q3 18 20 18h19q54 0 54 -34q0 -12 -17 -58l-39 -107q-6 -14 -21 -14h-31z" />
    <glyph glyph-name="uni013C" unicode="&#x13c;" horiz-adv-x="285" 
d="M183 -5q-53 0 -81 30.5t-28 87.5v607q0 20 20 20h59q20 0 20 -20v-601q0 -23 9.5 -33.5t31.5 -10.5q6 0 12.5 1t11.5 1q10 0 13.5 -5t3.5 -15v-32q0 -10 -4.5 -15.5t-15.5 -8.5q-25 -6 -52 -6zM111 -278q-14 0 -14 14q0 5 2 17l27 164q3 18 20 18h16q54 0 54 -34
q0 -15 -16 -58l-38 -107q-6 -14 -21 -14h-30z" />
    <glyph glyph-name="Lcaron" unicode="&#x13d;" horiz-adv-x="524" 
d="M104 0q-20 0 -20 20v653q0 20 20 20h62q20 0 20 -20v-589h307q20 0 20 -20v-44q0 -20 -20 -20h-389zM305 524q-9 0 -12.5 3.5t-4.5 13.5v165q0 18 15 21q16 4 32 4q19 0 33 -5q15 -6 15 -21q0 -8 -7 -44l-21 -120q-1 -10 -5.5 -13.5t-12.5 -3.5h-32z" />
    <glyph glyph-name="lcaron" unicode="&#x13e;" horiz-adv-x="312" 
d="M183 -5q-53 0 -81 30.5t-28 87.5v607q0 20 20 20h59q20 0 20 -20v-601q0 -23 9.5 -33.5t31.5 -10.5q6 0 12.5 1t11.5 1q10 0 13.5 -5t3.5 -15v-32q0 -10 -4.5 -15.5t-15.5 -8.5q-25 -6 -52 -6zM265 545q-9 0 -12.5 3.5t-4.5 13.5v165q0 18 15 21q16 4 32 4q19 0 33 -5
q15 -6 15 -21q0 -8 -7 -44l-21 -120q-1 -10 -5.5 -13.5t-12.5 -3.5h-32z" />
    <glyph glyph-name="Ldot" unicode="&#x13f;" horiz-adv-x="524" 
d="M104 0q-20 0 -20 20v653q0 20 20 20h62q20 0 20 -20v-589h307q20 0 20 -20v-44q0 -20 -20 -20h-389zM389 319q-26 0 -43 16t-17 42q0 25 17 41.5t43 16.5t43 -16.5t17 -41.5q0 -26 -17 -42t-43 -16z" />
    <glyph glyph-name="ldot" unicode="&#x140;" horiz-adv-x="375" 
d="M183 -5q-53 0 -81 30.5t-28 87.5v607q0 20 20 20h59q20 0 20 -20v-601q0 -23 9.5 -33.5t31.5 -10.5q6 0 12.5 1t11.5 1q10 0 13.5 -5t3.5 -15v-32q0 -10 -4.5 -15.5t-15.5 -8.5q-25 -6 -52 -6zM312 308q-26 0 -43 16t-17 42q0 25 17 41.5t43 16.5t43 -16.5t17 -41.5
q0 -26 -17 -42t-43 -16z" />
    <glyph glyph-name="Lslash" unicode="&#x141;" horiz-adv-x="544" 
d="M124 0q-20 0 -20 20v231l-53 -31q-19 -12 -26 -12q-11 0 -11 13v37q0 12 4.5 18.5t19.5 14.5l66 39v343q0 20 20 20h62q20 0 20 -20v-283l147 88q20 12 26 12q11 0 11 -13v-38q0 -12 -4.5 -18t-20.5 -15l-159 -94v-228h307q20 0 20 -20v-44q0 -20 -20 -20h-389z" />
    <glyph glyph-name="lslash" unicode="&#x142;" horiz-adv-x="324" 
d="M203 -5q-53 0 -81 30.5t-28 87.5v189l-45 -28q-19 -12 -26 -12q-11 0 -11 13v32q0 12 4.5 18t19.5 15l58 35v345q0 20 20 20h59q20 0 20 -20v-284l55 33q22 13 26 13q11 0 11 -13v-34q0 -11 -4 -16.5t-21 -16.5l-67 -42v-241q0 -23 9.5 -33.5t31.5 -10.5q6 0 12.5 1
t11.5 1q10 0 13.5 -5t3.5 -15v-32q0 -10 -4.5 -15.5t-15.5 -8.5q-25 -6 -52 -6z" />
    <glyph glyph-name="Nacute" unicode="&#x143;" horiz-adv-x="714" 
d="M104 0q-20 0 -20 20v653q0 20 20 20h64q28 0 38 -18l330 -536v534q0 20 20 20h54q20 0 20 -20v-653q0 -20 -20 -20h-65q-27 0 -38 18l-329 533v-531q0 -20 -20 -20h-54zM346 769q-15 0 -15 12q0 5 11 17l59 72q11 14 19 18t20 4h67q13 0 13 -11q0 -4 -2.5 -8t-10.5 -11
l-79 -73q-13 -11 -22 -15.5t-19 -4.5h-41z" />
    <glyph glyph-name="nacute" unicode="&#x144;" horiz-adv-x="588" 
d="M94 0q-20 0 -20 20v467q0 20 20 20h44q10 0 15.5 -4t7.5 -15l6 -37q95 71 200 71q73 0 111 -38.5t38 -111.5v-352q0 -20 -20 -20h-59q-20 0 -20 20v319q0 53 -21.5 78t-67.5 25q-79 0 -155 -51v-371q0 -20 -20 -20h-59zM290 601q-7 0 -11 3.5t-4 8.5q0 7 7 18l64 106
q8 14 15.5 19t21.5 5h64q6 0 10 -3.5t4 -8.5q0 -8 -10 -19l-89 -108q-10 -12 -17.5 -16.5t-21.5 -4.5h-33z" />
    <glyph glyph-name="uni0145" unicode="&#x145;" horiz-adv-x="714" 
d="M104 0q-20 0 -20 20v653q0 20 20 20h64q28 0 38 -18l330 -536v534q0 20 20 20h54q20 0 20 -20v-653q0 -20 -20 -20h-65q-27 0 -38 18l-329 533v-531q0 -20 -20 -20h-54zM287 -278q-14 0 -14 14q0 5 2 17l27 164q3 18 20 18h19q54 0 54 -34q0 -12 -17 -58l-39 -107
q-6 -14 -21 -14h-31z" />
    <glyph glyph-name="uni0146" unicode="&#x146;" horiz-adv-x="588" 
d="M94 0q-20 0 -20 20v467q0 20 20 20h44q10 0 15.5 -4t7.5 -15l6 -37q95 71 200 71q73 0 111 -38.5t38 -111.5v-352q0 -20 -20 -20h-59q-20 0 -20 20v319q0 53 -21.5 78t-67.5 25q-79 0 -155 -51v-371q0 -20 -20 -20h-59zM235 -278q-14 0 -14 14q0 5 2 17l27 164
q3 18 20 18h16q54 0 54 -34q0 -15 -16 -58l-38 -107q-6 -14 -21 -14h-30z" />
    <glyph glyph-name="Ncaron" unicode="&#x147;" horiz-adv-x="714" 
d="M104 0q-20 0 -20 20v653q0 20 20 20h64q28 0 38 -18l330 -536v534q0 20 20 20h54q20 0 20 -20v-653q0 -20 -20 -20h-65q-27 0 -38 18l-329 533v-531q0 -20 -20 -20h-54zM335 769q-19 0 -35 15l-91 90q-8 7 -10.5 11t-2.5 8q0 11 13 11h62q11 0 16.5 -3t18.5 -18l59 -69
l59 69q13 15 18.5 18t16.5 3h62q13 0 13 -11q0 -4 -2.5 -8t-10.5 -11l-91 -90q-16 -15 -35 -15h-60z" />
    <glyph glyph-name="ncaron" unicode="&#x148;" horiz-adv-x="588" 
d="M94 0q-20 0 -20 20v467q0 20 20 20h44q10 0 15.5 -4t7.5 -15l6 -37q95 71 200 71q73 0 111 -38.5t38 -111.5v-352q0 -20 -20 -20h-59q-20 0 -20 20v319q0 53 -21.5 78t-67.5 25q-79 0 -155 -51v-371q0 -20 -20 -20h-59zM279 601q-12 0 -20 4.5t-18 16.5l-91 109
q-12 15 -12 21q0 10 13 10h55q12 0 18 -4t16 -18l67 -91l67 91q10 14 16 18t18 4h55q13 0 13 -10q0 -6 -12 -21l-91 -109q-10 -12 -18 -16.5t-20 -4.5h-56z" />
    <glyph glyph-name="napostrophe" unicode="&#x149;" horiz-adv-x="750" 
d="M256 0q-20 0 -20 20v467q0 20 20 20h44q10 0 15.5 -4t7.5 -15l6 -37q95 71 200 71q73 0 111 -38.5t38 -111.5v-352q0 -20 -20 -20h-59q-20 0 -20 20v319q0 53 -21.5 78t-67.5 25q-79 0 -155 -51v-371q0 -20 -20 -20h-59zM73 440q-16 0 -16 13q0 4 4 26l32 196q3 18 21 18
h15q34 0 48.5 -8.5t14.5 -28.5q0 -18 -13 -55l-49 -144q-3 -9 -8 -13t-15 -4h-34z" />
    <glyph glyph-name="Eng" unicode="&#x14a;" horiz-adv-x="714" 
d="M421 -218q-49 0 -102 18q-12 4 -16 10t-4 20v34q0 19 14 19q7 0 24 -5q39 -10 75 -10q61 0 89 28.5t29 93.5v8l-352 551v-529q0 -20 -20 -20h-54q-20 0 -20 20v653q0 20 20 20h64q28 0 38 -18l330 -526v524q0 20 20 20h54q20 0 20 -20v-668q0 -223 -209 -223z" />
    <glyph glyph-name="eng" unicode="&#x14b;" horiz-adv-x="588" 
d="M355 -218q-39 0 -73 10q-11 3 -15.5 9.5t-4.5 20.5v24q0 19 15 19q2 0 6 -0.5t10 -1.5q23 -3 40 -3q48 0 66 20t18 74v385q0 53 -21.5 78t-67.5 25q-79 0 -155 -51v-371q0 -20 -20 -20h-59q-20 0 -20 20v467q0 20 20 20h44q10 0 15.5 -4t7.5 -15l6 -37q95 71 200 71
q73 0 111 -38.5t38 -111.5v-412q0 -90 -39.5 -134t-121.5 -44z" />
    <glyph glyph-name="Omacron" unicode="&#x14c;" horiz-adv-x="777" 
d="M389 69q107 0 163 71t56 206t-56 205.5t-163 70.5q-108 0 -164 -70.5t-56 -205.5q0 -136 56.5 -206.5t163.5 -70.5zM389 -17q-102 0 -175.5 44.5t-111.5 126t-38 192.5q0 113 39.5 195t112.5 124.5t173 42.5q151 0 237.5 -96.5t86.5 -265.5q0 -114 -39.5 -195.5
t-112.5 -124.5t-172 -43zM245 799q-17 0 -17 17v34q0 17 17 17h288q17 0 17 -17v-34q0 -17 -17 -17h-288z" />
    <glyph glyph-name="omacron" unicode="&#x14d;" horiz-adv-x="580" 
d="M290 -15q-114 0 -178 71t-64 198q0 126 64 197t178 71t178 -71t64 -197q0 -127 -64 -198t-178 -71zM290 65q141 0 141 189q0 188 -141 188t-141 -188q0 -189 141 -189zM146 636q-17 0 -17 17v31q0 17 17 17h288q17 0 17 -17v-31q0 -17 -17 -17h-288z" />
    <glyph glyph-name="Obreve" unicode="&#x14e;" horiz-adv-x="777" 
d="M389 69q107 0 163 71t56 206t-56 205.5t-163 70.5q-108 0 -164 -70.5t-56 -205.5q0 -136 56.5 -206.5t163.5 -70.5zM389 -17q-102 0 -175.5 44.5t-111.5 126t-38 192.5q0 113 39.5 195t112.5 124.5t173 42.5q151 0 237.5 -96.5t86.5 -265.5q0 -114 -39.5 -195.5
t-112.5 -124.5t-172 -43zM389 766q-67 0 -105.5 30t-38.5 81q0 12 4.5 17t15.5 5h28q10 0 14.5 -4t5.5 -13q9 -50 76 -50t76 50q1 9 5.5 13t14.5 4h28q11 0 15.5 -5t4.5 -17q0 -51 -38.5 -81t-105.5 -30z" />
    <glyph glyph-name="obreve" unicode="&#x14f;" horiz-adv-x="580" 
d="M290 -15q-114 0 -178 71t-64 198q0 126 64 197t178 71t178 -71t64 -197q0 -127 -64 -198t-178 -71zM290 65q141 0 141 189q0 188 -141 188t-141 -188q0 -189 141 -189zM290 599q-67 0 -105.5 33t-38.5 90v6q0 22 16 22h34q16 0 17 -17l1 -8q4 -31 22.5 -46t53.5 -15
t53.5 15t22.5 46l1 8q1 17 17 17h34q9 0 12.5 -4.5t3.5 -17.5v-6q0 -57 -38.5 -90t-105.5 -33z" />
    <glyph glyph-name="Ohungarumlaut" unicode="&#x150;" horiz-adv-x="777" 
d="M389 69q107 0 163 71t56 206t-56 205.5t-163 70.5q-108 0 -164 -70.5t-56 -205.5q0 -136 56.5 -206.5t163.5 -70.5zM389 -17q-102 0 -175.5 44.5t-111.5 126t-38 192.5q0 113 39.5 195t112.5 124.5t173 42.5q151 0 237.5 -96.5t86.5 -265.5q0 -114 -39.5 -195.5
t-112.5 -124.5t-172 -43zM279 769q-15 0 -15 12q0 5 11 17l60 73q10 13 16.5 17t18.5 4h70q13 0 13 -11q0 -4 -2.5 -8t-10.5 -11l-85 -78q-11 -10 -16 -12.5t-14 -2.5h-46zM459 769q-15 0 -15 12q0 5 11 17l60 73q11 14 17 17.5t18 3.5h70q13 0 13 -11q0 -4 -2.5 -8
t-10.5 -11l-85 -78q-10 -9 -15.5 -12t-14.5 -3h-46z" />
    <glyph glyph-name="ohungarumlaut" unicode="&#x151;" horiz-adv-x="580" 
d="M290 -15q-114 0 -178 71t-64 198q0 126 64 197t178 71t178 -71t64 -197q0 -127 -64 -198t-178 -71zM290 65q141 0 141 189q0 188 -141 188t-141 -188q0 -189 141 -189zM174 601q-15 0 -15 12q0 3 8 18l65 108q8 13 14.5 17.5t19.5 4.5h69q13 0 13 -10q0 -6 -12 -21
l-89 -108q-12 -14 -17.5 -17.5t-15.5 -3.5h-40zM359 601q-15 0 -15 12q0 3 8 18l65 108q8 13 14.5 17.5t19.5 4.5h69q13 0 13 -10q0 -6 -12 -21l-89 -108q-12 -14 -17.5 -17.5t-15.5 -3.5h-40z" />
    <glyph glyph-name="OE" unicode="&#x152;" horiz-adv-x="1065" 
d="M377 -17q-98 0 -168.5 45t-107.5 127t-37 191q0 113 39 194.5t109.5 124.5t164.5 43q70 0 126.5 -28t94.5 -82v75q0 20 20 20h381q20 0 20 -20v-42q0 -20 -20 -20h-305v-213h252q20 0 20 -20v-42q0 -20 -20 -20h-252v-234h305q20 0 20 -20v-42q0 -20 -20 -20h-381
q-20 0 -20 20v73q-38 -54 -94.5 -82t-126.5 -28zM384 69q104 0 159 71.5t55 205.5t-55 205t-159 71q-105 0 -160 -70.5t-55 -205.5q0 -136 55 -206.5t160 -70.5z" />
    <glyph glyph-name="oe" unicode="&#x153;" horiz-adv-x="906" 
d="M291 65q136 0 136 189q0 188 -136 188q-142 0 -142 -188q0 -189 142 -189zM773 298v26q0 61 -28 92t-83 31q-64 0 -99.5 -38t-39.5 -111h250zM285 -15q-111 0 -174 71t-63 198q0 126 63 197t174 71q68 0 116 -29t74 -85q26 56 74.5 85t117.5 29q93 0 143.5 -53t50.5 -152
q0 -32 -5 -65q-2 -12 -6.5 -16t-14.5 -4h-312q2 -86 42.5 -127t124.5 -41q30 0 57.5 4t69.5 17q7 2 12 3.5t9 1.5q13 0 13 -18v-28q0 -13 -4 -18.5t-17 -11.5q-65 -29 -152 -29q-151 0 -204 114q-51 -114 -189 -114z" />
    <glyph glyph-name="Racute" unicode="&#x154;" horiz-adv-x="613" 
d="M104 0q-20 0 -20 20v653q0 20 20 20h233q101 0 161 -55.5t60 -149.5q0 -69 -37.5 -119.5t-105.5 -73.5l165 -263q8 -12 8 -20q0 -5 -4 -8.5t-11 -3.5h-56q-17 0 -24.5 3t-12.5 12l-162 264h-135v-259q0 -20 -20 -20h-59zM324 360q64 0 97.5 32t33.5 95q0 62 -32 93.5
t-95 31.5h-145v-252h141zM279 769q-15 0 -15 12q0 5 11 17l59 72q11 14 19 18t20 4h67q13 0 13 -11q0 -4 -2.5 -8t-10.5 -11l-79 -73q-13 -11 -22 -15.5t-19 -4.5h-41z" />
    <glyph glyph-name="racute" unicode="&#x155;" horiz-adv-x="373" 
d="M94 0q-20 0 -20 20v467q0 20 20 20h44q10 0 15.5 -4t7.5 -15l7 -56q27 29 51 46t49.5 25t54.5 8q12 0 24 -1q17 -2 17 -18v-54q0 -18 -18 -18q-9 0 -17.5 1t-18.5 1q-80 0 -137 -48v-354q0 -20 -20 -20h-59zM204 601q-7 0 -11 3.5t-4 8.5q0 7 7 18l64 106q8 14 15.5 19
t21.5 5h64q6 0 10 -3.5t4 -8.5q0 -8 -10 -19l-89 -108q-10 -12 -17.5 -16.5t-21.5 -4.5h-33z" />
    <glyph glyph-name="uni0156" unicode="&#x156;" horiz-adv-x="613" 
d="M104 0q-20 0 -20 20v653q0 20 20 20h233q101 0 161 -55.5t60 -149.5q0 -69 -37.5 -119.5t-105.5 -73.5l165 -263q8 -12 8 -20q0 -5 -4 -8.5t-11 -3.5h-56q-17 0 -24.5 3t-12.5 12l-162 264h-135v-259q0 -20 -20 -20h-59zM324 360q64 0 97.5 32t33.5 95q0 62 -32 93.5
t-95 31.5h-145v-252h141zM266 -278q-14 0 -14 14q0 5 2 17l27 164q3 18 20 18h19q54 0 54 -34q0 -12 -17 -58l-39 -107q-6 -14 -21 -14h-31z" />
    <glyph glyph-name="uni0157" unicode="&#x157;" horiz-adv-x="373" 
d="M94 0q-20 0 -20 20v467q0 20 20 20h44q10 0 15.5 -4t7.5 -15l7 -56q27 29 51 46t49.5 25t54.5 8q12 0 24 -1q17 -2 17 -18v-54q0 -18 -18 -18q-9 0 -17.5 1t-18.5 1q-80 0 -137 -48v-354q0 -20 -20 -20h-59zM63 -278q-14 0 -14 14q0 5 2 17l27 164q3 18 20 18h16
q54 0 54 -34q0 -15 -16 -58l-38 -107q-6 -14 -21 -14h-30z" />
    <glyph glyph-name="Rcaron" unicode="&#x158;" horiz-adv-x="613" 
d="M104 0q-20 0 -20 20v653q0 20 20 20h233q101 0 161 -55.5t60 -149.5q0 -69 -37.5 -119.5t-105.5 -73.5l165 -263q8 -12 8 -20q0 -5 -4 -8.5t-11 -3.5h-56q-17 0 -24.5 3t-12.5 12l-162 264h-135v-259q0 -20 -20 -20h-59zM324 360q64 0 97.5 32t33.5 95q0 62 -32 93.5
t-95 31.5h-145v-252h141zM268 769q-19 0 -35 15l-91 90q-8 7 -10.5 11t-2.5 8q0 11 13 11h62q11 0 16.5 -3t18.5 -18l59 -69l59 69q13 15 18.5 18t16.5 3h62q13 0 13 -11q0 -4 -2.5 -8t-10.5 -11l-91 -90q-16 -15 -35 -15h-60z" />
    <glyph glyph-name="rcaron" unicode="&#x159;" horiz-adv-x="373" 
d="M94 0q-20 0 -20 20v467q0 20 20 20h44q10 0 15.5 -4t7.5 -15l7 -56q27 29 51 46t49.5 25t54.5 8q12 0 24 -1q17 -2 17 -18v-54q0 -18 -18 -18q-9 0 -17.5 1t-18.5 1q-80 0 -137 -48v-354q0 -20 -20 -20h-59zM193 601q-12 0 -20 4.5t-18 16.5l-91 109q-12 15 -12 21
q0 10 13 10h55q12 0 18 -4t16 -18l67 -91l67 91q10 14 16 18t18 4h55q13 0 13 -10q0 -6 -12 -21l-91 -109q-10 -12 -18 -16.5t-20 -4.5h-56z" />
    <glyph glyph-name="Sacute" unicode="&#x15a;" horiz-adv-x="570" 
d="M264 -17q-48 0 -96 8.5t-84 23.5q-12 5 -16 11t-4 19v36q0 19 15 19q6 0 28 -7q35 -11 77 -17.5t78 -6.5q71 0 111.5 31t40.5 84q0 37 -23.5 61.5t-79.5 46.5l-97 37q-82 31 -119 75t-37 111q0 58 30 102t82.5 67.5t119.5 23.5q83 0 165 -29q11 -4 15.5 -10t4.5 -20v-35
q0 -19 -14 -19q-5 0 -10 1t-19 5q-72 21 -135 21q-65 0 -100.5 -26.5t-35.5 -75.5q0 -40 24 -63.5t89 -47.5l91 -34q81 -30 116.5 -72.5t35.5 -109.5q0 -96 -68.5 -153t-184.5 -57zM269 769q-15 0 -15 12q0 5 11 17l59 72q11 14 19 18t20 4h67q13 0 13 -11q0 -4 -2.5 -8
t-10.5 -11l-79 -73q-13 -11 -22 -15.5t-19 -4.5h-41z" />
    <glyph glyph-name="sacute" unicode="&#x15b;" horiz-adv-x="432" 
d="M210 -15q-84 0 -151 28q-12 5 -16.5 11t-4.5 19v28q0 18 12 18q7 0 25 -6q66 -21 137 -21q49 0 74.5 19t25.5 55q0 24 -15.5 39t-56.5 30l-85 32q-111 41 -111 140q0 65 50.5 105t132.5 40q65 0 127 -23q12 -4 17 -10.5t5 -19.5v-27q0 -18 -13 -18q-7 0 -23 5
q-53 16 -108 16q-96 0 -96 -65q0 -26 16 -41t63 -33l78 -30q59 -23 85 -54.5t26 -81.5q0 -71 -53 -113t-141 -42zM203 601q-7 0 -11 3.5t-4 8.5q0 7 7 18l64 106q8 14 15.5 19t21.5 5h64q6 0 10 -3.5t4 -8.5q0 -8 -10 -19l-89 -108q-10 -12 -17.5 -16.5t-21.5 -4.5h-33z" />
    <glyph glyph-name="Scircumflex" unicode="&#x15c;" horiz-adv-x="570" 
d="M264 -17q-48 0 -96 8.5t-84 23.5q-12 5 -16 11t-4 19v36q0 19 15 19q6 0 28 -7q35 -11 77 -17.5t78 -6.5q71 0 111.5 31t40.5 84q0 37 -23.5 61.5t-79.5 46.5l-97 37q-82 31 -119 75t-37 111q0 58 30 102t82.5 67.5t119.5 23.5q83 0 165 -29q11 -4 15.5 -10t4.5 -20v-35
q0 -19 -14 -19q-5 0 -10 1t-19 5q-72 21 -135 21q-65 0 -100.5 -26.5t-35.5 -75.5q0 -40 24 -63.5t89 -47.5l91 -34q81 -30 116.5 -72.5t35.5 -109.5q0 -96 -68.5 -153t-184.5 -57zM135 769q-16 0 -16 12q0 7 10 17l86 85q13 13 20 17t18 4h70q11 0 18 -4t20 -17l86 -85
q10 -10 10 -17q0 -12 -16 -12h-46q-19 0 -35 15l-72 65l-72 -65q-16 -15 -35 -15h-46z" />
    <glyph glyph-name="scircumflex" unicode="&#x15d;" horiz-adv-x="432" 
d="M210 -15q-84 0 -151 28q-12 5 -16.5 11t-4.5 19v28q0 18 12 18q7 0 25 -6q66 -21 137 -21q49 0 74.5 19t25.5 55q0 24 -15.5 39t-56.5 30l-85 32q-111 41 -111 140q0 65 50.5 105t132.5 40q65 0 127 -23q12 -4 17 -10.5t5 -19.5v-27q0 -18 -13 -18q-7 0 -23 5
q-53 16 -108 16q-96 0 -96 -65q0 -26 16 -41t63 -33l78 -30q59 -23 85 -54.5t26 -81.5q0 -71 -53 -113t-141 -42zM69 601q-16 0 -16 12q0 7 10 19l89 108q12 14 18.5 18t17.5 4h64q11 0 17.5 -4t18.5 -18l89 -108q10 -12 10 -19q0 -12 -16 -12h-36q-10 0 -18 4.5t-20 16.5
l-77 82l-77 -82q-12 -12 -20 -16.5t-18 -4.5h-36z" />
    <glyph glyph-name="Scedilla" unicode="&#x15e;" horiz-adv-x="570" 
d="M264 -17q-48 0 -96 8.5t-84 23.5q-12 5 -16 11t-4 19v36q0 19 15 19q6 0 28 -7q35 -11 77 -17.5t78 -6.5q71 0 111.5 31t40.5 84q0 37 -23.5 61.5t-79.5 46.5l-97 37q-82 31 -119 75t-37 111q0 58 30 102t82.5 67.5t119.5 23.5q83 0 165 -29q11 -4 15.5 -10t4.5 -20v-35
q0 -19 -14 -19q-5 0 -10 1t-19 5q-72 21 -135 21q-65 0 -100.5 -26.5t-35.5 -75.5q0 -40 24 -63.5t89 -47.5l91 -34q81 -30 116.5 -72.5t35.5 -109.5q0 -96 -68.5 -153t-184.5 -57zM228 -276q-10 0 -17 7l-14 13q-7 7 -7 12q0 6 9 12q66 47 66 82q0 24 -36 24q-7 0 -13 -0.5
t-10 -0.5q-14 0 -14 16v23q0 17 15 20q22 5 46 5q42 0 66.5 -19.5t24.5 -52.5q0 -38 -25.5 -72.5t-75.5 -63.5q-8 -5 -15 -5z" />
    <glyph glyph-name="scedilla" unicode="&#x15f;" horiz-adv-x="432" 
d="M210 -15q-84 0 -151 28q-12 5 -16.5 11t-4.5 19v28q0 18 12 18q7 0 25 -6q66 -21 137 -21q49 0 74.5 19t25.5 55q0 24 -15.5 39t-56.5 30l-85 32q-111 41 -111 140q0 65 50.5 105t132.5 40q65 0 127 -23q12 -4 17 -10.5t5 -19.5v-27q0 -18 -13 -18q-7 0 -23 5
q-53 16 -108 16q-96 0 -96 -65q0 -26 16 -41t63 -33l78 -30q59 -23 85 -54.5t26 -81.5q0 -71 -53 -113t-141 -42zM172 -276q-10 0 -17 7l-12 11q-7 7 -7 12q0 6 9 12q66 49 66 84q0 26 -38 26q-7 0 -13 -0.5t-10 -0.5q-14 0 -14 16v21q0 17 15 20q22 5 46 5q42 0 66.5 -19.5
t24.5 -52.5q0 -38 -25.5 -72.5t-75.5 -63.5q-8 -5 -15 -5z" />
    <glyph glyph-name="Scaron" unicode="&#x160;" horiz-adv-x="570" 
d="M264 -17q-48 0 -96 8.5t-84 23.5q-12 5 -16 11t-4 19v36q0 19 15 19q6 0 28 -7q35 -11 77 -17.5t78 -6.5q71 0 111.5 31t40.5 84q0 37 -23.5 61.5t-79.5 46.5l-97 37q-82 31 -119 75t-37 111q0 58 30 102t82.5 67.5t119.5 23.5q83 0 165 -29q11 -4 15.5 -10t4.5 -20v-35
q0 -19 -14 -19q-5 0 -10 1t-19 5q-72 21 -135 21q-65 0 -100.5 -26.5t-35.5 -75.5q0 -40 24 -63.5t89 -47.5l91 -34q81 -30 116.5 -72.5t35.5 -109.5q0 -96 -68.5 -153t-184.5 -57zM258 769q-19 0 -35 15l-91 90q-8 7 -10.5 11t-2.5 8q0 11 13 11h62q11 0 16.5 -3t18.5 -18
l59 -69l59 69q13 15 18.5 18t16.5 3h62q13 0 13 -11q0 -4 -2.5 -8t-10.5 -11l-91 -90q-16 -15 -35 -15h-60z" />
    <glyph glyph-name="scaron" unicode="&#x161;" horiz-adv-x="432" 
d="M210 -15q-84 0 -151 28q-12 5 -16.5 11t-4.5 19v28q0 18 12 18q7 0 25 -6q66 -21 137 -21q49 0 74.5 19t25.5 55q0 24 -15.5 39t-56.5 30l-85 32q-111 41 -111 140q0 65 50.5 105t132.5 40q65 0 127 -23q12 -4 17 -10.5t5 -19.5v-27q0 -18 -13 -18q-7 0 -23 5
q-53 16 -108 16q-96 0 -96 -65q0 -26 16 -41t63 -33l78 -30q59 -23 85 -54.5t26 -81.5q0 -71 -53 -113t-141 -42zM192 601q-12 0 -20 4.5t-18 16.5l-91 109q-12 15 -12 21q0 10 13 10h55q12 0 18 -4t16 -18l67 -91l67 91q10 14 16 18t18 4h55q13 0 13 -10q0 -6 -12 -21
l-91 -109q-10 -12 -18 -16.5t-20 -4.5h-56z" />
    <glyph glyph-name="uni0162" unicode="&#x162;" horiz-adv-x="574" 
d="M256 0q-20 0 -20 20v589h-201q-20 0 -20 20v44q0 20 20 20h504q20 0 20 -20v-44q0 -20 -20 -20h-201v-589q0 -20 -20 -20h-62zM250 -276q-10 0 -17 7l-14 13q-7 7 -7 12q0 6 9 12q66 47 66 82q0 24 -36 24q-7 0 -13 -0.5t-10 -0.5q-14 0 -14 16v23q0 17 15 20q22 5 46 5
q42 0 66.5 -19.5t24.5 -52.5q0 -38 -25.5 -72.5t-75.5 -63.5q-8 -5 -15 -5z" />
    <glyph glyph-name="uni0163" unicode="&#x163;" horiz-adv-x="383" 
d="M248 -7q-142 0 -142 142v294h-72q-20 0 -20 20v25q0 10 4.5 15t17.5 7l73 9l13 124q2 20 21 20h42q20 0 20 -20v-122h130q20 0 20 -20v-38q0 -20 -20 -20h-130v-289q0 -37 16.5 -52t56.5 -15q19 0 47 5q15 3 20 3q8 0 11 -4.5t3 -14.5v-27q0 -13 -4 -19.5t-16 -10.5
q-39 -12 -91 -12zM193 -276q-10 0 -17 7l-12 11q-7 7 -7 12q0 6 9 12q66 49 66 84q0 26 -38 26q-7 0 -13 -0.5t-10 -0.5q-14 0 -14 16v21q0 17 15 20q22 5 46 5q42 0 66.5 -19.5t24.5 -52.5q0 -38 -25.5 -72.5t-75.5 -63.5q-8 -5 -15 -5z" />
    <glyph glyph-name="Tcaron" unicode="&#x164;" horiz-adv-x="574" 
d="M256 0q-20 0 -20 20v589h-201q-20 0 -20 20v44q0 20 20 20h504q20 0 20 -20v-44q0 -20 -20 -20h-201v-589q0 -20 -20 -20h-62zM257 769q-19 0 -35 15l-91 90q-8 7 -10.5 11t-2.5 8q0 11 13 11h62q11 0 16.5 -3t18.5 -18l59 -69l59 69q13 15 18.5 18t16.5 3h62
q13 0 13 -11q0 -4 -2.5 -8t-10.5 -11l-91 -90q-16 -15 -35 -15h-60z" />
    <glyph glyph-name="tcaron" unicode="&#x165;" horiz-adv-x="383" 
d="M248 -7q-142 0 -142 142v294h-72q-20 0 -20 20v25q0 10 4.5 15t17.5 7l73 9l13 124q2 20 21 20h42q20 0 20 -20v-122h130q20 0 20 -20v-38q0 -20 -20 -20h-130v-289q0 -37 16.5 -52t56.5 -15q19 0 47 5q15 3 20 3q8 0 11 -4.5t3 -14.5v-27q0 -13 -4 -19.5t-16 -10.5
q-39 -12 -91 -12zM299 574q-9 0 -13 3.5t-4 13.5v141q0 18 15 21q16 4 32 4q19 0 33 -5q13 -5 13 -21q0 -8 -7 -44l-19 -96q-1 -10 -5.5 -13.5t-12.5 -3.5h-32z" />
    <glyph glyph-name="Tbar" unicode="&#x166;" horiz-adv-x="574" 
d="M256 0q-20 0 -20 20v294h-122q-17 0 -17 17v37q0 17 17 17h122v224h-201q-20 0 -20 20v44q0 20 20 20h504q20 0 20 -20v-44q0 -20 -20 -20h-201v-224h122q17 0 17 -17v-37q0 -17 -17 -17h-122v-294q0 -20 -20 -20h-62z" />
    <glyph glyph-name="tbar" unicode="&#x167;" horiz-adv-x="423" 
d="M268 -7q-142 0 -142 142v95h-75q-17 0 -17 17v34q0 17 17 17h75v131h-72q-20 0 -20 20v25q0 10 4.5 15t17.5 7l73 9l13 124q2 20 21 20h42q20 0 20 -20v-122h130q20 0 20 -20v-38q0 -20 -20 -20h-130v-131h133q17 0 17 -17v-34q0 -17 -17 -17h-133v-90q0 -37 16.5 -52
t56.5 -15q12 0 37 3l17.5 3.5t12.5 1.5q8 0 11 -4.5t3 -14.5v-27q0 -13 -4 -19.5t-16 -10.5q-39 -12 -91 -12z" />
    <glyph glyph-name="Utilde" unicode="&#x168;" horiz-adv-x="706" 
d="M353 -17q-132 0 -202.5 69.5t-70.5 200.5v420q0 20 20 20h62q20 0 20 -20v-429q0 -84 44 -129.5t127 -45.5t127 45.5t44 129.5v429q0 20 20 20h62q20 0 20 -20v-420q0 -130 -70.5 -200t-202.5 -70zM423 769q-48 0 -86 37q-20 18 -31 24.5t-24 6.5q-14 0 -20.5 -8.5
t-8.5 -29.5l-1 -12q-1 -8 -4.5 -11.5t-13.5 -3.5h-28q-11 0 -15 5.5t-4 21.5v5q0 44 26 69.5t70 25.5q48 0 86 -37q20 -18 31 -24.5t24 -6.5q14 0 20.5 8.5t8.5 29.5l1 12q1 8 4.5 11.5t13.5 3.5h28q11 0 15 -5.5t4 -21.5v-5q0 -44 -26 -69.5t-70 -25.5z" />
    <glyph glyph-name="utilde" unicode="&#x169;" horiz-adv-x="575" 
d="M217 -15q-71 0 -109 40t-38 113v349q0 20 20 20h59q20 0 20 -20v-317q0 -54 21 -79.5t67 -25.5q72 0 145 48v374q0 20 20 20h59q20 0 20 -20v-467q0 -20 -20 -20h-43q-10 0 -15.5 4t-7.5 15l-7 35q-93 -69 -191 -69zM355 603q-48 0 -86 37q-22 20 -32.5 26.5t-22.5 6.5
q-15 0 -22 -10t-8 -30l-1 -12q-1 -15 -17 -15h-28q-11 0 -15 6t-4 21v5q0 44 26 69.5t70 25.5q48 0 86 -37q22 -20 32.5 -26.5t22.5 -6.5q15 0 22 10t8 30l1 12q1 15 18 15h27q11 0 15 -6t4 -21v-5q0 -44 -26 -69.5t-70 -25.5z" />
    <glyph glyph-name="Umacron" unicode="&#x16a;" horiz-adv-x="706" 
d="M353 -17q-132 0 -202.5 69.5t-70.5 200.5v420q0 20 20 20h62q20 0 20 -20v-429q0 -84 44 -129.5t127 -45.5t127 45.5t44 129.5v429q0 20 20 20h62q20 0 20 -20v-420q0 -130 -70.5 -200t-202.5 -70zM209 799q-17 0 -17 17v34q0 17 17 17h288q17 0 17 -17v-34
q0 -17 -17 -17h-288z" />
    <glyph glyph-name="umacron" unicode="&#x16b;" horiz-adv-x="575" 
d="M217 -15q-71 0 -109 40t-38 113v349q0 20 20 20h59q20 0 20 -20v-317q0 -54 21 -79.5t67 -25.5q72 0 145 48v374q0 20 20 20h59q20 0 20 -20v-467q0 -20 -20 -20h-43q-10 0 -15.5 4t-7.5 15l-7 35q-93 -69 -191 -69zM141 636q-17 0 -17 17v31q0 17 17 17h288q17 0 17 -17
v-31q0 -17 -17 -17h-288z" />
    <glyph glyph-name="Ubreve" unicode="&#x16c;" horiz-adv-x="706" 
d="M353 -17q-132 0 -202.5 69.5t-70.5 200.5v420q0 20 20 20h62q20 0 20 -20v-429q0 -84 44 -129.5t127 -45.5t127 45.5t44 129.5v429q0 20 20 20h62q20 0 20 -20v-420q0 -130 -70.5 -200t-202.5 -70zM353 766q-67 0 -105.5 30t-38.5 81q0 12 4.5 17t15.5 5h28q10 0 14.5 -4
t5.5 -13q9 -50 76 -50t76 50q1 9 5.5 13t14.5 4h28q11 0 15.5 -5t4.5 -17q0 -51 -38.5 -81t-105.5 -30z" />
    <glyph glyph-name="ubreve" unicode="&#x16d;" horiz-adv-x="575" 
d="M217 -15q-71 0 -109 40t-38 113v349q0 20 20 20h59q20 0 20 -20v-317q0 -54 21 -79.5t67 -25.5q72 0 145 48v374q0 20 20 20h59q20 0 20 -20v-467q0 -20 -20 -20h-43q-10 0 -15.5 4t-7.5 15l-7 35q-93 -69 -191 -69zM285 599q-67 0 -105.5 33t-38.5 90v6q0 22 16 22h34
q16 0 17 -17l1 -8q4 -31 22.5 -46t53.5 -15t53.5 15t22.5 46l1 8q1 17 17 17h34q9 0 12.5 -4.5t3.5 -17.5v-6q0 -57 -38.5 -90t-105.5 -33z" />
    <glyph glyph-name="Uring" unicode="&#x16e;" horiz-adv-x="706" 
d="M353 -17q-132 0 -202.5 69.5t-70.5 200.5v420q0 20 20 20h62q20 0 20 -20v-429q0 -84 44 -129.5t127 -45.5t127 45.5t44 129.5v429q0 20 20 20h62q20 0 20 -20v-420q0 -130 -70.5 -200t-202.5 -70zM353 737q-50 0 -80 27t-30 71t30 71t80 27t80 -27t30 -71t-30 -71
t-80 -27zM353 787q22 0 35 12.5t13 35.5t-13 35.5t-35 12.5t-35 -12.5t-13 -35.5t13 -35.5t35 -12.5z" />
    <glyph glyph-name="uring" unicode="&#x16f;" horiz-adv-x="575" 
d="M217 -15q-71 0 -109 40t-38 113v349q0 20 20 20h59q20 0 20 -20v-317q0 -54 21 -79.5t67 -25.5q72 0 145 48v374q0 20 20 20h59q20 0 20 -20v-467q0 -20 -20 -20h-43q-10 0 -15.5 4t-7.5 15l-7 35q-93 -69 -191 -69zM285 585q-53 0 -85.5 29t-32.5 78q0 48 32.5 77
t85.5 29t85.5 -29t32.5 -77q0 -49 -32.5 -78t-85.5 -29zM285 637q24 0 38 14.5t14 40.5q0 25 -14 39.5t-38 14.5t-38 -14.5t-14 -39.5q0 -26 14 -40.5t38 -14.5z" />
    <glyph glyph-name="Uhungarumlaut" unicode="&#x170;" horiz-adv-x="706" 
d="M353 -17q-132 0 -202.5 69.5t-70.5 200.5v420q0 20 20 20h62q20 0 20 -20v-429q0 -84 44 -129.5t127 -45.5t127 45.5t44 129.5v429q0 20 20 20h62q20 0 20 -20v-420q0 -130 -70.5 -200t-202.5 -70zM243 769q-15 0 -15 12q0 5 11 17l60 73q10 13 16.5 17t18.5 4h70
q13 0 13 -11q0 -4 -2.5 -8t-10.5 -11l-85 -78q-11 -10 -16 -12.5t-14 -2.5h-46zM423 769q-15 0 -15 12q0 5 11 17l60 73q11 14 17 17.5t18 3.5h70q13 0 13 -11q0 -4 -2.5 -8t-10.5 -11l-85 -78q-10 -9 -15.5 -12t-14.5 -3h-46z" />
    <glyph glyph-name="uhungarumlaut" unicode="&#x171;" horiz-adv-x="575" 
d="M217 -15q-71 0 -109 40t-38 113v349q0 20 20 20h59q20 0 20 -20v-317q0 -54 21 -79.5t67 -25.5q72 0 145 48v374q0 20 20 20h59q20 0 20 -20v-467q0 -20 -20 -20h-43q-10 0 -15.5 4t-7.5 15l-7 35q-93 -69 -191 -69zM169 601q-15 0 -15 12q0 3 8 18l65 108
q8 13 14.5 17.5t19.5 4.5h69q13 0 13 -10q0 -6 -12 -21l-89 -108q-12 -14 -17.5 -17.5t-15.5 -3.5h-40zM354 601q-15 0 -15 12q0 3 8 18l65 108q8 13 14.5 17.5t19.5 4.5h69q13 0 13 -10q0 -6 -12 -21l-89 -108q-12 -14 -17.5 -17.5t-15.5 -3.5h-40z" />
    <glyph glyph-name="Uogonek" unicode="&#x172;" horiz-adv-x="706" 
d="M414 -224q-52 0 -80 22.5t-28 65.5q0 62 67 120q-5 -1 -10 -1h-10q-132 0 -202.5 69.5t-70.5 200.5v420q0 20 20 20h62q20 0 20 -20v-429q0 -84 44 -129.5t127 -45.5t127 45.5t44 129.5v429q0 20 20 20h62q20 0 20 -20v-420q0 -90 -34 -151.5t-101 -92.5l-11 -5
q-41 -19 -67 -54.5t-26 -69.5q0 -41 52 -41q10 0 18.5 1.5t12.5 1.5q13 0 13 -15v-24q0 -10 -3 -14t-12 -7q-16 -6 -54 -6z" />
    <glyph glyph-name="uogonek" unicode="&#x173;" horiz-adv-x="575" 
d="M447 -224q-53 0 -81.5 22.5t-28.5 63.5q0 37 23 73t65 65l3 2q-10 4 -13 17l-7 35q-93 -69 -191 -69q-71 0 -109 40t-38 113v349q0 20 20 20h59q20 0 20 -20v-317q0 -54 21 -79.5t67 -25.5q72 0 145 48v374q0 20 20 20h59q20 0 20 -20v-472q0 -8 -2.5 -13t-11.5 -13
q-34 -28 -52.5 -57.5t-18.5 -55.5q0 -39 55 -39q10 0 18 1.5t12 1.5q13 0 13 -15v-22q0 -10 -3 -14t-12 -7q-19 -6 -52 -6z" />
    <glyph glyph-name="Wcircumflex" unicode="&#x174;" horiz-adv-x="929" 
d="M245 0q-16 0 -22.5 5t-11.5 22l-185 630q-5 18 -5 23q0 13 16 13h64q18 0 23.5 -5t9.5 -22l143 -554l127 535q4 16 10.5 21t22.5 5h58q16 0 22.5 -5t10.5 -21l127 -536l144 555q4 17 9.5 22t23.5 5h60q16 0 16 -13q0 -5 -5 -23l-185 -630q-5 -17 -11.5 -22t-22.5 -5h-61
q-17 0 -23.5 5.5t-10.5 21.5l-124 516l-125 -516q-4 -16 -10.5 -21.5t-23.5 -5.5h-61zM313 769q-16 0 -16 12q0 7 10 17l86 85q13 13 20 17t18 4h70q11 0 18 -4t20 -17l86 -85q10 -10 10 -17q0 -12 -16 -12h-46q-19 0 -35 15l-72 65l-72 -65q-16 -15 -35 -15h-46z" />
    <glyph glyph-name="wcircumflex" unicode="&#x175;" horiz-adv-x="769" 
d="M200 0q-15 0 -21.5 5.5t-12.5 22.5l-148 442q-6 18 -6 23q0 14 15 14h57q16 0 22.5 -5.5t11.5 -22.5l109 -378l100 378q5 17 12 22.5t22 5.5h46q15 0 22 -5.5t12 -22.5l101 -383l112 383q5 17 11.5 22.5t22.5 5.5h54q15 0 15 -14q0 -5 -6 -23l-152 -442
q-6 -17 -12.5 -22.5t-21.5 -5.5h-49q-15 0 -22 6t-12 23l-100 368l-99 -368q-5 -17 -12 -23t-22 -6h-49zM233 601q-16 0 -16 12q0 7 10 19l89 108q12 14 18.5 18t17.5 4h64q11 0 17.5 -4t18.5 -18l89 -108q10 -12 10 -19q0 -12 -16 -12h-36q-10 0 -18 4.5t-20 16.5l-77 82
l-77 -82q-12 -12 -20 -16.5t-18 -4.5h-36z" />
    <glyph glyph-name="Ycircumflex" unicode="&#x176;" horiz-adv-x="602" 
d="M269 0q-20 0 -20 20v235l-218 401q-11 20 -11 26q0 11 15 11h72q10 0 15 -2.5t10 -12.5l169 -340l172 340q5 10 10 12.5t15 2.5h69q15 0 15 -11q0 -6 -11 -26l-222 -403v-233q0 -20 -20 -20h-60zM149 769q-16 0 -16 12q0 7 10 17l86 85q13 13 20 17t18 4h70q11 0 18 -4
t20 -17l86 -85q10 -10 10 -17q0 -12 -16 -12h-46q-19 0 -35 15l-72 65l-72 -65q-16 -15 -35 -15h-46z" />
    <glyph glyph-name="ycircumflex" unicode="&#x177;" horiz-adv-x="509" 
d="M116 -218q-32 0 -57 7q-12 3 -16.5 10t-4.5 20v26q0 19 15 19q5 0 15 -2t27 -2q37 0 58.5 18.5t38.5 65.5l19 51l-193 476q-7 17 -7 24q0 12 14 12h60q16 0 22 -5t12 -22l140 -388l135 388q6 17 12 22t22 5h56q14 0 14 -12q0 -7 -7 -24l-220 -560q-27 -69 -63 -99
t-92 -30zM103 601q-16 0 -16 12q0 7 10 19l89 108q12 14 18.5 18t17.5 4h64q11 0 17.5 -4t18.5 -18l89 -108q10 -12 10 -19q0 -12 -16 -12h-36q-10 0 -18 4.5t-20 16.5l-77 82l-77 -82q-12 -12 -20 -16.5t-18 -4.5h-36z" />
    <glyph glyph-name="Ydieresis" unicode="&#x178;" horiz-adv-x="602" 
d="M269 0q-20 0 -20 20v235l-218 401q-11 20 -11 26q0 11 15 11h72q10 0 15 -2.5t10 -12.5l169 -340l172 340q5 10 10 12.5t15 2.5h69q15 0 15 -11q0 -6 -11 -26l-222 -403v-233q0 -20 -20 -20h-60zM196 779q-27 0 -44 16t-17 42t16.5 42t44.5 16q27 0 44 -16t17 -42
t-16.5 -42t-44.5 -16zM408 779q-27 0 -44 16t-17 42t16.5 42t44.5 16q27 0 44 -16t17 -42t-16.5 -42t-44.5 -16z" />
    <glyph glyph-name="Zacute" unicode="&#x179;" horiz-adv-x="579" 
d="M62 0q-20 0 -20 20v34q0 23 17 47l367 509h-342q-20 0 -20 20v43q0 20 20 20h433q20 0 20 -20v-34q0 -13 -3.5 -23t-12.5 -23l-369 -510h365q20 0 20 -20v-43q0 -20 -20 -20h-455zM281 769q-15 0 -15 12q0 5 11 17l59 72q11 14 19 18t20 4h67q13 0 13 -11q0 -4 -2.5 -8
t-10.5 -11l-79 -73q-13 -11 -22 -15.5t-19 -4.5h-41z" />
    <glyph glyph-name="zacute" unicode="&#x17a;" horiz-adv-x="476" 
d="M56 0q-20 0 -20 20v34q0 13 2.5 20t14.5 22l274 333h-261q-20 0 -20 20v38q0 20 20 20h351q20 0 20 -20v-33q0 -13 -2.5 -20.5t-13.5 -20.5l-279 -335h278q11 0 15.5 -4.5t4.5 -14.5v-39q0 -20 -20 -20h-364zM224 601q-7 0 -11 3.5t-4 8.5q0 7 7 18l64 106q8 14 15.5 19
t21.5 5h64q6 0 10 -3.5t4 -8.5q0 -8 -10 -19l-89 -108q-10 -12 -17.5 -16.5t-21.5 -4.5h-33z" />
    <glyph glyph-name="Zdotaccent" unicode="&#x17b;" horiz-adv-x="579" 
d="M62 0q-20 0 -20 20v34q0 23 17 47l367 509h-342q-20 0 -20 20v43q0 20 20 20h433q20 0 20 -20v-34q0 -13 -3.5 -23t-12.5 -23l-369 -510h365q20 0 20 -20v-43q0 -20 -20 -20h-455zM300 779q-30 0 -46.5 16.5t-16.5 44.5t16.5 44.5t46.5 16.5t46.5 -16.5t16.5 -44.5
t-16.5 -44.5t-46.5 -16.5z" />
    <glyph glyph-name="zdotaccent" unicode="&#x17c;" horiz-adv-x="476" 
d="M56 0q-20 0 -20 20v34q0 13 2.5 20t14.5 22l274 333h-261q-20 0 -20 20v38q0 20 20 20h351q20 0 20 -20v-33q0 -13 -2.5 -20.5t-13.5 -20.5l-279 -335h278q11 0 15.5 -4.5t4.5 -14.5v-39q0 -20 -20 -20h-364zM241 597q-29 0 -45.5 16.5t-16.5 43.5t16.5 43.5t45.5 16.5
t45.5 -16.5t16.5 -43.5t-16.5 -43.5t-45.5 -16.5z" />
    <glyph glyph-name="Zcaron" unicode="&#x17d;" horiz-adv-x="579" 
d="M62 0q-20 0 -20 20v34q0 23 17 47l367 509h-342q-20 0 -20 20v43q0 20 20 20h433q20 0 20 -20v-34q0 -13 -3.5 -23t-12.5 -23l-369 -510h365q20 0 20 -20v-43q0 -20 -20 -20h-455zM270 769q-19 0 -35 15l-91 90q-8 7 -10.5 11t-2.5 8q0 11 13 11h62q11 0 16.5 -3
t18.5 -18l59 -69l59 69q13 15 18.5 18t16.5 3h62q13 0 13 -11q0 -4 -2.5 -8t-10.5 -11l-91 -90q-16 -15 -35 -15h-60z" />
    <glyph glyph-name="zcaron" unicode="&#x17e;" horiz-adv-x="476" 
d="M56 0q-20 0 -20 20v34q0 13 2.5 20t14.5 22l274 333h-261q-20 0 -20 20v38q0 20 20 20h351q20 0 20 -20v-33q0 -13 -2.5 -20.5t-13.5 -20.5l-279 -335h278q11 0 15.5 -4.5t4.5 -14.5v-39q0 -20 -20 -20h-364zM213 601q-12 0 -20 4.5t-18 16.5l-91 109q-12 15 -12 21
q0 10 13 10h55q12 0 18 -4t16 -18l67 -91l67 91q10 14 16 18t18 4h55q13 0 13 -10q0 -6 -12 -21l-91 -109q-10 -12 -18 -16.5t-20 -4.5h-56z" />
    <glyph glyph-name="longs" unicode="&#x17f;" horiz-adv-x="251" 
d="M94 0q-20 0 -20 20v567q0 167 160 167q38 0 80 -11q11 -3 15.5 -9t4.5 -21v-26q0 -19 -15 -19q-9 0 -25.5 3t-37.5 3q-46 0 -64.5 -17.5t-18.5 -57.5v-579q0 -20 -20 -20h-59z" />
    <glyph glyph-name="florin" unicode="&#x192;" horiz-adv-x="373" 
d="M59 -218q-34 0 -70 9q-11 3 -15.5 9.5t-4.5 20.5v27q0 19 15 19q2 0 6 -0.5t10 -1.5q23 -3 36 -3q76 0 76 73v494h-74q-20 0 -20 20v25q0 10 4.5 15t17.5 7l72 9v82q0 167 160 167q38 0 80 -11q11 -3 15.5 -9t4.5 -21v-26q0 -19 -15 -19q-9 0 -25.5 3t-37.5 3
q-46 0 -64.5 -17.5t-18.5 -57.5v-92h135q20 0 20 -20v-38q0 -20 -20 -20h-135v-481q0 -78 -40 -122t-112 -44z" />
    <glyph glyph-name="uni01D3" unicode="&#x1d3;" horiz-adv-x="706" 
d="M353 -17q-132 0 -202.5 69.5t-70.5 200.5v420q0 20 20 20h62q20 0 20 -20v-429q0 -84 44 -129.5t127 -45.5t127 45.5t44 129.5v429q0 20 20 20h62q20 0 20 -20v-420q0 -130 -70.5 -200t-202.5 -70zM323 769q-19 0 -35 15l-91 90q-8 7 -10.5 11t-2.5 8q0 11 13 11h62
q11 0 16.5 -3t18.5 -18l59 -69l59 69q13 15 18.5 18t16.5 3h62q13 0 13 -11q0 -4 -2.5 -8t-10.5 -11l-91 -90q-16 -15 -35 -15h-60z" />
    <glyph glyph-name="uni01D4" unicode="&#x1d4;" horiz-adv-x="575" 
d="M217 -15q-71 0 -109 40t-38 113v349q0 20 20 20h59q20 0 20 -20v-317q0 -54 21 -79.5t67 -25.5q72 0 145 48v374q0 20 20 20h59q20 0 20 -20v-467q0 -20 -20 -20h-43q-10 0 -15.5 4t-7.5 15l-7 35q-93 -69 -191 -69zM257 601q-12 0 -20 4.5t-18 16.5l-91 109
q-12 15 -12 21q0 10 13 10h55q12 0 18 -4t16 -18l67 -91l67 91q10 14 16 18t18 4h55q13 0 13 -10q0 -6 -12 -21l-91 -109q-10 -12 -18 -16.5t-20 -4.5h-56z" />
    <glyph glyph-name="Aringacute" unicode="&#x1fa;" horiz-adv-x="642" 
d="M33 0q-17 0 -17 13q0 7 6 23l229 602q-43 26 -43 81q0 44 30 71t80 27t80 -27t30 -71q0 -50 -38 -78l230 -605q6 -16 6 -23q0 -13 -17 -13h-57q-15 0 -21.5 4.5t-12.5 22.5l-56 157h-285l-54 -157q-6 -18 -12.5 -22.5t-21.5 -4.5h-56zM436 261l-117 340l-116 -340h233z
M318 671q22 0 35 12.5t13 35.5t-13 35.5t-35 12.5t-35 -12.5t-13 -35.5t13 -35.5t35 -12.5zM294 851q-15 0 -15 12q0 6 10 17l61 73q11 14 17 17.5t18 3.5h70q13 0 13 -11q0 -4 -2.5 -8t-10.5 -11l-86 -78q-10 -9 -15.5 -12t-14.5 -3h-45z" />
    <glyph glyph-name="aringacute" unicode="&#x1fb;" horiz-adv-x="527" 
d="M198 -13q-71 0 -113.5 40.5t-42.5 108.5q0 73 52 116.5t140 43.5q56 0 126 -17v66q0 54 -24.5 76t-83.5 22q-69 0 -135 -20q-23 -7 -29 -7q-12 0 -12 18v27q0 13 4 19t16 11q31 14 78.5 22.5t94.5 8.5q95 0 140 -39.5t45 -120.5v-342q0 -20 -20 -20h-43q-19 0 -22 19
l-5 33q-36 -31 -79.5 -48t-86.5 -17zM222 62q33 0 69 13t69 38v102q-54 13 -106 13q-113 0 -113 -87q0 -38 21 -58.5t60 -20.5zM266 582q-50 0 -80 27t-30 71t30 71t80 27t80 -27t30 -71t-30 -71t-80 -27zM266 632q23 0 35.5 13t12.5 35q0 23 -12.5 35.5t-35.5 12.5
t-35.5 -12.5t-12.5 -35.5q0 -22 12.5 -35t35.5 -13zM243 812q-15 0 -15 12q0 6 10 17l61 73q11 14 17 17.5t18 3.5h70q13 0 13 -11q0 -4 -2.5 -8t-10.5 -11l-86 -78q-10 -9 -15.5 -12t-14.5 -3h-45z" />
    <glyph glyph-name="AEacute" unicode="&#x1fc;" horiz-adv-x="950" 
d="M473 276v335h-12l-188 -335h200zM36 0q-17 0 -17 14q0 6 10 23l362 628q10 17 17.5 22.5t23.5 5.5h452q20 0 20 -20v-42q0 -20 -20 -20h-309v-213h256q20 0 20 -20v-42q0 -20 -20 -20h-256v-234h309q20 0 20 -20v-42q0 -20 -20 -20h-391q-20 0 -20 20v180h-242l-95 -173
q-9 -17 -16 -22t-22 -5h-62zM636 769q-15 0 -15 12q0 5 11 17l59 72q11 14 19 18t20 4h67q13 0 13 -11q0 -4 -2.5 -8t-10.5 -11l-79 -73q-13 -11 -22 -15.5t-19 -4.5h-41z" />
    <glyph glyph-name="aeacute" unicode="&#x1fd;" horiz-adv-x="844" 
d="M224 60q38 0 80.5 18.5t79.5 51.5q-14 41 -17 102q-49 4 -108 4q-120 0 -120 -94q0 -82 85 -82zM710 293q1 11 1 27q0 127 -114 127q-132 0 -140 -154h253zM204 -13q-75 0 -118.5 40.5t-43.5 108.5q0 76 53 120.5t144 44.5q63 0 130 -9v44q0 55 -28.5 81t-89.5 26
q-68 0 -134 -20q-23 -7 -29 -7q-12 0 -12 18v27q0 13 4 19t16 11q32 14 78 22.5t86 8.5q61 0 103.5 -21t62.5 -61q30 40 75 61t101 21q95 0 146 -53.5t51 -152.5q0 -37 -5 -70q-2 -12 -6.5 -16t-14.5 -4h-316q4 -84 44.5 -123t125.5 -39q30 0 57.5 4t69.5 17q7 2 12 3.5
t9 1.5q13 0 13 -18v-28q0 -13 -4 -18.5t-17 -11.5q-65 -29 -154 -29q-143 0 -203 91q-43 -42 -97.5 -65.5t-108.5 -23.5zM407 601q-7 0 -11 3.5t-4 8.5q0 7 7 18l64 106q8 14 15.5 19t21.5 5h64q6 0 10 -3.5t4 -8.5q0 -8 -10 -19l-89 -108q-10 -12 -17.5 -16.5t-21.5 -4.5
h-33z" />
    <glyph glyph-name="Oslashacute" unicode="&#x1fe;" horiz-adv-x="777" 
d="M529 575q-53 47 -140 47q-108 0 -164 -70.5t-56 -205.5q0 -112 37 -177zM389 69q107 0 163 71t56 206q0 105 -35 172l-322 -405q53 -44 138 -44zM128 -33q-8 0 -16 7l-21 17q-9 8 -9 14q0 9 9 19l51 65q-78 95 -78 257q0 113 39.5 195t112.5 124.5t173 42.5
q118 0 198 -60l49 61q10 13 17 13q8 0 16 -7l21 -17q9 -8 9 -14q0 -8 -9 -19l-53 -66q76 -96 76 -253q0 -114 -39.5 -195.5t-112.5 -124.5t-172 -43q-116 0 -195 58l-49 -61q-10 -13 -17 -13zM370 769q-15 0 -15 12q0 5 11 17l59 72q11 14 19 18t20 4h67q13 0 13 -11
q0 -4 -2.5 -8t-10.5 -11l-79 -73q-13 -11 -22 -15.5t-19 -4.5h-41z" />
    <glyph glyph-name="oslashacute" unicode="&#x1ff;" horiz-adv-x="580" 
d="M378 413q-34 29 -88 29q-141 0 -141 -188q0 -65 17 -108zM290 65q141 0 141 189q0 59 -16 104l-212 -266q35 -27 87 -27zM102 -26q-8 0 -16 7l-16 13q-9 8 -9 14q0 7 9 19l32 40q-54 71 -54 187q0 126 64 197t178 71q85 0 143 -41l30 38q10 13 17 13q8 0 16 -7l16 -13
q9 -8 9 -14q0 -7 -9 -19l-33 -42q53 -70 53 -183q0 -127 -64 -198t-178 -71q-83 0 -142 39l-29 -37q-10 -13 -17 -13zM273 601q-7 0 -11 3.5t-4 8.5q0 7 7 18l64 106q8 14 15.5 19t21.5 5h64q6 0 10 -3.5t4 -8.5q0 -8 -10 -19l-89 -108q-10 -12 -17.5 -16.5t-21.5 -4.5h-33z
" />
    <glyph glyph-name="uni0218" unicode="&#x218;" horiz-adv-x="570" 
d="M264 -17q-48 0 -96 8.5t-84 23.5q-12 5 -16 11t-4 19v36q0 19 15 19q6 0 28 -7q35 -11 77 -17.5t78 -6.5q71 0 111.5 31t40.5 84q0 37 -23.5 61.5t-79.5 46.5l-97 37q-82 31 -119 75t-37 111q0 58 30 102t82.5 67.5t119.5 23.5q83 0 165 -29q11 -4 15.5 -10t4.5 -20v-35
q0 -19 -14 -19q-5 0 -10 1t-19 5q-72 21 -135 21q-65 0 -100.5 -26.5t-35.5 -75.5q0 -40 24 -63.5t89 -47.5l91 -34q81 -30 116.5 -72.5t35.5 -109.5q0 -96 -68.5 -153t-184.5 -57zM204 -278q-14 0 -14 14q0 5 2 17l27 164q3 18 20 18h19q54 0 54 -34q0 -12 -17 -58
l-39 -107q-6 -14 -21 -14h-31z" />
    <glyph glyph-name="uni0219" unicode="&#x219;" horiz-adv-x="432" 
d="M210 -15q-84 0 -151 28q-12 5 -16.5 11t-4.5 19v28q0 18 12 18q7 0 25 -6q66 -21 137 -21q49 0 74.5 19t25.5 55q0 24 -15.5 39t-56.5 30l-85 32q-111 41 -111 140q0 65 50.5 105t132.5 40q65 0 127 -23q12 -4 17 -10.5t5 -19.5v-27q0 -18 -13 -18q-7 0 -23 5
q-53 16 -108 16q-96 0 -96 -65q0 -26 16 -41t63 -33l78 -30q59 -23 85 -54.5t26 -81.5q0 -71 -53 -113t-141 -42zM157 -278q-14 0 -14 14q0 5 2 17l27 164q3 18 20 18h16q54 0 54 -34q0 -15 -16 -58l-38 -107q-6 -14 -21 -14h-30z" />
    <glyph glyph-name="uni021A" unicode="&#x21a;" horiz-adv-x="574" 
d="M256 0q-20 0 -20 20v589h-201q-20 0 -20 20v44q0 20 20 20h504q20 0 20 -20v-44q0 -20 -20 -20h-201v-589q0 -20 -20 -20h-62zM226 -278q-14 0 -14 14q0 5 2 17l27 164q3 18 20 18h19q54 0 54 -34q0 -12 -17 -58l-39 -107q-6 -14 -21 -14h-31z" />
    <glyph glyph-name="uni021B" unicode="&#x21b;" horiz-adv-x="383" 
d="M248 -7q-142 0 -142 142v294h-72q-20 0 -20 20v25q0 10 4.5 15t17.5 7l73 9l13 124q2 20 21 20h42q20 0 20 -20v-122h130q20 0 20 -20v-38q0 -20 -20 -20h-130v-289q0 -37 16.5 -52t56.5 -15q19 0 47 5q15 3 20 3q8 0 11 -4.5t3 -14.5v-27q0 -13 -4 -19.5t-16 -10.5
q-39 -12 -91 -12zM178 -278q-14 0 -14 14q0 5 2 17l27 164q3 18 20 18h16q54 0 54 -34q0 -15 -16 -58l-38 -107q-6 -14 -21 -14h-30z" />
    <glyph glyph-name="uni0237" unicode="&#x237;" horiz-adv-x="255" 
d="M51 -218q-37 0 -65 7q-11 3 -15.5 9.5t-4.5 20.5v27q0 19 15 19q5 0 17 -1.5t27 -1.5q28 0 40.5 10.5t12.5 34.5v580q0 20 20 20h59q20 0 20 -20v-572q0 -65 -32 -99t-94 -34z" />
    <glyph glyph-name="uni02B9" unicode="&#x2b9;" horiz-adv-x="265" 
d="M71 474q-13 0 -13 10q0 3 2 9l62 186q4 13 20 19q19 7 42 7q17 0 35 -6q11 -4 11 -13q0 -4 -4 -12l-94 -184q-7 -16 -23 -16h-38z" />
    <glyph glyph-name="uni02BA" unicode="&#x2ba;" horiz-adv-x="439" 
d="M71 474q-13 0 -13 10q0 3 2 9l62 186q4 13 20 19q19 7 42 7q17 0 35 -6q11 -4 11 -13q0 -4 -4 -12l-94 -184q-7 -16 -23 -16h-38zM245 474q-13 0 -13 10q0 3 2 9l62 186q4 13 20 19q19 7 42 7q17 0 35 -6q11 -4 11 -13q0 -4 -4 -12l-94 -184q-7 -16 -23 -16h-38z" />
    <glyph glyph-name="uni02BB" unicode="&#x2bb;" horiz-adv-x="247" 
d="M103 431q-29 0 -42.5 10.5t-13.5 33.5q1 52 29 111t74 105q9 9 17 9q7 0 14 -6l18 -13q9 -6 9 -14q0 -6 -8 -19q-42 -64 -51 -138q-3 -20 -4 -59q0 -20 -20 -20h-22z" />
    <glyph glyph-name="uni02BC" unicode="&#x2bc;" horiz-adv-x="247" 
d="M80 424q-6 0 -14 6l-18 13q-9 6 -9 14q0 6 8 19q42 64 51 138q3 20 4 59q0 20 20 20h22q29 0 42.5 -10.5t13.5 -33.5q0 -52 -28 -110.5t-75 -105.5q-9 -9 -17 -9z" />
    <glyph glyph-name="circumflex" unicode="&#x2c6;" horiz-adv-x="588" 
d="M143 601q-16 0 -16 12q0 7 10 19l89 108q12 14 18.5 18t17.5 4h64q11 0 17.5 -4t18.5 -18l89 -108q10 -12 10 -19q0 -12 -16 -12h-36q-10 0 -18 4.5t-20 16.5l-77 82l-77 -82q-12 -12 -20 -16.5t-18 -4.5h-36z" />
    <glyph glyph-name="caron" unicode="&#x2c7;" horiz-adv-x="588" 
d="M266 601q-12 0 -20 4.5t-18 16.5l-91 109q-12 15 -12 21q0 10 13 10h55q12 0 18 -4t16 -18l67 -91l67 91q10 14 16 18t18 4h55q13 0 13 -10q0 -6 -12 -21l-91 -109q-10 -12 -18 -16.5t-20 -4.5h-56z" />
    <glyph glyph-name="uni02C9" unicode="&#x2c9;" horiz-adv-x="588" 
d="M149 636q-17 0 -17 17v31q0 17 17 17h288q17 0 17 -17v-31q0 -17 -17 -17h-288z" />
    <glyph glyph-name="uni02CA" unicode="&#x2ca;" horiz-adv-x="588" 
d="M213 601q-7 0 -11 3.5t-4 8.5q0 7 7 18l64 106q8 14 15.5 19t21.5 5h64q6 0 10 -3.5t4 -8.5q0 -8 -10 -19l-89 -108q-10 -12 -17.5 -16.5t-21.5 -4.5h-33z" />
    <glyph glyph-name="uni02CB" unicode="&#x2cb;" horiz-adv-x="588" 
d="M341 601q-14 0 -21.5 4.5t-17.5 16.5l-89 108q-10 11 -10 19q0 5 4 8.5t10 3.5h64q14 0 21.5 -5t15.5 -19l64 -106q7 -11 7 -18q0 -5 -4 -8.5t-11 -3.5h-33z" />
    <glyph glyph-name="breve" unicode="&#x2d8;" horiz-adv-x="588" 
d="M293 599q-67 0 -105.5 33t-38.5 90v6q0 22 16 22h34q16 0 17 -17l1 -8q4 -31 22.5 -46t53.5 -15t53.5 15t22.5 46l1 8q1 17 17 17h34q9 0 12.5 -4.5t3.5 -17.5v-6q0 -57 -38.5 -90t-105.5 -33z" />
    <glyph glyph-name="dotaccent" unicode="&#x2d9;" horiz-adv-x="588" 
d="M294 597q-29 0 -45.5 16.5t-16.5 43.5t16.5 43.5t45.5 16.5t45.5 -16.5t16.5 -43.5t-16.5 -43.5t-45.5 -16.5z" />
    <glyph glyph-name="ring" unicode="&#x2da;" horiz-adv-x="588" 
d="M294 585q-53 0 -85.5 29t-32.5 78q0 48 32.5 77t85.5 29t85.5 -29t32.5 -77q0 -49 -32.5 -78t-85.5 -29zM294 637q24 0 38 14.5t14 40.5q0 25 -14 39.5t-38 14.5t-38 -14.5t-14 -39.5q0 -26 14 -40.5t38 -14.5z" />
    <glyph glyph-name="ogonek" unicode="&#x2db;" horiz-adv-x="588" 
d="M315 -224q-53 0 -81.5 22.5t-28.5 63.5t27.5 82.5t75.5 73.5l56 -13q-38 -33 -59 -66.5t-21 -62.5q0 -39 55 -39q10 0 18 1.5t12 1.5q13 0 13 -15v-22q0 -10 -3 -14t-12 -7q-20 -6 -52 -6z" />
    <glyph glyph-name="tilde" unicode="&#x2dc;" horiz-adv-x="588" 
d="M363 603q-48 0 -86 37q-22 20 -32.5 26.5t-22.5 6.5q-15 0 -22 -10t-8 -30l-1 -12q-1 -15 -17 -15h-28q-11 0 -15 6t-4 21v5q0 44 26 69.5t70 25.5q48 0 86 -37q22 -20 32.5 -26.5t22.5 -6.5q15 0 22 10t8 30l1 12q1 15 18 15h27q11 0 15 -6t4 -21v-5q0 -44 -26 -69.5
t-70 -25.5z" />
    <glyph glyph-name="hungarumlaut" unicode="&#x2dd;" horiz-adv-x="588" 
d="M120 601q-15 0 -15 12q0 3 8 18l65 108q8 13 14.5 17.5t19.5 4.5h69q13 0 13 -10q0 -6 -12 -21l-89 -108q-12 -14 -17.5 -17.5t-15.5 -3.5h-40zM305 601q-15 0 -15 12q0 3 8 18l65 108q8 13 14.5 17.5t19.5 4.5h69q13 0 13 -10q0 -6 -12 -21l-89 -108
q-12 -14 -17.5 -17.5t-15.5 -3.5h-40z" />
    <glyph glyph-name="gravecomb" unicode="&#x300;" horiz-adv-x="0" 
d="M-16 601q-14 0 -21.5 4.5t-17.5 16.5l-89 108q-10 11 -10 19q0 5 4 8.5t10 3.5h64q14 0 21.5 -5t15.5 -19l64 -106q7 -11 7 -18q0 -5 -4 -8.5t-11 -3.5h-33z" />
    <glyph glyph-name="acutecomb" unicode="&#x301;" horiz-adv-x="0" 
d="M-17 601q-7 0 -11 3.5t-4 8.5q0 7 7 18l64 106q8 14 15.5 19t21.5 5h64q6 0 10 -3.5t4 -8.5q0 -8 -10 -19l-89 -108q-10 -12 -17.5 -16.5t-21.5 -4.5h-33z" />
    <glyph glyph-name="uni0302" unicode="&#x302;" horiz-adv-x="0" 
d="M-151 601q-16 0 -16 12q0 7 10 19l89 108q12 14 18.5 18t17.5 4h64q11 0 17.5 -4t18.5 -18l89 -108q10 -12 10 -19q0 -12 -16 -12h-36q-10 0 -18 4.5t-20 16.5l-77 82l-77 -82q-12 -12 -20 -16.5t-18 -4.5h-36z" />
    <glyph glyph-name="tildecomb" unicode="&#x303;" horiz-adv-x="0" 
d="M70 603q-48 0 -86 37q-22 20 -32.5 26.5t-22.5 6.5q-15 0 -22 -10t-8 -30l-1 -12q-1 -15 -17 -15h-28q-11 0 -15 6t-4 21v5q0 44 26 69.5t70 25.5q48 0 86 -37q22 -20 32.5 -26.5t22.5 -6.5q15 0 22 10t8 30l1 12q1 15 18 15h27q11 0 15 -6t4 -21v-5q0 -44 -26 -69.5
t-70 -25.5z" />
    <glyph glyph-name="uni0304" unicode="&#x304;" horiz-adv-x="0" 
d="M-144 636q-17 0 -17 17v31q0 17 17 17h288q17 0 17 -17v-31q0 -17 -17 -17h-288z" />
    <glyph glyph-name="uni0306" unicode="&#x306;" horiz-adv-x="0" 
d="M0 599q-67 0 -105.5 33t-38.5 90v6q0 22 16 22h34q16 0 17 -17l1 -8q4 -31 22.5 -46t53.5 -15t53.5 15t22.5 46l1 8q1 17 17 17h34q9 0 12.5 -4.5t3.5 -17.5v-6q0 -57 -38.5 -90t-105.5 -33z" />
    <glyph glyph-name="uni0307" unicode="&#x307;" horiz-adv-x="0" 
d="M0 597q-29 0 -45.5 16.5t-16.5 43.5t16.5 43.5t45.5 16.5t45.5 -16.5t16.5 -43.5t-16.5 -43.5t-45.5 -16.5z" />
    <glyph glyph-name="uni0308" unicode="&#x308;" horiz-adv-x="0" 
d="M-108 594q-27 0 -43 16t-16 42t16 41.5t43 15.5q28 0 44 -15.5t16 -41.5t-16 -42t-44 -16zM108 594q-28 0 -44 16t-16 42t16 41.5t44 15.5q27 0 43 -15.5t16 -41.5t-16 -42t-43 -16z" />
    <glyph glyph-name="uni030A" unicode="&#x30a;" horiz-adv-x="0" 
d="M0 585q-53 0 -85.5 29t-32.5 78q0 48 32.5 77t85.5 29t85.5 -29t32.5 -77q0 -49 -32.5 -78t-85.5 -29zM0 637q24 0 38 14.5t14 40.5q0 25 -14 39.5t-38 14.5t-38 -14.5t-14 -39.5q0 -26 14 -40.5t38 -14.5z" />
    <glyph glyph-name="uni030B" unicode="&#x30b;" horiz-adv-x="0" 
d="M-116 601q-15 0 -15 12q0 3 8 18l65 108q8 13 14.5 17.5t19.5 4.5h69q13 0 13 -10q0 -6 -12 -21l-89 -108q-12 -14 -17.5 -17.5t-15.5 -3.5h-40zM69 601q-15 0 -15 12q0 3 8 18l65 108q8 13 14.5 17.5t19.5 4.5h69q13 0 13 -10q0 -6 -12 -21l-89 -108
q-12 -14 -17.5 -17.5t-15.5 -3.5h-40z" />
    <glyph glyph-name="uni030C" unicode="&#x30c;" horiz-adv-x="0" 
d="M-28 601q-12 0 -20 4.5t-18 16.5l-91 109q-12 15 -12 21q0 10 13 10h55q12 0 18 -4t16 -18l67 -91l67 91q10 14 16 18t18 4h55q13 0 13 -10q0 -6 -12 -21l-91 -109q-10 -12 -18 -16.5t-20 -4.5h-56z" />
    <glyph glyph-name="uni0312" unicode="&#x312;" horiz-adv-x="0" 
d="M5 588q-54 0 -54 34q0 14 16 58l39 114q6 14 21 14h30q14 0 14 -14q0 -5 -2 -17l-28 -171q-3 -18 -20 -18h-16z" />
    <glyph glyph-name="uni0315" unicode="&#x315;" horiz-adv-x="0" 
d="M-15 545q-9 0 -12.5 3.5t-4.5 13.5v165q0 18 15 21q16 4 32 4q19 0 33 -5q15 -6 15 -21q0 -8 -7 -44l-21 -120q-1 -10 -5.5 -13.5t-12.5 -3.5h-32z" />
    <glyph glyph-name="uni0326" unicode="&#x326;" horiz-adv-x="0" 
d="M-60 -278q-14 0 -14 14q0 5 2 17l27 164q3 18 20 18h16q54 0 54 -34q0 -15 -16 -58l-38 -107q-6 -14 -21 -14h-30z" />
    <glyph glyph-name="uni0327" unicode="&#x327;" horiz-adv-x="0" 
d="M-45 -276q-10 0 -17 7l-12 11q-7 7 -7 12q0 6 9 12q66 49 66 84q0 26 -38 26q-7 0 -13 -0.5t-10 -0.5q-14 0 -14 16v21q0 17 15 20q22 5 46 5q42 0 66.5 -19.5t24.5 -52.5q0 -38 -25.5 -72.5t-75.5 -63.5q-8 -5 -15 -5z" />
    <glyph glyph-name="uni0328" unicode="&#x328;" horiz-adv-x="0" 
d="M-54 -224q-53 0 -81.5 22.5t-28.5 63.5t27.5 82.5t75.5 73.5l56 -13q-38 -33 -59 -66.5t-21 -62.5q0 -39 55 -39q10 0 18 1.5t12 1.5q13 0 13 -15v-22q0 -10 -3 -14t-12 -7q-20 -6 -52 -6z" />
    <glyph glyph-name="uni0344" unicode="&#x344;" horiz-adv-x="0" 
d="M-110 598q-27 0 -42 15t-15 40t15 40t42 15t42 -15t15 -40t-15 -40t-42 -15zM110 598q-27 0 -42 15t-15 40t15 40t42 15t42 -15t15 -40t-15 -40t-42 -15zM-18 727q-15 0 -15 12q0 8 5 19l46 108q4 9 7 13.5t8.5 6.5t15.5 2h59q13 0 13 -10q0 -7 -9 -21l-70 -109
q-9 -14 -13 -17.5t-12 -3.5h-35z" />
    <glyph glyph-name="uni0374" unicode="&#x374;" horiz-adv-x="265" 
d="M71 474q-13 0 -13 10q0 3 2 9l62 186q4 13 20 19q19 7 42 7q17 0 35 -6q11 -4 11 -13q0 -4 -4 -12l-94 -184q-7 -16 -23 -16h-38z" />
    <glyph glyph-name="uni0375" unicode="&#x375;" horiz-adv-x="265" 
d="M73 -219q-15 0 -15 12q0 4 2 10l60 181q3 9 8.5 14.5t15.5 8.5q20 6 38 6q16 0 33 -5q13 -4 13 -15q0 -5 -4 -13l-92 -181q-9 -18 -27 -18h-32z" />
    <glyph glyph-name="uni037E" unicode="&#x37e;" horiz-adv-x="248" 
d="M52 -153q-18 0 -18 15q0 4 4 28l39 205q3 21 23 21h13q34 0 48.5 -8.5t14.5 -28.5q0 -16 -13 -53l-59 -162q-7 -17 -25 -17h-27zM124 385q-29 0 -47 18.5t-18 47.5t18 47.5t47 18.5t47 -18.5t18 -47.5t-18 -47.5t-47 -18.5z" />
    <glyph glyph-name="tonos" unicode="&#x384;" horiz-adv-x="588" 
d="M227 601q-15 0 -15 12q0 7 5 19l50 119q4 9 7 13.5t8.5 6.5t15.5 2h62q13 0 13 -10q0 -7 -9 -21l-73 -120q-9 -14 -13 -17.5t-12 -3.5h-39z" />
    <glyph glyph-name="dieresistonos" unicode="&#x385;" horiz-adv-x="588" 
d="M184 598q-27 0 -42 15t-15 40t15 40t42 15t42 -15t15 -40t-15 -40t-42 -15zM404 598q-27 0 -42 15t-15 40t15 40t42 15t42 -15t15 -40t-15 -40t-42 -15zM276 727q-15 0 -15 12q0 8 5 19l46 108q4 9 7 13.5t8.5 6.5t15.5 2h59q13 0 13 -10q0 -7 -9 -21l-70 -109
q-9 -14 -13 -17.5t-12 -3.5h-35z" />
    <glyph glyph-name="Alphatonos" unicode="&#x386;" horiz-adv-x="653" 
d="M448 261l-118 340l-116 -340h234zM44 0q-17 0 -17 13q0 7 6 23l234 630q6 18 12.5 22.5t21.5 4.5h62q15 0 21.5 -4.5t12.5 -22.5l234 -630q6 -16 6 -23q0 -13 -17 -13h-57q-15 0 -21.5 4.5t-12.5 22.5l-55 157h-287l-53 -157q-6 -18 -12.5 -22.5t-21.5 -4.5h-56zM28 521
q-15 0 -15 12q0 8 5 19l50 119q4 9 7 13.5t8.5 6.5t15.5 2h65q13 0 13 -10q0 -7 -9 -21l-74 -120q-9 -14 -13 -17.5t-12 -3.5h-41z" />
    <glyph glyph-name="anoteleia" unicode="&#x387;" horiz-adv-x="248" 
d="M124 381q-29 0 -47 18.5t-18 47.5t18 47.5t47 18.5t47 -18.5t18 -47.5t-18 -47.5t-47 -18.5z" />
    <glyph glyph-name="Epsilontonos" unicode="&#x388;" horiz-adv-x="712" 
d="M255 0q-20 0 -20 20v653q0 20 20 20h391q20 0 20 -20v-42q0 -20 -20 -20h-309v-213h256q20 0 20 -20v-42q0 -20 -20 -20h-256v-234h309q20 0 20 -20v-42q0 -20 -20 -20h-391zM28 521q-15 0 -15 12q0 8 5 19l50 119q4 9 7 13.5t8.5 6.5t15.5 2h65q13 0 13 -10q0 -7 -9 -21
l-74 -120q-9 -14 -13 -17.5t-12 -3.5h-41z" />
    <glyph glyph-name="Etatonos" unicode="&#x389;" horiz-adv-x="869" 
d="M255 0q-20 0 -20 20v653q0 20 20 20h62q20 0 20 -20v-278h346v278q0 20 20 20h62q20 0 20 -20v-653q0 -20 -20 -20h-62q-20 0 -20 20v292h-346v-292q0 -20 -20 -20h-62zM28 521q-15 0 -15 12q0 8 5 19l50 119q4 9 7 13.5t8.5 6.5t15.5 2h65q13 0 13 -10q0 -7 -9 -21
l-74 -120q-9 -14 -13 -17.5t-12 -3.5h-41z" />
    <glyph glyph-name="Iotatonos" unicode="&#x38a;" horiz-adv-x="425" 
d="M255 0q-20 0 -20 20v653q0 20 20 20h62q20 0 20 -20v-653q0 -20 -20 -20h-62zM28 521q-15 0 -15 12q0 8 5 19l50 119q4 9 7 13.5t8.5 6.5t15.5 2h65q13 0 13 -10q0 -7 -9 -21l-74 -120q-9 -14 -13 -17.5t-12 -3.5h-41z" />
    <glyph glyph-name="Omicrontonos" unicode="&#x38c;" horiz-adv-x="876" 
d="M488 69q107 0 163 71t56 206t-56 205.5t-163 70.5q-108 0 -164 -70.5t-56 -205.5q0 -136 56.5 -206.5t163.5 -70.5zM488 -17q-102 0 -175.5 44.5t-111.5 126t-38 192.5q0 113 39.5 195t112.5 124.5t173 42.5q151 0 237.5 -96.5t86.5 -265.5q0 -114 -39.5 -195.5
t-112.5 -124.5t-172 -43zM28 521q-15 0 -15 12q0 8 5 19l50 119q4 9 7 13.5t8.5 6.5t15.5 2h65q13 0 13 -10q0 -7 -9 -21l-74 -120q-9 -14 -13 -17.5t-12 -3.5h-41z" />
    <glyph glyph-name="Upsilontonos" unicode="&#x38e;" horiz-adv-x="818" 
d="M485 0q-20 0 -20 20v235l-218 401q-11 20 -11 26q0 11 15 11h72q10 0 15 -2.5t10 -12.5l169 -340l172 340q5 10 10 12.5t15 2.5h69q15 0 15 -11q0 -6 -11 -26l-222 -403v-233q0 -20 -20 -20h-60zM28 521q-15 0 -15 12q0 8 5 19l50 119q4 9 7 13.5t8.5 6.5t15.5 2h65
q13 0 13 -10q0 -7 -9 -21l-74 -120q-9 -14 -13 -17.5t-12 -3.5h-41z" />
    <glyph glyph-name="Omegatonos" unicode="&#x38f;" horiz-adv-x="870" 
d="M162 0q-20 0 -20 20v39q0 20 20 20h154q-71 47 -109.5 122t-38.5 169q0 157 85.5 247.5t233.5 90.5t233.5 -90.5t85.5 -247.5q0 -94 -38.5 -169.5t-110.5 -121.5h155q20 0 20 -20v-39q0 -20 -20 -20h-241q-20 0 -20 20v42q0 10 4 15.5t15 13.5q131 93 131 277
q0 124 -54.5 188.5t-159.5 64.5t-159.5 -64.5t-54.5 -188.5q0 -185 131 -277q11 -8 15 -13.5t4 -15.5v-42q0 -20 -20 -20h-241zM28 521q-15 0 -15 12q0 8 5 19l50 119q4 9 7 13.5t8.5 6.5t15.5 2h65q13 0 13 -10q0 -7 -9 -21l-74 -120q-9 -14 -13 -17.5t-12 -3.5h-41z" />
    <glyph glyph-name="iotadieresistonos" unicode="&#x390;" horiz-adv-x="287" 
d="M189 -5q-56 0 -85.5 30.5t-29.5 88.5v373q0 20 20 20h59q20 0 20 -20v-367q0 -24 10.5 -34.5t36.5 -10.5q10 0 17.5 1.5t12.5 1.5q8 0 11 -4.5t3 -14.5v-28q0 -14 -4.5 -21t-15.5 -9q-27 -6 -55 -6zM13 598q-27 0 -42 15t-15 40t15 40t42 15t42 -15t15 -40t-15 -40
t-42 -15zM233 598q-27 0 -42 15t-15 40t15 40t42 15t42 -15t15 -40t-15 -40t-42 -15zM105 727q-15 0 -15 12q0 8 5 19l46 108q4 9 7 13.5t8.5 6.5t15.5 2h59q13 0 13 -10q0 -7 -9 -21l-70 -109q-9 -14 -13 -17.5t-12 -3.5h-35z" />
    <glyph glyph-name="Alpha" unicode="&#x391;" horiz-adv-x="642" 
d="M437 261l-118 340l-116 -340h234zM33 0q-17 0 -17 13q0 7 6 23l234 630q6 18 12.5 22.5t21.5 4.5h62q15 0 21.5 -4.5t12.5 -22.5l234 -630q6 -16 6 -23q0 -13 -17 -13h-57q-15 0 -21.5 4.5t-12.5 22.5l-55 157h-287l-53 -157q-6 -18 -12.5 -22.5t-21.5 -4.5h-56z" />
    <glyph glyph-name="Beta" unicode="&#x392;" horiz-adv-x="613" 
d="M104 0q-20 0 -20 20v653q0 20 20 20h209q97 0 156 -50t59 -133q0 -52 -24 -89.5t-69 -57.5q64 -19 98 -62.5t34 -107.5q0 -88 -62 -140.5t-166 -52.5h-235zM337 78q127 0 127 119q0 59 -32.5 89t-96.5 30h-154v-238h156zM303 392q124 0 124 111q0 55 -30.5 83.5
t-90.5 28.5h-125v-223h122z" />
    <glyph glyph-name="Gamma" unicode="&#x393;" horiz-adv-x="505" 
d="M104 0q-20 0 -20 20v653q0 20 20 20h366q20 0 20 -20v-44q0 -20 -20 -20h-284v-589q0 -20 -20 -20h-62z" />
    <glyph glyph-name="uni0394" unicode="&#x394;" horiz-adv-x="641" 
d="M501 79l-181 528l-186 -528h367zM51 0q-20 0 -20 20v34q0 17 1.5 24.5t5.5 18.5l215 569q6 17 13 22t24 5h62q17 0 23.5 -5t12.5 -22l215 -569q4 -11 5.5 -18.5t1.5 -24.5v-34q0 -20 -20 -20h-539z" />
    <glyph glyph-name="Epsilon" unicode="&#x395;" horiz-adv-x="561" 
d="M104 0q-20 0 -20 20v653q0 20 20 20h391q20 0 20 -20v-42q0 -20 -20 -20h-309v-213h256q20 0 20 -20v-42q0 -20 -20 -20h-256v-234h309q20 0 20 -20v-42q0 -20 -20 -20h-391z" />
    <glyph glyph-name="Zeta" unicode="&#x396;" horiz-adv-x="579" 
d="M62 0q-20 0 -20 20v34q0 23 17 47l367 509h-342q-20 0 -20 20v43q0 20 20 20h433q20 0 20 -20v-34q0 -13 -3.5 -23t-12.5 -23l-369 -510h365q20 0 20 -20v-43q0 -20 -20 -20h-455z" />
    <glyph glyph-name="Eta" unicode="&#x397;" horiz-adv-x="718" 
d="M104 0q-20 0 -20 20v653q0 20 20 20h62q20 0 20 -20v-278h346v278q0 20 20 20h62q20 0 20 -20v-653q0 -20 -20 -20h-62q-20 0 -20 20v292h-346v-292q0 -20 -20 -20h-62z" />
    <glyph glyph-name="Theta" unicode="&#x398;" horiz-adv-x="777" 
d="M169 346q0 -136 56.5 -206.5t163.5 -70.5t163 71t56 206t-56 205.5t-163 70.5q-108 0 -164 -70.5t-56 -205.5zM64 346q0 113 39.5 195t112.5 124.5t173 42.5q151 0 237.5 -96.5t86.5 -265.5q0 -114 -39.5 -195.5t-112.5 -124.5t-172 -43q-102 0 -175.5 44.5t-111.5 126
t-38 192.5zM278 308q-20 0 -20 20v43q0 20 20 20h221q20 0 20 -20v-43q0 -20 -20 -20h-221z" />
    <glyph glyph-name="Iota" unicode="&#x399;" horiz-adv-x="278" 
d="M108 0q-20 0 -20 20v653q0 20 20 20h62q20 0 20 -20v-653q0 -20 -20 -20h-62z" />
    <glyph glyph-name="Kappa" unicode="&#x39a;" horiz-adv-x="617" 
d="M104 0q-20 0 -20 20v653q0 20 20 20h62q20 0 20 -20v-290l273 295q8 9 16.5 12t23.5 3h65q14 0 14 -12q0 -7 -9 -16l-286 -303l313 -334q9 -9 9 -16q0 -12 -14 -12h-68q-16 0 -25 3t-17 12l-295 316v-311q0 -20 -20 -20h-62z" />
    <glyph glyph-name="Lambda" unicode="&#x39b;" horiz-adv-x="633" 
d="M31 0q-16 0 -16 13q0 6 6 23l232 630q6 17 12 22t22 5h60q16 0 22 -5t12 -22l231 -630q6 -17 6 -23q0 -13 -16 -13h-63q-16 0 -21.5 4.5t-11.5 22.5l-192 554l-190 -554q-6 -18 -11.5 -22.5t-21.5 -4.5h-60z" />
    <glyph glyph-name="Mu" unicode="&#x39c;" horiz-adv-x="840" 
d="M104 0q-20 0 -20 20v653q0 20 20 20h75q11 0 17 -3.5t11 -13.5l215 -408l214 408q5 10 11 13.5t17 3.5h72q20 0 20 -20v-653q0 -20 -20 -20h-54q-20 0 -20 20v525l-186 -351q-8 -17 -29 -17h-53q-11 0 -17.5 4t-11.5 13l-187 352v-526q0 -20 -20 -20h-54z" />
    <glyph glyph-name="Nu" unicode="&#x39d;" horiz-adv-x="714" 
d="M104 0q-20 0 -20 20v653q0 20 20 20h64q28 0 38 -18l330 -536v534q0 20 20 20h54q20 0 20 -20v-653q0 -20 -20 -20h-65q-27 0 -38 18l-329 533v-531q0 -20 -20 -20h-54z" />
    <glyph glyph-name="Xi" unicode="&#x39e;" horiz-adv-x="571" 
d="M60 0q-20 0 -20 20v47q0 20 20 20h451q20 0 20 -20v-47q0 -20 -20 -20h-451zM119 309q-20 0 -20 20v47q0 20 20 20h333q20 0 20 -20v-47q0 -20 -20 -20h-333zM72 606q-20 0 -20 20v47q0 20 20 20h427q20 0 20 -20v-47q0 -20 -20 -20h-427z" />
    <glyph glyph-name="Omicron" unicode="&#x39f;" horiz-adv-x="777" 
d="M389 69q107 0 163 71t56 206t-56 205.5t-163 70.5q-108 0 -164 -70.5t-56 -205.5q0 -136 56.5 -206.5t163.5 -70.5zM389 -17q-102 0 -175.5 44.5t-111.5 126t-38 192.5q0 113 39.5 195t112.5 124.5t173 42.5q151 0 237.5 -96.5t86.5 -265.5q0 -114 -39.5 -195.5
t-112.5 -124.5t-172 -43z" />
    <glyph glyph-name="Pi" unicode="&#x3a0;" horiz-adv-x="696" 
d="M104 0q-20 0 -20 20v653q0 20 20 20h488q20 0 20 -20v-653q0 -20 -20 -20h-62q-20 0 -20 20v590h-324v-590q0 -20 -20 -20h-62z" />
    <glyph glyph-name="Rho" unicode="&#x3a1;" horiz-adv-x="600" 
d="M104 0q-20 0 -20 20v653q0 20 20 20h231q101 0 161 -57.5t60 -155.5q0 -97 -60 -154.5t-161 -57.5h-152v-248q0 -20 -20 -20h-59zM326 349q63 0 95 33.5t32 97.5q0 132 -127 132h-143v-263h143z" />
    <glyph glyph-name="Sigma" unicode="&#x3a3;" horiz-adv-x="562" 
d="M58 0q-20 0 -20 20v36q0 14 3 21.5t12 18.5l203 258l-189 243q-9 11 -12 18.5t-3 21.5v36q0 20 20 20h436q20 0 20 -20v-43q0 -20 -20 -20h-338l182 -232q9 -12 9 -22q0 -11 -9 -21l-200 -252h364q20 0 20 -20v-43q0 -20 -20 -20h-458z" />
    <glyph glyph-name="Tau" unicode="&#x3a4;" horiz-adv-x="574" 
d="M256 0q-20 0 -20 20v589h-201q-20 0 -20 20v44q0 20 20 20h504q20 0 20 -20v-44q0 -20 -20 -20h-201v-589q0 -20 -20 -20h-62z" />
    <glyph glyph-name="Upsilon" unicode="&#x3a5;" horiz-adv-x="602" 
d="M269 0q-20 0 -20 20v235l-218 401q-11 20 -11 26q0 11 15 11h72q10 0 15 -2.5t10 -12.5l169 -340l172 340q5 10 10 12.5t15 2.5h69q15 0 15 -11q0 -6 -11 -26l-222 -403v-233q0 -20 -20 -20h-60z" />
    <glyph glyph-name="Phi" unicode="&#x3a6;" horiz-adv-x="842" 
d="M396 -30q-20 0 -20 20v65q-154 5 -237 81t-83 211t83 211t237 81v64q0 20 20 20h50q20 0 20 -20v-64q154 -5 237 -81t83 -211t-83 -211t-237 -81v-65q0 -20 -20 -20h-50zM376 564q-109 -4 -165.5 -58.5t-56.5 -158.5t56.5 -158.5t165.5 -58.5v434zM466 130
q109 4 165.5 58.5t56.5 158.5t-56.5 158.5t-165.5 58.5v-434z" />
    <glyph glyph-name="Chi" unicode="&#x3a7;" horiz-adv-x="604" 
d="M35 0q-17 0 -17 13q0 7 11 23l215 322l-200 299q-11 17 -11 23q0 13 17 13h68q10 0 15.5 -2.5t9.5 -8.5l161 -249l159 249q4 6 9.5 8.5t15.5 2.5h65q17 0 17 -13q0 -8 -11 -23l-200 -296l216 -325q11 -16 11 -23q0 -13 -17 -13h-69q-10 0 -15.5 2.5t-9.5 8.5l-176 275
l-174 -275q-4 -6 -9.5 -8.5t-15.5 -2.5h-65z" />
    <glyph glyph-name="Psi" unicode="&#x3a8;" horiz-adv-x="787" 
d="M363 0q-20 0 -20 20v159q-139 11 -209 82t-70 201v211q0 20 20 20h60q20 0 20 -20v-217q0 -90 45 -140.5t134 -58.5v416q0 20 20 20h61q20 0 20 -20v-416q89 8 134 58.5t45 140.5v217q0 20 20 20h60q20 0 20 -20v-211q0 -130 -70 -201t-209 -82v-159q0 -20 -20 -20h-61z
" />
    <glyph glyph-name="uni03A9" unicode="&#x3a9;" horiz-adv-x="766" 
d="M58 0q-20 0 -20 20v39q0 20 20 20h154q-71 47 -109.5 122t-38.5 169q0 157 85.5 247.5t233.5 90.5t233.5 -90.5t85.5 -247.5q0 -94 -38.5 -169.5t-110.5 -121.5h155q20 0 20 -20v-39q0 -20 -20 -20h-241q-20 0 -20 20v42q0 10 4 15.5t15 13.5q131 93 131 277
q0 124 -54.5 188.5t-159.5 64.5t-159.5 -64.5t-54.5 -188.5q0 -185 131 -277q11 -8 15 -13.5t4 -15.5v-42q0 -20 -20 -20h-241z" />
    <glyph glyph-name="Iotadieresis" unicode="&#x3aa;" horiz-adv-x="278" 
d="M108 0q-20 0 -20 20v653q0 20 20 20h62q20 0 20 -20v-653q0 -20 -20 -20h-62zM33 779q-27 0 -44 16t-17 42t16.5 42t44.5 16q27 0 44 -16t17 -42t-16.5 -42t-44.5 -16zM245 779q-27 0 -44 16t-17 42t16.5 42t44.5 16q27 0 44 -16t17 -42t-16.5 -42t-44.5 -16z" />
    <glyph glyph-name="Upsilondieresis" unicode="&#x3ab;" horiz-adv-x="602" 
d="M269 0q-20 0 -20 20v235l-218 401q-11 20 -11 26q0 11 15 11h72q10 0 15 -2.5t10 -12.5l169 -340l172 340q5 10 10 12.5t15 2.5h69q15 0 15 -11q0 -6 -11 -26l-222 -403v-233q0 -20 -20 -20h-60zM196 779q-27 0 -44 16t-17 42t16.5 42t44.5 16q27 0 44 -16t17 -42
t-16.5 -42t-44.5 -16zM408 779q-27 0 -44 16t-17 42t16.5 42t44.5 16q27 0 44 -16t17 -42t-16.5 -42t-44.5 -16z" />
    <glyph glyph-name="alphatonos" unicode="&#x3ac;" horiz-adv-x="614" 
d="M268 65q57 0 95.5 54t52.5 152q-20 82 -58.5 126.5t-88.5 44.5q-56 0 -88 -51.5t-32 -140.5q0 -85 32 -135t87 -50zM248 -15q-61 0 -106.5 33.5t-69.5 92t-24 134.5q0 83 28 146t75 97t106 34q120 0 173 -137q3 24 8 46.5t10 46.5q4 19 10 24t21 5h54q15 0 15 -13
q0 -6 -7 -39q-38 -165 -38 -268q0 -42 5 -64.5t16 -33.5q14 -14 41 -14q7 0 12.5 1t10.5 1q14 0 14 -20v-26q0 -14 -4.5 -20.5t-15.5 -9.5q-25 -6 -49 -6q-53 0 -79 29t-32 97q-23 -66 -68 -101t-106 -35zM264 601q-15 0 -15 12q0 7 5 19l50 119q4 9 7 13.5t8.5 6.5t15.5 2
h62q13 0 13 -10q0 -7 -9 -21l-73 -120q-9 -14 -13 -17.5t-12 -3.5h-39z" />
    <glyph glyph-name="epsilontonos" unicode="&#x3ad;" horiz-adv-x="469" 
d="M259 -15q-100 0 -155.5 39.5t-55.5 109.5q0 49 30.5 83.5t86.5 48.5q-50 15 -76.5 45t-26.5 72q0 65 52.5 102t143.5 37q71 0 138 -24q12 -5 16 -10.5t4 -18.5v-29q0 -18 -13 -18q-5 0 -40 9q-46 12 -98 12t-80 -17.5t-28 -49.5q0 -35 28.5 -54t82.5 -19h71q20 0 20 -20
v-38q0 -20 -20 -20h-73q-123 0 -123 -81q0 -41 31 -60.5t96 -19.5q30 0 64 5t55 12q26 8 31 8q13 0 13 -18v-30q0 -13 -4 -19t-16 -10q-67 -27 -154 -27zM236 601q-15 0 -15 12q0 7 5 19l50 119q4 9 7 13.5t8.5 6.5t15.5 2h62q13 0 13 -10q0 -7 -9 -21l-73 -120
q-9 -14 -13 -17.5t-12 -3.5h-39z" />
    <glyph glyph-name="etatonos" unicode="&#x3ae;" horiz-adv-x="604" 
d="M453 -206q-20 0 -20 20v525q0 53 -21.5 78t-67.5 25q-79 0 -155 -51v-371q0 -20 -20 -20h-59q-20 0 -20 20v371q0 22 -9.5 32t-30.5 10q-6 0 -11 -1t-10 -1q-8 0 -11 4.5t-3 14.5v27q0 14 4.5 20.5t15.5 9.5q20 6 47 6q39 0 64 -16t35 -47q98 72 202 72q73 0 111 -38.5
t38 -111.5v-558q0 -20 -20 -20h-59zM287 601q-15 0 -15 12q0 7 5 19l50 119q4 9 7 13.5t8.5 6.5t15.5 2h62q13 0 13 -10q0 -7 -9 -21l-73 -120q-9 -14 -13 -17.5t-12 -3.5h-39z" />
    <glyph glyph-name="iotatonos" unicode="&#x3af;" horiz-adv-x="287" 
d="M189 -5q-56 0 -85.5 30.5t-29.5 88.5v373q0 20 20 20h59q20 0 20 -20v-367q0 -24 10.5 -34.5t36.5 -10.5q10 0 17.5 1.5t12.5 1.5q8 0 11 -4.5t3 -14.5v-28q0 -14 -4.5 -21t-15.5 -9q-27 -6 -55 -6zM106 601q-15 0 -15 12q0 7 5 19l50 119q4 9 7 13.5t8.5 6.5t15.5 2h62
q13 0 13 -10q0 -7 -9 -21l-73 -120q-9 -14 -13 -17.5t-12 -3.5h-39z" />
    <glyph glyph-name="upsilondieresistonos" unicode="&#x3b0;" horiz-adv-x="564" 
d="M278 -15q-97 0 -144.5 55.5t-47.5 168.5v182q0 22 -9 32t-29 10q-6 0 -12 -1t-11 -1q-8 0 -11 4.5t-3 14.5v27q0 14 4.5 20.5t15.5 9.5q20 6 47 6q107 0 107 -113v-195q0 -140 101 -140q61 0 94 49t33 141q0 52 -10.5 111.5t-27.5 108.5q-4 11 -4 18q0 14 16 14h53
q12 0 19 -4.5t12 -17.5q20 -52 31.5 -112t11.5 -114q0 -131 -61.5 -202.5t-174.5 -71.5zM149 598q-27 0 -42 15t-15 40t15 40t42 15t42 -15t15 -40t-15 -40t-42 -15zM369 598q-27 0 -42 15t-15 40t15 40t42 15t42 -15t15 -40t-15 -40t-42 -15zM241 727q-15 0 -15 12
q0 8 5 19l46 108q4 9 7 13.5t8.5 6.5t15.5 2h59q13 0 13 -10q0 -7 -9 -21l-70 -109q-9 -14 -13 -17.5t-12 -3.5h-35z" />
    <glyph glyph-name="alpha" unicode="&#x3b1;" horiz-adv-x="614" 
d="M268 65q57 0 95.5 54t52.5 152q-20 82 -58.5 126.5t-88.5 44.5q-56 0 -88 -51.5t-32 -140.5q0 -85 32 -135t87 -50zM248 -15q-61 0 -106.5 33.5t-69.5 92t-24 134.5q0 83 28 146t75 97t106 34q120 0 173 -137q3 24 8 46.5t10 46.5q4 19 10 24t21 5h54q15 0 15 -13
q0 -6 -7 -39q-38 -165 -38 -268q0 -42 5 -64.5t16 -33.5q14 -14 41 -14q7 0 12.5 1t10.5 1q14 0 14 -20v-26q0 -14 -4.5 -20.5t-15.5 -9.5q-25 -6 -49 -6q-53 0 -79 29t-32 97q-23 -66 -68 -101t-106 -35z" />
    <glyph glyph-name="beta" unicode="&#x3b2;" horiz-adv-x="585" 
d="M94 -206q-20 0 -20 20v689q0 119 59.5 185t164.5 66q88 0 141.5 -50t53.5 -133q0 -132 -108 -173q74 -16 113 -65.5t39 -126.5q0 -65 -27.5 -114.5t-75.5 -76t-110 -26.5q-42 0 -83.5 14t-71.5 39v-228q0 -20 -20 -20h-55zM300 67q67 0 103 36t36 104q0 70 -42 107.5
t-121 37.5h-15q-20 0 -20 20v34q0 20 20 20h13q59 0 93.5 36.5t34.5 98.5q0 54 -30 86t-80 32q-59 0 -91 -42t-32 -119v-408q30 -20 64 -31.5t67 -11.5z" />
    <glyph glyph-name="gamma" unicode="&#x3b3;" horiz-adv-x="514" 
d="M224 -206q-17 0 -22.5 5.5t-6.5 21.5l-1 24q-6 113 -38.5 237t-108.5 317q-14 35 -22.5 54t-12 28t-3.5 13q0 13 15 13h61q16 0 21.5 -4.5t12.5 -22.5q91 -235 128 -407q51 93 85 192t54 215q3 16 9 21.5t23 5.5h55q16 0 16 -12q0 -5 -4 -27q-28 -127 -82.5 -254
t-126.5 -234q10 -64 16 -138q1 -7 1 -14v-15q0 -10 -4.5 -14.5t-15.5 -4.5h-49z" />
    <glyph glyph-name="delta" unicode="&#x3b4;" horiz-adv-x="569" 
d="M287 65q65 0 99 43t34 124q0 68 -33.5 114t-114.5 89q-123 -57 -123 -205q0 -78 36.5 -121.5t101.5 -43.5zM286 -15q-73 0 -127 30.5t-82.5 84t-28.5 123.5q0 85 43.5 149.5t121.5 95.5q-55 34 -77 65.5t-22 75.5q0 65 52.5 105t138.5 40q73 0 135 -26q13 -5 17.5 -11.5
t4.5 -18.5v-28q0 -10 -3 -14.5t-11 -4.5q-6 0 -38 9q-54 14 -100 14q-101 0 -101 -62q0 -18 8 -32t30 -30t66 -40q113 -62 160.5 -125t47.5 -151q0 -76 -29.5 -132.5t-82.5 -86.5t-123 -30z" />
    <glyph glyph-name="epsilon" unicode="&#x3b5;" horiz-adv-x="469" 
d="M259 -15q-100 0 -155.5 39.5t-55.5 109.5q0 49 30.5 83.5t86.5 48.5q-50 15 -76.5 45t-26.5 72q0 65 52.5 102t143.5 37q71 0 138 -24q12 -5 16 -10.5t4 -18.5v-29q0 -18 -13 -18q-5 0 -40 9q-46 12 -98 12t-80 -17.5t-28 -49.5q0 -35 28.5 -54t82.5 -19h71q20 0 20 -20
v-38q0 -20 -20 -20h-73q-123 0 -123 -81q0 -41 31 -60.5t96 -19.5q30 0 64 5t55 12q26 8 31 8q13 0 13 -18v-30q0 -13 -4 -19t-16 -10q-67 -27 -154 -27z" />
    <glyph glyph-name="zeta" unicode="&#x3b6;" horiz-adv-x="430" 
d="M338 -206q-16 0 -16 12q0 4 1.5 8.5l5.5 16.5q15 45 15 81q0 34 -19 51t-69 30l-39 10q-86 22 -127.5 74t-41.5 139q0 112 65.5 218t210.5 229h-235q-20 0 -20 20v37q0 20 20 20h316q20 0 20 -20v-38q0 -18 -15 -33q-139 -130 -200 -227.5t-61 -189.5q0 -64 29 -97.5
t99 -53.5l35 -10q66 -19 95 -49t29 -80q0 -54 -29 -123q-7 -16 -13.5 -20.5t-23.5 -4.5h-32z" />
    <glyph glyph-name="eta" unicode="&#x3b7;" horiz-adv-x="604" 
d="M453 -206q-20 0 -20 20v525q0 53 -21.5 78t-67.5 25q-79 0 -155 -51v-371q0 -20 -20 -20h-59q-20 0 -20 20v371q0 22 -9.5 32t-30.5 10q-6 0 -11 -1t-10 -1q-8 0 -11 4.5t-3 14.5v27q0 14 4.5 20.5t15.5 9.5q20 6 47 6q39 0 64 -16t35 -47q98 72 202 72q73 0 111 -38.5
t38 -111.5v-558q0 -20 -20 -20h-59z" />
    <glyph glyph-name="theta" unicode="&#x3b8;" 
d="M293 -15q-118 0 -179.5 98.5t-61.5 286.5t62 286t179 98t179 -98t62 -286t-61.5 -286.5t-179.5 -98.5zM293 65q73 0 107 62.5t38 204.5h-290q4 -142 38 -204.5t107 -62.5zM438 408q-4 140 -38 203t-107 63t-107 -63t-38 -203h290z" />
    <glyph glyph-name="iota" unicode="&#x3b9;" horiz-adv-x="287" 
d="M189 -5q-56 0 -85.5 30.5t-29.5 88.5v373q0 20 20 20h59q20 0 20 -20v-367q0 -24 10.5 -34.5t36.5 -10.5q10 0 17.5 1.5t12.5 1.5q8 0 11 -4.5t3 -14.5v-28q0 -14 -4.5 -21t-15.5 -9q-27 -6 -55 -6z" />
    <glyph glyph-name="kappa" unicode="&#x3ba;" horiz-adv-x="528" 
d="M94 0q-20 0 -20 20v467q0 20 20 20h59q20 0 20 -20v-215l201 221q12 14 34 14h64q15 0 15 -12q0 -8 -8 -16l-180 -186l209 -264q9 -10 9 -17q0 -12 -15 -12h-64q-13 0 -21 3t-13 11l-170 224l-61 -65v-153q0 -20 -20 -20h-59z" />
    <glyph glyph-name="lambda" unicode="&#x3bb;" horiz-adv-x="509" 
d="M32 0q-14 0 -14 12q0 7 7 24l195 465l-26 75q-20 58 -39 78t-52 20q-11 0 -21 -2t-16 -2q-15 0 -15 19v28q0 13 4.5 20t16.5 10q27 7 52 7q55 0 88 -31.5t63 -113.5l214 -573q7 -17 7 -24q0 -12 -14 -12h-56q-16 0 -22 5t-12 22l-130 377l-139 -377q-6 -17 -12 -22
t-22 -5h-57z" />
    <glyph glyph-name="uni03BC" unicode="&#x3bc;" horiz-adv-x="601" 
d="M94 -206q-20 0 -20 20v673q0 20 20 20h59q20 0 20 -20v-317q0 -105 98 -105q37 0 69 13t66 41v368q0 20 20 20h59q20 0 20 -20v-372q0 -21 9.5 -30.5t32.5 -9.5q6 0 12 0.5t9 0.5q14 0 14 -20v-25q0 -14 -4.5 -20.5t-15.5 -9.5q-25 -6 -49 -6q-74 0 -95 64
q-76 -74 -161 -74q-56 0 -89 28v-199q0 -20 -20 -20h-54z" />
    <glyph glyph-name="nu" unicode="&#x3bd;" horiz-adv-x="508" 
d="M222 0q-14 0 -20.5 4t-13.5 23l-166 444q-2 6 -4.5 12t-2.5 11q0 13 15 13h59q15 0 21.5 -4.5t12.5 -22.5l128 -393q48 98 81 197.5t49 195.5q3 16 9 21.5t23 5.5h55q16 0 16 -12q0 -9 -4 -27q-23 -107 -68.5 -222.5t-104.5 -218.5q-11 -18 -17 -22.5t-20 -4.5h-48z" />
    <glyph glyph-name="xi" unicode="&#x3be;" horiz-adv-x="441" 
d="M342 -206q-16 0 -16 12q0 4 1.5 8.5l5.5 16.5q15 45 15 81q0 34 -19 51t-69 30l-40 10q-89 22 -130.5 69.5t-41.5 129.5q0 71 38.5 120.5t107.5 66.5q-60 19 -91.5 62.5t-31.5 106.5q0 88 59.5 142t157.5 54q52 0 113 -19q12 -4 16 -10.5t4 -18.5v-29q0 -18 -13 -18
q-3 0 -11 2t-23 6q-30 7 -68 7q-65 0 -100.5 -31.5t-35.5 -90.5q0 -57 37 -90.5t99 -33.5h45q20 0 20 -20v-38q0 -20 -20 -20h-51q-71 0 -111 -36t-40 -99q0 -37 11.5 -61t39.5 -41t80 -32l36 -10q65 -18 94.5 -48.5t29.5 -80.5q0 -54 -29 -123q-7 -16 -13.5 -20.5
t-23.5 -4.5h-32z" />
    <glyph glyph-name="omicron" unicode="&#x3bf;" horiz-adv-x="574" 
d="M287 -15q-112 0 -175.5 71.5t-63.5 197.5t63.5 197t175.5 71t175.5 -71t63.5 -197t-63.5 -197.5t-175.5 -71.5zM287 65q69 0 103.5 48t34.5 141q0 188 -138 188t-138 -188q0 -93 34.5 -141t103.5 -48z" />
    <glyph glyph-name="pi" unicode="&#x3c0;" horiz-adv-x="623" 
d="M516 -5q-56 0 -85.5 30.5t-29.5 88.5v315h-186v-409q0 -20 -20 -20h-59q-20 0 -20 20v409h-79q-20 0 -20 20v38q0 20 20 20h542q20 0 20 -20v-38q0 -20 -20 -20h-79v-309q0 -24 10.5 -34.5t36.5 -10.5q10 0 17.5 1t12.5 1q8 0 11 -4.5t3 -14.5v-27q0 -26 -20 -30
q-27 -6 -55 -6z" />
    <glyph glyph-name="rho" unicode="&#x3c1;" horiz-adv-x="584" 
d="M86 -206q-20 0 -20 20v439q0 125 63.5 197t172.5 72q111 0 172.5 -69t61.5 -193q0 -123 -59 -197t-157 -74q-90 0 -155 59v-234q0 -20 -20 -20h-59zM297 69q138 0 138 186q0 187 -133 187q-67 0 -102 -48t-35 -141v-136q65 -48 132 -48z" />
    <glyph glyph-name="sigma1" unicode="&#x3c2;" horiz-adv-x="453" 
d="M330 -206q-16 0 -16 12q0 4 1.5 8.5l5.5 16.5q15 45 15 81q0 34 -19 51t-69 30l-35 9q-63 16 -107 65q-58 65 -58 185q0 128 64.5 197t182.5 69q54 0 106 -19q11 -4 15.5 -10t4.5 -20v-27q0 -20 -13 -20q-5 0 -16 3q-41 12 -83 12q-83 0 -120.5 -42t-37.5 -136v-13
q0 -48 10 -79t32 -50q26 -22 75 -36l36 -10q65 -18 94.5 -48.5t29.5 -80.5q0 -54 -29 -123q-7 -16 -13.5 -20.5t-23.5 -4.5h-32z" />
    <glyph glyph-name="sigma" unicode="&#x3c3;" horiz-adv-x="595" 
d="M283 -15q-108 0 -171.5 69.5t-63.5 188.5q0 124 70.5 194t196.5 70h232q20 0 20 -20v-38q0 -20 -20 -20h-122q44 -33 67.5 -85t23.5 -117q0 -74 -30 -129t-82.5 -84t-120.5 -29zM283 65q64 0 98 43.5t34 125.5q0 66 -21 117.5t-58 77.5h-23q-81 0 -122.5 -48t-41.5 -140
q0 -85 34.5 -130.5t99.5 -45.5z" />
    <glyph glyph-name="tau" unicode="&#x3c4;" horiz-adv-x="459" 
d="M294 -5q-132 0 -132 128v306h-133q-20 0 -20 20v38q0 20 20 20h394q20 0 20 -20v-38q0 -20 -20 -20h-162v-301q0 -30 14 -41.5t49 -11.5q20 0 33 2.5t22 2.5q8 0 11 -4.5t3 -14.5v-25q0 -13 -4 -19.5t-16 -10.5q-36 -11 -79 -11z" />
    <glyph glyph-name="upsilon" unicode="&#x3c5;" horiz-adv-x="564" 
d="M278 -15q-97 0 -144.5 55.5t-47.5 168.5v182q0 22 -9 32t-29 10q-6 0 -12 -1t-11 -1q-8 0 -11 4.5t-3 14.5v27q0 14 4.5 20.5t15.5 9.5q20 6 47 6q107 0 107 -113v-195q0 -140 101 -140q61 0 94 49t33 141q0 52 -10.5 111.5t-27.5 108.5q-4 11 -4 18q0 14 16 14h53
q12 0 19 -4.5t12 -17.5q20 -52 31.5 -112t11.5 -114q0 -131 -61.5 -202.5t-174.5 -71.5z" />
    <glyph glyph-name="phi" unicode="&#x3c6;" horiz-adv-x="760" 
d="M355 -206q-20 0 -20 20v171q-67 2 -121 22t-91 55.5t-56 84t-19 106.5q0 62 21 111.5t59.5 84t91 53t115.5 20.5v97q0 20 20 20h50q20 0 20 -20v-97q88 -2 153 -36.5t99.5 -94t34.5 -138.5q0 -81 -36 -141t-101 -92.5t-150 -34.5v-171q0 -20 -20 -20h-50zM335 446
q-93 -3 -141.5 -52t-48.5 -141t48.5 -141t141.5 -51v385zM425 61q93 2 141.5 51t48.5 141t-48.5 141t-141.5 52v-385z" />
    <glyph glyph-name="chi" unicode="&#x3c7;" horiz-adv-x="489" 
d="M452 -212q-30 0 -52.5 10.5t-41.5 36.5t-45 87l-67 157l-131 -270q-7 -15 -32 -15h-46q-7 0 -11 3.5t-4 8.5q0 9 9 26l169 333l-77 177q-13 29 -22.5 49.5t-22.5 31.5t-34 11q-6 0 -11 -1t-10 -1q-8 0 -11 4.5t-3 14.5v27q0 13 4.5 19.5t15.5 9.5q20 6 39 6q28 0 49 -10
t39 -36.5t44 -87.5l56 -132l122 245q4 8 11 11.5t21 3.5h46q15 0 15 -12q0 -8 -9 -25l-160 -306l89 -207q19 -45 29.5 -60.5t24 -22.5t34.5 -7q4 0 7.5 0.5t6.5 0.5q8 0 11 -4.5t3 -14.5v-28q0 -27 -20 -30q-9 -2 -17.5 -2.5t-17.5 -0.5z" />
    <glyph glyph-name="psi" unicode="&#x3c8;" horiz-adv-x="721" 
d="M336 -206q-20 0 -20 20v171q-127 5 -195.5 79t-68.5 206v217q0 20 20 20h56q20 0 20 -20v-218q0 -100 42 -151.5t126 -55.5v557q0 20 20 20h49q20 0 20 -20v-557q84 4 126 55.5t42 151.5v218q0 20 20 20h56q20 0 20 -20v-217q0 -132 -68.5 -206t-195.5 -79v-171
q0 -20 -20 -20h-49z" />
    <glyph glyph-name="omega" unicode="&#x3c9;" horiz-adv-x="740" 
d="M224 -10q-55 0 -94.5 29.5t-60.5 81.5t-21 118q0 69 24 139.5t66 128.5q10 14 16 17t16 3h54q16 0 16 -14q0 -3 -2.5 -8t-14.5 -25q-74 -119 -74 -240q0 -72 23 -110t65 -38q41 0 63 34t22 98v120q0 20 20 20h56q20 0 20 -20v-120q0 -64 22 -98t63 -34q42 0 65 38t23 110
q0 121 -74 240q-12 20 -14.5 25t-2.5 8q0 14 16 14h53q10 0 16 -3t16 -17q42 -56 66.5 -127t24.5 -141q0 -69 -22.5 -121.5t-62 -80t-91.5 -27.5q-113 0 -146 122q-35 -122 -146 -122z" />
    <glyph glyph-name="iotadieresis" unicode="&#x3ca;" horiz-adv-x="287" 
d="M189 -5q-56 0 -85.5 30.5t-29.5 88.5v373q0 20 20 20h59q20 0 20 -20v-367q0 -24 10.5 -34.5t36.5 -10.5q10 0 17.5 1.5t12.5 1.5q8 0 11 -4.5t3 -14.5v-28q0 -14 -4.5 -21t-15.5 -9q-27 -6 -55 -6zM15 594q-27 0 -43 16t-16 42t16 41.5t43 15.5q28 0 44 -15.5t16 -41.5
t-16 -42t-44 -16zM231 594q-28 0 -44 16t-16 42t16 41.5t44 15.5q27 0 43 -15.5t16 -41.5t-16 -42t-43 -16z" />
    <glyph glyph-name="upsilondieresis" unicode="&#x3cb;" horiz-adv-x="564" 
d="M278 -15q-97 0 -144.5 55.5t-47.5 168.5v182q0 22 -9 32t-29 10q-6 0 -12 -1t-11 -1q-8 0 -11 4.5t-3 14.5v27q0 14 4.5 20.5t15.5 9.5q20 6 47 6q107 0 107 -113v-195q0 -140 101 -140q61 0 94 49t33 141q0 52 -10.5 111.5t-27.5 108.5q-4 11 -4 18q0 14 16 14h53
q12 0 19 -4.5t12 -17.5q20 -52 31.5 -112t11.5 -114q0 -131 -61.5 -202.5t-174.5 -71.5zM151 594q-27 0 -43 16t-16 42t16 41.5t43 15.5q28 0 44 -15.5t16 -41.5t-16 -42t-44 -16zM367 594q-28 0 -44 16t-16 42t16 41.5t44 15.5q27 0 43 -15.5t16 -41.5t-16 -42t-43 -16z
" />
    <glyph glyph-name="omicrontonos" unicode="&#x3cc;" horiz-adv-x="574" 
d="M287 -15q-112 0 -175.5 71.5t-63.5 197.5t63.5 197t175.5 71t175.5 -71t63.5 -197t-63.5 -197.5t-175.5 -71.5zM287 65q69 0 103.5 48t34.5 141q0 188 -138 188t-138 -188q0 -93 34.5 -141t103.5 -48zM270 601q-15 0 -15 12q0 7 5 19l50 119q4 9 7 13.5t8.5 6.5t15.5 2
h62q13 0 13 -10q0 -7 -9 -21l-73 -120q-9 -14 -13 -17.5t-12 -3.5h-39z" />
    <glyph glyph-name="upsilontonos" unicode="&#x3cd;" horiz-adv-x="564" 
d="M278 -15q-97 0 -144.5 55.5t-47.5 168.5v182q0 22 -9 32t-29 10q-6 0 -12 -1t-11 -1q-8 0 -11 4.5t-3 14.5v27q0 14 4.5 20.5t15.5 9.5q20 6 47 6q107 0 107 -113v-195q0 -140 101 -140q61 0 94 49t33 141q0 52 -10.5 111.5t-27.5 108.5q-4 11 -4 18q0 14 16 14h53
q12 0 19 -4.5t12 -17.5q20 -52 31.5 -112t11.5 -114q0 -131 -61.5 -202.5t-174.5 -71.5zM242 601q-15 0 -15 12q0 7 5 19l50 119q4 9 7 13.5t8.5 6.5t15.5 2h62q13 0 13 -10q0 -7 -9 -21l-73 -120q-9 -14 -13 -17.5t-12 -3.5h-39z" />
    <glyph glyph-name="omegatonos" unicode="&#x3ce;" horiz-adv-x="740" 
d="M224 -10q-55 0 -94.5 29.5t-60.5 81.5t-21 118q0 69 24 139.5t66 128.5q10 14 16 17t16 3h54q16 0 16 -14q0 -3 -2.5 -8t-14.5 -25q-74 -119 -74 -240q0 -72 23 -110t65 -38q41 0 63 34t22 98v120q0 20 20 20h56q20 0 20 -20v-120q0 -64 22 -98t63 -34q42 0 65 38t23 110
q0 121 -74 240q-12 20 -14.5 25t-2.5 8q0 14 16 14h53q10 0 16 -3t16 -17q42 -56 66.5 -127t24.5 -141q0 -69 -22.5 -121.5t-62 -80t-91.5 -27.5q-113 0 -146 122q-35 -122 -146 -122zM353 601q-15 0 -15 12q0 7 5 19l50 119q4 9 7 13.5t8.5 6.5t15.5 2h62q13 0 13 -10
q0 -7 -9 -21l-73 -120q-9 -14 -13 -17.5t-12 -3.5h-39z" />
    <glyph glyph-name="uni03D7" unicode="&#x3d7;" horiz-adv-x="529" 
d="M297 -218q-48 0 -90 11q-12 3 -16 9t-4 19v26q0 18 13 18q5 0 23 -3q30 -5 61 -5q52 0 84.5 15t49 47t17.5 86q-41 23 -79 74l-121 160l-62 -66v-153q0 -20 -20 -20h-59q-20 0 -20 20v467q0 20 20 20h59q20 0 20 -20v-215l201 221q12 14 34 14h64q15 0 15 -12
q0 -8 -8 -16l-180 -186l117 -148q44 -55 87 -84q14 -9 18.5 -16t4.5 -21v-14q0 -112 -58 -170t-171 -58z" />
    <glyph glyph-name="uni0400" unicode="&#x400;" horiz-adv-x="561" 
d="M104 0q-20 0 -20 20v653q0 20 20 20h391q20 0 20 -20v-42q0 -20 -20 -20h-309v-213h256q20 0 20 -20v-42q0 -20 -20 -20h-256v-234h309q20 0 20 -20v-42q0 -20 -20 -20h-391zM277 769q-10 0 -19 4.5t-22 15.5l-79 73q-8 7 -10.5 11t-2.5 8q0 11 13 11h67q12 0 20 -4
t19 -18l59 -72q11 -12 11 -17q0 -12 -15 -12h-41z" />
    <glyph glyph-name="uni0401" unicode="&#x401;" horiz-adv-x="561" 
d="M104 0q-20 0 -20 20v653q0 20 20 20h391q20 0 20 -20v-42q0 -20 -20 -20h-309v-213h256q20 0 20 -20v-42q0 -20 -20 -20h-256v-234h309q20 0 20 -20v-42q0 -20 -20 -20h-391zM193 779q-27 0 -44 16t-17 42t16.5 42t44.5 16q27 0 44 -16t17 -42t-16.5 -42t-44.5 -16z
M405 779q-27 0 -44 16t-17 42t16.5 42t44.5 16q27 0 44 -16t17 -42t-16.5 -42t-44.5 -16z" />
    <glyph glyph-name="uni0402" unicode="&#x402;" horiz-adv-x="767" 
d="M496 -12q-32 0 -67 8q-10 2 -15 8.5t-5 21.5v30q0 17 14 17q8 0 22.5 -2.5t31.5 -2.5q75 0 109.5 33t34.5 106q0 70 -39 103.5t-122 33.5q-73 0 -150 -12v-312q0 -20 -20 -20h-62q-20 0 -20 20v589h-173q-20 0 -20 20v44q0 20 20 20h494q20 0 20 -20v-44q0 -20 -20 -20
h-219v-202q88 18 174 18q119 0 179.5 -55t60.5 -162q0 -106 -59 -163t-169 -57z" />
    <glyph glyph-name="uni0403" unicode="&#x403;" horiz-adv-x="505" 
d="M104 0q-20 0 -20 20v653q0 20 20 20h366q20 0 20 -20v-44q0 -20 -20 -20h-284v-589q0 -20 -20 -20h-62zM268 769q-15 0 -15 12q0 5 11 17l59 72q11 14 19 18t20 4h67q13 0 13 -11q0 -4 -2.5 -8t-10.5 -11l-79 -73q-13 -11 -22 -15.5t-19 -4.5h-41z" />
    <glyph glyph-name="uni0404" unicode="&#x404;" horiz-adv-x="617" 
d="M405 -12q-341 0 -341 356q0 174 88.5 266.5t256.5 92.5q74 0 142 -20q12 -4 16 -10.5t4 -19.5v-39q0 -19 -15 -19q-7 0 -39 8q-44 11 -96 11q-123 0 -183 -52.5t-66 -166.5h296q20 0 20 -20v-43q0 -20 -20 -20h-297q2 -123 61 -179t184 -56q58 0 112 14q32 8 39 8
q15 0 15 -19v-38q0 -13 -4 -19.5t-16 -10.5q-77 -24 -157 -24z" />
    <glyph glyph-name="uni0405" unicode="&#x405;" horiz-adv-x="570" 
d="M264 -17q-48 0 -96 8.5t-84 23.5q-12 5 -16 11t-4 19v36q0 19 15 19q6 0 28 -7q35 -11 77 -17.5t78 -6.5q71 0 111.5 31t40.5 84q0 37 -23.5 61.5t-79.5 46.5l-97 37q-82 31 -119 75t-37 111q0 58 30 102t82.5 67.5t119.5 23.5q83 0 165 -29q11 -4 15.5 -10t4.5 -20v-35
q0 -19 -14 -19q-5 0 -10 1t-19 5q-72 21 -135 21q-65 0 -100.5 -26.5t-35.5 -75.5q0 -40 24 -63.5t89 -47.5l91 -34q81 -30 116.5 -72.5t35.5 -109.5q0 -96 -68.5 -153t-184.5 -57z" />
    <glyph glyph-name="uni0406" unicode="&#x406;" horiz-adv-x="278" 
d="M108 0q-20 0 -20 20v653q0 20 20 20h62q20 0 20 -20v-653q0 -20 -20 -20h-62z" />
    <glyph glyph-name="uni0407" unicode="&#x407;" horiz-adv-x="278" 
d="M108 0q-20 0 -20 20v653q0 20 20 20h62q20 0 20 -20v-653q0 -20 -20 -20h-62zM33 779q-27 0 -44 16t-17 42t16.5 42t44.5 16q27 0 44 -16t17 -42t-16.5 -42t-44.5 -16zM245 779q-27 0 -44 16t-17 42t16.5 42t44.5 16q27 0 44 -16t17 -42t-16.5 -42t-44.5 -16z" />
    <glyph glyph-name="uni0408" unicode="&#x408;" horiz-adv-x="437" 
d="M148 -17q-49 0 -102 18q-11 4 -15.5 10t-4.5 20v34q0 19 14 19q7 0 24 -5q41 -10 75 -10q62 0 89 31.5t27 103.5v469q0 20 20 20h62q20 0 20 -20v-467q0 -223 -209 -223z" />
    <glyph glyph-name="uni0409" unicode="&#x409;" horiz-adv-x="967" 
d="M69 -8q-15 0 -29 2q-11 2 -15.5 8.5t-4.5 21.5v37q0 12 4.5 15.5t16.5 3.5q48 0 78.5 45t52.5 159t43 342l4 46q1 12 5.5 16.5t14.5 4.5h318q20 0 20 -20v-258h119q105 0 166.5 -55.5t61.5 -151.5q0 -97 -61.5 -152.5t-166.5 -55.5h-201q-20 0 -20 20v590h-164
q-16 -178 -34.5 -293.5t-44 -187.5t-64 -104.5t-99.5 -32.5zM691 79q66 0 98 31.5t32 97.5q0 65 -32 96.5t-98 31.5h-114v-257h114z" />
    <glyph glyph-name="uni040A" unicode="&#x40a;" horiz-adv-x="972" 
d="M104 0q-20 0 -20 20v653q0 20 20 20h62q20 0 20 -20v-278h295v278q0 20 20 20h62q20 0 20 -20v-267h118q104 0 166 -54.5t62 -148.5t-62 -148.5t-166 -54.5h-200q-20 0 -20 20v293h-295v-293q0 -20 -20 -20h-62zM583 79h113q130 0 130 124t-130 124h-113v-248z" />
    <glyph glyph-name="uni040B" unicode="&#x40b;" horiz-adv-x="790" 
d="M228 0q-20 0 -20 20v589h-173q-20 0 -20 20v44q0 20 20 20h494q20 0 20 -20v-44q0 -20 -20 -20h-219v-202q100 20 199 20q105 0 159.5 -45.5t54.5 -131.5v-230q0 -20 -20 -20h-62q-20 0 -20 20v210q0 61 -33.5 88.5t-106.5 27.5q-76 0 -171 -15v-311q0 -20 -20 -20h-62z
" />
    <glyph glyph-name="uni040C" unicode="&#x40c;" horiz-adv-x="617" 
d="M104 0q-20 0 -20 20v653q0 20 20 20h62q20 0 20 -20v-299l273 304q8 9 16.5 12t23.5 3h65q14 0 14 -12q0 -7 -9 -16l-280 -302l307 -335q9 -9 9 -16q0 -12 -14 -12h-68q-16 0 -25 3t-17 12l-295 325v-320q0 -20 -20 -20h-62zM289 769q-15 0 -15 12q0 5 11 17l59 72
q11 14 19 18t20 4h67q13 0 13 -11q0 -4 -2.5 -8t-10.5 -11l-79 -73q-13 -11 -22 -15.5t-19 -4.5h-41z" />
    <glyph glyph-name="uni040D" unicode="&#x40d;" horiz-adv-x="725" 
d="M104 0q-20 0 -20 20v653q0 20 20 20h60q20 0 20 -20v-525l346 527q10 18 38 18h53q20 0 20 -20v-653q0 -20 -20 -20h-60q-20 0 -20 20v526l-346 -528q-10 -18 -38 -18h-53zM337 769q-10 0 -19 4.5t-22 15.5l-79 73q-8 7 -10.5 11t-2.5 8q0 11 13 11h67q12 0 20 -4t19 -18
l59 -72q11 -12 11 -17q0 -12 -15 -12h-41z" />
    <glyph glyph-name="uni040E" unicode="&#x40e;" horiz-adv-x="605" 
d="M162 -15q-6 0 -14 0.5t-18 1.5q-12 1 -17 7.5t-5 20.5v39q0 19 15 19q7 0 14 -1t15 -1q48 0 78 22t50 71l-250 491q-11 21 -11 27q0 11 15 11h72q10 0 14.5 -2.5t9.5 -12.5l194 -411l160 411q3 9 8 12t17 3h69q15 0 15 -11q0 -6 -9 -26l-221 -515q-35 -83 -81.5 -119.5
t-119.5 -36.5zM312 765q-72 0 -115.5 35.5t-43.5 93.5v6q0 22 16 22h40q16 0 17 -17l1 -9q8 -67 85 -67t85 67l1 9q1 17 17 17h40q16 0 16 -22v-6q0 -58 -43.5 -93.5t-115.5 -35.5z" />
    <glyph glyph-name="uni040F" unicode="&#x40f;" horiz-adv-x="683" 
d="M315 -176q-20 0 -20 20v156h-191q-20 0 -20 20v653q0 20 20 20h62q20 0 20 -20v-590h311v590q0 20 20 20h62q20 0 20 -20v-653q0 -20 -20 -20h-191v-156q0 -20 -20 -20h-53z" />
    <glyph glyph-name="uni0410" unicode="&#x410;" horiz-adv-x="642" 
d="M437 261l-118 340l-116 -340h234zM33 0q-17 0 -17 13q0 7 6 23l234 630q6 18 12.5 22.5t21.5 4.5h62q15 0 21.5 -4.5t12.5 -22.5l234 -630q6 -16 6 -23q0 -13 -17 -13h-57q-15 0 -21.5 4.5t-12.5 22.5l-55 157h-287l-53 -157q-6 -18 -12.5 -22.5t-21.5 -4.5h-56z" />
    <glyph glyph-name="uni0411" unicode="&#x411;" horiz-adv-x="595" 
d="M104 0q-20 0 -20 20v653q0 20 20 20h379q20 0 20 -20v-44q0 -20 -20 -20h-297v-200h139q107 0 167 -54.5t60 -150.5t-60 -150t-167 -54h-221zM323 79q126 0 126 125q0 126 -126 126h-137v-251h137z" />
    <glyph glyph-name="uni0412" unicode="&#x412;" horiz-adv-x="613" 
d="M104 0q-20 0 -20 20v653q0 20 20 20h209q97 0 156 -50t59 -133q0 -52 -24 -89.5t-69 -57.5q64 -19 98 -62.5t34 -107.5q0 -88 -62 -140.5t-166 -52.5h-235zM337 78q127 0 127 119q0 59 -32.5 89t-96.5 30h-154v-238h156zM303 392q124 0 124 111q0 55 -30.5 83.5
t-90.5 28.5h-125v-223h122z" />
    <glyph glyph-name="uni0413" unicode="&#x413;" horiz-adv-x="505" 
d="M104 0q-20 0 -20 20v653q0 20 20 20h366q20 0 20 -20v-44q0 -20 -20 -20h-284v-589q0 -20 -20 -20h-62z" />
    <glyph glyph-name="uni0414" unicode="&#x414;" horiz-adv-x="735" 
d="M512 83v527h-195q-21 -223 -54 -348t-85 -179h334zM44 -176q-20 0 -20 20v219q0 20 20 20h26q58 56 95.5 187.5t57.5 347.5l5 54q1 12 5.5 16.5t14.5 4.5h345q20 0 20 -20v-590h73q20 0 20 -20v-219q0 -20 -20 -20h-53q-20 0 -20 20v156h-496v-156q0 -20 -20 -20h-53z
" />
    <glyph glyph-name="uni0415" unicode="&#x415;" horiz-adv-x="561" 
d="M104 0q-20 0 -20 20v653q0 20 20 20h391q20 0 20 -20v-42q0 -20 -20 -20h-309v-213h256q20 0 20 -20v-42q0 -20 -20 -20h-256v-234h309q20 0 20 -20v-42q0 -20 -20 -20h-391z" />
    <glyph glyph-name="uni0416" unicode="&#x416;" horiz-adv-x="886" 
d="M34 0q-14 0 -14 12q0 7 8 17l272 333l-252 303q-8 9 -8 16q0 12 14 12h60q14 0 21.5 -3t14.5 -12l244 -304v299q0 11 4 15.5t14 4.5h60q20 0 20 -20v-299l244 304q6 8 13.5 11.5t22.5 3.5h60q14 0 14 -12q0 -7 -8 -16l-252 -303l272 -333q8 -10 8 -17q0 -12 -14 -12h-62
q-16 0 -24.5 3t-16.5 12l-257 325v-320q0 -20 -20 -20h-58q-20 0 -20 20v320l-257 -325q-8 -9 -16.5 -12t-24.5 -3h-62z" />
    <glyph glyph-name="uni0417" unicode="&#x417;" horiz-adv-x="551" 
d="M227 -14q-86 0 -172 29q-12 4 -16 10.5t-4 19.5v37q0 8 4 13t11 5q6 0 30 -7q72 -21 145 -21q88 0 133 31.5t45 93.5q0 117 -151 117h-97q-20 0 -20 20v41q0 20 20 20h72q156 0 156 113t-154 113q-63 0 -132 -20q-22 -7 -31 -7q-14 0 -14 17v35q0 14 4 20t16 10
q78 31 170 31q112 0 177.5 -51.5t65.5 -139.5q0 -54 -27.5 -93t-79.5 -60q62 -19 94.5 -64t32.5 -110q0 -93 -75.5 -148t-202.5 -55z" />
    <glyph glyph-name="uni0418" unicode="&#x418;" horiz-adv-x="725" 
d="M104 0q-20 0 -20 20v653q0 20 20 20h60q20 0 20 -20v-525l346 527q10 18 38 18h53q20 0 20 -20v-653q0 -20 -20 -20h-60q-20 0 -20 20v526l-346 -528q-10 -18 -38 -18h-53z" />
    <glyph glyph-name="uni0419" unicode="&#x419;" horiz-adv-x="725" 
d="M104 0q-20 0 -20 20v653q0 20 20 20h60q20 0 20 -20v-525l346 527q10 18 38 18h53q20 0 20 -20v-653q0 -20 -20 -20h-60q-20 0 -20 20v526l-346 -528q-10 -18 -38 -18h-53zM359 765q-72 0 -115.5 35.5t-43.5 93.5v6q0 22 16 22h40q16 0 17 -17l1 -9q8 -67 85 -67t85 67
l1 9q1 17 17 17h40q16 0 16 -22v-6q0 -58 -43.5 -93.5t-115.5 -35.5z" />
    <glyph glyph-name="uni041A" unicode="&#x41a;" horiz-adv-x="617" 
d="M104 0q-20 0 -20 20v653q0 20 20 20h62q20 0 20 -20v-299l273 304q8 9 16.5 12t23.5 3h65q14 0 14 -12q0 -7 -9 -16l-280 -302l307 -335q9 -9 9 -16q0 -12 -14 -12h-68q-16 0 -25 3t-17 12l-295 325v-320q0 -20 -20 -20h-62z" />
    <glyph glyph-name="uni041B" unicode="&#x41b;" horiz-adv-x="688" 
d="M69 -8q-15 0 -29 2q-11 2 -15.5 8.5t-4.5 21.5v37q0 12 4.5 15.5t16.5 3.5q48 0 78.5 45t52.5 159t43 342l4 46q1 12 5.5 16.5t14.5 4.5h345q20 0 20 -20v-653q0 -20 -20 -20h-62q-20 0 -20 20v590h-191q-16 -178 -34.5 -293.5t-44 -187.5t-64 -104.5t-99.5 -32.5z" />
    <glyph glyph-name="uni041C" unicode="&#x41c;" horiz-adv-x="840" 
d="M104 0q-20 0 -20 20v653q0 20 20 20h75q11 0 17 -3.5t11 -13.5l215 -408l214 408q5 10 11 13.5t17 3.5h72q20 0 20 -20v-653q0 -20 -20 -20h-54q-20 0 -20 20v525l-186 -351q-8 -17 -29 -17h-53q-11 0 -17.5 4t-11.5 13l-187 352v-526q0 -20 -20 -20h-54z" />
    <glyph glyph-name="uni041D" unicode="&#x41d;" horiz-adv-x="718" 
d="M104 0q-20 0 -20 20v653q0 20 20 20h62q20 0 20 -20v-278h346v278q0 20 20 20h62q20 0 20 -20v-653q0 -20 -20 -20h-62q-20 0 -20 20v292h-346v-292q0 -20 -20 -20h-62z" />
    <glyph glyph-name="uni041E" unicode="&#x41e;" horiz-adv-x="777" 
d="M389 69q107 0 163 71t56 206t-56 205.5t-163 70.5q-108 0 -164 -70.5t-56 -205.5q0 -136 56.5 -206.5t163.5 -70.5zM389 -17q-102 0 -175.5 44.5t-111.5 126t-38 192.5q0 113 39.5 195t112.5 124.5t173 42.5q151 0 237.5 -96.5t86.5 -265.5q0 -114 -39.5 -195.5
t-112.5 -124.5t-172 -43z" />
    <glyph glyph-name="uni041F" unicode="&#x41f;" horiz-adv-x="696" 
d="M104 0q-20 0 -20 20v653q0 20 20 20h488q20 0 20 -20v-653q0 -20 -20 -20h-62q-20 0 -20 20v590h-324v-590q0 -20 -20 -20h-62z" />
    <glyph glyph-name="uni0420" unicode="&#x420;" horiz-adv-x="600" 
d="M104 0q-20 0 -20 20v653q0 20 20 20h231q101 0 161 -57.5t60 -155.5q0 -97 -60 -154.5t-161 -57.5h-152v-248q0 -20 -20 -20h-59zM326 349q63 0 95 33.5t32 97.5q0 132 -127 132h-143v-263h143z" />
    <glyph glyph-name="uni0421" unicode="&#x421;" horiz-adv-x="607" 
d="M397 -12q-164 0 -248.5 90.5t-84.5 265.5q0 173 87.5 266t250.5 93q70 0 140 -20q12 -4 16 -10.5t4 -19.5v-38q0 -19 -14 -19q-4 0 -10.5 1t-23.5 5q-54 12 -100 12q-126 0 -184 -61.5t-58 -195.5v-24q0 -132 56.5 -194t179.5 -62q41 0 119 16q14 3 20 4t10 1
q15 0 15 -19v-37q0 -13 -4 -19.5t-16 -10.5q-72 -24 -155 -24z" />
    <glyph glyph-name="uni0422" unicode="&#x422;" horiz-adv-x="574" 
d="M256 0q-20 0 -20 20v589h-201q-20 0 -20 20v44q0 20 20 20h504q20 0 20 -20v-44q0 -20 -20 -20h-201v-589q0 -20 -20 -20h-62z" />
    <glyph glyph-name="uni0423" unicode="&#x423;" horiz-adv-x="605" 
d="M162 -15q-6 0 -14 0.5t-18 1.5q-12 1 -17 7.5t-5 20.5v39q0 19 15 19q7 0 14 -1t15 -1q48 0 78 22t50 71l-250 491q-11 21 -11 27q0 11 15 11h72q10 0 14.5 -2.5t9.5 -12.5l194 -411l160 411q3 9 8 12t17 3h69q15 0 15 -11q0 -6 -9 -26l-221 -515q-35 -83 -81.5 -119.5
t-119.5 -36.5z" />
    <glyph glyph-name="uni0424" unicode="&#x424;" horiz-adv-x="842" 
d="M396 -30q-20 0 -20 20v65q-154 5 -237 81t-83 211t83 211t237 81v64q0 20 20 20h50q20 0 20 -20v-64q154 -5 237 -81t83 -211t-83 -211t-237 -81v-65q0 -20 -20 -20h-50zM376 564q-109 -4 -165.5 -58.5t-56.5 -158.5t56.5 -158.5t165.5 -58.5v434zM466 130
q109 4 165.5 58.5t56.5 158.5t-56.5 158.5t-165.5 58.5v-434z" />
    <glyph glyph-name="uni0425" unicode="&#x425;" horiz-adv-x="604" 
d="M35 0q-17 0 -17 13q0 7 11 23l215 322l-200 299q-11 17 -11 23q0 13 17 13h68q10 0 15.5 -2.5t9.5 -8.5l161 -249l159 249q4 6 9.5 8.5t15.5 2.5h65q17 0 17 -13q0 -8 -11 -23l-200 -296l216 -325q11 -16 11 -23q0 -13 -17 -13h-69q-10 0 -15.5 2.5t-9.5 8.5l-176 275
l-174 -275q-4 -6 -9.5 -8.5t-15.5 -2.5h-65z" />
    <glyph glyph-name="uni0426" unicode="&#x426;" horiz-adv-x="710" 
d="M608 -176q-20 0 -20 20v156h-484q-20 0 -20 20v653q0 20 20 20h62q20 0 20 -20v-590h300v590q0 20 20 20h62q20 0 20 -20v-590h73q20 0 20 -20v-219q0 -20 -20 -20h-53z" />
    <glyph glyph-name="uni0427" unicode="&#x427;" horiz-adv-x="663" 
d="M497 0q-20 0 -20 20v266q-94 -28 -198 -28t-159.5 45.5t-55.5 132.5v237q0 20 20 20h62q20 0 20 -20v-215q0 -62 33 -90t106 -28q88 0 172 22v311q0 20 20 20h62q20 0 20 -20v-653q0 -20 -20 -20h-62z" />
    <glyph glyph-name="uni0428" unicode="&#x428;" horiz-adv-x="980" 
d="M104 0q-20 0 -20 20v653q0 20 20 20h60q20 0 20 -20v-590h256v590q0 20 20 20h60q20 0 20 -20v-590h256v590q0 20 20 20h60q20 0 20 -20v-653q0 -20 -20 -20h-772z" />
    <glyph glyph-name="uni0429" unicode="&#x429;" horiz-adv-x="1000" 
d="M898 -176q-20 0 -20 20v156h-774q-20 0 -20 20v653q0 20 20 20h60q20 0 20 -20v-590h247v590q0 20 20 20h60q20 0 20 -20v-590h247v590q0 20 20 20h60q20 0 20 -20v-590h73q20 0 20 -20v-219q0 -20 -20 -20h-53z" />
    <glyph glyph-name="uni042A" unicode="&#x42a;" horiz-adv-x="708" 
d="M226 0q-20 0 -20 20v589h-171q-20 0 -20 20v44q0 20 20 20h253q20 0 20 -20v-258h129q105 0 166.5 -55.5t61.5 -151.5q0 -97 -61.5 -152.5t-166.5 -55.5h-211zM308 79h124q66 0 98 31.5t32 97.5q0 65 -32 96.5t-98 31.5h-124v-257z" />
    <glyph glyph-name="uni042B" unicode="&#x42b;" horiz-adv-x="806" 
d="M104 0q-20 0 -20 20v653q0 20 20 20h62q20 0 20 -20v-258h118q105 0 166.5 -55.5t61.5 -151.5q0 -97 -61.5 -152.5t-166.5 -55.5h-200zM641 0q-20 0 -20 20v653q0 20 20 20h61q20 0 20 -20v-653q0 -20 -20 -20h-61zM299 79q66 0 98 31.5t32 97.5q0 65 -32 96.5t-98 31.5
h-113v-257h113z" />
    <glyph glyph-name="uni042C" unicode="&#x42c;" horiz-adv-x="610" 
d="M104 0q-20 0 -20 20v653q0 20 20 20h62q20 0 20 -20v-258h153q105 0 166.5 -55.5t61.5 -151.5q0 -97 -61.5 -152.5t-166.5 -55.5h-235zM334 79q66 0 98 31.5t32 97.5q0 65 -32 96.5t-98 31.5h-148v-257h148z" />
    <glyph glyph-name="uni042D" unicode="&#x42d;" horiz-adv-x="616" 
d="M222 -12q-91 0 -167 26q-12 4 -16 10.5t-4 19.5v36q0 19 15 19q7 0 39 -8q58 -14 123 -14q121 0 176.5 56t57.5 179h-298q-20 0 -20 20v43q0 20 20 20h297q-6 114 -63.5 166.5t-174.5 52.5q-46 0 -116 -14q-14 -3 -20 -4t-10 -1q-15 0 -15 19v36q0 13 4 19.5t16 10.5
q79 23 152 23q164 0 249 -91t85 -267q0 -357 -330 -357z" />
    <glyph glyph-name="uni042E" unicode="&#x42e;" horiz-adv-x="1020" 
d="M643 -17q-139 0 -220 87t-89 243h-149v-293q0 -20 -20 -20h-61q-20 0 -20 20v653q0 20 20 20h61q20 0 20 -20v-278h150q8 100 47.5 170.5t106 106.5t154.5 36q147 0 230 -96t83 -266t-83 -266.5t-230 -96.5zM643 69q102 0 155.5 70.5t53.5 206.5q0 135 -53.5 205.5
t-155.5 70.5t-155 -70.5t-53 -205.5q0 -136 53 -206.5t155 -70.5z" />
    <glyph glyph-name="uni042F" unicode="&#x42f;" horiz-adv-x="610" 
d="M34 0q-7 0 -11 3.5t-4 8.5q0 8 8 20l171 266q-65 20 -100 70t-35 121q0 93 61 148.5t166 55.5h216q20 0 20 -20v-653q0 -20 -20 -20h-58q-20 0 -20 20v265h-134l-157 -270q-5 -9 -12.5 -12t-24.5 -3h-66zM428 363v250h-125q-130 0 -130 -125t135 -125h120z" />
    <glyph glyph-name="uni0430" unicode="&#x430;" horiz-adv-x="530" 
d="M198 -13q-71 0 -113.5 40.5t-42.5 108.5q0 73 52 116.5t140 43.5q56 0 126 -17v66q0 54 -24.5 76t-83.5 22q-69 0 -135 -20q-23 -7 -29 -7q-12 0 -12 18v27q0 13 4 19t16 11q31 14 78.5 22.5t94.5 8.5q95 0 140 -39.5t45 -120.5v-342q0 -20 -20 -20h-43q-19 0 -22 19
l-5 33q-36 -31 -79.5 -48t-86.5 -17zM222 62q33 0 69 13t69 38v102q-54 13 -106 13q-113 0 -113 -87q0 -38 21 -58.5t60 -20.5z" />
    <glyph glyph-name="uni0431" unicode="&#x431;" horiz-adv-x="579" 
d="M295 65q66 0 100.5 43.5t34.5 125.5q0 88 -27.5 126t-90.5 38q-38 0 -80.5 -12.5t-78.5 -33.5v-59q0 -83 13.5 -132.5t44.5 -72.5t84 -23zM295 -15q-125 0 -184 74.5t-59 234.5q0 134 26 220.5t85 135.5t162 68l137 25q4 1 8 1.5t8 0.5q6 0 10 -5t4 -12v-36
q0 -19 -5.5 -25.5t-19.5 -8.5l-138 -24q-68 -12 -101.5 -32t-50 -61.5t-21.5 -121.5q38 25 84.5 39.5t87.5 14.5q203 0 203 -239q0 -115 -63.5 -182t-172.5 -67z" />
    <glyph glyph-name="uni0432" unicode="&#x432;" horiz-adv-x="540" 
d="M98 0q-20 0 -20 20v467q0 20 20 20h212q72 0 116.5 -37.5t44.5 -97.5q0 -37 -18 -64t-52 -42q46 -14 70.5 -46t24.5 -78q0 -64 -47.5 -103t-127.5 -39h-223zM168 69h146q47 0 68.5 19.5t21.5 59.5t-22 59t-68 19h-146v-157zM168 292h128q83 0 83 73t-82 73h-129v-146z
" />
    <glyph glyph-name="uni0433" unicode="&#x433;" horiz-adv-x="406" 
d="M98 0q-20 0 -20 20v467q0 20 20 20h271q20 0 20 -20v-41q0 -20 -20 -20h-192v-406q0 -20 -20 -20h-59z" />
    <glyph glyph-name="uni0434" unicode="&#x434;" horiz-adv-x="584" 
d="M36 -164q-20 0 -20 20v202q0 20 20 20h18q32 26 52.5 71.5t36 120.5t25.5 186l3 30q1 12 5.5 16.5t14.5 4.5h283q20 0 20 -20v-409h56q20 0 20 -20v-202q0 -20 -20 -20h-48q-20 0 -20 20v144h-378v-144q0 -20 -20 -20h-48zM399 78v351h-143q-19 -157 -43.5 -237.5
t-62.5 -113.5h249z" />
    <glyph glyph-name="uni0435" unicode="&#x435;" horiz-adv-x="529" 
d="M297 -15q-123 0 -186 68t-63 201q0 127 63 197.5t176 70.5q95 0 146 -53.5t51 -151.5q0 -32 -5 -65q-2 -12 -6.5 -16t-14.5 -4h-314q2 -86 42.5 -127t125.5 -41q30 0 57.5 4t69.5 17q7 2 12 3.5t9 1.5q13 0 13 -18v-28q0 -13 -4 -18.5t-17 -11.5q-30 -13 -71.5 -21
t-83.5 -8zM393 298q1 8 1 26q0 61 -28.5 92t-83.5 31q-63 0 -98 -37.5t-40 -111.5h249z" />
    <glyph glyph-name="uni0436" unicode="&#x436;" horiz-adv-x="750" 
d="M37 0q-7 0 -11 3.5t-4 8.5q0 8 8 16l212 230l-195 221q-8 8 -8 16q0 12 15 12h56q13 0 20 -2.5t14 -10.5l186 -222v215q0 20 20 20h50q20 0 20 -20v-215l186 222q7 8 14 10.5t20 2.5h56q15 0 15 -12q0 -8 -8 -16l-195 -221l212 -230q8 -8 8 -16q0 -5 -4 -8.5t-11 -3.5
h-60q-23 0 -35 14l-198 222v-216q0 -20 -20 -20h-50q-20 0 -20 20v216l-198 -222q-12 -14 -35 -14h-60z" />
    <glyph glyph-name="uni0437" unicode="&#x437;" horiz-adv-x="466" 
d="M201 -15q-76 0 -145 23q-12 4 -16 9.5t-4 19.5v28q0 18 13 18q6 0 34 -7q20 -6 54.5 -10t61.5 -4q129 0 129 85q0 77 -118 77h-60q-20 0 -20 20v28q0 20 20 20h46q115 0 115 77q0 76 -111 76q-24 0 -58.5 -5.5t-59.5 -12.5q-10 -3 -16 -3q-13 0 -13 20v27q0 14 4 20
t16 10q26 10 64.5 15.5t76.5 5.5q89 0 140 -38t51 -106q0 -40 -20.5 -68.5t-59.5 -43.5q47 -14 72 -46.5t25 -81.5q0 -70 -60 -111.5t-161 -41.5z" />
    <glyph glyph-name="uni0438" unicode="&#x438;" horiz-adv-x="604" 
d="M98 0q-20 0 -20 20v467q0 20 20 20h57q20 0 20 -20v-354l242 356q12 18 36 18h53q20 0 20 -20v-467q0 -20 -20 -20h-57q-20 0 -20 20v356l-242 -358q-7 -10 -15 -14t-21 -4h-53z" />
    <glyph glyph-name="uni0439" unicode="&#x439;" horiz-adv-x="604" 
d="M98 0q-20 0 -20 20v467q0 20 20 20h57q20 0 20 -20v-354l242 356q12 18 36 18h53q20 0 20 -20v-467q0 -20 -20 -20h-57q-20 0 -20 20v356l-242 -358q-7 -10 -15 -14t-21 -4h-53zM302 598q-74 0 -116.5 37t-42.5 101v9q0 22 16 22h38q16 0 17 -17l1 -11q4 -41 25.5 -59.5
t61.5 -18.5t61.5 18.5t25.5 59.5l1 11q1 17 17 17h38q16 0 16 -22v-9q0 -64 -42.5 -101t-116.5 -37z" />
    <glyph glyph-name="uni043A" unicode="&#x43a;" horiz-adv-x="530" 
d="M98 0q-20 0 -20 20v467q0 20 20 20h59q20 0 20 -20v-212l205 219q8 8 15.5 10.5t19.5 2.5h64q15 0 15 -12q0 -8 -8 -16l-215 -221l230 -230q8 -8 8 -16q0 -5 -4 -8.5t-11 -3.5h-69q-24 0 -35 14l-215 215v-209q0 -20 -20 -20h-59z" />
    <glyph glyph-name="uni043B" unicode="&#x43b;" horiz-adv-x="565" 
d="M50 -8q-11 0 -17 1q-11 2 -15 7t-4 20v38q0 10 3.5 14t13.5 5q26 2 44.5 21t32.5 60.5t26 113t22 182.5l3 32q1 12 5.5 16.5t14.5 4.5h288q20 0 20 -20v-467q0 -20 -20 -20h-59q-20 0 -20 20v409h-141q-17 -167 -39.5 -260.5t-59 -135t-98.5 -41.5z" />
    <glyph glyph-name="uni043C" unicode="&#x43c;" horiz-adv-x="690" 
d="M98 0q-20 0 -20 20v467q0 20 20 20h66q11 0 17 -3.5t11 -13.5l155 -302l155 302q5 10 11 13.5t17 3.5h62q20 0 20 -20v-467q0 -20 -20 -20h-48q-20 0 -20 20v355l-131 -254q-8 -17 -29 -17h-37q-11 0 -17.5 4t-11.5 13l-132 254v-355q0 -20 -20 -20h-48z" />
    <glyph glyph-name="uni043D" unicode="&#x43d;" horiz-adv-x="598" 
d="M98 0q-20 0 -20 20v467q0 20 20 20h59q20 0 20 -20v-189h244v189q0 20 20 20h59q20 0 20 -20v-467q0 -20 -20 -20h-59q-20 0 -20 20v200h-244v-200q0 -20 -20 -20h-59z" />
    <glyph glyph-name="uni043E" unicode="&#x43e;" horiz-adv-x="580" 
d="M290 -15q-114 0 -178 71t-64 198q0 126 64 197t178 71t178 -71t64 -197q0 -127 -64 -198t-178 -71zM290 65q141 0 141 189q0 188 -141 188t-141 -188q0 -189 141 -189z" />
    <glyph glyph-name="uni043F" unicode="&#x43f;" horiz-adv-x="587" 
d="M98 0q-20 0 -20 20v467q0 20 20 20h391q20 0 20 -20v-467q0 -20 -20 -20h-59q-20 0 -20 20v409h-233v-409q0 -20 -20 -20h-59z" />
    <glyph glyph-name="uni0440" unicode="&#x440;" horiz-adv-x="596" 
d="M98 -206q-20 0 -20 20v673q0 20 20 20h44q20 0 23 -20l5 -32q76 67 169 67q97 0 153 -70.5t56 -191.5q0 -123 -59 -197t-157 -74q-90 0 -155 59v-234q0 -20 -20 -20h-59zM309 69q138 0 138 186q0 95 -33.5 141t-102.5 46q-71 0 -134 -46v-279q65 -48 132 -48z" />
    <glyph glyph-name="uni0441" unicode="&#x441;" horiz-adv-x="461" 
d="M291 -11q-118 0 -180.5 67.5t-62.5 195.5q0 127 64.5 196.5t182.5 69.5q54 0 106 -19q11 -4 15.5 -10t4.5 -20v-27q0 -20 -13 -20q-5 0 -16 3q-41 12 -83 12q-84 0 -121 -42.5t-37 -135.5v-13q0 -91 37.5 -133.5t118.5 -42.5q42 0 90 14q11 3 15 3q13 0 13 -20v-27
q0 -13 -4 -19t-16 -11q-49 -21 -114 -21z" />
    <glyph glyph-name="uni0442" unicode="&#x442;" horiz-adv-x="453" 
d="M197 0q-20 0 -20 20v406h-142q-20 0 -20 20v41q0 20 20 20h383q20 0 20 -20v-41q0 -20 -20 -20h-142v-406q0 -20 -20 -20h-59z" />
    <glyph glyph-name="uni0443" unicode="&#x443;" horiz-adv-x="509" 
d="M116 -218q-32 0 -57 7q-12 3 -16.5 10t-4.5 20v26q0 19 15 19q5 0 15 -2t27 -2q37 0 58.5 18.5t38.5 65.5l19 51l-193 476q-7 17 -7 24q0 12 14 12h60q16 0 22 -5t12 -22l140 -388l135 388q6 17 12 22t22 5h56q14 0 14 -12q0 -7 -7 -24l-220 -560q-27 -69 -63 -99
t-92 -30z" />
    <glyph glyph-name="uni0444" unicode="&#x444;" horiz-adv-x="756" 
d="M352 -206q-20 0 -20 20v172q-87 2 -151.5 35.5t-98.5 92.5t-34 137q0 81 35.5 140.5t99.5 92t149 34.5v202q0 20 20 20h52q20 0 20 -20v-202q87 -2 151.5 -36t98.5 -93t34 -137q0 -81 -35.5 -140t-99.5 -91.5t-149 -34.5v-172q0 -20 -20 -20h-52zM332 442
q-90 -3 -138.5 -52.5t-48.5 -138.5q0 -88 49 -137.5t138 -51.5v380zM424 62q89 2 138 51.5t49 138.5t-49 138t-138 52v-380z" />
    <glyph glyph-name="uni0445" unicode="&#x445;" horiz-adv-x="481" 
d="M31 0q-7 0 -11 3.5t-4 8.5q0 8 12 24l158 224l-148 211q-12 16 -12 24q0 12 15 12h60q12 0 19 -3.5t12 -11.5l110 -162l109 162q5 8 12.5 11.5t19.5 3.5h54q15 0 15 -12q0 -8 -12 -24l-147 -205l160 -230q12 -17 12 -24q0 -5 -4 -8.5t-11 -3.5h-61q-12 0 -19 3.5
t-12 11.5l-121 179l-119 -179q-5 -8 -12.5 -11.5t-19.5 -3.5h-55z" />
    <glyph glyph-name="uni0446" unicode="&#x446;" horiz-adv-x="594" 
d="M512 -164q-20 0 -20 20v144h-394q-20 0 -20 20v467q0 20 20 20h59q20 0 20 -20v-409h228v409q0 20 20 20h59q20 0 20 -20v-409h56q20 0 20 -20v-202q0 -20 -20 -20h-48z" />
    <glyph glyph-name="uni0447" unicode="&#x447;" horiz-adv-x="552" 
d="M395 0q-20 0 -20 20v187q-75 -25 -164 -25q-78 0 -118.5 38t-40.5 112v155q0 20 20 20h59q20 0 20 -20v-129q0 -53 22.5 -76.5t73.5 -23.5q64 0 128 17v212q0 20 20 20h59q20 0 20 -20v-467q0 -20 -20 -20h-59z" />
    <glyph glyph-name="uni0448" unicode="&#x448;" horiz-adv-x="803" 
d="M98 0q-20 0 -20 20v467q0 20 20 20h57q20 0 20 -20v-409h178v409q0 20 20 20h57q20 0 20 -20v-409h178v409q0 20 20 20h57q20 0 20 -20v-467q0 -20 -20 -20h-607z" />
    <glyph glyph-name="uni0449" unicode="&#x449;" horiz-adv-x="807" 
d="M725 -164q-20 0 -20 20v144h-607q-20 0 -20 20v467q0 20 20 20h57q20 0 20 -20v-409h174v409q0 20 20 20h57q20 0 20 -20v-409h174v409q0 20 20 20h57q20 0 20 -20v-409h56q20 0 20 -20v-202q0 -20 -20 -20h-48z" />
    <glyph glyph-name="uni044A" unicode="&#x44a;" horiz-adv-x="601" 
d="M192 0q-20 0 -20 20v408h-138q-20 0 -20 20v39q0 20 20 20h214q20 0 20 -20v-165h130q81 0 128.5 -43t47.5 -118t-47.5 -118t-128.5 -43h-206zM388 72q89 0 89 89t-89 89h-120v-178h120z" />
    <glyph glyph-name="uni044B" unicode="&#x44b;" horiz-adv-x="724" 
d="M98 0q-20 0 -20 20v467q0 20 20 20h56q20 0 20 -20v-165h118q81 0 128.5 -43t47.5 -118t-47.5 -118t-128.5 -43h-194zM567 0q-20 0 -20 20v467q0 20 20 20h59q20 0 20 -20v-467q0 -20 -20 -20h-59zM282 72q89 0 89 89t-89 89h-108v-178h108z" />
    <glyph glyph-name="uni044C" unicode="&#x44c;" horiz-adv-x="520" 
d="M98 0q-20 0 -20 20v467q0 20 20 20h56q20 0 20 -20v-165h143q81 0 128.5 -43t47.5 -118t-47.5 -118t-128.5 -43h-219zM174 72h133q89 0 89 89t-89 89h-133v-178z" />
    <glyph glyph-name="uni044D" unicode="&#x44d;" horiz-adv-x="476" 
d="M180 -11q-64 0 -124 21q-11 4 -15.5 10t-4.5 20v25q0 20 13 20q6 0 16 -3q20 -6 50 -10t55 -4q57 0 91.5 14.5t51.5 48t19 92.5h-216q-20 0 -20 20v30q0 20 20 20h215q-2 52 -18.5 84t-50 47t-91.5 15t-101 -12q-10 -3 -16 -3q-13 0 -13 20v24q0 14 4 20t16 10
q55 20 121 20q123 0 184.5 -66.5t61.5 -196.5q0 -131 -63.5 -198.5t-184.5 -67.5z" />
    <glyph glyph-name="uni044E" unicode="&#x44e;" horiz-adv-x="803" 
d="M529 -15q-66 0 -114.5 28t-76 80.5t-32.5 126.5h-133v-200q0 -20 -20 -20h-55q-20 0 -20 20v467q0 20 20 20h55q20 0 20 -20v-189h134q10 107 68 165.5t154 58.5q106 0 166 -71t60 -197q0 -127 -60 -198t-166 -71zM529 64q63 0 95.5 48t32.5 142t-32.5 141.5t-95.5 47.5
q-64 0 -96.5 -47.5t-32.5 -141.5t32.5 -142t96.5 -48z" />
    </font>
</defs>
</svg>
