<?xml version="1.0" standalone="no"?>
<!DOCTYPE svg PUBLIC "-//W3C//DTD SVG 1.1//EN" "http://www.w3.org/Graphics/SVG/1.1/DTD/svg11.dtd" >
<svg xmlns="http://www.w3.org/2000/svg" xmlns:xlink="http://www.w3.org/1999/xlink" version="1.1">
<metadata>
Created by FontForge 20170731 at Wed Feb 17 19:01:44 2016
 By Aleksey,,,
Copyright 2016 Dalton Maag Ltd. Modification of this file requires prior written permission from Dalton Maag Ltd.
</metadata>
<defs>
<font id="AmazonEmberCdRC-LightItalic" horiz-adv-x="486" >
  <font-face 
    font-family="Amazon Ember Cd RC Light"
    font-weight="300"
    font-style="italic"
    font-stretch="condensed"
    units-per-em="1000"
    panose-1="2 11 4 6 2 2 4 9 2 4"
    ascent="800"
    descent="-200"
    x-height="503"
    cap-height="693"
    bbox="-220 -274 1065 968"
    underline-thickness="80"
    underline-position="-229"
    slope="-11.04"
    unicode-range="U+0008-FFFD"
  />
<missing-glyph horiz-adv-x="500" 
d="M50 0v750h400v-750h-400zM400 50v650h-300v-650h300z" />
    <glyph glyph-name="ff" unicode="ff" horiz-adv-x="541" 
d="M295 0l89 455h-188l-89 -455h-56l89 455h-78l8 39l79 8l21 109q16 77 47 110t87 33q43 0 74 -18l-8 -43q-30 13 -61 13q-36 0 -55 -21t-28 -71l-21 -111h188l21 108q15 74 48.5 108.5t91.5 34.5q40 0 74 -21l-8 -43q-31 16 -63 16q-37 0 -57.5 -21.5t-29.5 -70.5
l-21 -111h130l-9 -48h-130l-89 -455h-56z" />
    <glyph glyph-name="fi" unicode="fi" horiz-adv-x="476" 
d="M384 455h-188l-89 -455h-56l89 455h-78l8 39l79 8l21 109q16 77 47 110t87 33q43 0 74 -18l-8 -43q-30 13 -61 13q-36 0 -55 -21t-28 -71l-21 -111h243l-98 -503h-55zM444 616q-16 0 -26 9t-10 25q0 22 11.5 35t30.5 13q16 0 26 -9t10 -25q0 -22 -11.5 -35t-30.5 -13z
" />
    <glyph glyph-name="fl" unicode="fl" horiz-adv-x="497" 
d="M51 0l89 455h-78l8 39l79 8l21 109q16 77 47 110t87 33q43 0 74 -18l-8 -43q-30 13 -61 13q-36 0 -55 -21t-28 -71l-21 -111h108l-9 -48h-108l-89 -455h-56zM435 13q-29 -16 -63 -16q-30 0 -46 18t-16 51q0 21 9 67l118 607h55l-118 -607q-9 -44 -9 -59t6.5 -22t22.5 -7
q15 0 30 6z" />
    <glyph glyph-name="ffi" unicode="ffi" horiz-adv-x="720" 
d="M295 0l89 455h-188l-89 -455h-56l89 455h-78l8 39l79 8l21 109q16 77 47 110t87 33q43 0 74 -18l-8 -43q-30 13 -61 13q-36 0 -55 -21t-28 -71l-21 -111h188l21 108q16 77 47 110t87 33q43 0 74 -18l-8 -43q-30 13 -61 13q-36 0 -55 -21t-28 -71l-21 -111h243l-98 -503
h-55l89 455h-188l-89 -455h-56zM688 616q-16 0 -26 9t-10 25q0 22 11.5 35t30.5 13q16 0 26 -9t10 -25q0 -22 -11.5 -35t-30.5 -13z" />
    <glyph glyph-name="ffl" unicode="ffl" horiz-adv-x="741" 
d="M295 0l89 455h-188l-89 -455h-56l89 455h-78l8 39l79 8l21 109q16 77 47 110t87 33q43 0 74 -18l-8 -43q-30 13 -61 13q-36 0 -55 -21t-28 -71l-21 -111h188l21 108q16 77 47 110t87 33q43 0 74 -18l-8 -43q-30 13 -61 13q-36 0 -55 -21t-28 -71l-21 -111h108l-9 -48
h-108l-89 -455h-56zM679 13q-29 -16 -63 -16q-30 0 -46 18t-16 51q0 21 9 67l118 607h55l-118 -607q-9 -44 -9 -59t6.5 -22t22.5 -7q15 0 30 6z" />
    <glyph glyph-name=".notdef" horiz-adv-x="500" 
d="M50 0v750h400v-750h-400zM400 50v650h-300v-650h300z" />
    <glyph glyph-name=".null" horiz-adv-x="0" 
 />
    <glyph glyph-name=".null" horiz-adv-x="0" 
 />
    <glyph glyph-name=".null" horiz-adv-x="0" 
 />
    <glyph glyph-name="nonmarkingreturn" unicode="&#x9;" horiz-adv-x="211" 
 />
    <glyph glyph-name="nonmarkingreturn" unicode="&#xd;" horiz-adv-x="211" 
 />
    <glyph glyph-name="space" unicode=" " horiz-adv-x="211" 
 />
    <glyph glyph-name="exclam" unicode="!" horiz-adv-x="210" 
d="M70 192l90 502q18 7 32 7q15 0 29 -7l-106 -502h-45zM61 -7q-16 0 -26 10t-10 28q0 22 13 36.5t32 14.5q16 0 26 -10t10 -28q0 -22 -13 -36.5t-32 -14.5z" />
    <glyph glyph-name="quotedbl" unicode="&#x22;" horiz-adv-x="282" 
d="M106 463l37 230q11 7 29 7q17 0 28 -7l-54 -230h-40zM216 463l37 230q11 7 29 7q17 0 28 -7l-54 -230h-40z" />
    <glyph glyph-name="numbersign" unicode="#" 
d="M327 197l-63 -197h-44l63 197h-142l-63 -197h-44l63 197h-64l9 43h68l69 217h-73l9 43h78l62 193h44l-62 -193h142l62 193h44l-62 -193h64l-9 -43h-68l-70 -217h74l-9 -43h-78zM154 240h142l69 217h-141z" />
    <glyph glyph-name="dollar" unicode="$" 
d="M40 98q32 -27 65.5 -41t71.5 -17l57 290l-30 18q-49 29 -71.5 66t-22.5 87q0 56 25.5 100.5t67.5 69t92 24.5h10l24 122h36l-25 -126q61 -12 108 -53l-9 -44q-47 43 -108 52l-55 -285l19 -11q57 -35 81.5 -70.5t24.5 -84.5q0 -59 -25.5 -104.5t-70 -71t-101.5 -26.5
l-24 -123h-36l24 125q-80 8 -137 57zM160 504q0 -39 16.5 -66t56.5 -51l11 -7l52 269h-9q-56 0 -91.5 -40.5t-35.5 -104.5zM350 192q0 39 -18.5 64.5t-65.5 53.5l-53 -270q65 5 101 45t36 107z" />
    <glyph glyph-name="percent" unicode="%" horiz-adv-x="790" 
d="M193 0l387 693h49l-387 -693h-49zM575 -8q-49 0 -75 33.5t-26 96.5q0 68 22 134.5t57.5 101t82.5 34.5q48 0 74.5 -33.5t26.5 -95.5q0 -68 -21.5 -134.5t-57.5 -101.5t-83 -35zM633 352q-35 0 -59.5 -34t-39 -91.5t-14.5 -107.5q0 -87 58 -87q35 0 59.5 34t39 91.5
t14.5 107.5q0 87 -58 87zM186 301q-49 0 -75 33.5t-26 96.5q0 68 22 134.5t57.5 101t82.5 34.5q48 0 74.5 -33.5t26.5 -95.5q0 -68 -21.5 -134.5t-57.5 -101.5t-83 -35zM244 661q-35 0 -59.5 -34t-39 -91.5t-14.5 -107.5q0 -87 58 -87q35 0 59.5 34t39 91.5t14.5 107.5
q0 87 -58 87z" />
    <glyph glyph-name="ampersand" unicode="&#x26;" horiz-adv-x="589" 
d="M515 11q-25 -16 -62 -16q-29 0 -49.5 12.5t-38.5 41.5q-35 -29 -78 -45.5t-85 -16.5q-73 0 -117 45t-44 121q0 72 42 130.5t119 93.5l9 4l-1 2q-41 89 -41 152q0 49 22 88t58 60.5t80 21.5q55 0 88.5 -35.5t33.5 -91.5q0 -63 -42 -117.5t-116 -87.5l-21 -9l110 -237
q35 47 59.5 113t34.5 142h48q-28 -188 -123 -297q12 -24 27 -33.5t39 -9.5q17 0 39 8zM213 35q72 0 133 53l-119 257q-63 -28 -97 -75.5t-34 -108.5q0 -60 31 -93t86 -33zM219 536q0 -30 8.5 -61.5t27.5 -72.5l2 -4l21 10q58 26 90.5 69.5t32.5 95.5q0 41 -20 64t-56 23
q-46 0 -76 -35t-30 -89z" />
    <glyph glyph-name="quotesingle" unicode="'" horiz-adv-x="172" 
d="M106 463l37 230q11 7 29 7q17 0 28 -7l-54 -230h-40z" />
    <glyph glyph-name="parenleft" unicode="(" horiz-adv-x="254" 
d="M59 135q0 166 53 322.5t157 296.5h56q-209 -292 -209 -624q0 -162 34 -274h-51q-40 116 -40 279z" />
    <glyph glyph-name="parenright" unicode=")" horiz-adv-x="254" 
d="M214 475q0 -166 -53 -322.5t-157 -296.5h-56q209 292 209 624q0 162 -34 274h51q40 -116 40 -279z" />
    <glyph glyph-name="asterisk" unicode="*" horiz-adv-x="324" 
d="M215 508l-93 -117q-25 5 -35 29l106 108l-107 31q1 26 22 44l99 -48l19 134q12 6 24 6q14 0 23 -6l-35 -135l114 47q8 -13 8 -26q0 -11 -4 -18l-115 -32l66 -108q-18 -25 -41 -26z" />
    <glyph glyph-name="plus" unicode="+" 
d="M281 327l-38 -197h-50l39 197h-162l9 46h162l38 197h50l-39 -197h162l-9 -46h-162z" />
    <glyph glyph-name="comma" unicode="," horiz-adv-x="202" 
d="M-40 -147l85 232h27q26 0 26 -18q0 -8 -3.5 -17.5t-15.5 -35.5l-79 -161h-40z" />
    <glyph glyph-name="hyphen" unicode="-" horiz-adv-x="335" 
d="M46 234l10 50h235l-10 -50h-235z" />
    <glyph glyph-name="period" unicode="." horiz-adv-x="202" 
d="M55 -7q-16 0 -26 10t-10 28q0 22 13 36.5t32 14.5q16 0 26 -10t10 -28q0 -22 -13 -36.5t-32 -14.5z" />
    <glyph glyph-name="slash" unicode="/" horiz-adv-x="356" 
d="M-58 -144l433 898h58l-433 -898h-58z" />
    <glyph glyph-name="zero" unicode="0" 
d="M200 -14q-73 0 -111.5 55.5t-38.5 158.5q0 93 22.5 193.5t58.5 171t82 106t100 35.5q73 0 111.5 -55.5t38.5 -158.5q0 -93 -22.5 -193.5t-58.5 -171t-82 -106t-100 -35.5zM310 655q-47 0 -84.5 -41.5t-63.5 -112t-41 -157t-15 -154.5q0 -153 97 -153q47 0 84.5 41.5
t63.5 112t41 157t15 154.5q0 76 -24.5 114.5t-72.5 38.5z" />
    <glyph glyph-name="one" unicode="1" 
d="M207 0l123 630l-173 -89l10 53l180 99h51l-135 -693h-56z" />
    <glyph glyph-name="two" unicode="2" 
d="M17 0l9 47q86 93 148 161.5t104 119t67 88t35.5 68.5t10.5 62q0 52 -26.5 80t-74.5 28q-41 0 -78 -15.5t-78 -50.5l-10 45q73 73 177 73q68 0 108 -42t40 -112q0 -36 -11 -70t-35.5 -73t-66 -88.5t-102 -115t-143.5 -153.5h291l-10 -52h-355z" />
    <glyph glyph-name="three" unicode="3" 
d="M34 73q59 -36 140 -36q78 0 124.5 52t46.5 139q0 59 -32 89t-94 30q-24 0 -60 -6l9 44l237 258h-260l10 50h323l-9 -47l-238 -258q6 1 11.5 1.5t11.5 0.5q65 0 106 -44t41 -114q0 -73 -30.5 -129t-82 -86.5t-116.5 -30.5q-89 0 -147 40z" />
    <glyph glyph-name="four" unicode="4" 
d="M258 0l31 159h-266l9 47l360 487h52l-94 -483h84l-10 -51h-84l-31 -159h-51zM299 210l74 382l-282 -382h208z" />
    <glyph glyph-name="five" unicode="5" 
d="M57 70q31 -18 61.5 -25.5t70.5 -7.5q77 0 123.5 55t46.5 146q0 63 -31 93t-94 30q-43 0 -108 -13l8 40l74 305h274l-10 -51h-225l-59 -242q37 10 74 10q70 0 111.5 -45t41.5 -121q0 -77 -30.5 -135.5t-82 -90.5t-116.5 -32q-83 0 -138 37z" />
    <glyph glyph-name="six" unicode="6" 
d="M476 632q-42 24 -101 24q-58 0 -107.5 -39t-84.5 -108.5t-50 -159.5q38 29 82.5 46.5t82.5 17.5q64 -1 99.5 -42.5t35.5 -114.5q0 -77 -29 -139t-77 -96.5t-104 -34.5q-74 0 -115.5 59t-41.5 167q0 141 43 255t113.5 176.5t152.5 62.5q67 0 110 -28zM275 363
q-36 0 -75 -15.5t-73 -43.5q-5 -48 -5 -91q0 -85 28.5 -131t80.5 -46q43 0 76 30t51.5 79t18.5 103q0 57 -26 86t-76 29z" />
    <glyph glyph-name="seven" unicode="7" 
d="M76 0l350 641h-295l10 52h355l-9 -47l-350 -646h-61z" />
    <glyph glyph-name="eight" unicode="8" 
d="M471 566q0 -69 -40.5 -123.5t-114.5 -83.5q53 -32 78 -73t25 -95q0 -60 -28.5 -107t-76.5 -72.5t-107 -25.5q-75 0 -119.5 43t-44.5 116q0 76 45.5 136t123.5 88q-75 51 -75 142q0 55 27.5 100t72 70t95.5 25q64 0 101.5 -38t37.5 -102zM246 347q-71 -27 -109.5 -78
t-38.5 -117q0 -55 30 -86.5t84 -31.5q66 0 109.5 43.5t43.5 108.5q0 46 -21.5 80.5t-65.5 61.5zM190 512q0 -77 71 -120l21 -13l7 3q60 24 94.5 71.5t34.5 105.5q0 48 -25 74t-69 26q-38 0 -69 -20.5t-48 -54t-17 -72.5z" />
    <glyph glyph-name="nine" unicode="9" 
d="M148 36q53 0 98.5 35.5t78.5 99.5t49 148q-33 -25 -72 -40t-73 -15q-67 0 -106.5 47.5t-39.5 128.5q0 76 29 137t76 95t102 34q73 0 114 -60t41 -166q0 -143 -41 -256.5t-109.5 -175.5t-150.5 -62q-71 0 -118 38l9 46q50 -34 113 -34zM249 314q30 0 64.5 12.5t67.5 35.5
q8 62 8 122q0 82 -28 127t-79 45q-41 0 -74 -29.5t-51 -78t-18 -105.5q0 -63 28 -96t82 -33z" />
    <glyph glyph-name="colon" unicode=":" horiz-adv-x="202" 
d="M55 -7q-16 0 -26 10t-10 28q0 22 13 36.5t32 14.5q16 0 26 -10t10 -28q0 -22 -13 -36.5t-32 -14.5zM139 426q-16 0 -26 10t-10 28q0 22 13 36.5t32 14.5q16 0 26 -10t10 -28q0 -22 -13 -36.5t-32 -14.5z" />
    <glyph glyph-name="semicolon" unicode=";" horiz-adv-x="202" 
d="M-40 -147l85 232h27q26 0 26 -18q0 -8 -3.5 -17.5t-15.5 -35.5l-79 -161h-40zM139 426q-16 0 -26 10t-10 28q0 22 13 36.5t32 14.5q16 0 26 -10t10 -28q0 -22 -13 -36.5t-32 -14.5z" />
    <glyph glyph-name="less" unicode="&#x3c;" 
d="M89 325l10 50l367 196l-11 -58l-311 -167l246 -166l-10 -51z" />
    <glyph glyph-name="equal" unicode="=" 
d="M48 216l9 46h373l-9 -46h-373zM91 437l9 46h373l-9 -46h-373z" />
    <glyph glyph-name="greater" unicode="&#x3e;" 
d="M429 375l-10 -50l-367 -196l11 58l310 167l-245 166l10 51z" />
    <glyph glyph-name="question" unicode="?" horiz-adv-x="359" 
d="M116 192l29 164l37 21q146 85 146 194q0 84 -88 84q-61 0 -120 -44l-7 45q63 50 140 50q59 0 94.5 -35.5t35.5 -94.5q0 -138 -192 -244l-29 -140h-46zM115 -7q-16 0 -26 10t-10 28q0 22 13 36.5t32 14.5q16 0 26 -10t10 -28q0 -22 -13 -36.5t-32 -14.5z" />
    <glyph glyph-name="at" unicode="@" horiz-adv-x="787" 
d="M441 -174q-30 -16 -70 -24.5t-81 -8.5q-124 0 -192 78t-68 221q0 161 64 293.5t166 206.5t216 74q84 0 146.5 -37t95.5 -103.5t33 -155.5q0 -101 -34 -189.5t-85.5 -138.5t-104.5 -50q-36 0 -56 23t-20 66v4q-36 -45 -75.5 -70t-76.5 -25q-84 0 -84 122q0 98 35 180
t91 128t119 46q55 0 114 -28l-62 -260q-14 -58 -14 -91q0 -51 38 -51q41 0 81 52t62.5 127t22.5 153q0 121 -61.5 187t-171.5 66q-106 0 -197 -75.5t-141.5 -194t-50.5 -254.5q0 -124 57 -191.5t161 -67.5q33 0 70 7.5t68 20.5zM318 35q30 0 67.5 26t70.5 72q5 34 30 135
l34 141q-29 13 -66 13q-51 0 -95 -44t-68.5 -113t-24.5 -146q0 -44 12.5 -64t39.5 -20z" />
    <glyph glyph-name="A" unicode="A" horiz-adv-x="498" 
d="M375 0l-19 207h-233l-96 -207h-62l337 693h61l71 -693h-59zM146 255h207l-32 374z" />
    <glyph glyph-name="B" unicode="B" horiz-adv-x="503" 
d="M35 0l135 693h163q66 0 104 -38.5t38 -105.5q0 -48 -15 -87.5t-42 -67t-62 -39.5q42 -14 65 -47t23 -80q0 -67 -29.5 -119t-79 -80.5t-109.5 -28.5h-191zM154 331l-55 -284h133q45 0 80.5 24.5t54.5 66t19 91.5q0 48 -24.5 75t-68.5 27h-139zM216 646l-53 -268h132
q53 0 89 47.5t36 120.5q0 48 -26 74t-72 26h-106z" />
    <glyph glyph-name="C" unicode="C" horiz-adv-x="497" 
d="M438 51q-80 -66 -180 -66q-87 0 -135.5 65t-48.5 181q0 137 46.5 246t123 168.5t167.5 59.5q66 0 117 -33l-9 -47q-51 28 -109 28q-80 0 -143.5 -57.5t-98 -151.5t-34.5 -206q0 -97 35 -149t101 -52q38 0 75 14t81 46z" />
    <glyph glyph-name="D" unicode="D" horiz-adv-x="571" 
d="M35 0l135 693h164q93 0 146 -64.5t53 -179.5q0 -129 -44.5 -232.5t-117.5 -160t-159 -56.5h-177zM217 645l-116 -597h110q76 0 136.5 55t93.5 146t33 199q0 93 -39 145t-108 52h-110z" />
    <glyph glyph-name="E" unicode="E" horiz-adv-x="456" 
d="M35 0l135 693h323l-10 -49h-265l-51 -260h226l-10 -50h-226l-56 -285h266l-9 -49h-323z" />
    <glyph glyph-name="F" unicode="F" horiz-adv-x="425" 
d="M155 324l-63 -324h-57l135 693h306l-10 -49h-249l-53 -271h210l-10 -49h-209z" />
    <glyph glyph-name="G" unicode="G" horiz-adv-x="568" 
d="M287 37q66 0 118 26l47 238h-135l10 48h188l-62 -316q-31 -22 -78 -35t-97 -13q-97 0 -150.5 67.5t-53.5 189.5q0 134 46 240.5t122.5 164.5t167.5 58q85 0 145 -39l-10 -48q-65 35 -137 35q-79 0 -142.5 -55.5t-98 -147.5t-34.5 -202q0 -103 39.5 -157t114.5 -54z" />
    <glyph glyph-name="H" unicode="H" horiz-adv-x="581" 
d="M391 0l64 330h-299l-64 -330h-57l135 693h57l-61 -313h299l61 313h57l-135 -693h-57z" />
    <glyph glyph-name="I" unicode="I" horiz-adv-x="225" 
d="M35 0l135 693h57l-135 -693h-57z" />
    <glyph glyph-name="J" unicode="J" horiz-adv-x="351" 
d="M298 693h58l-101 -519q-19 -97 -61.5 -143t-112.5 -46q-55 0 -99 28l9 47q42 -23 89 -23q49 0 76.5 34.5t42.5 113.5z" />
    <glyph glyph-name="K" unicode="K" horiz-adv-x="467" 
d="M35 0l135 693h57l-61 -314l293 314h67l-313 -331l201 -362h-65l-189 347l-68 -347h-57z" />
    <glyph glyph-name="L" unicode="L" horiz-adv-x="418" 
d="M35 0l135 693h57l-125 -642h261l-10 -51h-318z" />
    <glyph glyph-name="M" unicode="M" horiz-adv-x="672" 
d="M487 0l116 597l-254 -412h-52l-92 418l-118 -603h-52l135 693h64l99 -451l278 451h63l-135 -693h-52z" />
    <glyph glyph-name="N" unicode="N" horiz-adv-x="576" 
d="M381 0l-176 602l-118 -602h-52l135 693h62l176 -607l118 607h52l-135 -693h-62z" />
    <glyph glyph-name="O" unicode="O" horiz-adv-x="625" 
d="M376 654q-75 0 -128.5 -58.5t-84 -158.5t-30.5 -202q0 -96 39.5 -147.5t112.5 -51.5q75 0 128.5 58.5t84 159t30.5 202.5q0 95 -39.5 146.5t-112.5 51.5zM380 705q99 0 153 -66.5t54 -186.5q0 -92 -25 -183.5t-66 -155t-95 -96t-120 -32.5q-99 0 -153 66.5t-54 186.5
q0 92 25 183.5t66 155t95 96t120 32.5z" />
    <glyph glyph-name="P" unicode="P" horiz-adv-x="484" 
d="M146 283l-55 -283h-56l135 693h153q76 0 119 -42.5t43 -118.5q0 -75 -31 -131.5t-85.5 -87t-123.5 -30.5h-99zM217 644l-61 -312h92q82 0 131 53.5t49 143.5q0 56 -30 85.5t-88 29.5h-93z" />
    <glyph glyph-name="Q" unicode="Q" horiz-adv-x="625" 
d="M380 705q99 0 153 -66.5t54 -186.5q0 -111 -35 -217t-93 -169t-134 -77q63 -71 168 -88l-10 -53q-63 11 -118.5 46.5t-96.5 90.5q-92 4 -143 70.5t-51 182.5q0 92 25 183.5t66 155t95 96t120 32.5zM376 654q-75 0 -128.5 -58.5t-84 -158.5t-30.5 -202q0 -96 39.5 -147.5
t112.5 -51.5q75 0 128.5 58.5t84 159t30.5 202.5q0 95 -39.5 146.5t-112.5 51.5z" />
    <glyph glyph-name="R" unicode="R" horiz-adv-x="494" 
d="M367 0l-98 293h-122l-57 -293h-55l135 693h152q76 0 119.5 -42.5t43.5 -117.5q0 -86 -44 -148t-119 -82l103 -303h-58zM157 342h98q79 0 126 50.5t47 136.5q0 56 -30.5 85.5t-89.5 29.5h-92z" />
    <glyph glyph-name="S" unicode="S" horiz-adv-x="461" 
d="M213 342q-55 35 -79 72t-24 89q0 60 28 106t75 71t105 25q75 0 130 -40l-9 -46q-51 35 -120 35t-110 -39t-41 -105q0 -39 17.5 -66.5t60.5 -54.5l54 -34q50 -32 72 -66.5t22 -83.5q0 -65 -29.5 -115.5t-80 -77.5t-113.5 -27q-93 0 -150 44l9 47q56 -39 141 -39
q73 0 118.5 42.5t45.5 111.5q0 40 -16 67t-54 51z" />
    <glyph glyph-name="T" unicode="T" horiz-adv-x="447" 
d="M145 0l125 642h-175l10 51h409l-10 -51h-177l-125 -642h-57z" />
    <glyph glyph-name="U" unicode="U" horiz-adv-x="570" 
d="M518 693h57l-91 -467q-46 -241 -239 -241q-83 0 -127.5 46t-44.5 132q0 32 4.5 66.5t16.5 95.5l72 368h57l-73 -372q-21 -105 -21 -150q0 -134 124 -134q138 0 174 187z" />
    <glyph glyph-name="V" unicode="V" horiz-adv-x="499" 
d="M169 0l-68 693h59l52 -625l294 625h63l-339 -693h-61z" />
    <glyph glyph-name="W" unicode="W" horiz-adv-x="727" 
d="M427 0l1 598l-232 -598h-65l-25 693h59l12 -623l230 596h68l-1 -593l253 620h64l-299 -693h-65z" />
    <glyph glyph-name="X" unicode="X" horiz-adv-x="471" 
d="M346 0l-97 312l-219 -312h-66l264 364l-108 329h61l89 -291l201 291h65l-245 -338l117 -355h-62z" />
    <glyph glyph-name="Y" unicode="Y" horiz-adv-x="467" 
d="M154 0l50 253l-100 440h59l78 -390l230 390h63l-275 -443l-49 -250h-56z" />
    <glyph glyph-name="Z" unicode="Z" horiz-adv-x="462" 
d="M-4 0l9 46l420 596h-287l10 51h353l-9 -46l-421 -596h306l-10 -51h-371z" />
    <glyph glyph-name="bracketleft" unicode="[" horiz-adv-x="289" 
d="M6 -144l175 898h179l-10 -49h-121l-157 -800h123l-10 -49h-179z" />
    <glyph glyph-name="backslash" unicode="\" horiz-adv-x="356" 
d="M167 754l93 -898h-51l-93 898h51z" />
    <glyph glyph-name="bracketright" unicode="]" horiz-adv-x="289" 
d="M303 754l-175 -898h-179l10 49h121l157 800h-123l10 49h179z" />
    <glyph glyph-name="asciicircum" unicode="^" 
d="M375 315l-62 325l-189 -325h-58l232 378h48l83 -378h-54z" />
    <glyph glyph-name="underscore" unicode="_" horiz-adv-x="400" 
d="M-75 -131l9 47h400l-9 -47h-400z" />
    <glyph glyph-name="grave" unicode="`" horiz-adv-x="500" 
d="M333 602l-64 152h62l47 -152h-45z" />
    <glyph glyph-name="a" unicode="a" horiz-adv-x="450" 
d="M138 -13q-48 0 -74 39t-26 113q0 106 36.5 193.5t95.5 136t126 48.5q59 0 125 -33l-95 -484h-46l10 83q-72 -96 -152 -96zM159 35q64 0 139 102l63 319q-34 14 -69 14q-54 0 -100 -47t-71.5 -121t-25.5 -157q0 -110 64 -110z" />
    <glyph glyph-name="b" unicode="b" horiz-adv-x="453" 
d="M224 740l-62 -319q36 47 75 71.5t77 24.5q47 0 72.5 -42t25.5 -119q0 -106 -35 -191t-92.5 -131.5t-125.5 -46.5q-69 0 -130 36l140 717h55zM291 469q-31 0 -68.5 -28t-71.5 -76l-62 -317q34 -14 75 -14q55 0 99 44.5t68 116.5t24 154q0 57 -16.5 88.5t-47.5 31.5z" />
    <glyph glyph-name="c" unicode="c" horiz-adv-x="382" 
d="M317 52q-32 -31 -71 -48t-79 -17q-62 0 -94.5 43t-32.5 124q0 102 36 186t94 130.5t125 46.5q47 0 85 -22l-9 -44q-40 17 -73 17q-57 0 -103.5 -43t-72 -113t-25.5 -152q0 -64 20.5 -94t64.5 -30q55 0 122 55z" />
    <glyph glyph-name="d" unicode="d" horiz-adv-x="453" 
d="M283 0l11 83q-36 -47 -76 -71.5t-80 -24.5q-49 0 -74.5 40t-25.5 113q0 106 36 193t93.5 135.5t123.5 48.5q41 0 81 -20l47 243h55l-144 -740h-47zM159 35q34 0 72 27.5t72 77.5l61 315q-37 15 -72 15q-55 0 -100.5 -46t-71 -120t-25.5 -158q0 -111 64 -111z" />
    <glyph glyph-name="e" unicode="e" horiz-adv-x="404" 
d="M327 52q-73 -65 -163 -65q-61 0 -92.5 41.5t-31.5 123.5q0 103 35.5 187.5t91.5 131t121 46.5q46 0 71.5 -26t25.5 -74q0 -79 -61.5 -136t-179.5 -87l-50 -13v-21q0 -66 20 -96.5t64 -30.5q31 0 67 15t69 42zM278 472q-42 0 -80.5 -34.5t-64.5 -91.5t-35 -124l49 14
q90 26 137.5 71t47.5 103q0 30 -14 46t-40 16z" />
    <glyph glyph-name="f" unicode="f" horiz-adv-x="297" 
d="M51 0l89 455h-78l8 39l79 8l21 109q15 74 48.5 108.5t91.5 34.5q40 0 74 -21l-8 -43q-31 16 -63 16q-37 0 -57.5 -21.5t-29.5 -70.5l-21 -111h130l-9 -48h-130l-89 -455h-56z" />
    <glyph glyph-name="g" unicode="g" horiz-adv-x="456" 
d="M299 110q-36 -50 -76 -76t-80 -26q-50 0 -76.5 38t-26.5 108q0 102 36.5 186t94.5 130.5t124 46.5t132 -33l-83 -423q-28 -145 -84.5 -212t-150.5 -67q-62 0 -111 36l9 45q47 -33 105 -33q71 0 112.5 56t66.5 184zM163 56q35 0 73.5 29.5t74.5 84.5l56 286q-37 14 -74 14
q-54 0 -99.5 -44.5t-71 -115.5t-25.5 -150q0 -104 66 -104z" />
    <glyph glyph-name="h" unicode="h" horiz-adv-x="474" 
d="M369 394q0 74 -61 74q-35 0 -77.5 -29.5t-82.5 -81.5l-69 -357h-55l144 740h55l-64 -329q38 50 83 78t87 28q47 0 71 -29t24 -85q0 -22 -4 -49t-17 -98l-50 -256h-55l50 255q14 70 17.5 95.5t3.5 43.5z" />
    <glyph glyph-name="i" unicode="i" horiz-adv-x="209" 
d="M177 616q-16 0 -26 9t-10 25q0 22 11.5 35t30.5 13q16 0 26 -9t10 -25q0 -22 -11.5 -35t-30.5 -13zM126 503h55l-98 -503h-55z" />
    <glyph glyph-name="j" unicode="j" horiz-adv-x="209" 
d="M181 503l-113 -578q-15 -78 -41 -110.5t-74 -32.5q-28 0 -56 15l7 41q17 -8 42 -8q19 0 31 8.5t20.5 28.5t15.5 58l113 578h55zM177 616q-16 0 -26 9t-10 25q0 22 11.5 35t30.5 13q16 0 26 -9t10 -25q0 -22 -11.5 -35t-30.5 -13z" />
    <glyph glyph-name="k" unicode="k" horiz-adv-x="399" 
d="M24 0l144 740h55l-89 -457l224 220h69l-246 -235l165 -268h-64l-153 256l-50 -256h-55z" />
    <glyph glyph-name="l" unicode="l" horiz-adv-x="229" 
d="M167 13q-29 -16 -63 -16q-30 0 -46 18t-16 51q0 21 9 67l118 607h55l-118 -607q-9 -44 -9 -59t6.5 -22t22.5 -7q15 0 30 6z" />
    <glyph glyph-name="m" unicode="m" horiz-adv-x="718" 
d="M542 0l50 255q12 65 16 91t4 47q0 39 -14.5 57t-43.5 18q-33 0 -73 -29.5t-77 -81.5q-1 -19 -16 -100l-50 -257h-55l50 255q12 65 15.5 90.5t3.5 47.5q0 39 -13.5 57t-43.5 18q-32 0 -70 -29.5t-76 -82.5l-70 -356h-55l99 503h46l-12 -92q36 50 78.5 78t80.5 28
q45 0 68.5 -29t23.5 -83q37 52 81.5 82t85.5 30q46 0 69.5 -29t23.5 -85q0 -22 -3 -45t-18 -100l-50 -258h-55z" />
    <glyph glyph-name="n" unicode="n" horiz-adv-x="474" 
d="M298 0l50 255q14 70 17.5 95.5t3.5 43.5q0 74 -61 74q-35 0 -77 -29t-82 -81l-70 -358h-55l99 503h46l-12 -94q40 51 85 79.5t87 28.5q47 0 71 -29t24 -85q0 -23 -3.5 -49.5t-17.5 -97.5l-50 -256h-55z" />
    <glyph glyph-name="o" unicode="o" horiz-adv-x="456" 
d="M261 469q-50 0 -86 -43t-56.5 -116t-20.5 -144q0 -64 24.5 -97.5t71.5 -33.5q50 0 86 42.5t56.5 115.5t20.5 144q0 132 -96 132zM190 -13q-70 0 -109 48.5t-39 136.5q0 89 30 173t79 128t113 44q71 0 110 -48.5t39 -136.5q0 -89 -30 -173t-79.5 -128t-113.5 -44z" />
    <glyph glyph-name="p" unicode="p" horiz-adv-x="453" 
d="M-16 -206l139 709h46l-11 -86q37 48 77 74t79 26q47 0 72.5 -42.5t25.5 -118.5q0 -106 -34 -191t-90.5 -131.5t-123.5 -46.5q-45 0 -83 24l-42 -217h-55zM291 469q-31 0 -68.5 -28t-72.5 -77l-61 -311q31 -19 75 -19q55 0 99 43.5t68 115t24 156.5q0 57 -17 88.5
t-47 31.5z" />
    <glyph glyph-name="q" unicode="q" horiz-adv-x="454" 
d="M291 79q-34 -44 -73 -68t-79 -24q-49 0 -75 39.5t-26 112.5q0 106 36.5 193.5t95.5 136t126 48.5q63 0 129 -33l-135 -690h-55zM160 35q32 0 69 26t73 75l63 320q-37 14 -72 14q-42 0 -79 -28.5t-64 -75t-41 -103.5t-14 -118q0 -110 65 -110z" />
    <glyph glyph-name="r" unicode="r" horiz-adv-x="288" 
d="M24 0l99 503h46l-12 -91q61 95 135 95q17 0 30 -3l-10 -53q-18 3 -35 3q-35 0 -66 -23t-61 -70l-71 -361h-55z" />
    <glyph glyph-name="s" unicode="s" horiz-adv-x="339" 
d="M124 371q0 -24 11 -42t37 -36l49 -35q33 -24 48 -50t15 -59q0 -71 -44.5 -116.5t-113.5 -45.5q-73 0 -125 37l8 42q52 -33 115 -33q48 0 77 29.5t29 77.5q0 45 -46 78l-49 35q-35 25 -50 51t-15 60q0 67 43 110t112 43q57 0 105 -30l-8 -42q-46 26 -96 26
q-47 0 -74.5 -27t-27.5 -73z" />
    <glyph glyph-name="t" unicode="t" horiz-adv-x="309" 
d="M255 28q-45 -34 -101 -34q-88 0 -88 86q0 25 16 109l52 266h-75l8 39l79 8l37 147h44l-29 -146h121l-10 -48h-120l-52 -266q-11 -57 -13.5 -73t-2.5 -27q0 -47 50 -47q38 0 71 23z" />
    <glyph glyph-name="u" unicode="u" horiz-adv-x="467" 
d="M297 0l13 100q-36 -53 -81 -83t-88 -30q-44 0 -67.5 28t-23.5 81q0 43 21 153l50 254h55l-50 -253q-21 -107 -21 -146q0 -68 57 -68q35 0 76 30t79 84l70 353h55l-99 -503h-46z" />
    <glyph glyph-name="v" unicode="v" horiz-adv-x="383" 
d="M115 0l-56 503h56l40 -452q48 84 109 218.5t97 233.5h57q-42 -112 -116 -261t-134 -242h-53z" />
    <glyph glyph-name="w" unicode="w" horiz-adv-x="567" 
d="M328 0l-10 439l-172 -439h-56l-30 503h55l16 -441l171 441h56l11 -448q46 95 94 218t81 230h57q-36 -111 -97 -252t-120 -251h-56z" />
    <glyph glyph-name="x" unicode="x" horiz-adv-x="364" 
d="M247 0l-73 218l-149 -218h-63l194 265l-87 238h58l67 -203l138 203h62l-182 -246l93 -257h-58z" />
    <glyph glyph-name="y" unicode="y" horiz-adv-x="380" 
d="M-62 -175q51 18 89 51q49 46 98 124l-67 503h56l50 -453q40 75 97 208.5t98 244.5h57q-56 -149 -127 -296t-131 -240q-102 -156 -195 -185z" />
    <glyph glyph-name="z" unicode="z" horiz-adv-x="381" 
d="M-9 0l9 45l312 409h-228l10 49h291l-9 -46l-312 -408h238l-10 -49h-301z" />
    <glyph glyph-name="braceleft" unicode="{" horiz-adv-x="296" 
d="M157 -104q26 0 45 9l8 -42q-30 -15 -72 -15q-41 0 -64 24t-23 68q0 21 4 47t17 95l12 63q12 63 14.5 78t2.5 24q0 24 -11.5 34.5t-36.5 10.5h-15l9 48h17q33 0 49 17.5t25 63.5l40 205q26 136 128 136q30 0 60 -13l-8 -43q-24 8 -45 8q-33 0 -51 -21.5t-29 -77.5
l-37 -189q-10 -49 -29.5 -76t-53.5 -37q45 -14 45 -63q0 -15 -19 -115l-12 -64q-13 -68 -16.5 -89.5t-3.5 -31.5q0 -54 50 -54z" />
    <glyph glyph-name="bar" unicode="|" horiz-adv-x="232" 
d="M-1 -206l187 960h55l-187 -960h-55z" />
    <glyph glyph-name="braceright" unicode="}" horiz-adv-x="296" 
d="M159 714q-25 0 -45 -9l-8 42q30 15 72 15q41 0 64 -24t23 -68q0 -21 -4 -47t-17 -95l-12 -63q-12 -63 -14.5 -78t-2.5 -24q0 -24 11.5 -34.5t36.5 -10.5h15l-9 -48h-17q-33 0 -49 -17.5t-25 -63.5l-40 -205q-26 -136 -128 -136q-30 0 -60 13l8 43q24 -8 45 -8
q33 0 51 21.5t29 77.5l37 189q9 49 29 76t53 36q-44 14 -44 64q0 15 19 115l12 64q13 68 16.5 89.5t3.5 31.5q0 54 -50 54z" />
    <glyph glyph-name="asciitilde" unicode="~" 
d="M103 274h-41q4 73 33 114t76 41q23 0 43.5 -12.5t47.5 -43.5q32 -35 47.5 -46t32.5 -11q24 0 38.5 18.5t21.5 59.5l5 29h41q-4 -73 -33 -114t-76 -41q-23 0 -44 13t-48 44q-31 34 -46.5 45t-32.5 11q-24 0 -38.5 -18.5t-21.5 -59.5z" />
    <glyph glyph-name="uni00A0" unicode="&#xa0;" horiz-adv-x="211" 
 />
    <glyph glyph-name="exclamdown" unicode="&#xa1;" horiz-adv-x="210" 
d="M139 311l-90 -502q-17 -7 -32 -7t-29 7l106 502h45zM148 510q16 0 26 -10t10 -28q0 -22 -13 -36.5t-32 -14.5q-16 0 -26 10t-10 28q0 22 13 36.5t32 14.5z" />
    <glyph glyph-name="cent" unicode="&#xa2;" 
d="M181 -130l29 149q-59 5 -91 47.5t-32 116.5q0 92 30 169t81 126t113 62l30 153h35l-29 -149h3q53 0 94 -25l-9 -43q-42 21 -82 21q-10 0 -15 -1l-83 -429q52 6 116 54l13 -37q-30 -27 -66 -43.5t-72 -20.5l-29 -150h-36zM143 190q0 -112 76 -123l82 421
q-70 -25 -114 -107.5t-44 -190.5z" />
    <glyph glyph-name="sterling" unicode="&#xa3;" 
d="M216 326q-6 -98 -30 -163t-71 -113h281l-10 -50h-347l10 46q54 46 82.5 114.5t32.5 165.5h-82l9 48h74q0 15 -0.5 31.5t-0.5 32.5q0 124 55.5 196.5t150.5 72.5q36 0 70.5 -13t60.5 -37l-9 -45q-58 43 -123 43q-74 0 -112 -58.5t-38 -171.5q0 -35 -1 -51h172l-10 -48
h-164z" />
    <glyph glyph-name="currency" unicode="&#xa4;" 
d="M236 137q-69 0 -111 39l-82 -82l-29 32l84 84q-21 38 -21 91q0 55 18 103.5t50 81.5l-47 72l38 28l46 -70q44 27 99 27q66 0 110 -38l81 81l29 -32l-83 -83q23 -38 23 -92q0 -55 -18 -103.5t-51 -82.5l47 -71l-38 -28l-47 69q-43 -26 -98 -26zM277 499q-69 0 -109.5 -55
t-40.5 -144q0 -57 29 -88t84 -31q69 0 109.5 55t40.5 144q0 58 -29 88.5t-84 30.5z" />
    <glyph glyph-name="yen" unicode="&#xa5;" 
d="M248 170l-33 -170h-54l33 170h-141l8 40h140l8 42l-14 68h-113l8 40h96l-70 333h58l73 -391l221 391h61l-200 -333h99l-8 -40h-115l-41 -69l-8 -41h142l-8 -40h-142z" />
    <glyph glyph-name="brokenbar" unicode="&#xa6;" horiz-adv-x="232" 
d="M-1 -206l70 357h55l-70 -357h-55zM116 397l70 357h55l-70 -357h-55z" />
    <glyph glyph-name="section" unicode="&#xa7;" horiz-adv-x="386" 
d="M127 179q-39 26 -57.5 57t-18.5 70q0 54 30 91.5t86 52.5q-56 43 -56 108t44 106.5t113 41.5q33 0 65.5 -8.5t55.5 -23.5l-8 -42q-53 28 -110 28q-49 0 -77.5 -26.5t-28.5 -72.5q0 -26 12.5 -45t42.5 -39l57 -38q40 -26 58.5 -57t18.5 -71q0 -56 -26.5 -95.5t-76.5 -59.5
q42 -39 42 -95q0 -69 -46.5 -113t-118.5 -44q-37 0 -71 10t-61 28l8 43q56 -35 121 -35q49 0 81.5 28.5t32.5 71.5q0 28 -12.5 49.5t-41.5 40.5zM202 426q-50 -15 -73 -42t-23 -69q0 -32 13 -54.5t44 -42.5l55 -37q81 34 81 119q0 33 -14 56t-48 46z" />
    <glyph glyph-name="dieresis" unicode="&#xa8;" horiz-adv-x="500" 
d="M244 613q-15 0 -24 9t-9 24q0 20 11 33t28 13q15 0 24 -9t9 -24q0 -19 -11 -32.5t-28 -13.5zM416 613q-15 0 -24 9t-9 24q0 20 11 33t28 13q15 0 24 -9t9 -24q0 -19 -11 -32.5t-28 -13.5z" />
    <glyph glyph-name="copyright" unicode="&#xa9;" horiz-adv-x="672" 
d="M352 -7q-94 0 -164 45t-107 124.5t-37 182.5q0 107 39.5 187t109 122.5t159.5 42.5q93 0 163 -45t107.5 -124.5t37.5 -182.5q0 -107 -39.5 -187t-109 -122.5t-159.5 -42.5zM352 34q83 0 143 38.5t92 108.5t32 163q0 97 -33 167.5t-93 107.5t-141 37q-123 0 -195 -84
t-72 -228q0 -143 72 -226.5t195 -83.5zM442 166q-38 -18 -75 -18q-69 0 -106 51.5t-37 148.5t37.5 149t106.5 52q38 0 71 -19v-38q-36 14 -67 14q-101 0 -101 -150v-13q0 -75 26 -113.5t77 -38.5q35 0 68 16v-41z" />
    <glyph glyph-name="ordfeminine" unicode="&#xaa;" horiz-adv-x="318" 
d="M282 610q0 53 -59 53q-43 0 -90 -24l-5 32q49 30 105 30q42 0 67 -21.5t25 -60.5q0 -20 -5 -42l-45 -231h-36l3 39q-21 -22 -46 -34.5t-50 -12.5q-34 0 -54.5 23t-20.5 62q0 57 33.5 90.5t90.5 33.5q34 0 73 -17l9 42q5 23 5 38zM163 373q37 0 83 43l16 85q-29 13 -64 13
q-40 0 -61.5 -22.5t-21.5 -64.5q0 -54 48 -54zM38 233l7 37h214l-7 -37h-214z" />
    <glyph glyph-name="guillemotleft" unicode="&#xab;" horiz-adv-x="397" 
d="M116 51l-67 208l144 208h56l-145 -212l64 -204h-52zM253 51l-67 208l144 208h56l-145 -212l64 -204h-52z" />
    <glyph glyph-name="logicalnot" unicode="&#xac;" 
d="M378 243l34 176h-324l9 46h373l-43 -222h-49z" />
    <glyph glyph-name="uni00AD" unicode="&#xad;" horiz-adv-x="335" 
d="M46 234l10 50h235l-10 -50h-235z" />
    <glyph glyph-name="registered" unicode="&#xae;" horiz-adv-x="470" 
d="M281 286q-92 0 -148.5 63.5t-56.5 166.5q0 104 56.5 167.5t148.5 63.5q95 0 152.5 -63.5t57.5 -167.5t-57.5 -167t-152.5 -63zM281 319q82 0 129.5 52.5t47.5 144.5t-47.5 145t-129.5 53q-79 0 -125.5 -53.5t-46.5 -144.5t46.5 -144t125.5 -53zM216 388v262h78
q33 0 51.5 -22t18.5 -59q0 -26 -12.5 -45.5t-34.5 -27.5l58 -108h-35l-54 105h-40v-105h-30zM246 519h41q22 0 33.5 13t11.5 37q0 23 -11.5 38t-28.5 15h-46v-103z" />
    <glyph glyph-name="macron" unicode="&#xaf;" horiz-adv-x="500" 
d="M211 649l8 41h241l-8 -41h-241z" />
    <glyph glyph-name="degree" unicode="&#xb0;" horiz-adv-x="320" 
d="M209 441q-48 0 -77 29.5t-29 78.5q0 64 37.5 108t94.5 44q48 0 77 -29.5t29 -77.5q0 -65 -37.5 -109t-94.5 -44zM232 666q-39 0 -65 -33t-26 -80q0 -36 18.5 -56.5t52.5 -20.5q39 0 65 33t26 81q0 35 -18.5 55.5t-52.5 20.5z" />
    <glyph glyph-name="plusminus" unicode="&#xb1;" 
d="M294 395l-38 -197h-50l39 197h-162l9 46h162l38 197h50l-39 -197h162l-9 -46h-162zM15 50l9 46h373l-9 -46h-373z" />
    <glyph glyph-name="uni00B2" unicode="&#xb2;" horiz-adv-x="336" 
d="M353 693q0 -27 -13.5 -55.5t-49.5 -70t-134 -136.5h159l-8 -41h-216l7 36q92 89 133.5 133t58.5 72.5t17 54.5t-15.5 40.5t-43.5 14.5q-48 0 -88 -36l-7 36q47 41 107 41q42 0 67.5 -24.5t25.5 -64.5z" />
    <glyph glyph-name="uni00B3" unicode="&#xb3;" horiz-adv-x="336" 
d="M238 609q42 0 67.5 -24.5t25.5 -65.5q0 -61 -40 -99t-102 -38q-52 0 -91 25l8 37q34 -22 83 -22q45 0 71 25.5t26 68.5q0 29 -19 44.5t-56 15.5q-20 0 -41 -3l5 27l128 133h-142l8 41h194l-7 -34l-128 -132q5 1 10 1z" />
    <glyph glyph-name="acute" unicode="&#xb4;" horiz-adv-x="500" 
d="M246 602l104 152h66l-121 -152h-49z" />
    <glyph glyph-name="mu" unicode="&#xb5;" 
d="M433 13q-25 -16 -58 -16q-29 0 -44.5 18t-15.5 50q0 19 2 29q-34 -50 -75 -78.5t-79 -28.5q-57 0 -72 61l-49 -254h-52l139 709h55l-50 -252q-20 -103 -20 -142q0 -38 13.5 -56t41.5 -18q36 0 78 30.5t78 83.5l69 354h55l-72 -370q-8 -39 -8 -58q0 -33 26 -33q15 0 28 7z
" />
    <glyph glyph-name="paragraph" unicode="&#xb6;" horiz-adv-x="488" 
d="M285 -104l146 753h-105l-166 -855h-46l90 465q-61 15 -93 57t-32 108q0 124 67 196.5t181 72.5h159l-155 -797h-46z" />
    <glyph glyph-name="periodcentered" unicode="&#xb7;" horiz-adv-x="202" 
d="M98 213q-16 0 -26 10t-10 28q0 22 13 36.5t32 14.5q16 0 26 -10t10 -28q0 -22 -13 -36.5t-32 -14.5z" />
    <glyph glyph-name="cedilla" unicode="&#xb8;" horiz-adv-x="500" 
d="M120 -248q92 62 92 114q0 30 -32 30q-13 0 -30 -5l7 34q21 9 43 9q27 0 42.5 -16t15.5 -44q0 -39 -30 -76.5t-88 -71.5z" />
    <glyph glyph-name="uni00B9" unicode="&#xb9;" horiz-adv-x="336" 
d="M207 390l65 336l-108 -49l8 41l115 56h39l-75 -384h-44z" />
    <glyph glyph-name="ordmasculine" unicode="&#xba;" horiz-adv-x="341" 
d="M45 233l7 37h242l-7 -37h-242zM196 338q-51 0 -79.5 33.5t-28.5 92.5q0 61 21.5 118.5t57 88t81.5 30.5q51 0 79.5 -33t28.5 -93q0 -61 -21.5 -118.5t-57 -88t-81.5 -30.5zM245 662q-34 0 -59 -28.5t-39 -76.5t-14 -94q0 -87 66 -87q34 0 59 28.5t39 76.5t14 95
q0 86 -66 86z" />
    <glyph glyph-name="guillemotright" unicode="&#xbb;" horiz-adv-x="397" 
d="M146 467l67 -208l-144 -208h-56l144 211l-63 205h52zM283 467l67 -208l-144 -208h-56l144 211l-63 205h52z" />
    <glyph glyph-name="onequarter" unicode="&#xbc;" horiz-adv-x="790" 
d="M203 0l387 693h49l-387 -693h-49zM614 0l16 83h-172l7 35l222 266h42l-52 -263h48l-8 -38h-47l-16 -83h-40zM637 121l39 200l-167 -200h128zM191 309l65 336l-108 -49l8 41l115 56h39l-75 -384h-44z" />
    <glyph glyph-name="onehalf" unicode="&#xbd;" horiz-adv-x="790" 
d="M183 0l387 693h49l-387 -693h-49zM726 303q0 -27 -13.5 -55.5t-49.5 -70t-134 -136.5h159l-8 -41h-216l7 36q92 89 133.5 133t58.5 72.5t17 54.5t-15.5 40.5t-43.5 14.5q-48 0 -88 -36l-7 36q47 41 107 41q42 0 67.5 -24.5t25.5 -64.5zM191 309l65 336l-108 -49l8 41
l115 56h39l-75 -384h-44z" />
    <glyph glyph-name="threequarters" unicode="&#xbe;" horiz-adv-x="790" 
d="M225 0l387 693h49l-387 -693h-49zM614 0l16 83h-172l7 35l222 266h42l-52 -263h48l-8 -38h-47l-16 -83h-40zM637 121l39 200l-167 -200h128zM222 528q42 0 67.5 -24.5t25.5 -65.5q0 -61 -40 -99t-102 -38q-52 0 -91 25l8 37q34 -22 83 -22q45 0 71 25.5t26 68.5
q0 29 -19 44.5t-56 15.5q-20 0 -41 -3l5 27l128 133h-142l8 41h194l-7 -34l-128 -132q5 1 10 1z" />
    <glyph glyph-name="questiondown" unicode="&#xbf;" horiz-adv-x="359" 
d="M242 311l-29 -164l-37 -21q-146 -85 -146 -194q0 -84 88 -84q61 0 120 44l7 -45q-30 -24 -66.5 -37t-73.5 -13q-59 0 -94.5 35.5t-35.5 94.5q0 138 192 244l29 140h46zM243 510q16 0 26 -10t10 -28q0 -22 -13 -36.5t-32 -14.5q-16 0 -26 10t-10 28q0 22 13 36.5t32 14.5z
" />
    <glyph glyph-name="Agrave" unicode="&#xc0;" horiz-adv-x="498" 
d="M375 0l-19 207h-233l-96 -207h-62l337 693h61l71 -693h-59zM146 255h207l-32 374zM307 769l-72 117h65l56 -117h-49z" />
    <glyph glyph-name="Aacute" unicode="&#xc1;" horiz-adv-x="498" 
d="M375 0l-19 207h-233l-96 -207h-62l337 693h61l71 -693h-59zM146 255h207l-32 374zM360 769h-52l98 117h69z" />
    <glyph glyph-name="Acircumflex" unicode="&#xc2;" horiz-adv-x="498" 
d="M375 0l-19 207h-233l-96 -207h-62l337 693h61l71 -693h-59zM146 255h207l-32 374zM356 862l-105 -93h-53l134 129h56l84 -129h-48z" />
    <glyph glyph-name="Atilde" unicode="&#xc3;" horiz-adv-x="498" 
d="M375 0l-19 207h-233l-96 -207h-62l337 693h61l71 -693h-59zM146 255h207l-32 374zM444 886h36q-2 -18 -5 -32q-10 -38 -30 -58.5t-49 -20.5q-18 0 -31.5 8.5t-29.5 29.5q-21 27 -27.5 32t-15.5 5q-25 0 -37 -46l-7 -26h-36q2 18 5 31q9 38 30 59t49 21q17 0 30.5 -8.5
t30.5 -31.5q17 -22 25 -28.5t18 -6.5q14 0 23 10.5t14 33.5z" />
    <glyph glyph-name="Adieresis" unicode="&#xc4;" horiz-adv-x="498" 
d="M375 0l-19 207h-233l-96 -207h-62l337 693h61l71 -693h-59zM146 255h207l-32 374zM261 791q-15 0 -24.5 9.5t-9.5 25.5q0 20 11.5 34t28.5 14q15 0 24.5 -9.5t9.5 -25.5q0 -20 -11.5 -34t-28.5 -14zM433 791q-15 0 -24.5 9.5t-9.5 25.5q0 20 11.5 34t28.5 14
q15 0 24.5 -9.5t9.5 -25.5q0 -20 -11.5 -34t-28.5 -14z" />
    <glyph glyph-name="Aring" unicode="&#xc5;" horiz-adv-x="498" 
d="M375 0l-19 207h-233l-96 -207h-62l337 693h61l71 -693h-59zM146 255h207l-32 374zM344 741q-38 0 -62 22t-24 57q0 44 29.5 73.5t73.5 29.5q38 0 62 -22.5t24 -57.5q0 -44 -29.5 -73t-73.5 -29zM358 891q-28 0 -45 -19.5t-17 -50.5q0 -21 14 -34.5t37 -13.5q28 0 45 19.5
t17 49.5q0 22 -14 35.5t-37 13.5z" />
    <glyph glyph-name="AE" unicode="&#xc6;" horiz-adv-x="753" 
d="M332 0l46 237h-194l-153 -237h-66l459 693h366l-10 -49h-265l-51 -260h226l-10 -50h-226l-56 -285h266l-9 -49h-323zM448 644l-233 -360h172l71 360h-10z" />
    <glyph glyph-name="Ccedilla" unicode="&#xc7;" horiz-adv-x="497" 
d="M438 51q-80 -66 -180 -66q-87 0 -135.5 65t-48.5 181q0 137 46.5 246t123 168.5t167.5 59.5q66 0 117 -33l-9 -47q-51 28 -109 28q-80 0 -143.5 -57.5t-98 -151.5t-34.5 -206q0 -97 35 -149t101 -52q38 0 75 14t81 46zM178 -246q90 59 90 112q0 28 -30 28q-17 0 -30 -4
l7 35q21 9 43 9q27 0 42.5 -16t15.5 -44q0 -39 -30 -76.5t-88 -71.5z" />
    <glyph glyph-name="Egrave" unicode="&#xc8;" horiz-adv-x="456" 
d="M35 0l135 693h323l-10 -49h-265l-51 -260h226l-10 -50h-226l-56 -285h266l-9 -49h-323zM311 769l-72 117h65l56 -117h-49z" />
    <glyph glyph-name="Eacute" unicode="&#xc9;" horiz-adv-x="456" 
d="M35 0l135 693h323l-10 -49h-265l-51 -260h226l-10 -50h-226l-56 -285h266l-9 -49h-323zM364 769h-52l98 117h69z" />
    <glyph glyph-name="Ecircumflex" unicode="&#xca;" horiz-adv-x="456" 
d="M35 0l135 693h323l-10 -49h-265l-51 -260h226l-10 -50h-226l-56 -285h266l-9 -49h-323zM360 862l-105 -93h-53l134 129h56l84 -129h-48z" />
    <glyph glyph-name="Edieresis" unicode="&#xcb;" horiz-adv-x="456" 
d="M35 0l135 693h323l-10 -49h-265l-51 -260h226l-10 -50h-226l-56 -285h266l-9 -49h-323zM265 791q-15 0 -24.5 9.5t-9.5 25.5q0 20 11.5 34t28.5 14q15 0 24.5 -9.5t9.5 -25.5q0 -20 -11.5 -34t-28.5 -14zM437 791q-15 0 -24.5 9.5t-9.5 25.5q0 20 11.5 34t28.5 14
q15 0 24.5 -9.5t9.5 -25.5q0 -20 -11.5 -34t-28.5 -14z" />
    <glyph glyph-name="Igrave" unicode="&#xcc;" horiz-adv-x="225" 
d="M35 0l135 693h57l-135 -693h-57zM177 769l-72 117h65l56 -117h-49z" />
    <glyph glyph-name="Iacute" unicode="&#xcd;" horiz-adv-x="225" 
d="M35 0l135 693h57l-135 -693h-57zM230 769h-52l98 117h69z" />
    <glyph glyph-name="Icircumflex" unicode="&#xce;" horiz-adv-x="225" 
d="M35 0l135 693h57l-135 -693h-57zM226 862l-105 -93h-53l134 129h56l84 -129h-48z" />
    <glyph glyph-name="Idieresis" unicode="&#xcf;" horiz-adv-x="225" 
d="M35 0l135 693h57l-135 -693h-57zM131 791q-15 0 -24.5 9.5t-9.5 25.5q0 20 11.5 34t28.5 14q15 0 24.5 -9.5t9.5 -25.5q0 -20 -11.5 -34t-28.5 -14zM303 791q-15 0 -24.5 9.5t-9.5 25.5q0 20 11.5 34t28.5 14q15 0 24.5 -9.5t9.5 -25.5q0 -20 -11.5 -34t-28.5 -14z" />
    <glyph glyph-name="Eth" unicode="&#xd0;" horiz-adv-x="581" 
d="M45 0l65 333h-62l9 46h62l61 314h164q93 0 146 -64.5t53 -179.5q0 -129 -44.5 -232.5t-117.5 -160t-159 -56.5h-177zM166 333l-55 -285h110q76 0 136.5 55t93.5 146t33 199q0 93 -39 145t-108 52h-110l-52 -266h133l-9 -46h-133z" />
    <glyph glyph-name="Ntilde" unicode="&#xd1;" horiz-adv-x="576" 
d="M381 0l-176 602l-118 -602h-52l135 693h62l176 -607l118 607h52l-135 -693h-62zM490 886h36q-2 -18 -5 -32q-10 -38 -30 -58.5t-49 -20.5q-18 0 -31.5 8.5t-29.5 29.5q-21 27 -27.5 32t-15.5 5q-25 0 -37 -46l-7 -26h-36q2 18 5 31q9 38 30 59t49 21q17 0 30.5 -8.5
t30.5 -31.5q17 -22 25 -28.5t18 -6.5q14 0 23 10.5t14 33.5z" />
    <glyph glyph-name="Ograve" unicode="&#xd2;" horiz-adv-x="625" 
d="M376 654q-75 0 -128.5 -58.5t-84 -158.5t-30.5 -202q0 -96 39.5 -147.5t112.5 -51.5q75 0 128.5 58.5t84 159t30.5 202.5q0 95 -39.5 146.5t-112.5 51.5zM380 705q99 0 153 -66.5t54 -186.5q0 -92 -25 -183.5t-66 -155t-95 -96t-120 -32.5q-99 0 -153 66.5t-54 186.5
q0 92 25 183.5t66 155t95 96t120 32.5zM372 769l-72 117h65l56 -117h-49z" />
    <glyph glyph-name="Oacute" unicode="&#xd3;" horiz-adv-x="625" 
d="M376 654q-75 0 -128.5 -58.5t-84 -158.5t-30.5 -202q0 -96 39.5 -147.5t112.5 -51.5q75 0 128.5 58.5t84 159t30.5 202.5q0 95 -39.5 146.5t-112.5 51.5zM380 705q99 0 153 -66.5t54 -186.5q0 -92 -25 -183.5t-66 -155t-95 -96t-120 -32.5q-99 0 -153 66.5t-54 186.5
q0 92 25 183.5t66 155t95 96t120 32.5zM425 769h-52l98 117h69z" />
    <glyph glyph-name="Ocircumflex" unicode="&#xd4;" horiz-adv-x="625" 
d="M376 654q-75 0 -128.5 -58.5t-84 -158.5t-30.5 -202q0 -96 39.5 -147.5t112.5 -51.5q75 0 128.5 58.5t84 159t30.5 202.5q0 95 -39.5 146.5t-112.5 51.5zM380 705q99 0 153 -66.5t54 -186.5q0 -92 -25 -183.5t-66 -155t-95 -96t-120 -32.5q-99 0 -153 66.5t-54 186.5
q0 92 25 183.5t66 155t95 96t120 32.5zM421 862l-105 -93h-53l134 129h56l84 -129h-48z" />
    <glyph glyph-name="Otilde" unicode="&#xd5;" horiz-adv-x="625" 
d="M376 654q-75 0 -128.5 -58.5t-84 -158.5t-30.5 -202q0 -96 39.5 -147.5t112.5 -51.5q75 0 128.5 58.5t84 159t30.5 202.5q0 95 -39.5 146.5t-112.5 51.5zM380 705q99 0 153 -66.5t54 -186.5q0 -92 -25 -183.5t-66 -155t-95 -96t-120 -32.5q-99 0 -153 66.5t-54 186.5
q0 92 25 183.5t66 155t95 96t120 32.5zM509 886h36q-2 -18 -5 -32q-10 -38 -30 -58.5t-49 -20.5q-18 0 -31.5 8.5t-29.5 29.5q-21 27 -27.5 32t-15.5 5q-25 0 -37 -46l-7 -26h-36q2 18 5 31q9 38 30 59t49 21q17 0 30.5 -8.5t30.5 -31.5q17 -22 25 -28.5t18 -6.5
q14 0 23 10.5t14 33.5z" />
    <glyph glyph-name="Odieresis" unicode="&#xd6;" horiz-adv-x="625" 
d="M376 654q-75 0 -128.5 -58.5t-84 -158.5t-30.5 -202q0 -96 39.5 -147.5t112.5 -51.5q75 0 128.5 58.5t84 159t30.5 202.5q0 95 -39.5 146.5t-112.5 51.5zM380 705q99 0 153 -66.5t54 -186.5q0 -92 -25 -183.5t-66 -155t-95 -96t-120 -32.5q-99 0 -153 66.5t-54 186.5
q0 92 25 183.5t66 155t95 96t120 32.5zM326 791q-15 0 -24.5 9.5t-9.5 25.5q0 20 11.5 34t28.5 14q15 0 24.5 -9.5t9.5 -25.5q0 -20 -11.5 -34t-28.5 -14zM498 791q-15 0 -24.5 9.5t-9.5 25.5q0 20 11.5 34t28.5 14q15 0 24.5 -9.5t9.5 -25.5q0 -20 -11.5 -34t-28.5 -14z
" />
    <glyph glyph-name="multiply" unicode="&#xd7;" 
d="M345 150l-95 153l-152 -153l-27 37l156 156l-98 159l38 31l95 -155l153 153l27 -37l-157 -156l98 -157z" />
    <glyph glyph-name="Oslash" unicode="&#xd8;" horiz-adv-x="625" 
d="M380 705q104 0 157 -73l71 89l28 -26l-78 -97q29 -61 29 -146q0 -92 -25 -183.5t-66 -155t-95 -96t-120 -32.5q-101 0 -156 71l-70 -87l-28 26l76 95q-29 61 -29 148q0 92 25 183.5t66 155t95 96t120 32.5zM376 654q-75 0 -128.5 -58.5t-84 -158.5t-30.5 -202
q0 -52 12 -93l355 444q-40 68 -124 68zM528 456q0 51 -12 90l-354 -443q38 -67 123 -67q75 0 128.5 58.5t84 159t30.5 202.5z" />
    <glyph glyph-name="Ugrave" unicode="&#xd9;" horiz-adv-x="570" 
d="M518 693h57l-91 -467q-46 -241 -239 -241q-83 0 -127.5 46t-44.5 132q0 32 4.5 66.5t16.5 95.5l72 368h57l-73 -372q-21 -105 -21 -150q0 -134 124 -134q138 0 174 187zM346 769l-72 117h65l56 -117h-49z" />
    <glyph glyph-name="Uacute" unicode="&#xda;" horiz-adv-x="570" 
d="M518 693h57l-91 -467q-46 -241 -239 -241q-83 0 -127.5 46t-44.5 132q0 32 4.5 66.5t16.5 95.5l72 368h57l-73 -372q-21 -105 -21 -150q0 -134 124 -134q138 0 174 187zM399 769h-52l98 117h69z" />
    <glyph glyph-name="Ucircumflex" unicode="&#xdb;" horiz-adv-x="570" 
d="M518 693h57l-91 -467q-46 -241 -239 -241q-83 0 -127.5 46t-44.5 132q0 32 4.5 66.5t16.5 95.5l72 368h57l-73 -372q-21 -105 -21 -150q0 -134 124 -134q138 0 174 187zM395 862l-105 -93h-53l134 129h56l84 -129h-48z" />
    <glyph glyph-name="Udieresis" unicode="&#xdc;" horiz-adv-x="570" 
d="M518 693h57l-91 -467q-46 -241 -239 -241q-83 0 -127.5 46t-44.5 132q0 32 4.5 66.5t16.5 95.5l72 368h57l-73 -372q-21 -105 -21 -150q0 -134 124 -134q138 0 174 187zM300 791q-15 0 -24.5 9.5t-9.5 25.5q0 20 11.5 34t28.5 14q15 0 24.5 -9.5t9.5 -25.5
q0 -20 -11.5 -34t-28.5 -14zM472 791q-15 0 -24.5 9.5t-9.5 25.5q0 20 11.5 34t28.5 14q15 0 24.5 -9.5t9.5 -25.5q0 -20 -11.5 -34t-28.5 -14z" />
    <glyph glyph-name="Yacute" unicode="&#xdd;" horiz-adv-x="467" 
d="M154 0l50 253l-100 440h59l78 -390l230 390h63l-275 -443l-49 -250h-56zM349 769h-52l98 117h69z" />
    <glyph glyph-name="Thorn" unicode="&#xde;" horiz-adv-x="477" 
d="M198 558h95q75 0 116.5 -42t41.5 -118q0 -74 -30.5 -129.5t-84 -85.5t-122.5 -30h-94l-30 -153h-55l135 693h55zM189 511l-60 -311h89q79 0 127 54t48 143q0 55 -29.5 84.5t-84.5 29.5h-90z" />
    <glyph glyph-name="germandbls" unicode="&#xdf;" horiz-adv-x="471" 
d="M158 62q47 -30 103 -30q48 0 77.5 31t29.5 80q0 51 -41 91l-28 28q-26 26 -38 48.5t-12 46.5q0 23 7 43t23 40t45 44q40 32 57.5 64.5t17.5 72.5q0 39 -21.5 63.5t-57.5 24.5q-103 0 -139 -187l-101 -522h-56l102 524q45 230 198 230q57 0 92 -35.5t35 -92.5
q0 -50 -23 -90.5t-77 -85.5q-26 -21 -37.5 -41t-11.5 -46q0 -16 8.5 -31.5t27.5 -34.5l27 -28q29 -29 42.5 -58t13.5 -61q0 -71 -45 -117.5t-114 -46.5q-31 0 -60.5 9t-51.5 25z" />
    <glyph glyph-name="agrave" unicode="&#xe0;" horiz-adv-x="450" 
d="M138 -13q-48 0 -74 39t-26 113q0 106 36.5 193.5t95.5 136t126 48.5q59 0 125 -33l-95 -484h-46l10 83q-72 -96 -152 -96zM159 35q64 0 139 102l63 319q-34 14 -69 14q-54 0 -100 -47t-71.5 -121t-25.5 -157q0 -110 64 -110zM264 602l-64 152h62l47 -152h-45z" />
    <glyph glyph-name="aacute" unicode="&#xe1;" horiz-adv-x="450" 
d="M138 -13q-48 0 -74 39t-26 113q0 106 36.5 193.5t95.5 136t126 48.5q59 0 125 -33l-95 -484h-46l10 83q-72 -96 -152 -96zM159 35q64 0 139 102l63 319q-34 14 -69 14q-54 0 -100 -47t-71.5 -121t-25.5 -157q0 -110 64 -110zM267 602l104 152h66l-121 -152h-49z" />
    <glyph glyph-name="acircumflex" unicode="&#xe2;" horiz-adv-x="450" 
d="M138 -13q-48 0 -74 39t-26 113q0 106 36.5 193.5t95.5 136t126 48.5q59 0 125 -33l-95 -484h-46l10 83q-72 -96 -152 -96zM159 35q64 0 139 102l63 319q-34 14 -69 14q-54 0 -100 -47t-71.5 -121t-25.5 -157q0 -110 64 -110zM316 716l-108 -114h-52l137 152h57l77 -152
h-47z" />
    <glyph glyph-name="atilde" unicode="&#xe3;" horiz-adv-x="450" 
d="M138 -13q-48 0 -74 39t-26 113q0 106 36.5 193.5t95.5 136t126 48.5q59 0 125 -33l-95 -484h-46l10 83q-72 -96 -152 -96zM159 35q64 0 139 102l63 319q-34 14 -69 14q-54 0 -100 -47t-71.5 -121t-25.5 -157q0 -110 64 -110zM414 723h35q-2 -20 -5 -32q-9 -38 -30 -59
t-49 -21q-18 0 -30.5 8t-30.5 32q-17 23 -25.5 30t-18.5 7q-13 0 -22.5 -12t-15.5 -35l-7 -27h-35q1 18 5 32q8 37 29 58.5t50 21.5q17 0 30 -8t31 -32t26 -30.5t18 -6.5q27 0 38 46z" />
    <glyph glyph-name="adieresis" unicode="&#xe4;" horiz-adv-x="450" 
d="M138 -13q-48 0 -74 39t-26 113q0 106 36.5 193.5t95.5 136t126 48.5q59 0 125 -33l-95 -484h-46l10 83q-72 -96 -152 -96zM159 35q64 0 139 102l63 319q-34 14 -69 14q-54 0 -100 -47t-71.5 -121t-25.5 -157q0 -110 64 -110zM225 613q-15 0 -24 9t-9 24q0 20 11 33t28 13
q15 0 24 -9t9 -24q0 -19 -11 -32.5t-28 -13.5zM397 613q-15 0 -24 9t-9 24q0 20 11 33t28 13q15 0 24 -9t9 -24q0 -19 -11 -32.5t-28 -13.5z" />
    <glyph glyph-name="aring" unicode="&#xe5;" horiz-adv-x="450" 
d="M138 -13q-48 0 -74 39t-26 113q0 106 36.5 193.5t95.5 136t126 48.5q59 0 125 -33l-95 -484h-46l10 83q-72 -96 -152 -96zM159 35q64 0 139 102l63 319q-34 14 -69 14q-54 0 -100 -47t-71.5 -121t-25.5 -157q0 -110 64 -110zM306 584q-39 0 -63.5 24t-24.5 62
q0 47 30.5 80t76.5 33q38 0 62.5 -24t24.5 -62q0 -47 -30.5 -80t-75.5 -33zM324 750q-30 0 -48.5 -22.5t-18.5 -56.5q0 -24 13.5 -38.5t36.5 -14.5q29 0 47.5 22t18.5 56q0 24 -13.5 39t-35.5 15z" />
    <glyph glyph-name="ae" unicode="&#xe6;" horiz-adv-x="674" 
d="M138 -13q-48 0 -74 39t-26 113q0 106 36.5 193.5t95.5 136t126 48.5q68 0 126 -60q62 60 136 60q46 0 71.5 -26t25.5 -74q0 -79 -61.5 -136t-179.5 -87l-50 -13v-21q0 -66 20 -96.5t64 -30.5q31 0 67 15t69 42l13 -38q-73 -65 -163 -65q-114 0 -124 141
q-36 -73 -77.5 -107t-94.5 -34zM318 251q20 101 76 175q-27 24 -51 34t-51 10q-54 0 -100 -47t-71.5 -121t-25.5 -157q0 -110 64 -110q36 0 67 29.5t56 81.5t36 105zM548 472q-42 0 -80.5 -34.5t-64.5 -91.5t-35 -124l49 14q89 25 137 70t48 104q0 30 -14 46t-40 16z" />
    <glyph glyph-name="ccedilla" unicode="&#xe7;" horiz-adv-x="382" 
d="M317 52q-32 -31 -71 -48t-79 -17q-62 0 -94.5 43t-32.5 124q0 102 36 186t94 130.5t125 46.5q47 0 85 -22l-9 -44q-40 17 -73 17q-57 0 -103.5 -43t-72 -113t-25.5 -152q0 -64 20.5 -94t64.5 -30q55 0 122 55zM85 -248q92 62 92 114q0 30 -32 30q-13 0 -30 -5l7 34
q21 9 43 9q27 0 42.5 -16t15.5 -44q0 -39 -30 -76.5t-88 -71.5z" />
    <glyph glyph-name="egrave" unicode="&#xe8;" horiz-adv-x="404" 
d="M327 52q-73 -65 -163 -65q-61 0 -92.5 41.5t-31.5 123.5q0 103 35.5 187.5t91.5 131t121 46.5q46 0 71.5 -26t25.5 -74q0 -79 -61.5 -136t-179.5 -87l-50 -13v-21q0 -66 20 -96.5t64 -30.5q31 0 67 15t69 42zM278 472q-42 0 -80.5 -34.5t-64.5 -91.5t-35 -124l49 14
q90 26 137.5 71t47.5 103q0 30 -14 46t-40 16zM255 602l-64 152h62l47 -152h-45z" />
    <glyph glyph-name="eacute" unicode="&#xe9;" horiz-adv-x="404" 
d="M327 52q-73 -65 -163 -65q-61 0 -92.5 41.5t-31.5 123.5q0 103 35.5 187.5t91.5 131t121 46.5q46 0 71.5 -26t25.5 -74q0 -79 -61.5 -136t-179.5 -87l-50 -13v-21q0 -66 20 -96.5t64 -30.5q31 0 67 15t69 42zM278 472q-42 0 -80.5 -34.5t-64.5 -91.5t-35 -124l49 14
q90 26 137.5 71t47.5 103q0 30 -14 46t-40 16zM258 602l104 152h66l-121 -152h-49z" />
    <glyph glyph-name="ecircumflex" unicode="&#xea;" horiz-adv-x="404" 
d="M327 52q-73 -65 -163 -65q-61 0 -92.5 41.5t-31.5 123.5q0 103 35.5 187.5t91.5 131t121 46.5q46 0 71.5 -26t25.5 -74q0 -79 -61.5 -136t-179.5 -87l-50 -13v-21q0 -66 20 -96.5t64 -30.5q31 0 67 15t69 42zM278 472q-42 0 -80.5 -34.5t-64.5 -91.5t-35 -124l49 14
q90 26 137.5 71t47.5 103q0 30 -14 46t-40 16zM307 716l-108 -114h-52l137 152h57l77 -152h-47z" />
    <glyph glyph-name="edieresis" unicode="&#xeb;" horiz-adv-x="404" 
d="M327 52q-73 -65 -163 -65q-61 0 -92.5 41.5t-31.5 123.5q0 103 35.5 187.5t91.5 131t121 46.5q46 0 71.5 -26t25.5 -74q0 -79 -61.5 -136t-179.5 -87l-50 -13v-21q0 -66 20 -96.5t64 -30.5q31 0 67 15t69 42zM278 472q-42 0 -80.5 -34.5t-64.5 -91.5t-35 -124l49 14
q90 26 137.5 71t47.5 103q0 30 -14 46t-40 16zM216 613q-15 0 -24 9t-9 24q0 20 11 33t28 13q15 0 24 -9t9 -24q0 -19 -11 -32.5t-28 -13.5zM388 613q-15 0 -24 9t-9 24q0 20 11 33t28 13q15 0 24 -9t9 -24q0 -19 -11 -32.5t-28 -13.5z" />
    <glyph glyph-name="igrave" unicode="&#xec;" horiz-adv-x="209" 
d="M126 503h55l-98 -503h-55zM127 602l-64 152h62l47 -152h-45z" />
    <glyph glyph-name="iacute" unicode="&#xed;" horiz-adv-x="209" 
d="M126 503h55l-98 -503h-55zM130 602l104 152h66l-121 -152h-49z" />
    <glyph glyph-name="icircumflex" unicode="&#xee;" horiz-adv-x="209" 
d="M126 503h55l-98 -503h-55zM179 716l-108 -114h-52l137 152h57l77 -152h-47z" />
    <glyph glyph-name="idieresis" unicode="&#xef;" horiz-adv-x="209" 
d="M126 503h55l-98 -503h-55zM88 613q-15 0 -24 9t-9 24q0 20 11 33t28 13q15 0 24 -9t9 -24q0 -19 -11 -32.5t-28 -13.5zM260 613q-15 0 -24 9t-9 24q0 20 11 33t28 13q15 0 24 -9t9 -24q0 -19 -11 -32.5t-28 -13.5z" />
    <glyph glyph-name="eth" unicode="&#xf0;" horiz-adv-x="452" 
d="M336 649q72 -100 72 -288q0 -118 -27.5 -202t-78 -128t-116.5 -44q-67 0 -106 47t-39 127q0 90 28.5 165t76 114.5t108.5 39.5q37 0 66.5 -20.5t44.5 -56.5q-5 75 -20.5 127t-42.5 89l-87 -75l-19 27l84 73q-36 36 -93 58l9 46q74 -26 119 -74l90 78l20 -26zM257 436
q-50 0 -86 -36t-55.5 -99t-19.5 -136q0 -63 25 -97.5t70 -34.5q48 0 84.5 36.5t56.5 97.5t20 136q0 61 -25.5 97t-69.5 36z" />
    <glyph glyph-name="ntilde" unicode="&#xf1;" horiz-adv-x="474" 
d="M298 0l50 255q14 70 17.5 95.5t3.5 43.5q0 74 -61 74q-35 0 -77 -29t-82 -81l-70 -358h-55l99 503h46l-12 -94q40 51 85 79.5t87 28.5q47 0 71 -29t24 -85q0 -23 -3.5 -49.5t-17.5 -97.5l-50 -256h-55zM415 723h35q-2 -20 -5 -32q-9 -38 -30 -59t-49 -21q-18 0 -30.5 8
t-30.5 32q-17 23 -25.5 30t-18.5 7q-13 0 -22.5 -12t-15.5 -35l-7 -27h-35q1 18 5 32q8 37 29 58.5t50 21.5q17 0 30 -8t31 -32t26 -30.5t18 -6.5q27 0 38 46z" />
    <glyph glyph-name="ograve" unicode="&#xf2;" horiz-adv-x="456" 
d="M261 469q-50 0 -86 -43t-56.5 -116t-20.5 -144q0 -64 24.5 -97.5t71.5 -33.5q50 0 86 42.5t56.5 115.5t20.5 144q0 132 -96 132zM190 -13q-70 0 -109 48.5t-39 136.5q0 89 30 173t79 128t113 44q71 0 110 -48.5t39 -136.5q0 -89 -30 -173t-79.5 -128t-113.5 -44zM250 602
l-64 152h62l47 -152h-45z" />
    <glyph glyph-name="oacute" unicode="&#xf3;" horiz-adv-x="456" 
d="M261 469q-50 0 -86 -43t-56.5 -116t-20.5 -144q0 -64 24.5 -97.5t71.5 -33.5q50 0 86 42.5t56.5 115.5t20.5 144q0 132 -96 132zM190 -13q-70 0 -109 48.5t-39 136.5q0 89 30 173t79 128t113 44q71 0 110 -48.5t39 -136.5q0 -89 -30 -173t-79.5 -128t-113.5 -44zM253 602
l104 152h66l-121 -152h-49z" />
    <glyph glyph-name="ocircumflex" unicode="&#xf4;" horiz-adv-x="456" 
d="M261 469q-50 0 -86 -43t-56.5 -116t-20.5 -144q0 -64 24.5 -97.5t71.5 -33.5q50 0 86 42.5t56.5 115.5t20.5 144q0 132 -96 132zM190 -13q-70 0 -109 48.5t-39 136.5q0 89 30 173t79 128t113 44q71 0 110 -48.5t39 -136.5q0 -89 -30 -173t-79.5 -128t-113.5 -44zM302 716
l-108 -114h-52l137 152h57l77 -152h-47z" />
    <glyph glyph-name="otilde" unicode="&#xf5;" horiz-adv-x="456" 
d="M261 469q-50 0 -86 -43t-56.5 -116t-20.5 -144q0 -64 24.5 -97.5t71.5 -33.5q50 0 86 42.5t56.5 115.5t20.5 144q0 132 -96 132zM190 -13q-70 0 -109 48.5t-39 136.5q0 89 30 173t79 128t113 44q71 0 110 -48.5t39 -136.5q0 -89 -30 -173t-79.5 -128t-113.5 -44zM400 723
h35q-2 -20 -5 -32q-9 -38 -30 -59t-49 -21q-18 0 -30.5 8t-30.5 32q-17 23 -25.5 30t-18.5 7q-13 0 -22.5 -12t-15.5 -35l-7 -27h-35q1 18 5 32q8 37 29 58.5t50 21.5q17 0 30 -8t31 -32t26 -30.5t18 -6.5q27 0 38 46z" />
    <glyph glyph-name="odieresis" unicode="&#xf6;" horiz-adv-x="456" 
d="M261 469q-50 0 -86 -43t-56.5 -116t-20.5 -144q0 -64 24.5 -97.5t71.5 -33.5q50 0 86 42.5t56.5 115.5t20.5 144q0 132 -96 132zM190 -13q-70 0 -109 48.5t-39 136.5q0 89 30 173t79 128t113 44q71 0 110 -48.5t39 -136.5q0 -89 -30 -173t-79.5 -128t-113.5 -44zM211 613
q-15 0 -24 9t-9 24q0 20 11 33t28 13q15 0 24 -9t9 -24q0 -19 -11 -32.5t-28 -13.5zM383 613q-15 0 -24 9t-9 24q0 20 11 33t28 13q15 0 24 -9t9 -24q0 -19 -11 -32.5t-28 -13.5z" />
    <glyph glyph-name="divide" unicode="&#xf7;" 
d="M70 327l9 46h373l-9 -46h-373zM223 137q-14 0 -23 9t-9 25q0 19 12 32t29 13q14 0 23 -9t9 -25q0 -19 -12 -32t-29 -13zM290 484q-14 0 -23 9t-9 25q0 19 12 32t29 13q14 0 23 -9t9 -25q0 -19 -12 -32t-29 -13z" />
    <glyph glyph-name="oslash" unicode="&#xf8;" horiz-adv-x="456" 
d="M6 -2l55 70q-19 41 -19 104q0 89 30 173t79 128t113 44q71 0 110 -50l48 61l26 -24l-54 -69q19 -44 19 -103q0 -89 -30 -173t-79.5 -128t-113.5 -44q-70 0 -110 49l-48 -62zM261 469q-50 0 -86 -43t-56.5 -116t-20.5 -144q0 -29 4 -46l238 303q-25 46 -79 46zM357 337
q0 18 -4 46l-238 -303q24 -45 79 -45q50 0 86 42.5t56.5 115.5t20.5 144z" />
    <glyph glyph-name="ugrave" unicode="&#xf9;" horiz-adv-x="467" 
d="M297 0l13 100q-36 -53 -81 -83t-88 -30q-44 0 -67.5 28t-23.5 81q0 43 21 153l50 254h55l-50 -253q-21 -107 -21 -146q0 -68 57 -68q35 0 76 30t79 84l70 353h55l-99 -503h-46zM257 602l-64 152h62l47 -152h-45z" />
    <glyph glyph-name="uacute" unicode="&#xfa;" horiz-adv-x="467" 
d="M297 0l13 100q-36 -53 -81 -83t-88 -30q-44 0 -67.5 28t-23.5 81q0 43 21 153l50 254h55l-50 -253q-21 -107 -21 -146q0 -68 57 -68q35 0 76 30t79 84l70 353h55l-99 -503h-46zM260 602l104 152h66l-121 -152h-49z" />
    <glyph glyph-name="ucircumflex" unicode="&#xfb;" horiz-adv-x="467" 
d="M297 0l13 100q-36 -53 -81 -83t-88 -30q-44 0 -67.5 28t-23.5 81q0 43 21 153l50 254h55l-50 -253q-21 -107 -21 -146q0 -68 57 -68q35 0 76 30t79 84l70 353h55l-99 -503h-46zM309 716l-108 -114h-52l137 152h57l77 -152h-47z" />
    <glyph glyph-name="udieresis" unicode="&#xfc;" horiz-adv-x="467" 
d="M297 0l13 100q-36 -53 -81 -83t-88 -30q-44 0 -67.5 28t-23.5 81q0 43 21 153l50 254h55l-50 -253q-21 -107 -21 -146q0 -68 57 -68q35 0 76 30t79 84l70 353h55l-99 -503h-46zM218 613q-15 0 -24 9t-9 24q0 20 11 33t28 13q15 0 24 -9t9 -24q0 -19 -11 -32.5t-28 -13.5z
M390 613q-15 0 -24 9t-9 24q0 20 11 33t28 13q15 0 24 -9t9 -24q0 -19 -11 -32.5t-28 -13.5z" />
    <glyph glyph-name="yacute" unicode="&#xfd;" horiz-adv-x="380" 
d="M-62 -175q51 18 89 51q49 46 98 124l-67 503h56l50 -453q40 75 97 208.5t98 244.5h57q-56 -149 -127 -296t-131 -240q-102 -156 -195 -185zM212 602l104 152h66l-121 -152h-49z" />
    <glyph glyph-name="thorn" unicode="&#xfe;" horiz-adv-x="453" 
d="M-16 -206l185 946h55l-63 -318q35 46 75 70.5t78 24.5q47 0 72.5 -42.5t25.5 -118.5q0 -106 -34 -191t-90.5 -131.5t-123.5 -46.5q-45 0 -83 24l-42 -217h-55zM291 469q-32 0 -69.5 -28t-71.5 -76l-61 -312q33 -19 75 -19q55 0 99 43.5t68 115t24 156.5q0 57 -17 88.5
t-47 31.5z" />
    <glyph glyph-name="ydieresis" unicode="&#xff;" horiz-adv-x="380" 
d="M-62 -175q51 18 89 51q49 46 98 124l-67 503h56l50 -453q40 75 97 208.5t98 244.5h57q-56 -149 -127 -296t-131 -240q-102 -156 -195 -185zM170 613q-15 0 -24 9t-9 24q0 20 11 33t28 13q15 0 24 -9t9 -24q0 -19 -11 -32.5t-28 -13.5zM342 613q-15 0 -24 9t-9 24
q0 20 11 33t28 13q15 0 24 -9t9 -24q0 -19 -11 -32.5t-28 -13.5z" />
    <glyph glyph-name="Amacron" unicode="&#x100;" horiz-adv-x="498" 
d="M375 0l-19 207h-233l-96 -207h-62l337 693h61l71 -693h-59zM146 255h207l-32 374zM223 809l8 43h240l-8 -43h-240z" />
    <glyph glyph-name="amacron" unicode="&#x101;" horiz-adv-x="450" 
d="M138 -13q-48 0 -74 39t-26 113q0 106 36.5 193.5t95.5 136t126 48.5q59 0 125 -33l-95 -484h-46l10 83q-72 -96 -152 -96zM159 35q64 0 139 102l63 319q-34 14 -69 14q-54 0 -100 -47t-71.5 -121t-25.5 -157q0 -110 64 -110zM192 649l8 41h241l-8 -41h-241z" />
    <glyph glyph-name="Abreve" unicode="&#x102;" horiz-adv-x="498" 
d="M375 0l-19 207h-233l-96 -207h-62l337 693h61l71 -693h-59zM146 255h207l-32 374zM432 888h37q-2 -54 -38 -87.5t-92 -33.5q-41 0 -64.5 20.5t-23.5 55.5q0 27 10 45h36q-5 -22 -5 -33q0 -48 53 -48q33 0 55 18t29 51z" />
    <glyph glyph-name="abreve" unicode="&#x103;" horiz-adv-x="450" 
d="M138 -13q-48 0 -74 39t-26 113q0 106 36.5 193.5t95.5 136t126 48.5q59 0 125 -33l-95 -484h-46l10 83q-72 -96 -152 -96zM159 35q64 0 139 102l63 319q-34 14 -69 14q-54 0 -100 -47t-71.5 -121t-25.5 -157q0 -110 64 -110zM393 740h36q-3 -63 -38.5 -101.5t-91.5 -38.5
q-41 0 -65 23.5t-24 64.5q0 27 11 52h35q-5 -21 -5 -42q0 -28 14 -43.5t39 -15.5q33 0 55 21.5t30 61.5z" />
    <glyph glyph-name="Aogonek" unicode="&#x104;" horiz-adv-x="498" 
d="M375 0l-19 207h-233l-96 -207h-62l337 693h61l71 -693h-59zM146 255h207l-32 374zM426 -194q-33 -22 -68 -22q-32 0 -51 18t-19 50q0 43 29 84t85 75l32 -11q-98 -72 -98 -138q0 -37 38 -37q19 0 41 13z" />
    <glyph glyph-name="aogonek" unicode="&#x105;" horiz-adv-x="450" 
d="M138 -13q-48 0 -74 39t-26 113q0 106 36.5 193.5t95.5 136t126 48.5q59 0 125 -33l-95 -484h-46l10 83q-72 -96 -152 -96zM159 35q64 0 139 102l63 319q-34 14 -69 14q-54 0 -100 -47t-71.5 -121t-25.5 -157q0 -110 64 -110zM318 -194q-33 -22 -68 -22q-32 0 -50.5 18
t-18.5 50q0 43 29.5 84t85.5 75l30 -11q-99 -73 -99 -138q0 -19 10 -29t29 -10t41 13z" />
    <glyph glyph-name="Cacute" unicode="&#x106;" horiz-adv-x="497" 
d="M438 51q-80 -66 -180 -66q-87 0 -135.5 65t-48.5 181q0 137 46.5 246t123 168.5t167.5 59.5q66 0 117 -33l-9 -47q-51 28 -109 28q-80 0 -143.5 -57.5t-98 -151.5t-34.5 -206q0 -97 35 -149t101 -52q38 0 75 14t81 46zM436 769h-52l98 117h69z" />
    <glyph glyph-name="cacute" unicode="&#x107;" horiz-adv-x="382" 
d="M317 52q-32 -31 -71 -48t-79 -17q-62 0 -94.5 43t-32.5 124q0 102 36 186t94 130.5t125 46.5q47 0 85 -22l-9 -44q-40 17 -73 17q-57 0 -103.5 -43t-72 -113t-25.5 -152q0 -64 20.5 -94t64.5 -30q55 0 122 55zM264 602l104 152h66l-121 -152h-49z" />
    <glyph glyph-name="Ccircumflex" unicode="&#x108;" horiz-adv-x="497" 
d="M438 51q-80 -66 -180 -66q-87 0 -135.5 65t-48.5 181q0 137 46.5 246t123 168.5t167.5 59.5q66 0 117 -33l-9 -47q-51 28 -109 28q-80 0 -143.5 -57.5t-98 -151.5t-34.5 -206q0 -97 35 -149t101 -52q38 0 75 14t81 46zM432 862l-105 -93h-53l134 129h56l84 -129h-48z" />
    <glyph glyph-name="ccircumflex" unicode="&#x109;" horiz-adv-x="382" 
d="M317 52q-32 -31 -71 -48t-79 -17q-62 0 -94.5 43t-32.5 124q0 102 36 186t94 130.5t125 46.5q47 0 85 -22l-9 -44q-40 17 -73 17q-57 0 -103.5 -43t-72 -113t-25.5 -152q0 -64 20.5 -94t64.5 -30q55 0 122 55zM313 716l-108 -114h-52l137 152h57l77 -152h-47z" />
    <glyph glyph-name="Cdotaccent" unicode="&#x10a;" horiz-adv-x="497" 
d="M438 51q-80 -66 -180 -66q-87 0 -135.5 65t-48.5 181q0 137 46.5 246t123 168.5t167.5 59.5q66 0 117 -33l-9 -47q-51 28 -109 28q-80 0 -143.5 -57.5t-98 -151.5t-34.5 -206q0 -97 35 -149t101 -52q38 0 75 14t81 46zM422 789q-17 0 -26.5 10.5t-9.5 26.5q0 20 13 34.5
t31 14.5q17 0 27 -10t10 -27q0 -20 -13 -34.5t-32 -14.5z" />
    <glyph glyph-name="cdotaccent" unicode="&#x10b;" horiz-adv-x="382" 
d="M317 52q-32 -31 -71 -48t-79 -17q-62 0 -94.5 43t-32.5 124q0 102 36 186t94 130.5t125 46.5q47 0 85 -22l-9 -44q-40 17 -73 17q-57 0 -103.5 -43t-72 -113t-25.5 -152q0 -64 20.5 -94t64.5 -30q55 0 122 55zM305 613q-17 0 -26 10t-9 26q0 20 12.5 34t30.5 14
q17 0 26.5 -9.5t9.5 -26.5q0 -20 -12.5 -34t-31.5 -14z" />
    <glyph glyph-name="Ccaron" unicode="&#x10c;" horiz-adv-x="497" 
d="M438 51q-80 -66 -180 -66q-87 0 -135.5 65t-48.5 181q0 137 46.5 246t123 168.5t167.5 59.5q66 0 117 -33l-9 -47q-51 28 -109 28q-80 0 -143.5 -57.5t-98 -151.5t-34.5 -206q0 -97 35 -149t101 -52q38 0 75 14t81 46zM353 898l62 -102l100 102h58l-134 -129h-55l-84 129
h53z" />
    <glyph glyph-name="ccaron" unicode="&#x10d;" horiz-adv-x="382" 
d="M317 52q-32 -31 -71 -48t-79 -17q-62 0 -94.5 43t-32.5 124q0 102 36 186t94 130.5t125 46.5q47 0 85 -22l-9 -44q-40 17 -73 17q-57 0 -103.5 -43t-72 -113t-25.5 -152q0 -64 20.5 -94t64.5 -30q55 0 122 55zM240 754l55 -125l103 125h59l-136 -152h-58l-77 152h54z" />
    <glyph glyph-name="Dcaron" unicode="&#x10e;" horiz-adv-x="571" 
d="M35 0l135 693h164q93 0 146 -64.5t53 -179.5q0 -129 -44.5 -232.5t-117.5 -160t-159 -56.5h-177zM217 645l-116 -597h110q76 0 136.5 55t93.5 146t33 199q0 93 -39 145t-108 52h-110zM292 898l62 -102l100 102h58l-134 -129h-55l-84 129h53z" />
    <glyph glyph-name="dcaron" unicode="&#x10f;" horiz-adv-x="512" 
d="M283 0l11 83q-36 -47 -76 -71.5t-80 -24.5q-49 0 -74.5 40t-25.5 113q0 106 36 193t93.5 135.5t123.5 48.5q41 0 81 -20l47 243h55l-144 -740h-47zM159 35q34 0 72 27.5t72 77.5l61 315q-37 15 -72 15q-55 0 -100.5 -46t-71 -120t-25.5 -158q0 -111 64 -111zM523 553
l38 192q11 7 27 7q17 0 26 -9l-55 -190h-36z" />
    <glyph glyph-name="Dcroat" unicode="&#x110;" horiz-adv-x="581" 
d="M45 0l65 333h-62l9 46h62l61 314h164q93 0 146 -64.5t53 -179.5q0 -129 -44.5 -232.5t-117.5 -160t-159 -56.5h-177zM166 333l-55 -285h110q76 0 136.5 55t93.5 146t33 199q0 93 -39 145t-108 52h-110l-52 -266h133l-9 -46h-133z" />
    <glyph glyph-name="dcroat" unicode="&#x111;" horiz-adv-x="453" 
d="M283 0l11 83q-36 -47 -76 -71.5t-80 -24.5q-49 0 -74.5 40t-25.5 113q0 106 36 193t93.5 135.5t123.5 48.5q41 0 81 -20l21 110h-149l9 41h148l18 92h55l-18 -92h55l-8 -41h-55l-118 -607h-47zM159 35q34 0 72 27.5t72 77.5l61 315q-37 15 -72 15q-55 0 -100.5 -46
t-71 -120t-25.5 -158q0 -111 64 -111z" />
    <glyph glyph-name="Emacron" unicode="&#x112;" horiz-adv-x="456" 
d="M35 0l135 693h323l-10 -49h-265l-51 -260h226l-10 -50h-226l-56 -285h266l-9 -49h-323zM227 809l8 43h240l-8 -43h-240z" />
    <glyph glyph-name="emacron" unicode="&#x113;" horiz-adv-x="404" 
d="M327 52q-73 -65 -163 -65q-61 0 -92.5 41.5t-31.5 123.5q0 103 35.5 187.5t91.5 131t121 46.5q46 0 71.5 -26t25.5 -74q0 -79 -61.5 -136t-179.5 -87l-50 -13v-21q0 -66 20 -96.5t64 -30.5q31 0 67 15t69 42zM278 472q-42 0 -80.5 -34.5t-64.5 -91.5t-35 -124l49 14
q90 26 137.5 71t47.5 103q0 30 -14 46t-40 16zM183 649l8 41h241l-8 -41h-241z" />
    <glyph glyph-name="Ebreve" unicode="&#x114;" horiz-adv-x="456" 
d="M35 0l135 693h323l-10 -49h-265l-51 -260h226l-10 -50h-226l-56 -285h266l-9 -49h-323zM436 888h37q-2 -54 -38 -87.5t-92 -33.5q-41 0 -64.5 20.5t-23.5 55.5q0 27 10 45h36q-5 -22 -5 -33q0 -48 53 -48q33 0 55 18t29 51z" />
    <glyph glyph-name="ebreve" unicode="&#x115;" horiz-adv-x="404" 
d="M327 52q-73 -65 -163 -65q-61 0 -92.5 41.5t-31.5 123.5q0 103 35.5 187.5t91.5 131t121 46.5q46 0 71.5 -26t25.5 -74q0 -79 -61.5 -136t-179.5 -87l-50 -13v-21q0 -66 20 -96.5t64 -30.5q31 0 67 15t69 42zM278 472q-42 0 -80.5 -34.5t-64.5 -91.5t-35 -124l49 14
q90 26 137.5 71t47.5 103q0 30 -14 46t-40 16zM384 740h36q-3 -63 -38.5 -101.5t-91.5 -38.5q-41 0 -65 23.5t-24 64.5q0 27 11 52h35q-5 -21 -5 -42q0 -28 14 -43.5t39 -15.5q33 0 55 21.5t30 61.5z" />
    <glyph glyph-name="Edotaccent" unicode="&#x116;" horiz-adv-x="456" 
d="M35 0l135 693h323l-10 -49h-265l-51 -260h226l-10 -50h-226l-56 -285h266l-9 -49h-323zM350 789q-17 0 -26.5 10.5t-9.5 26.5q0 20 13 34.5t31 14.5q17 0 27 -10t10 -27q0 -20 -13 -34.5t-32 -14.5z" />
    <glyph glyph-name="edotaccent" unicode="&#x117;" horiz-adv-x="404" 
d="M327 52q-73 -65 -163 -65q-61 0 -92.5 41.5t-31.5 123.5q0 103 35.5 187.5t91.5 131t121 46.5q46 0 71.5 -26t25.5 -74q0 -79 -61.5 -136t-179.5 -87l-50 -13v-21q0 -66 20 -96.5t64 -30.5q31 0 67 15t69 42zM278 472q-42 0 -80.5 -34.5t-64.5 -91.5t-35 -124l49 14
q90 26 137.5 71t47.5 103q0 30 -14 46t-40 16zM299 613q-17 0 -26 10t-9 26q0 20 12.5 34t30.5 14q17 0 26.5 -9.5t9.5 -26.5q0 -20 -12.5 -34t-31.5 -14z" />
    <glyph glyph-name="Eogonek" unicode="&#x118;" horiz-adv-x="456" 
d="M35 0l135 693h323l-10 -49h-265l-51 -260h226l-10 -50h-226l-56 -285h266l-9 -49h-323zM350 -194q-33 -22 -68 -22q-32 0 -51 18t-19 50q0 43 29 84t85 75l32 -11q-98 -72 -98 -138q0 -37 38 -37q19 0 41 13z" />
    <glyph glyph-name="eogonek" unicode="&#x119;" horiz-adv-x="404" 
d="M105 -148q0 37 21 72t61 65q-10 -2 -23 -2q-61 0 -92.5 41.5t-31.5 123.5q0 103 35.5 187.5t91.5 131t121 46.5q46 0 71.5 -26t25.5 -74q0 -79 -61.5 -136t-179.5 -87l-50 -13v-21q0 -66 20 -96.5t64 -30.5q31 0 67 15t69 42l13 -38q-27 -24 -60 -42q-54 -29 -85 -68.5
t-31 -79.5q0 -19 10 -29t29 -10t41 13l11 -30q-33 -22 -68 -22q-32 0 -50.5 18t-18.5 50zM278 472q-42 0 -80.5 -34.5t-64.5 -91.5t-35 -124l49 14q89 25 137 70t48 104q0 30 -14 46t-40 16z" />
    <glyph glyph-name="Ecaron" unicode="&#x11a;" horiz-adv-x="456" 
d="M35 0l135 693h323l-10 -49h-265l-51 -260h226l-10 -50h-226l-56 -285h266l-9 -49h-323zM281 898l62 -102l100 102h58l-134 -129h-55l-84 129h53z" />
    <glyph glyph-name="ecaron" unicode="&#x11b;" horiz-adv-x="404" 
d="M327 52q-73 -65 -163 -65q-61 0 -92.5 41.5t-31.5 123.5q0 103 35.5 187.5t91.5 131t121 46.5q46 0 71.5 -26t25.5 -74q0 -79 -61.5 -136t-179.5 -87l-50 -13v-21q0 -66 20 -96.5t64 -30.5q31 0 67 15t69 42zM278 472q-42 0 -80.5 -34.5t-64.5 -91.5t-35 -124l49 14
q90 26 137.5 71t47.5 103q0 30 -14 46t-40 16zM234 754l55 -125l103 125h59l-136 -152h-58l-77 152h54z" />
    <glyph glyph-name="Gcircumflex" unicode="&#x11c;" horiz-adv-x="568" 
d="M287 37q66 0 118 26l47 238h-135l10 48h188l-62 -316q-31 -22 -78 -35t-97 -13q-97 0 -150.5 67.5t-53.5 189.5q0 134 46 240.5t122.5 164.5t167.5 58q85 0 145 -39l-10 -48q-65 35 -137 35q-79 0 -142.5 -55.5t-98 -147.5t-34.5 -202q0 -103 39.5 -157t114.5 -54z
M433 862l-105 -93h-53l134 129h56l84 -129h-48z" />
    <glyph glyph-name="gcircumflex" unicode="&#x11d;" horiz-adv-x="456" 
d="M299 110q-36 -50 -76 -76t-80 -26q-50 0 -76.5 38t-26.5 108q0 102 36.5 186t94.5 130.5t124 46.5t132 -33l-83 -423q-28 -145 -84.5 -212t-150.5 -67q-62 0 -111 36l9 45q47 -33 105 -33q71 0 112.5 56t66.5 184zM163 56q35 0 73.5 29.5t74.5 84.5l56 286q-37 14 -74 14
q-54 0 -99.5 -44.5t-71 -115.5t-25.5 -150q0 -104 66 -104zM321 716l-108 -114h-52l137 152h57l77 -152h-47z" />
    <glyph glyph-name="Gbreve" unicode="&#x11e;" horiz-adv-x="568" 
d="M287 37q66 0 118 26l47 238h-135l10 48h188l-62 -316q-31 -22 -78 -35t-97 -13q-97 0 -150.5 67.5t-53.5 189.5q0 134 46 240.5t122.5 164.5t167.5 58q85 0 145 -39l-10 -48q-65 35 -137 35q-79 0 -142.5 -55.5t-98 -147.5t-34.5 -202q0 -103 39.5 -157t114.5 -54z
M509 888h37q-2 -54 -38 -87.5t-92 -33.5q-41 0 -64.5 20.5t-23.5 55.5q0 27 10 45h36q-5 -22 -5 -33q0 -48 53 -48q33 0 55 18t29 51z" />
    <glyph glyph-name="gbreve" unicode="&#x11f;" horiz-adv-x="456" 
d="M299 110q-36 -50 -76 -76t-80 -26q-50 0 -76.5 38t-26.5 108q0 102 36.5 186t94.5 130.5t124 46.5t132 -33l-83 -423q-28 -145 -84.5 -212t-150.5 -67q-62 0 -111 36l9 45q47 -33 105 -33q71 0 112.5 56t66.5 184zM163 56q35 0 73.5 29.5t74.5 84.5l56 286q-37 14 -74 14
q-54 0 -99.5 -44.5t-71 -115.5t-25.5 -150q0 -104 66 -104zM398 740h36q-3 -63 -38.5 -101.5t-91.5 -38.5q-41 0 -65 23.5t-24 64.5q0 27 11 52h35q-5 -21 -5 -42q0 -28 14 -43.5t39 -15.5q33 0 55 21.5t30 61.5z" />
    <glyph glyph-name="Gdotaccent" unicode="&#x120;" horiz-adv-x="568" 
d="M287 37q66 0 118 26l47 238h-135l10 48h188l-62 -316q-31 -22 -78 -35t-97 -13q-97 0 -150.5 67.5t-53.5 189.5q0 134 46 240.5t122.5 164.5t167.5 58q85 0 145 -39l-10 -48q-65 35 -137 35q-79 0 -142.5 -55.5t-98 -147.5t-34.5 -202q0 -103 39.5 -157t114.5 -54z
M423 789q-17 0 -26.5 10.5t-9.5 26.5q0 20 13 34.5t31 14.5q17 0 27 -10t10 -27q0 -20 -13 -34.5t-32 -14.5z" />
    <glyph glyph-name="gdotaccent" unicode="&#x121;" horiz-adv-x="456" 
d="M299 110q-36 -50 -76 -76t-80 -26q-50 0 -76.5 38t-26.5 108q0 102 36.5 186t94.5 130.5t124 46.5t132 -33l-83 -423q-28 -145 -84.5 -212t-150.5 -67q-62 0 -111 36l9 45q47 -33 105 -33q71 0 112.5 56t66.5 184zM163 56q35 0 73.5 29.5t74.5 84.5l56 286q-37 14 -74 14
q-54 0 -99.5 -44.5t-71 -115.5t-25.5 -150q0 -104 66 -104zM313 613q-17 0 -26 10t-9 26q0 20 12.5 34t30.5 14q17 0 26.5 -9.5t9.5 -26.5q0 -20 -12.5 -34t-31.5 -14z" />
    <glyph glyph-name="uni0122" unicode="&#x122;" horiz-adv-x="568" 
d="M287 37q66 0 118 26l47 238h-135l10 48h188l-62 -316q-31 -22 -78 -35t-97 -13q-97 0 -150.5 67.5t-53.5 189.5q0 134 46 240.5t122.5 164.5t167.5 58q85 0 145 -39l-10 -48q-65 35 -137 35q-79 0 -142.5 -55.5t-98 -147.5t-34.5 -202q0 -103 39.5 -157t114.5 -54z
M191 -270l68 202h24q23 0 23 -17q0 -6 -3 -14t-17 -40l-58 -131h-37z" />
    <glyph glyph-name="uni0123" unicode="&#x123;" horiz-adv-x="456" 
d="M299 110q-36 -50 -76 -76t-80 -26q-50 0 -76.5 38t-26.5 108q0 102 36.5 186t94.5 130.5t124 46.5t132 -33l-83 -423q-28 -145 -84.5 -212t-150.5 -67q-62 0 -111 36l9 45q47 -33 105 -33q71 0 112.5 56t66.5 184zM163 56q35 0 73.5 29.5t74.5 84.5l56 286q-37 14 -74 14
q-54 0 -99.5 -44.5t-71 -115.5t-25.5 -150q0 -104 66 -104zM327 588h-21q-23 0 -23 17q0 6 2.5 13.5t16.5 40.5l60 139h36z" />
    <glyph glyph-name="Hcircumflex" unicode="&#x124;" horiz-adv-x="581" 
d="M391 0l64 330h-299l-64 -330h-57l135 693h57l-61 -313h299l61 313h57l-135 -693h-57zM403 862l-105 -93h-53l134 129h56l84 -129h-48z" />
    <glyph glyph-name="hcircumflex" unicode="&#x125;" horiz-adv-x="474" 
d="M369 394q0 74 -61 74q-35 0 -77.5 -29.5t-82.5 -81.5l-69 -357h-55l144 740h55l-64 -329q38 50 83 78t87 28q47 0 71 -29t24 -85q0 -22 -4 -49t-17 -98l-50 -256h-55l50 255q14 70 17.5 95.5t3.5 43.5zM218 882l-105 -93h-53l134 129h56l84 -129h-48z" />
    <glyph glyph-name="Hbar" unicode="&#x126;" horiz-adv-x="601" 
d="M401 0l64 330h-299l-64 -330h-57l99 508h-63l9 44h62l28 141h57l-28 -141h299l28 141h57l-28 -141h64l-9 -44h-63l-99 -508h-57zM475 380l25 128h-299l-25 -128h299z" />
    <glyph glyph-name="hbar" unicode="&#x127;" horiz-adv-x="474" 
d="M369 394q0 74 -61 74q-35 0 -77.5 -29.5t-82.5 -81.5l-69 -357h-55l118 607h-54l7 41h55l18 92h55l-18 -92h154l-8 -41h-154l-38 -196q38 50 83 78t87 28q47 0 71 -29t24 -85q0 -22 -4 -49t-17 -98l-50 -256h-55l50 255q14 70 17.5 95.5t3.5 43.5z" />
    <glyph glyph-name="Itilde" unicode="&#x128;" horiz-adv-x="225" 
d="M35 0l135 693h57l-135 -693h-57zM314 886h36q-2 -18 -5 -32q-10 -38 -30 -58.5t-49 -20.5q-18 0 -31.5 8.5t-29.5 29.5q-21 27 -27.5 32t-15.5 5q-25 0 -37 -46l-7 -26h-36q2 18 5 31q9 38 30 59t49 21q17 0 30.5 -8.5t30.5 -31.5q17 -22 25 -28.5t18 -6.5q14 0 23 10.5
t14 33.5z" />
    <glyph glyph-name="itilde" unicode="&#x129;" horiz-adv-x="209" 
d="M126 503h55l-98 -503h-55zM277 723h35q-2 -20 -5 -32q-9 -38 -30 -59t-49 -21q-18 0 -30.5 8t-30.5 32q-17 23 -25.5 30t-18.5 7q-13 0 -22.5 -12t-15.5 -35l-7 -27h-35q1 18 5 32q8 37 29 58.5t50 21.5q17 0 30 -8t31 -32t26 -30.5t18 -6.5q27 0 38 46z" />
    <glyph glyph-name="Imacron" unicode="&#x12a;" horiz-adv-x="225" 
d="M35 0l135 693h57l-135 -693h-57zM93 809l8 43h240l-8 -43h-240z" />
    <glyph glyph-name="imacron" unicode="&#x12b;" horiz-adv-x="209" 
d="M126 503h55l-98 -503h-55zM55 649l8 41h241l-8 -41h-241z" />
    <glyph glyph-name="Ibreve" unicode="&#x12c;" horiz-adv-x="225" 
d="M35 0l135 693h57l-135 -693h-57zM302 888h37q-2 -54 -38 -87.5t-92 -33.5q-41 0 -64.5 20.5t-23.5 55.5q0 27 10 45h36q-5 -22 -5 -33q0 -48 53 -48q33 0 55 18t29 51z" />
    <glyph glyph-name="ibreve" unicode="&#x12d;" horiz-adv-x="209" 
d="M126 503h55l-98 -503h-55zM256 740h36q-3 -63 -38.5 -101.5t-91.5 -38.5q-41 0 -65 23.5t-24 64.5q0 27 11 52h35q-5 -21 -5 -42q0 -28 14 -43.5t39 -15.5q33 0 55 21.5t30 61.5z" />
    <glyph glyph-name="Iogonek" unicode="&#x12e;" horiz-adv-x="225" 
d="M35 0l135 693h57l-135 -693h-57zM84 -194q-33 -22 -68 -22q-32 0 -51 18t-19 50q0 43 29 84t85 75l32 -11q-98 -72 -98 -138q0 -37 38 -37q19 0 41 13z" />
    <glyph glyph-name="iogonek" unicode="&#x12f;" horiz-adv-x="209" 
d="M177 616q-16 0 -26 9t-10 25q0 22 11.5 35t30.5 13q16 0 26 -9t10 -25q0 -22 -11.5 -35t-30.5 -13zM126 503h55l-98 -503h-55zM75 -194q-33 -22 -68 -22q-32 0 -50.5 18t-18.5 50q0 43 29.5 84t85.5 75l30 -11q-99 -73 -99 -138q0 -19 10 -29t29 -10t41 13z" />
    <glyph glyph-name="Idotaccent" unicode="&#x130;" horiz-adv-x="225" 
d="M35 0l135 693h57l-135 -693h-57zM216 789q-17 0 -26.5 10.5t-9.5 26.5q0 20 13 34.5t31 14.5q17 0 27 -10t10 -27q0 -20 -13 -34.5t-32 -14.5z" />
    <glyph glyph-name="dotlessi" unicode="&#x131;" horiz-adv-x="209" 
d="M126 503h55l-98 -503h-55z" />
    <glyph glyph-name="IJ" unicode="&#x132;" horiz-adv-x="576" 
d="M523 693h58l-101 -519q-19 -97 -61.5 -143t-112.5 -46q-55 0 -99 28l9 47q42 -23 89 -23q49 0 76.5 34.5t42.5 113.5zM35 0l135 693h57l-135 -693h-57z" />
    <glyph glyph-name="ij" unicode="&#x133;" horiz-adv-x="418" 
d="M390 503l-113 -578q-15 -78 -41 -110.5t-74 -32.5q-28 0 -56 15l7 41q17 -8 42 -8q19 0 31 8.5t20.5 28.5t15.5 58l113 578h55zM386 616q-16 0 -26 9t-10 25q0 22 11.5 35t30.5 13q16 0 26 -9t10 -25q0 -22 -11.5 -35t-30.5 -13zM177 616q-16 0 -26 9t-10 25
q0 22 11.5 35t30.5 13q16 0 26 -9t10 -25q0 -22 -11.5 -35t-30.5 -13zM126 503h55l-98 -503h-55z" />
    <glyph glyph-name="Jcircumflex" unicode="&#x134;" horiz-adv-x="351" 
d="M298 693h58l-101 -519q-19 -97 -61.5 -143t-112.5 -46q-55 0 -99 28l9 47q42 -23 89 -23q49 0 76.5 34.5t42.5 113.5zM354 862l-105 -93h-53l134 129h56l84 -129h-48z" />
    <glyph glyph-name="jcircumflex" unicode="&#x135;" horiz-adv-x="209" 
d="M181 503l-113 -578q-15 -78 -41 -110.5t-74 -32.5q-28 0 -56 15l7 41q17 -8 42 -8q19 0 31 8.5t20.5 28.5t15.5 58l113 578h55zM179 716l-108 -114h-52l137 152h57l77 -152h-47z" />
    <glyph glyph-name="uni0136" unicode="&#x136;" horiz-adv-x="467" 
d="M35 0l135 693h57l-61 -314l293 314h67l-313 -331l201 -362h-65l-189 347l-68 -347h-57zM111 -270l68 202h24q23 0 23 -17q0 -6 -3 -14t-17 -40l-58 -131h-37z" />
    <glyph glyph-name="uni0137" unicode="&#x137;" horiz-adv-x="399" 
d="M24 0l144 740h55l-89 -457l224 220h69l-246 -235l165 -268h-64l-153 256l-50 -256h-55zM76 -270l68 202h21q24 0 24 -17q0 -6 -3 -14t-17 -40l-58 -131h-35z" />
    <glyph glyph-name="kgreenlandic" unicode="&#x138;" horiz-adv-x="399" 
d="M24 0l98 503h55l-44 -227l225 227h69l-249 -245l168 -258h-64l-155 244l-48 -244h-55z" />
    <glyph glyph-name="Lacute" unicode="&#x139;" horiz-adv-x="418" 
d="M35 0l135 693h57l-125 -642h261l-10 -51h-318zM230 769h-52l98 117h69z" />
    <glyph glyph-name="lacute" unicode="&#x13a;" horiz-adv-x="229" 
d="M167 13q-29 -16 -63 -16q-30 0 -46 18t-16 51q0 21 9 67l118 607h55l-118 -607q-9 -44 -9 -59t6.5 -22t22.5 -7q15 0 30 6zM223 789h-52l98 117h69z" />
    <glyph glyph-name="uni013B" unicode="&#x13b;" horiz-adv-x="418" 
d="M35 0l135 693h57l-125 -642h261l-10 -51h-318zM96 -270l68 202h24q23 0 23 -17q0 -6 -3 -14t-17 -40l-58 -131h-37z" />
    <glyph glyph-name="uni013C" unicode="&#x13c;" horiz-adv-x="229" 
d="M167 13q-29 -16 -63 -16q-30 0 -46 18t-16 51q0 21 9 67l118 607h55l-118 -607q-9 -44 -9 -59t6.5 -22t22.5 -7q15 0 30 6zM-12 -270l68 202h21q24 0 24 -17q0 -6 -3 -14t-17 -40l-58 -131h-35z" />
    <glyph glyph-name="Lcaron" unicode="&#x13d;" horiz-adv-x="418" 
d="M35 0l135 693h57l-125 -642h261l-10 -51h-318zM308 532l38 192q11 7 27 7q17 0 26 -9l-55 -190h-36z" />
    <glyph glyph-name="lcaron" unicode="&#x13e;" horiz-adv-x="262" 
d="M167 13q-29 -16 -63 -16q-30 0 -46 18t-16 51q0 21 9 67l118 607h55l-118 -607q-9 -44 -9 -59t6.5 -22t22.5 -7q15 0 30 6zM273 553l38 192q11 7 27 7q17 0 26 -9l-55 -190h-36z" />
    <glyph glyph-name="Ldot" unicode="&#x13f;" horiz-adv-x="418" 
d="M35 0l135 693h57l-125 -642h261l-10 -51h-318zM337 329q-16 0 -25 9t-9 25q0 19 12 32t30 13q16 0 25 -9t9 -25q0 -19 -12 -32t-30 -13z" />
    <glyph glyph-name="ldot" unicode="&#x140;" horiz-adv-x="280" 
d="M167 13q-29 -16 -63 -16q-30 0 -46 18t-16 51q0 21 9 67l118 607h55l-118 -607q-9 -44 -9 -59t6.5 -22t22.5 -7q15 0 30 6zM260 323q-16 0 -25 9t-9 25q0 19 12 32t30 13q16 0 25 -9t9 -25q0 -19 -12 -32t-30 -13z" />
    <glyph glyph-name="Lslash" unicode="&#x141;" horiz-adv-x="428" 
d="M45 0l53 272l-79 -50l10 53l79 50l72 368h57l-64 -327l175 111l-11 -54l-174 -110l-51 -262h261l-10 -51h-318z" />
    <glyph glyph-name="lslash" unicode="&#x142;" horiz-adv-x="249" 
d="M177 13q-29 -16 -63 -16q-30 0 -46 18t-16 51q0 21 9 67l38 194l-77 -47l10 49l76 47l71 364h55l-63 -326l77 48l-9 -48l-78 -48l-45 -233q-9 -44 -9 -59t6.5 -22t22.5 -7q15 0 30 6z" />
    <glyph glyph-name="Nacute" unicode="&#x143;" horiz-adv-x="576" 
d="M381 0l-176 602l-118 -602h-52l135 693h62l176 -607l118 607h52l-135 -693h-62zM406 769h-52l98 117h69z" />
    <glyph glyph-name="nacute" unicode="&#x144;" horiz-adv-x="474" 
d="M298 0l50 255q14 70 17.5 95.5t3.5 43.5q0 74 -61 74q-35 0 -77 -29t-82 -81l-70 -358h-55l99 503h46l-12 -94q40 51 85 79.5t87 28.5q47 0 71 -29t24 -85q0 -23 -3.5 -49.5t-17.5 -97.5l-50 -256h-55zM268 602l104 152h66l-121 -152h-49z" />
    <glyph glyph-name="uni0145" unicode="&#x145;" horiz-adv-x="576" 
d="M381 0l-176 602l-118 -602h-52l135 693h62l176 -607l118 607h52l-135 -693h-62zM138 -270l68 202h24q23 0 23 -17q0 -6 -3 -14t-17 -40l-58 -131h-37z" />
    <glyph glyph-name="uni0146" unicode="&#x146;" horiz-adv-x="474" 
d="M298 0l50 255q14 70 17.5 95.5t3.5 43.5q0 74 -61 74q-35 0 -77 -29t-82 -81l-70 -358h-55l99 503h46l-12 -94q40 51 85 79.5t87 28.5q47 0 71 -29t24 -85q0 -23 -3.5 -49.5t-17.5 -97.5l-50 -256h-55zM92 -270l68 202h21q24 0 24 -17q0 -6 -3 -14t-17 -40l-58 -131h-35z
" />
    <glyph glyph-name="Ncaron" unicode="&#x147;" horiz-adv-x="576" 
d="M381 0l-176 602l-118 -602h-52l135 693h62l176 -607l118 607h52l-135 -693h-62zM323 898l62 -102l100 102h58l-134 -129h-55l-84 129h53z" />
    <glyph glyph-name="ncaron" unicode="&#x148;" horiz-adv-x="474" 
d="M298 0l50 255q14 70 17.5 95.5t3.5 43.5q0 74 -61 74q-35 0 -77 -29t-82 -81l-70 -358h-55l99 503h46l-12 -94q40 51 85 79.5t87 28.5q47 0 71 -29t24 -85q0 -23 -3.5 -49.5t-17.5 -97.5l-50 -256h-55zM244 754l55 -125l103 125h59l-136 -152h-58l-77 152h54z" />
    <glyph glyph-name="napostrophe" unicode="&#x149;" horiz-adv-x="584" 
d="M408 0l50 255q14 70 17.5 95.5t3.5 43.5q0 74 -61 74q-35 0 -77 -29t-82 -81l-70 -358h-55l99 503h46l-12 -94q40 51 85 79.5t87 28.5q47 0 71 -29t24 -85q0 -23 -3.5 -49.5t-17.5 -97.5l-50 -256h-55zM174 693h26q24 0 24 -19q0 -13 -18 -52l-66 -148h-38z" />
    <glyph glyph-name="Eng" unicode="&#x14a;" horiz-adv-x="576" 
d="M205 603l-118 -603h-52l135 693h62l178 -595l116 595h52l-139 -716q-19 -99 -62 -147t-113 -48q-53 0 -99 28l9 44q42 -22 88 -22q49 0 78 35.5t44 116.5l3 16z" />
    <glyph glyph-name="eng" unicode="&#x14b;" horiz-adv-x="474" 
d="M340 -66q-16 -81 -47.5 -116.5t-86.5 -35.5q-38 0 -64 16l8 38q21 -8 49 -8q24 0 40 10t27 32.5t19 63.5l63 321q14 70 17.5 95.5t3.5 43.5q0 74 -61 74q-35 0 -77 -29t-82 -81l-70 -358h-55l99 503h46l-12 -94q40 51 85 79.5t87 28.5q95 0 95 -114q0 -27 -4.5 -56
t-16.5 -91z" />
    <glyph glyph-name="Omacron" unicode="&#x14c;" horiz-adv-x="625" 
d="M376 654q-75 0 -128.5 -58.5t-84 -158.5t-30.5 -202q0 -96 39.5 -147.5t112.5 -51.5q75 0 128.5 58.5t84 159t30.5 202.5q0 95 -39.5 146.5t-112.5 51.5zM380 705q99 0 153 -66.5t54 -186.5q0 -92 -25 -183.5t-66 -155t-95 -96t-120 -32.5q-99 0 -153 66.5t-54 186.5
q0 92 25 183.5t66 155t95 96t120 32.5zM288 809l8 43h240l-8 -43h-240z" />
    <glyph glyph-name="omacron" unicode="&#x14d;" horiz-adv-x="456" 
d="M261 469q-50 0 -86 -43t-56.5 -116t-20.5 -144q0 -64 24.5 -97.5t71.5 -33.5q50 0 86 42.5t56.5 115.5t20.5 144q0 132 -96 132zM190 -13q-70 0 -109 48.5t-39 136.5q0 89 30 173t79 128t113 44q71 0 110 -48.5t39 -136.5q0 -89 -30 -173t-79.5 -128t-113.5 -44zM178 649
l8 41h241l-8 -41h-241z" />
    <glyph glyph-name="Obreve" unicode="&#x14e;" horiz-adv-x="625" 
d="M376 654q-75 0 -128.5 -58.5t-84 -158.5t-30.5 -202q0 -96 39.5 -147.5t112.5 -51.5q75 0 128.5 58.5t84 159t30.5 202.5q0 95 -39.5 146.5t-112.5 51.5zM380 705q99 0 153 -66.5t54 -186.5q0 -92 -25 -183.5t-66 -155t-95 -96t-120 -32.5q-99 0 -153 66.5t-54 186.5
q0 92 25 183.5t66 155t95 96t120 32.5zM497 888h37q-2 -54 -38 -87.5t-92 -33.5q-41 0 -64.5 20.5t-23.5 55.5q0 27 10 45h36q-5 -22 -5 -33q0 -48 53 -48q33 0 55 18t29 51z" />
    <glyph glyph-name="obreve" unicode="&#x14f;" horiz-adv-x="456" 
d="M261 469q-50 0 -86 -43t-56.5 -116t-20.5 -144q0 -64 24.5 -97.5t71.5 -33.5q50 0 86 42.5t56.5 115.5t20.5 144q0 132 -96 132zM190 -13q-70 0 -109 48.5t-39 136.5q0 89 30 173t79 128t113 44q71 0 110 -48.5t39 -136.5q0 -89 -30 -173t-79.5 -128t-113.5 -44zM379 740
h36q-3 -63 -38.5 -101.5t-91.5 -38.5q-41 0 -65 23.5t-24 64.5q0 27 11 52h35q-5 -21 -5 -42q0 -28 14 -43.5t39 -15.5q33 0 55 21.5t30 61.5z" />
    <glyph glyph-name="Ohungarumlaut" unicode="&#x150;" horiz-adv-x="625" 
d="M376 654q-75 0 -128.5 -58.5t-84 -158.5t-30.5 -202q0 -96 39.5 -147.5t112.5 -51.5q75 0 128.5 58.5t84 159t30.5 202.5q0 95 -39.5 146.5t-112.5 51.5zM380 705q99 0 153 -66.5t54 -186.5q0 -92 -25 -183.5t-66 -155t-95 -96t-120 -32.5q-99 0 -153 66.5t-54 186.5
q0 92 25 183.5t66 155t95 96t120 32.5zM334 769h-49l91 117h67zM489 769h-48l90 117h68z" />
    <glyph glyph-name="ohungarumlaut" unicode="&#x151;" horiz-adv-x="456" 
d="M261 469q-50 0 -86 -43t-56.5 -116t-20.5 -144q0 -64 24.5 -97.5t71.5 -33.5q50 0 86 42.5t56.5 115.5t20.5 144q0 132 -96 132zM190 -13q-70 0 -109 48.5t-39 136.5q0 89 30 173t79 128t113 44q71 0 110 -48.5t39 -136.5q0 -89 -30 -173t-79.5 -128t-113.5 -44zM164 601
l104 153h66l-121 -153h-49zM310 601l104 153h66l-122 -153h-48z" />
    <glyph glyph-name="OE" unicode="&#x152;" horiz-adv-x="853" 
d="M369 705q68 0 112.5 -43t59.5 -123l30 154h319l-10 -49h-265l-51 -260h226l-10 -50h-226l-56 -285h266l-9 -49h-319l21 111q-76 -126 -191 -126q-59 0 -102.5 32t-66.5 89t-23 132q0 90 24.5 181.5t64.5 156t92 97t114 32.5zM368 654q-72 0 -124 -59t-81.5 -159
t-29.5 -201q0 -95 37.5 -147t105.5 -52q73 0 125 58.5t81.5 160t29.5 204.5q0 94 -37.5 144.5t-106.5 50.5z" />
    <glyph glyph-name="oe" unicode="&#x153;" horiz-adv-x="705" 
d="M264 517q54 0 89.5 -34t45.5 -96q36 62 85.5 96t104.5 34q46 0 71.5 -26t25.5 -74q0 -79 -61.5 -136t-179.5 -87l-50 -13v-21q0 -66 20 -96.5t64 -30.5q31 0 67 15t69 42l13 -38q-73 -65 -163 -65q-100 0 -120 110q-29 -54 -69 -82t-89 -28q-68 0 -106.5 49t-38.5 136
q0 88 30 172t79 128.5t113 44.5zM262 469q-50 0 -86.5 -42.5t-57 -115.5t-20.5 -145q0 -64 24.5 -97.5t71.5 -33.5q50 0 85.5 42.5t56 115t20.5 144.5q0 65 -24 98.5t-70 33.5zM579 472q-42 0 -80.5 -34.5t-64.5 -91.5t-35 -124l49 14q89 25 137 70t48 104q0 30 -14 46
t-40 16z" />
    <glyph glyph-name="Racute" unicode="&#x154;" horiz-adv-x="494" 
d="M367 0l-98 293h-122l-57 -293h-55l135 693h152q76 0 119.5 -42.5t43.5 -117.5q0 -86 -44 -148t-119 -82l103 -303h-58zM157 342h98q79 0 126 50.5t47 136.5q0 56 -30.5 85.5t-89.5 29.5h-92zM350 769h-52l98 117h69z" />
    <glyph glyph-name="racute" unicode="&#x155;" horiz-adv-x="288" 
d="M24 0l99 503h46l-12 -91q61 95 135 95q17 0 30 -3l-10 -53q-18 3 -35 3q-35 0 -66 -23t-61 -70l-71 -361h-55zM205 602l104 152h66l-121 -152h-49z" />
    <glyph glyph-name="uni0156" unicode="&#x156;" horiz-adv-x="494" 
d="M367 0l-98 293h-122l-57 -293h-55l135 693h152q76 0 119.5 -42.5t43.5 -117.5q0 -86 -44 -148t-119 -82l103 -303h-58zM157 342h98q79 0 126 50.5t47 136.5q0 56 -30.5 85.5t-89.5 29.5h-92zM122 -270l68 202h24q23 0 23 -17q0 -6 -3 -14t-17 -40l-58 -131h-37z" />
    <glyph glyph-name="uni0157" unicode="&#x157;" horiz-adv-x="288" 
d="M24 0l99 503h46l-12 -91q61 95 135 95q17 0 30 -3l-10 -53q-18 3 -35 3q-35 0 -66 -23t-61 -70l-71 -361h-55zM-52 -270l68 202h21q24 0 24 -17q0 -6 -3 -14t-17 -40l-58 -131h-35z" />
    <glyph glyph-name="Rcaron" unicode="&#x158;" horiz-adv-x="494" 
d="M367 0l-98 293h-122l-57 -293h-55l135 693h152q76 0 119.5 -42.5t43.5 -117.5q0 -86 -44 -148t-119 -82l103 -303h-58zM157 342h98q79 0 126 50.5t47 136.5q0 56 -30.5 85.5t-89.5 29.5h-92zM267 898l62 -102l100 102h58l-134 -129h-55l-84 129h53z" />
    <glyph glyph-name="rcaron" unicode="&#x159;" horiz-adv-x="288" 
d="M24 0l99 503h46l-12 -91q61 95 135 95q17 0 30 -3l-10 -53q-18 3 -35 3q-35 0 -66 -23t-61 -70l-71 -361h-55zM181 754l55 -125l103 125h59l-136 -152h-58l-77 152h54z" />
    <glyph glyph-name="Sacute" unicode="&#x15a;" horiz-adv-x="461" 
d="M213 342q-55 35 -79 72t-24 89q0 60 28 106t75 71t105 25q75 0 130 -40l-9 -46q-51 35 -120 35t-110 -39t-41 -105q0 -39 17.5 -66.5t60.5 -54.5l54 -34q50 -32 72 -66.5t22 -83.5q0 -65 -29.5 -115.5t-80 -77.5t-113.5 -27q-93 0 -150 44l9 47q56 -39 141 -39
q73 0 118.5 42.5t45.5 111.5q0 40 -16 67t-54 51zM343 769h-52l98 117h69z" />
    <glyph glyph-name="sacute" unicode="&#x15b;" horiz-adv-x="339" 
d="M124 371q0 -24 11 -42t37 -36l49 -35q33 -24 48 -50t15 -59q0 -71 -44.5 -116.5t-113.5 -45.5q-73 0 -125 37l8 42q52 -33 115 -33q48 0 77 29.5t29 77.5q0 45 -46 78l-49 35q-35 25 -50 51t-15 60q0 67 43 110t112 43q57 0 105 -30l-8 -42q-46 26 -96 26
q-47 0 -74.5 -27t-27.5 -73zM211 602l104 152h66l-121 -152h-49z" />
    <glyph glyph-name="Scircumflex" unicode="&#x15c;" horiz-adv-x="461" 
d="M213 342q-55 35 -79 72t-24 89q0 60 28 106t75 71t105 25q75 0 130 -40l-9 -46q-51 35 -120 35t-110 -39t-41 -105q0 -39 17.5 -66.5t60.5 -54.5l54 -34q50 -32 72 -66.5t22 -83.5q0 -65 -29.5 -115.5t-80 -77.5t-113.5 -27q-93 0 -150 44l9 47q56 -39 141 -39
q73 0 118.5 42.5t45.5 111.5q0 40 -16 67t-54 51zM339 862l-105 -93h-53l134 129h56l84 -129h-48z" />
    <glyph glyph-name="scircumflex" unicode="&#x15d;" horiz-adv-x="339" 
d="M124 371q0 -24 11 -42t37 -36l49 -35q33 -24 48 -50t15 -59q0 -71 -44.5 -116.5t-113.5 -45.5q-73 0 -125 37l8 42q52 -33 115 -33q48 0 77 29.5t29 77.5q0 45 -46 78l-49 35q-35 25 -50 51t-15 60q0 67 43 110t112 43q57 0 105 -30l-8 -42q-46 26 -96 26
q-47 0 -74.5 -27t-27.5 -73zM260 716l-108 -114h-52l137 152h57l77 -152h-47z" />
    <glyph glyph-name="Scedilla" unicode="&#x15e;" horiz-adv-x="461" 
d="M213 342q-55 35 -79 72t-24 89q0 60 28 106t75 71t105 25q75 0 130 -40l-9 -46q-51 35 -120 35t-110 -39t-41 -105q0 -39 17.5 -66.5t60.5 -54.5l54 -34q50 -32 72 -66.5t22 -83.5q0 -65 -29.5 -115.5t-80 -77.5t-113.5 -27q-93 0 -150 44l9 47q56 -39 141 -39
q73 0 118.5 42.5t45.5 111.5q0 40 -16 67t-54 51zM98 -246q90 59 90 112q0 28 -30 28q-17 0 -30 -4l7 35q21 9 43 9q27 0 42.5 -16t15.5 -44q0 -39 -30 -76.5t-88 -71.5z" />
    <glyph glyph-name="scedilla" unicode="&#x15f;" horiz-adv-x="339" 
d="M124 371q0 -24 11 -42t37 -36l49 -35q33 -24 48 -50t15 -59q0 -71 -44.5 -116.5t-113.5 -45.5q-73 0 -125 37l8 42q52 -33 115 -33q48 0 77 29.5t29 77.5q0 45 -46 78l-49 35q-35 25 -50 51t-15 60q0 67 43 110t112 43q57 0 105 -30l-8 -42q-46 26 -96 26
q-47 0 -74.5 -27t-27.5 -73zM32 -248q92 62 92 114q0 30 -32 30q-13 0 -30 -5l7 34q21 9 43 9q27 0 42.5 -16t15.5 -44q0 -39 -30 -76.5t-88 -71.5z" />
    <glyph glyph-name="Scaron" unicode="&#x160;" horiz-adv-x="461" 
d="M213 342q-55 35 -79 72t-24 89q0 60 28 106t75 71t105 25q75 0 130 -40l-9 -46q-51 35 -120 35t-110 -39t-41 -105q0 -39 17.5 -66.5t60.5 -54.5l54 -34q50 -32 72 -66.5t22 -83.5q0 -65 -29.5 -115.5t-80 -77.5t-113.5 -27q-93 0 -150 44l9 47q56 -39 141 -39
q73 0 118.5 42.5t45.5 111.5q0 40 -16 67t-54 51zM260 898l62 -102l100 102h58l-134 -129h-55l-84 129h53z" />
    <glyph glyph-name="scaron" unicode="&#x161;" horiz-adv-x="339" 
d="M124 371q0 -24 11 -42t37 -36l49 -35q33 -24 48 -50t15 -59q0 -71 -44.5 -116.5t-113.5 -45.5q-73 0 -125 37l8 42q52 -33 115 -33q48 0 77 29.5t29 77.5q0 45 -46 78l-49 35q-35 25 -50 51t-15 60q0 67 43 110t112 43q57 0 105 -30l-8 -42q-46 26 -96 26
q-47 0 -74.5 -27t-27.5 -73zM187 754l55 -125l103 125h59l-136 -152h-58l-77 152h54z" />
    <glyph glyph-name="uni0162" unicode="&#x162;" horiz-adv-x="447" 
d="M145 0l125 642h-175l10 51h409l-10 -51h-177l-125 -642h-57zM73 -246q90 59 90 112q0 28 -30 28q-17 0 -30 -4l7 35q21 9 43 9q27 0 42.5 -16t15.5 -44q0 -39 -30 -76.5t-88 -71.5z" />
    <glyph glyph-name="uni0163" unicode="&#x163;" horiz-adv-x="309" 
d="M255 28q-45 -34 -101 -34q-88 0 -88 86q0 25 16 109l52 266h-75l8 39l79 8l37 147h44l-29 -146h121l-10 -48h-120l-52 -266q-11 -57 -13.5 -73t-2.5 -27q0 -47 50 -47q38 0 71 23zM46 -248q92 62 92 114q0 30 -32 30q-13 0 -30 -5l7 34q21 9 43 9q27 0 42.5 -16t15.5 -44
q0 -39 -30 -76.5t-88 -71.5z" />
    <glyph glyph-name="Tcaron" unicode="&#x164;" horiz-adv-x="447" 
d="M145 0l125 642h-175l10 51h409l-10 -51h-177l-125 -642h-57zM260 898l62 -102l100 102h58l-134 -129h-55l-84 129h53z" />
    <glyph glyph-name="tcaron" unicode="&#x165;" horiz-adv-x="309" 
d="M255 28q-45 -34 -101 -34q-88 0 -88 86q0 25 16 109l52 266h-75l8 39l79 8l37 147h44l-29 -146h121l-10 -48h-120l-52 -266q-11 -57 -13.5 -73t-2.5 -27q0 -47 50 -47q38 0 71 23zM306 580l30 160q16 7 28 7q16 0 26 -10l-48 -157h-36z" />
    <glyph glyph-name="Tbar" unicode="&#x166;" horiz-adv-x="447" 
d="M145 0l64 328h-116l9 44h115l53 270h-175l10 51h409l-10 -51h-177l-53 -270h118l-9 -44h-117l-64 -328h-57z" />
    <glyph glyph-name="tbar" unicode="&#x167;" horiz-adv-x="329" 
d="M265 28q-45 -34 -101 -34q-88 0 -88 86q0 25 16 109l11 55h-76l7 41h77l33 170h-75l8 39l79 8l37 147h44l-29 -146h121l-10 -48h-120l-33 -170h118l-8 -41h-118l-11 -55q-11 -57 -13.5 -73t-2.5 -27q0 -47 50 -47q38 0 71 23z" />
    <glyph glyph-name="Utilde" unicode="&#x168;" horiz-adv-x="570" 
d="M518 693h57l-91 -467q-46 -241 -239 -241q-83 0 -127.5 46t-44.5 132q0 32 4.5 66.5t16.5 95.5l72 368h57l-73 -372q-21 -105 -21 -150q0 -134 124 -134q138 0 174 187zM483 886h36q-2 -18 -5 -32q-10 -38 -30 -58.5t-49 -20.5q-18 0 -31.5 8.5t-29.5 29.5
q-21 27 -27.5 32t-15.5 5q-25 0 -37 -46l-7 -26h-36q2 18 5 31q9 38 30 59t49 21q17 0 30.5 -8.5t30.5 -31.5q17 -22 25 -28.5t18 -6.5q14 0 23 10.5t14 33.5z" />
    <glyph glyph-name="utilde" unicode="&#x169;" horiz-adv-x="467" 
d="M297 0l13 100q-36 -53 -81 -83t-88 -30q-44 0 -67.5 28t-23.5 81q0 43 21 153l50 254h55l-50 -253q-21 -107 -21 -146q0 -68 57 -68q35 0 76 30t79 84l70 353h55l-99 -503h-46zM407 723h35q-2 -20 -5 -32q-9 -38 -30 -59t-49 -21q-18 0 -30.5 8t-30.5 32q-17 23 -25.5 30
t-18.5 7q-13 0 -22.5 -12t-15.5 -35l-7 -27h-35q1 18 5 32q8 37 29 58.5t50 21.5q17 0 30 -8t31 -32t26 -30.5t18 -6.5q27 0 38 46z" />
    <glyph glyph-name="Umacron" unicode="&#x16a;" horiz-adv-x="570" 
d="M518 693h57l-91 -467q-46 -241 -239 -241q-83 0 -127.5 46t-44.5 132q0 32 4.5 66.5t16.5 95.5l72 368h57l-73 -372q-21 -105 -21 -150q0 -134 124 -134q138 0 174 187zM262 809l8 43h240l-8 -43h-240z" />
    <glyph glyph-name="umacron" unicode="&#x16b;" horiz-adv-x="467" 
d="M297 0l13 100q-36 -53 -81 -83t-88 -30q-44 0 -67.5 28t-23.5 81q0 43 21 153l50 254h55l-50 -253q-21 -107 -21 -146q0 -68 57 -68q35 0 76 30t79 84l70 353h55l-99 -503h-46zM185 649l8 41h241l-8 -41h-241z" />
    <glyph glyph-name="Ubreve" unicode="&#x16c;" horiz-adv-x="570" 
d="M518 693h57l-91 -467q-46 -241 -239 -241q-83 0 -127.5 46t-44.5 132q0 32 4.5 66.5t16.5 95.5l72 368h57l-73 -372q-21 -105 -21 -150q0 -134 124 -134q138 0 174 187zM471 888h37q-2 -54 -38 -87.5t-92 -33.5q-41 0 -64.5 20.5t-23.5 55.5q0 27 10 45h36q-5 -22 -5 -33
q0 -48 53 -48q33 0 55 18t29 51z" />
    <glyph glyph-name="ubreve" unicode="&#x16d;" horiz-adv-x="467" 
d="M297 0l13 100q-36 -53 -81 -83t-88 -30q-44 0 -67.5 28t-23.5 81q0 43 21 153l50 254h55l-50 -253q-21 -107 -21 -146q0 -68 57 -68q35 0 76 30t79 84l70 353h55l-99 -503h-46zM386 740h36q-3 -63 -38.5 -101.5t-91.5 -38.5q-41 0 -65 23.5t-24 64.5q0 27 11 52h35
q-5 -21 -5 -42q0 -28 14 -43.5t39 -15.5q33 0 55 21.5t30 61.5z" />
    <glyph glyph-name="Uring" unicode="&#x16e;" horiz-adv-x="570" 
d="M518 693h57l-91 -467q-46 -241 -239 -241q-83 0 -127.5 46t-44.5 132q0 32 4.5 66.5t16.5 95.5l72 368h57l-73 -372q-21 -105 -21 -150q0 -134 124 -134q138 0 174 187zM383 741q-38 0 -62 22t-24 57q0 44 29.5 73.5t73.5 29.5q38 0 62 -22.5t24 -57.5q0 -44 -29.5 -73
t-73.5 -29zM397 891q-28 0 -45 -19.5t-17 -50.5q0 -21 14 -34.5t37 -13.5q28 0 45 19.5t17 49.5q0 22 -14 35.5t-37 13.5z" />
    <glyph glyph-name="uring" unicode="&#x16f;" horiz-adv-x="467" 
d="M297 0l13 100q-36 -53 -81 -83t-88 -30q-44 0 -67.5 28t-23.5 81q0 43 21 153l50 254h55l-50 -253q-21 -107 -21 -146q0 -68 57 -68q35 0 76 30t79 84l70 353h55l-99 -503h-46zM299 584q-39 0 -63.5 24t-24.5 62q0 47 30.5 80t76.5 33q38 0 62.5 -24t24.5 -62
q0 -47 -30.5 -80t-75.5 -33zM317 750q-30 0 -48.5 -22.5t-18.5 -56.5q0 -24 13.5 -38.5t36.5 -14.5q29 0 47.5 22t18.5 56q0 24 -13.5 39t-35.5 15z" />
    <glyph glyph-name="Uhungarumlaut" unicode="&#x170;" horiz-adv-x="570" 
d="M518 693h57l-91 -467q-46 -241 -239 -241q-83 0 -127.5 46t-44.5 132q0 32 4.5 66.5t16.5 95.5l72 368h57l-73 -372q-21 -105 -21 -150q0 -134 124 -134q138 0 174 187zM308 769h-49l91 117h67zM463 769h-48l90 117h68z" />
    <glyph glyph-name="uhungarumlaut" unicode="&#x171;" horiz-adv-x="467" 
d="M297 0l13 100q-36 -53 -81 -83t-88 -30q-44 0 -67.5 28t-23.5 81q0 43 21 153l50 254h55l-50 -253q-21 -107 -21 -146q0 -68 57 -68q35 0 76 30t79 84l70 353h55l-99 -503h-46zM171 601l104 153h66l-121 -153h-49zM317 601l104 153h66l-122 -153h-48z" />
    <glyph glyph-name="Uogonek" unicode="&#x172;" horiz-adv-x="570" 
d="M193 -148q0 72 77 134q-6 -1 -12 -1h-13q-83 0 -127.5 46t-44.5 132q0 32 4.5 66.5t16.5 95.5l72 368h57l-73 -372q-21 -105 -21 -150q0 -134 124 -134q138 0 174 187l91 469h57l-91 -467q-33 -164 -129 -216q-54 -30 -84 -69t-30 -79q0 -18 10 -27.5t28 -9.5q19 0 41 13
l11 -32q-33 -22 -68 -22q-32 0 -51 18t-19 50z" />
    <glyph glyph-name="uogonek" unicode="&#x173;" horiz-adv-x="467" 
d="M297 0l13 100q-36 -53 -81 -83t-88 -30q-44 0 -67.5 28t-23.5 81q0 43 21 153l50 254h55l-50 -253q-21 -107 -21 -146q0 -68 57 -68q35 0 76 30t79 84l70 353h55l-99 -503h-46zM335 -194q-33 -22 -68 -22q-32 0 -50.5 18t-18.5 50q0 43 29.5 84t85.5 75l30 -11
q-99 -73 -99 -138q0 -19 10 -29t29 -10t41 13z" />
    <glyph glyph-name="Wcircumflex" unicode="&#x174;" horiz-adv-x="727" 
d="M427 0l1 598l-232 -598h-65l-25 693h59l12 -623l230 596h68l-1 -593l253 620h64l-299 -693h-65zM465 862l-105 -93h-53l134 129h56l84 -129h-48z" />
    <glyph glyph-name="wcircumflex" unicode="&#x175;" horiz-adv-x="567" 
d="M328 0l-10 439l-172 -439h-56l-30 503h55l16 -441l171 441h56l11 -448q46 95 94 218t81 230h57q-36 -111 -97 -252t-120 -251h-56zM355 716l-108 -114h-52l137 152h57l77 -152h-47z" />
    <glyph glyph-name="Ycircumflex" unicode="&#x176;" horiz-adv-x="467" 
d="M154 0l50 253l-100 440h59l78 -390l230 390h63l-275 -443l-49 -250h-56zM345 862l-105 -93h-53l134 129h56l84 -129h-48z" />
    <glyph glyph-name="ycircumflex" unicode="&#x177;" horiz-adv-x="380" 
d="M-62 -175q51 18 89 51q49 46 98 124l-67 503h56l50 -453q40 75 97 208.5t98 244.5h57q-56 -149 -127 -296t-131 -240q-102 -156 -195 -185zM261 716l-108 -114h-52l137 152h57l77 -152h-47z" />
    <glyph glyph-name="Ydieresis" unicode="&#x178;" horiz-adv-x="467" 
d="M154 0l50 253l-100 440h59l78 -390l230 390h63l-275 -443l-49 -250h-56zM250 791q-15 0 -24.5 9.5t-9.5 25.5q0 20 11.5 34t28.5 14q15 0 24.5 -9.5t9.5 -25.5q0 -20 -11.5 -34t-28.5 -14zM422 791q-15 0 -24.5 9.5t-9.5 25.5q0 20 11.5 34t28.5 14q15 0 24.5 -9.5
t9.5 -25.5q0 -20 -11.5 -34t-28.5 -14z" />
    <glyph glyph-name="Zacute" unicode="&#x179;" horiz-adv-x="462" 
d="M-4 0l9 46l420 596h-287l10 51h353l-9 -46l-421 -596h306l-10 -51h-371zM357 769h-52l98 117h69z" />
    <glyph glyph-name="zacute" unicode="&#x17a;" horiz-adv-x="381" 
d="M-9 0l9 45l312 409h-228l10 49h291l-9 -46l-312 -408h238l-10 -49h-301zM222 602l104 152h66l-121 -152h-49z" />
    <glyph glyph-name="Zdotaccent" unicode="&#x17b;" horiz-adv-x="462" 
d="M-4 0l9 46l420 596h-287l10 51h353l-9 -46l-421 -596h306l-10 -51h-371zM343 789q-17 0 -26.5 10.5t-9.5 26.5q0 20 13 34.5t31 14.5q17 0 27 -10t10 -27q0 -20 -13 -34.5t-32 -14.5z" />
    <glyph glyph-name="zdotaccent" unicode="&#x17c;" horiz-adv-x="381" 
d="M-9 0l9 45l312 409h-228l10 49h291l-9 -46l-312 -408h238l-10 -49h-301zM263 613q-17 0 -26 10t-9 26q0 20 12.5 34t30.5 14q17 0 26.5 -9.5t9.5 -26.5q0 -20 -12.5 -34t-31.5 -14z" />
    <glyph glyph-name="Zcaron" unicode="&#x17d;" horiz-adv-x="462" 
d="M-4 0l9 46l420 596h-287l10 51h353l-9 -46l-421 -596h306l-10 -51h-371zM274 898l62 -102l100 102h58l-134 -129h-55l-84 129h53z" />
    <glyph glyph-name="zcaron" unicode="&#x17e;" horiz-adv-x="381" 
d="M-9 0l9 45l312 409h-228l10 49h291l-9 -46l-312 -408h238l-10 -49h-301zM198 754l55 -125l103 125h59l-136 -152h-58l-77 152h54z" />
    <glyph glyph-name="longs" unicode="&#x17f;" horiz-adv-x="188" 
d="M24 0l119 611q14 74 48 108.5t92 34.5q40 0 74 -21l-8 -43q-31 16 -63 16q-37 0 -57.5 -21.5t-29.5 -70.5l-119 -614h-56z" />
    <glyph glyph-name="florin" unicode="&#x192;" horiz-adv-x="297" 
d="M196 455l-105 -532q-28 -141 -130 -141q-41 0 -72 18l9 43q29 -13 57 -13q33 0 52.5 23t29.5 74l103 528h-78l8 39l79 8l21 109q15 74 48.5 108.5t91.5 34.5q40 0 74 -21l-8 -43q-31 16 -63 16q-37 0 -57.5 -21.5t-29.5 -70.5l-21 -111h130l-9 -48h-130z" />
    <glyph glyph-name="uni01D3" unicode="&#x1d3;" horiz-adv-x="570" 
d="M518 693h57l-91 -467q-46 -241 -239 -241q-83 0 -127.5 46t-44.5 132q0 32 4.5 66.5t16.5 95.5l72 368h57l-73 -372q-21 -105 -21 -150q0 -134 124 -134q138 0 174 187zM316 898l62 -102l100 102h58l-134 -129h-55l-84 129h53z" />
    <glyph glyph-name="uni01D4" unicode="&#x1d4;" horiz-adv-x="467" 
d="M297 0l13 100q-36 -53 -81 -83t-88 -30q-44 0 -67.5 28t-23.5 81q0 43 21 153l50 254h55l-50 -253q-21 -107 -21 -146q0 -68 57 -68q35 0 76 30t79 84l70 353h55l-99 -503h-46zM236 754l55 -125l103 125h59l-136 -152h-58l-77 152h54z" />
    <glyph glyph-name="Aringacute" unicode="&#x1fa;" horiz-adv-x="498" 
d="M375 0l-19 207h-233l-96 -207h-62l315 646q-31 22 -31 64q0 44 29 73.5t73 29.5q38 0 61 -22t23 -57q0 -34 -18 -60t-49 -37l66 -637h-59zM146 255h207l-32 374zM350 781q-28 0 -46 -19.5t-18 -50.5q0 -21 13 -34.5t35 -13.5q28 0 46 19.5t18 50.5q0 22 -13 35t-35 13z
M379 851h-48l98 117h64z" />
    <glyph glyph-name="aringacute" unicode="&#x1fb;" horiz-adv-x="450" 
d="M138 -13q-48 0 -74 39t-26 113q0 106 36.5 193.5t95.5 136t126 48.5q59 0 125 -33l-95 -484h-46l10 83q-72 -96 -152 -96zM159 35q64 0 139 102l63 319q-34 14 -69 14q-54 0 -100 -47t-71.5 -121t-25.5 -157q0 -110 64 -110zM304 584q-38 0 -61 22t-23 57q0 44 29 73.5
t73 29.5q38 0 61 -22t23 -57q0 -44 -29 -73.5t-73 -29.5zM321 734q-28 0 -46 -19.5t-18 -50.5q0 -21 13 -34.5t35 -13.5q28 0 46 19.5t18 50.5q0 22 -13 35t-35 13zM350 804h-48l98 117h64z" />
    <glyph glyph-name="AEacute" unicode="&#x1fc;" horiz-adv-x="753" 
d="M332 0l46 237h-194l-153 -237h-66l459 693h366l-10 -49h-265l-51 -260h226l-10 -50h-226l-56 -285h266l-9 -49h-323zM448 644l-233 -360h172l71 360h-10zM634 769h-52l98 117h69z" />
    <glyph glyph-name="aeacute" unicode="&#x1fd;" horiz-adv-x="674" 
d="M138 -13q-48 0 -74 39t-26 113q0 106 36.5 193.5t95.5 136t126 48.5q68 0 126 -60q62 60 136 60q46 0 71.5 -26t25.5 -74q0 -79 -61.5 -136t-179.5 -87l-50 -13v-21q0 -66 20 -96.5t64 -30.5q31 0 67 15t69 42l13 -38q-73 -65 -163 -65q-114 0 -124 141
q-36 -73 -77.5 -107t-94.5 -34zM318 251q20 101 76 175q-27 24 -51 34t-51 10q-54 0 -100 -47t-71.5 -121t-25.5 -157q0 -110 64 -110q36 0 67 29.5t56 81.5t36 105zM548 472q-42 0 -80.5 -34.5t-64.5 -91.5t-35 -124l49 14q89 25 137 70t48 104q0 30 -14 46t-40 16z
M404 602l104 152h66l-121 -152h-49z" />
    <glyph glyph-name="Oslashacute" unicode="&#x1fe;" horiz-adv-x="625" 
d="M380 705q104 0 157 -73l71 89l28 -26l-78 -97q29 -61 29 -146q0 -92 -25 -183.5t-66 -155t-95 -96t-120 -32.5q-101 0 -156 71l-70 -87l-28 26l76 95q-29 61 -29 148q0 92 25 183.5t66 155t95 96t120 32.5zM376 654q-75 0 -128.5 -58.5t-84 -158.5t-30.5 -202
q0 -52 12 -93l355 444q-40 68 -124 68zM528 456q0 51 -12 90l-354 -443q38 -67 123 -67q75 0 128.5 58.5t84 159t30.5 202.5zM425 769h-52l98 117h69z" />
    <glyph glyph-name="oslashacute" unicode="&#x1ff;" horiz-adv-x="456" 
d="M6 -2l55 70q-19 41 -19 104q0 89 30 173t79 128t113 44q71 0 110 -50l48 61l26 -24l-54 -69q19 -44 19 -103q0 -89 -30 -173t-79.5 -128t-113.5 -44q-70 0 -110 49l-48 -62zM261 469q-50 0 -86 -43t-56.5 -116t-20.5 -144q0 -29 4 -46l238 303q-25 46 -79 46zM357 337
q0 18 -4 46l-238 -303q24 -45 79 -45q50 0 86 42.5t56.5 115.5t20.5 144zM253 602l104 152h66l-121 -152h-49z" />
    <glyph glyph-name="uni0218" unicode="&#x218;" horiz-adv-x="461" 
d="M213 342q-55 35 -79 72t-24 89q0 60 28 106t75 71t105 25q75 0 130 -40l-9 -46q-51 35 -120 35t-110 -39t-41 -105q0 -39 17.5 -66.5t60.5 -54.5l54 -34q50 -32 72 -66.5t22 -83.5q0 -65 -29.5 -115.5t-80 -77.5t-113.5 -27q-93 0 -150 44l9 47q56 -39 141 -39
q73 0 118.5 42.5t45.5 111.5q0 40 -16 67t-54 51zM96 -270l68 202h24q23 0 23 -17q0 -6 -3 -14t-17 -40l-58 -131h-37z" />
    <glyph glyph-name="uni0219" unicode="&#x219;" horiz-adv-x="339" 
d="M124 371q0 -24 11 -42t37 -36l49 -35q33 -24 48 -50t15 -59q0 -71 -44.5 -116.5t-113.5 -45.5q-73 0 -125 37l8 42q52 -33 115 -33q48 0 77 29.5t29 77.5q0 45 -46 78l-49 35q-35 25 -50 51t-15 60q0 67 43 110t112 43q57 0 105 -30l-8 -42q-46 26 -96 26
q-47 0 -74.5 -27t-27.5 -73zM31 -270l68 202h21q24 0 24 -17q0 -6 -3 -14t-17 -40l-58 -131h-35z" />
    <glyph glyph-name="uni021A" unicode="&#x21a;" horiz-adv-x="447" 
d="M145 0l125 642h-175l10 51h409l-10 -51h-177l-125 -642h-57zM71 -270l68 202h24q23 0 23 -17q0 -6 -3 -14t-17 -40l-58 -131h-37z" />
    <glyph glyph-name="uni021B" unicode="&#x21b;" horiz-adv-x="309" 
d="M255 28q-45 -34 -101 -34q-88 0 -88 86q0 25 16 109l52 266h-75l8 39l79 8l37 147h44l-29 -146h121l-10 -48h-120l-52 -266q-11 -57 -13.5 -73t-2.5 -27q0 -47 50 -47q38 0 71 23zM45 -270l68 202h21q24 0 24 -17q0 -6 -3 -14t-17 -40l-58 -131h-35z" />
    <glyph glyph-name="uni0237" unicode="&#x237;" horiz-adv-x="209" 
d="M181 503l-113 -578q-15 -78 -41 -110.5t-74 -32.5q-28 0 -56 15l7 41q17 -8 42 -8q19 0 31 8.5t20.5 28.5t15.5 58l113 578h55z" />
    <glyph glyph-name="uni02B9" unicode="&#x2b9;" horiz-adv-x="211" 
d="M141 476h-41l97 217q16 8 33 8q18 0 29 -8z" />
    <glyph glyph-name="uni02BA" unicode="&#x2ba;" horiz-adv-x="334" 
d="M141 476h-41l97 217q16 8 33 8q18 0 29 -8zM264 476h-41l97 217q16 8 33 8q18 0 29 -8z" />
    <glyph glyph-name="uni02BB" unicode="&#x2bb;" horiz-adv-x="202" 
d="M246 675q-60 -72 -84 -152q-8 -28 -12 -55h-25q-27 0 -27 20q0 38 36.5 99.5t88.5 110.5z" />
    <glyph glyph-name="uni02BC" unicode="&#x2bc;" horiz-adv-x="202" 
d="M83 486q60 72 84 152q8 28 12 55h25q27 0 27 -20q0 -38 -36.5 -99.5t-88.5 -110.5z" />
    <glyph glyph-name="circumflex" unicode="&#x2c6;" horiz-adv-x="500" 
d="M345 716l-108 -114h-52l137 152h57l77 -152h-47z" />
    <glyph glyph-name="caron" unicode="&#x2c7;" horiz-adv-x="500" 
d="M267 754l55 -125l103 125h59l-136 -152h-58l-77 152h54z" />
    <glyph glyph-name="uni02C9" unicode="&#x2c9;" horiz-adv-x="500" 
d="M211 649l8 41h241l-8 -41h-241z" />
    <glyph glyph-name="uni02CA" unicode="&#x2ca;" horiz-adv-x="500" 
d="M246 602l104 152h66l-121 -152h-49z" />
    <glyph glyph-name="uni02CB" unicode="&#x2cb;" horiz-adv-x="500" 
d="M333 602l-64 152h62l47 -152h-45z" />
    <glyph glyph-name="breve" unicode="&#x2d8;" horiz-adv-x="500" 
d="M412 740h36q-3 -63 -38.5 -101.5t-91.5 -38.5q-41 0 -65 23.5t-24 64.5q0 27 11 52h35q-5 -21 -5 -42q0 -28 14 -43.5t39 -15.5q33 0 55 21.5t30 61.5z" />
    <glyph glyph-name="dotaccent" unicode="&#x2d9;" horiz-adv-x="500" 
d="M327 613q-17 0 -26 10t-9 26q0 20 12.5 34t30.5 14q17 0 26.5 -9.5t9.5 -26.5q0 -20 -12.5 -34t-31.5 -14z" />
    <glyph glyph-name="ring" unicode="&#x2da;" horiz-adv-x="500" 
d="M325 584q-39 0 -63.5 24t-24.5 62q0 47 30.5 80t76.5 33q38 0 62.5 -24t24.5 -62q0 -47 -30.5 -80t-75.5 -33zM343 750q-30 0 -48.5 -22.5t-18.5 -56.5q0 -24 13.5 -38.5t36.5 -14.5q29 0 47.5 22t18.5 56q0 24 -13.5 39t-35.5 15z" />
    <glyph glyph-name="ogonek" unicode="&#x2db;" horiz-adv-x="500" 
d="M252 -194q-33 -22 -68 -22q-32 0 -50.5 18t-18.5 50q0 43 29.5 84t85.5 75l30 -11q-99 -73 -99 -138q0 -19 10 -29t29 -10t41 13z" />
    <glyph glyph-name="tilde" unicode="&#x2dc;" horiz-adv-x="500" 
d="M433 723h35q-2 -20 -5 -32q-9 -38 -30 -59t-49 -21q-18 0 -30.5 8t-30.5 32q-17 23 -25.5 30t-18.5 7q-13 0 -22.5 -12t-15.5 -35l-7 -27h-35q1 18 5 32q8 37 29 58.5t50 21.5q17 0 30 -8t31 -32t26 -30.5t18 -6.5q27 0 38 46z" />
    <glyph glyph-name="hungarumlaut" unicode="&#x2dd;" horiz-adv-x="500" 
d="M177 601l104 153h66l-121 -153h-49zM323 601l104 153h66l-122 -153h-48z" />
    <glyph glyph-name="gravecomb" unicode="&#x300;" horiz-adv-x="0" 
d="M-27 602l-64 152h62l47 -152h-45z" />
    <glyph glyph-name="acutecomb" unicode="&#x301;" horiz-adv-x="0" 
d="M-24 602l104 152h66l-121 -152h-49z" />
    <glyph glyph-name="uni0302" unicode="&#x302;" horiz-adv-x="0" 
d="M25 716l-108 -114h-52l137 152h57l77 -152h-47z" />
    <glyph glyph-name="tildecomb" unicode="&#x303;" horiz-adv-x="0" 
d="M123 723h35q-2 -20 -5 -32q-9 -38 -30 -59t-49 -21q-18 0 -30.5 8t-30.5 32q-17 23 -25.5 30t-18.5 7q-13 0 -22.5 -12t-15.5 -35l-7 -27h-35q1 18 5 32q8 37 29 58.5t50 21.5q17 0 30 -8t31 -32t26 -30.5t18 -6.5q27 0 38 46z" />
    <glyph glyph-name="uni0304" unicode="&#x304;" horiz-adv-x="0" 
d="M-99 649l8 41h241l-8 -41h-241z" />
    <glyph glyph-name="uni0306" unicode="&#x306;" horiz-adv-x="0" 
d="M102 740h36q-3 -63 -38.5 -101.5t-91.5 -38.5q-41 0 -65 23.5t-24 64.5q0 27 11 52h35q-5 -21 -5 -42q0 -28 14 -43.5t39 -15.5q33 0 55 21.5t30 61.5z" />
    <glyph glyph-name="uni0307" unicode="&#x307;" horiz-adv-x="0" 
d="M17 613q-17 0 -26 10t-9 26q0 20 12.5 34t30.5 14q17 0 26.5 -9.5t9.5 -26.5q0 -20 -12.5 -34t-31.5 -14z" />
    <glyph glyph-name="uni0308" unicode="&#x308;" horiz-adv-x="0" 
d="M-66 613q-15 0 -24 9t-9 24q0 20 11 33t28 13q15 0 24 -9t9 -24q0 -19 -11 -32.5t-28 -13.5zM106 613q-15 0 -24 9t-9 24q0 20 11 33t28 13q15 0 24 -9t9 -24q0 -19 -11 -32.5t-28 -13.5z" />
    <glyph glyph-name="uni030A" unicode="&#x30a;" horiz-adv-x="0" 
d="M15 584q-39 0 -63.5 24t-24.5 62q0 47 30.5 80t76.5 33q38 0 62.5 -24t24.5 -62q0 -47 -30.5 -80t-75.5 -33zM33 750q-30 0 -48.5 -22.5t-18.5 -56.5q0 -24 13.5 -38.5t36.5 -14.5q29 0 47.5 22t18.5 56q0 24 -13.5 39t-35.5 15z" />
    <glyph glyph-name="uni030B" unicode="&#x30b;" horiz-adv-x="0" 
d="M-113 601l104 153h66l-121 -153h-49zM33 601l104 153h66l-122 -153h-48z" />
    <glyph glyph-name="uni030C" unicode="&#x30c;" horiz-adv-x="0" 
d="M-48 754l55 -125l103 125h59l-136 -152h-58l-77 152h54z" />
    <glyph glyph-name="uni0312" unicode="&#x312;" horiz-adv-x="0" 
d="M31 588h-21q-23 0 -23 17q0 6 2.5 13.5t16.5 40.5l60 139h36z" />
    <glyph glyph-name="uni0315" unicode="&#x315;" horiz-adv-x="0" 
d="M-40 553l38 192q11 7 27 7q17 0 26 -9l-55 -190h-36z" />
    <glyph glyph-name="uni0326" unicode="&#x326;" horiz-adv-x="0" 
d="M-91 -270l68 202h21q24 0 24 -17q0 -6 -3 -14t-17 -40l-58 -131h-35z" />
    <glyph glyph-name="uni0327" unicode="&#x327;" horiz-adv-x="0" 
d="M-90 -248q92 62 92 114q0 30 -32 30q-13 0 -30 -5l7 34q21 9 43 9q27 0 42.5 -16t15.5 -44q0 -39 -30 -76.5t-88 -71.5z" />
    <glyph glyph-name="uni0328" unicode="&#x328;" horiz-adv-x="0" 
d="M-8 -194q-33 -22 -68 -22q-32 0 -50.5 18t-18.5 50q0 43 29.5 84t85.5 75l30 -11q-99 -73 -99 -138q0 -19 10 -29t29 -10t41 13z" />
    <glyph glyph-name="uni0344" unicode="&#x344;" horiz-adv-x="0" 
d="M79 859h63l-97 -153h-40zM-69 616q-15 0 -24 9t-9 23q0 18 11 30.5t28 12.5q15 0 24 -9t9 -23q0 -18 -11 -30.5t-28 -12.5zM108 616q-15 0 -24 9t-9 23q0 18 11 30.5t28 12.5q15 0 24 -9t9 -23q0 -18 -11 -30.5t-28 -12.5z" />
    <glyph glyph-name="uni0374" unicode="&#x374;" horiz-adv-x="211" 
d="M141 476h-41l97 217q16 8 33 8q18 0 29 -8z" />
    <glyph glyph-name="uni0375" unicode="&#x375;" horiz-adv-x="211" 
d="M-35 -218l97 217q18 8 34 8q17 0 30 -8l-119 -217h-42z" />
    <glyph glyph-name="uni037E" unicode="&#x37e;" horiz-adv-x="202" 
d="M-40 -147l85 232h27q26 0 26 -18q0 -8 -3.5 -17.5t-15.5 -35.5l-79 -161h-40zM137 421q-16 0 -26 10t-10 28q0 22 13 36.5t32 14.5q16 0 26 -10t10 -28q0 -22 -13 -36.5t-32 -14.5z" />
    <glyph glyph-name="tonos" unicode="&#x384;" horiz-adv-x="500" 
d="M258 766h63l-101 -164h-41z" />
    <glyph glyph-name="dieresistonos" unicode="&#x385;" horiz-adv-x="500" 
d="M306 859h63l-97 -153h-40zM158 616q-15 0 -24 9t-9 23q0 18 11 30.5t28 12.5q15 0 24 -9t9 -23q0 -18 -11 -30.5t-28 -12.5zM335 616q-15 0 -24 9t-9 23q0 18 11 30.5t28 12.5q15 0 24 -9t9 -23q0 -18 -11 -30.5t-28 -12.5z" />
    <glyph glyph-name="Alphatonos" unicode="&#x386;" horiz-adv-x="523" 
d="M400 0l-19 207h-233l-96 -207h-62l337 693h61l71 -693h-59zM171 255h207l-32 374zM140 693h64l-101 -164h-42z" />
    <glyph glyph-name="anoteleia" unicode="&#x387;" horiz-adv-x="202" 
d="M137 421q-16 0 -26 10t-10 28q0 22 13 36.5t32 14.5q16 0 26 -10t10 -28q0 -22 -13 -36.5t-32 -14.5z" />
    <glyph glyph-name="Epsilontonos" unicode="&#x388;" horiz-adv-x="578" 
d="M157 0l135 693h323l-10 -49h-265l-51 -260h226l-10 -50h-226l-56 -285h266l-9 -49h-323zM147 693h64l-101 -164h-42z" />
    <glyph glyph-name="Etatonos" unicode="&#x389;" horiz-adv-x="703" 
d="M513 0l64 330h-299l-64 -330h-57l135 693h57l-61 -313h299l61 313h57l-135 -693h-57zM147 693h64l-101 -164h-42z" />
    <glyph glyph-name="Iotatonos" unicode="&#x38a;" horiz-adv-x="347" 
d="M157 0l135 693h57l-135 -693h-57zM147 693h64l-101 -164h-42z" />
    <glyph glyph-name="Omicrontonos" unicode="&#x38c;" horiz-adv-x="718" 
d="M469 654q-75 0 -128.5 -58.5t-84 -158.5t-30.5 -202q0 -96 39.5 -147.5t112.5 -51.5q75 0 128.5 58.5t84 159t30.5 202.5q0 95 -39.5 146.5t-112.5 51.5zM473 705q99 0 153 -66.5t54 -186.5q0 -92 -25 -183.5t-66 -155t-95 -96t-120 -32.5q-99 0 -153 66.5t-54 186.5
q0 92 25 183.5t66 155t95 96t120 32.5zM147 693h64l-101 -164h-42z" />
    <glyph glyph-name="Upsilontonos" unicode="&#x38e;" horiz-adv-x="627" 
d="M314 0l50 253l-100 440h59l78 -390l230 390h63l-275 -443l-49 -250h-56zM147 693h64l-101 -164h-42z" />
    <glyph glyph-name="Omegatonos" unicode="&#x38f;" horiz-adv-x="724" 
d="M692 439q0 -118 -54.5 -225.5t-142.5 -165.5h146l-9 -48h-213l9 48q95 57 150 161.5t55 226.5q0 106 -40 162t-115 56q-72 0 -125 -44.5t-81 -124t-28 -181.5q0 -84 19 -150t55 -106l-9 -48h-204l9 48h145q-35 44 -54.5 110.5t-19.5 144.5q0 120 39 212t106 141t153 49
q98 0 153.5 -71t55.5 -195zM147 693h64l-101 -164h-42z" />
    <glyph glyph-name="iotadieresistonos" unicode="&#x390;" horiz-adv-x="228" 
d="M98 82q0 -38 33 -38q16 0 35 8l10 -39q-31 -17 -60 -17q-73 0 -73 78q0 17 3.5 39t10.5 56l66 334h55l-66 -330q-14 -73 -14 -91zM234 859h63l-97 -153h-40zM86 616q-15 0 -24 9t-9 23q0 18 11 30.5t28 12.5q15 0 24 -9t9 -23q0 -18 -11 -30.5t-28 -12.5zM263 616
q-15 0 -24 9t-9 23q0 18 11 30.5t28 12.5q15 0 24 -9t9 -23q0 -18 -11 -30.5t-28 -12.5z" />
    <glyph glyph-name="Alpha" unicode="&#x391;" horiz-adv-x="498" 
d="M375 0l-19 207h-233l-96 -207h-62l337 693h61l71 -693h-59zM146 255h207l-32 374z" />
    <glyph glyph-name="Beta" unicode="&#x392;" horiz-adv-x="503" 
d="M35 0l135 693h163q66 0 104 -38.5t38 -105.5q0 -48 -15 -87.5t-42 -67t-62 -39.5q42 -14 65 -47t23 -80q0 -67 -29.5 -119t-79 -80.5t-109.5 -28.5h-191zM154 331l-55 -284h133q45 0 80.5 24.5t54.5 66t19 91.5q0 48 -24.5 75t-68.5 27h-139zM216 646l-53 -268h132
q53 0 89 47.5t36 120.5q0 48 -26 74t-72 26h-106z" />
    <glyph glyph-name="Gamma" unicode="&#x393;" horiz-adv-x="402" 
d="M35 0l135 693h300l-10 -50h-243l-125 -643h-57z" />
    <glyph glyph-name="uni0394" unicode="&#x394;" horiz-adv-x="501" 
d="M-8 46l312 647h61l64 -647l-9 -46h-437zM373 46l-52 582l-271 -582h323z" />
    <glyph glyph-name="Epsilon" unicode="&#x395;" horiz-adv-x="456" 
d="M35 0l135 693h323l-10 -49h-265l-51 -260h226l-10 -50h-226l-56 -285h266l-9 -49h-323z" />
    <glyph glyph-name="Zeta" unicode="&#x396;" horiz-adv-x="462" 
d="M-4 0l9 46l420 596h-287l10 51h353l-9 -46l-421 -596h306l-10 -51h-371z" />
    <glyph glyph-name="Eta" unicode="&#x397;" horiz-adv-x="581" 
d="M391 0l64 330h-299l-64 -330h-57l135 693h57l-61 -313h299l61 313h57l-135 -693h-57z" />
    <glyph glyph-name="Theta" unicode="&#x398;" horiz-adv-x="625" 
d="M376 654q-75 0 -128.5 -58.5t-84 -158.5t-30.5 -202q0 -96 39.5 -147.5t112.5 -51.5q75 0 128.5 58.5t84 159t30.5 202.5q0 95 -39.5 146.5t-112.5 51.5zM380 705q99 0 153 -66.5t54 -186.5q0 -92 -25 -183.5t-66 -155t-95 -96t-120 -32.5q-99 0 -153 66.5t-54 186.5
q0 92 25 183.5t66 155t95 96t120 32.5zM220 374h231l-9 -48h-231z" />
    <glyph glyph-name="Iota" unicode="&#x399;" horiz-adv-x="225" 
d="M35 0l135 693h57l-135 -693h-57z" />
    <glyph glyph-name="Kappa" unicode="&#x39a;" horiz-adv-x="467" 
d="M35 0l135 693h57l-61 -314l293 314h67l-313 -331l201 -362h-65l-189 347l-68 -347h-57z" />
    <glyph glyph-name="Lambda" unicode="&#x39b;" horiz-adv-x="485" 
d="M310 620l-282 -620h-63l329 693h60l67 -693h-61z" />
    <glyph glyph-name="Mu" unicode="&#x39c;" horiz-adv-x="672" 
d="M487 0l116 597l-254 -412h-52l-92 418l-118 -603h-52l135 693h64l99 -451l278 451h63l-135 -693h-52z" />
    <glyph glyph-name="Nu" unicode="&#x39d;" horiz-adv-x="576" 
d="M381 0l-176 602l-118 -602h-52l135 693h62l176 -607l118 607h52l-135 -693h-62z" />
    <glyph glyph-name="Xi" unicode="&#x39e;" horiz-adv-x="457" 
d="M6 50h366l-10 -50h-366zM115 382h277l-10 -51h-277zM139 693h349l-10 -50h-349z" />
    <glyph glyph-name="Omicron" unicode="&#x39f;" horiz-adv-x="625" 
d="M376 654q-75 0 -128.5 -58.5t-84 -158.5t-30.5 -202q0 -96 39.5 -147.5t112.5 -51.5q75 0 128.5 58.5t84 159t30.5 202.5q0 95 -39.5 146.5t-112.5 51.5zM380 705q99 0 153 -66.5t54 -186.5q0 -92 -25 -183.5t-66 -155t-95 -96t-120 -32.5q-99 0 -153 66.5t-54 186.5
q0 92 25 183.5t66 155t95 96t120 32.5z" />
    <glyph glyph-name="Pi" unicode="&#x3a0;" horiz-adv-x="562" 
d="M372 0l125 643h-280l-125 -643h-57l135 693h394l-135 -693h-57z" />
    <glyph glyph-name="Rho" unicode="&#x3a1;" horiz-adv-x="484" 
d="M146 283l-55 -283h-56l135 693h153q76 0 119 -42.5t43 -118.5q0 -75 -31 -131.5t-85.5 -87t-123.5 -30.5h-99zM217 644l-61 -312h92q82 0 131 53.5t49 143.5q0 56 -30 85.5t-88 29.5h-93z" />
    <glyph glyph-name="Sigma" unicode="&#x3a3;" horiz-adv-x="448" 
d="M3 46l238 314l-115 287l9 46h360l-9 -48h-301l116 -290l-232 -307h310l-9 -48h-376z" />
    <glyph glyph-name="Tau" unicode="&#x3a4;" horiz-adv-x="447" 
d="M145 0l125 642h-175l10 51h409l-10 -51h-177l-125 -642h-57z" />
    <glyph glyph-name="Upsilon" unicode="&#x3a5;" horiz-adv-x="467" 
d="M154 0l50 253l-100 440h59l78 -390l230 390h63l-275 -443l-49 -250h-56z" />
    <glyph glyph-name="Phi" unicode="&#x3a6;" horiz-adv-x="666" 
d="M400 723h49l-17 -87q91 -5 145.5 -65t54.5 -155q0 -105 -41 -186t-112 -125.5t-160 -46.5l-17 -88h-49l17 88q-90 5 -144.5 65t-54.5 155q0 104 40.5 184.5t111 125.5t160.5 48zM576 419q0 75 -41 120.5t-112 50.5l-95 -486q75 2 131.5 44t86.5 112.5t30 158.5zM127 275
q0 -75 40 -120.5t112 -50.5l95 486q-75 -3 -131 -44.5t-86 -112t-30 -158.5z" />
    <glyph glyph-name="Chi" unicode="&#x3a7;" horiz-adv-x="471" 
d="M346 0l-97 312l-219 -312h-66l264 364l-108 329h61l89 -291l201 291h65l-245 -338l117 -355h-62z" />
    <glyph glyph-name="Psi" unicode="&#x3a8;" horiz-adv-x="631" 
d="M237 0l36 184q-81 8 -127.5 60t-46.5 135q0 38 17 124l37 190h56l-37 -190q-11 -54 -14 -78t-3 -44q0 -64 33.5 -103.5t93.5 -45.5l90 461h56l-90 -462q82 2 135 59.5t75 168.5l46 234h56l-47 -241q-25 -130 -95 -198.5t-180 -70.5l-35 -183h-56z" />
    <glyph glyph-name="uni03A9" unicode="&#x3a9;" horiz-adv-x="612" 
d="M580 439q0 -118 -54.5 -225.5t-142.5 -165.5h146l-9 -48h-213l9 48q95 57 150 161.5t55 226.5q0 106 -40 162t-115 56q-72 0 -125 -44.5t-81 -124t-28 -181.5q0 -84 19 -150t55 -106l-9 -48h-204l9 48h145q-35 44 -54.5 110.5t-19.5 144.5q0 120 39 212t106 141t153 49
q98 0 153.5 -71t55.5 -195z" />
    <glyph glyph-name="Iotadieresis" unicode="&#x3aa;" horiz-adv-x="225" 
d="M35 0l135 693h57l-135 -693h-57zM131 791q-15 0 -24.5 9.5t-9.5 25.5q0 20 11.5 34t28.5 14q15 0 24.5 -9.5t9.5 -25.5q0 -20 -11.5 -34t-28.5 -14zM303 791q-15 0 -24.5 9.5t-9.5 25.5q0 20 11.5 34t28.5 14q15 0 24.5 -9.5t9.5 -25.5q0 -20 -11.5 -34t-28.5 -14z" />
    <glyph glyph-name="Upsilondieresis" unicode="&#x3ab;" horiz-adv-x="467" 
d="M154 0l50 253l-100 440h59l78 -390l230 390h63l-275 -443l-49 -250h-56zM250 791q-15 0 -24.5 9.5t-9.5 25.5q0 20 11.5 34t28.5 14q15 0 24.5 -9.5t9.5 -25.5q0 -20 -11.5 -34t-28.5 -14zM422 791q-15 0 -24.5 9.5t-9.5 25.5q0 20 11.5 34t28.5 14q15 0 24.5 -9.5
t9.5 -25.5q0 -20 -11.5 -34t-28.5 -14z" />
    <glyph glyph-name="alphatonos" unicode="&#x3ac;" horiz-adv-x="483" 
d="M140 -13q-100 0 -100 159q0 99 32.5 186t82 136t102.5 49q93 0 99 -153q20 66 45 139h57l-21 -56q-39 -104 -61 -199.5t-22 -156.5q0 -26 7 -37t23 -11q19 0 32 6l11 -37q-29 -16 -62 -16q-61 0 -61 80q0 27 8 74q-34 -77 -79.5 -120t-92.5 -43zM330 270q8 200 -70 200
q-43 0 -81.5 -48.5t-60 -121t-21.5 -149.5q0 -116 56 -116q48 0 91.5 57.5t85.5 177.5zM318 766h63l-101 -164h-41z" />
    <glyph glyph-name="epsilontonos" unicode="&#x3ad;" horiz-adv-x="353" 
d="M160 -13q-62 0 -98 35.5t-36 95.5t33.5 100t92.5 51q-33 13 -50.5 39.5t-17.5 63.5q0 64 44 104.5t115 40.5q62 0 114 -29l-8 -43q-47 25 -102 25q-49 0 -79 -27.5t-30 -72.5q0 -38 23 -60t64 -22h53l-9 -47h-72q-52 0 -84.5 -32t-32.5 -84q0 -42 24 -66.5t65 -24.5
q61 0 123 42l15 -38q-65 -51 -147 -51zM306 766h63l-101 -164h-41z" />
    <glyph glyph-name="etatonos" unicode="&#x3ae;" horiz-adv-x="498" 
d="M181 437q0 -11 -2 -29q39 51 84.5 80t88.5 29q47 0 71 -29t24 -85q0 -23 -3.5 -49.5t-17.5 -97.5l-90 -462h-55l90 461q14 70 17.5 95.5t3.5 43.5q0 74 -61 74q-35 0 -77 -29t-82 -81l-70 -358h-55l66 335q15 73 15 94q0 17 -6.5 24.5t-21.5 7.5q-16 0 -28 -6l-10 39
q28 16 61 16q28 0 43 -19t15 -54zM375 766h63l-101 -164h-41z" />
    <glyph glyph-name="iotatonos" unicode="&#x3af;" horiz-adv-x="228" 
d="M98 82q0 -38 33 -38q16 0 35 8l10 -39q-31 -17 -60 -17q-73 0 -73 78q0 17 3.5 39t10.5 56l66 334h55l-66 -330q-14 -73 -14 -91zM214 766h63l-101 -164h-41z" />
    <glyph glyph-name="upsilondieresistonos" unicode="&#x3b0;" horiz-adv-x="422" 
d="M175 -13q-57 0 -87 34t-30 99q0 32 11 90l29 156q9 45 9 63q0 34 -27 34q-13 0 -29 -7l-10 37q29 16 60 16q28 0 44 -19t16 -55q0 -19 -7 -55l-32 -172q-10 -57 -10 -87q0 -45 17 -66t52 -21q68 0 109.5 85.5t41.5 226.5q0 80 -16 157h52q19 -66 19 -158q0 -111 -27 -192
t-74.5 -123.5t-110.5 -42.5zM326 859h63l-97 -153h-40zM178 616q-15 0 -24 9t-9 23q0 18 11 30.5t28 12.5q15 0 24 -9t9 -23q0 -18 -11 -30.5t-28 -12.5zM355 616q-15 0 -24 9t-9 23q0 18 11 30.5t28 12.5q15 0 24 -9t9 -23q0 -18 -11 -30.5t-28 -12.5z" />
    <glyph glyph-name="alpha" unicode="&#x3b1;" horiz-adv-x="483" 
d="M140 -13q-100 0 -100 159q0 99 32.5 186t82 136t102.5 49q93 0 99 -153q20 66 45 139h57l-21 -56q-39 -104 -61 -199.5t-22 -156.5q0 -26 7 -37t23 -11q19 0 32 6l11 -37q-29 -16 -62 -16q-61 0 -61 80q0 27 8 74q-34 -77 -79.5 -120t-92.5 -43zM330 270q8 200 -70 200
q-43 0 -81.5 -48.5t-60 -121t-21.5 -149.5q0 -116 56 -116q48 0 91.5 57.5t85.5 177.5z" />
    <glyph glyph-name="beta" unicode="&#x3b2;" horiz-adv-x="456" 
d="M-15 -206l140 720q16 84 41 136.5t61.5 78t87.5 25.5q57 0 89.5 -39.5t32.5 -106.5q0 -78 -36 -135.5t-97 -78.5q47 -14 72 -55t25 -104q0 -74 -27 -130.5t-73 -87t-103 -30.5q-72 0 -115 37l-45 -230h-53zM91 66q35 -32 103 -32q69 0 110 53t41 144q0 68 -26.5 103.5
t-76.5 35.5h-29l9 46h20q62 0 102 53.5t40 134.5q0 50 -19 76.5t-55 26.5q-48 0 -80 -45t-50 -139z" />
    <glyph glyph-name="gamma" unicode="&#x3b3;" horiz-adv-x="365" 
d="M65 -206q24 142 24 261q0 155 -36 448h58q25 -223 27 -401v-26t-1 -26q130 205 196 453h58q-33 -129 -100 -268t-151 -253q-3 -77 -21 -188h-54z" />
    <glyph glyph-name="delta" unicode="&#x3b4;" horiz-adv-x="445" 
d="M184 -13q-68 0 -105 47.5t-37 135.5q0 107 54 188.5t151 118.5q-67 62 -67 130q0 65 42.5 106t110.5 41q32 0 63.5 -9t55.5 -24l-11 -42q-53 28 -109 28q-44 0 -70.5 -25.5t-26.5 -68.5q0 -28 14.5 -54t47.5 -57q38 -37 59.5 -69.5t31.5 -68t10 -79.5q0 -65 -17.5 -121
t-47.5 -95.5t-68.5 -60.5t-80.5 -21zM342 283q0 52 -15.5 90.5t-52.5 77.5q-84 -37 -130 -110t-46 -171q0 -135 91 -135q44 0 79 34.5t54.5 90.5t19.5 123z" />
    <glyph glyph-name="epsilon" unicode="&#x3b5;" horiz-adv-x="353" 
d="M160 -13q-62 0 -98 35.5t-36 95.5t33.5 100t92.5 51q-33 13 -50.5 39.5t-17.5 63.5q0 64 44 104.5t115 40.5q62 0 114 -29l-8 -43q-47 25 -102 25q-49 0 -79 -27.5t-30 -72.5q0 -38 23 -60t64 -22h53l-9 -47h-72q-52 0 -84.5 -32t-32.5 -84q0 -42 24 -66.5t65 -24.5
q61 0 123 42l15 -38q-65 -51 -147 -51z" />
    <glyph glyph-name="zeta" unicode="&#x3b6;" horiz-adv-x="329" 
d="M139 -177q83 53 83 102q0 19 -11 32.5t-39 29.5l-45 26q-45 26 -65 63.5t-20 95.5q0 118 73.5 244.5t229.5 276.5h-194l9 47h246l-9 -47q-154 -157 -225.5 -280t-71.5 -235q0 -46 15 -75t47 -48l42 -25q39 -23 54.5 -44t15.5 -49q0 -43 -29.5 -81.5t-85.5 -67.5z" />
    <glyph glyph-name="eta" unicode="&#x3b7;" horiz-adv-x="498" 
d="M181 437q0 -11 -2 -29q39 51 84.5 80t88.5 29q47 0 71 -29t24 -85q0 -23 -3.5 -49.5t-17.5 -97.5l-90 -462h-55l90 461q14 70 17.5 95.5t3.5 43.5q0 74 -61 74q-35 0 -77 -29t-82 -81l-70 -358h-55l66 335q15 73 15 94q0 17 -6.5 24.5t-21.5 7.5q-16 0 -28 -6l-10 39
q28 16 61 16q28 0 43 -19t15 -54z" />
    <glyph glyph-name="theta" unicode="&#x3b8;" horiz-adv-x="469" 
d="M193 -13q-129 0 -129 217q0 145 34.5 277.5t92 202.5t131.5 70q130 0 130 -218q0 -145 -35 -277t-92.5 -202t-131.5 -70zM200 35q59 0 106.5 84t72.5 229h-250q-10 -76 -10 -148q0 -84 19.5 -124.5t61.5 -40.5zM316 706q-59 0 -106.5 -84t-72.5 -228h249q11 82 11 146
q0 86 -19.5 126t-61.5 40z" />
    <glyph glyph-name="iota" unicode="&#x3b9;" horiz-adv-x="228" 
d="M98 82q0 -38 33 -38q16 0 35 8l10 -39q-31 -17 -60 -17q-73 0 -73 78q0 17 3.5 39t10.5 56l66 334h55l-66 -330q-14 -73 -14 -91z" />
    <glyph glyph-name="kappa" unicode="&#x3ba;" horiz-adv-x="405" 
d="M232 286q24 -70 59.5 -147t72.5 -139h-67q-33 63 -57 118.5t-48 125.5l-81 -85l-31 -159h-55l99 503h55l-53 -268l242 268h70z" />
    <glyph glyph-name="lambda" unicode="&#x3bb;" horiz-adv-x="367" 
d="M258 0l-35 435q-56 -87 -109.5 -205.5t-88.5 -229.5h-56q37 120 106 260.5t140 238.5l-12 125q-5 46 -15.5 65t-31.5 19t-40 -8l-10 36q31 18 64 18q38 0 57.5 -29.5t25.5 -94.5l63 -630h-58z" />
    <glyph glyph-name="uni03BC" unicode="&#x3bc;" horiz-adv-x="483" 
d="M430 13q-25 -16 -58 -16q-29 0 -44.5 18t-15.5 50q0 19 2 29q-34 -50 -75 -78.5t-79 -28.5q-57 0 -72 61l-49 -254h-52l139 709h55l-50 -252q-20 -103 -20 -142q0 -38 13.5 -56t41.5 -18q36 0 78 30.5t78 83.5l69 354h55l-72 -370q-8 -39 -8 -58q0 -33 26 -33q15 0 28 7z
" />
    <glyph glyph-name="nu" unicode="&#x3bd;" horiz-adv-x="379" 
d="M59 503h57l34 -454q63 98 117.5 220.5t83.5 233.5h57q-28 -116 -97.5 -256.5t-149.5 -246.5h-52z" />
    <glyph glyph-name="xi" unicode="&#x3be;" horiz-adv-x="335" 
d="M144 -177q83 53 83 102q0 21 -11 34.5t-38 27.5l-46 26q-92 53 -92 158q0 82 45 145.5t116 80.5q-34 16 -54 53.5t-20 86.5q0 64 25.5 113.5t68.5 76.5t97 27q49 0 89 -20l-9 -43q-35 16 -79 16q-59 0 -97.5 -47.5t-38.5 -121.5q0 -57 25 -91.5t66 -34.5h32l-9 -45h-39
q-47 0 -83.5 -25.5t-57 -68.5t-20.5 -94q0 -44 17 -74t53 -50l43 -25q38 -22 53.5 -43t15.5 -50q0 -43 -29.5 -81.5t-84.5 -67.5z" />
    <glyph glyph-name="omicron" unicode="&#x3bf;" horiz-adv-x="450" 
d="M258 471q-49 0 -84.5 -43t-55.5 -116.5t-20 -145.5q0 -64 23.5 -98t68.5 -34q49 0 84.5 42.5t55.5 116t20 145.5q0 65 -23.5 99t-68.5 34zM187 -13q-68 0 -106.5 48.5t-38.5 136.5t29.5 172.5t78 129t111.5 44.5q69 0 107.5 -49t38.5 -136q0 -88 -29.5 -172.5t-78 -129
t-112.5 -44.5z" />
    <glyph glyph-name="pi" unicode="&#x3c0;" horiz-adv-x="476" 
d="M337 -4q-64 0 -64 69q0 19 10 69l64 323h-142q-30 -155 -57 -253.5t-67 -203.5h-57q47 121 74.5 221.5t51.5 235.5h-90l9 46h426l-9 -46h-84l-64 -323q-8 -40 -8 -59q0 -17 7 -24.5t23 -7.5q19 0 38 8l9 -38q-29 -17 -70 -17z" />
    <glyph glyph-name="rho" unicode="&#x3c1;" horiz-adv-x="447" 
d="M-23 -206l94 482q47 241 197 241q63 0 99.5 -46.5t36.5 -127.5q0 -101 -34.5 -183t-90.5 -127.5t-121 -45.5q-46 0 -84 24l-42 -217h-55zM82 53q31 -19 76 -19q54 0 97.5 43t67.5 112t24 150q0 64 -21.5 97t-61.5 33q-50 0 -85.5 -49.5t-53.5 -146.5z" />
    <glyph glyph-name="sigma1" unicode="&#x3c2;" horiz-adv-x="352" 
d="M134 13q-47 29 -68 68.5t-21 97.5q0 93 35 171.5t90 122.5t116 44q48 0 84 -22l-9 -43q-38 18 -74 18q-51 0 -94 -41.5t-67 -107t-24 -138.5q0 -47 14.5 -76.5t52.5 -52.5l42 -26q39 -24 53.5 -45t14.5 -49q0 -41 -30 -79t-85 -67l-21 36q84 52 84 100q0 19 -10.5 32.5
t-39.5 30.5z" />
    <glyph glyph-name="sigma" unicode="&#x3c3;" horiz-adv-x="462" 
d="M188 -13q-69 0 -106 48t-37 137q0 95 31 171.5t83.5 118t116.5 41.5h205l-9 -46h-125q25 -28 39 -73t14 -97q0 -85 -28.5 -155t-76 -107.5t-107.5 -37.5zM344 299q0 54 -12 96.5t-32 61.5h-27q-51 0 -90 -40.5t-60.5 -107.5t-21.5 -139q0 -135 91 -135q46 0 80.5 36
t53 97t18.5 131z" />
    <glyph glyph-name="tau" unicode="&#x3c4;" horiz-adv-x="358" 
d="M177 -4q-70 0 -70 72q0 21 10 73l62 316h-125l9 46h325l-9 -46h-145l-62 -314q-9 -44 -9 -67q0 -34 33 -34q24 0 47 9l11 -37q-36 -18 -77 -18z" />
    <glyph glyph-name="upsilon" unicode="&#x3c5;" horiz-adv-x="422" 
d="M175 -13q-57 0 -87 34t-30 99q0 32 11 90l29 156q9 45 9 63q0 34 -27 34q-13 0 -29 -7l-10 37q29 16 60 16q28 0 44 -19t16 -55q0 -19 -7 -55l-32 -172q-10 -57 -10 -87q0 -45 17 -66t52 -21q68 0 109.5 85.5t41.5 226.5q0 80 -16 157h52q19 -66 19 -158q0 -111 -27 -192
t-74.5 -123.5t-110.5 -42.5z" />
    <glyph glyph-name="phi" unicode="&#x3c6;" horiz-adv-x="598" 
d="M185 -206l38 194q-81 9 -128.5 64t-47.5 144q0 93 36.5 166t99.5 113t143 43l24 121h50l-24 -122q81 -9 128.5 -64t47.5 -144q0 -93 -36.5 -165.5t-99.5 -113t-144 -43.5l-37 -193h-50zM496 306q0 75 -33 118t-95 50l-87 -444q65 2 113.5 39.5t75 100t26.5 136.5z
M103 198q0 -76 33 -119t95 -49l87 444q-66 -3 -114.5 -40t-74.5 -99t-26 -137z" />
    <glyph glyph-name="chi" unicode="&#x3c7;" horiz-adv-x="350" 
d="M142 156l-32 241q-5 36 -13.5 51t-25.5 15q-12 0 -25 -4l-10 38q26 12 50 12q31 0 48.5 -23.5t24.5 -75.5l24 -196l160 289h58l-206 -352l33 -261q4 -31 13 -43.5t25 -12.5q17 0 29 4l5 -41q-22 -9 -50 -9q-30 0 -47 20t-23 64l-27 219l-166 -297h-58z" />
    <glyph glyph-name="psi" unicode="&#x3c8;" horiz-adv-x="570" 
d="M179 -206l37 192q-71 10 -110 57t-39 126q0 28 8 73l24 131q8 40 8 58q0 32 -27 32q-15 0 -29 -7l-10 37q29 16 60 16q28 0 43.5 -17.5t15.5 -49.5q0 -21 -9 -69l-24 -131q-7 -37 -7 -68q0 -60 27 -96.5t78 -44.5l118 606h49l-119 -607q65 4 112 43.5t71.5 108
t24.5 159.5q0 93 -15 160h51q18 -75 18 -161q0 -107 -34 -186.5t-95.5 -123t-141.5 -46.5l-37 -192h-48z" />
    <glyph glyph-name="omega" unicode="&#x3c9;" horiz-adv-x="564" 
d="M131 -10q-47 0 -73 39t-26 111q0 90 37.5 185.5t104.5 177.5h56q-143 -186 -143 -361q0 -51 15 -77.5t44 -26.5q71 0 103 166l27 137h54l-26 -133q-6 -33 -6 -73q0 -48 15 -72.5t43 -24.5q34 0 61 37t42 97t15 130q0 97 -36 201h54q37 -96 37 -202q0 -89 -24 -160.5
t-63.5 -111t-86.5 -39.5q-41 0 -66 32t-28 91q-20 -59 -54 -91t-76 -32z" />
    <glyph glyph-name="iotadieresis" unicode="&#x3ca;" horiz-adv-x="228" 
d="M98 82q0 -38 33 -38q16 0 35 8l10 -39q-31 -17 -60 -17q-73 0 -73 78q0 17 3.5 39t10.5 56l66 334h55l-66 -330q-14 -73 -14 -91zM89 613q-15 0 -24 9t-9 24q0 20 11 33t28 13q15 0 24 -9t9 -24q0 -19 -11 -32.5t-28 -13.5zM261 613q-15 0 -24 9t-9 24q0 20 11 33t28 13
q15 0 24 -9t9 -24q0 -19 -11 -32.5t-28 -13.5z" />
    <glyph glyph-name="upsilondieresis" unicode="&#x3cb;" horiz-adv-x="422" 
d="M175 -13q-57 0 -87 34t-30 99q0 32 11 90l29 156q9 45 9 63q0 34 -27 34q-13 0 -29 -7l-10 37q29 16 60 16q28 0 44 -19t16 -55q0 -19 -7 -55l-32 -172q-10 -57 -10 -87q0 -45 17 -66t52 -21q68 0 109.5 85.5t41.5 226.5q0 80 -16 157h52q19 -66 19 -158q0 -111 -27 -192
t-74.5 -123.5t-110.5 -42.5zM181 613q-15 0 -24 9t-9 24q0 20 11 33t28 13q15 0 24 -9t9 -24q0 -19 -11 -32.5t-28 -13.5zM353 613q-15 0 -24 9t-9 24q0 20 11 33t28 13q15 0 24 -9t9 -24q0 -19 -11 -32.5t-28 -13.5z" />
    <glyph glyph-name="omicrontonos" unicode="&#x3cc;" horiz-adv-x="450" 
d="M258 471q-49 0 -84.5 -43t-55.5 -116.5t-20 -145.5q0 -64 23.5 -98t68.5 -34q49 0 84.5 42.5t55.5 116t20 145.5q0 65 -23.5 99t-68.5 34zM187 -13q-68 0 -106.5 48.5t-38.5 136.5t29.5 172.5t78 129t111.5 44.5q69 0 107.5 -49t38.5 -136q0 -88 -29.5 -172.5t-78 -129
t-112.5 -44.5zM338 766h63l-101 -164h-41z" />
    <glyph glyph-name="upsilontonos" unicode="&#x3cd;" horiz-adv-x="422" 
d="M175 -13q-57 0 -87 34t-30 99q0 32 11 90l29 156q9 45 9 63q0 34 -27 34q-13 0 -29 -7l-10 37q29 16 60 16q28 0 44 -19t16 -55q0 -19 -7 -55l-32 -172q-10 -57 -10 -87q0 -45 17 -66t52 -21q68 0 109.5 85.5t41.5 226.5q0 80 -16 157h52q19 -66 19 -158q0 -111 -27 -192
t-74.5 -123.5t-110.5 -42.5zM306 766h63l-101 -164h-41z" />
    <glyph glyph-name="omegatonos" unicode="&#x3ce;" horiz-adv-x="564" 
d="M131 -10q-47 0 -73 39t-26 111q0 90 37.5 185.5t104.5 177.5h56q-143 -186 -143 -361q0 -51 15 -77.5t44 -26.5q71 0 103 166l27 137h54l-26 -133q-6 -33 -6 -73q0 -48 15 -72.5t43 -24.5q34 0 61 37t42 97t15 130q0 97 -36 201h54q37 -96 37 -202q0 -89 -24 -160.5
t-63.5 -111t-86.5 -39.5q-41 0 -66 32t-28 91q-20 -59 -54 -91t-76 -32zM384 766h63l-101 -164h-41z" />
    <glyph glyph-name="uni03D7" unicode="&#x3d7;" horiz-adv-x="417" 
d="M232 287q23 -71 57 -141t73 -126q-17 -117 -68 -177.5t-132 -60.5q-43 0 -80 16l6 38q37 -11 71 -11q58 0 94.5 43.5t53.5 134.5q-65 101 -115 242l-81 -86l-31 -159h-55l99 503h55l-53 -268l242 268h70z" />
    <glyph glyph-name="uni0400" unicode="&#x400;" horiz-adv-x="456" 
d="M35 0l135 693h323l-10 -49h-265l-51 -260h226l-10 -50h-226l-56 -285h266l-9 -49h-323zM311 769l-72 117h65l56 -117h-49z" />
    <glyph glyph-name="uni0401" unicode="&#x401;" horiz-adv-x="456" 
d="M35 0l135 693h323l-10 -49h-265l-51 -260h226l-10 -50h-226l-56 -285h266l-9 -49h-323zM265 791q-15 0 -24.5 9.5t-9.5 25.5q0 20 11.5 34t28.5 14q15 0 24.5 -9.5t9.5 -25.5q0 -20 -11.5 -34t-28.5 -14zM437 791q-15 0 -24.5 9.5t-9.5 25.5q0 20 11.5 34t28.5 14
q15 0 24.5 -9.5t9.5 -25.5q0 -20 -11.5 -34t-28.5 -14z" />
    <glyph glyph-name="uni0402" unicode="&#x402;" horiz-adv-x="614" 
d="M124 0l125 643h-156l10 50h405l-10 -50h-192l-50 -255q79 38 152 38q72 0 111 -42.5t39 -120.5q0 -84 -28.5 -146.5t-79.5 -95.5t-118 -33q-35 0 -65 12l9 46q26 -9 54 -9q79 0 124 59t45 163q0 118 -107 118q-72 0 -145 -36l-66 -341h-57z" />
    <glyph glyph-name="uni0403" unicode="&#x403;" horiz-adv-x="402" 
d="M35 0l135 693h300l-10 -50h-243l-125 -643h-57zM357 769h-52l98 117h69z" />
    <glyph glyph-name="uni0404" unicode="&#x404;" horiz-adv-x="505" 
d="M444 51q-40 -32 -86.5 -49t-96.5 -17q-88 0 -137.5 65t-49.5 181q0 137 47.5 246t125.5 168.5t170 59.5q67 0 119 -33l-9 -47q-53 28 -111 28q-62 0 -116 -34.5t-93 -96.5t-58 -143h295l-10 -50h-295q-6 -43 -6 -91q0 -97 36.5 -149t103.5 -52q39 0 76.5 14t82.5 46z" />
    <glyph glyph-name="uni0405" unicode="&#x405;" horiz-adv-x="461" 
d="M213 342q-55 35 -79 72t-24 89q0 60 28 106t75 71t105 25q75 0 130 -40l-9 -46q-51 35 -120 35t-110 -39t-41 -105q0 -39 17.5 -66.5t60.5 -54.5l54 -34q50 -32 72 -66.5t22 -83.5q0 -65 -29.5 -115.5t-80 -77.5t-113.5 -27q-93 0 -150 44l9 47q56 -39 141 -39
q73 0 118.5 42.5t45.5 111.5q0 40 -16 67t-54 51z" />
    <glyph glyph-name="uni0406" unicode="&#x406;" horiz-adv-x="225" 
d="M35 0l135 693h57l-135 -693h-57z" />
    <glyph glyph-name="uni0407" unicode="&#x407;" horiz-adv-x="225" 
d="M35 0l135 693h57l-135 -693h-57zM131 791q-15 0 -24.5 9.5t-9.5 25.5q0 20 11.5 34t28.5 14q15 0 24.5 -9.5t9.5 -25.5q0 -20 -11.5 -34t-28.5 -14zM303 791q-15 0 -24.5 9.5t-9.5 25.5q0 20 11.5 34t28.5 14q15 0 24.5 -9.5t9.5 -25.5q0 -20 -11.5 -34t-28.5 -14z" />
    <glyph glyph-name="uni0408" unicode="&#x408;" horiz-adv-x="351" 
d="M298 693h58l-101 -519q-19 -97 -61.5 -143t-112.5 -46q-55 0 -99 28l9 47q42 -23 89 -23q49 0 76.5 34.5t42.5 113.5z" />
    <glyph glyph-name="uni0409" unicode="&#x409;" horiz-adv-x="753" 
d="M456 385h90q73 0 113 -40.5t40 -113.5q0 -70 -29.5 -122.5t-80.5 -80.5t-116 -28h-149l126 643h-149q-45 -185 -80.5 -306t-68.5 -196.5t-68 -110.5t-78 -35q-15 0 -31 6l10 49q8 -2 17 -2q36 0 71 56.5t77 186t99 361.5l10 41h257zM446 337l-56 -289h86q76 0 121 49.5
t45 132.5q0 52 -27.5 79.5t-81.5 27.5h-87z" />
    <glyph glyph-name="uni040A" unicode="&#x40a;" horiz-adv-x="770" 
d="M170 693h57l-61 -313h249l61 313h57l-60 -308h90q73 0 113 -40.5t40 -113.5q0 -70 -29.5 -122.5t-80.5 -80.5t-116 -28h-149l64 330h-249l-64 -330h-57zM463 337l-56 -289h86q76 0 121 49.5t45 132.5q0 52 -27.5 79.5t-81.5 27.5h-87z" />
    <glyph glyph-name="uni040B" unicode="&#x40b;" horiz-adv-x="625" 
d="M124 0l125 643h-156l10 50h405l-10 -50h-192l-50 -256q90 41 174 41q63 0 97 -31t34 -89q0 -30 -9 -77l-45 -231h-57l45 232q8 43 8 64q0 43 -21.5 63t-68.5 20q-78 0 -166 -38l-66 -341h-57z" />
    <glyph glyph-name="uni040C" unicode="&#x40c;" horiz-adv-x="467" 
d="M35 0l135 693h57l-62 -319l299 319h67l-314 -331l202 -362h-65l-193 352l-69 -352h-57zM375 769h-52l98 117h69z" />
    <glyph glyph-name="uni040D" unicode="&#x40d;" horiz-adv-x="587" 
d="M110 107l424 586h55l-135 -693h-54l114 586l-424 -586h-55l135 693h54zM353 769l-72 117h65l56 -117h-49z" />
    <glyph glyph-name="uni040E" unicode="&#x40e;" horiz-adv-x="454" 
d="M73 -15q-21 0 -44 7l10 48q15 -4 33 -4q36 0 65 28t64 99l-107 530h60l84 -470l232 470h62l-276 -534q-50 -97 -90.5 -135.5t-92.5 -38.5zM263 913q-10 -24 -10 -53q0 -25 19 -39t53 -14q48 0 73.5 24.5t36.5 81.5h39q-6 -71 -46 -109t-109 -38q-49 0 -78.5 23.5
t-29.5 62.5q0 33 14 61h38z" />
    <glyph glyph-name="uni040F" unicode="&#x40f;" horiz-adv-x="553" 
d="M201 0h-166l135 693h57l-125 -643h271l125 643h57l-135 -693h-166l-34 -176h-53z" />
    <glyph glyph-name="uni0410" unicode="&#x410;" horiz-adv-x="498" 
d="M375 0l-19 207h-233l-96 -207h-62l337 693h61l71 -693h-59zM146 255h207l-32 374z" />
    <glyph glyph-name="uni0411" unicode="&#x411;" horiz-adv-x="479" 
d="M35 0l135 693h308l-10 -49h-250l-48 -243h97q75 0 116.5 -41.5t41.5 -116.5q0 -73 -30.5 -128.5t-84 -85t-121.5 -29.5h-154zM161 353l-60 -305h91q80 0 128 53t48 142q0 54 -29.5 82t-85.5 28h-92z" />
    <glyph glyph-name="uni0412" unicode="&#x412;" horiz-adv-x="503" 
d="M35 0l135 693h163q66 0 104 -38.5t38 -105.5q0 -48 -15 -87.5t-42 -67t-62 -39.5q42 -14 65 -47t23 -80q0 -67 -29.5 -119t-79 -80.5t-109.5 -28.5h-191zM154 331l-55 -284h133q45 0 80.5 24.5t54.5 66t19 91.5q0 48 -24.5 75t-68.5 27h-139zM216 646l-53 -268h132
q53 0 89 47.5t36 120.5q0 48 -26 74t-72 26h-106z" />
    <glyph glyph-name="uni0413" unicode="&#x413;" horiz-adv-x="402" 
d="M35 0l135 693h300l-10 -50h-243l-125 -643h-57z" />
    <glyph glyph-name="uni0414" unicode="&#x414;" horiz-adv-x="571" 
d="M-12 50h34q54 55 109.5 197t119.5 384l16 62h282l-125 -643h68l-44 -226h-53l34 176h-398l-34 -176h-53zM308 643q-59 -231 -117 -383.5t-109 -209.5h285l116 593h-175z" />
    <glyph glyph-name="uni0415" unicode="&#x415;" horiz-adv-x="456" 
d="M35 0l135 693h323l-10 -49h-265l-51 -260h226l-10 -50h-226l-56 -285h266l-9 -49h-323z" />
    <glyph glyph-name="uni0416" unicode="&#x416;" horiz-adv-x="634" 
d="M-37 0l301 361l-153 332h57l146 -329l64 329h55l-64 -329l262 329h63l-278 -342l156 -351h-60l-147 343l-67 -343h-55l67 343l-281 -343h-66z" />
    <glyph glyph-name="uni0417" unicode="&#x417;" horiz-adv-x="441" 
d="M380 213q0 -68 -30 -120t-82.5 -80t-118.5 -28q-76 0 -140 35l9 47q64 -31 130 -31q79 0 126 49t47 131q0 114 -113 114h-72l10 49h75q64 0 105 45t41 115q0 56 -31 85.5t-90 29.5q-66 0 -127 -39l-12 42q30 23 70 35.5t81 12.5q77 0 122 -42.5t45 -116.5
q0 -72 -38.5 -124t-103.5 -69q48 -11 72.5 -46.5t24.5 -93.5z" />
    <glyph glyph-name="uni0418" unicode="&#x418;" horiz-adv-x="587" 
d="M110 107l424 586h55l-135 -693h-54l114 586l-424 -586h-55l135 693h54z" />
    <glyph glyph-name="uni0419" unicode="&#x419;" horiz-adv-x="587" 
d="M110 107l424 586h55l-135 -693h-54l114 586l-424 -586h-55l135 693h54zM330 913q-10 -24 -10 -53q0 -25 19 -39t53 -14q48 0 73.5 24.5t36.5 81.5h39q-6 -71 -46 -109t-109 -38q-49 0 -78.5 23.5t-29.5 62.5q0 33 14 61h38z" />
    <glyph glyph-name="uni041A" unicode="&#x41a;" horiz-adv-x="472" 
d="M35 0l135 693h57l-62 -319l299 319h67l-314 -331l202 -362h-65l-193 352l-69 -352h-57z" />
    <glyph glyph-name="uni041B" unicode="&#x41b;" horiz-adv-x="543" 
d="M478 643h-177q-45 -185 -80.5 -306t-68.5 -196.5t-68 -110.5t-78 -35q-15 0 -31 6l10 49q8 -2 17 -2q36 0 71 56.5t77 186t99 361.5l10 41h286l-135 -693h-57z" />
    <glyph glyph-name="uni041C" unicode="&#x41c;" horiz-adv-x="672" 
d="M487 0l116 597l-254 -412h-52l-92 418l-118 -603h-52l135 693h64l99 -451l278 451h63l-135 -693h-52z" />
    <glyph glyph-name="uni041D" unicode="&#x41d;" horiz-adv-x="581" 
d="M391 0l64 330h-299l-64 -330h-57l135 693h57l-61 -313h299l61 313h57l-135 -693h-57z" />
    <glyph glyph-name="uni041E" unicode="&#x41e;" horiz-adv-x="625" 
d="M376 654q-75 0 -128.5 -58.5t-84 -158.5t-30.5 -202q0 -96 39.5 -147.5t112.5 -51.5q75 0 128.5 58.5t84 159t30.5 202.5q0 95 -39.5 146.5t-112.5 51.5zM380 705q99 0 153 -66.5t54 -186.5q0 -92 -25 -183.5t-66 -155t-95 -96t-120 -32.5q-99 0 -153 66.5t-54 186.5
q0 92 25 183.5t66 155t95 96t120 32.5z" />
    <glyph glyph-name="uni041F" unicode="&#x41f;" horiz-adv-x="562" 
d="M372 0l125 643h-280l-125 -643h-57l135 693h394l-135 -693h-57z" />
    <glyph glyph-name="uni0420" unicode="&#x420;" horiz-adv-x="484" 
d="M146 283l-55 -283h-56l135 693h153q76 0 119 -42.5t43 -118.5q0 -75 -31 -131.5t-85.5 -87t-123.5 -30.5h-99zM217 644l-61 -312h92q82 0 131 53.5t49 143.5q0 56 -30 85.5t-88 29.5h-93z" />
    <glyph glyph-name="uni0421" unicode="&#x421;" horiz-adv-x="497" 
d="M438 51q-80 -66 -180 -66q-87 0 -135.5 65t-48.5 181q0 137 46.5 246t123 168.5t167.5 59.5q66 0 117 -33l-9 -47q-51 28 -109 28q-80 0 -143.5 -57.5t-98 -151.5t-34.5 -206q0 -97 35 -149t101 -52q38 0 75 14t81 46z" />
    <glyph glyph-name="uni0422" unicode="&#x422;" horiz-adv-x="447" 
d="M145 0l125 642h-175l10 51h409l-10 -51h-177l-125 -642h-57z" />
    <glyph glyph-name="uni0423" unicode="&#x423;" horiz-adv-x="454" 
d="M73 -15q-21 0 -44 7l10 48q15 -4 33 -4q36 0 65 28t64 99l-107 530h60l84 -470l232 470h62l-276 -534q-50 -97 -90.5 -135.5t-92.5 -38.5z" />
    <glyph glyph-name="uni0424" unicode="&#x424;" horiz-adv-x="666" 
d="M400 723h49l-17 -87q91 -5 145.5 -65t54.5 -155q0 -105 -41 -186t-112 -125.5t-160 -46.5l-17 -88h-49l17 88q-90 5 -144.5 65t-54.5 155q0 104 40.5 184.5t111 125.5t160.5 48zM576 419q0 75 -41 120.5t-112 50.5l-95 -486q75 2 131.5 44t86.5 112.5t30 158.5zM127 275
q0 -75 40 -120.5t112 -50.5l95 486q-75 -3 -131 -44.5t-86 -112t-30 -158.5z" />
    <glyph glyph-name="uni0425" unicode="&#x425;" horiz-adv-x="471" 
d="M346 0l-97 312l-219 -312h-66l264 364l-108 329h61l89 -291l201 291h65l-245 -338l117 -355h-62z" />
    <glyph glyph-name="uni0426" unicode="&#x426;" horiz-adv-x="564" 
d="M392 -176l34 176h-391l135 693h57l-125 -643h262l125 643h57l-125 -643h68l-44 -226h-53z" />
    <glyph glyph-name="uni0427" unicode="&#x427;" horiz-adv-x="531" 
d="M341 0l62 315q-38 -20 -85 -31.5t-93 -11.5q-63 0 -95.5 29t-32.5 84q0 35 21 143l32 165h57l-31 -159q-14 -72 -17.5 -95.5t-3.5 -41.5q0 -40 19.5 -57.5t65.5 -17.5q94 0 171 39l65 332h57l-135 -693h-57z" />
    <glyph glyph-name="uni0428" unicode="&#x428;" horiz-adv-x="782" 
d="M170 693h56l-125 -643h223l125 643h56l-125 -643h223l125 643h56l-135 -693h-614z" />
    <glyph glyph-name="uni0429" unicode="&#x429;" horiz-adv-x="788" 
d="M616 -176l34 176h-615l135 693h56l-125 -643h216l125 643h56l-125 -643h216l125 643h56l-125 -643h68l-44 -226h-53z" />
    <glyph glyph-name="uni042A" unicode="&#x42a;" horiz-adv-x="557" 
d="M246 644h-155l10 49h211l-57 -291h93q73 0 114 -42t41 -118q0 -73 -30 -128t-82.5 -84.5t-119.5 -29.5h-151zM246 354l-60 -306h89q77 0 124 52.5t47 140.5q0 55 -28 84t-83 29h-89z" />
    <glyph glyph-name="uni042B" unicode="&#x42b;" horiz-adv-x="634" 
d="M170 693h57l-57 -291h90q72 0 111.5 -42t39.5 -118q0 -73 -29.5 -128t-81 -84.5t-116.5 -29.5h-149zM161 354l-60 -306h87q75 0 120.5 52.5t45.5 140.5q0 55 -27 84t-80 29h-86zM444 0l135 693h57l-135 -693h-57z" />
    <glyph glyph-name="uni042C" unicode="&#x42c;" horiz-adv-x="493" 
d="M35 0l135 693h57l-57 -291h103q79 0 122.5 -42t43.5 -118q0 -73 -32 -128t-87 -84.5t-125 -29.5h-160zM161 354l-60 -306h97q84 0 134 52.5t50 140.5q0 55 -31.5 84t-91.5 29h-98z" />
    <glyph glyph-name="uni042D" unicode="&#x42d;" horiz-adv-x="506" 
d="M142 -15q-79 0 -129 31l9 48q50 -28 119 -28q67 0 122 37t91 103.5t49 152.5h-275l10 50h270q1 10 1.5 21t0.5 22q0 113 -41.5 172.5t-121.5 59.5q-72 0 -140 -48l-14 44q33 25 77 40t84 15q103 0 158.5 -73t55.5 -208q0 -129 -44 -229.5t-118 -155t-164 -54.5z" />
    <glyph glyph-name="uni042E" unicode="&#x42e;" horiz-adv-x="788" 
d="M35 0l135 693h56l-61 -314h130q31 152 101.5 239t168.5 87q87 0 136 -64.5t49 -180.5q0 -91 -23.5 -184.5t-62 -159t-89 -98.5t-110.5 -33q-87 0 -136 64.5t-49 180.5q0 50 7 100h-132l-64 -330h-56zM558 654q-68 0 -116.5 -61.5t-76.5 -165t-28 -202.5q0 -91 34.5 -140
t98.5 -49q68 0 116.5 61.5t76.5 165t28 202.5q0 91 -34.5 140t-98.5 49z" />
    <glyph glyph-name="uni042F" unicode="&#x42f;" horiz-adv-x="485" 
d="M195 311q-45 16 -69.5 54.5t-24.5 93.5q0 107 57 170.5t152 63.5h177l-135 -693h-55l59 302h-109l-211 -302h-67zM160 461q0 -52 27 -81.5t74 -29.5h104l58 294h-110q-72 0 -112.5 -48.5t-40.5 -134.5z" />
    <glyph glyph-name="uni0430" unicode="&#x430;" horiz-adv-x="454" 
d="M138 -13q-48 0 -74 39t-26 113q0 106 36.5 193.5t95.5 136t126 48.5q59 0 125 -33l-95 -484h-46l10 83q-72 -96 -152 -96zM159 35q64 0 139 102l63 319q-34 14 -69 14q-54 0 -100 -47t-71.5 -121t-25.5 -157q0 -110 64 -110z" />
    <glyph glyph-name="uni0431" unicode="&#x431;" horiz-adv-x="470" 
d="M199 -13q-67 0 -104.5 52t-37.5 146q0 147 44 275t114 188q45 39 138 62l144 35l-10 -52l-133 -32q-47 -11 -70.5 -21.5t-42.5 -26.5q-33 -29 -61 -87t-45 -133q31 31 71.5 49t80.5 18q62 0 96.5 -44t34.5 -127q0 -88 -30 -157.5t-79.5 -107t-109.5 -37.5zM272 412
q-77 0 -143 -58q-10 -46 -14 -81.5t-4 -80.5q0 -157 95 -157q45 0 80.5 33.5t55 89.5t19.5 124q0 67 -21.5 98.5t-67.5 31.5z" />
    <glyph glyph-name="uni0432" unicode="&#x432;" horiz-adv-x="431" 
d="M396 416q0 -96 -124 -146q41 -7 64.5 -37t23.5 -75q0 -76 -49.5 -123.5t-129.5 -47.5q-67 0 -104 43.5t-37 123.5q0 105 34 188.5t90 129t123 45.5q50 0 79.5 -27t29.5 -74zM94 217q-3 -30 -3 -61q0 -61 24.5 -92.5t70.5 -31.5q56 0 89 34.5t33 91.5q0 39 -19.5 63
t-56.5 30zM280 472q-63 0 -112.5 -59t-67.5 -157l96 24q73 18 111 51t38 79q0 30 -17 46t-48 16z" />
    <glyph glyph-name="uni0433" unicode="&#x433;" horiz-adv-x="351" 
d="M143 -13q-59 0 -92.5 31t-33.5 87t31.5 96t98.5 70l38 17q53 24 76 50t23 63q0 34 -21 52t-61 18q-58 0 -103 -26l-13 37q50 35 127 35q58 0 91 -30t33 -82q0 -53 -32.5 -91.5t-101.5 -68.5l-41 -18q-91 -40 -91 -117q0 -37 21.5 -57t60.5 -20q59 0 114 33l13 -38
q-25 -20 -61 -30.5t-76 -10.5z" />
    <glyph glyph-name="uni0434" unicode="&#x434;" horiz-adv-x="464" 
d="M255 485q104 0 121 -114q5 35 5 109q0 111 -35.5 163.5t-114.5 58.5l6 47q196 -4 196 -266q0 -154 -30.5 -266t-85.5 -171t-129 -59q-70 0 -109 45.5t-39 128.5t29.5 162t77 120.5t108.5 41.5zM259 437q-50 0 -86 -40t-56.5 -107.5t-20.5 -133.5q0 -59 24.5 -90t71.5 -31
q50 0 86 39.5t56.5 107t20.5 133.5q0 60 -24.5 91t-71.5 31z" />
    <glyph glyph-name="uni0435" unicode="&#x435;" horiz-adv-x="404" 
d="M327 52q-73 -65 -163 -65q-61 0 -92.5 41.5t-31.5 123.5q0 103 35.5 187.5t91.5 131t121 46.5q46 0 71.5 -26t25.5 -74q0 -79 -61.5 -136t-179.5 -87l-50 -13v-21q0 -66 20 -96.5t64 -30.5q31 0 67 15t69 42zM278 472q-42 0 -80.5 -34.5t-64.5 -91.5t-35 -124l49 14
q90 26 137.5 71t47.5 103q0 30 -14 46t-40 16z" />
    <glyph glyph-name="uni0436" unicode="&#x436;" horiz-adv-x="742" 
d="M155 517q46 0 70.5 -39.5t24.5 -113.5q0 -38 -5 -83h104l43 222h51l-43 -222h102q23 106 76 171t117 65q31 0 50 -13l-8 -41q-22 8 -41 8q-45 0 -81 -45.5t-56 -119t-20 -159.5q0 -58 14.5 -86t44.5 -28q27 0 51 15l14 -36q-31 -25 -81 -25q-46 0 -70.5 39.5t-24.5 113.5
q0 53 7 96h-103l-46 -236h-51l46 236h-102q-22 -111 -75.5 -180t-120.5 -69q-30 0 -50 13l8 41q22 -8 41 -8q45 0 81 45.5t56 119t20 159.5q0 58 -14.5 86t-44.5 28q-27 0 -51 -15l-14 36q31 25 81 25z" />
    <glyph glyph-name="uni0437" unicode="&#x437;" horiz-adv-x="372" 
d="M113 -13q-70 0 -116 29l8 42q48 -24 108 -24q61 0 96.5 33.5t35.5 91.5q0 77 -93 77h-59l9 44h58q52 0 84 31.5t32 84.5q0 36 -21 55t-61 19q-52 0 -102 -31l-15 36q24 19 59 30.5t69 11.5q58 0 91.5 -31t33.5 -85q0 -53 -28 -91.5t-75 -51.5q35 -9 54 -35t19 -66
q0 -76 -51.5 -123t-135.5 -47z" />
    <glyph glyph-name="uni0438" unicode="&#x438;" horiz-adv-x="475" 
d="M301 0l13 100q-36 -53 -81 -83t-88 -30q-44 0 -67.5 28t-23.5 81q0 43 21 153l50 254h55l-50 -253q-21 -107 -21 -146q0 -68 57 -68q35 0 76 30t79 84l70 353h55l-99 -503h-46z" />
    <glyph glyph-name="uni0439" unicode="&#x439;" horiz-adv-x="475" 
d="M301 0l13 100q-36 -53 -81 -83t-88 -30q-44 0 -67.5 28t-23.5 81q0 43 21 153l50 254h55l-50 -253q-21 -107 -21 -146q0 -68 57 -68q35 0 76 30t79 84l70 353h55l-99 -503h-46zM295 599q-49 0 -78.5 24.5t-29.5 66.5q0 38 15 67h36q-10 -27 -10 -59q0 -28 18.5 -43.5
t53.5 -15.5q48 0 74.5 28t36.5 90h38q-6 -76 -46 -117t-108 -41z" />
    <glyph glyph-name="uni043A" unicode="&#x43a;" horiz-adv-x="403" 
d="M28 0l98 503h55l-45 -230l226 230h69l-248 -244l167 -259h-64l-155 246l-48 -246h-55z" />
    <glyph glyph-name="uni043B" unicode="&#x43b;" horiz-adv-x="466" 
d="M6 -13q-23 0 -39 8l8 41q7 -2 21 -2q44 0 77 98l51 148q33 94 59.5 144t58 71.5t81.5 21.5q53 0 114 -22l-97 -495h-55l91 464q-28 7 -53 7q-33 0 -54.5 -14t-41.5 -53.5t-53 -134.5l-50 -145q-25 -75 -52 -106t-66 -31z" />
    <glyph glyph-name="uni043C" unicode="&#x43c;" horiz-adv-x="557" 
d="M381 0l82 416l-193 -312h-42l-69 317l-82 -421h-49l98 503h59l74 -346l212 346h57l-98 -503h-49z" />
    <glyph glyph-name="uni043D" unicode="&#x43d;" horiz-adv-x="482" 
d="M300 0l46 235h-217l-46 -235h-55l98 503h55l-43 -220h217l43 220h55l-98 -503h-55z" />
    <glyph glyph-name="uni043E" unicode="&#x43e;" horiz-adv-x="456" 
d="M261 469q-50 0 -86 -43t-56.5 -116t-20.5 -144q0 -64 24.5 -97.5t71.5 -33.5q50 0 86 42.5t56.5 115.5t20.5 144q0 132 -96 132zM190 -13q-70 0 -109 48.5t-39 136.5q0 89 30 173t79 128t113 44q71 0 110 -48.5t39 -136.5q0 -89 -30 -173t-79.5 -128t-113.5 -44z" />
    <glyph glyph-name="uni043F" unicode="&#x43f;" horiz-adv-x="482" 
d="M302 0l50 255q14 70 17.5 95.5t3.5 43.5q0 74 -61 74q-35 0 -77 -29t-82 -81l-70 -358h-55l99 503h46l-12 -94q40 51 85 79.5t87 28.5q47 0 71 -29t24 -85q0 -23 -3.5 -49.5t-17.5 -97.5l-50 -256h-55z" />
    <glyph glyph-name="uni0440" unicode="&#x440;" horiz-adv-x="457" 
d="M-12 -206l139 709h46l-11 -86q37 48 77 74t79 26q47 0 72.5 -42.5t25.5 -118.5q0 -106 -34 -191t-90.5 -131.5t-123.5 -46.5q-45 0 -83 24l-42 -217h-55zM295 469q-31 0 -68.5 -28t-72.5 -77l-61 -311q31 -19 75 -19q55 0 99 43.5t68 115t24 156.5q0 57 -17 88.5
t-47 31.5z" />
    <glyph glyph-name="uni0441" unicode="&#x441;" horiz-adv-x="382" 
d="M317 52q-32 -31 -71 -48t-79 -17q-62 0 -94.5 43t-32.5 124q0 102 36 186t94 130.5t125 46.5q47 0 85 -22l-9 -44q-40 17 -73 17q-57 0 -103.5 -43t-72 -113t-25.5 -152q0 -64 20.5 -94t64.5 -30q55 0 122 55z" />
    <glyph glyph-name="uni0442" unicode="&#x442;" horiz-adv-x="726" 
d="M546 0l50 255q12 65 16 91t4 47q0 39 -14.5 57t-43.5 18q-33 0 -73 -29.5t-77 -81.5q-1 -19 -16 -100l-50 -257h-55l50 255q12 65 15.5 90.5t3.5 47.5q0 39 -13.5 57t-43.5 18q-32 0 -70 -29.5t-76 -82.5l-70 -356h-55l99 503h46l-12 -92q36 50 78.5 78t80.5 28
q45 0 68.5 -29t23.5 -83q37 52 81.5 82t85.5 30q46 0 69.5 -29t23.5 -85q0 -22 -3 -45t-18 -100l-50 -258h-55z" />
    <glyph glyph-name="uni0443" unicode="&#x443;" horiz-adv-x="380" 
d="M-62 -175q51 18 89 51q49 46 98 124l-67 503h56l50 -453q40 75 97 208.5t98 244.5h57q-56 -149 -127 -296t-131 -240q-102 -156 -195 -185z" />
    <glyph glyph-name="uni0444" unicode="&#x444;" horiz-adv-x="624" 
d="M195 -206l48 247q-56 -54 -108 -54q-46 0 -71.5 41.5t-25.5 115.5q0 107 30.5 193t81 133t110.5 47q41 0 71 -24l48 247h52l-54 -278q55 55 109 55q46 0 71.5 -41.5t25.5 -115.5q0 -107 -30.5 -193t-81 -133t-110.5 -47q-40 0 -72 24l-42 -217h-52zM464 469
q-44 0 -95 -48l-72 -371q29 -16 64 -16q48 0 86 44t59 116.5t21 159.5q0 55 -16.5 85t-46.5 30zM324 453q-27 17 -64 17q-48 0 -86 -44t-59 -116.5t-21 -159.5q0 -55 16.5 -85t46.5 -30q44 0 94 47z" />
    <glyph glyph-name="uni0445" unicode="&#x445;" horiz-adv-x="364" 
d="M247 0l-73 218l-149 -218h-63l194 265l-87 238h58l67 -203l138 203h62l-182 -246l93 -257h-58z" />
    <glyph glyph-name="uni0446" unicode="&#x446;" horiz-adv-x="483" 
d="M331 -164l32 163q-52 1 -52 63q0 14 3 38q-36 -53 -81.5 -83t-87.5 -30q-44 0 -67.5 28t-23.5 81q0 43 21 153l50 254h55l-50 -253q-21 -107 -21 -146q0 -68 57 -68q35 0 76 30t79 84l70 353h55l-65 -330q-14 -70 -14 -98q0 -32 30 -32q10 0 25 4l-41 -211h-50z" />
    <glyph glyph-name="uni0447" unicode="&#x447;" horiz-adv-x="443" 
d="M261 0l42 215q-64 -30 -132 -30q-48 0 -75.5 29t-27.5 81q0 36 16 116l18 92h55l-18 -92q-16 -81 -16 -107q0 -38 16.5 -54.5t52.5 -16.5q61 0 119 25l48 245h55l-98 -503h-55z" />
    <glyph glyph-name="uni0448" unicode="&#x448;" horiz-adv-x="697" 
d="M523 0l12 92q-70 -105 -151 -105q-42 0 -64 28t-22 81v5q-73 -114 -158 -114q-42 0 -64 28t-22 81q0 43 21 153l50 254h55l-50 -253q-21 -107 -21 -146q0 -35 12.5 -51.5t39.5 -16.5q64 0 141 112q4 40 17 101l50 254h55l-50 -253q-21 -107 -21 -146q0 -35 12.5 -51.5
t39.5 -16.5q31 0 66 27.5t71 79.5l71 360h55l-99 -503h-46z" />
    <glyph glyph-name="uni0449" unicode="&#x449;" horiz-adv-x="705" 
d="M553 -164l32 163q-52 1 -52 63q0 14 2 30q-70 -105 -151 -105q-42 0 -64 28t-22 81v5q-73 -114 -158 -114q-42 0 -64 28t-22 81q0 43 21 153l50 254h55l-50 -253q-21 -107 -21 -146q0 -35 12.5 -51.5t39.5 -16.5q64 0 141 112q4 38 17 101l50 254h55l-50 -253
q-21 -107 -21 -146q0 -35 12.5 -51.5t39.5 -16.5q31 0 66 27.5t71 79.5l71 360h55l-65 -330q-14 -70 -14 -98q0 -32 30 -32q10 0 25 4l-41 -211h-50z" />
    <glyph glyph-name="uni044A" unicode="&#x44a;" horiz-adv-x="465" 
d="M57 455l9 48h183l-44 -200q51 27 101 27q51 0 81.5 -37.5t30.5 -100.5q0 -58 -25.5 -105.5t-67.5 -73.5t-92 -26q-116 0 -116 123q0 31 13 93l55 252h-128zM286 283q-47 0 -90 -20l-12 -53q-13 -57 -13 -95q0 -43 16.5 -62t52.5 -19t64 21t43 55.5t15 76.5q0 46 -19.5 71
t-56.5 25z" />
    <glyph glyph-name="uni044B" unicode="&#x44b;" horiz-adv-x="566" 
d="M52 110q0 31 13 93l65 300h54l-45 -201q52 28 100 28q50 0 79.5 -37.5t29.5 -100.5q0 -58 -25 -105.5t-66.5 -73.5t-90.5 -26q-114 0 -114 123zM219 283q-47 0 -88 -20l-12 -53q-13 -57 -13 -95q0 -42 16 -61.5t51 -19.5q51 0 85 43.5t34 109.5q0 47 -19 71.5t-54 24.5z
M383 0l98 503h56l-98 -503h-56z" />
    <glyph glyph-name="uni044C" unicode="&#x44c;" horiz-adv-x="405" 
d="M52 110q0 31 13 93l65 300h54l-45 -201q52 28 105 28q52 0 83 -37.5t31 -100.5q0 -58 -26 -105.5t-68.5 -73.5t-92.5 -26q-119 0 -119 123zM224 283q-47 0 -93 -20l-12 -53q-13 -57 -13 -95q0 -43 17.5 -62t54.5 -19q53 0 88.5 43.5t35.5 109.5q0 46 -20 71t-58 25z" />
    <glyph glyph-name="uni044D" unicode="&#x44d;" horiz-adv-x="398" 
d="M91 279h205q2 26 2 42q0 73 -28 111t-82 38q-48 0 -100 -34l-13 37q26 21 58.5 32.5t64.5 11.5q73 0 114 -52t41 -145q0 -100 -33.5 -175.5t-90.5 -116.5t-129 -41q-27 0 -52.5 6.5t-43.5 17.5l8 42q40 -19 82 -19q77 0 128.5 53t68.5 149h-209z" />
    <glyph glyph-name="uni044E" unicode="&#x44e;" horiz-adv-x="629" 
d="M371 -13q-66 0 -102.5 47.5t-36.5 132.5q0 35 5 68h-110l-46 -235h-53l99 503h53l-44 -221h109q24 109 77 172t125 63q66 0 102.5 -47.5t36.5 -132.5q0 -66 -18 -135t-47 -117t-67 -73t-83 -25zM441 469q-46 0 -80.5 -45t-54.5 -119t-20 -141q0 -129 89 -129
q46 0 80.5 45t54.5 119t20 141q0 129 -89 129z" />
    <glyph glyph-name="uni044F" unicode="&#x44f;" horiz-adv-x="419" 
d="M-21 0l168 221q-35 14 -54 46.5t-19 76.5q0 77 49 125t128 48q71 0 139 -27l-96 -490h-53l41 211h-87l-154 -211h-62zM130 345q0 -44 23.5 -67.5t67.5 -23.5h70l40 206q-39 11 -76 11q-58 0 -91.5 -33.5t-33.5 -92.5z" />
    <glyph glyph-name="uni0450" unicode="&#x450;" horiz-adv-x="404" 
d="M327 52q-73 -65 -163 -65q-61 0 -92.5 41.5t-31.5 123.5q0 103 35.5 187.5t91.5 131t121 46.5q46 0 71.5 -26t25.5 -74q0 -79 -61.5 -136t-179.5 -87l-50 -13v-21q0 -66 20 -96.5t64 -30.5q31 0 67 15t69 42zM278 472q-42 0 -80.5 -34.5t-64.5 -91.5t-35 -124l49 14
q90 26 137.5 71t47.5 103q0 30 -14 46t-40 16zM255 602l-64 152h62l47 -152h-45z" />
    <glyph glyph-name="uni0451" unicode="&#x451;" horiz-adv-x="404" 
d="M327 52q-73 -65 -163 -65q-61 0 -92.5 41.5t-31.5 123.5q0 103 35.5 187.5t91.5 131t121 46.5q46 0 71.5 -26t25.5 -74q0 -79 -61.5 -136t-179.5 -87l-50 -13v-21q0 -66 20 -96.5t64 -30.5q31 0 67 15t69 42zM278 472q-42 0 -80.5 -34.5t-64.5 -91.5t-35 -124l49 14
q90 26 137.5 71t47.5 103q0 30 -14 46t-40 16zM216 613q-15 0 -24 9t-9 24q0 20 11 33t28 13q15 0 24 -9t9 -24q0 -19 -11 -32.5t-28 -13.5zM388 613q-15 0 -24 9t-9 24q0 20 11 33t28 13q15 0 24 -9t9 -24q0 -19 -11 -32.5t-28 -13.5z" />
    <glyph glyph-name="uni0452" unicode="&#x452;" horiz-adv-x="482" 
d="M206 577l-47 -245q40 51 82 78t81 27q45 0 69 -41.5t24 -118.5q0 -134 -36.5 -250t-94 -180.5t-124.5 -64.5q-29 0 -49 10l8 42q17 -4 39 -4q56 0 102 65.5t72.5 166.5t26.5 205q0 121 -56 121q-35 0 -75 -28t-80 -81l-54 -279h-55l112 577h-73l8 41h73l24 122h55
l-24 -122h148l-8 -41h-148z" />
    <glyph glyph-name="uni0453" unicode="&#x453;" horiz-adv-x="351" 
d="M143 -13q-59 0 -92.5 31t-33.5 87t31.5 96t98.5 70l38 17q53 24 76 50t23 63q0 34 -21 52t-61 18q-58 0 -103 -26l-13 37q50 35 127 35q58 0 91 -30t33 -82q0 -53 -32.5 -91.5t-101.5 -68.5l-41 -18q-91 -40 -91 -117q0 -37 21.5 -57t60.5 -20q59 0 114 33l13 -38
q-25 -20 -61 -30.5t-76 -10.5zM188 602l104 152h66l-121 -152h-49z" />
    <glyph glyph-name="uni0454" unicode="&#x454;" horiz-adv-x="394" 
d="M102 236q-6 -37 -6 -76q0 -64 22 -94t68 -30q57 0 127 55l14 -39q-33 -31 -74 -48t-82 -17q-64 0 -97.5 43t-33.5 124q0 102 37.5 186t97.5 130.5t129 46.5q49 0 88 -22l-9 -44q-42 17 -76 17q-64 0 -117.5 -52t-77.5 -137h217l-8 -43h-219z" />
    <glyph glyph-name="uni0455" unicode="&#x455;" horiz-adv-x="339" 
d="M124 371q0 -24 11 -42t37 -36l49 -35q33 -24 48 -50t15 -59q0 -71 -44.5 -116.5t-113.5 -45.5q-73 0 -125 37l8 42q52 -33 115 -33q48 0 77 29.5t29 77.5q0 45 -46 78l-49 35q-35 25 -50 51t-15 60q0 67 43 110t112 43q57 0 105 -30l-8 -42q-46 26 -96 26
q-47 0 -74.5 -27t-27.5 -73z" />
    <glyph glyph-name="uni0456" unicode="&#x456;" horiz-adv-x="217" 
d="M181 616q-16 0 -26 9t-10 25q0 22 11.5 35t30.5 13q16 0 26 -9t10 -25q0 -22 -11.5 -35t-30.5 -13zM130 503h55l-98 -503h-55z" />
    <glyph glyph-name="uni0457" unicode="&#x457;" horiz-adv-x="217" 
d="M130 503h55l-98 -503h-55zM92 613q-15 0 -24 9t-9 24q0 20 11 33t28 13q15 0 24 -9t9 -24q0 -19 -11 -32.5t-28 -13.5zM264 613q-15 0 -24 9t-9 24q0 20 11 33t28 13q15 0 24 -9t9 -24q0 -19 -11 -32.5t-28 -13.5z" />
    <glyph glyph-name="uni0458" unicode="&#x458;" horiz-adv-x="217" 
d="M185 503l-113 -578q-15 -78 -41 -110.5t-74 -32.5q-28 0 -56 15l7 41q17 -8 42 -8q19 0 31 8.5t20.5 28.5t15.5 58l113 578h55zM181 616q-16 0 -26 9t-10 25q0 22 11.5 35t30.5 13q16 0 26 -9t10 -25q0 -22 -11.5 -35t-30.5 -13z" />
    <glyph glyph-name="uni0459" unicode="&#x459;" horiz-adv-x="633" 
d="M124 124q-25 -75 -52 -106t-66 -31q-23 0 -39 8l8 41q7 -2 21 -2q22 0 40.5 23.5t36.5 74.5l51 148q33 94 59.5 144t58 71.5t81.5 21.5q44 0 100 -17l-43 -197q51 27 98 27q49 0 78.5 -37.5t29.5 -100.5q0 -58 -25 -105.5t-66 -73.5t-90 -26q-113 0 -113 123q0 31 13 93
l57 264q-10 2 -20 3t-19 1q-33 0 -54.5 -14t-41.5 -53.5t-53 -134.5zM458 283q-44 0 -87 -20l-12 -53q-13 -57 -13 -95q0 -43 15.5 -62t50.5 -19q51 0 84.5 43.5t33.5 109.5q0 46 -18.5 71t-53.5 25z" />
    <glyph glyph-name="uni045A" unicode="&#x45a;" horiz-adv-x="624" 
d="M83 0h-55l98 503h55l-43 -221h175l48 221h54l-44 -200q50 27 98 27q49 0 78.5 -37.5t29.5 -100.5q0 -58 -25 -105.5t-66 -73.5t-90 -26q-113 0 -113 123q0 31 13 93l7 33h-174zM449 283q-46 0 -87 -20l-12 -53q-13 -57 -13 -95q0 -43 15.5 -62t50.5 -19q51 0 84.5 43.5
t33.5 109.5q0 46 -18.5 71t-53.5 25z" />
    <glyph glyph-name="uni045B" unicode="&#x45b;" horiz-adv-x="492" 
d="M368 314q0 74 -61 74q-35 0 -77 -29t-82 -81l-54 -278h-55l112 577h-73l8 41h73l24 122h55l-24 -122h148l-8 -41h-148l-47 -245q40 50 84 77.5t85 27.5q47 0 71 -29t24 -85q0 -22 -4 -49t-17 -98l-34 -176h-55l34 175q14 70 17.5 95.5t3.5 43.5z" />
    <glyph glyph-name="uni045C" unicode="&#x45c;" horiz-adv-x="403" 
d="M28 0l98 503h55l-45 -230l226 230h69l-248 -244l167 -259h-64l-155 246l-48 -246h-55zM257 602l104 152h66l-121 -152h-49z" />
    <glyph glyph-name="uni045D" unicode="&#x45d;" horiz-adv-x="475" 
d="M301 0l13 100q-36 -53 -81 -83t-88 -30q-44 0 -67.5 28t-23.5 81q0 43 21 153l50 254h55l-50 -253q-21 -107 -21 -146q0 -68 57 -68q35 0 76 30t79 84l70 353h55l-99 -503h-46zM261 602l-64 152h62l47 -152h-45z" />
    <glyph glyph-name="uni045E" unicode="&#x45e;" horiz-adv-x="380" 
d="M-62 -175q51 18 89 51q49 46 98 124l-67 503h56l50 -453q40 75 97 208.5t98 244.5h57q-56 -149 -127 -296t-131 -240q-102 -156 -195 -185zM243 599q-49 0 -78.5 24.5t-29.5 66.5q0 38 15 67h36q-10 -27 -10 -59q0 -28 18.5 -43.5t53.5 -15.5q48 0 74.5 28t36.5 90h38
q-6 -76 -46 -117t-108 -41z" />
    <glyph glyph-name="uni045F" unicode="&#x45f;" horiz-adv-x="475" 
d="M301 0l13 100q-36 -53 -81 -83t-88 -30q-44 0 -67.5 28t-23.5 81q0 43 21 153l50 254h55l-50 -253q-21 -107 -21 -146q0 -68 57 -68q35 0 76 30t79 84l70 353h55l-99 -503h-46zM116 -222l35 154h43l-26 -154h-52z" />
    <glyph glyph-name="uni0462" unicode="&#x462;" horiz-adv-x="532" 
d="M251 558l-33 -172h97q77 0 120 -40.5t43 -113.5q0 -70 -31 -123t-84.5 -81t-121.5 -28h-155l109 558h-114l10 49h113l24 121h57l-24 -121h172l-10 -49h-172zM208 338l-56 -290h92q81 0 129 50t48 133q0 52 -30.5 79.5t-88.5 27.5h-94z" />
    <glyph glyph-name="uni0463" unicode="&#x463;" horiz-adv-x="616" 
d="M375 407q0 -36 -13 -105q49 28 99 28q49 0 78.5 -37.5t29.5 -100.5q0 -58 -25 -105.5t-66 -73.5t-90 -26q-113 0 -113 123q0 31 13 93q17 78 24.5 122.5t7.5 72.5q0 36 -11.5 53t-35.5 17q-52 0 -120 -92l-74 -376h-55l99 503h46l-10 -77q32 44 67 67.5t68 23.5
q81 0 81 -110zM342 210q-13 -57 -13 -95q0 -43 15.5 -62t50.5 -19q51 0 84.5 43.5t33.5 109.5q0 46 -18.5 71t-53.5 25q-46 0 -87 -20q-7 -28 -12 -53z" />
    <glyph glyph-name="uni0472" unicode="&#x472;" horiz-adv-x="625" 
d="M380 705q99 0 153 -66.5t54 -186.5q0 -92 -25 -183.5t-66 -155t-95 -96t-120 -32.5q-99 0 -153 66.5t-54 186.5q0 92 25 183.5t66 155t95 96t120 32.5zM283 36q87 0 148 78t86 214h-379q-7 -46 -7 -93q0 -96 39.5 -147.5t112.5 -51.5zM378 654q-83 0 -143.5 -72.5
t-88.5 -203.5h379q5 45 5 78q0 95 -39.5 146.5t-112.5 51.5z" />
    <glyph glyph-name="uni0473" unicode="&#x473;" horiz-adv-x="456" 
d="M190 -13q-70 0 -109 48.5t-39 136.5q0 89 30 173t79 128t113 44q71 0 110 -48.5t39 -136.5q0 -89 -30 -173t-79.5 -128t-113.5 -44zM194 35q37 0 67.5 24t52.5 69.5t34 106.5h-247q-5 -31 -5 -69q0 -65 25 -98t73 -33zM261 469q-54 0 -93 -50t-60 -142h247q4 29 4 60
q0 132 -98 132z" />
    <glyph glyph-name="uni0474" unicode="&#x474;" horiz-adv-x="510" 
d="M169 0l-68 693h59l52 -626l238 535q26 58 51.5 79t69.5 21q21 0 36 -6l-9 -47q-14 2 -23 2q-25 0 -40 -13.5t-32 -51.5l-273 -586h-61z" />
    <glyph glyph-name="uni0475" unicode="&#x475;" horiz-adv-x="410" 
d="M115 0l-56 503h56l39 -441l163 355q24 52 47 72.5t58 20.5q19 0 35 -7l-9 -44q-9 3 -19 3q-20 0 -32.5 -11.5t-28.5 -44.5l-200 -406h-53z" />
    <glyph glyph-name="uni0490" unicode="&#x490;" horiz-adv-x="402" 
d="M35 0l135 693h249l25 131h51l-35 -181h-243l-125 -643h-57z" />
    <glyph glyph-name="uni0491" unicode="&#x491;" horiz-adv-x="339" 
d="M28 0l99 503h192l23 122h48l-33 -172h-185l-89 -453h-55z" />
    <glyph glyph-name="Wgrave" unicode="&#x1e80;" horiz-adv-x="727" 
d="M427 0l1 598l-232 -598h-65l-25 693h59l12 -623l230 596h68l-1 -593l253 620h64l-299 -693h-65zM416 769l-72 117h65l56 -117h-49z" />
    <glyph glyph-name="wgrave" unicode="&#x1e81;" horiz-adv-x="567" 
d="M328 0l-10 439l-172 -439h-56l-30 503h55l16 -441l171 441h56l11 -448q46 95 94 218t81 230h57q-36 -111 -97 -252t-120 -251h-56zM303 602l-64 152h62l47 -152h-45z" />
    <glyph glyph-name="Wacute" unicode="&#x1e82;" horiz-adv-x="727" 
d="M427 0l1 598l-232 -598h-65l-25 693h59l12 -623l230 596h68l-1 -593l253 620h64l-299 -693h-65zM469 769h-52l98 117h69z" />
    <glyph glyph-name="wacute" unicode="&#x1e83;" horiz-adv-x="567" 
d="M328 0l-10 439l-172 -439h-56l-30 503h55l16 -441l171 441h56l11 -448q46 95 94 218t81 230h57q-36 -111 -97 -252t-120 -251h-56zM306 602l104 152h66l-121 -152h-49z" />
    <glyph glyph-name="Wdieresis" unicode="&#x1e84;" horiz-adv-x="727" 
d="M427 0l1 598l-232 -598h-65l-25 693h59l12 -623l230 596h68l-1 -593l253 620h64l-299 -693h-65zM370 791q-15 0 -24.5 9.5t-9.5 25.5q0 20 11.5 34t28.5 14q15 0 24.5 -9.5t9.5 -25.5q0 -20 -11.5 -34t-28.5 -14zM542 791q-15 0 -24.5 9.5t-9.5 25.5q0 20 11.5 34
t28.5 14q15 0 24.5 -9.5t9.5 -25.5q0 -20 -11.5 -34t-28.5 -14z" />
    <glyph glyph-name="wdieresis" unicode="&#x1e85;" horiz-adv-x="567" 
d="M328 0l-10 439l-172 -439h-56l-30 503h55l16 -441l171 441h56l11 -448q46 95 94 218t81 230h57q-36 -111 -97 -252t-120 -251h-56zM264 613q-15 0 -24 9t-9 24q0 20 11 33t28 13q15 0 24 -9t9 -24q0 -19 -11 -32.5t-28 -13.5zM436 613q-15 0 -24 9t-9 24q0 20 11 33
t28 13q15 0 24 -9t9 -24q0 -19 -11 -32.5t-28 -13.5z" />
    <glyph glyph-name="uni1E9E" unicode="&#x1e9e;" horiz-adv-x="548" 
d="M182 56q44 -22 97 -22q47 0 83.5 25.5t56 69t19.5 96.5q0 55 -26.5 84.5t-74.5 29.5q-31 0 -55 -6l8 42l174 254q-49 27 -104 27q-73 0 -118.5 -49.5t-65.5 -150.5l-89 -456h-57l88 452q49 253 246 253q41 0 81 -13t72 -37l-9 -44l-159 -230q5 1 11 1h11q55 0 89 -42.5
t34 -111.5q0 -71 -29 -126.5t-77.5 -86t-107.5 -30.5q-30 0 -58.5 7t-48.5 19z" />
    <glyph glyph-name="Ygrave" unicode="&#x1ef2;" horiz-adv-x="467" 
d="M154 0l50 253l-100 440h59l78 -390l230 390h63l-275 -443l-49 -250h-56zM296 769l-72 117h65l56 -117h-49z" />
    <glyph glyph-name="ygrave" unicode="&#x1ef3;" horiz-adv-x="380" 
d="M-62 -175q51 18 89 51q49 46 98 124l-67 503h56l50 -453q40 75 97 208.5t98 244.5h57q-56 -149 -127 -296t-131 -240q-102 -156 -195 -185zM209 602l-64 152h62l47 -152h-45z" />
    <glyph glyph-name="uni2000" unicode="&#x2000;" horiz-adv-x="500" 
 />
    <glyph glyph-name="uni2001" unicode="&#x2001;" horiz-adv-x="1000" 
 />
    <glyph glyph-name="uni2002" unicode="&#x2002;" horiz-adv-x="500" 
 />
    <glyph glyph-name="uni2003" unicode="&#x2003;" horiz-adv-x="1000" 
 />
    <glyph glyph-name="uni2004" unicode="&#x2004;" horiz-adv-x="333" 
 />
    <glyph glyph-name="uni2005" unicode="&#x2005;" horiz-adv-x="250" 
 />
    <glyph glyph-name="uni2006" unicode="&#x2006;" horiz-adv-x="167" 
 />
    <glyph glyph-name="uni2007" unicode="&#x2007;" 
 />
    <glyph glyph-name="uni2008" unicode="&#x2008;" horiz-adv-x="202" 
 />
    <glyph glyph-name="uni2009" unicode="&#x2009;" horiz-adv-x="200" 
 />
    <glyph glyph-name="uni200A" unicode="&#x200a;" horiz-adv-x="62" 
 />
    <glyph glyph-name="uni200B" unicode="&#x200b;" horiz-adv-x="0" 
 />
    <glyph glyph-name="uni2010" unicode="&#x2010;" horiz-adv-x="335" 
d="M46 234l10 50h235l-10 -50h-235z" />
    <glyph glyph-name="uni2012" unicode="&#x2012;" 
d="M56 328l9 47h400l-9 -47h-400z" />
    <glyph glyph-name="endash" unicode="&#x2013;" horiz-adv-x="400" 
d="M-4 235l9 47h400l-9 -47h-400z" />
    <glyph glyph-name="emdash" unicode="&#x2014;" horiz-adv-x="800" 
d="M-4 235l9 47h800l-9 -47h-800z" />
    <glyph glyph-name="uni2015" unicode="&#x2015;" horiz-adv-x="800" 
d="M-4 235l9 47h800l-9 -47h-800z" />
    <glyph glyph-name="quoteleft" unicode="&#x2018;" horiz-adv-x="202" 
d="M156 474h-26q-24 0 -24 19q0 13 18 52l66 148h38z" />
    <glyph glyph-name="quoteright" unicode="&#x2019;" horiz-adv-x="202" 
d="M174 693h26q24 0 24 -19q0 -13 -18 -52l-66 -148h-38z" />
    <glyph glyph-name="quotesinglbase" unicode="&#x201a;" horiz-adv-x="202" 
d="M55 84h26q24 0 24 -19q0 -13 -18 -52l-66 -148h-38z" />
    <glyph glyph-name="uni201B" unicode="&#x201b;" horiz-adv-x="202" 
d="M149 474l-9 138q-2 26 -2 42q0 21 8.5 30t26.5 9h24l-11 -219h-37z" />
    <glyph glyph-name="quotedblleft" unicode="&#x201c;" horiz-adv-x="322" 
d="M156 474h-26q-24 0 -24 19q0 13 18 52l66 148h38zM276 474h-26q-24 0 -24 19q0 13 18 52l66 148h38z" />
    <glyph glyph-name="quotedblright" unicode="&#x201d;" horiz-adv-x="322" 
d="M174 693h26q24 0 24 -19q0 -13 -18 -52l-66 -148h-38zM294 693h26q24 0 24 -19q0 -13 -18 -52l-66 -148h-38z" />
    <glyph glyph-name="quotedblbase" unicode="&#x201e;" horiz-adv-x="322" 
d="M55 84h26q24 0 24 -19q0 -13 -18 -52l-66 -148h-38zM175 85h26q24 0 24 -19q0 -13 -18 -52l-66 -148h-38z" />
    <glyph glyph-name="uni201F" unicode="&#x201f;" horiz-adv-x="321" 
d="M149 474l-9 138q-2 26 -2 42q0 21 8.5 30t26.5 9h24l-11 -219h-37zM268 474l-9 138q-2 26 -2 42q0 21 8.5 30t26.5 9h24l-11 -219h-37z" />
    <glyph glyph-name="dagger" unicode="&#x2020;" horiz-adv-x="380" 
d="M87 -126l121 601l-136 -4l9 48l136 -5l40 226h58l-49 -226l137 5l-9 -48l-137 4l-112 -601h-58z" />
    <glyph glyph-name="daggerdbl" unicode="&#x2021;" horiz-adv-x="380" 
d="M192 139l137 4l-9 -48l-137 5l-40 -226h-58l49 226l-136 -5l9 48l136 -4l29 168l36 168l-136 -4l9 48l136 -5l40 226h58l-49 -226l137 5l-9 -48l-137 4l-28 -168z" />
    <glyph glyph-name="bullet" unicode="&#x2022;" horiz-adv-x="295" 
d="M137 143q-44 0 -71.5 27.5t-27.5 72.5q0 56 35 94t86 38q44 0 71.5 -27.5t27.5 -72.5q0 -56 -35 -94t-86 -38z" />
    <glyph glyph-name="ellipsis" unicode="&#x2026;" horiz-adv-x="807" 
d="M88 -7q-16 0 -26 10t-10 28q0 22 13 36.5t32 14.5q16 0 26 -10t10 -28q0 -22 -13 -36.5t-32 -14.5zM356 -7q-16 0 -26 10t-10 28q0 22 13 36.5t32 14.5q16 0 26 -10t10 -28q0 -22 -13 -36.5t-32 -14.5zM624 -7q-16 0 -26 10t-10 28q0 22 13 36.5t32 14.5q16 0 26 -10
t10 -28q0 -22 -13 -36.5t-32 -14.5z" />
    <glyph glyph-name="perthousand" unicode="&#x2030;" horiz-adv-x="1118" 
d="M193 0l387 693h49l-387 -693h-49zM575 -8q-49 0 -75 33.5t-26 96.5q0 68 22 134.5t57.5 101t82.5 34.5q48 0 74.5 -33.5t26.5 -95.5q0 -68 -21.5 -134.5t-57.5 -101.5t-83 -35zM633 352q-35 0 -59.5 -34t-39 -91.5t-14.5 -107.5q0 -87 58 -87q35 0 59.5 34t39 91.5
t14.5 107.5q0 87 -58 87zM903 -8q-49 0 -75 33.5t-26 96.5q0 68 22 134.5t57.5 101t82.5 34.5q48 0 74.5 -33.5t26.5 -95.5q0 -68 -21.5 -134.5t-57.5 -101.5t-83 -35zM961 352q-35 0 -59.5 -34t-39 -91.5t-14.5 -107.5q0 -87 58 -87q35 0 59.5 34t39 91.5t14.5 107.5
q0 87 -58 87zM186 301q-49 0 -75 33.5t-26 96.5q0 68 22 134.5t57.5 101t82.5 34.5q48 0 74.5 -33.5t26.5 -95.5q0 -68 -21.5 -134.5t-57.5 -101.5t-83 -35zM244 661q-35 0 -59.5 -34t-39 -91.5t-14.5 -107.5q0 -87 58 -87q35 0 59.5 34t39 91.5t14.5 107.5q0 87 -58 87z
" />
    <glyph glyph-name="minute" unicode="&#x2032;" horiz-adv-x="211" 
d="M141 476h-41l97 217q16 8 33 8q18 0 29 -8z" />
    <glyph glyph-name="second" unicode="&#x2033;" horiz-adv-x="334" 
d="M141 476h-41l97 217q16 8 33 8q18 0 29 -8zM264 476h-41l97 217q16 8 33 8q18 0 29 -8z" />
    <glyph glyph-name="guilsinglleft" unicode="&#x2039;" horiz-adv-x="260" 
d="M116 51l-67 208l144 208h56l-145 -212l64 -204h-52z" />
    <glyph glyph-name="guilsinglright" unicode="&#x203a;" horiz-adv-x="260" 
d="M146 467l67 -208l-144 -208h-56l144 211l-63 205h52z" />
    <glyph glyph-name="uni203D" unicode="&#x203d;" horiz-adv-x="371" 
d="M199 376q67 39 104 89.5t37 103.5q0 41 -22.5 63.5t-63.5 22.5q-60 0 -117 -44l-7 45q61 50 135 50q59 0 94.5 -35.5t35.5 -94.5q0 -72 -53 -136.5t-153 -114.5l-28 -133h-45l64 351q14 9 30 9q14 0 25 -8zM107 -7q-16 0 -26 10t-10 28q0 22 13 36.5t32 14.5q16 0 26 -10
t10 -28q0 -22 -13 -36.5t-32 -14.5z" />
    <glyph glyph-name="fraction" unicode="&#x2044;" horiz-adv-x="118" 
d="M-141 0l387 693h49l-387 -693h-49z" />
    <glyph glyph-name="uni2052" unicode="&#x2052;" 
d="M4 -144l433 897h60l-433 -897h-60zM282 -145q-16 0 -26 10t-10 28q0 22 13 36.5t33 14.5q16 0 26 -10t10 -28q0 -22 -13 -36.5t-33 -14.5zM209 666q-16 0 -26 10t-10 28q0 22 13 36.5t33 14.5q16 0 26 -10t10 -28q0 -22 -13 -36.5t-33 -14.5z" />
    <glyph glyph-name="uni2070" unicode="&#x2070;" horiz-adv-x="336" 
d="M202 382q-49 0 -75 33.5t-26 96.5q0 68 22 134.5t57.5 101t82.5 34.5q48 0 74.5 -33.5t26.5 -95.5q0 -68 -21.5 -134.5t-57.5 -101.5t-83 -35zM260 742q-35 0 -59.5 -34t-39 -91.5t-14.5 -107.5q0 -87 58 -87q35 0 59.5 34t39 91.5t14.5 107.5q0 87 -58 87z" />
    <glyph glyph-name="uni2074" unicode="&#x2074;" horiz-adv-x="336" 
d="M241 390l16 83h-172l7 35l222 266h42l-52 -263h48l-8 -38h-47l-16 -83h-40zM264 511l39 200l-167 -200h128z" />
    <glyph glyph-name="uni2075" unicode="&#x2075;" horiz-adv-x="336" 
d="M225 733l-32 -121q23 6 48 6q42 0 67 -26.5t25 -70.5q0 -61 -40 -100t-101 -39q-52 0 -89 24l7 36q33 -20 82 -20q43 0 69.5 26t26.5 68q0 66 -75 66q-27 0 -66 -6l5 27l45 171h169l-8 -41h-133z" />
    <glyph glyph-name="uni2076" unicode="&#x2076;" horiz-adv-x="336" 
d="M361 725q-29 17 -64 17q-50 0 -86 -40.5t-50 -111.5q49 36 93 36q40 0 62.5 -26t22.5 -72q0 -42 -17.5 -75.5t-46 -52t-62.5 -18.5q-47 0 -74 35.5t-27 97.5q0 77 25.5 138.5t67.5 95t92 33.5q39 0 71 -20zM240 586q-42 0 -83 -29q-1 -10 -1.5 -20t-0.5 -21q0 -46 16 -70
t46 -24q33 0 55.5 29t22.5 72q0 63 -55 63z" />
    <glyph glyph-name="uni2077" unicode="&#x2077;" horiz-adv-x="336" 
d="M126 390l201 343h-178l8 41h225l-7 -36l-201 -348h-48z" />
    <glyph glyph-name="uni2078" unicode="&#x2078;" horiz-adv-x="336" 
d="M103 472q0 77 103 121q-26 18 -37.5 37t-11.5 44q0 46 34.5 77t85.5 31q41 0 66 -22t25 -58q0 -35 -23.5 -65t-67.5 -50l3 -2q33 -22 46.5 -42.5t13.5 -48.5q0 -46 -38 -79t-92 -33q-48 0 -77.5 25t-29.5 65zM231 577q-85 -37 -85 -99q0 -27 18.5 -43t49.5 -16
q34 0 59 22t25 52q0 22 -10.5 37.5t-34.5 31.5zM199 674q0 -20 10 -34.5t32 -28.5l13 -9q72 35 72 93q0 23 -14 36.5t-39 13.5q-32 0 -53 -20t-21 -51z" />
    <glyph glyph-name="uni2079" unicode="&#x2079;" horiz-adv-x="336" 
d="M180 422q44 0 76.5 38t45.5 103q-41 -33 -84 -33q-40 0 -64.5 29t-24.5 77q0 42 17 75.5t45 52t62 18.5q48 0 74 -35t26 -100q0 -78 -23.5 -139t-63 -93.5t-88.5 -32.5q-48 0 -79 28l6 35q32 -23 75 -23zM233 570q38 0 74 28q3 23 3 48q0 96 -61 96q-33 0 -54.5 -29.5
t-21.5 -73.5q0 -69 60 -69z" />
    <glyph glyph-name="uni207A" unicode="&#x207a;" horiz-adv-x="336" 
d="M248 566l-21 -106h-38l20 106h-93l8 38h93l20 105h39l-21 -105h93l-7 -38h-93z" />
    <glyph glyph-name="uni207B" unicode="&#x207b;" horiz-adv-x="336" 
d="M116 566l8 38h224l-7 -38h-225z" />
    <glyph glyph-name="uni207C" unicode="&#x207c;" horiz-adv-x="336" 
d="M103 496l8 38h224l-7 -38h-225zM129 636l8 38h224l-7 -38h-225z" />
    <glyph glyph-name="uni207D" unicode="&#x207d;" horiz-adv-x="176" 
d="M127 333q-25 78 -25 154q0 185 117 344h46q-119 -160 -119 -349q0 -81 22 -149h-41z" />
    <glyph glyph-name="uni207E" unicode="&#x207e;" horiz-adv-x="176" 
d="M176 831q25 -78 25 -154q0 -92 -30 -179.5t-87 -164.5h-46q59 78 89 166.5t30 182.5q0 81 -22 149h41z" />
    <glyph glyph-name="uni207F" unicode="&#x207f;" horiz-adv-x="341" 
d="M278 390l38 197q15 75 15 99q0 28 -11 42.5t-31 14.5q-26 0 -57 -19t-60 -54l-54 -280h-43l75 384h36l-8 -65q28 35 62 54t66 19q33 0 51 -23t18 -66q0 -29 -16 -109l-38 -194h-43z" />
    <glyph glyph-name="uni2080" unicode="&#x2080;" horiz-adv-x="336" 
d="M106 -112q-49 0 -75 33.5t-26 96.5q0 68 22 134.5t57.5 101t82.5 34.5q48 0 74.5 -33.5t26.5 -95.5q0 -68 -21.5 -134.5t-57.5 -101.5t-83 -35zM164 248q-35 0 -59.5 -34t-39 -91.5t-14.5 -107.5q0 -87 58 -87q35 0 59.5 34t39 91.5t14.5 107.5q0 87 -58 87z" />
    <glyph glyph-name="uni2081" unicode="&#x2081;" horiz-adv-x="336" 
d="M111 -104l65 336l-108 -49l8 41l115 56h39l-75 -384h-44z" />
    <glyph glyph-name="uni2082" unicode="&#x2082;" horiz-adv-x="336" 
d="M257 199q0 -27 -13.5 -55.5t-49.5 -70t-134 -136.5h159l-8 -41h-216l7 36q92 89 133.5 133t58.5 72.5t17 54.5t-15.5 40.5t-43.5 14.5q-48 0 -88 -36l-7 36q47 41 107 41q42 0 67.5 -24.5t25.5 -64.5z" />
    <glyph glyph-name="uni2083" unicode="&#x2083;" horiz-adv-x="336" 
d="M142 115q42 0 67.5 -24.5t25.5 -65.5q0 -61 -40 -99t-102 -38q-52 0 -91 25l8 37q34 -22 83 -22q45 0 71 25.5t26 68.5q0 29 -19 44.5t-56 15.5q-20 0 -41 -3l5 27l128 133h-142l8 41h194l-7 -34l-128 -132q5 1 10 1z" />
    <glyph glyph-name="uni2084" unicode="&#x2084;" horiz-adv-x="336" 
d="M145 -104l16 83h-172l7 35l222 266h42l-52 -263h48l-8 -38h-47l-16 -83h-40zM168 17l39 200l-167 -200h128z" />
    <glyph glyph-name="uni2085" unicode="&#x2085;" horiz-adv-x="336" 
d="M129 239l-32 -121q23 6 48 6q42 0 67 -26.5t25 -70.5q0 -61 -40 -100t-101 -39q-52 0 -89 24l7 36q33 -20 82 -20q43 0 69.5 26t26.5 68q0 66 -75 66q-27 0 -66 -6l5 27l45 171h169l-8 -41h-133z" />
    <glyph glyph-name="uni2086" unicode="&#x2086;" horiz-adv-x="336" 
d="M265 231q-29 17 -64 17q-50 0 -86 -40.5t-50 -111.5q49 36 93 36q40 0 62.5 -26t22.5 -72q0 -42 -17.5 -75.5t-46 -52t-62.5 -18.5q-47 0 -74 35.5t-27 97.5q0 77 25.5 138.5t67.5 95t92 33.5q39 0 71 -20zM144 92q-42 0 -83 -29q-1 -10 -1.5 -20t-0.5 -21q0 -46 16 -70
t46 -24q33 0 55.5 29t22.5 72q0 63 -55 63z" />
    <glyph glyph-name="uni2087" unicode="&#x2087;" horiz-adv-x="336" 
d="M30 -104l201 343h-178l8 41h225l-7 -36l-201 -348h-48z" />
    <glyph glyph-name="uni2088" unicode="&#x2088;" horiz-adv-x="336" 
d="M7 -22q0 77 103 121q-26 18 -37.5 37t-11.5 44q0 46 34.5 77t85.5 31q41 0 66 -22t25 -58q0 -35 -23.5 -65t-67.5 -50l3 -2q33 -22 46.5 -42.5t13.5 -48.5q0 -46 -38 -79t-92 -33q-48 0 -77.5 25t-29.5 65zM135 83q-85 -37 -85 -99q0 -27 18.5 -43t49.5 -16q34 0 59 22
t25 52q0 22 -10.5 37.5t-34.5 31.5zM103 180q0 -20 10 -34.5t32 -28.5l13 -9q72 35 72 93q0 23 -14 36.5t-39 13.5q-32 0 -53 -20t-21 -51z" />
    <glyph glyph-name="uni2089" unicode="&#x2089;" horiz-adv-x="336" 
d="M84 -72q44 0 76.5 38t45.5 103q-41 -33 -84 -33q-40 0 -64.5 29t-24.5 77q0 42 17 75.5t45 52t62 18.5q48 0 74 -35t26 -100q0 -78 -23.5 -139t-63 -93.5t-88.5 -32.5q-48 0 -79 28l6 35q32 -23 75 -23zM137 76q38 0 74 28q3 23 3 48q0 96 -61 96q-33 0 -54.5 -29.5
t-21.5 -73.5q0 -69 60 -69z" />
    <glyph glyph-name="uni208A" unicode="&#x208a;" horiz-adv-x="336" 
d="M152 72l-21 -106h-38l20 106h-93l8 38h93l20 105h39l-21 -105h93l-7 -38h-93z" />
    <glyph glyph-name="uni208B" unicode="&#x208b;" horiz-adv-x="336" 
d="M20 72l8 38h224l-7 -38h-225z" />
    <glyph glyph-name="uni208C" unicode="&#x208c;" horiz-adv-x="336" 
d="M7 2l8 38h224l-7 -38h-225zM33 142l8 38h224l-7 -38h-225z" />
    <glyph glyph-name="uni208D" unicode="&#x208d;" horiz-adv-x="176" 
d="M31 -161q-25 78 -25 154q0 185 117 344h46q-119 -160 -119 -349q0 -81 22 -149h-41z" />
    <glyph glyph-name="uni208E" unicode="&#x208e;" horiz-adv-x="176" 
d="M80 337q25 -78 25 -154q0 -92 -30 -179.5t-87 -164.5h-46q59 78 89 166.5t30 182.5q0 81 -22 149h41z" />
    <glyph glyph-name="Euro" unicode="&#x20ac;" 
d="M156 248q0 -101 34 -155.5t96 -54.5q35 0 70.5 13t63.5 36l14 -42q-69 -58 -159 -58q-83 0 -129 67.5t-46 188.5v5h-66l8 40h59q4 54 17 110h-55l8 40h58q39 121 114.5 193t165.5 72q67 0 112 -28l-9 -46q-22 13 -45.5 18.5t-55.5 5.5q-71 0 -131.5 -58t-94.5 -157h239
l-20 -40h-230q-12 -47 -17 -110h206l-20 -40h-187z" />
    <glyph glyph-name="uni20B9" unicode="&#x20b9;" 
d="M143 289l178 -289h-63l-174 291l9 39h76q73 0 120 36.5t60 105.5h-229l8 39h226v13q0 58 -31.5 92t-86.5 34h-81l8 43h364l-17 -43h-167q30 -18 46 -51t16 -74v-14h59l-16 -39h-48q-15 -86 -78 -134.5t-160 -48.5h-19z" />
    <glyph glyph-name="uni20BA" unicode="&#x20ba;" 
d="M175 262l-41 -213h12q107 0 164.5 54t76.5 172l3 17h51l-3 -19q-25 -138 -95.5 -205.5t-190.5 -67.5h-81l45 230l-81 -43l9 45l81 43l22 114l-82 -44l9 45l81 44l51 259h54l-44 -227l167 90l-9 -45l-167 -90l-23 -115l169 91l-9 -45z" />
    <glyph glyph-name="uni2105" unicode="&#x2105;" horiz-adv-x="786" 
d="M302 349q-53 -48 -118 -48q-50 0 -76 33t-26 94q0 77 28.5 140t74.5 98t99 35q39 0 68 -17l-7 -36q-28 12 -58 12q-46 0 -83 -32t-57 -83.5t-20 -112.5q0 -47 16.5 -69t51.5 -22q44 0 96 40zM561 -8q-55 0 -86 37t-31 102q0 68 23.5 131.5t63 96.5t90.5 33q55 0 86 -37
t31 -102q0 -68 -23.5 -131.5t-63 -96.5t-90.5 -33zM617 353q-39 0 -67.5 -32t-45 -86t-16.5 -106q0 -47 19.5 -72t57.5 -25q40 0 68.5 32t44.5 85.5t16 105.5q0 48 -19.5 73t-57.5 25zM185 0l386 693h49l-386 -693h-49z" />
    <glyph glyph-name="uni2113" unicode="&#x2113;" horiz-adv-x="322" 
d="M30 179l65 62v369q0 70 24.5 107t71.5 37q46 0 71.5 -40.5t25.5 -115.5q0 -110 -34.5 -198.5t-107.5 -164.5v-125q0 -80 51 -80q31 0 69 19v-42q-35 -22 -81 -22q-43 0 -66.5 30.5t-23.5 88.5v82l-65 -60v53zM146 293q48 59 70.5 132.5t22.5 171.5q0 53 -12.5 82.5
t-34.5 29.5q-24 0 -35 -23.5t-11 -74.5v-318z" />
    <glyph glyph-name="uni2116" unicode="&#x2116;" horiz-adv-x="833" 
d="M354 0l-152 610l-119 -610h-48l135 693h59l153 -610l119 610h48l-135 -693h-60zM692 342q-49 0 -76 32t-27 91t20.5 115.5t55 86t78.5 29.5q49 0 76 -32t27 -91t-20.5 -115.5t-55 -86t-78.5 -29.5zM740 659q-33 0 -57 -28t-37.5 -75t-13.5 -93q0 -84 63 -84q33 0 57 27.5
t37.5 75t13.5 93.5q0 84 -63 84zM544 233l8 37h235l-8 -37h-235z" />
    <glyph glyph-name="uni2117" unicode="&#x2117;" horiz-adv-x="672" 
d="M352 -7q-94 0 -164 45t-107 124.5t-37 182.5q0 107 39.5 187t109 122.5t159.5 42.5q93 0 163 -45t107.5 -124.5t37.5 -182.5q0 -107 -39.5 -187t-109 -122.5t-159.5 -42.5zM352 34q83 0 143 38.5t92 108.5t32 163q0 97 -33 167.5t-93 107.5t-141 37q-123 0 -195 -84
t-72 -228q0 -143 72 -226.5t195 -83.5zM265 149v390h111q46 0 74 -34t28 -90t-27.5 -89.5t-73.5 -33.5h-69v-143h-43zM308 329h65q29 0 45.5 22.5t16.5 63.5q0 39 -16.5 63t-45.5 24h-65v-173z" />
    <glyph glyph-name="trademark" unicode="&#x2122;" horiz-adv-x="663" 
d="M634 309v313l-90 -214h-39l-90 217v-316h-39v384h47l103 -242l102 242h46v-384h-40zM176 309v344h-106v40h253v-40h-104v-344h-43z" />
    <glyph glyph-name="uni2126" unicode="&#x2126;" horiz-adv-x="612" 
d="M580 439q0 -118 -54.5 -225.5t-142.5 -165.5h146l-9 -48h-213l9 48q95 57 150 161.5t55 226.5q0 106 -40 162t-115 56q-72 0 -125 -44.5t-81 -124t-28 -181.5q0 -84 19 -150t55 -106l-9 -48h-204l9 48h145q-35 44 -54.5 110.5t-19.5 144.5q0 120 39 212t106 141t153 49
q98 0 153.5 -71t55.5 -195z" />
    <glyph glyph-name="estimated" unicode="&#x212e;" horiz-adv-x="884" 
d="M767 124q-50 -63 -130.5 -98t-176.5 -35q-115 0 -203.5 46.5t-136 126.5t-47.5 180q0 105 52 187t139.5 126.5t194.5 44.5q115 0 203.5 -46.5t136.5 -126t48 -178.5v-15h-624q-6 0 -6 -6v-196q0 -12 9 -22q84 -96 234 -96q74 0 138 28t107 80h62zM698 358q6 0 6 6v193
q0 15 -9 25q-45 45 -107 70t-129 25q-146 0 -234 -98q-8 -10 -8 -25v-190q0 -6 6 -6h475z" />
    <glyph glyph-name="oneseventh" unicode="&#x2150;" horiz-adv-x="790" 
d="M175 0l387 693h49l-387 -693h-49zM499 0l201 343h-178l8 41h225l-7 -36l-201 -348h-48zM191 309l65 336l-108 -49l8 41l115 56h39l-75 -384h-44z" />
    <glyph glyph-name="oneninth" unicode="&#x2151;" horiz-adv-x="790" 
d="M185 0l387 693h49l-387 -693h-49zM553 32q44 0 76.5 38t45.5 103q-41 -33 -84 -33q-40 0 -64.5 29t-24.5 77q0 42 17 75.5t45 52t62 18.5q48 0 74 -35t26 -100q0 -78 -23.5 -139t-63 -93.5t-88.5 -32.5q-48 0 -79 28l6 35q32 -23 75 -23zM606 180q38 0 74 28q3 23 3 48
q0 96 -61 96q-33 0 -54.5 -29.5t-21.5 -73.5q0 -69 60 -69zM191 309l65 336l-108 -49l8 41l115 56h39l-75 -384h-44z" />
    <glyph glyph-name="onethird" unicode="&#x2153;" horiz-adv-x="790" 
d="M183 0l387 693h49l-387 -693h-49zM611 219q42 0 67.5 -24.5t25.5 -65.5q0 -61 -40 -99t-102 -38q-52 0 -91 25l8 37q34 -22 83 -22q45 0 71 25.5t26 68.5q0 29 -19 44.5t-56 15.5q-20 0 -41 -3l5 27l128 133h-142l8 41h194l-7 -34l-128 -132q5 1 10 1zM191 309l65 336
l-108 -49l8 41l115 56h39l-75 -384h-44z" />
    <glyph glyph-name="twothirds" unicode="&#x2154;" horiz-adv-x="790" 
d="M193 0l387 693h49l-387 -693h-49zM611 219q42 0 67.5 -24.5t25.5 -65.5q0 -61 -40 -99t-102 -38q-52 0 -91 25l8 37q34 -22 83 -22q45 0 71 25.5t26 68.5q0 29 -19 44.5t-56 15.5q-20 0 -41 -3l5 27l128 133h-142l8 41h194l-7 -34l-128 -132q5 1 10 1zM337 612
q0 -27 -13.5 -55.5t-49.5 -70t-134 -136.5h159l-8 -41h-216l7 36q92 89 133.5 133t58.5 72.5t17 54.5t-15.5 40.5t-43.5 14.5q-48 0 -88 -36l-7 36q47 41 107 41q42 0 67.5 -24.5t25.5 -64.5z" />
    <glyph glyph-name="onefifth" unicode="&#x2155;" horiz-adv-x="790" 
d="M193 0l387 693h49l-387 -693h-49zM598 343l-32 -121q23 6 48 6q42 0 67 -26.5t25 -70.5q0 -61 -40 -100t-101 -39q-52 0 -89 24l7 36q33 -20 82 -20q43 0 69.5 26t26.5 68q0 66 -75 66q-27 0 -66 -6l5 27l45 171h169l-8 -41h-133zM191 309l65 336l-108 -49l8 41l115 56
h39l-75 -384h-44z" />
    <glyph glyph-name="twofifths" unicode="&#x2156;" horiz-adv-x="790" 
d="M215 0l387 693h49l-387 -693h-49zM598 343l-32 -121q23 6 48 6q42 0 67 -26.5t25 -70.5q0 -61 -40 -100t-101 -39q-52 0 -89 24l7 36q33 -20 82 -20q43 0 69.5 26t26.5 68q0 66 -75 66q-27 0 -66 -6l5 27l45 171h169l-8 -41h-133zM337 612q0 -27 -13.5 -55.5t-49.5 -70
t-134 -136.5h159l-8 -41h-216l7 36q92 89 133.5 133t58.5 72.5t17 54.5t-15.5 40.5t-43.5 14.5q-48 0 -88 -36l-7 36q47 41 107 41q42 0 67.5 -24.5t25.5 -64.5z" />
    <glyph glyph-name="threefifths" unicode="&#x2157;" horiz-adv-x="790" 
d="M203 0l387 693h49l-387 -693h-49zM598 343l-32 -121q23 6 48 6q42 0 67 -26.5t25 -70.5q0 -61 -40 -100t-101 -39q-52 0 -89 24l7 36q33 -20 82 -20q43 0 69.5 26t26.5 68q0 66 -75 66q-27 0 -66 -6l5 27l45 171h169l-8 -41h-133zM222 528q42 0 67.5 -24.5t25.5 -65.5
q0 -61 -40 -99t-102 -38q-52 0 -91 25l8 37q34 -22 83 -22q45 0 71 25.5t26 68.5q0 29 -19 44.5t-56 15.5q-20 0 -41 -3l5 27l128 133h-142l8 41h194l-7 -34l-128 -132q5 1 10 1z" />
    <glyph glyph-name="fourfifths" unicode="&#x2158;" horiz-adv-x="790" 
d="M212 0l387 693h49l-387 -693h-49zM598 343l-32 -121q23 6 48 6q42 0 67 -26.5t25 -70.5q0 -61 -40 -100t-101 -39q-52 0 -89 24l7 36q33 -20 82 -20q43 0 69.5 26t26.5 68q0 66 -75 66q-27 0 -66 -6l5 27l45 171h169l-8 -41h-133zM225 309l16 83h-172l7 35l222 266h42
l-52 -263h48l-8 -38h-47l-16 -83h-40zM248 430l39 200l-167 -200h128z" />
    <glyph glyph-name="onesixth" unicode="&#x2159;" horiz-adv-x="790" 
d="M188 0l387 693h49l-387 -693h-49zM734 335q-29 17 -64 17q-50 0 -86 -40.5t-50 -111.5q49 36 93 36q40 0 62.5 -26t22.5 -72q0 -42 -17.5 -75.5t-46 -52t-62.5 -18.5q-47 0 -74 35.5t-27 97.5q0 77 25.5 138.5t67.5 95t92 33.5q39 0 71 -20zM613 196q-42 0 -83 -29
q-1 -10 -1.5 -20t-0.5 -21q0 -46 16 -70t46 -24q33 0 55.5 29t22.5 72q0 63 -55 63zM191 309l65 336l-108 -49l8 41l115 56h39l-75 -384h-44z" />
    <glyph glyph-name="fivesixths" unicode="&#x215a;" horiz-adv-x="790" 
d="M202 0l387 693h49l-387 -693h-49zM734 335q-29 17 -64 17q-50 0 -86 -40.5t-50 -111.5q49 36 93 36q40 0 62.5 -26t22.5 -72q0 -42 -17.5 -75.5t-46 -52t-62.5 -18.5q-47 0 -74 35.5t-27 97.5q0 77 25.5 138.5t67.5 95t92 33.5q39 0 71 -20zM613 196q-42 0 -83 -29
q-1 -10 -1.5 -20t-0.5 -21q0 -46 16 -70t46 -24q33 0 55.5 29t22.5 72q0 63 -55 63zM209 652l-32 -121q23 6 48 6q42 0 67 -26.5t25 -70.5q0 -61 -40 -100t-101 -39q-52 0 -89 24l7 36q33 -20 82 -20q43 0 69.5 26t26.5 68q0 66 -75 66q-27 0 -66 -6l5 27l45 171h169l-8 -41
h-133z" />
    <glyph glyph-name="oneeighth" unicode="&#x215b;" horiz-adv-x="790" 
d="M194 0l387 693h49l-387 -693h-49zM476 82q0 77 103 121q-26 18 -37.5 37t-11.5 44q0 46 34.5 77t85.5 31q41 0 66 -22t25 -58q0 -35 -23.5 -65t-67.5 -50l3 -2q33 -22 46.5 -42.5t13.5 -48.5q0 -46 -38 -79t-92 -33q-48 0 -77.5 25t-29.5 65zM604 187q-85 -37 -85 -99
q0 -27 18.5 -43t49.5 -16q34 0 59 22t25 52q0 22 -10.5 37.5t-34.5 31.5zM572 284q0 -20 10 -34.5t32 -28.5l13 -9q72 35 72 93q0 23 -14 36.5t-39 13.5q-32 0 -53 -20t-21 -51zM191 309l65 336l-108 -49l8 41l115 56h39l-75 -384h-44z" />
    <glyph glyph-name="threeeighths" unicode="&#x215c;" horiz-adv-x="790" 
d="M205 0l387 693h49l-387 -693h-49zM476 82q0 77 103 121q-26 18 -37.5 37t-11.5 44q0 46 34.5 77t85.5 31q41 0 66 -22t25 -58q0 -35 -23.5 -65t-67.5 -50l3 -2q33 -22 46.5 -42.5t13.5 -48.5q0 -46 -38 -79t-92 -33q-48 0 -77.5 25t-29.5 65zM604 187q-85 -37 -85 -99
q0 -27 18.5 -43t49.5 -16q34 0 59 22t25 52q0 22 -10.5 37.5t-34.5 31.5zM572 284q0 -20 10 -34.5t32 -28.5l13 -9q72 35 72 93q0 23 -14 36.5t-39 13.5q-32 0 -53 -20t-21 -51zM222 528q42 0 67.5 -24.5t25.5 -65.5q0 -61 -40 -99t-102 -38q-52 0 -91 25l8 37
q34 -22 83 -22q45 0 71 25.5t26 68.5q0 29 -19 44.5t-56 15.5q-20 0 -41 -3l5 27l128 133h-142l8 41h194l-7 -34l-128 -132q5 1 10 1z" />
    <glyph glyph-name="fiveeighths" unicode="&#x215d;" horiz-adv-x="790" 
d="M206 0l387 693h49l-387 -693h-49zM476 82q0 77 103 121q-26 18 -37.5 37t-11.5 44q0 46 34.5 77t85.5 31q41 0 66 -22t25 -58q0 -35 -23.5 -65t-67.5 -50l3 -2q33 -22 46.5 -42.5t13.5 -48.5q0 -46 -38 -79t-92 -33q-48 0 -77.5 25t-29.5 65zM604 187q-85 -37 -85 -99
q0 -27 18.5 -43t49.5 -16q34 0 59 22t25 52q0 22 -10.5 37.5t-34.5 31.5zM572 284q0 -20 10 -34.5t32 -28.5l13 -9q72 35 72 93q0 23 -14 36.5t-39 13.5q-32 0 -53 -20t-21 -51zM209 652l-32 -121q23 6 48 6q42 0 67 -26.5t25 -70.5q0 -61 -40 -100t-101 -39q-52 0 -89 24
l7 36q33 -20 82 -20q43 0 69.5 26t26.5 68q0 66 -75 66q-27 0 -66 -6l5 27l45 171h169l-8 -41h-133z" />
    <glyph glyph-name="seveneighths" unicode="&#x215e;" horiz-adv-x="790" 
d="M169 0l387 693h49l-387 -693h-49zM476 82q0 77 103 121q-26 18 -37.5 37t-11.5 44q0 46 34.5 77t85.5 31q41 0 66 -22t25 -58q0 -35 -23.5 -65t-67.5 -50l3 -2q33 -22 46.5 -42.5t13.5 -48.5q0 -46 -38 -79t-92 -33q-48 0 -77.5 25t-29.5 65zM604 187q-85 -37 -85 -99
q0 -27 18.5 -43t49.5 -16q34 0 59 22t25 52q0 22 -10.5 37.5t-34.5 31.5zM572 284q0 -20 10 -34.5t32 -28.5l13 -9q72 35 72 93q0 23 -14 36.5t-39 13.5q-32 0 -53 -20t-21 -51zM110 309l201 343h-178l8 41h225l-7 -36l-201 -348h-48z" />
    <glyph glyph-name="partialdiff" unicode="&#x2202;" 
d="M242 417q44 0 85 -19.5t69 -54.5q11 68 11 137q0 92 -26.5 135t-84.5 43q-60 0 -119 -43l-7 42q62 49 138 49q77 0 115 -55t38 -168q0 -143 -39.5 -257.5t-104 -177t-140.5 -62.5q-67 0 -107.5 48.5t-40.5 127.5q0 74 29 132.5t77 90.5t107 32zM182 34q46 0 86.5 32.5
t71 91.5t47.5 137q-26 37 -63.5 57t-79.5 20q-46 0 -82.5 -28t-56.5 -75t-20 -105q0 -59 26.5 -94.5t70.5 -35.5z" />
    <glyph glyph-name="uni2206" unicode="&#x2206;" 
d="M411 0h-432l10 45l307 648h63l62 -648zM46 46h318l-47 588z" />
    <glyph glyph-name="product" unicode="&#x220f;" 
d="M306 -120l149 766h-276l-149 -766h-56l159 813h387l-158 -813h-56z" />
    <glyph glyph-name="summation" unicode="&#x2211;" 
d="M45 -72h333l-9 -48h-396l9 48l251 366l-109 351l10 48h370l-9 -48h-315l110 -358z" />
    <glyph glyph-name="minus" unicode="&#x2212;" 
d="M70 327l9 46h373l-9 -46h-373z" />
    <glyph glyph-name="uni2215" unicode="&#x2215;" 
d="M40 0l387 693h49l-387 -693h-49z" />
    <glyph glyph-name="uni2219" unicode="&#x2219;" 
d="M250 276q-16 0 -26 10t-10 28q0 22 13 36.5t32 14.5q16 0 26 -10t10 -28q0 -22 -13 -36.5t-32 -14.5z" />
    <glyph glyph-name="radical" unicode="&#x221a;" 
d="M109 316h-57l10 46h93l28 -305l314 683h54l-348 -740h-59z" />
    <glyph glyph-name="infinity" unicode="&#x221e;" 
d="M119 203q-36 0 -57 29.5t-21 79.5q0 48 19 88t49 62.5t64 22.5q32 0 54 -24t38 -79q37 56 67.5 79.5t65.5 23.5q36 0 57 -29.5t21 -79.5q0 -48 -19 -88t-49 -62.5t-64 -22.5q-33 0 -55 24.5t-38 78.5q-37 -56 -67 -79.5t-65 -23.5zM349 243q35 0 59.5 37t24.5 90
q0 34 -12.5 54.5t-34.5 20.5q-26 0 -50.5 -22.5t-60.5 -79.5q14 -53 31.5 -76.5t42.5 -23.5zM168 445q-24 0 -43 -18t-30 -47t-11 -62q0 -34 12.5 -54.5t34.5 -20.5q26 0 50.5 23t59.5 79q-14 54 -30.5 77t-42.5 23z" />
    <glyph glyph-name="integral" unicode="&#x222b;" 
d="M286 615q14 71 46 105t84 34q40 0 69 -16l-9 -40q-26 9 -56 9q-32 0 -50.5 -22.5t-28.5 -73.5l-135 -698q-26 -131 -126 -131q-40 0 -68 16l8 40q27 -9 57 -9q29 0 47 21t27 68z" />
    <glyph glyph-name="approxequal" unicode="&#x2248;" 
d="M86 162h-41q4 73 33 114t76 41q23 0 43.5 -12.5t47.5 -43.5q32 -35 47.5 -46t32.5 -11q24 0 38.5 18.5t21.5 59.5l5 29h41q-4 -73 -33 -114t-76 -41q-23 0 -44 13t-48 44q-31 34 -46.5 45t-32.5 11q-24 0 -38.5 -18.5t-21.5 -59.5zM130 387h-41q4 73 33 114t76 41
q23 0 43.5 -12.5t47.5 -43.5q32 -35 47.5 -46t32.5 -11q24 0 38.5 18.5t21.5 59.5l5 29h41q-4 -73 -33 -114t-76 -41q-23 0 -44 13t-48 44q-31 34 -46.5 45t-32.5 11q-24 0 -38.5 -18.5t-21.5 -59.5z" />
    <glyph glyph-name="notequal" unicode="&#x2260;" 
d="M69 113l72 103h-93l9 46h116l122 175h-204l9 46h227l73 104h52l-73 -104h94l-9 -46h-117l-122 -175h205l-9 -46h-228l-72 -103h-52z" />
    <glyph glyph-name="lessequal" unicode="&#x2264;" 
d="M111 392l10 50l367 196l-11 -58l-311 -167l246 -166l-10 -51zM21 50l9 46h373l-9 -46h-373z" />
    <glyph glyph-name="greaterequal" unicode="&#x2265;" 
d="M453 442l-10 -50l-367 -196l11 58l310 167l-245 166l10 51zM27 50l9 46h373l-9 -46h-373z" />
    <glyph glyph-name="lozenge" unicode="&#x25ca;" 
d="M163 0l-94 346l230 347h56l94 -346l-230 -347h-56zM198 46l195 305l-73 298l-196 -308z" />
    <glyph glyph-name="uni27E8" unicode="&#x27e8;" horiz-adv-x="251" 
d="M108 296l38 -440h-49l-39 449l209 449h54z" />
    <glyph glyph-name="uni27E9" unicode="&#x27e9;" horiz-adv-x="251" 
d="M-51 -144l212 458l-37 440h49l39 -449l-209 -449h-54z" />
    <glyph glyph-name="twosevenths" unicode="&#xf507;" horiz-adv-x="790" 
d="M199 0l387 693h49l-387 -693h-49zM499 0l201 343h-178l8 41h225l-7 -36l-201 -348h-48zM337 612q0 -27 -13.5 -55.5t-49.5 -70t-134 -136.5h159l-8 -41h-216l7 36q92 89 133.5 133t58.5 72.5t17 54.5t-15.5 40.5t-43.5 14.5q-48 0 -88 -36l-7 36q47 41 107 41
q42 0 67.5 -24.5t25.5 -64.5z" />
    <glyph glyph-name="threesevenths" unicode="&#xf508;" horiz-adv-x="790" 
d="M187 0l387 693h49l-387 -693h-49zM499 0l201 343h-178l8 41h225l-7 -36l-201 -348h-48zM222 528q42 0 67.5 -24.5t25.5 -65.5q0 -61 -40 -99t-102 -38q-52 0 -91 25l8 37q34 -22 83 -22q45 0 71 25.5t26 68.5q0 29 -19 44.5t-56 15.5q-20 0 -41 -3l5 27l128 133h-142
l8 41h194l-7 -34l-128 -132q5 1 10 1z" />
    <glyph glyph-name="foursevenths" unicode="&#xf509;" horiz-adv-x="790" 
d="M194 0l387 693h49l-387 -693h-49zM499 0l201 343h-178l8 41h225l-7 -36l-201 -348h-48zM225 309l16 83h-172l7 35l222 266h42l-52 -263h48l-8 -38h-47l-16 -83h-40zM248 430l39 200l-167 -200h128z" />
    <glyph glyph-name="fivesevenths" unicode="&#xf50a;" horiz-adv-x="790" 
d="M184 0l387 693h49l-387 -693h-49zM500 0l201 343h-178l8 41h225l-7 -36l-201 -348h-48zM209 652l-32 -121q23 6 48 6q42 0 67 -26.5t25 -70.5q0 -61 -40 -100t-101 -39q-52 0 -89 24l7 36q33 -20 82 -20q43 0 69.5 26t26.5 68q0 66 -75 66q-27 0 -66 -6l5 27l45 171h169
l-8 -41h-133z" />
    <glyph glyph-name="sixsevenths" unicode="&#xf50b;" horiz-adv-x="790" 
d="M186 0l387 693h49l-387 -693h-49zM499 0l201 343h-178l8 41h225l-7 -36l-201 -348h-48zM345 644q-29 17 -64 17q-50 0 -86 -40.5t-50 -111.5q49 36 93 36q40 0 62.5 -26t22.5 -72q0 -42 -17.5 -75.5t-46 -52t-62.5 -18.5q-47 0 -74 35.5t-27 97.5q0 77 25.5 138.5
t67.5 95t92 33.5q39 0 71 -20zM224 505q-42 0 -83 -29q-1 -10 -1.5 -20t-0.5 -21q0 -46 16 -70t46 -24q33 0 55.5 29t22.5 72q0 63 -55 63z" />
    <glyph glyph-name="twoninths" unicode="&#xf50d;" horiz-adv-x="790" 
d="M208 0l387 693h49l-387 -693h-49zM553 32q44 0 76.5 38t45.5 103q-41 -33 -84 -33q-40 0 -64.5 29t-24.5 77q0 42 17 75.5t45 52t62 18.5q48 0 74 -35t26 -100q0 -78 -23.5 -139t-63 -93.5t-88.5 -32.5q-48 0 -79 28l6 35q32 -23 75 -23zM606 180q38 0 74 28q3 23 3 48
q0 96 -61 96q-33 0 -54.5 -29.5t-21.5 -73.5q0 -69 60 -69zM337 612q0 -27 -13.5 -55.5t-49.5 -70t-134 -136.5h159l-8 -41h-216l7 36q92 89 133.5 133t58.5 72.5t17 54.5t-15.5 40.5t-43.5 14.5q-48 0 -88 -36l-7 36q47 41 107 41q42 0 67.5 -24.5t25.5 -64.5z" />
    <glyph glyph-name="fourninths" unicode="&#xf50e;" horiz-adv-x="790" 
d="M206 0l387 693h49l-387 -693h-49zM553 32q44 0 76.5 38t45.5 103q-41 -33 -84 -33q-40 0 -64.5 29t-24.5 77q0 42 17 75.5t45 52t62 18.5q48 0 74 -35t26 -100q0 -78 -23.5 -139t-63 -93.5t-88.5 -32.5q-48 0 -79 28l6 35q32 -23 75 -23zM606 180q38 0 74 28q3 23 3 48
q0 96 -61 96q-33 0 -54.5 -29.5t-21.5 -73.5q0 -69 60 -69zM225 309l16 83h-172l7 35l222 266h42l-52 -263h48l-8 -38h-47l-16 -83h-40zM248 430l39 200l-167 -200h128z" />
    <glyph glyph-name="fiveninths" unicode="&#xf50f;" horiz-adv-x="790" 
d="M196 0l387 693h49l-387 -693h-49zM553 32q44 0 76.5 38t45.5 103q-41 -33 -84 -33q-40 0 -64.5 29t-24.5 77q0 42 17 75.5t45 52t62 18.5q48 0 74 -35t26 -100q0 -78 -23.5 -139t-63 -93.5t-88.5 -32.5q-48 0 -79 28l6 35q32 -23 75 -23zM606 180q38 0 74 28q3 23 3 48
q0 96 -61 96q-33 0 -54.5 -29.5t-21.5 -73.5q0 -69 60 -69zM209 652l-32 -121q23 6 48 6q42 0 67 -26.5t25 -70.5q0 -61 -40 -100t-101 -39q-52 0 -89 24l7 36q33 -20 82 -20q43 0 69.5 26t26.5 68q0 66 -75 66q-27 0 -66 -6l5 27l45 171h169l-8 -41h-133z" />
    <glyph glyph-name="sevenninths" unicode="&#xf510;" horiz-adv-x="790" 
d="M164 0l387 693h49l-387 -693h-49zM553 32q44 0 76.5 38t45.5 103q-41 -33 -84 -33q-40 0 -64.5 29t-24.5 77q0 42 17 75.5t45 52t62 18.5q48 0 74 -35t26 -100q0 -78 -23.5 -139t-63 -93.5t-88.5 -32.5q-48 0 -79 28l6 35q32 -23 75 -23zM606 180q38 0 74 28q3 23 3 48
q0 96 -61 96q-33 0 -54.5 -29.5t-21.5 -73.5q0 -69 60 -69zM110 309l201 343h-178l8 41h225l-7 -36l-201 -348h-48z" />
    <glyph glyph-name="eightninths" unicode="&#xf511;" horiz-adv-x="790" 
d="M203 0l387 693h49l-387 -693h-49zM553 32q44 0 76.5 38t45.5 103q-41 -33 -84 -33q-40 0 -64.5 29t-24.5 77q0 42 17 75.5t45 52t62 18.5q48 0 74 -35t26 -100q0 -78 -23.5 -139t-63 -93.5t-88.5 -32.5q-48 0 -79 28l6 35q32 -23 75 -23zM606 180q38 0 74 28q3 23 3 48
q0 96 -61 96q-33 0 -54.5 -29.5t-21.5 -73.5q0 -69 60 -69zM87 391q0 77 103 121q-26 18 -37.5 37t-11.5 44q0 46 34.5 77t85.5 31q41 0 66 -22t25 -58q0 -35 -23.5 -65t-67.5 -50l3 -2q33 -22 46.5 -42.5t13.5 -48.5q0 -46 -38 -79t-92 -33q-48 0 -77.5 25t-29.5 65z
M215 496q-85 -37 -85 -99q0 -27 18.5 -43t49.5 -16q34 0 59 22t25 52q0 22 -10.5 37.5t-34.5 31.5zM183 593q0 -20 10 -34.5t32 -28.5l13 -9q72 35 72 93q0 23 -14 36.5t-39 13.5q-32 0 -53 -20t-21 -51z" />
    <glyph glyph-name="uniFEFF" unicode="&#xfeff;" horiz-adv-x="0" 
 />
    <glyph glyph-name="uniFFFD" unicode="&#xfffd;" horiz-adv-x="1000" 
d="M29 340l471 471l471 -471l-471 -471zM609 456q0 -39 -27 -70t-86 -59l-47 -22l9 -136h78v103q85 38 125 85t40 108q0 74 -47.5 115t-132.5 41q-43 0 -85.5 -12t-79.5 -34v-74q80 42 150 42q103 0 103 -87zM500 -6q25 0 40.5 16t15.5 41t-15.5 41t-40.5 16t-40.5 -16
t-15.5 -41t15.5 -41t40.5 -16z" />
    <glyph glyph-name="zero.pnum" horiz-adv-x="493" 
d="M208 -14q-73 0 -111.5 55.5t-38.5 158.5q0 93 22.5 193.5t58.5 171t82 106t100 35.5q73 0 111.5 -55.5t38.5 -158.5q0 -93 -22.5 -193.5t-58.5 -171t-82 -106t-100 -35.5zM318 655q-47 0 -84.5 -41.5t-63.5 -112t-41 -157t-15 -154.5q0 -153 97 -153q47 0 84.5 41.5
t63.5 112t41 157t15 154.5q0 76 -24.5 114.5t-72.5 38.5z" />
    <glyph glyph-name="one.pnum" horiz-adv-x="336" 
d="M131 0l123 630l-173 -89l10 53l180 99h51l-135 -693h-56z" />
    <glyph glyph-name="two.pnum" horiz-adv-x="435" 
d="M-7 0l9 47q86 93 148 161.5t104 119t67 88t35.5 68.5t10.5 62q0 52 -26.5 80t-74.5 28q-41 0 -78 -15.5t-78 -50.5l-10 45q73 73 177 73q68 0 108 -42t40 -112q0 -36 -11 -70t-35.5 -73t-66 -88.5t-102 -115t-143.5 -153.5h291l-10 -52h-355z" />
    <glyph glyph-name="three.pnum" horiz-adv-x="422" 
d="M1 73q59 -36 140 -36q78 0 124.5 52t46.5 139q0 59 -32 89t-94 30q-24 0 -60 -6l9 44l237 258h-260l10 50h323l-9 -47l-238 -258q6 1 11.5 1.5t11.5 0.5q65 0 106 -44t41 -114q0 -73 -30.5 -129t-82 -86.5t-116.5 -30.5q-89 0 -147 40z" />
    <glyph glyph-name="four.pnum" horiz-adv-x="470" 
d="M259 0l31 159h-266l9 47l360 487h52l-94 -483h84l-10 -51h-84l-31 -159h-51zM300 210l74 382l-282 -382h208z" />
    <glyph glyph-name="five.pnum" horiz-adv-x="417" 
d="M7 70q31 -18 61.5 -25.5t70.5 -7.5q77 0 123.5 55t46.5 146q0 63 -31 93t-94 30q-43 0 -108 -13l8 40l74 305h274l-10 -51h-225l-59 -242q37 10 74 10q70 0 111.5 -45t41.5 -121q0 -77 -30.5 -135.5t-82 -90.5t-116.5 -32q-83 0 -138 37z" />
    <glyph glyph-name="six.pnum" horiz-adv-x="477" 
d="M480 632q-42 24 -101 24q-58 0 -107.5 -39t-84.5 -108.5t-50 -159.5q38 29 82.5 46.5t82.5 17.5q64 -1 99.5 -42.5t35.5 -114.5q0 -77 -29 -139t-77 -96.5t-104 -34.5q-74 0 -115.5 59t-41.5 167q0 141 43 255t113.5 176.5t152.5 62.5q67 0 110 -28zM279 363
q-36 0 -75 -15.5t-73 -43.5q-5 -48 -5 -91q0 -85 28.5 -131t80.5 -46q43 0 76 30t51.5 79t18.5 103q0 57 -26 86t-76 29z" />
    <glyph glyph-name="seven.pnum" horiz-adv-x="419" 
d="M41 0l350 641h-295l10 52h355l-9 -47l-350 -646h-61z" />
    <glyph glyph-name="eight.pnum" horiz-adv-x="463" 
d="M465 566q0 -69 -40.5 -123.5t-114.5 -83.5q53 -32 78 -73t25 -95q0 -60 -28.5 -107t-76.5 -72.5t-107 -25.5q-75 0 -119.5 43t-44.5 116q0 76 45.5 136t123.5 88q-75 51 -75 142q0 55 27.5 100t72 70t95.5 25q64 0 101.5 -38t37.5 -102zM240 347q-71 -27 -109.5 -78
t-38.5 -117q0 -55 30 -86.5t84 -31.5q66 0 109.5 43.5t43.5 108.5q0 46 -21.5 80.5t-65.5 61.5zM184 512q0 -77 71 -120l21 -13l7 3q60 24 94.5 71.5t34.5 105.5q0 48 -25 74t-69 26q-38 0 -69 -20.5t-48 -54t-17 -72.5z" />
    <glyph glyph-name="nine.pnum" horiz-adv-x="474" 
d="M152 36q53 0 98.5 35.5t78.5 99.5t49 148q-33 -25 -72 -40t-73 -15q-67 0 -106.5 47.5t-39.5 128.5q0 76 29 137t76 95t102 34q73 0 114 -60t41 -166q0 -143 -41 -256.5t-109.5 -175.5t-150.5 -62q-71 0 -118 38l9 46q50 -34 113 -34zM253 314q30 0 64.5 12.5t67.5 35.5
q8 62 8 122q0 82 -28 127t-79 45q-41 0 -74 -29.5t-51 -78t-18 -105.5q0 -63 28 -96t82 -33z" />
    <glyph glyph-name="florin.crcy" 
d="M297 455l-105 -532q-28 -141 -130 -141q-41 0 -72 18l9 43q29 -13 57 -13q33 0 52.5 23t29.5 74l103 528h-78l8 39l79 8l21 109q15 74 48.5 108.5t91.5 34.5q40 0 74 -21l-8 -43q-31 16 -63 16q-37 0 -57.5 -21.5t-29.5 -70.5l-21 -111h130l-9 -48h-130z" />
    <glyph glyph-name="hyphen.case" horiz-adv-x="335" 
d="M64 327l10 50h235l-10 -50h-235z" />
    <glyph glyph-name="endash.case" horiz-adv-x="400" 
d="M15 328l9 47h400l-9 -47h-400z" />
    <glyph glyph-name="emdash.case" horiz-adv-x="800" 
d="M14 328l9 47h800l-9 -47h-800z" />
    <glyph glyph-name="parenleft.case" horiz-adv-x="254" 
d="M65 166q0 166 53 322.5t157 296.5h56q-209 -292 -209 -624q0 -162 34 -274h-51q-40 116 -40 279z" />
    <glyph glyph-name="parenright.case" horiz-adv-x="254" 
d="M220 506q0 -166 -53 -322.5t-157 -296.5h-56q209 292 209 624q0 162 -34 274h51q40 -116 40 -279z" />
    <glyph glyph-name="slash.case" horiz-adv-x="356" 
d="M-52 -113l433 898h58l-433 -898h-58z" />
    <glyph glyph-name="backslash.case" horiz-adv-x="356" 
d="M173 785l93 -898h-51l-93 898h51z" />
    <glyph glyph-name="bracketleft.case" horiz-adv-x="289" 
d="M12 -113l175 898h179l-10 -49h-121l-157 -800h123l-10 -49h-179z" />
    <glyph glyph-name="bracketright.case" horiz-adv-x="289" 
d="M309 785l-175 -898h-179l10 49h121l157 800h-123l10 49h179z" />
    <glyph glyph-name="braceleft.case" horiz-adv-x="296" 
d="M163 -73q26 0 45 9l8 -42q-30 -15 -72 -15q-41 0 -64 24t-23 68q0 21 4 47t17 95l12 63q12 63 14.5 78t2.5 24q0 24 -11.5 34.5t-36.5 10.5h-15l9 48h17q33 0 49 17.5t25 63.5l40 205q26 136 128 136q30 0 60 -13l-8 -43q-24 8 -45 8q-33 0 -51 -21.5t-29 -77.5l-37 -189
q-10 -49 -29.5 -76t-53.5 -37q45 -14 45 -63q0 -15 -19 -115l-12 -64q-13 -68 -16.5 -89.5t-3.5 -31.5q0 -54 50 -54z" />
    <glyph glyph-name="braceright.case" horiz-adv-x="296" 
d="M165 745q-25 0 -45 -9l-8 42q30 15 72 15q41 0 64 -24t23 -68q0 -21 -4 -47t-17 -95l-12 -63q-12 -63 -14.5 -78t-2.5 -24q0 -24 11.5 -34.5t36.5 -10.5h15l-9 -48h-17q-33 0 -49 -17.5t-25 -63.5l-40 -205q-26 -136 -128 -136q-30 0 -60 13l8 43q24 -8 45 -8
q33 0 51 21.5t29 77.5l37 189q9 49 29 76t53 36q-44 14 -44 64q0 15 19 115l12 64q13 68 16.5 89.5t3.5 31.5q0 54 -50 54z" />
    <glyph glyph-name="bullet.case" horiz-adv-x="295" 
d="M155 236q-44 0 -71.5 27.5t-27.5 72.5q0 56 35 94t86 38q44 0 71.5 -27.5t27.5 -72.5q0 -56 -35 -94t-86 -38z" />
    <glyph glyph-name="guilsinglleft.case" horiz-adv-x="260" 
d="M134 144l-67 208l144 208h56l-145 -212l64 -204h-52z" />
    <glyph glyph-name="guilsinglright.case" horiz-adv-x="260" 
d="M164 560l67 -208l-144 -208h-56l144 211l-63 205h52z" />
    <glyph glyph-name="guillemotleft.case" horiz-adv-x="397" 
d="M134 144l-67 208l144 208h56l-145 -212l64 -204h-52zM271 144l-67 208l144 208h56l-145 -212l64 -204h-52z" />
    <glyph glyph-name="guillemotright.case" horiz-adv-x="397" 
d="M164 560l67 -208l-144 -208h-56l144 211l-63 205h52zM301 560l67 -208l-144 -208h-56l144 211l-63 205h52z" />
    <glyph glyph-name="at.case" horiz-adv-x="787" 
d="M459 -81q-30 -16 -70 -24.5t-81 -8.5q-124 0 -192 78t-68 221q0 161 64 293.5t166 206.5t216 74q84 0 146.5 -37t95.5 -103.5t33 -155.5q0 -101 -34 -189.5t-85.5 -138.5t-104.5 -50q-36 0 -56 23t-20 66v4q-36 -45 -75.5 -70t-76.5 -25q-84 0 -84 122q0 98 35 180
t91 128t119 46q55 0 114 -28l-62 -260q-14 -58 -14 -91q0 -51 38 -51q41 0 81 52t62.5 127t22.5 153q0 121 -61.5 187t-171.5 66q-106 0 -197 -75.5t-141.5 -194t-50.5 -254.5q0 -124 57 -191.5t161 -67.5q33 0 70 7.5t68 20.5zM336 128q30 0 67.5 26t70.5 72q5 34 30 135
l34 141q-29 13 -66 13q-51 0 -95 -44t-68.5 -113t-24.5 -146q0 -44 12.5 -64t39.5 -20z" />
    <glyph glyph-name="periodcentered.case" horiz-adv-x="202" 
d="M116 307q-16 0 -26 10t-10 28q0 22 13 36.5t32 14.5q16 0 26 -10t10 -28q0 -22 -13 -36.5t-32 -14.5z" />
    <glyph glyph-name="periodcentered.locl_CAT" horiz-adv-x="202" 
d="M118 322q-16 0 -25 9t-9 25q0 19 12 32t30 13q16 0 25 -9t9 -25q0 -19 -12 -32t-30 -13z" />
    <glyph glyph-name="periodcentered.locl_CAT.cap" horiz-adv-x="202" 
d="M121 334q-16 0 -25 9t-9 25q0 19 12 32t30 13q16 0 25 -9t9 -25q0 -19 -12 -32t-30 -13z" />
    <glyph glyph-name="uni0327.cap" horiz-adv-x="0" 
d="M-90 -246q90 59 90 112q0 28 -30 28q-17 0 -30 -4l7 35q21 9 43 9q27 0 42.5 -16t15.5 -44q0 -39 -30 -76.5t-88 -71.5z" />
    <glyph glyph-name="uni0326.cap" horiz-adv-x="0" 
d="M-92 -270l68 202h24q23 0 23 -17q0 -6 -3 -14t-17 -40l-58 -131h-37z" />
    <glyph glyph-name="uni0328.cap" horiz-adv-x="0" 
d="M-8 -194q-33 -22 -68 -22q-32 0 -51 18t-19 50q0 43 29 84t85 75l32 -11q-98 -72 -98 -138q0 -37 38 -37q19 0 41 13z" />
    <glyph glyph-name="uni0328.round" horiz-adv-x="0" 
d="M-161 -148q0 53 43.5 102t122.5 83l-5 -27q-55 -30 -85 -69t-30 -79q0 -19 10 -29t29 -10t41 13l11 -30q-33 -22 -68 -22q-32 0 -50.5 18t-18.5 50z" />
    <glyph glyph-name="uni0328.round.cap" horiz-adv-x="0" 
d="M-162 -148q0 54 44 103.5t123 83.5l-5 -29q-54 -29 -84 -68t-30 -80q0 -18 10 -27.5t28 -9.5q19 0 41 13l11 -32q-33 -22 -68 -22q-32 0 -51 18t-19 50z" />
    <glyph glyph-name="iogonek.dotless" horiz-adv-x="209" 
d="M126 503h55l-98 -503h-55zM75 -194q-33 -22 -68 -22q-32 0 -50.5 18t-18.5 50q0 43 29.5 84t85.5 75l30 -11q-99 -73 -99 -138q0 -19 10 -29t29 -10t41 13z" />
    <glyph glyph-name="acutecomb.cap" horiz-adv-x="0" 
d="M26 769h-52l98 117h69z" />
    <glyph glyph-name="uni030B.cap" horiz-adv-x="0" 
d="M-65 769h-49l91 117h67zM90 769h-48l90 117h68z" />
    <glyph glyph-name="gravecomb.cap" horiz-adv-x="0" 
d="M-27 769l-72 117h65l56 -117h-49z" />
    <glyph glyph-name="uni0302.cap" horiz-adv-x="0" 
d="M22 862l-105 -93h-53l134 129h56l84 -129h-48z" />
    <glyph glyph-name="tildecomb.cap" horiz-adv-x="0" 
d="M110 886h36q-2 -18 -5 -32q-10 -38 -30 -58.5t-49 -20.5q-18 0 -31.5 8.5t-29.5 29.5q-21 27 -27.5 32t-15.5 5q-25 0 -37 -46l-7 -26h-36q2 18 5 31q9 38 30 59t49 21q17 0 30.5 -8.5t30.5 -31.5q17 -22 25 -28.5t18 -6.5q14 0 23 10.5t14 33.5z" />
    <glyph glyph-name="uni030C.cap" horiz-adv-x="0" 
d="M-57 898l62 -102l100 102h58l-134 -129h-55l-84 129h53z" />
    <glyph glyph-name="uni0315.short" horiz-adv-x="0" 
d="M-40 580l30 160q16 7 28 7q16 0 26 -10l-48 -157h-36z" />
    <glyph glyph-name="uni0304.cap" horiz-adv-x="0" 
d="M-111 809l8 43h240l-8 -43h-240z" />
    <glyph glyph-name="uni0304.wide" horiz-adv-x="0" 
d="M-220 648l8 43h466l-8 -43h-466z" />
    <glyph glyph-name="uni0308.cap" horiz-adv-x="0" 
d="M-73 791q-15 0 -24.5 9.5t-9.5 25.5q0 20 11.5 34t28.5 14q15 0 24.5 -9.5t9.5 -25.5q0 -20 -11.5 -34t-28.5 -14zM99 791q-15 0 -24.5 9.5t-9.5 25.5q0 20 11.5 34t28.5 14q15 0 24.5 -9.5t9.5 -25.5q0 -20 -11.5 -34t-28.5 -14z" />
    <glyph glyph-name="uni0306.cap" horiz-adv-x="0" 
d="M98 888h37q-2 -54 -38 -87.5t-92 -33.5q-41 0 -64.5 20.5t-23.5 55.5q0 27 10 45h36q-5 -22 -5 -33q0 -48 53 -48q33 0 55 18t29 51z" />
    <glyph glyph-name="uni0307.cap" horiz-adv-x="0" 
d="M12 789q-17 0 -26.5 10.5t-9.5 26.5q0 20 13 34.5t31 14.5q17 0 27 -10t10 -27q0 -20 -13 -34.5t-32 -14.5z" />
    <glyph glyph-name="uni030A.cap" horiz-adv-x="0" 
d="M10 741q-38 0 -62 22t-24 57q0 44 29.5 73.5t73.5 29.5q38 0 62 -22.5t24 -57.5q0 -44 -29.5 -73t-73.5 -29zM24 891q-28 0 -45 -19.5t-17 -50.5q0 -21 14 -34.5t37 -13.5q28 0 45 19.5t17 49.5q0 22 -14 35.5t-37 13.5z" />
    <glyph glyph-name="uni030A0301" horiz-adv-x="0" 
d="M13 584q-38 0 -61 22t-23 57q0 44 29 73.5t73 29.5q38 0 61 -22t23 -57q0 -44 -29 -73.5t-73 -29.5zM30 734q-28 0 -46 -19.5t-18 -50.5q0 -21 13 -34.5t35 -13.5q28 0 46 19.5t18 50.5q0 22 -13 35t-35 13zM59 804h-48l98 117h64z" />
    <glyph glyph-name="uni0431.locl_MKDSRB" horiz-adv-x="449" 
d="M181 -13q-68 0 -105.5 44.5t-37.5 126.5q0 102 52.5 184.5t147.5 128.5l-11 11q-27 27 -40 55t-13 62q0 57 36.5 93t98.5 41l145 12l-9 -46l-130 -10q-41 -3 -64 -27t-23 -64q0 -24 8 -42t27 -36l49 -47q48 -45 66.5 -86.5t18.5 -104.5q0 -84 -30 -152t-79 -105.5
t-107 -37.5zM269 441q-6 -2 -12 -5t-11 -6q-71 -39 -111.5 -111t-40.5 -159q0 -125 92 -125q44 0 80 34t55.5 90t19.5 123q0 52 -12 82.5t-47 64.5z" />
    </font>
</defs>
</svg>
