<?xml version="1.0" standalone="no"?>
<!DOCTYPE svg PUBLIC "-//W3C//DTD SVG 1.1//EN" "http://www.w3.org/Graphics/SVG/1.1/DTD/svg11.dtd" >
<svg xmlns="http://www.w3.org/2000/svg" xmlns:xlink="http://www.w3.org/1999/xlink" version="1.1">
<metadata>
Created by FontForge 20170731 at Wed Feb 17 19:01:45 2016
 By Aleksey,,,
Copyright 2016 Dalton Maag Ltd. Modification of this file requires prior written permission from Dalton Maag Ltd.
</metadata>
<defs>
<font id="AmazonEmberCdRC-Italic" horiz-adv-x="486" >
  <font-face 
    font-family="Amazon Ember Cd RC"
    font-weight="400"
    font-style="italic"
    font-stretch="condensed"
    units-per-em="1000"
    panose-1="2 11 6 6 2 2 4 9 2 4"
    ascent="800"
    descent="-200"
    x-height="507"
    cap-height="693"
    bbox="-227 -280 1071 974"
    underline-thickness="80"
    underline-position="-229"
    slope="-10.99"
    unicode-range="U+0008-FFFD"
  />
<missing-glyph horiz-adv-x="500" 
d="M50 0v750h400v-750h-400zM400 50v650h-300v-650h300z" />
    <glyph glyph-name="ff" unicode="ff" horiz-adv-x="571" 
d="M37 0l84 433h-70l12 60l72 12l16 82q16 85 56 126t106 41q39 0 74 -22l-13 -67q-30 12 -56 12q-32 0 -49.5 -19t-25.5 -63l-16 -88h171l16 80q17 85 58.5 126t108.5 41q42 0 76 -22l-13 -67q-31 12 -59 12q-34 0 -52.5 -19t-26.5 -63l-16 -88h121l-15 -74h-120l-85 -433
h-91l84 433h-171l-85 -433h-91z" />
    <glyph glyph-name="fi" unicode="fi" horiz-adv-x="509" 
d="M384 433h-171l-85 -433h-91l84 433h-70l12 60l72 12l16 82q16 85 56 126t106 41q39 0 74 -22l-13 -67q-30 12 -56 12q-32 0 -49.5 -19t-25.5 -63l-16 -88h263l-99 -507h-91zM469 601q-24 0 -38.5 13.5t-14.5 36.5q0 29 17.5 47.5t44.5 18.5q24 0 38.5 -13.5t14.5 -36.5
q0 -29 -17.5 -47.5t-44.5 -18.5z" />
    <glyph glyph-name="fl" unicode="fl" horiz-adv-x="533" 
d="M486 20q-36 -25 -87 -25q-39 0 -59.5 23t-20.5 66q0 26 12 87l111 569h91l-111 -569q-11 -54 -11 -70q0 -17 7 -24t22 -7t30 6zM37 0l84 433h-70l12 60l72 12l16 82q16 85 56 126t106 41q39 0 74 -22l-13 -67q-30 12 -56 12q-32 0 -49.5 -19t-25.5 -63l-16 -88h114
l-15 -74h-113l-85 -433h-91z" />
    <glyph glyph-name="ffi" unicode="ffi" horiz-adv-x="772" 
d="M647 433h-171l-85 -433h-91l84 433h-171l-85 -433h-91l84 433h-70l12 60l72 12l16 82q16 85 56 126t106 41q39 0 74 -22l-13 -67q-30 12 -56 12q-32 0 -49.5 -19t-25.5 -63l-16 -88h171l16 80q17 85 58.5 126t108.5 41q42 0 76 -22l-13 -67q-31 12 -59 12
q-34 0 -52.5 -19t-26.5 -63l-16 -88h263l-99 -507h-91zM732 601q-24 0 -38.5 13.5t-14.5 36.5q0 29 17.5 47.5t44.5 18.5q24 0 38.5 -13.5t14.5 -36.5q0 -29 -17.5 -47.5t-44.5 -18.5z" />
    <glyph glyph-name="ffl" unicode="ffl" horiz-adv-x="796" 
d="M37 0l84 433h-70l12 60l72 12l16 82q16 85 56 126t106 41q39 0 74 -22l-13 -67q-30 12 -56 12q-32 0 -49.5 -19t-25.5 -63l-16 -88h171l16 80q17 85 58.5 126t108.5 41q42 0 76 -22l-13 -67q-31 12 -59 12q-34 0 -52.5 -19t-26.5 -63l-16 -88h121l-15 -74h-120l-85 -433
h-91l84 433h-171l-85 -433h-91zM749 20q-36 -25 -87 -25q-39 0 -59.5 23t-20.5 66q0 26 12 87l111 569h91l-111 -569q-11 -54 -11 -70q0 -17 7 -24t22 -7t30 6z" />
    <glyph glyph-name=".notdef" horiz-adv-x="500" 
d="M50 0v750h400v-750h-400zM400 50v650h-300v-650h300z" />
    <glyph glyph-name=".null" horiz-adv-x="0" 
 />
    <glyph glyph-name=".null" horiz-adv-x="0" 
 />
    <glyph glyph-name=".null" horiz-adv-x="0" 
 />
    <glyph glyph-name="nonmarkingreturn" unicode="&#x9;" horiz-adv-x="211" 
 />
    <glyph glyph-name="nonmarkingreturn" unicode="&#xd;" horiz-adv-x="211" 
 />
    <glyph glyph-name="space" unicode=" " horiz-adv-x="211" 
 />
    <glyph glyph-name="exclam" unicode="!" horiz-adv-x="229" 
d="M69 208l80 485q26 13 53 13q24 0 47 -13l-107 -485h-73zM72 -10q-25 0 -39.5 15t-14.5 40q0 31 19 52t47 21q25 0 39.5 -15t14.5 -40q0 -31 -19 -52t-47 -21z" />
    <glyph glyph-name="quotedbl" unicode="&#x22;" horiz-adv-x="340" 
d="M103 451l35 241q23 12 47 12q25 0 43 -12l-59 -241h-66zM247 451l35 241q23 12 47 12q25 0 43 -12l-59 -241h-66z" />
    <glyph glyph-name="numbersign" unicode="#" 
d="M209 0l58 185h-117l-58 -185h-69l58 185h-69l13 66h77l62 195h-79l13 66h87l57 181h69l-57 -181h117l57 181h69l-57 -181h63l-13 -66h-71l-62 -195h73l-13 -66h-81l-58 -185h-69zM350 446h-117l-62 -195h117z" />
    <glyph glyph-name="dollar" unicode="$" 
d="M135 -130l24 126q-82 11 -134 60l14 72q36 -28 67.5 -42t66.5 -18l49 251l-28 18q-48 30 -70.5 67.5t-22.5 87.5q0 58 26.5 105t70 72.5t95.5 25.5h3l24 122h54l-25 -128q58 -13 105 -53l-14 -70q-48 40 -105 51l-48 -247l25 -16q53 -33 76 -67.5t23 -80.5
q0 -94 -53.5 -151.5t-144.5 -61.5l-24 -123h-54zM329 197q0 29 -13 49.5t-45 42.5l-44 -223q47 2 74.5 37.5t27.5 93.5zM182 498q0 -34 13 -56.5t43 -41.5l44 222h-1q-43 0 -71 -35t-28 -89z" />
    <glyph glyph-name="percent" unicode="%" horiz-adv-x="790" 
d="M182 0l386 693h77l-386 -693h-77zM582 -8q-52 0 -80 35.5t-28 100.5q0 67 22.5 133.5t58.5 101.5t82 35q52 0 80 -35.5t28 -100.5q0 -67 -22.5 -133.5t-58.5 -101.5t-82 -35zM636 337q-28 0 -48 -33t-32 -87.5t-12 -97.5q0 -66 39 -66q28 0 48 33t32 87.5t12 97.5
q0 66 -39 66zM189 295q-52 0 -80 35.5t-28 100.5q0 67 22.5 133.5t58.5 101.5t82 35q52 0 80 -35.5t28 -100.5q0 -67 -22.5 -133.5t-58.5 -101.5t-82 -35zM243 640q-28 0 -48 -33t-32 -87.5t-12 -97.5q0 -66 39 -66q28 0 48 33t32 87.5t12 97.5q0 66 -39 66z" />
    <glyph glyph-name="ampersand" unicode="&#x26;" horiz-adv-x="584" 
d="M512 17q-34 -24 -78 -24q-29 0 -50.5 11.5t-39.5 36.5q-73 -55 -160 -55q-74 0 -119.5 46.5t-45.5 122.5q0 75 40.5 133t118.5 94l5 2q-37 82 -37 141q0 52 23 93.5t61.5 64.5t84.5 23q59 0 95.5 -36t36.5 -93q0 -64 -40.5 -118.5t-110.5 -88.5l-18 -9l91 -198
q53 83 75 221h77q-32 -183 -120 -289q17 -29 57 -29q16 0 40 8zM204 60q63 0 109 39l-105 231q-48 -23 -74.5 -64.5t-26.5 -94.5q0 -52 25.5 -81.5t71.5 -29.5zM226 527q0 -50 28 -114l21 11q41 21 66.5 59.5t25.5 82.5q0 34 -16 53.5t-44 19.5q-35 0 -58 -32t-23 -80z" />
    <glyph glyph-name="quotesingle" unicode="'" horiz-adv-x="196" 
d="M103 451l35 241q23 12 47 12q25 0 43 -12l-59 -241h-66z" />
    <glyph glyph-name="parenleft" unicode="(" horiz-adv-x="272" 
d="M51 135q0 164 53.5 322t155.5 297h89q-100 -143 -151.5 -303.5t-51.5 -328.5q0 -164 30 -266h-82q-20 55 -31.5 128t-11.5 151z" />
    <glyph glyph-name="parenright" unicode=")" horiz-adv-x="272" 
d="M241 475q0 -164 -53.5 -322t-155.5 -297h-89q100 143 151.5 303.5t51.5 328.5q0 164 -30 266h82q20 -55 31.5 -128t11.5 -151z" />
    <glyph glyph-name="asterisk" unicode="*" horiz-adv-x="330" 
d="M255 696q18 0 34 -9l-38 -126l108 52q12 -19 12 -42q0 -16 -6 -28l-113 -27l68 -92q-26 -41 -63 -45l-42 116l-87 -116q-37 6 -48 45l100 96l-104 23q3 41 36 70l91 -53l13 127q20 9 39 9z" />
    <glyph glyph-name="plus" unicode="+" 
d="M293 311l-34 -173h-79l34 173h-152l14 74h152l34 173h79l-34 -173h152l-14 -74h-152z" />
    <glyph glyph-name="comma" unicode="," horiz-adv-x="226" 
d="M-51 -152l95 264h44q42 0 42 -29q0 -10 -4 -22.5t-20 -41.5l-94 -171h-63z" />
    <glyph glyph-name="hyphen" unicode="-" horiz-adv-x="334" 
d="M35 220l15 78h251l-15 -78h-251z" />
    <glyph glyph-name="period" unicode="." horiz-adv-x="226" 
d="M68 -10q-25 0 -39.5 15t-14.5 40q0 31 19 52t47 21q25 0 39.5 -15t14.5 -40q0 -31 -19 -52t-47 -21z" />
    <glyph glyph-name="slash" unicode="/" horiz-adv-x="388" 
d="M-61 -144l436 898h93l-436 -898h-93z" />
    <glyph glyph-name="zero" unicode="0" 
d="M201 -13q-77 0 -117.5 57t-40.5 164q0 95 22.5 192.5t59 166.5t84 104t103.5 35q77 0 117.5 -57t40.5 -164q0 -95 -22.5 -192.5t-59 -166.5t-84 -104t-103.5 -35zM307 627q-40 0 -71.5 -40t-53.5 -107t-35 -148t-13 -142q0 -124 72 -124q40 0 71.5 40t53.5 107t35 148
t13 142q0 124 -72 124z" />
    <glyph glyph-name="one" unicode="1" 
d="M190 0l115 594l-159 -78l16 83l170 94h84l-135 -693h-91z" />
    <glyph glyph-name="two" unicode="2" 
d="M11 0l15 75q119 129 177 194.5t92 111.5t49.5 81.5t15.5 71.5q0 42 -22.5 65t-63.5 23q-37 0 -70 -15t-74 -49l-13 71q75 77 184 77q70 0 112 -44t42 -118q0 -28 -6.5 -55.5t-22.5 -59t-46.5 -72.5t-83.5 -100t-166 -176h264l-16 -81h-367z" />
    <glyph glyph-name="three" unicode="3" 
d="M33 101q66 -35 142 -35q63 0 101.5 43.5t38.5 115.5q0 50 -28 76t-81 26q-31 0 -61 -5l13 65l211 228h-236l15 78h334l-15 -75l-210 -225h6q64 0 104 -44t40 -115q0 -73 -31.5 -129.5t-85.5 -87t-121 -30.5q-43 0 -82 11t-68 31z" />
    <glyph glyph-name="four" unicode="4" 
d="M238 0l29 151h-256l15 74l341 468h89l-91 -466h82l-15 -76h-82l-29 -151h-83zM282 227l63 324l-234 -324h171z" />
    <glyph glyph-name="five" unicode="5" 
d="M53 101q65 -35 139 -35q64 0 102 45.5t38 121.5q0 55 -27 82t-83 27q-41 0 -111 -11l11 55l73 307h296l-16 -79h-217l-49 -205q33 9 66 9q68 0 108.5 -47t40.5 -127q0 -77 -31.5 -135.5t-85.5 -90t-122 -31.5q-87 0 -146 42z" />
    <glyph glyph-name="six" unicode="6" 
d="M476 604q-45 25 -105 25q-77 0 -133.5 -69.5t-78.5 -190.5q33 22 71.5 35.5t70.5 13.5q66 0 103 -43.5t37 -119.5t-29.5 -138t-78.5 -96t-107 -34q-81 0 -125 60.5t-44 172.5q0 140 43 252t114.5 173t156.5 61q75 0 119 -31zM260 343q-48 0 -109 -36q-4 -36 -4 -84
q0 -78 23.5 -118.5t68.5 -40.5q34 0 58.5 25t38.5 67.5t14 86.5q0 49 -23 74.5t-67 25.5z" />
    <glyph glyph-name="seven" unicode="7" 
d="M65 0l329 612h-277l16 81h373l-15 -76l-326 -617h-100z" />
    <glyph glyph-name="eight" unicode="8" 
d="M480 562q0 -69 -37.5 -122.5t-105.5 -81.5q48 -34 69.5 -73t21.5 -89q0 -61 -29.5 -109t-79.5 -74t-110 -26q-80 0 -127.5 44t-47.5 117q0 75 42.5 133t116.5 86q-65 54 -65 138q0 57 28 103.5t73.5 72t98.5 25.5q69 0 110.5 -39t41.5 -105zM240 334l-3 -1
q-54 -20 -84 -65.5t-30 -106.5q0 -46 25.5 -73t69.5 -27q52 0 87 37t35 90q0 39 -19 71t-58 59zM215 507q0 -67 61 -107l14 -10l7 3q44 17 70 59t26 95q0 42 -20 65t-56 23q-30 0 -53 -17.5t-36 -46.5t-13 -64z" />
    <glyph glyph-name="nine" unicode="9" 
d="M154 64q68 0 119 63t74 175q-31 -21 -64 -32.5t-61 -11.5q-68 0 -107.5 49t-39.5 133q0 77 29.5 138t77.5 94.5t105 33.5q80 0 123.5 -62t43.5 -176q0 -142 -41 -252t-110.5 -169.5t-154.5 -59.5q-73 0 -125 41l14 70q52 -34 117 -34zM258 333q41 0 99 33q7 60 7 109
q0 154 -89 154q-32 0 -57 -25t-38.5 -66t-13.5 -91q0 -56 23.5 -85t68.5 -29z" />
    <glyph glyph-name="colon" unicode=":" horiz-adv-x="226" 
d="M68 -10q-25 0 -39.5 15t-14.5 40q0 31 19 52t47 21q25 0 39.5 -15t14.5 -40q0 -31 -19 -52t-47 -21zM146 389q-25 0 -39.5 15t-14.5 40q0 31 19 52t47 21q25 0 39.5 -15t14.5 -40q0 -31 -19 -52t-47 -21z" />
    <glyph glyph-name="semicolon" unicode=";" horiz-adv-x="226" 
d="M-51 -152l95 264h44q42 0 42 -29q0 -10 -4 -22.5t-20 -41.5l-94 -171h-63zM146 389q-25 0 -39.5 15t-14.5 40q0 31 19 52t47 21q25 0 39.5 -15t14.5 -40q0 -31 -19 -52t-47 -21z" />
    <glyph glyph-name="less" unicode="&#x3c;" 
d="M81 311l15 76l378 193l-18 -91l-283 -145l227 -144l-16 -82z" />
    <glyph glyph-name="equal" unicode="=" 
d="M40 201l14 74h383l-14 -74h-383zM83 422l14 74h383l-14 -74h-383z" />
    <glyph glyph-name="greater" unicode="&#x3e;" 
d="M437 387l-15 -76l-378 -193l18 91l283 144l-227 145l16 82z" />
    <glyph glyph-name="question" unicode="?" horiz-adv-x="363" 
d="M106 208l25 156l41 22q128 69 128 166q0 76 -77 76q-54 0 -113 -39l-11 67q30 23 69 36.5t79 13.5q64 0 104 -39t40 -103q0 -137 -186 -238l-23 -118h-76zM118 -10q-25 0 -39.5 15t-14.5 40q0 31 19 52t47 21q25 0 39.5 -15t14.5 -40q0 -31 -19 -52t-47 -21z" />
    <glyph glyph-name="at" unicode="@" horiz-adv-x="805" 
d="M464 -168q-74 -38 -163 -38q-86 0 -148 36t-94.5 103t-32.5 160q0 160 67 292t173 206t223 74q87 0 152 -36t99 -101.5t34 -154.5q0 -105 -34.5 -193.5t-88 -138.5t-111.5 -50q-39 0 -63 22.5t-28 63.5q-32 -43 -69 -65.5t-73 -22.5q-43 0 -66 33t-23 94q0 95 37.5 177
t94 128.5t117.5 46.5q33 0 66.5 -8.5t60.5 -23.5l-58 -244q-13 -55 -13 -91q0 -21 8.5 -32t23.5 -11q36 0 70 49t53.5 119t19.5 142q0 111 -57 168.5t-164 57.5q-100 0 -186.5 -72t-135 -183.5t-48.5 -237.5q0 -113 54.5 -174.5t153.5 -61.5q66 0 141 27zM341 58
q26 0 55.5 22t55.5 61q11 87 55 243l2 9q-20 8 -51 8q-41 0 -78 -41.5t-58.5 -103.5t-21.5 -126q0 -72 41 -72z" />
    <glyph glyph-name="A" unicode="A" horiz-adv-x="512" 
d="M356 0l-11 188h-202l-82 -188h-101l330 693h102l61 -693h-97zM175 260h167l-19 336z" />
    <glyph glyph-name="B" unicode="B" horiz-adv-x="513" 
d="M25 0l135 693h182q68 0 108.5 -40.5t40.5 -109.5q0 -67 -31 -117t-85 -72q41 -16 63.5 -49t22.5 -78q0 -67 -30.5 -119t-83.5 -80t-120 -28h-202zM176 319l-47 -246h111q54 0 90.5 45t36.5 112q0 40 -21.5 64.5t-56.5 24.5h-113zM235 621l-45 -231h104q46 0 77 41.5
t31 104.5q0 39 -21.5 62t-57.5 23h-88z" />
    <glyph glyph-name="C" unicode="C" horiz-adv-x="504" 
d="M446 54q-83 -69 -186 -69q-90 0 -140.5 65.5t-50.5 181.5q0 137 47.5 246t125.5 168.5t170 59.5q37 0 66.5 -8.5t57.5 -27.5l-14 -73q-51 27 -111 27q-71 0 -127 -52.5t-86.5 -138.5t-30.5 -189q0 -85 29.5 -131t85.5 -46q33 0 67.5 13.5t78.5 44.5z" />
    <glyph glyph-name="D" unicode="D" horiz-adv-x="580" 
d="M25 0l135 693h178q97 0 153 -66t56 -179q0 -129 -44.5 -232t-118 -159.5t-160.5 -56.5h-199zM239 619l-106 -545h89q66 0 118.5 51.5t81.5 136t29 183.5q0 81 -32.5 127.5t-89.5 46.5h-90z" />
    <glyph glyph-name="E" unicode="E" horiz-adv-x="458" 
d="M25 0l135 693h342l-15 -76h-248l-43 -221h207l-15 -76h-207l-47 -244h248l-15 -76h-342z" />
    <glyph glyph-name="F" unicode="F" horiz-adv-x="427" 
d="M179 309l-60 -309h-94l135 693h326l-15 -76h-232l-45 -232h188l-15 -76h-188z" />
    <glyph glyph-name="G" unicode="G" horiz-adv-x="575" 
d="M293 66q52 0 97 18l41 208h-113l15 75h199l-64 -330q-35 -24 -86 -38t-104 -14q-100 0 -154.5 66.5t-54.5 186.5q0 135 47.5 242.5t126 166.5t172.5 59q89 0 154 -42l-14 -73q-67 34 -143 34q-71 0 -127.5 -51.5t-87.5 -137t-31 -188.5q0 -89 32.5 -135.5t94.5 -46.5z
" />
    <glyph glyph-name="H" unicode="H" horiz-adv-x="583" 
d="M365 0l61 316h-245l-62 -316h-94l135 693h94l-58 -300h245l59 300h94l-135 -693h-94z" />
    <glyph glyph-name="I" unicode="I" horiz-adv-x="243" 
d="M25 0l135 693h94l-135 -693h-94z" />
    <glyph glyph-name="J" unicode="J" horiz-adv-x="358" 
d="M278 693h94l-99 -508q-19 -101 -66 -150.5t-122 -49.5q-54 0 -107 31l14 73q52 -23 92 -23q39 0 61.5 30t36.5 103z" />
    <glyph glyph-name="K" unicode="K" horiz-adv-x="502" 
d="M25 0l135 693h94l-60 -310l264 310h110l-299 -336l184 -357h-103l-165 340l-66 -340h-94z" />
    <glyph glyph-name="L" unicode="L" horiz-adv-x="420" 
d="M25 0l135 693h94l-120 -615h240l-15 -78h-334z" />
    <glyph glyph-name="M" unicode="M" horiz-adv-x="677" 
d="M469 0l105 537l-208 -359h-84l-66 372l-107 -550h-84l135 693h106l74 -427l246 427h102l-135 -693h-84z" />
    <glyph glyph-name="N" unicode="N" horiz-adv-x="580" 
d="M354 0l-139 547l-106 -547h-84l135 693h102l138 -548l107 548h84l-135 -693h-102z" />
    <glyph glyph-name="O" unicode="O" horiz-adv-x="627" 
d="M375 626q-65 0 -111.5 -54t-72.5 -147.5t-26 -188.5q0 -84 31.5 -127.5t91.5 -43.5q65 0 111.5 54t72.5 147.5t26 188.5q0 84 -31.5 127.5t-91.5 43.5zM380 706q102 0 158 -68t56 -190q0 -91 -25 -181.5t-67 -153.5t-97 -95.5t-122 -32.5q-102 0 -158 68t-56 190
q0 91 25 181.5t67 153.5t97 95.5t122 32.5z" />
    <glyph glyph-name="P" unicode="P" horiz-adv-x="496" 
d="M168 270l-52 -270h-91l135 693h173q79 0 123.5 -44.5t44.5 -123.5q0 -77 -32 -135t-87.5 -89t-126.5 -31h-87zM236 618l-53 -273h77q68 0 108 47.5t40 126.5q0 48 -25 73.5t-72 25.5h-75z" />
    <glyph glyph-name="Q" unicode="Q" horiz-adv-x="627" 
d="M380 706q102 0 158 -68t56 -190q0 -106 -33 -208t-88 -165.5t-128 -81.5q57 -54 158 -68l-17 -86q-68 12 -128 50.5t-102 97.5q-89 8 -138 75t-49 181q0 91 25 181.5t67 153.5t97 95.5t122 32.5zM375 626q-65 0 -111.5 -54t-72.5 -147.5t-26 -188.5q0 -84 31.5 -127.5
t91.5 -43.5q65 0 111.5 54t72.5 147.5t26 188.5q0 84 -31.5 127.5t-91.5 43.5z" />
    <glyph glyph-name="R" unicode="R" horiz-adv-x="504" 
d="M346 0l-86 281h-91l-54 -281h-90l135 693h171q79 0 124.5 -44.5t45.5 -120.5q0 -84 -41 -145.5t-114 -86.5l94 -296h-94zM184 356h78q67 0 106.5 45t39.5 120q0 48 -25.5 72.5t-74.5 24.5h-73z" />
    <glyph glyph-name="S" unicode="S" horiz-adv-x="460" 
d="M194 331q-50 32 -72 68.5t-22 86.5q0 65 29.5 115t78.5 77.5t109 27.5q84 0 139 -42l-14 -72q-46 33 -120 33q-60 0 -93.5 -32.5t-33.5 -92.5q0 -31 13.5 -52.5t44.5 -41.5l55 -35q51 -33 72.5 -68.5t21.5 -85.5q0 -68 -31 -121t-83 -82t-116 -29q-101 0 -161 46l14 72
q60 -37 144 -37q61 0 99 36.5t38 94.5q0 33 -14.5 57t-47.5 45z" />
    <glyph glyph-name="T" unicode="T" horiz-adv-x="459" 
d="M133 0l120 615h-168l15 78h430l-15 -78h-168l-120 -615h-94z" />
    <glyph glyph-name="U" unicode="U" horiz-adv-x="571" 
d="M491 693h94l-90 -462q-24 -124 -86 -185.5t-164 -61.5q-85 0 -132.5 48.5t-47.5 136.5q0 32 5 67t18 102l69 355h94l-70 -359q-23 -118 -23 -151q0 -116 100 -116q56 0 91 39t51 119z" />
    <glyph glyph-name="V" unicode="V" horiz-adv-x="511" 
d="M156 0l-61 693h99l33 -584l258 584h102l-331 -693h-100z" />
    <glyph glyph-name="W" unicode="W" horiz-adv-x="736" 
d="M410 0l10 544l-198 -544h-107l-15 693h98l-8 -584l200 554h109l-13 -546l212 576h105l-286 -693h-107z" />
    <glyph glyph-name="X" unicode="X" horiz-adv-x="483" 
d="M325 0l-79 279l-182 -279h-105l255 367l-100 326h99l69 -260l167 260h104l-239 -341l111 -352h-100z" />
    <glyph glyph-name="Y" unicode="Y" horiz-adv-x="484" 
d="M145 0l49 252l-95 441h98l59 -356l197 356h103l-271 -444l-48 -249h-92z" />
    <glyph glyph-name="Z" unicode="Z" horiz-adv-x="467" 
d="M-11 0l15 73l386 540h-268l16 80h375l-15 -73l-387 -540h284l-16 -80h-390z" />
    <glyph glyph-name="bracketleft" unicode="[" horiz-adv-x="300" 
d="M-3 -144l175 898h204l-15 -76h-110l-145 -746h110l-15 -76h-204z" />
    <glyph glyph-name="backslash" unicode="\" horiz-adv-x="388" 
d="M198 754l95 -898h-84l-95 898h84z" />
    <glyph glyph-name="bracketright" unicode="]" horiz-adv-x="300" 
d="M323 754l-175 -898h-204l15 76h110l145 746h-110l15 76h204z" />
    <glyph glyph-name="asciicircum" unicode="^" 
d="M353 304l-45 299l-161 -299h-92l232 389h75l78 -389h-87z" />
    <glyph glyph-name="underscore" unicode="_" horiz-adv-x="400" 
d="M-78 -146l15 74h400l-15 -74h-400z" />
    <glyph glyph-name="grave" unicode="`" horiz-adv-x="500" 
d="M318 601l-77 159h100l48 -159h-71z" />
    <glyph glyph-name="a" unicode="a" horiz-adv-x="460" 
d="M132 -13q-48 0 -74 40t-26 114q0 106 38.5 193.5t98.5 136.5t128 49q34 0 72 -10.5t69 -27.5l-94 -482h-75l6 77q-65 -90 -143 -90zM171 63q52 0 112 86l57 292q-28 7 -47 7q-45 0 -84 -44.5t-61.5 -112t-22.5 -138.5q0 -90 46 -90z" />
    <glyph glyph-name="b" unicode="b" horiz-adv-x="463" 
d="M193 438q65 82 140 82q47 0 72 -41t25 -118q0 -105 -36.5 -192t-95.5 -134.5t-130 -47.5q-38 0 -77.5 9.5t-69.5 26.5l140 717h91zM292 444q-54 0 -115 -87l-58 -292q27 -6 52 -6q48 0 86 40.5t59 106.5t21 139q0 48 -11.5 73.5t-33.5 25.5z" />
    <glyph glyph-name="c" unicode="c" horiz-adv-x="385" 
d="M326 48q-32 -30 -71.5 -45.5t-81.5 -15.5q-66 0 -102.5 44.5t-36.5 123.5q0 78 22.5 147t59 118t81.5 74.5t94 25.5q56 0 97 -27l-13 -68q-38 18 -77 18q-48 0 -87.5 -38.5t-61.5 -101t-22 -135.5q0 -55 16.5 -79.5t54.5 -24.5q44 0 109 45z" />
    <glyph glyph-name="d" unicode="d" horiz-adv-x="464" 
d="M273 0l6 78q-31 -44 -69 -67.5t-78 -23.5q-48 0 -74 40t-26 116q0 105 37 192t94.5 136t122.5 49q37 0 69 -16l46 236h91l-144 -740h-75zM171 63q27 0 56.5 22.5t59.5 64.5l57 290q-30 8 -52 8q-46 0 -84.5 -43t-60.5 -110t-22 -140q0 -92 46 -92z" />
    <glyph glyph-name="e" unicode="e" horiz-adv-x="417" 
d="M338 47q-77 -60 -172 -60q-63 0 -97.5 42.5t-34.5 120.5q0 106 36.5 191.5t96.5 132t131 46.5q49 0 76.5 -29.5t27.5 -80.5q0 -80 -60 -137.5t-173 -86.5l-46 -12v-8q0 -58 16 -82.5t53 -24.5q59 0 127 48zM278 449q-50 0 -92.5 -61t-57.5 -152l49 15q67 20 104.5 60
t37.5 91q0 22 -11 34.5t-30 12.5z" />
    <glyph glyph-name="f" unicode="f" horiz-adv-x="308" 
d="M37 0l84 433h-70l12 60l72 12l16 82q31 167 167 167q42 0 76 -22l-13 -67q-31 12 -59 12q-34 0 -52.5 -19t-26.5 -63l-16 -88h121l-15 -74h-120l-85 -433h-91z" />
    <glyph glyph-name="g" unicode="g" horiz-adv-x="466" 
d="M278 94q-31 -41 -67.5 -63t-73.5 -22q-50 0 -76.5 38.5t-26.5 109.5q0 101 37.5 185t97 131t126.5 47q36 0 77 -10.5t72 -27.5l-82 -421q-28 -143 -91 -211t-168 -68q-65 0 -116 35l14 70q49 -28 106 -28q67 0 105.5 48.5t60.5 161.5zM175 85q28 0 58.5 24.5t61.5 71.5
l51 260q-27 7 -53 7q-44 0 -83 -42t-61 -105.5t-22 -130.5q0 -85 48 -85z" />
    <glyph glyph-name="h" unicode="h" horiz-adv-x="487" 
d="M192 432q33 42 71.5 65t77.5 23q49 0 75.5 -31.5t26.5 -89.5q0 -22 -3 -44t-16 -91l-51 -264h-91l51 262q11 61 14.5 83.5t3.5 37.5q0 62 -47 62q-27 0 -62 -25t-65 -65l-69 -355h-91l144 740h91z" />
    <glyph glyph-name="i" unicode="i" horiz-adv-x="228" 
d="M118 507h91l-99 -507h-91zM188 601q-24 0 -38.5 13.5t-14.5 36.5q0 29 17.5 47.5t44.5 18.5q24 0 38.5 -13.5t14.5 -36.5q0 -29 -17.5 -47.5t-44.5 -18.5z" />
    <glyph glyph-name="j" unicode="j" horiz-adv-x="228" 
d="M209 507l-110 -563q-17 -85 -50 -123.5t-89 -38.5q-39 0 -71 20l12 62q18 -7 46 -7q24 0 38 20t23 67l110 563h91zM188 601q-24 0 -38.5 13.5t-14.5 36.5q0 29 17.5 47.5t44.5 18.5q24 0 38.5 -13.5t14.5 -36.5q0 -29 -17.5 -47.5t-44.5 -18.5z" />
    <glyph glyph-name="k" unicode="k" horiz-adv-x="434" 
d="M17 0l144 740h91l-87 -448l190 215h109l-223 -238l142 -269h-103l-123 252l-49 -252h-91z" />
    <glyph glyph-name="l" unicode="l" horiz-adv-x="253" 
d="M206 20q-36 -25 -87 -25q-39 0 -59.5 23t-20.5 66q0 26 12 87l111 569h91l-111 -569q-11 -54 -11 -70q0 -17 7 -24t22 -7t30 6z" />
    <glyph glyph-name="m" unicode="m" horiz-adv-x="730" 
d="M525 0l51 262q17 90 17 121q0 62 -42 62q-26 0 -59 -23.5t-64 -64.5q-4 -39 -14 -91l-52 -266h-91l51 262q17 90 17 121q0 62 -42 62q-25 0 -57.5 -26.5t-63.5 -70.5l-68 -348h-91l99 507h74l-5 -83q32 45 71 70.5t78 25.5q41 0 66 -24.5t30 -71.5q34 46 75 71t83 25
q47 0 72.5 -31.5t25.5 -89.5q0 -26 -3.5 -50t-14.5 -83l-52 -266h-91z" />
    <glyph glyph-name="n" unicode="n" horiz-adv-x="487" 
d="M282 0l51 262q11 61 14.5 83.5t3.5 37.5q0 62 -47 62q-27 0 -61.5 -24.5t-65.5 -65.5l-69 -355h-91l99 507h74l-5 -84q33 46 73.5 71.5t82.5 25.5q49 0 75.5 -31.5t26.5 -89.5q0 -22 -3 -44t-16 -91l-51 -264h-91z" />
    <glyph glyph-name="o" unicode="o" horiz-adv-x="467" 
d="M266 446q-42 0 -72.5 -39t-47.5 -106.5t-17 -132.5q0 -107 72 -107q42 0 72.5 39t47.5 106.5t17 132.5q0 107 -72 107zM197 -13q-75 0 -117 49.5t-42 138.5t31 173t82.5 128t118.5 44q75 0 117 -49.5t42 -138.5t-31 -173t-82.5 -128t-118.5 -44z" />
    <glyph glyph-name="p" unicode="p" horiz-adv-x="464" 
d="M-23 -206l139 713h74l-5 -78q32 44 70.5 67.5t77.5 23.5q47 0 72 -40.5t25 -118.5q0 -107 -35 -193t-93 -133.5t-126 -47.5q-35 0 -69 16l-40 -209h-90zM291 444q-52 0 -116 -89l-56 -289q21 -7 52 -7q47 0 85.5 40.5t59.5 105.5t21 141q0 47 -12 72.5t-34 25.5z" />
    <glyph glyph-name="q" unicode="q" horiz-adv-x="464" 
d="M271 67q-31 -39 -66.5 -59.5t-72.5 -20.5q-48 0 -74 40t-26 114q0 106 38.5 193.5t98.5 136.5t128 49q34 0 74.5 -10.5t70.5 -27.5l-134 -688h-90zM171 63q27 0 56.5 22t59.5 65l57 290q-29 8 -51 8q-45 0 -84 -44.5t-61.5 -112t-22.5 -138.5q0 -90 46 -90z" />
    <glyph glyph-name="r" unicode="r" horiz-adv-x="311" 
d="M17 0l99 507h74l-5 -84q27 42 61 65t71 23q18 0 33 -4l-17 -86q-21 4 -42 4q-64 0 -114 -69l-69 -356h-91z" />
    <glyph glyph-name="s" unicode="s" horiz-adv-x="338" 
d="M146 368q0 -21 9 -35.5t33 -31.5l39 -27q36 -25 51.5 -51.5t15.5 -62.5q0 -75 -48.5 -124t-123.5 -49q-79 0 -135 39l13 66q55 -33 117 -33q40 0 64 23.5t24 61.5q0 22 -9 37t-35 34l-37 26q-35 25 -50.5 52t-15.5 63q0 71 46 117.5t117 46.5q66 0 118 -35l-13 -65
q-46 28 -99 28q-38 0 -59.5 -21t-21.5 -59z" />
    <glyph glyph-name="t" unicode="t" horiz-adv-x="317" 
d="M276 33q-22 -18 -52 -28.5t-62 -10.5q-104 0 -104 101q0 16 3 37t13 73l44 228h-68l12 60l75 12l42 144h74l-30 -142h116l-15 -74h-115l-43 -222q-5 -29 -9 -48t-5.5 -31t-1.5 -20q0 -43 45 -43q33 0 65 19z" />
    <glyph glyph-name="u" unicode="u" horiz-adv-x="477" 
d="M286 0l7 86q-33 -47 -73.5 -73t-80.5 -26q-96 0 -96 118q0 47 17 138l52 264h91l-52 -262q-16 -80 -16 -126q0 -29 10 -42.5t31 -13.5q26 0 59.5 24.5t64.5 67.5l69 352h91l-99 -507h-75z" />
    <glyph glyph-name="v" unicode="v" horiz-adv-x="399" 
d="M108 0l-53 507h93l24 -424q40 76 86.5 191t87.5 233h92q-40 -114 -109.5 -258.5t-134.5 -248.5h-86z" />
    <glyph glyph-name="w" unicode="w" horiz-adv-x="594" 
d="M329 0l-3 402l-147 -402h-89l-34 507h91l8 -401l146 401h89l4 -417q81 192 146 417h92q-29 -101 -91 -247t-123 -260h-89z" />
    <glyph glyph-name="x" unicode="x" horiz-adv-x="389" 
d="M238 0l-58 191l-121 -191h-101l193 265l-88 242h93l54 -180l114 180h100l-184 -250l92 -257h-94z" />
    <glyph glyph-name="y" unicode="y" horiz-adv-x="396" 
d="M-57 -152q62 25 96 54q37 33 77 98l-61 507h93l32 -425q26 55 53 125t55 147t55 153h93q-46 -136 -121.5 -295.5t-134.5 -247.5q-53 -80 -100.5 -123t-99.5 -60z" />
    <glyph glyph-name="z" unicode="z" horiz-adv-x="386" 
d="M-17 0l14 71l284 359h-208l15 77h309l-14 -71l-285 -359h221l-15 -77h-321z" />
    <glyph glyph-name="braceleft" unicode="{" horiz-adv-x="312" 
d="M182 -78q23 0 41 7l13 -62q-34 -19 -88 -19q-48 0 -74 28t-26 81q0 25 3 47t15 82l13 66q13 69 13 87q0 22 -10 32t-32 10h-17l15 76h18q30 0 44.5 15t22.5 56l34 176q31 158 150 158q35 0 71 -16l-13 -65q-24 7 -44 7q-30 0 -46.5 -21.5t-26.5 -72.5l-31 -160
q-10 -50 -33 -78t-63 -39q56 -17 56 -74q0 -10 -4.5 -35t-12.5 -65l-13 -68q-16 -87 -16 -104q0 -49 41 -49z" />
    <glyph glyph-name="bar" unicode="|" horiz-adv-x="252" 
d="M-9 -206l187 960h91l-187 -960h-91z" />
    <glyph glyph-name="braceright" unicode="}" horiz-adv-x="312" 
d="M150 688q-23 0 -41 -7l-13 62q34 19 88 19q48 0 74 -28t26 -81q0 -25 -3 -47t-15 -82l-13 -66q-13 -69 -13 -87q0 -22 10 -32t32 -10h17l-15 -76h-18q-30 0 -44.5 -15t-22.5 -56l-34 -176q-31 -158 -150 -158q-35 0 -71 16l13 65q24 -7 44 -7q30 0 46.5 21.5t26.5 72.5
l31 160q10 49 33 77t62 39q-55 16 -55 75q0 10 4.5 35t12.5 65l13 68q16 87 16 104q0 49 -41 49z" />
    <glyph glyph-name="asciitilde" unicode="~" 
d="M238 316q-23 28 -36.5 38t-27.5 10q-19 0 -31 -15.5t-18 -49.5l-6 -33h-65q3 79 36 124.5t89 45.5q46 0 93 -56q23 -28 36.5 -38t27.5 -10q19 0 31 15.5t18 49.5l6 33h65q-3 -79 -36 -124.5t-89 -45.5q-46 0 -93 56z" />
    <glyph glyph-name="uni00A0" unicode="&#xa0;" horiz-adv-x="211" 
 />
    <glyph glyph-name="exclamdown" unicode="&#xa1;" horiz-adv-x="229" 
d="M159 299l-80 -485q-26 -13 -53 -13q-24 0 -47 13l107 485h73zM156 517q25 0 39.5 -15t14.5 -40q0 -31 -19 -52t-47 -21q-25 0 -39.5 15t-14.5 40q0 31 19 52t47 21z" />
    <glyph glyph-name="cent" unicode="&#xa2;" 
d="M186 -130l29 149q-64 4 -99 47.5t-35 117.5q0 91 32.5 169t86 127t116.5 61l30 152h52l-29 -150q46 -3 84 -26l-13 -66q-39 18 -83 18h-3l-72 -371q37 9 86 40l20 -59q-53 -46 -121 -57l-29 -152h-52zM172 197q0 -48 14 -72.5t44 -29.5l70 361q-57 -27 -92.5 -98
t-35.5 -161z" />
    <glyph glyph-name="sterling" unicode="&#xa3;" 
d="M239 307q-7 -74 -29 -127.5t-64 -98.5h258l-16 -81h-357l15 75q47 38 73.5 94.5t33.5 137.5h-82l15 76h70v52q0 124 58 197.5t155 73.5q39 0 75.5 -13.5t64.5 -39.5l-14 -72q-58 42 -125 42q-58 0 -90 -41t-35 -118l-2 -81h158l-15 -76h-147z" />
    <glyph glyph-name="currency" unicode="&#xa4;" 
d="M234 132q-61 0 -100 30l-79 -80l-47 49l82 83q-20 38 -20 90q0 53 16.5 99.5t47.5 79.5l-47 71l59 44l47 -71q41 21 90 21q57 0 100 -30l79 80l47 -49l-82 -83q20 -40 20 -90q0 -54 -16.5 -100t-47.5 -80l47 -70l-59 -44l-47 70q-42 -20 -90 -20zM278 480
q-59 0 -93.5 -47.5t-34.5 -130.5q0 -50 22.5 -76t66.5 -26q59 0 93.5 47.5t34.5 130.5q0 50 -22.5 76t-66.5 26z" />
    <glyph glyph-name="yen" unicode="&#xa5;" 
d="M265 157l-30 -157h-88l30 157h-132l12 62h132l7 32l-12 60h-109l12 62h86l-61 320h99l46 -358l185 358h99l-187 -320h86l-12 -62h-110l-34 -59l-7 -33h133l-12 -62h-133z" />
    <glyph glyph-name="brokenbar" unicode="&#xa6;" horiz-adv-x="252" 
d="M108 397l70 357h91l-70 -357h-91zM-9 -206l70 357h91l-70 -357h-91z" />
    <glyph glyph-name="section" unicode="&#xa7;" horiz-adv-x="393" 
d="M126 165q-43 28 -62 58.5t-19 70.5q0 56 28.5 93t83.5 53q-49 42 -49 104q0 48 23 85t61.5 57t86.5 20q73 0 123 -33l-13 -65q-49 26 -104 26q-43 0 -67 -21t-24 -59q0 -24 11.5 -41t36.5 -33l42 -27q43 -28 63.5 -60.5t20.5 -72.5q0 -113 -101 -155q38 -38 38 -92
q0 -50 -24 -88.5t-64.5 -59.5t-89.5 -21q-81 0 -139 38l13 66q56 -32 121 -32q43 0 69.5 22.5t26.5 59.5q0 26 -11 43.5t-40 36.5zM209 404q-78 -18 -78 -95q0 -28 12 -47t43 -39l33 -22q62 29 62 104q0 28 -13.5 49t-44.5 41z" />
    <glyph glyph-name="dieresis" unicode="&#xa8;" horiz-adv-x="500" 
d="M243 596q-23 0 -36.5 13t-13.5 35q0 26 16 44.5t42 18.5q23 0 36.5 -13t13.5 -35q0 -26 -16 -44.5t-42 -18.5zM411 596q-23 0 -36.5 13t-13.5 35q0 26 16 44.5t42 18.5q23 0 36.5 -13t13.5 -35q0 -26 -16 -44.5t-42 -18.5z" />
    <glyph glyph-name="copyright" unicode="&#xa9;" horiz-adv-x="672" 
d="M354 -7q-94 0 -165 46t-109 125.5t-38 180.5q0 106 40.5 186t111 123t160.5 43q94 0 165 -46t109 -125.5t38 -180.5q0 -106 -40.5 -186t-111 -123t-160.5 -43zM354 52q76 0 132.5 37.5t86.5 103.5t30 152q0 89 -32 155.5t-88 102t-129 35.5q-76 0 -132.5 -37.5
t-86.5 -103.5t-30 -152q0 -89 32 -155.5t88 -102t129 -35.5zM449 167q-38 -20 -78 -20q-73 0 -111.5 51.5t-38.5 151.5q0 98 39 150.5t112 52.5q37 0 74 -20v-58q-35 14 -66 14q-43 0 -63.5 -31t-20.5 -98v-18q0 -68 20.5 -99.5t66.5 -31.5q28 0 66 14v-58z" />
    <glyph glyph-name="ordfeminine" unicode="&#xaa;" horiz-adv-x="330" 
d="M270 603q0 45 -52 45q-45 0 -89 -23l-9 49q24 14 55 22.5t60 8.5q49 0 76 -22.5t27 -62.5q0 -25 -5 -48l-44 -226h-56v36q-46 -46 -90 -46q-34 0 -54.5 23t-20.5 62q0 57 34.5 92.5t90.5 35.5q28 0 66 -13l7 36q4 19 4 31zM31 219l11 55h233l-11 -55h-233zM175 389
q23 0 62 34l14 71q-26 8 -49 8q-30 0 -48 -20t-18 -52q0 -41 39 -41z" />
    <glyph glyph-name="guillemotleft" unicode="&#xab;" horiz-adv-x="453" 
d="M133 251l66 -200h-82l-74 208l149 208h88zM300 251l66 -200h-82l-74 208l149 208h88z" />
    <glyph glyph-name="logicalnot" unicode="&#xac;" 
d="M352 234l32 167h-305l15 74h383l-47 -241h-78z" />
    <glyph glyph-name="uni00AD" unicode="&#xad;" horiz-adv-x="334" 
d="M35 220l15 78h251l-15 -78h-251z" />
    <glyph glyph-name="registered" unicode="&#xae;" horiz-adv-x="472" 
d="M286 282q-64 0 -112 30.5t-73.5 83t-25.5 118.5q0 104 58.5 168.5t152.5 64.5q64 0 112.5 -30t74.5 -82.5t26 -119.5q0 -71 -27.5 -124t-75.5 -81t-110 -28zM286 326q76 0 121.5 51.5t45.5 137.5t-45.5 137t-121.5 51q-75 0 -120 -51.5t-45 -137.5q0 -85 45 -136.5
t120 -51.5zM213 386v262h84q34 0 53 -22t19 -61q0 -26 -11 -44.5t-30 -26.5l55 -108h-46l-49 102h-34v-102h-41zM254 524h35q17 0 26.5 11t9.5 30q0 20 -9 32.5t-23 12.5h-39v-86z" />
    <glyph glyph-name="macron" unicode="&#xaf;" horiz-adv-x="500" 
d="M198 638l12 61h257l-12 -61h-257z" />
    <glyph glyph-name="degree" unicode="&#xb0;" horiz-adv-x="318" 
d="M206 433q-50 0 -80.5 30.5t-30.5 80.5q0 46 18.5 81.5t50 55.5t70.5 20q50 0 80.5 -30.5t30.5 -80.5q0 -46 -18.5 -81.5t-50 -55.5t-70.5 -20zM231 649q-33 0 -55.5 -28.5t-22.5 -71.5q0 -30 15 -47t41 -17q33 0 55.5 28.5t22.5 71.5q0 30 -15 47t-41 17z" />
    <glyph glyph-name="plusminus" unicode="&#xb1;" 
d="M306 379l-34 -173h-79l34 173h-152l14 74h152l34 173h79l-34 -173h152l-14 -74h-152zM7 28l14 74h383l-14 -74h-383z" />
    <glyph glyph-name="uni00B2" unicode="&#xb2;" horiz-adv-x="336" 
d="M359 697q0 -30 -14 -60t-48 -69.5t-116 -116.5h143l-12 -61h-226l11 56q85 82 121.5 120.5t52 64.5t15.5 50q0 21 -12 33t-36 12q-41 0 -80 -33l-10 54q48 41 114 41q44 0 70.5 -25t26.5 -66z" />
    <glyph glyph-name="uni00B3" unicode="&#xb3;" horiz-adv-x="336" 
d="M250 614q39 -1 62.5 -26t23.5 -65q0 -62 -42.5 -101.5t-107.5 -39.5q-54 0 -95 26l11 54q38 -22 83 -22q36 0 58.5 21t22.5 56q0 49 -62 49q-20 0 -41 -3l8 40l111 117h-130l12 60h204l-11 -54z" />
    <glyph glyph-name="acute" unicode="&#xb4;" horiz-adv-x="500" 
d="M232 601l105 159h105l-134 -159h-76z" />
    <glyph glyph-name="mu" unicode="&#xb5;" 
d="M454 18q-15 -10 -36.5 -16.5t-41.5 -6.5q-36 0 -56 21t-22 60q-28 -43 -60 -66t-65 -23q-50 0 -66 49l-47 -242h-85l139 713h91l-51 -262q-16 -83 -16 -117t11 -50t34 -16q27 0 58 22t60 61l70 362h91l-64 -329q-11 -59 -11 -76q0 -33 26 -33q13 0 26 5z" />
    <glyph glyph-name="paragraph" unicode="&#xb6;" horiz-adv-x="496" 
d="M503 693l-155 -797h-72l141 727h-78l-161 -829h-72l88 452q-59 17 -90.5 60.5t-31.5 108.5q0 128 70.5 203t189.5 75h171z" />
    <glyph glyph-name="periodcentered" unicode="&#xb7;" horiz-adv-x="226" 
d="M108 197q-25 0 -39.5 15t-14.5 40q0 31 19 52t47 21q25 0 39.5 -15t14.5 -40q0 -31 -19 -52t-47 -21z" />
    <glyph glyph-name="cedilla" unicode="&#xb8;" horiz-adv-x="500" 
d="M108 -242q45 33 64.5 56t19.5 43q0 23 -26 23q-14 0 -27 -3l10 51q25 9 52 9q30 0 47 -17t17 -45q0 -42 -31 -79.5t-97 -75.5z" />
    <glyph glyph-name="uni00B9" unicode="&#xb9;" horiz-adv-x="336" 
d="M192 390l61 317l-103 -47l12 63l114 57h61l-76 -390h-69z" />
    <glyph glyph-name="ordmasculine" unicode="&#xba;" horiz-adv-x="347" 
d="M41 219l11 55h251l-11 -55h-251zM199 333q-54 0 -84 34.5t-30 96.5q0 63 22.5 121.5t59 89t84.5 30.5q54 0 84 -34.5t30 -96.5q0 -63 -22.5 -121.5t-59 -89t-84.5 -30.5zM246 646q-28 0 -48 -26t-31.5 -70.5t-11.5 -86.5q0 -71 49 -71q28 0 48 26t31.5 70.5t11.5 86.5
q0 71 -49 71z" />
    <glyph glyph-name="guillemotright" unicode="&#xbb;" horiz-adv-x="453" 
d="M8 51l147 216l-66 200h82l74 -208l-149 -208h-88zM175 51l147 216l-66 200h82l74 -208l-149 -208h-88z" />
    <glyph glyph-name="onequarter" unicode="&#xbc;" horiz-adv-x="790" 
d="M197 0l386 693h77l-386 -693h-77zM603 0l16 81h-165l11 55l209 254h65l-49 -253h48l-11 -56h-48l-16 -81h-60zM630 137l31 163l-134 -163h103zM175 303l61 317l-103 -47l12 63l114 57h61l-76 -390h-69z" />
    <glyph glyph-name="onehalf" unicode="&#xbd;" horiz-adv-x="790" 
d="M176 0l386 693h77l-386 -693h-77zM735 307q0 -30 -14 -60t-48 -69.5t-116 -116.5h143l-12 -61h-226l11 56q85 82 121.5 120.5t52 64.5t15.5 50q0 21 -12 33t-36 12q-41 0 -80 -33l-10 54q48 41 114 41q44 0 70.5 -25t26.5 -66zM175 303l61 317l-103 -47l12 63l114 57h61
l-76 -390h-69z" />
    <glyph glyph-name="threequarters" unicode="&#xbe;" horiz-adv-x="790" 
d="M202 0l386 693h77l-386 -693h-77zM603 0l16 81h-165l11 55l209 254h65l-49 -253h48l-11 -56h-48l-16 -81h-60zM630 137l31 163l-134 -163h103zM233 527q39 -1 62.5 -26t23.5 -65q0 -62 -42.5 -101.5t-107.5 -39.5q-54 0 -95 26l11 54q38 -22 83 -22q36 0 58.5 21t22.5 56
q0 49 -62 49q-20 0 -41 -3l8 40l111 117h-130l12 60h204l-11 -54z" />
    <glyph glyph-name="questiondown" unicode="&#xbf;" horiz-adv-x="363" 
d="M260 298l-25 -156l-41 -22q-128 -69 -128 -166q0 -76 77 -76q54 0 113 39l11 -67q-30 -23 -69 -36.5t-79 -13.5q-64 0 -104 39t-40 103q0 137 186 238l23 118h76zM248 516q25 0 39.5 -15t14.5 -40q0 -31 -19 -52t-47 -21q-25 0 -39.5 15t-14.5 40q0 31 19 52t47 21z" />
    <glyph glyph-name="Agrave" unicode="&#xc0;" horiz-adv-x="512" 
d="M356 0l-11 188h-202l-82 -188h-101l330 693h102l61 -693h-97zM175 260h167l-19 336zM301 769l-81 122h101l57 -122h-77z" />
    <glyph glyph-name="Aacute" unicode="&#xc1;" horiz-adv-x="512" 
d="M356 0l-11 188h-202l-82 -188h-101l330 693h102l61 -693h-97zM175 260h167l-19 336zM385 769h-82l101 122h106z" />
    <glyph glyph-name="Acircumflex" unicode="&#xc2;" horiz-adv-x="512" 
d="M356 0l-11 188h-202l-82 -188h-101l330 693h102l61 -693h-97zM175 260h167l-19 336zM362 851l-89 -80h-78l128 130h92l78 -130h-72z" />
    <glyph glyph-name="Atilde" unicode="&#xc3;" horiz-adv-x="512" 
d="M356 0l-11 188h-202l-82 -188h-101l330 693h102l61 -693h-97zM175 260h167l-19 336zM448 895h55q0 -14 -4 -31q-10 -45 -35 -69.5t-60 -24.5q-19 0 -33.5 8t-30.5 28q-17 21 -23.5 26.5t-14.5 5.5q-10 0 -16.5 -9t-12.5 -31l-7 -25h-55q0 14 4 31q9 44 34 69t60 25
q20 0 35 -8.5t30 -28.5q15 -18 22 -24.5t16 -6.5q21 0 30 39z" />
    <glyph glyph-name="Adieresis" unicode="&#xc4;" horiz-adv-x="512" 
d="M356 0l-11 188h-202l-82 -188h-101l330 693h102l61 -693h-97zM175 260h167l-19 336zM273 780q-23 0 -37 13.5t-14 35.5q0 27 16.5 45.5t42.5 18.5q23 0 37 -13.5t14 -35.5q0 -27 -16.5 -45.5t-42.5 -18.5zM441 780q-23 0 -37 13.5t-14 35.5q0 27 16.5 45.5t42.5 18.5
q23 0 37 -13.5t14 -35.5q0 -27 -16.5 -45.5t-42.5 -18.5z" />
    <glyph glyph-name="Aring" unicode="&#xc5;" horiz-adv-x="512" 
d="M356 0l-11 188h-202l-82 -188h-101l330 693h102l61 -693h-97zM175 260h167l-19 336zM353 739q-41 0 -67 23.5t-26 60.5q0 48 32 78.5t81 30.5q41 0 67 -23.5t26 -60.5q0 -48 -32 -78.5t-81 -30.5zM371 886q-25 0 -39.5 -16.5t-14.5 -45.5q0 -17 10.5 -28t27.5 -11
q25 0 39.5 16.5t14.5 45.5q0 17 -10.5 28t-27.5 11z" />
    <glyph glyph-name="AE" unicode="&#xc6;" horiz-adv-x="762" 
d="M329 0l40 205h-178l-123 -205h-108l440 693h406l-15 -76h-248l-43 -221h207l-15 -76h-207l-47 -244h248l-15 -76h-342zM440 617l-206 -341h149l66 341h-9z" />
    <glyph glyph-name="Ccedilla" unicode="&#xc7;" horiz-adv-x="504" 
d="M446 54q-83 -69 -186 -69q-90 0 -140.5 65.5t-50.5 181.5q0 137 47.5 246t125.5 168.5t170 59.5q37 0 66.5 -8.5t57.5 -27.5l-14 -73q-51 27 -111 27q-71 0 -127 -52.5t-86.5 -138.5t-30.5 -189q0 -85 29.5 -131t85.5 -46q33 0 67.5 13.5t78.5 44.5zM164 -240
q83 60 83 97q0 21 -24 21q-14 0 -27 -3l10 53q25 9 52 9q30 0 47 -17t17 -45q0 -42 -31 -79.5t-97 -75.5z" />
    <glyph glyph-name="Egrave" unicode="&#xc8;" horiz-adv-x="458" 
d="M25 0l135 693h342l-15 -76h-248l-43 -221h207l-15 -76h-207l-47 -244h248l-15 -76h-342zM296 769l-81 122h101l57 -122h-77z" />
    <glyph glyph-name="Eacute" unicode="&#xc9;" horiz-adv-x="458" 
d="M25 0l135 693h342l-15 -76h-248l-43 -221h207l-15 -76h-207l-47 -244h248l-15 -76h-342zM380 769h-82l101 122h106z" />
    <glyph glyph-name="Ecircumflex" unicode="&#xca;" horiz-adv-x="458" 
d="M25 0l135 693h342l-15 -76h-248l-43 -221h207l-15 -76h-207l-47 -244h248l-15 -76h-342zM357 851l-89 -80h-78l128 130h92l78 -130h-72z" />
    <glyph glyph-name="Edieresis" unicode="&#xcb;" horiz-adv-x="458" 
d="M25 0l135 693h342l-15 -76h-248l-43 -221h207l-15 -76h-207l-47 -244h248l-15 -76h-342zM268 780q-23 0 -37 13.5t-14 35.5q0 27 16.5 45.5t42.5 18.5q23 0 37 -13.5t14 -35.5q0 -27 -16.5 -45.5t-42.5 -18.5zM436 780q-23 0 -37 13.5t-14 35.5q0 27 16.5 45.5t42.5 18.5
q23 0 37 -13.5t14 -35.5q0 -27 -16.5 -45.5t-42.5 -18.5z" />
    <glyph glyph-name="Igrave" unicode="&#xcc;" horiz-adv-x="243" 
d="M25 0l135 693h94l-135 -693h-94zM172 769l-81 122h101l57 -122h-77z" />
    <glyph glyph-name="Iacute" unicode="&#xcd;" horiz-adv-x="243" 
d="M25 0l135 693h94l-135 -693h-94zM256 769h-82l101 122h106z" />
    <glyph glyph-name="Icircumflex" unicode="&#xce;" horiz-adv-x="243" 
d="M25 0l135 693h94l-135 -693h-94zM233 851l-89 -80h-78l128 130h92l78 -130h-72z" />
    <glyph glyph-name="Idieresis" unicode="&#xcf;" horiz-adv-x="243" 
d="M25 0l135 693h94l-135 -693h-94zM144 780q-23 0 -37 13.5t-14 35.5q0 27 16.5 45.5t42.5 18.5q23 0 37 -13.5t14 -35.5q0 -27 -16.5 -45.5t-42.5 -18.5zM312 780q-23 0 -37 13.5t-14 35.5q0 27 16.5 45.5t42.5 18.5q23 0 37 -13.5t14 -35.5q0 -27 -16.5 -45.5
t-42.5 -18.5z" />
    <glyph glyph-name="Eth" unicode="&#xd0;" horiz-adv-x="590" 
d="M35 0l62 322h-61l14 69h61l59 302h178q97 0 153 -66t56 -179q0 -129 -44.5 -232t-118 -159.5t-160.5 -56.5h-199zM191 322l-48 -248h89q66 0 118.5 51.5t81.5 136t29 183.5q0 81 -32.5 127.5t-89.5 46.5h-90l-44 -228h117l-14 -69h-117z" />
    <glyph glyph-name="Ntilde" unicode="&#xd1;" horiz-adv-x="580" 
d="M354 0l-139 547l-106 -547h-84l135 693h102l138 -548l107 548h84l-135 -693h-102zM487 895h55q0 -14 -4 -31q-10 -45 -35 -69.5t-60 -24.5q-19 0 -33.5 8t-30.5 28q-17 21 -23.5 26.5t-14.5 5.5q-10 0 -16.5 -9t-12.5 -31l-7 -25h-55q0 14 4 31q9 44 34 69t60 25
q20 0 35 -8.5t30 -28.5q15 -18 22 -24.5t16 -6.5q21 0 30 39z" />
    <glyph glyph-name="Ograve" unicode="&#xd2;" horiz-adv-x="627" 
d="M375 626q-65 0 -111.5 -54t-72.5 -147.5t-26 -188.5q0 -84 31.5 -127.5t91.5 -43.5q65 0 111.5 54t72.5 147.5t26 188.5q0 84 -31.5 127.5t-91.5 43.5zM380 706q102 0 158 -68t56 -190q0 -91 -25 -181.5t-67 -153.5t-97 -95.5t-122 -32.5q-102 0 -158 68t-56 190
q0 91 25 181.5t67 153.5t97 95.5t122 32.5zM356 769l-81 122h101l57 -122h-77z" />
    <glyph glyph-name="Oacute" unicode="&#xd3;" horiz-adv-x="627" 
d="M375 626q-65 0 -111.5 -54t-72.5 -147.5t-26 -188.5q0 -84 31.5 -127.5t91.5 -43.5q65 0 111.5 54t72.5 147.5t26 188.5q0 84 -31.5 127.5t-91.5 43.5zM380 706q102 0 158 -68t56 -190q0 -91 -25 -181.5t-67 -153.5t-97 -95.5t-122 -32.5q-102 0 -158 68t-56 190
q0 91 25 181.5t67 153.5t97 95.5t122 32.5zM440 769h-82l101 122h106z" />
    <glyph glyph-name="Ocircumflex" unicode="&#xd4;" horiz-adv-x="627" 
d="M375 626q-65 0 -111.5 -54t-72.5 -147.5t-26 -188.5q0 -84 31.5 -127.5t91.5 -43.5q65 0 111.5 54t72.5 147.5t26 188.5q0 84 -31.5 127.5t-91.5 43.5zM380 706q102 0 158 -68t56 -190q0 -91 -25 -181.5t-67 -153.5t-97 -95.5t-122 -32.5q-102 0 -158 68t-56 190
q0 91 25 181.5t67 153.5t97 95.5t122 32.5zM417 851l-89 -80h-78l128 130h92l78 -130h-72z" />
    <glyph glyph-name="Otilde" unicode="&#xd5;" horiz-adv-x="627" 
d="M375 626q-65 0 -111.5 -54t-72.5 -147.5t-26 -188.5q0 -84 31.5 -127.5t91.5 -43.5q65 0 111.5 54t72.5 147.5t26 188.5q0 84 -31.5 127.5t-91.5 43.5zM380 706q102 0 158 -68t56 -190q0 -91 -25 -181.5t-67 -153.5t-97 -95.5t-122 -32.5q-102 0 -158 68t-56 190
q0 91 25 181.5t67 153.5t97 95.5t122 32.5zM503 895h55q0 -14 -4 -31q-10 -45 -35 -69.5t-60 -24.5q-19 0 -33.5 8t-30.5 28q-17 21 -23.5 26.5t-14.5 5.5q-10 0 -16.5 -9t-12.5 -31l-7 -25h-55q0 14 4 31q9 44 34 69t60 25q20 0 35 -8.5t30 -28.5q15 -18 22 -24.5t16 -6.5
q21 0 30 39z" />
    <glyph glyph-name="Odieresis" unicode="&#xd6;" horiz-adv-x="627" 
d="M375 626q-65 0 -111.5 -54t-72.5 -147.5t-26 -188.5q0 -84 31.5 -127.5t91.5 -43.5q65 0 111.5 54t72.5 147.5t26 188.5q0 84 -31.5 127.5t-91.5 43.5zM380 706q102 0 158 -68t56 -190q0 -91 -25 -181.5t-67 -153.5t-97 -95.5t-122 -32.5q-102 0 -158 68t-56 190
q0 91 25 181.5t67 153.5t97 95.5t122 32.5zM328 780q-23 0 -37 13.5t-14 35.5q0 27 16.5 45.5t42.5 18.5q23 0 37 -13.5t14 -35.5q0 -27 -16.5 -45.5t-42.5 -18.5zM496 780q-23 0 -37 13.5t-14 35.5q0 27 16.5 45.5t42.5 18.5q23 0 37 -13.5t14 -35.5q0 -27 -16.5 -45.5
t-42.5 -18.5z" />
    <glyph glyph-name="multiply" unicode="&#xd7;" 
d="M307 337l88 -141l-59 -49l-85 136l-138 -136l-41 59l141 138l-88 142l59 49l84 -136l139 136l41 -59z" />
    <glyph glyph-name="Oslash" unicode="&#xd8;" horiz-adv-x="627" 
d="M20 -1l77 97q-28 60 -28 147q0 91 25 181.5t67 153.5t97 95.5t122 32.5q98 0 153 -63l68 86l43 -39l-78 -98q28 -59 28 -144q0 -91 -25 -181.5t-67 -153.5t-97 -95.5t-122 -32.5q-97 0 -152 61l-68 -86zM376 626q-66 0 -112.5 -53.5t-73 -147t-26.5 -189.5q0 -31 4 -52
l307 387q-31 55 -99 55zM499 455q0 18 -4 48l-306 -385q30 -53 98 -53q66 0 112.5 53.5t73 147t26.5 189.5z" />
    <glyph glyph-name="Ugrave" unicode="&#xd9;" horiz-adv-x="571" 
d="M491 693h94l-90 -462q-24 -124 -86 -185.5t-164 -61.5q-85 0 -132.5 48.5t-47.5 136.5q0 32 5 67t18 102l69 355h94l-70 -359q-23 -118 -23 -151q0 -116 100 -116q56 0 91 39t51 119zM329 769l-81 122h101l57 -122h-77z" />
    <glyph glyph-name="Uacute" unicode="&#xda;" horiz-adv-x="571" 
d="M491 693h94l-90 -462q-24 -124 -86 -185.5t-164 -61.5q-85 0 -132.5 48.5t-47.5 136.5q0 32 5 67t18 102l69 355h94l-70 -359q-23 -118 -23 -151q0 -116 100 -116q56 0 91 39t51 119zM413 769h-82l101 122h106z" />
    <glyph glyph-name="Ucircumflex" unicode="&#xdb;" horiz-adv-x="571" 
d="M491 693h94l-90 -462q-24 -124 -86 -185.5t-164 -61.5q-85 0 -132.5 48.5t-47.5 136.5q0 32 5 67t18 102l69 355h94l-70 -359q-23 -118 -23 -151q0 -116 100 -116q56 0 91 39t51 119zM390 851l-89 -80h-78l128 130h92l78 -130h-72z" />
    <glyph glyph-name="Udieresis" unicode="&#xdc;" horiz-adv-x="571" 
d="M491 693h94l-90 -462q-24 -124 -86 -185.5t-164 -61.5q-85 0 -132.5 48.5t-47.5 136.5q0 32 5 67t18 102l69 355h94l-70 -359q-23 -118 -23 -151q0 -116 100 -116q56 0 91 39t51 119zM301 780q-23 0 -37 13.5t-14 35.5q0 27 16.5 45.5t42.5 18.5q23 0 37 -13.5t14 -35.5
q0 -27 -16.5 -45.5t-42.5 -18.5zM469 780q-23 0 -37 13.5t-14 35.5q0 27 16.5 45.5t42.5 18.5q23 0 37 -13.5t14 -35.5q0 -27 -16.5 -45.5t-42.5 -18.5z" />
    <glyph glyph-name="Yacute" unicode="&#xdd;" horiz-adv-x="484" 
d="M145 0l49 252l-95 441h98l59 -356l197 356h103l-271 -444l-48 -249h-92zM376 769h-82l101 122h106z" />
    <glyph glyph-name="Thorn" unicode="&#xde;" horiz-adv-x="489" 
d="M225 563h80q77 0 121 -44.5t44 -121.5q0 -76 -31.5 -133.5t-86.5 -88t-125 -30.5h-83l-28 -145h-91l135 693h91zM211 488l-53 -268h74q65 0 105 47t40 124q0 47 -24.5 72t-70.5 25h-71z" />
    <glyph glyph-name="germandbls" unicode="&#xdf;" horiz-adv-x="487" 
d="M182 85q49 -26 98 -26q39 0 61 22.5t22 60.5q0 42 -37 79l-23 23q-29 29 -42 54t-13 51q0 40 18 71.5t65 72.5q31 28 45.5 56t14.5 61t-17.5 52.5t-48.5 19.5q-43 0 -71.5 -41t-45.5 -128l-100 -513h-91l101 518q46 236 214 236q64 0 104.5 -37t40.5 -97q0 -48 -24 -90.5
t-76 -87.5q-24 -20 -34.5 -39t-10.5 -42q0 -16 9 -31.5t31 -37.5l22 -22q55 -55 55 -114q0 -51 -21.5 -89.5t-58.5 -59t-84 -20.5q-66 0 -116 31z" />
    <glyph glyph-name="agrave" unicode="&#xe0;" horiz-adv-x="460" 
d="M132 -13q-48 0 -74 40t-26 114q0 106 38.5 193.5t98.5 136.5t128 49q34 0 72 -10.5t69 -27.5l-94 -482h-75l6 77q-65 -90 -143 -90zM171 63q52 0 112 86l57 292q-28 7 -47 7q-45 0 -84 -44.5t-61.5 -112t-22.5 -138.5q0 -90 46 -90zM255 601l-77 159h100l48 -159h-71z
" />
    <glyph glyph-name="aacute" unicode="&#xe1;" horiz-adv-x="460" 
d="M132 -13q-48 0 -74 40t-26 114q0 106 38.5 193.5t98.5 136.5t128 49q34 0 72 -10.5t69 -27.5l-94 -482h-75l6 77q-65 -90 -143 -90zM171 63q52 0 112 86l57 292q-28 7 -47 7q-45 0 -84 -44.5t-61.5 -112t-22.5 -138.5q0 -90 46 -90zM259 601l105 159h105l-134 -159h-76z
" />
    <glyph glyph-name="acircumflex" unicode="&#xe2;" horiz-adv-x="460" 
d="M132 -13q-48 0 -74 40t-26 114q0 106 38.5 193.5t98.5 136.5t128 49q34 0 72 -10.5t69 -27.5l-94 -482h-75l6 77q-65 -90 -143 -90zM171 63q52 0 112 86l57 292q-28 7 -47 7q-45 0 -84 -44.5t-61.5 -112t-22.5 -138.5q0 -90 46 -90zM320 705l-94 -104h-78l133 160h94
l71 -160h-72z" />
    <glyph glyph-name="atilde" unicode="&#xe3;" horiz-adv-x="460" 
d="M132 -13q-48 0 -74 40t-26 114q0 106 38.5 193.5t98.5 136.5t128 49q34 0 72 -10.5t69 -27.5l-94 -482h-75l6 77q-65 -90 -143 -90zM171 63q52 0 112 86l57 292q-28 7 -47 7q-45 0 -84 -44.5t-61.5 -112t-22.5 -138.5q0 -90 46 -90zM411 729h54q-1 -18 -4 -31
q-10 -45 -35 -69.5t-60 -24.5q-19 0 -32.5 7.5t-30.5 29.5q-15 20 -23 26.5t-16 6.5q-10 0 -17.5 -10t-12.5 -31l-7 -26h-54q1 18 4 31q9 44 34.5 69t60.5 25q20 0 34 -8.5t29 -28.5q16 -21 23.5 -27t15.5 -6q10 0 17.5 10t12.5 31z" />
    <glyph glyph-name="adieresis" unicode="&#xe4;" horiz-adv-x="460" 
d="M132 -13q-48 0 -74 40t-26 114q0 106 38.5 193.5t98.5 136.5t128 49q34 0 72 -10.5t69 -27.5l-94 -482h-75l6 77q-65 -90 -143 -90zM171 63q52 0 112 86l57 292q-28 7 -47 7q-45 0 -84 -44.5t-61.5 -112t-22.5 -138.5q0 -90 46 -90zM230 596q-23 0 -36.5 13t-13.5 35
q0 26 16 44.5t42 18.5q23 0 36.5 -13t13.5 -35q0 -26 -16 -44.5t-42 -18.5zM398 596q-23 0 -36.5 13t-13.5 35q0 26 16 44.5t42 18.5q23 0 36.5 -13t13.5 -35q0 -26 -16 -44.5t-42 -18.5z" />
    <glyph glyph-name="aring" unicode="&#xe5;" horiz-adv-x="460" 
d="M132 -13q-48 0 -74 40t-26 114q0 106 38.5 193.5t98.5 136.5t128 49q34 0 72 -10.5t69 -27.5l-94 -482h-75l6 77q-65 -90 -143 -90zM171 63q52 0 112 86l57 292q-28 7 -47 7q-45 0 -84 -44.5t-61.5 -112t-22.5 -138.5q0 -90 46 -90zM310 585q-43 0 -70.5 25.5t-27.5 66.5
q0 52 33 85.5t85 33.5q43 0 70.5 -25.5t27.5 -66.5q0 -52 -33 -85.5t-85 -33.5zM329 748q-27 0 -43.5 -19t-16.5 -51q0 -20 11.5 -32.5t30.5 -12.5q27 0 43.5 19t16.5 51q0 20 -11.5 32.5t-30.5 12.5z" />
    <glyph glyph-name="ae" unicode="&#xe6;" horiz-adv-x="676" 
d="M132 -13q-48 0 -74 40t-26 114q0 106 38.5 193.5t98.5 136.5t128 49q65 0 122 -52q61 52 138 52q49 0 76.5 -29.5t27.5 -80.5q0 -80 -60 -138t-173 -86l-46 -12v-8q0 -58 16 -82.5t53 -24.5q59 0 127 48l19 -60q-77 -60 -172 -60q-54 0 -87 30.5t-42 87.5
q-65 -118 -164 -118zM304 258q21 97 70 161q-40 29 -81 29q-45 0 -84 -44.5t-61.5 -112t-22.5 -138.5q0 -90 46 -90q42 0 77.5 52.5t55.5 142.5zM537 449q-50 0 -92.5 -61t-57.5 -152l49 15q67 20 104.5 60t37.5 91q0 22 -11 34.5t-30 12.5z" />
    <glyph glyph-name="ccedilla" unicode="&#xe7;" horiz-adv-x="385" 
d="M326 48q-32 -30 -71.5 -45.5t-81.5 -15.5q-66 0 -102.5 44.5t-36.5 123.5q0 78 22.5 147t59 118t81.5 74.5t94 25.5q56 0 97 -27l-13 -68q-38 18 -77 18q-48 0 -87.5 -38.5t-61.5 -101t-22 -135.5q0 -55 16.5 -79.5t54.5 -24.5q44 0 109 45zM74 -242q45 33 64.5 56
t19.5 43q0 23 -26 23q-14 0 -27 -3l10 51q25 9 52 9q30 0 47 -17t17 -45q0 -42 -31 -79.5t-97 -75.5z" />
    <glyph glyph-name="egrave" unicode="&#xe8;" horiz-adv-x="417" 
d="M338 47q-77 -60 -172 -60q-63 0 -97.5 42.5t-34.5 120.5q0 106 36.5 191.5t96.5 132t131 46.5q49 0 76.5 -29.5t27.5 -80.5q0 -80 -60 -137.5t-173 -86.5l-46 -12v-8q0 -58 16 -82.5t53 -24.5q59 0 127 48zM278 449q-50 0 -92.5 -61t-57.5 -152l49 15q67 20 104.5 60
t37.5 91q0 22 -11 34.5t-30 12.5zM249 601l-77 159h100l48 -159h-71z" />
    <glyph glyph-name="eacute" unicode="&#xe9;" horiz-adv-x="417" 
d="M338 47q-77 -60 -172 -60q-63 0 -97.5 42.5t-34.5 120.5q0 106 36.5 191.5t96.5 132t131 46.5q49 0 76.5 -29.5t27.5 -80.5q0 -80 -60 -137.5t-173 -86.5l-46 -12v-8q0 -58 16 -82.5t53 -24.5q59 0 127 48zM278 449q-50 0 -92.5 -61t-57.5 -152l49 15q67 20 104.5 60
t37.5 91q0 22 -11 34.5t-30 12.5zM253 601l105 159h105l-134 -159h-76z" />
    <glyph glyph-name="ecircumflex" unicode="&#xea;" horiz-adv-x="417" 
d="M338 47q-77 -60 -172 -60q-63 0 -97.5 42.5t-34.5 120.5q0 106 36.5 191.5t96.5 132t131 46.5q49 0 76.5 -29.5t27.5 -80.5q0 -80 -60 -137.5t-173 -86.5l-46 -12v-8q0 -58 16 -82.5t53 -24.5q59 0 127 48zM278 449q-50 0 -92.5 -61t-57.5 -152l49 15q67 20 104.5 60
t37.5 91q0 22 -11 34.5t-30 12.5zM314 705l-94 -104h-78l133 160h94l71 -160h-72z" />
    <glyph glyph-name="edieresis" unicode="&#xeb;" horiz-adv-x="417" 
d="M338 47q-77 -60 -172 -60q-63 0 -97.5 42.5t-34.5 120.5q0 106 36.5 191.5t96.5 132t131 46.5q49 0 76.5 -29.5t27.5 -80.5q0 -80 -60 -137.5t-173 -86.5l-46 -12v-8q0 -58 16 -82.5t53 -24.5q59 0 127 48zM278 449q-50 0 -92.5 -61t-57.5 -152l49 15q67 20 104.5 60
t37.5 91q0 22 -11 34.5t-30 12.5zM224 596q-23 0 -36.5 13t-13.5 35q0 26 16 44.5t42 18.5q23 0 36.5 -13t13.5 -35q0 -26 -16 -44.5t-42 -18.5zM392 596q-23 0 -36.5 13t-13.5 35q0 26 16 44.5t42 18.5q23 0 36.5 -13t13.5 -35q0 -26 -16 -44.5t-42 -18.5z" />
    <glyph glyph-name="igrave" unicode="&#xec;" horiz-adv-x="228" 
d="M118 507h91l-99 -507h-91zM125 601l-77 159h100l48 -159h-71z" />
    <glyph glyph-name="iacute" unicode="&#xed;" horiz-adv-x="228" 
d="M118 507h91l-99 -507h-91zM129 601l105 159h105l-134 -159h-76z" />
    <glyph glyph-name="icircumflex" unicode="&#xee;" horiz-adv-x="228" 
d="M118 507h91l-99 -507h-91zM190 705l-94 -104h-78l133 160h94l71 -160h-72z" />
    <glyph glyph-name="idieresis" unicode="&#xef;" horiz-adv-x="228" 
d="M118 507h91l-99 -507h-91zM100 596q-23 0 -36.5 13t-13.5 35q0 26 16 44.5t42 18.5q23 0 36.5 -13t13.5 -35q0 -26 -16 -44.5t-42 -18.5zM268 596q-23 0 -36.5 13t-13.5 35q0 26 16 44.5t42 18.5q23 0 36.5 -13t13.5 -35q0 -26 -16 -44.5t-42 -18.5z" />
    <glyph glyph-name="eth" unicode="&#xf0;" horiz-adv-x="462" 
d="M351 650q38 -49 56 -117t18 -162q0 -121 -29 -207t-82 -131.5t-121 -45.5q-73 0 -115 47t-42 130q0 93 28.5 166.5t76.5 112.5t108 39q34 0 61.5 -16t43.5 -46q-6 65 -20 108t-39 74l-85 -73l-30 41l78 67q-31 22 -77 42l15 77q74 -28 121 -69l88 75l30 -41zM255 413
q-58 0 -93.5 -68t-35.5 -174q0 -55 19.5 -84t55.5 -29q39 0 69.5 33.5t47.5 89t17 119.5q0 54 -21 83.5t-59 29.5z" />
    <glyph glyph-name="ntilde" unicode="&#xf1;" horiz-adv-x="487" 
d="M282 0l51 262q11 61 14.5 83.5t3.5 37.5q0 62 -47 62q-27 0 -61.5 -24.5t-65.5 -65.5l-69 -355h-91l99 507h74l-5 -84q33 46 73.5 71.5t82.5 25.5q49 0 75.5 -31.5t26.5 -89.5q0 -22 -3 -44t-16 -91l-51 -264h-91zM413 729h54q-1 -18 -4 -31q-10 -45 -35 -69.5t-60 -24.5
q-19 0 -32.5 7.5t-30.5 29.5q-15 20 -23 26.5t-16 6.5q-10 0 -17.5 -10t-12.5 -31l-7 -26h-54q1 18 4 31q9 44 34.5 69t60.5 25q20 0 34 -8.5t29 -28.5q16 -21 23.5 -27t15.5 -6q10 0 17.5 10t12.5 31z" />
    <glyph glyph-name="ograve" unicode="&#xf2;" horiz-adv-x="467" 
d="M266 446q-42 0 -72.5 -39t-47.5 -106.5t-17 -132.5q0 -107 72 -107q42 0 72.5 39t47.5 106.5t17 132.5q0 107 -72 107zM197 -13q-75 0 -117 49.5t-42 138.5t31 173t82.5 128t118.5 44q75 0 117 -49.5t42 -138.5t-31 -173t-82.5 -128t-118.5 -44zM240 601l-77 159h100
l48 -159h-71z" />
    <glyph glyph-name="oacute" unicode="&#xf3;" horiz-adv-x="467" 
d="M266 446q-42 0 -72.5 -39t-47.5 -106.5t-17 -132.5q0 -107 72 -107q42 0 72.5 39t47.5 106.5t17 132.5q0 107 -72 107zM197 -13q-75 0 -117 49.5t-42 138.5t31 173t82.5 128t118.5 44q75 0 117 -49.5t42 -138.5t-31 -173t-82.5 -128t-118.5 -44zM244 601l105 159h105
l-134 -159h-76z" />
    <glyph glyph-name="ocircumflex" unicode="&#xf4;" horiz-adv-x="467" 
d="M266 446q-42 0 -72.5 -39t-47.5 -106.5t-17 -132.5q0 -107 72 -107q42 0 72.5 39t47.5 106.5t17 132.5q0 107 -72 107zM197 -13q-75 0 -117 49.5t-42 138.5t31 173t82.5 128t118.5 44q75 0 117 -49.5t42 -138.5t-31 -173t-82.5 -128t-118.5 -44zM305 705l-94 -104h-78
l133 160h94l71 -160h-72z" />
    <glyph glyph-name="otilde" unicode="&#xf5;" horiz-adv-x="467" 
d="M266 446q-42 0 -72.5 -39t-47.5 -106.5t-17 -132.5q0 -107 72 -107q42 0 72.5 39t47.5 106.5t17 132.5q0 107 -72 107zM197 -13q-75 0 -117 49.5t-42 138.5t31 173t82.5 128t118.5 44q75 0 117 -49.5t42 -138.5t-31 -173t-82.5 -128t-118.5 -44zM396 729h54
q-1 -18 -4 -31q-10 -45 -35 -69.5t-60 -24.5q-19 0 -32.5 7.5t-30.5 29.5q-15 20 -23 26.5t-16 6.5q-10 0 -17.5 -10t-12.5 -31l-7 -26h-54q1 18 4 31q9 44 34.5 69t60.5 25q20 0 34 -8.5t29 -28.5q16 -21 23.5 -27t15.5 -6q10 0 17.5 10t12.5 31z" />
    <glyph glyph-name="odieresis" unicode="&#xf6;" horiz-adv-x="467" 
d="M266 446q-42 0 -72.5 -39t-47.5 -106.5t-17 -132.5q0 -107 72 -107q42 0 72.5 39t47.5 106.5t17 132.5q0 107 -72 107zM197 -13q-75 0 -117 49.5t-42 138.5t31 173t82.5 128t118.5 44q75 0 117 -49.5t42 -138.5t-31 -173t-82.5 -128t-118.5 -44zM215 596q-23 0 -36.5 13
t-13.5 35q0 26 16 44.5t42 18.5q23 0 36.5 -13t13.5 -35q0 -26 -16 -44.5t-42 -18.5zM383 596q-23 0 -36.5 13t-13.5 35q0 26 16 44.5t42 18.5q23 0 36.5 -13t13.5 -35q0 -26 -16 -44.5t-42 -18.5z" />
    <glyph glyph-name="divide" unicode="&#xf7;" 
d="M62 311l14 74h383l-14 -74h-383zM222 112q-23 0 -36 13t-13 35q0 28 16 46.5t41 18.5q23 0 36 -13t13 -35q0 -28 -16 -46.5t-41 -18.5zM291 471q-23 0 -36 13t-13 35q0 28 16 46.5t41 18.5q23 0 36 -13t13 -35q0 -28 -16 -46.5t-41 -18.5z" />
    <glyph glyph-name="oslash" unicode="&#xf8;" horiz-adv-x="467" 
d="M2 3l55 69q-19 44 -19 103q0 89 31 173t82.5 128t118.5 44q68 0 110 -42l48 61l39 -36l-57 -71q19 -44 19 -100q0 -89 -31 -173t-82.5 -128t-118.5 -44t-109 40l-47 -60zM267 446q-43 0 -74 -39t-48 -106.5t-17 -132.5v-7l198 250q-18 35 -59 35zM200 61q43 0 74 39
t48 106.5t17 132.5v3l-197 -248q17 -33 58 -33z" />
    <glyph glyph-name="ugrave" unicode="&#xf9;" horiz-adv-x="477" 
d="M286 0l7 86q-33 -47 -73.5 -73t-80.5 -26q-96 0 -96 118q0 47 17 138l52 264h91l-52 -262q-16 -80 -16 -126q0 -29 10 -42.5t31 -13.5q26 0 59.5 24.5t64.5 67.5l69 352h91l-99 -507h-75zM250 601l-77 159h100l48 -159h-71z" />
    <glyph glyph-name="uacute" unicode="&#xfa;" horiz-adv-x="477" 
d="M286 0l7 86q-33 -47 -73.5 -73t-80.5 -26q-96 0 -96 118q0 47 17 138l52 264h91l-52 -262q-16 -80 -16 -126q0 -29 10 -42.5t31 -13.5q26 0 59.5 24.5t64.5 67.5l69 352h91l-99 -507h-75zM254 601l105 159h105l-134 -159h-76z" />
    <glyph glyph-name="ucircumflex" unicode="&#xfb;" horiz-adv-x="477" 
d="M286 0l7 86q-33 -47 -73.5 -73t-80.5 -26q-96 0 -96 118q0 47 17 138l52 264h91l-52 -262q-16 -80 -16 -126q0 -29 10 -42.5t31 -13.5q26 0 59.5 24.5t64.5 67.5l69 352h91l-99 -507h-75zM315 705l-94 -104h-78l133 160h94l71 -160h-72z" />
    <glyph glyph-name="udieresis" unicode="&#xfc;" horiz-adv-x="477" 
d="M286 0l7 86q-33 -47 -73.5 -73t-80.5 -26q-96 0 -96 118q0 47 17 138l52 264h91l-52 -262q-16 -80 -16 -126q0 -29 10 -42.5t31 -13.5q26 0 59.5 24.5t64.5 67.5l69 352h91l-99 -507h-75zM225 596q-23 0 -36.5 13t-13.5 35q0 26 16 44.5t42 18.5q23 0 36.5 -13t13.5 -35
q0 -26 -16 -44.5t-42 -18.5zM393 596q-23 0 -36.5 13t-13.5 35q0 26 16 44.5t42 18.5q23 0 36.5 -13t13.5 -35q0 -26 -16 -44.5t-42 -18.5z" />
    <glyph glyph-name="yacute" unicode="&#xfd;" horiz-adv-x="396" 
d="M-57 -152q62 25 96 54q37 33 77 98l-61 507h93l32 -425q26 55 53 125t55 147t55 153h93q-46 -136 -121.5 -295.5t-134.5 -247.5q-53 -80 -100.5 -123t-99.5 -60zM206 601l105 159h105l-134 -159h-76z" />
    <glyph glyph-name="thorn" unicode="&#xfe;" horiz-adv-x="464" 
d="M161 740h91l-59 -302q65 82 140 82q47 0 72 -41t25 -118q0 -107 -35 -193t-93 -133.5t-126 -47.5q-36 0 -68 16l-41 -209h-90zM292 444q-26 0 -55.5 -22t-59.5 -64l-57 -292q26 -7 51 -7q36 0 67.5 24.5t53.5 65t33.5 91t11.5 105.5q0 48 -11.5 73.5t-33.5 25.5z" />
    <glyph glyph-name="ydieresis" unicode="&#xff;" horiz-adv-x="396" 
d="M-57 -152q62 25 96 54q37 33 77 98l-61 507h93l32 -425q26 55 53 125t55 147t55 153h93q-46 -136 -121.5 -295.5t-134.5 -247.5q-53 -80 -100.5 -123t-99.5 -60zM177 596q-23 0 -36.5 13t-13.5 35q0 26 16 44.5t42 18.5q23 0 36.5 -13t13.5 -35q0 -26 -16 -44.5
t-42 -18.5zM345 596q-23 0 -36.5 13t-13.5 35q0 26 16 44.5t42 18.5q23 0 36.5 -13t13.5 -35q0 -26 -16 -44.5t-42 -18.5z" />
    <glyph glyph-name="Amacron" unicode="&#x100;" horiz-adv-x="512" 
d="M356 0l-11 188h-202l-82 -188h-101l330 693h102l61 -693h-97zM175 260h167l-19 336zM224 801l12 63h257l-12 -63h-257z" />
    <glyph glyph-name="amacron" unicode="&#x101;" horiz-adv-x="460" 
d="M132 -13q-48 0 -74 40t-26 114q0 106 38.5 193.5t98.5 136.5t128 49q34 0 72 -10.5t69 -27.5l-94 -482h-75l6 77q-65 -90 -143 -90zM171 63q52 0 112 86l57 292q-28 7 -47 7q-45 0 -84 -44.5t-61.5 -112t-22.5 -138.5q0 -90 46 -90zM185 638l12 61h257l-12 -61h-257z" />
    <glyph glyph-name="Abreve" unicode="&#x102;" horiz-adv-x="512" 
d="M356 0l-11 188h-202l-82 -188h-101l330 693h102l61 -693h-97zM175 260h167l-19 336zM432 898h57q-2 -60 -42 -96t-102 -36q-45 0 -71 22t-26 60q0 28 11 50h55q-4 -16 -4 -28q0 -43 46 -43q29 0 48.5 16t25.5 45z" />
    <glyph glyph-name="abreve" unicode="&#x103;" horiz-adv-x="460" 
d="M132 -13q-48 0 -74 40t-26 114q0 106 38.5 193.5t98.5 136.5t128 49q34 0 72 -10.5t69 -27.5l-94 -482h-75l6 77q-65 -90 -143 -90zM171 63q52 0 112 86l57 292q-28 7 -47 7q-45 0 -84 -44.5t-61.5 -112t-22.5 -138.5q0 -90 46 -90zM391 749h56q-4 -69 -43 -109.5
t-100 -40.5q-46 0 -72.5 25t-26.5 68q0 28 13 57h53q-4 -23 -4 -39q0 -25 12 -38t34 -13q57 0 73 70z" />
    <glyph glyph-name="Aogonek" unicode="&#x104;" horiz-adv-x="512" 
d="M356 0l-11 188h-202l-82 -188h-101l330 693h102l61 -693h-97zM175 260h167l-19 336zM449 -195q-42 -24 -86 -24q-39 0 -59 18.5t-20 51.5q0 86 121 162l48 -13q-46 -38 -68 -69t-22 -59q0 -31 29 -31q17 0 39 11z" />
    <glyph glyph-name="aogonek" unicode="&#x105;" horiz-adv-x="460" 
d="M132 -13q-48 0 -74 40t-26 114q0 106 38.5 193.5t98.5 136.5t128 49q34 0 72 -10.5t69 -27.5l-94 -482h-75l6 77q-65 -90 -143 -90zM171 63q52 0 112 86l57 292q-28 7 -47 7q-45 0 -84 -44.5t-61.5 -112t-22.5 -138.5q0 -90 46 -90zM340 -195q-42 -24 -84 -24
q-39 0 -59 18.5t-20 51.5q0 86 121 162l46 -13q-47 -38 -68.5 -69t-21.5 -59q0 -33 31 -33q16 0 38 11z" />
    <glyph glyph-name="Cacute" unicode="&#x106;" horiz-adv-x="504" 
d="M446 54q-83 -69 -186 -69q-90 0 -140.5 65.5t-50.5 181.5q0 137 47.5 246t125.5 168.5t170 59.5q37 0 66.5 -8.5t57.5 -27.5l-14 -73q-51 27 -111 27q-71 0 -127 -52.5t-86.5 -138.5t-30.5 -189q0 -85 29.5 -131t85.5 -46q33 0 67.5 13.5t78.5 44.5zM453 769h-82l101 122
h106z" />
    <glyph glyph-name="cacute" unicode="&#x107;" horiz-adv-x="385" 
d="M326 48q-32 -30 -71.5 -45.5t-81.5 -15.5q-66 0 -102.5 44.5t-36.5 123.5q0 78 22.5 147t59 118t81.5 74.5t94 25.5q56 0 97 -27l-13 -68q-38 18 -77 18q-48 0 -87.5 -38.5t-61.5 -101t-22 -135.5q0 -55 16.5 -79.5t54.5 -24.5q44 0 109 45zM253 601l105 159h105
l-134 -159h-76z" />
    <glyph glyph-name="Ccircumflex" unicode="&#x108;" horiz-adv-x="504" 
d="M446 54q-83 -69 -186 -69q-90 0 -140.5 65.5t-50.5 181.5q0 137 47.5 246t125.5 168.5t170 59.5q37 0 66.5 -8.5t57.5 -27.5l-14 -73q-51 27 -111 27q-71 0 -127 -52.5t-86.5 -138.5t-30.5 -189q0 -85 29.5 -131t85.5 -46q33 0 67.5 13.5t78.5 44.5zM430 851l-89 -80h-78
l128 130h92l78 -130h-72z" />
    <glyph glyph-name="ccircumflex" unicode="&#x109;" horiz-adv-x="385" 
d="M326 48q-32 -30 -71.5 -45.5t-81.5 -15.5q-66 0 -102.5 44.5t-36.5 123.5q0 78 22.5 147t59 118t81.5 74.5t94 25.5q56 0 97 -27l-13 -68q-38 18 -77 18q-48 0 -87.5 -38.5t-61.5 -101t-22 -135.5q0 -55 16.5 -79.5t54.5 -24.5q44 0 109 45zM314 705l-94 -104h-78
l133 160h94l71 -160h-72z" />
    <glyph glyph-name="Cdotaccent" unicode="&#x10a;" horiz-adv-x="504" 
d="M446 54q-83 -69 -186 -69q-90 0 -140.5 65.5t-50.5 181.5q0 137 47.5 246t125.5 168.5t170 59.5q37 0 66.5 -8.5t57.5 -27.5l-14 -73q-51 27 -111 27q-71 0 -127 -52.5t-86.5 -138.5t-30.5 -189q0 -85 29.5 -131t85.5 -46q33 0 67.5 13.5t78.5 44.5zM422 780
q-25 0 -39.5 13.5t-14.5 37.5q0 28 17 47.5t45 19.5q25 0 39.5 -13.5t14.5 -37.5q0 -28 -17 -47.5t-45 -19.5z" />
    <glyph glyph-name="cdotaccent" unicode="&#x10b;" horiz-adv-x="385" 
d="M326 48q-32 -30 -71.5 -45.5t-81.5 -15.5q-66 0 -102.5 44.5t-36.5 123.5q0 78 22.5 147t59 118t81.5 74.5t94 25.5q56 0 97 -27l-13 -68q-38 18 -77 18q-48 0 -87.5 -38.5t-61.5 -101t-22 -135.5q0 -55 16.5 -79.5t54.5 -24.5q44 0 109 45zM309 599q-24 0 -38.5 13.5
t-14.5 36.5q0 28 17 47t44 19q24 0 38.5 -13.5t14.5 -36.5q0 -28 -17 -47t-44 -19z" />
    <glyph glyph-name="Ccaron" unicode="&#x10c;" horiz-adv-x="504" 
d="M446 54q-83 -69 -186 -69q-90 0 -140.5 65.5t-50.5 181.5q0 137 47.5 246t125.5 168.5t170 59.5q37 0 66.5 -8.5t57.5 -27.5l-14 -73q-51 27 -111 27q-71 0 -127 -52.5t-86.5 -138.5t-30.5 -189q0 -85 29.5 -131t85.5 -46q33 0 67.5 13.5t78.5 44.5zM366 901l48 -94
l84 94h86l-128 -130h-92l-78 130h80z" />
    <glyph glyph-name="ccaron" unicode="&#x10d;" horiz-adv-x="385" 
d="M326 48q-32 -30 -71.5 -45.5t-81.5 -15.5q-66 0 -102.5 44.5t-36.5 123.5q0 78 22.5 147t59 118t81.5 74.5t94 25.5q56 0 97 -27l-13 -68q-38 18 -77 18q-48 0 -87.5 -38.5t-61.5 -101t-22 -135.5q0 -55 16.5 -79.5t54.5 -24.5q44 0 109 45zM261 761l38 -120l86 120h90
l-133 -160h-94l-71 160h84z" />
    <glyph glyph-name="Dcaron" unicode="&#x10e;" horiz-adv-x="580" 
d="M25 0l135 693h178q97 0 153 -66t56 -179q0 -129 -44.5 -232t-118 -159.5t-160.5 -56.5h-199zM239 619l-106 -545h89q66 0 118.5 51.5t81.5 136t29 183.5q0 81 -32.5 127.5t-89.5 46.5h-90zM305 901l48 -94l84 94h86l-128 -130h-92l-78 130h80z" />
    <glyph glyph-name="dcaron" unicode="&#x10f;" horiz-adv-x="551" 
d="M273 0l6 78q-31 -44 -69 -67.5t-78 -23.5q-48 0 -74 40t-26 116q0 105 37 192t94.5 136t122.5 49q37 0 69 -16l46 236h91l-144 -740h-75zM171 63q27 0 56.5 22.5t59.5 64.5l57 290q-30 8 -52 8q-46 0 -84.5 -43t-60.5 -110t-22 -140q0 -92 46 -92zM540 546l39 197
q21 9 44 9q26 0 42 -14l-67 -192h-58z" />
    <glyph glyph-name="Dcroat" unicode="&#x110;" horiz-adv-x="590" 
d="M35 0l62 322h-61l14 69h61l59 302h178q97 0 153 -66t56 -179q0 -129 -44.5 -232t-118 -159.5t-160.5 -56.5h-199zM191 322l-48 -248h89q66 0 118.5 51.5t81.5 136t29 183.5q0 81 -32.5 127.5t-89.5 46.5h-90l-44 -228h117l-14 -69h-117z" />
    <glyph glyph-name="dcroat" unicode="&#x111;" horiz-adv-x="464" 
d="M273 0l6 78q-31 -44 -69 -67.5t-78 -23.5q-48 0 -74 40t-26 116q0 105 37 192t94.5 136t122.5 49q37 0 69 -16l18 91h-125l13 64h124l16 81h91l-16 -81h59l-13 -64h-58l-116 -595h-75zM171 63q27 0 56.5 22.5t59.5 64.5l57 290q-30 8 -52 8q-46 0 -84.5 -43t-60.5 -110
t-22 -140q0 -92 46 -92z" />
    <glyph glyph-name="Emacron" unicode="&#x112;" horiz-adv-x="458" 
d="M25 0l135 693h342l-15 -76h-248l-43 -221h207l-15 -76h-207l-47 -244h248l-15 -76h-342zM219 801l12 63h257l-12 -63h-257z" />
    <glyph glyph-name="emacron" unicode="&#x113;" horiz-adv-x="417" 
d="M338 47q-77 -60 -172 -60q-63 0 -97.5 42.5t-34.5 120.5q0 106 36.5 191.5t96.5 132t131 46.5q49 0 76.5 -29.5t27.5 -80.5q0 -80 -60 -137.5t-173 -86.5l-46 -12v-8q0 -58 16 -82.5t53 -24.5q59 0 127 48zM278 449q-50 0 -92.5 -61t-57.5 -152l49 15q67 20 104.5 60
t37.5 91q0 22 -11 34.5t-30 12.5zM179 638l12 61h257l-12 -61h-257z" />
    <glyph glyph-name="Ebreve" unicode="&#x114;" horiz-adv-x="458" 
d="M25 0l135 693h342l-15 -76h-248l-43 -221h207l-15 -76h-207l-47 -244h248l-15 -76h-342zM427 898h57q-2 -60 -42 -96t-102 -36q-45 0 -71 22t-26 60q0 28 11 50h55q-4 -16 -4 -28q0 -43 46 -43q29 0 48.5 16t25.5 45z" />
    <glyph glyph-name="ebreve" unicode="&#x115;" horiz-adv-x="417" 
d="M338 47q-77 -60 -172 -60q-63 0 -97.5 42.5t-34.5 120.5q0 106 36.5 191.5t96.5 132t131 46.5q49 0 76.5 -29.5t27.5 -80.5q0 -80 -60 -137.5t-173 -86.5l-46 -12v-8q0 -58 16 -82.5t53 -24.5q59 0 127 48zM278 449q-50 0 -92.5 -61t-57.5 -152l49 15q67 20 104.5 60
t37.5 91q0 22 -11 34.5t-30 12.5zM385 749h56q-4 -69 -43 -109.5t-100 -40.5q-46 0 -72.5 25t-26.5 68q0 28 13 57h53q-4 -23 -4 -39q0 -25 12 -38t34 -13q57 0 73 70z" />
    <glyph glyph-name="Edotaccent" unicode="&#x116;" horiz-adv-x="458" 
d="M25 0l135 693h342l-15 -76h-248l-43 -221h207l-15 -76h-207l-47 -244h248l-15 -76h-342zM349 780q-25 0 -39.5 13.5t-14.5 37.5q0 28 17 47.5t45 19.5q25 0 39.5 -13.5t14.5 -37.5q0 -28 -17 -47.5t-45 -19.5z" />
    <glyph glyph-name="edotaccent" unicode="&#x117;" horiz-adv-x="417" 
d="M338 47q-77 -60 -172 -60q-63 0 -97.5 42.5t-34.5 120.5q0 106 36.5 191.5t96.5 132t131 46.5q49 0 76.5 -29.5t27.5 -80.5q0 -80 -60 -137.5t-173 -86.5l-46 -12v-8q0 -58 16 -82.5t53 -24.5q59 0 127 48zM278 449q-50 0 -92.5 -61t-57.5 -152l49 15q67 20 104.5 60
t37.5 91q0 22 -11 34.5t-30 12.5zM309 599q-24 0 -38.5 13.5t-14.5 36.5q0 28 17 47t44 19q24 0 38.5 -13.5t14.5 -36.5q0 -28 -17 -47t-44 -19z" />
    <glyph glyph-name="Eogonek" unicode="&#x118;" horiz-adv-x="458" 
d="M25 0l135 693h342l-15 -76h-248l-43 -221h207l-15 -76h-207l-47 -244h248l-15 -76h-342zM363 -195q-42 -24 -86 -24q-39 0 -59 18.5t-20 51.5q0 86 121 162l48 -13q-46 -38 -68 -69t-22 -59q0 -31 29 -31q17 0 39 11z" />
    <glyph glyph-name="eogonek" unicode="&#x119;" horiz-adv-x="417" 
d="M34 150q0 106 36.5 191.5t96.5 132t131 46.5q49 0 76.5 -29.5t27.5 -80.5q0 -80 -60 -137.5t-173 -86.5l-46 -12v-8q0 -58 16 -82.5t53 -24.5q59 0 127 48l19 -60q-31 -23 -60 -37q-47 -23 -77.5 -63t-30.5 -77q0 -15 8.5 -23t22.5 -8q16 0 38 11l17 -45q-42 -24 -84 -24
q-38 0 -58.5 17.5t-20.5 49.5q0 37 21.5 72.5t61.5 66.5h-10q-63 0 -97.5 42.5t-34.5 120.5zM177 251q67 20 104.5 60t37.5 91q0 22 -11 34.5t-30 12.5q-50 0 -92.5 -61t-57.5 -152z" />
    <glyph glyph-name="Ecaron" unicode="&#x11a;" horiz-adv-x="458" 
d="M25 0l135 693h342l-15 -76h-248l-43 -221h207l-15 -76h-207l-47 -244h248l-15 -76h-342zM293 901l48 -94l84 94h86l-128 -130h-92l-78 130h80z" />
    <glyph glyph-name="ecaron" unicode="&#x11b;" horiz-adv-x="417" 
d="M338 47q-77 -60 -172 -60q-63 0 -97.5 42.5t-34.5 120.5q0 106 36.5 191.5t96.5 132t131 46.5q49 0 76.5 -29.5t27.5 -80.5q0 -80 -60 -137.5t-173 -86.5l-46 -12v-8q0 -58 16 -82.5t53 -24.5q59 0 127 48zM278 449q-50 0 -92.5 -61t-57.5 -152l49 15q67 20 104.5 60
t37.5 91q0 22 -11 34.5t-30 12.5zM261 761l38 -120l86 120h90l-133 -160h-94l-71 160h84z" />
    <glyph glyph-name="Gcircumflex" unicode="&#x11c;" horiz-adv-x="575" 
d="M293 66q52 0 97 18l41 208h-113l15 75h199l-64 -330q-35 -24 -86 -38t-104 -14q-100 0 -154.5 66.5t-54.5 186.5q0 135 47.5 242.5t126 166.5t172.5 59q89 0 154 -42l-14 -73q-67 34 -143 34q-71 0 -127.5 -51.5t-87.5 -137t-31 -188.5q0 -89 32.5 -135.5t94.5 -46.5z
M432 851l-89 -80h-78l128 130h92l78 -130h-72z" />
    <glyph glyph-name="gcircumflex" unicode="&#x11d;" horiz-adv-x="466" 
d="M278 94q-31 -41 -67.5 -63t-73.5 -22q-50 0 -76.5 38.5t-26.5 109.5q0 101 37.5 185t97 131t126.5 47q36 0 77 -10.5t72 -27.5l-82 -421q-28 -143 -91 -211t-168 -68q-65 0 -116 35l14 70q49 -28 106 -28q67 0 105.5 48.5t60.5 161.5zM175 85q28 0 58.5 24.5t61.5 71.5
l51 260q-27 7 -53 7q-44 0 -83 -42t-61 -105.5t-22 -130.5q0 -85 48 -85zM325 705l-94 -104h-78l133 160h94l71 -160h-72z" />
    <glyph glyph-name="Gbreve" unicode="&#x11e;" horiz-adv-x="575" 
d="M293 66q52 0 97 18l41 208h-113l15 75h199l-64 -330q-35 -24 -86 -38t-104 -14q-100 0 -154.5 66.5t-54.5 186.5q0 135 47.5 242.5t126 166.5t172.5 59q89 0 154 -42l-14 -73q-67 34 -143 34q-71 0 -127.5 -51.5t-87.5 -137t-31 -188.5q0 -89 32.5 -135.5t94.5 -46.5z
M502 898h57q-2 -60 -42 -96t-102 -36q-45 0 -71 22t-26 60q0 28 11 50h55q-4 -16 -4 -28q0 -43 46 -43q29 0 48.5 16t25.5 45z" />
    <glyph glyph-name="gbreve" unicode="&#x11f;" horiz-adv-x="466" 
d="M278 94q-31 -41 -67.5 -63t-73.5 -22q-50 0 -76.5 38.5t-26.5 109.5q0 101 37.5 185t97 131t126.5 47q36 0 77 -10.5t72 -27.5l-82 -421q-28 -143 -91 -211t-168 -68q-65 0 -116 35l14 70q49 -28 106 -28q67 0 105.5 48.5t60.5 161.5zM175 85q28 0 58.5 24.5t61.5 71.5
l51 260q-27 7 -53 7q-44 0 -83 -42t-61 -105.5t-22 -130.5q0 -85 48 -85zM396 749h56q-4 -69 -43 -109.5t-100 -40.5q-46 0 -72.5 25t-26.5 68q0 28 13 57h53q-4 -23 -4 -39q0 -25 12 -38t34 -13q57 0 73 70z" />
    <glyph glyph-name="Gdotaccent" unicode="&#x120;" horiz-adv-x="575" 
d="M293 66q52 0 97 18l41 208h-113l15 75h199l-64 -330q-35 -24 -86 -38t-104 -14q-100 0 -154.5 66.5t-54.5 186.5q0 135 47.5 242.5t126 166.5t172.5 59q89 0 154 -42l-14 -73q-67 34 -143 34q-71 0 -127.5 -51.5t-87.5 -137t-31 -188.5q0 -89 32.5 -135.5t94.5 -46.5z
M424 780q-25 0 -39.5 13.5t-14.5 37.5q0 28 17 47.5t45 19.5q25 0 39.5 -13.5t14.5 -37.5q0 -28 -17 -47.5t-45 -19.5z" />
    <glyph glyph-name="gdotaccent" unicode="&#x121;" horiz-adv-x="466" 
d="M278 94q-31 -41 -67.5 -63t-73.5 -22q-50 0 -76.5 38.5t-26.5 109.5q0 101 37.5 185t97 131t126.5 47q36 0 77 -10.5t72 -27.5l-82 -421q-28 -143 -91 -211t-168 -68q-65 0 -116 35l14 70q49 -28 106 -28q67 0 105.5 48.5t60.5 161.5zM175 85q28 0 58.5 24.5t61.5 71.5
l51 260q-27 7 -53 7q-44 0 -83 -42t-61 -105.5t-22 -130.5q0 -85 48 -85zM320 599q-24 0 -38.5 13.5t-14.5 36.5q0 28 17 47t44 19q24 0 38.5 -13.5t14.5 -36.5q0 -28 -17 -47t-44 -19z" />
    <glyph glyph-name="uni0122" unicode="&#x122;" horiz-adv-x="575" 
d="M293 66q52 0 97 18l41 208h-113l15 75h199l-64 -330q-35 -24 -86 -38t-104 -14q-100 0 -154.5 66.5t-54.5 186.5q0 135 47.5 242.5t126 166.5t172.5 59q89 0 154 -42l-14 -73q-67 34 -143 34q-71 0 -127.5 -51.5t-87.5 -137t-31 -188.5q0 -89 32.5 -135.5t94.5 -46.5z
M181 -277l69 212h39q36 0 36 -26q0 -6 -3 -13.5t-9 -20.5t-16 -33l-59 -119h-57z" />
    <glyph glyph-name="uni0123" unicode="&#x123;" horiz-adv-x="466" 
d="M278 94q-31 -41 -67.5 -63t-73.5 -22q-50 0 -76.5 38.5t-26.5 109.5q0 101 37.5 185t97 131t126.5 47q36 0 77 -10.5t72 -27.5l-82 -421q-28 -143 -91 -211t-168 -68q-65 0 -116 35l14 70q49 -28 106 -28q67 0 105.5 48.5t60.5 161.5zM175 85q28 0 58.5 24.5t61.5 71.5
l51 260q-27 7 -53 7q-44 0 -83 -42t-61 -105.5t-22 -130.5q0 -85 48 -85zM356 588h-36q-36 0 -36 25q0 6 2.5 13.5t8.5 19.5t16 34l61 127h55z" />
    <glyph glyph-name="Hcircumflex" unicode="&#x124;" horiz-adv-x="583" 
d="M365 0l61 316h-245l-62 -316h-94l135 693h94l-58 -300h245l59 300h94l-135 -693h-94zM398 851l-89 -80h-78l128 130h92l78 -130h-72z" />
    <glyph glyph-name="hcircumflex" unicode="&#x125;" horiz-adv-x="487" 
d="M192 432q33 42 71.5 65t77.5 23q49 0 75.5 -31.5t26.5 -89.5q0 -22 -3 -44t-16 -91l-51 -264h-91l51 262q11 61 14.5 83.5t3.5 37.5q0 62 -47 62q-27 0 -62 -25t-65 -65l-69 -355h-91l144 740h91zM228 871l-89 -80h-78l128 130h92l78 -130h-72z" />
    <glyph glyph-name="Hbar" unicode="&#x126;" horiz-adv-x="603" 
d="M375 0l61 316h-245l-62 -316h-94l98 503h-62l13 66h62l24 124h94l-24 -124h245l25 124h94l-24 -124h62l-13 -66h-62l-98 -503h-94zM451 393l21 110h-245l-21 -110h245z" />
    <glyph glyph-name="hbar" unicode="&#x127;" horiz-adv-x="487" 
d="M223 595l-31 -163q33 42 71.5 65t77.5 23q49 0 75.5 -31.5t26.5 -89.5q0 -22 -3 -44t-16 -91l-51 -264h-91l51 262q11 61 14.5 83.5t3.5 37.5q0 62 -47 62q-27 0 -62 -25t-65 -65l-69 -355h-91l116 595h-58l13 64h57l16 81h91l-16 -81h131l-13 -64h-131z" />
    <glyph glyph-name="Itilde" unicode="&#x128;" horiz-adv-x="243" 
d="M25 0l135 693h94l-135 -693h-94zM319 895h55q0 -14 -4 -31q-10 -45 -35 -69.5t-60 -24.5q-19 0 -33.5 8t-30.5 28q-17 21 -23.5 26.5t-14.5 5.5q-10 0 -16.5 -9t-12.5 -31l-7 -25h-55q0 14 4 31q9 44 34 69t60 25q20 0 35 -8.5t30 -28.5q15 -18 22 -24.5t16 -6.5
q21 0 30 39z" />
    <glyph glyph-name="itilde" unicode="&#x129;" horiz-adv-x="228" 
d="M118 507h91l-99 -507h-91zM281 729h54q-1 -18 -4 -31q-10 -45 -35 -69.5t-60 -24.5q-19 0 -32.5 7.5t-30.5 29.5q-15 20 -23 26.5t-16 6.5q-10 0 -17.5 -10t-12.5 -31l-7 -26h-54q1 18 4 31q9 44 34.5 69t60.5 25q20 0 34 -8.5t29 -28.5q16 -21 23.5 -27t15.5 -6
q10 0 17.5 10t12.5 31z" />
    <glyph glyph-name="Imacron" unicode="&#x12a;" horiz-adv-x="243" 
d="M25 0l135 693h94l-135 -693h-94zM95 801l12 63h257l-12 -63h-257z" />
    <glyph glyph-name="imacron" unicode="&#x12b;" horiz-adv-x="228" 
d="M118 507h91l-99 -507h-91zM55 638l12 61h257l-12 -61h-257z" />
    <glyph glyph-name="Ibreve" unicode="&#x12c;" horiz-adv-x="243" 
d="M25 0l135 693h94l-135 -693h-94zM303 898h57q-2 -60 -42 -96t-102 -36q-45 0 -71 22t-26 60q0 28 11 50h55q-4 -16 -4 -28q0 -43 46 -43q29 0 48.5 16t25.5 45z" />
    <glyph glyph-name="ibreve" unicode="&#x12d;" horiz-adv-x="228" 
d="M118 507h91l-99 -507h-91zM261 749h56q-4 -69 -43 -109.5t-100 -40.5q-46 0 -72.5 25t-26.5 68q0 28 13 57h53q-4 -23 -4 -39q0 -25 12 -38t34 -13q57 0 73 70z" />
    <glyph glyph-name="Iogonek" unicode="&#x12e;" horiz-adv-x="243" 
d="M25 0l135 693h94l-135 -693h-94zM115 -195q-42 -24 -86 -24q-39 0 -59 18.5t-20 51.5q0 86 121 162l48 -13q-46 -38 -68 -69t-22 -59q0 -31 29 -31q17 0 39 11z" />
    <glyph glyph-name="iogonek" unicode="&#x12f;" horiz-adv-x="228" 
d="M118 507h91l-99 -507h-91zM188 601q-24 0 -38.5 13.5t-14.5 36.5q0 29 17.5 47.5t44.5 18.5q24 0 38.5 -13.5t14.5 -36.5q0 -29 -17.5 -47.5t-44.5 -18.5zM106 -195q-42 -24 -84 -24q-39 0 -59 18.5t-20 51.5q0 86 121 162l46 -13q-47 -38 -68.5 -69t-21.5 -59
q0 -33 31 -33q16 0 38 11z" />
    <glyph glyph-name="Idotaccent" unicode="&#x130;" horiz-adv-x="243" 
d="M25 0l135 693h94l-135 -693h-94zM225 780q-25 0 -39.5 13.5t-14.5 37.5q0 28 17 47.5t45 19.5q25 0 39.5 -13.5t14.5 -37.5q0 -28 -17 -47.5t-45 -19.5z" />
    <glyph glyph-name="dotlessi" unicode="&#x131;" horiz-adv-x="228" 
d="M118 507h91l-99 -507h-91z" />
    <glyph glyph-name="IJ" unicode="&#x132;" horiz-adv-x="601" 
d="M521 693h94l-99 -508q-19 -101 -66 -150.5t-122 -49.5q-54 0 -107 31l14 73q52 -23 92 -23q39 0 61.5 30t36.5 103zM25 0l135 693h94l-135 -693h-94z" />
    <glyph glyph-name="ij" unicode="&#x133;" horiz-adv-x="456" 
d="M437 507l-110 -563q-17 -85 -50 -123.5t-89 -38.5q-39 0 -71 20l12 62q18 -7 46 -7q24 0 38 20t23 67l110 563h91zM416 601q-24 0 -38.5 13.5t-14.5 36.5q0 29 17.5 47.5t44.5 18.5q24 0 38.5 -13.5t14.5 -36.5q0 -29 -17.5 -47.5t-44.5 -18.5zM118 507h91l-99 -507h-91z
M188 601q-24 0 -38.5 13.5t-14.5 36.5q0 29 17.5 47.5t44.5 18.5q24 0 38.5 -13.5t14.5 -36.5q0 -29 -17.5 -47.5t-44.5 -18.5z" />
    <glyph glyph-name="Jcircumflex" unicode="&#x134;" horiz-adv-x="358" 
d="M278 693h94l-99 -508q-19 -101 -66 -150.5t-122 -49.5q-54 0 -107 31l14 73q52 -23 92 -23q39 0 61.5 30t36.5 103zM351 851l-89 -80h-78l128 130h92l78 -130h-72z" />
    <glyph glyph-name="jcircumflex" unicode="&#x135;" horiz-adv-x="228" 
d="M209 507l-110 -563q-17 -85 -50 -123.5t-89 -38.5q-39 0 -71 20l12 62q18 -7 46 -7q24 0 38 20t23 67l110 563h91zM190 705l-94 -104h-78l133 160h94l71 -160h-72z" />
    <glyph glyph-name="uni0136" unicode="&#x136;" horiz-adv-x="502" 
d="M25 0l135 693h94l-60 -310l264 310h110l-299 -336l184 -357h-103l-165 340l-66 -340h-94zM115 -277l69 212h39q36 0 36 -26q0 -6 -3 -13.5t-9 -20.5t-16 -33l-59 -119h-57z" />
    <glyph glyph-name="uni0137" unicode="&#x137;" horiz-adv-x="434" 
d="M17 0l144 740h91l-87 -448l190 215h109l-223 -238l142 -269h-103l-123 252l-49 -252h-91zM80 -277l69 212h37q36 0 36 -26q0 -6 -3 -13.5t-9 -20.5t-16 -33l-59 -119h-55z" />
    <glyph glyph-name="kgreenlandic" unicode="&#x138;" horiz-adv-x="434" 
d="M17 0l99 507h91l-44 -223l192 223h109l-225 -248l144 -259h-103l-125 242l-47 -242h-91z" />
    <glyph glyph-name="Lacute" unicode="&#x139;" horiz-adv-x="420" 
d="M25 0l135 693h94l-120 -615h240l-15 -78h-334zM256 769h-82l101 122h106z" />
    <glyph glyph-name="lacute" unicode="&#x13a;" horiz-adv-x="253" 
d="M206 20q-36 -25 -87 -25q-39 0 -59.5 23t-20.5 66q0 26 12 87l111 569h91l-111 -569q-11 -54 -11 -70q0 -17 7 -24t22 -7t30 6zM252 789h-82l101 122h106z" />
    <glyph glyph-name="uni013B" unicode="&#x13b;" horiz-adv-x="420" 
d="M25 0l135 693h94l-120 -615h240l-15 -78h-334zM81 -277l69 212h39q36 0 36 -26q0 -6 -3 -13.5t-9 -20.5t-16 -33l-59 -119h-57z" />
    <glyph glyph-name="uni013C" unicode="&#x13c;" horiz-adv-x="253" 
d="M206 20q-36 -25 -87 -25q-39 0 -59.5 23t-20.5 66q0 26 12 87l111 569h91l-111 -569q-11 -54 -11 -70q0 -17 7 -24t22 -7t30 6zM-8 -277l69 212h37q36 0 36 -26q0 -6 -3 -13.5t-9 -20.5t-16 -33l-59 -119h-55z" />
    <glyph glyph-name="Lcaron" unicode="&#x13d;" horiz-adv-x="420" 
d="M25 0l135 693h94l-120 -615h240l-15 -78h-334zM332 525l39 197q21 9 44 9q26 0 42 -14l-67 -192h-58z" />
    <glyph glyph-name="lcaron" unicode="&#x13e;" horiz-adv-x="312" 
d="M206 20q-36 -25 -87 -25q-39 0 -59.5 23t-20.5 66q0 26 12 87l111 569h91l-111 -569q-11 -54 -11 -70q0 -17 7 -24t22 -7t30 6zM301 546l39 197q21 9 44 9q26 0 42 -14l-67 -192h-58z" />
    <glyph glyph-name="Ldot" unicode="&#x13f;" horiz-adv-x="420" 
d="M25 0l135 693h94l-120 -615h240l-15 -78h-334zM346 321q-23 0 -36.5 13t-13.5 35q0 27 17.5 45.5t43.5 18.5q23 0 36.5 -13t13.5 -35q0 -27 -17.5 -45.5t-43.5 -18.5z" />
    <glyph glyph-name="ldot" unicode="&#x140;" horiz-adv-x="332" 
d="M206 20q-36 -25 -87 -25q-39 0 -59.5 23t-20.5 66q0 26 12 87l111 569h91l-111 -569q-11 -54 -11 -70q0 -17 7 -24t22 -7t30 6zM295 310q-23 0 -36.5 13t-13.5 35q0 27 17.5 45.5t43.5 18.5q23 0 36.5 -13t13.5 -35q0 -27 -17.5 -45.5t-43.5 -18.5z" />
    <glyph glyph-name="Lslash" unicode="&#x141;" horiz-adv-x="430" 
d="M190 317l-46 -239h240l-15 -78h-334l49 251l-78 -48l16 83l78 48l70 359h94l-57 -293l155 96l-16 -83z" />
    <glyph glyph-name="lslash" unicode="&#x142;" horiz-adv-x="273" 
d="M189 362l-37 -191q-11 -54 -11 -70q0 -17 7 -24t22 -7t30 6l16 -56q-36 -25 -87 -25q-39 0 -59.5 23t-20.5 66q0 26 12 87l25 129l-71 -43l15 75l70 43l72 365h91l-59 -303l80 49l-15 -75z" />
    <glyph glyph-name="Nacute" unicode="&#x143;" horiz-adv-x="580" 
d="M354 0l-139 547l-106 -547h-84l135 693h102l138 -548l107 548h84l-135 -693h-102zM424 769h-82l101 122h106z" />
    <glyph glyph-name="nacute" unicode="&#x144;" horiz-adv-x="487" 
d="M282 0l51 262q11 61 14.5 83.5t3.5 37.5q0 62 -47 62q-27 0 -61.5 -24.5t-65.5 -65.5l-69 -355h-91l99 507h74l-5 -84q33 46 73.5 71.5t82.5 25.5q49 0 75.5 -31.5t26.5 -89.5q0 -22 -3 -44t-16 -91l-51 -264h-91zM261 601l105 159h105l-134 -159h-76z" />
    <glyph glyph-name="uni0145" unicode="&#x145;" horiz-adv-x="580" 
d="M354 0l-139 547l-106 -547h-84l135 693h102l138 -548l107 548h84l-135 -693h-102zM130 -277l69 212h39q36 0 36 -26q0 -6 -3 -13.5t-9 -20.5t-16 -33l-59 -119h-57z" />
    <glyph glyph-name="uni0146" unicode="&#x146;" horiz-adv-x="487" 
d="M282 0l51 262q11 61 14.5 83.5t3.5 37.5q0 62 -47 62q-27 0 -61.5 -24.5t-65.5 -65.5l-69 -355h-91l99 507h74l-5 -84q33 46 73.5 71.5t82.5 25.5q49 0 75.5 -31.5t26.5 -89.5q0 -22 -3 -44t-16 -91l-51 -264h-91zM88 -277l69 212h37q36 0 36 -26q0 -6 -3 -13.5t-9 -20.5
t-16 -33l-59 -119h-55z" />
    <glyph glyph-name="Ncaron" unicode="&#x147;" horiz-adv-x="580" 
d="M354 0l-139 547l-106 -547h-84l135 693h102l138 -548l107 548h84l-135 -693h-102zM337 901l48 -94l84 94h86l-128 -130h-92l-78 130h80z" />
    <glyph glyph-name="ncaron" unicode="&#x148;" horiz-adv-x="487" 
d="M282 0l51 262q11 61 14.5 83.5t3.5 37.5q0 62 -47 62q-27 0 -61.5 -24.5t-65.5 -65.5l-69 -355h-91l99 507h74l-5 -84q33 46 73.5 71.5t82.5 25.5q49 0 75.5 -31.5t26.5 -89.5q0 -22 -3 -44t-16 -91l-51 -264h-91zM269 761l38 -120l86 120h90l-133 -160h-94l-71 160h84z
" />
    <glyph glyph-name="napostrophe" unicode="&#x149;" horiz-adv-x="625" 
d="M420 0l51 262q11 61 14.5 83.5t3.5 37.5q0 62 -47 62q-27 0 -61.5 -24.5t-65.5 -65.5l-69 -355h-91l99 507h74l-5 -84q33 46 73.5 71.5t82.5 25.5q49 0 75.5 -31.5t26.5 -89.5q0 -22 -3 -44t-16 -91l-51 -264h-91zM172 693h41q21 0 30 -7t9 -23q0 -17 -23 -62l-79 -157
h-61z" />
    <glyph glyph-name="Eng" unicode="&#x14a;" horiz-adv-x="580" 
d="M263 -137q41 0 65 31.5t35 99.5l1 6l-148 549l-107 -549h-84l135 693h102l142 -529l103 529h84l-139 -712q-19 -100 -66 -149.5t-122 -49.5q-54 0 -107 31l14 73q52 -23 92 -23z" />
    <glyph glyph-name="eng" unicode="&#x14b;" horiz-adv-x="487" 
d="M363 -52q-17 -87 -53.5 -126.5t-98.5 -39.5q-50 0 -81 19l12 61q24 -7 55 -7q32 0 48.5 20t26.5 73l61 314q11 61 14.5 83.5t3.5 37.5q0 62 -47 62q-27 0 -61.5 -24.5t-65.5 -65.5l-69 -355h-91l99 507h74l-5 -84q33 46 73.5 71.5t82.5 25.5q49 0 75.5 -31.5t26.5 -89.5
q0 -27 -4 -52t-15 -83z" />
    <glyph glyph-name="Omacron" unicode="&#x14c;" horiz-adv-x="627" 
d="M375 626q-65 0 -111.5 -54t-72.5 -147.5t-26 -188.5q0 -84 31.5 -127.5t91.5 -43.5q65 0 111.5 54t72.5 147.5t26 188.5q0 84 -31.5 127.5t-91.5 43.5zM380 706q102 0 158 -68t56 -190q0 -91 -25 -181.5t-67 -153.5t-97 -95.5t-122 -32.5q-102 0 -158 68t-56 190
q0 91 25 181.5t67 153.5t97 95.5t122 32.5zM279 801l12 63h257l-12 -63h-257z" />
    <glyph glyph-name="omacron" unicode="&#x14d;" horiz-adv-x="467" 
d="M266 446q-42 0 -72.5 -39t-47.5 -106.5t-17 -132.5q0 -107 72 -107q42 0 72.5 39t47.5 106.5t17 132.5q0 107 -72 107zM197 -13q-75 0 -117 49.5t-42 138.5t31 173t82.5 128t118.5 44q75 0 117 -49.5t42 -138.5t-31 -173t-82.5 -128t-118.5 -44zM170 638l12 61h257
l-12 -61h-257z" />
    <glyph glyph-name="Obreve" unicode="&#x14e;" horiz-adv-x="627" 
d="M375 626q-65 0 -111.5 -54t-72.5 -147.5t-26 -188.5q0 -84 31.5 -127.5t91.5 -43.5q65 0 111.5 54t72.5 147.5t26 188.5q0 84 -31.5 127.5t-91.5 43.5zM380 706q102 0 158 -68t56 -190q0 -91 -25 -181.5t-67 -153.5t-97 -95.5t-122 -32.5q-102 0 -158 68t-56 190
q0 91 25 181.5t67 153.5t97 95.5t122 32.5zM487 898h57q-2 -60 -42 -96t-102 -36q-45 0 -71 22t-26 60q0 28 11 50h55q-4 -16 -4 -28q0 -43 46 -43q29 0 48.5 16t25.5 45z" />
    <glyph glyph-name="obreve" unicode="&#x14f;" horiz-adv-x="467" 
d="M266 446q-42 0 -72.5 -39t-47.5 -106.5t-17 -132.5q0 -107 72 -107q42 0 72.5 39t47.5 106.5t17 132.5q0 107 -72 107zM197 -13q-75 0 -117 49.5t-42 138.5t31 173t82.5 128t118.5 44q75 0 117 -49.5t42 -138.5t-31 -173t-82.5 -128t-118.5 -44zM376 749h56
q-4 -69 -43 -109.5t-100 -40.5q-46 0 -72.5 25t-26.5 68q0 28 13 57h53q-4 -23 -4 -39q0 -25 12 -38t34 -13q57 0 73 70z" />
    <glyph glyph-name="Ohungarumlaut" unicode="&#x150;" horiz-adv-x="627" 
d="M375 626q-65 0 -111.5 -54t-72.5 -147.5t-26 -188.5q0 -84 31.5 -127.5t91.5 -43.5q65 0 111.5 54t72.5 147.5t26 188.5q0 84 -31.5 127.5t-91.5 43.5zM380 706q102 0 158 -68t56 -190q0 -91 -25 -181.5t-67 -153.5t-97 -95.5t-122 -32.5q-102 0 -158 68t-56 190
q0 91 25 181.5t67 153.5t97 95.5t122 32.5zM337 769h-77l96 121h107zM513 769h-77l96 121h107z" />
    <glyph glyph-name="ohungarumlaut" unicode="&#x151;" horiz-adv-x="467" 
d="M266 446q-42 0 -72.5 -39t-47.5 -106.5t-17 -132.5q0 -107 72 -107q42 0 72.5 39t47.5 106.5t17 132.5q0 107 -72 107zM197 -13q-75 0 -117 49.5t-42 138.5t31 173t82.5 128t118.5 44q75 0 117 -49.5t42 -138.5t-31 -173t-82.5 -128t-118.5 -44zM140 601l105 159h106
l-135 -159h-76zM315 601l105 159h106l-135 -159h-76z" />
    <glyph glyph-name="OE" unicode="&#x152;" horiz-adv-x="846" 
d="M373 706q58 0 98.5 -32t60.5 -93l22 112h336l-15 -76h-248l-43 -221h207l-15 -76h-207l-47 -244h248l-15 -76h-336l15 79q-70 -94 -164 -94q-95 0 -148 68.5t-53 189.5q0 92 25 182t66.5 153.5t95 95.5t117.5 32zM373 626q-65 0 -110.5 -54t-71.5 -147.5t-26 -188.5
q0 -84 31 -127.5t91 -43.5q65 0 110.5 54t71.5 147.5t26 188.5q0 84 -31 127.5t-91 43.5z" />
    <glyph glyph-name="oe" unicode="&#x153;" horiz-adv-x="704" 
d="M267 520q50 0 85 -26.5t50 -75.5q36 49 83 75.5t100 26.5q49 0 76.5 -29.5t27.5 -80.5q0 -80 -60 -137.5t-173 -86.5l-46 -12v-8q0 -58 16 -82.5t53 -24.5q59 0 127 48l19 -60q-77 -60 -172 -60q-91 0 -119 85q-59 -85 -146 -85q-70 0 -110 50t-40 138q0 67 19 134.5
t49.5 114.5t71 71.5t89.5 24.5zM266 446q-42 0 -72.5 -39t-47.5 -106.5t-17 -132.5q0 -107 72 -107q42 0 72.5 39t47.5 106.5t17 132.5q0 107 -72 107zM565 449q-50 0 -92.5 -61t-57.5 -152l49 15q67 20 104.5 60t37.5 91q0 22 -11 34.5t-30 12.5z" />
    <glyph glyph-name="Racute" unicode="&#x154;" horiz-adv-x="504" 
d="M346 0l-86 281h-91l-54 -281h-90l135 693h171q79 0 124.5 -44.5t45.5 -120.5q0 -84 -41 -145.5t-114 -86.5l94 -296h-94zM184 356h78q67 0 106.5 45t39.5 120q0 48 -25.5 72.5t-74.5 24.5h-73zM371 769h-82l101 122h106z" />
    <glyph glyph-name="racute" unicode="&#x155;" horiz-adv-x="311" 
d="M17 0l99 507h74l-5 -84q27 42 61 65t71 23q18 0 33 -4l-17 -86q-21 4 -42 4q-64 0 -114 -69l-69 -356h-91zM202 601l105 159h105l-134 -159h-76z" />
    <glyph glyph-name="uni0156" unicode="&#x156;" horiz-adv-x="504" 
d="M346 0l-86 281h-91l-54 -281h-90l135 693h171q79 0 124.5 -44.5t45.5 -120.5q0 -84 -41 -145.5t-114 -86.5l94 -296h-94zM184 356h78q67 0 106.5 45t39.5 120q0 48 -25.5 72.5t-74.5 24.5h-73zM114 -277l69 212h39q36 0 36 -26q0 -6 -3 -13.5t-9 -20.5t-16 -33l-59 -119
h-57z" />
    <glyph glyph-name="uni0157" unicode="&#x157;" horiz-adv-x="311" 
d="M17 0l99 507h74l-5 -84q27 42 61 65t71 23q18 0 33 -4l-17 -86q-21 4 -42 4q-64 0 -114 -69l-69 -356h-91zM-54 -277l69 212h37q36 0 36 -26q0 -6 -3 -13.5t-9 -20.5t-16 -33l-59 -119h-55z" />
    <glyph glyph-name="Rcaron" unicode="&#x158;" horiz-adv-x="504" 
d="M346 0l-86 281h-91l-54 -281h-90l135 693h171q79 0 124.5 -44.5t45.5 -120.5q0 -84 -41 -145.5t-114 -86.5l94 -296h-94zM184 356h78q67 0 106.5 45t39.5 120q0 48 -25.5 72.5t-74.5 24.5h-73zM284 901l48 -94l84 94h86l-128 -130h-92l-78 130h80z" />
    <glyph glyph-name="rcaron" unicode="&#x159;" horiz-adv-x="311" 
d="M17 0l99 507h74l-5 -84q27 42 61 65t71 23q18 0 33 -4l-17 -86q-21 4 -42 4q-64 0 -114 -69l-69 -356h-91zM210 761l38 -120l86 120h90l-133 -160h-94l-71 160h84z" />
    <glyph glyph-name="Sacute" unicode="&#x15a;" horiz-adv-x="460" 
d="M194 331q-50 32 -72 68.5t-22 86.5q0 65 29.5 115t78.5 77.5t109 27.5q84 0 139 -42l-14 -72q-46 33 -120 33q-60 0 -93.5 -32.5t-33.5 -92.5q0 -31 13.5 -52.5t44.5 -41.5l55 -35q51 -33 72.5 -68.5t21.5 -85.5q0 -68 -31 -121t-83 -82t-116 -29q-101 0 -161 46l14 72
q60 -37 144 -37q61 0 99 36.5t38 94.5q0 33 -14.5 57t-47.5 45zM354 769h-82l101 122h106z" />
    <glyph glyph-name="sacute" unicode="&#x15b;" horiz-adv-x="338" 
d="M146 368q0 -21 9 -35.5t33 -31.5l39 -27q36 -25 51.5 -51.5t15.5 -62.5q0 -75 -48.5 -124t-123.5 -49q-79 0 -135 39l13 66q55 -33 117 -33q40 0 64 23.5t24 61.5q0 22 -9 37t-35 34l-37 26q-35 25 -50.5 52t-15.5 63q0 71 46 117.5t117 46.5q66 0 118 -35l-13 -65
q-46 28 -99 28q-38 0 -59.5 -21t-21.5 -59zM195 601l105 159h105l-134 -159h-76z" />
    <glyph glyph-name="Scircumflex" unicode="&#x15c;" horiz-adv-x="460" 
d="M194 331q-50 32 -72 68.5t-22 86.5q0 65 29.5 115t78.5 77.5t109 27.5q84 0 139 -42l-14 -72q-46 33 -120 33q-60 0 -93.5 -32.5t-33.5 -92.5q0 -31 13.5 -52.5t44.5 -41.5l55 -35q51 -33 72.5 -68.5t21.5 -85.5q0 -68 -31 -121t-83 -82t-116 -29q-101 0 -161 46l14 72
q60 -37 144 -37q61 0 99 36.5t38 94.5q0 33 -14.5 57t-47.5 45zM331 851l-89 -80h-78l128 130h92l78 -130h-72z" />
    <glyph glyph-name="scircumflex" unicode="&#x15d;" horiz-adv-x="338" 
d="M146 368q0 -21 9 -35.5t33 -31.5l39 -27q36 -25 51.5 -51.5t15.5 -62.5q0 -75 -48.5 -124t-123.5 -49q-79 0 -135 39l13 66q55 -33 117 -33q40 0 64 23.5t24 61.5q0 22 -9 37t-35 34l-37 26q-35 25 -50.5 52t-15.5 63q0 71 46 117.5t117 46.5q66 0 118 -35l-13 -65
q-46 28 -99 28q-38 0 -59.5 -21t-21.5 -59zM256 705l-94 -104h-78l133 160h94l71 -160h-72z" />
    <glyph glyph-name="Scedilla" unicode="&#x15e;" horiz-adv-x="460" 
d="M194 331q-50 32 -72 68.5t-22 86.5q0 65 29.5 115t78.5 77.5t109 27.5q84 0 139 -42l-14 -72q-46 33 -120 33q-60 0 -93.5 -32.5t-33.5 -92.5q0 -31 13.5 -52.5t44.5 -41.5l55 -35q51 -33 72.5 -68.5t21.5 -85.5q0 -68 -31 -121t-83 -82t-116 -29q-101 0 -161 46l14 72
q60 -37 144 -37q61 0 99 36.5t38 94.5q0 33 -14.5 57t-47.5 45zM74 -240q83 60 83 97q0 21 -24 21q-14 0 -27 -3l10 53q25 9 52 9q30 0 47 -17t17 -45q0 -42 -31 -79.5t-97 -75.5z" />
    <glyph glyph-name="scedilla" unicode="&#x15f;" horiz-adv-x="338" 
d="M146 368q0 -21 9 -35.5t33 -31.5l39 -27q36 -25 51.5 -51.5t15.5 -62.5q0 -75 -48.5 -124t-123.5 -49q-79 0 -135 39l13 66q55 -33 117 -33q40 0 64 23.5t24 61.5q0 22 -9 37t-35 34l-37 26q-35 25 -50.5 52t-15.5 63q0 71 46 117.5t117 46.5q66 0 118 -35l-13 -65
q-46 28 -99 28q-38 0 -59.5 -21t-21.5 -59zM15 -242q45 33 64.5 56t19.5 43q0 23 -26 23q-14 0 -27 -3l10 51q25 9 52 9q30 0 47 -17t17 -45q0 -42 -31 -79.5t-97 -75.5z" />
    <glyph glyph-name="Scaron" unicode="&#x160;" horiz-adv-x="460" 
d="M194 331q-50 32 -72 68.5t-22 86.5q0 65 29.5 115t78.5 77.5t109 27.5q84 0 139 -42l-14 -72q-46 33 -120 33q-60 0 -93.5 -32.5t-33.5 -92.5q0 -31 13.5 -52.5t44.5 -41.5l55 -35q51 -33 72.5 -68.5t21.5 -85.5q0 -68 -31 -121t-83 -82t-116 -29q-101 0 -161 46l14 72
q60 -37 144 -37q61 0 99 36.5t38 94.5q0 33 -14.5 57t-47.5 45zM267 901l48 -94l84 94h86l-128 -130h-92l-78 130h80z" />
    <glyph glyph-name="scaron" unicode="&#x161;" horiz-adv-x="338" 
d="M146 368q0 -21 9 -35.5t33 -31.5l39 -27q36 -25 51.5 -51.5t15.5 -62.5q0 -75 -48.5 -124t-123.5 -49q-79 0 -135 39l13 66q55 -33 117 -33q40 0 64 23.5t24 61.5q0 22 -9 37t-35 34l-37 26q-35 25 -50.5 52t-15.5 63q0 71 46 117.5t117 46.5q66 0 118 -35l-13 -65
q-46 28 -99 28q-38 0 -59.5 -21t-21.5 -59zM203 761l38 -120l86 120h90l-133 -160h-94l-71 160h84z" />
    <glyph glyph-name="uni0162" unicode="&#x162;" horiz-adv-x="459" 
d="M133 0l120 615h-168l15 78h430l-15 -78h-168l-120 -615h-94zM59 -240q83 60 83 97q0 21 -24 21q-14 0 -27 -3l10 53q25 9 52 9q30 0 47 -17t17 -45q0 -42 -31 -79.5t-97 -75.5z" />
    <glyph glyph-name="uni0163" unicode="&#x163;" horiz-adv-x="317" 
d="M276 33q-22 -18 -52 -28.5t-62 -10.5q-104 0 -104 101q0 16 3 37t13 73l44 228h-68l12 60l75 12l42 144h74l-30 -142h116l-15 -74h-115l-43 -222q-5 -29 -9 -48t-5.5 -31t-1.5 -20q0 -43 45 -43q33 0 65 19zM37 -242q45 33 64.5 56t19.5 43q0 23 -26 23q-14 0 -27 -3
l10 51q25 9 52 9q30 0 47 -17t17 -45q0 -42 -31 -79.5t-97 -75.5z" />
    <glyph glyph-name="Tcaron" unicode="&#x164;" horiz-adv-x="459" 
d="M133 0l120 615h-168l15 78h430l-15 -78h-168l-120 -615h-94zM281 901l48 -94l84 94h86l-128 -130h-92l-78 130h80z" />
    <glyph glyph-name="tcaron" unicode="&#x165;" horiz-adv-x="317" 
d="M276 33q-22 -18 -52 -28.5t-62 -10.5q-104 0 -104 101q0 16 3 37t13 73l44 228h-68l12 60l75 12l42 144h74l-30 -142h116l-15 -74h-115l-43 -222q-5 -29 -9 -48t-5.5 -31t-1.5 -20q0 -43 45 -43q33 0 65 19zM324 575l33 172q21 9 44 9q26 0 42 -14l-61 -167h-58z" />
    <glyph glyph-name="Tbar" unicode="&#x166;" horiz-adv-x="459" 
d="M133 0l62 317h-105l13 66h105l45 232h-168l15 78h430l-15 -78h-168l-45 -232h105l-13 -66h-105l-62 -317h-94z" />
    <glyph glyph-name="tbar" unicode="&#x167;" horiz-adv-x="337" 
d="M180 233l-4 -22q-5 -29 -9 -48t-5.5 -31t-1.5 -20q0 -43 45 -43q33 0 65 19l16 -55q-22 -18 -52 -28.5t-62 -10.5q-104 0 -104 101q0 16 3 37t13 73l5 28h-68l13 63h67l27 137h-68l12 60l75 12l42 144h74l-30 -142h116l-15 -74h-115l-27 -137h116l-13 -63h-115z" />
    <glyph glyph-name="Utilde" unicode="&#x168;" horiz-adv-x="571" 
d="M491 693h94l-90 -462q-24 -124 -86 -185.5t-164 -61.5q-85 0 -132.5 48.5t-47.5 136.5q0 32 5 67t18 102l69 355h94l-70 -359q-23 -118 -23 -151q0 -116 100 -116q56 0 91 39t51 119zM476 895h55q0 -14 -4 -31q-10 -45 -35 -69.5t-60 -24.5q-19 0 -33.5 8t-30.5 28
q-17 21 -23.5 26.5t-14.5 5.5q-10 0 -16.5 -9t-12.5 -31l-7 -25h-55q0 14 4 31q9 44 34 69t60 25q20 0 35 -8.5t30 -28.5q15 -18 22 -24.5t16 -6.5q21 0 30 39z" />
    <glyph glyph-name="utilde" unicode="&#x169;" horiz-adv-x="477" 
d="M286 0l7 86q-33 -47 -73.5 -73t-80.5 -26q-96 0 -96 118q0 47 17 138l52 264h91l-52 -262q-16 -80 -16 -126q0 -29 10 -42.5t31 -13.5q26 0 59.5 24.5t64.5 67.5l69 352h91l-99 -507h-75zM406 729h54q-1 -18 -4 -31q-10 -45 -35 -69.5t-60 -24.5q-19 0 -32.5 7.5
t-30.5 29.5q-15 20 -23 26.5t-16 6.5q-10 0 -17.5 -10t-12.5 -31l-7 -26h-54q1 18 4 31q9 44 34.5 69t60.5 25q20 0 34 -8.5t29 -28.5q16 -21 23.5 -27t15.5 -6q10 0 17.5 10t12.5 31z" />
    <glyph glyph-name="Umacron" unicode="&#x16a;" horiz-adv-x="571" 
d="M491 693h94l-90 -462q-24 -124 -86 -185.5t-164 -61.5q-85 0 -132.5 48.5t-47.5 136.5q0 32 5 67t18 102l69 355h94l-70 -359q-23 -118 -23 -151q0 -116 100 -116q56 0 91 39t51 119zM252 801l12 63h257l-12 -63h-257z" />
    <glyph glyph-name="umacron" unicode="&#x16b;" horiz-adv-x="477" 
d="M286 0l7 86q-33 -47 -73.5 -73t-80.5 -26q-96 0 -96 118q0 47 17 138l52 264h91l-52 -262q-16 -80 -16 -126q0 -29 10 -42.5t31 -13.5q26 0 59.5 24.5t64.5 67.5l69 352h91l-99 -507h-75zM180 638l12 61h257l-12 -61h-257z" />
    <glyph glyph-name="Ubreve" unicode="&#x16c;" horiz-adv-x="571" 
d="M491 693h94l-90 -462q-24 -124 -86 -185.5t-164 -61.5q-85 0 -132.5 48.5t-47.5 136.5q0 32 5 67t18 102l69 355h94l-70 -359q-23 -118 -23 -151q0 -116 100 -116q56 0 91 39t51 119zM460 898h57q-2 -60 -42 -96t-102 -36q-45 0 -71 22t-26 60q0 28 11 50h55
q-4 -16 -4 -28q0 -43 46 -43q29 0 48.5 16t25.5 45z" />
    <glyph glyph-name="ubreve" unicode="&#x16d;" horiz-adv-x="477" 
d="M286 0l7 86q-33 -47 -73.5 -73t-80.5 -26q-96 0 -96 118q0 47 17 138l52 264h91l-52 -262q-16 -80 -16 -126q0 -29 10 -42.5t31 -13.5q26 0 59.5 24.5t64.5 67.5l69 352h91l-99 -507h-75zM386 749h56q-4 -69 -43 -109.5t-100 -40.5q-46 0 -72.5 25t-26.5 68q0 28 13 57
h53q-4 -23 -4 -39q0 -25 12 -38t34 -13q57 0 73 70z" />
    <glyph glyph-name="Uring" unicode="&#x16e;" horiz-adv-x="571" 
d="M491 693h94l-90 -462q-24 -124 -86 -185.5t-164 -61.5q-85 0 -132.5 48.5t-47.5 136.5q0 32 5 67t18 102l69 355h94l-70 -359q-23 -118 -23 -151q0 -116 100 -116q56 0 91 39t51 119zM381 739q-41 0 -67 23.5t-26 60.5q0 48 32 78.5t81 30.5q41 0 67 -23.5t26 -60.5
q0 -48 -32 -78.5t-81 -30.5zM399 886q-25 0 -39.5 -16.5t-14.5 -45.5q0 -17 10.5 -28t27.5 -11q25 0 39.5 16.5t14.5 45.5q0 17 -10.5 28t-27.5 11z" />
    <glyph glyph-name="uring" unicode="&#x16f;" horiz-adv-x="477" 
d="M286 0l7 86q-33 -47 -73.5 -73t-80.5 -26q-96 0 -96 118q0 47 17 138l52 264h91l-52 -262q-16 -80 -16 -126q0 -29 10 -42.5t31 -13.5q26 0 59.5 24.5t64.5 67.5l69 352h91l-99 -507h-75zM305 585q-43 0 -70.5 25.5t-27.5 66.5q0 52 33 85.5t85 33.5q43 0 70.5 -25.5
t27.5 -66.5q0 -52 -33 -85.5t-85 -33.5zM324 748q-27 0 -43.5 -19t-16.5 -51q0 -20 11.5 -32.5t30.5 -12.5q27 0 43.5 19t16.5 51q0 20 -11.5 32.5t-30.5 12.5z" />
    <glyph glyph-name="Uhungarumlaut" unicode="&#x170;" horiz-adv-x="571" 
d="M491 693h94l-90 -462q-24 -124 -86 -185.5t-164 -61.5q-85 0 -132.5 48.5t-47.5 136.5q0 32 5 67t18 102l69 355h94l-70 -359q-23 -118 -23 -151q0 -116 100 -116q56 0 91 39t51 119zM310 769h-77l96 121h107zM486 769h-77l96 121h107z" />
    <glyph glyph-name="uhungarumlaut" unicode="&#x171;" horiz-adv-x="477" 
d="M286 0l7 86q-33 -47 -73.5 -73t-80.5 -26q-96 0 -96 118q0 47 17 138l52 264h91l-52 -262q-16 -80 -16 -126q0 -29 10 -42.5t31 -13.5q26 0 59.5 24.5t64.5 67.5l69 352h91l-99 -507h-75zM150 601l105 159h106l-135 -159h-76zM325 601l105 159h106l-135 -159h-76z" />
    <glyph glyph-name="Uogonek" unicode="&#x172;" horiz-adv-x="571" 
d="M65 169q0 32 5 67t18 102l69 355h94l-70 -359q-23 -118 -23 -151q0 -116 100 -116q56 0 91 39t51 119l91 468h94l-90 -462q-33 -167 -134 -221q-47 -26 -77 -64.5t-30 -75.5q0 -29 31 -29q17 0 39 11l18 -47q-42 -24 -86 -24q-38 0 -59.5 17.5t-21.5 49.5q0 72 79 136h-9
q-85 0 -132.5 48.5t-47.5 136.5z" />
    <glyph glyph-name="uogonek" unicode="&#x173;" horiz-adv-x="477" 
d="M286 0l7 86q-33 -47 -73.5 -73t-80.5 -26q-96 0 -96 118q0 47 17 138l52 264h91l-52 -262q-16 -80 -16 -126q0 -29 10 -42.5t31 -13.5q26 0 59.5 24.5t64.5 67.5l69 352h91l-99 -507h-75zM357 -195q-42 -24 -84 -24q-39 0 -59 18.5t-20 51.5q0 86 121 162l46 -13
q-47 -38 -68.5 -69t-21.5 -59q0 -33 31 -33q16 0 38 11z" />
    <glyph glyph-name="Wcircumflex" unicode="&#x174;" horiz-adv-x="736" 
d="M410 0l10 544l-198 -544h-107l-15 693h98l-8 -584l200 554h109l-13 -546l212 576h105l-286 -693h-107zM466 851l-89 -80h-78l128 130h92l78 -130h-72z" />
    <glyph glyph-name="wcircumflex" unicode="&#x175;" horiz-adv-x="594" 
d="M329 0l-3 402l-147 -402h-89l-34 507h91l8 -401l146 401h89l4 -417q81 192 146 417h92q-29 -101 -91 -247t-123 -260h-89zM366 705l-94 -104h-78l133 160h94l71 -160h-72z" />
    <glyph glyph-name="Ycircumflex" unicode="&#x176;" horiz-adv-x="484" 
d="M145 0l49 252l-95 441h98l59 -356l197 356h103l-271 -444l-48 -249h-92zM353 851l-89 -80h-78l128 130h92l78 -130h-72z" />
    <glyph glyph-name="ycircumflex" unicode="&#x177;" horiz-adv-x="396" 
d="M-57 -152q62 25 96 54q37 33 77 98l-61 507h93l32 -425q26 55 53 125t55 147t55 153h93q-46 -136 -121.5 -295.5t-134.5 -247.5q-53 -80 -100.5 -123t-99.5 -60zM267 705l-94 -104h-78l133 160h94l71 -160h-72z" />
    <glyph glyph-name="Ydieresis" unicode="&#x178;" horiz-adv-x="484" 
d="M145 0l49 252l-95 441h98l59 -356l197 356h103l-271 -444l-48 -249h-92zM264 780q-23 0 -37 13.5t-14 35.5q0 27 16.5 45.5t42.5 18.5q23 0 37 -13.5t14 -35.5q0 -27 -16.5 -45.5t-42.5 -18.5zM432 780q-23 0 -37 13.5t-14 35.5q0 27 16.5 45.5t42.5 18.5q23 0 37 -13.5
t14 -35.5q0 -27 -16.5 -45.5t-42.5 -18.5z" />
    <glyph glyph-name="Zacute" unicode="&#x179;" horiz-adv-x="467" 
d="M-11 0l15 73l386 540h-268l16 80h375l-15 -73l-387 -540h284l-16 -80h-390zM373 769h-82l101 122h106z" />
    <glyph glyph-name="zacute" unicode="&#x17a;" horiz-adv-x="386" 
d="M-17 0l14 71l284 359h-208l15 77h309l-14 -71l-285 -359h221l-15 -77h-321zM212 601l105 159h105l-134 -159h-76z" />
    <glyph glyph-name="Zdotaccent" unicode="&#x17b;" horiz-adv-x="467" 
d="M-11 0l15 73l386 540h-268l16 80h375l-15 -73l-387 -540h284l-16 -80h-390zM342 780q-25 0 -39.5 13.5t-14.5 37.5q0 28 17 47.5t45 19.5q25 0 39.5 -13.5t14.5 -37.5q0 -28 -17 -47.5t-45 -19.5z" />
    <glyph glyph-name="zdotaccent" unicode="&#x17c;" horiz-adv-x="386" 
d="M-17 0l14 71l284 359h-208l15 77h309l-14 -71l-285 -359h221l-15 -77h-321zM268 599q-24 0 -38.5 13.5t-14.5 36.5q0 28 17 47t44 19q24 0 38.5 -13.5t14.5 -36.5q0 -28 -17 -47t-44 -19z" />
    <glyph glyph-name="Zcaron" unicode="&#x17d;" horiz-adv-x="467" 
d="M-11 0l15 73l386 540h-268l16 80h375l-15 -73l-387 -540h284l-16 -80h-390zM286 901l48 -94l84 94h86l-128 -130h-92l-78 130h80z" />
    <glyph glyph-name="zcaron" unicode="&#x17e;" horiz-adv-x="386" 
d="M-17 0l14 71l284 359h-208l15 77h309l-14 -71l-285 -359h221l-15 -77h-321zM220 761l38 -120l86 120h90l-133 -160h-94l-71 160h84z" />
    <glyph glyph-name="longs" unicode="&#x17f;" horiz-adv-x="224" 
d="M17 0l114 587q33 167 167 167q42 0 76 -22l-13 -67q-31 12 -59 12q-34 0 -52.5 -19t-26.5 -63l-115 -595h-91z" />
    <glyph glyph-name="florin" unicode="&#x192;" horiz-adv-x="308" 
d="M213 433l-95 -484q-17 -87 -53 -127t-98 -40q-48 0 -82 20l13 67q30 -10 55 -10q33 0 48.5 19.5t25.5 71.5l94 483h-70l12 60l72 12l16 82q31 167 167 167q42 0 76 -22l-13 -67q-31 12 -59 12q-34 0 -52.5 -19t-26.5 -63l-16 -88h121l-15 -74h-120z" />
    <glyph glyph-name="uni01D3" unicode="&#x1d3;" horiz-adv-x="571" 
d="M491 693h94l-90 -462q-24 -124 -86 -185.5t-164 -61.5q-85 0 -132.5 48.5t-47.5 136.5q0 32 5 67t18 102l69 355h94l-70 -359q-23 -118 -23 -151q0 -116 100 -116q56 0 91 39t51 119zM326 901l48 -94l84 94h86l-128 -130h-92l-78 130h80z" />
    <glyph glyph-name="uni01D4" unicode="&#x1d4;" horiz-adv-x="477" 
d="M286 0l7 86q-33 -47 -73.5 -73t-80.5 -26q-96 0 -96 118q0 47 17 138l52 264h91l-52 -262q-16 -80 -16 -126q0 -29 10 -42.5t31 -13.5q26 0 59.5 24.5t64.5 67.5l69 352h91l-99 -507h-75zM262 761l38 -120l86 120h90l-133 -160h-94l-71 160h84z" />
    <glyph glyph-name="Aringacute" unicode="&#x1fa;" horiz-adv-x="512" 
d="M356 0l-11 188h-201l-83 -188h-101l312 640q-34 24 -34 67q0 47 31 78t80 31q41 0 67 -23.5t26 -60.5q0 -30 -13.5 -54.5t-37.5 -39.5l62 -638h-97zM176 260h166l-20 332zM391 851h-75l100 123h99zM348 770q-24 0 -38.5 -16.5t-14.5 -44.5q0 -18 10 -29t27 -11
q24 0 38.5 16.5t14.5 44.5q0 18 -10 29t-27 11z" />
    <glyph glyph-name="aringacute" unicode="&#x1fb;" horiz-adv-x="460" 
d="M132 -13q-48 0 -74 40t-26 114q0 106 38.5 193.5t98.5 136.5t128 49q34 0 72 -10.5t69 -27.5l-94 -482h-75l6 77q-65 -90 -143 -90zM171 63q52 0 112 86l57 292q-28 7 -47 7q-45 0 -84 -44.5t-61.5 -112t-22.5 -138.5q0 -90 46 -90zM307 583q-41 0 -67 23.5t-26 60.5
q0 47 31 78t80 31q41 0 67 -23.5t26 -60.5q0 -47 -31 -78t-80 -31zM324 730q-24 0 -38.5 -16.5t-14.5 -44.5q0 -18 10 -29t27 -11q24 0 38.5 16.5t14.5 44.5q0 18 -10 29t-27 11zM367 811h-75l100 123h99z" />
    <glyph glyph-name="AEacute" unicode="&#x1fc;" horiz-adv-x="762" 
d="M329 0l40 205h-178l-123 -205h-108l440 693h406l-15 -76h-248l-43 -221h207l-15 -76h-207l-47 -244h248l-15 -76h-342zM440 617l-206 -341h149l66 341h-9zM651 769h-82l101 122h106z" />
    <glyph glyph-name="aeacute" unicode="&#x1fd;" horiz-adv-x="676" 
d="M132 -13q-48 0 -74 40t-26 114q0 106 38.5 193.5t98.5 136.5t128 49q65 0 122 -52q61 52 138 52q49 0 76.5 -29.5t27.5 -80.5q0 -80 -60 -138t-173 -86l-46 -12v-8q0 -58 16 -82.5t53 -24.5q59 0 127 48l19 -60q-77 -60 -172 -60q-54 0 -87 30.5t-42 87.5
q-65 -118 -164 -118zM304 258q21 97 70 161q-40 29 -81 29q-45 0 -84 -44.5t-61.5 -112t-22.5 -138.5q0 -90 46 -90q42 0 77.5 52.5t55.5 142.5zM537 449q-50 0 -92.5 -61t-57.5 -152l49 15q67 20 104.5 60t37.5 91q0 22 -11 34.5t-30 12.5zM393 601l105 159h105l-134 -159
h-76z" />
    <glyph glyph-name="Oslashacute" unicode="&#x1fe;" horiz-adv-x="627" 
d="M20 -1l77 97q-28 60 -28 147q0 91 25 181.5t67 153.5t97 95.5t122 32.5q98 0 153 -63l68 86l43 -39l-78 -98q28 -59 28 -144q0 -91 -25 -181.5t-67 -153.5t-97 -95.5t-122 -32.5q-97 0 -152 61l-68 -86zM376 626q-66 0 -112.5 -53.5t-73 -147t-26.5 -189.5q0 -31 4 -52
l307 387q-31 55 -99 55zM499 455q0 18 -4 48l-306 -385q30 -53 98 -53q66 0 112.5 53.5t73 147t26.5 189.5zM440 769h-82l101 122h106z" />
    <glyph glyph-name="oslashacute" unicode="&#x1ff;" horiz-adv-x="467" 
d="M2 3l55 69q-19 44 -19 103q0 89 31 173t82.5 128t118.5 44q68 0 110 -42l48 61l39 -36l-57 -71q19 -44 19 -100q0 -89 -31 -173t-82.5 -128t-118.5 -44t-109 40l-47 -60zM267 446q-43 0 -74 -39t-48 -106.5t-17 -132.5v-7l198 250q-18 35 -59 35zM200 61q43 0 74 39
t48 106.5t17 132.5v3l-197 -248q17 -33 58 -33zM244 601l105 159h105l-134 -159h-76z" />
    <glyph glyph-name="uni0218" unicode="&#x218;" horiz-adv-x="460" 
d="M194 331q-50 32 -72 68.5t-22 86.5q0 65 29.5 115t78.5 77.5t109 27.5q84 0 139 -42l-14 -72q-46 33 -120 33q-60 0 -93.5 -32.5t-33.5 -92.5q0 -31 13.5 -52.5t44.5 -41.5l55 -35q51 -33 72.5 -68.5t21.5 -85.5q0 -68 -31 -121t-83 -82t-116 -29q-101 0 -161 46l14 72
q60 -37 144 -37q61 0 99 36.5t38 94.5q0 33 -14.5 57t-47.5 45zM74 -277l69 212h39q36 0 36 -26q0 -6 -3 -13.5t-9 -20.5t-16 -33l-59 -119h-57z" />
    <glyph glyph-name="uni0219" unicode="&#x219;" horiz-adv-x="338" 
d="M146 368q0 -21 9 -35.5t33 -31.5l39 -27q36 -25 51.5 -51.5t15.5 -62.5q0 -75 -48.5 -124t-123.5 -49q-79 0 -135 39l13 66q55 -33 117 -33q40 0 64 23.5t24 61.5q0 22 -9 37t-35 34l-37 26q-35 25 -50.5 52t-15.5 63q0 71 46 117.5t117 46.5q66 0 118 -35l-13 -65
q-46 28 -99 28q-38 0 -59.5 -21t-21.5 -59zM15 -277l69 212h37q36 0 36 -26q0 -6 -3 -13.5t-9 -20.5t-16 -33l-59 -119h-55z" />
    <glyph glyph-name="uni021A" unicode="&#x21a;" horiz-adv-x="459" 
d="M133 0l120 615h-168l15 78h430l-15 -78h-168l-120 -615h-94zM59 -277l69 212h39q36 0 36 -26q0 -6 -3 -13.5t-9 -20.5t-16 -33l-59 -119h-57z" />
    <glyph glyph-name="uni021B" unicode="&#x21b;" horiz-adv-x="317" 
d="M276 33q-22 -18 -52 -28.5t-62 -10.5q-104 0 -104 101q0 16 3 37t13 73l44 228h-68l12 60l75 12l42 144h74l-30 -142h116l-15 -74h-115l-43 -222q-5 -29 -9 -48t-5.5 -31t-1.5 -20q0 -43 45 -43q33 0 65 19zM37 -277l69 212h37q36 0 36 -26q0 -6 -3 -13.5t-9 -20.5
t-16 -33l-59 -119h-55z" />
    <glyph glyph-name="uni0237" unicode="&#x237;" horiz-adv-x="228" 
d="M209 507l-110 -563q-17 -85 -50 -123.5t-89 -38.5q-39 0 -71 20l12 62q18 -7 46 -7q24 0 38 20t23 67l110 563h91z" />
    <glyph glyph-name="uni02B9" unicode="&#x2b9;" horiz-adv-x="235" 
d="M158 474h-65l97 218q28 13 53 13q12 0 25 -3.5t22 -9.5z" />
    <glyph glyph-name="uni02BA" unicode="&#x2ba;" horiz-adv-x="397" 
d="M158 474h-65l97 218q28 13 53 13q12 0 25 -3.5t22 -9.5zM320 474h-65l97 218q28 13 53 13q12 0 25 -3.5t22 -9.5z" />
    <glyph glyph-name="uni02BB" unicode="&#x2bb;" horiz-adv-x="226" 
d="M276 668q-63 -75 -88 -155q-11 -34 -19 -78h-41q-20 0 -31 7.5t-11 21.5q0 44 43.5 111.5t110.5 128.5z" />
    <glyph glyph-name="uni02BC" unicode="&#x2bc;" horiz-adv-x="226" 
d="M69 460q63 75 88 155q11 34 19 78h41q20 0 31 -7.5t11 -21.5q0 -44 -43.5 -111.5t-110.5 -128.5z" />
    <glyph glyph-name="circumflex" unicode="&#x2c6;" horiz-adv-x="500" 
d="M343 705l-94 -104h-78l133 160h94l71 -160h-72z" />
    <glyph glyph-name="caron" unicode="&#x2c7;" horiz-adv-x="500" 
d="M285 761l38 -120l86 120h90l-133 -160h-94l-71 160h84z" />
    <glyph glyph-name="uni02C9" unicode="&#x2c9;" horiz-adv-x="500" 
d="M198 638l12 61h257l-12 -61h-257z" />
    <glyph glyph-name="uni02CA" unicode="&#x2ca;" horiz-adv-x="500" 
d="M232 601l105 159h105l-134 -159h-76z" />
    <glyph glyph-name="uni02CB" unicode="&#x2cb;" horiz-adv-x="500" 
d="M318 601l-77 159h100l48 -159h-71z" />
    <glyph glyph-name="breve" unicode="&#x2d8;" horiz-adv-x="500" 
d="M404 749h56q-4 -69 -43 -109.5t-100 -40.5q-46 0 -72.5 25t-26.5 68q0 28 13 57h53q-4 -23 -4 -39q0 -25 12 -38t34 -13q57 0 73 70z" />
    <glyph glyph-name="dotaccent" unicode="&#x2d9;" horiz-adv-x="500" 
d="M328 599q-24 0 -38.5 13.5t-14.5 36.5q0 28 17 47t44 19q24 0 38.5 -13.5t14.5 -36.5q0 -28 -17 -47t-44 -19z" />
    <glyph glyph-name="ring" unicode="&#x2da;" horiz-adv-x="500" 
d="M323 585q-43 0 -70.5 25.5t-27.5 66.5q0 52 33 85.5t85 33.5q43 0 70.5 -25.5t27.5 -66.5q0 -52 -33 -85.5t-85 -33.5zM342 748q-27 0 -43.5 -19t-16.5 -51q0 -20 11.5 -32.5t30.5 -12.5q27 0 43.5 19t16.5 51q0 20 -11.5 32.5t-30.5 12.5z" />
    <glyph glyph-name="ogonek" unicode="&#x2db;" horiz-adv-x="500" 
d="M266 -195q-42 -24 -84 -24q-39 0 -59 18.5t-20 51.5q0 86 121 162l46 -13q-47 -38 -68.5 -69t-21.5 -59q0 -33 31 -33q16 0 38 11z" />
    <glyph glyph-name="tilde" unicode="&#x2dc;" horiz-adv-x="500" 
d="M424 729h54q-1 -18 -4 -31q-10 -45 -35 -69.5t-60 -24.5q-19 0 -32.5 7.5t-30.5 29.5q-15 20 -23 26.5t-16 6.5q-10 0 -17.5 -10t-12.5 -31l-7 -26h-54q1 18 4 31q9 44 34.5 69t60.5 25q20 0 34 -8.5t29 -28.5q16 -21 23.5 -27t15.5 -6q10 0 17.5 10t12.5 31z" />
    <glyph glyph-name="hungarumlaut" unicode="&#x2dd;" horiz-adv-x="500" 
d="M148 601l105 159h106l-135 -159h-76zM323 601l105 159h106l-135 -159h-76z" />
    <glyph glyph-name="gravecomb" unicode="&#x300;" horiz-adv-x="0" 
d="M-42 601l-77 159h100l48 -159h-71z" />
    <glyph glyph-name="acutecomb" unicode="&#x301;" horiz-adv-x="0" 
d="M-38 601l105 159h105l-134 -159h-76z" />
    <glyph glyph-name="uni0302" unicode="&#x302;" horiz-adv-x="0" 
d="M23 705l-94 -104h-78l133 160h94l71 -160h-72z" />
    <glyph glyph-name="tildecomb" unicode="&#x303;" horiz-adv-x="0" 
d="M114 729h54q-1 -18 -4 -31q-10 -45 -35 -69.5t-60 -24.5q-19 0 -32.5 7.5t-30.5 29.5q-15 20 -23 26.5t-16 6.5q-10 0 -17.5 -10t-12.5 -31l-7 -26h-54q1 18 4 31q9 44 34.5 69t60.5 25q20 0 34 -8.5t29 -28.5q16 -21 23.5 -27t15.5 -6q10 0 17.5 10t12.5 31z" />
    <glyph glyph-name="uni0304" unicode="&#x304;" horiz-adv-x="0" 
d="M-112 638l12 61h257l-12 -61h-257z" />
    <glyph glyph-name="uni0306" unicode="&#x306;" horiz-adv-x="0" 
d="M94 749h56q-4 -69 -43 -109.5t-100 -40.5q-46 0 -72.5 25t-26.5 68q0 28 13 57h53q-4 -23 -4 -39q0 -25 12 -38t34 -13q57 0 73 70z" />
    <glyph glyph-name="uni0307" unicode="&#x307;" horiz-adv-x="0" 
d="M18 599q-24 0 -38.5 13.5t-14.5 36.5q0 28 17 47t44 19q24 0 38.5 -13.5t14.5 -36.5q0 -28 -17 -47t-44 -19z" />
    <glyph glyph-name="uni0308" unicode="&#x308;" horiz-adv-x="0" 
d="M-67 596q-23 0 -36.5 13t-13.5 35q0 26 16 44.5t42 18.5q23 0 36.5 -13t13.5 -35q0 -26 -16 -44.5t-42 -18.5zM101 596q-23 0 -36.5 13t-13.5 35q0 26 16 44.5t42 18.5q23 0 36.5 -13t13.5 -35q0 -26 -16 -44.5t-42 -18.5z" />
    <glyph glyph-name="uni030A" unicode="&#x30a;" horiz-adv-x="0" 
d="M13 585q-43 0 -70.5 25.5t-27.5 66.5q0 52 33 85.5t85 33.5q43 0 70.5 -25.5t27.5 -66.5q0 -52 -33 -85.5t-85 -33.5zM32 748q-27 0 -43.5 -19t-16.5 -51q0 -20 11.5 -32.5t30.5 -12.5q27 0 43.5 19t16.5 51q0 20 -11.5 32.5t-30.5 12.5z" />
    <glyph glyph-name="uni030B" unicode="&#x30b;" horiz-adv-x="0" 
d="M-142 601l105 159h106l-135 -159h-76zM33 601l105 159h106l-135 -159h-76z" />
    <glyph glyph-name="uni030C" unicode="&#x30c;" horiz-adv-x="0" 
d="M-30 761l38 -120l86 120h90l-133 -160h-94l-71 160h84z" />
    <glyph glyph-name="uni0312" unicode="&#x312;" horiz-adv-x="0" 
d="M54 588h-36q-36 0 -36 25q0 6 2.5 13.5t8.5 19.5t16 34l61 127h55z" />
    <glyph glyph-name="uni0315" unicode="&#x315;" horiz-adv-x="0" 
d="M-29 546l39 197q21 9 44 9q26 0 42 -14l-67 -192h-58z" />
    <glyph glyph-name="uni0326" unicode="&#x326;" horiz-adv-x="0" 
d="M-102 -277l69 212h37q36 0 36 -26q0 -6 -3 -13.5t-9 -20.5t-16 -33l-59 -119h-55z" />
    <glyph glyph-name="uni0327" unicode="&#x327;" horiz-adv-x="0" 
d="M-102 -242q45 33 64.5 56t19.5 43q0 23 -26 23q-14 0 -27 -3l10 51q25 9 52 9q30 0 47 -17t17 -45q0 -42 -31 -79.5t-97 -75.5z" />
    <glyph glyph-name="uni0328" unicode="&#x328;" horiz-adv-x="0" 
d="M-4 -195q-42 -24 -84 -24q-39 0 -59 18.5t-20 51.5q0 86 121 162l46 -13q-47 -38 -68.5 -69t-21.5 -59q0 -33 31 -33q16 0 38 11z" />
    <glyph glyph-name="uni0344" unicode="&#x344;" horiz-adv-x="0" 
d="M75 888h100l-112 -161h-64zM-73 598q-23 0 -36.5 13t-13.5 35q0 26 16 44t42 18q24 0 37 -13t13 -34q0 -26 -16 -44.5t-42 -18.5zM111 598q-23 0 -36.5 13t-13.5 35q0 26 16 44t42 18q24 0 37 -13t13 -34q0 -26 -16 -44.5t-42 -18.5z" />
    <glyph glyph-name="uni0374" unicode="&#x374;" horiz-adv-x="235" 
d="M158 474h-65l97 218q28 13 53 13q12 0 25 -3.5t22 -9.5z" />
    <glyph glyph-name="uni0375" unicode="&#x375;" horiz-adv-x="235" 
d="M-42 -219l97 219q28 13 55 13t48 -13l-133 -219h-67z" />
    <glyph glyph-name="uni037E" unicode="&#x37e;" horiz-adv-x="226" 
d="M-51 -152l95 264h44q42 0 42 -29q0 -10 -4 -22.5t-20 -41.5l-94 -171h-63zM145 389q-25 0 -39.5 15t-14.5 40q0 31 19 52t47 21q25 0 39.5 -15t14.5 -40q0 -31 -19 -52t-47 -21z" />
    <glyph glyph-name="tonos" unicode="&#x384;" horiz-adv-x="500" 
d="M238 773h101l-114 -172h-64z" />
    <glyph glyph-name="dieresistonos" unicode="&#x385;" horiz-adv-x="500" 
d="M299 888h100l-112 -161h-64zM151 598q-23 0 -36.5 13t-13.5 35q0 26 16 44t42 18q24 0 37 -13t13 -34q0 -26 -16 -44.5t-42 -18.5zM335 598q-23 0 -36.5 13t-13.5 35q0 26 16 44t42 18q24 0 37 -13t13 -34q0 -26 -16 -44.5t-42 -18.5z" />
    <glyph glyph-name="Alphatonos" unicode="&#x386;" horiz-adv-x="512" 
d="M356 0l-11 188h-202l-82 -188h-101l330 693h102l61 -693h-97zM175 260h167l-19 336zM95 693h102l-113 -172h-66z" />
    <glyph glyph-name="anoteleia" unicode="&#x387;" horiz-adv-x="226" 
d="M145 389q-25 0 -39.5 15t-14.5 40q0 31 19 52t47 21q25 0 39.5 -15t14.5 -40q0 -31 -19 -52t-47 -21z" />
    <glyph glyph-name="Epsilontonos" unicode="&#x388;" horiz-adv-x="595" 
d="M162 0l135 693h342l-15 -76h-248l-43 -221h207l-15 -76h-207l-47 -244h248l-15 -76h-342zM136 693h102l-113 -172h-66z" />
    <glyph glyph-name="Etatonos" unicode="&#x389;" horiz-adv-x="720" 
d="M502 0l61 316h-245l-62 -316h-94l135 693h94l-58 -300h245l59 300h94l-135 -693h-94zM136 693h102l-113 -172h-66z" />
    <glyph glyph-name="Iotatonos" unicode="&#x38a;" horiz-adv-x="380" 
d="M162 0l135 693h94l-135 -693h-94zM136 693h102l-113 -172h-66z" />
    <glyph glyph-name="Omicrontonos" unicode="&#x38c;" horiz-adv-x="728" 
d="M476 626q-65 0 -111.5 -54t-72.5 -147.5t-26 -188.5q0 -84 31.5 -127.5t91.5 -43.5q65 0 111.5 54t72.5 147.5t26 188.5q0 84 -31.5 127.5t-91.5 43.5zM481 706q102 0 158 -68t56 -190q0 -91 -25 -181.5t-67 -153.5t-97 -95.5t-122 -32.5q-102 0 -158 68t-56 190
q0 91 25 181.5t67 153.5t97 95.5t122 32.5zM136 693h102l-113 -172h-66z" />
    <glyph glyph-name="Upsilontonos" unicode="&#x38e;" horiz-adv-x="665" 
d="M326 0l49 252l-95 441h98l59 -356l197 356h103l-271 -444l-48 -249h-92zM136 693h102l-113 -172h-66z" />
    <glyph glyph-name="Omegatonos" unicode="&#x38f;" horiz-adv-x="724" 
d="M119 74h129q-30 49 -47 111t-17 125q0 118 39.5 208.5t107.5 139t154 48.5q101 0 159 -71t58 -195q0 -106 -47.5 -205.5t-125.5 -160.5h125l-13 -74h-232l14 74q86 54 135 149.5t49 211.5q0 93 -34 142t-97 49q-90 0 -143 -84.5t-53 -228.5q0 -157 59 -239l-14 -74h-220z
M136 693h102l-113 -172h-66z" />
    <glyph glyph-name="iotadieresistonos" unicode="&#x390;" horiz-adv-x="255" 
d="M118 -5q-39 0 -59.5 22.5t-20.5 65.5q0 17 3.5 38t9.5 53l65 333h91l-65 -333q-10 -53 -10 -70q0 -34 27 -34q19 0 36 7l14 -61q-22 -12 -43 -16.5t-48 -4.5zM241 888h100l-112 -161h-64zM93 598q-23 0 -36.5 13t-13.5 35q0 26 16 44t42 18q24 0 37 -13t13 -34
q0 -26 -16 -44.5t-42 -18.5zM277 598q-23 0 -36.5 13t-13.5 35q0 26 16 44t42 18q24 0 37 -13t13 -34q0 -26 -16 -44.5t-42 -18.5z" />
    <glyph glyph-name="Alpha" unicode="&#x391;" horiz-adv-x="512" 
d="M356 0l-11 188h-202l-82 -188h-101l330 693h102l61 -693h-97zM175 260h167l-19 336z" />
    <glyph glyph-name="Beta" unicode="&#x392;" horiz-adv-x="513" 
d="M25 0l135 693h182q68 0 108.5 -40.5t40.5 -109.5q0 -67 -31 -117t-85 -72q41 -16 63.5 -49t22.5 -78q0 -67 -30.5 -119t-83.5 -80t-120 -28h-202zM176 319l-47 -246h111q54 0 90.5 45t36.5 112q0 40 -21.5 64.5t-56.5 24.5h-113zM235 621l-45 -231h104q46 0 77 41.5
t31 104.5q0 39 -21.5 62t-57.5 23h-88z" />
    <glyph glyph-name="Gamma" unicode="&#x393;" horiz-adv-x="414" 
d="M25 0l135 693h323l-15 -78h-229l-120 -615h-94z" />
    <glyph glyph-name="uni0394" unicode="&#x394;" horiz-adv-x="516" 
d="M-4 74l298 619h102l55 -619l-14 -74h-456zM358 74l-33 523l-235 -523h268z" />
    <glyph glyph-name="Epsilon" unicode="&#x395;" horiz-adv-x="458" 
d="M25 0l135 693h342l-15 -76h-248l-43 -221h207l-15 -76h-207l-47 -244h248l-15 -76h-342z" />
    <glyph glyph-name="Zeta" unicode="&#x396;" horiz-adv-x="467" 
d="M-11 0l15 73l386 540h-268l16 80h375l-15 -73l-387 -540h284l-16 -80h-390z" />
    <glyph glyph-name="Eta" unicode="&#x397;" horiz-adv-x="583" 
d="M365 0l61 316h-245l-62 -316h-94l135 693h94l-58 -300h245l59 300h94l-135 -693h-94z" />
    <glyph glyph-name="Theta" unicode="&#x398;" horiz-adv-x="627" 
d="M283 -15q-102 0 -158 68t-56 190q0 91 25 181.5t67 153.5t97 95.5t122 32.5q102 0 158 -68t56 -190q0 -91 -25 -181.5t-67 -153.5t-97 -95.5t-122 -32.5zM288 65q65 0 111.5 54t72.5 147.5t26 188.5q0 84 -31.5 127.5t-91.5 43.5q-65 0 -111.5 -54t-72.5 -147.5
t-26 -188.5q0 -84 31.5 -127.5t91.5 -43.5zM242 388h194l-15 -77h-194z" />
    <glyph glyph-name="Iota" unicode="&#x399;" horiz-adv-x="243" 
d="M25 0l135 693h94l-135 -693h-94z" />
    <glyph glyph-name="Kappa" unicode="&#x39a;" horiz-adv-x="502" 
d="M25 0l135 693h94l-60 -310l264 310h110l-299 -336l184 -357h-103l-165 340l-66 -340h-94z" />
    <glyph glyph-name="Lambda" unicode="&#x39b;" horiz-adv-x="498" 
d="M308 576l-246 -576h-102l322 693h100l57 -693h-101z" />
    <glyph glyph-name="Mu" unicode="&#x39c;" horiz-adv-x="677" 
d="M469 0l105 537l-208 -359h-84l-66 372l-107 -550h-84l135 693h106l74 -427l246 427h102l-135 -693h-84z" />
    <glyph glyph-name="Nu" unicode="&#x39d;" horiz-adv-x="580" 
d="M354 0l-139 547l-106 -547h-84l135 693h102l138 -548l107 548h84l-135 -693h-102z" />
    <glyph glyph-name="Xi" unicode="&#x39e;" horiz-adv-x="455" 
d="M5 81h379l-16 -81h-379zM114 393h283l-16 -81h-283zM132 693h363l-16 -81h-363z" />
    <glyph glyph-name="Omicron" unicode="&#x39f;" horiz-adv-x="627" 
d="M375 626q-65 0 -111.5 -54t-72.5 -147.5t-26 -188.5q0 -84 31.5 -127.5t91.5 -43.5q65 0 111.5 54t72.5 147.5t26 188.5q0 84 -31.5 127.5t-91.5 43.5zM380 706q102 0 158 -68t56 -190q0 -91 -25 -181.5t-67 -153.5t-97 -95.5t-122 -32.5q-102 0 -158 68t-56 190
q0 91 25 181.5t67 153.5t97 95.5t122 32.5z" />
    <glyph glyph-name="Pi" unicode="&#x3a0;" horiz-adv-x="568" 
d="M350 0l120 616h-231l-120 -616h-94l135 693h419l-135 -693h-94z" />
    <glyph glyph-name="Rho" unicode="&#x3a1;" horiz-adv-x="496" 
d="M168 270l-52 -270h-91l135 693h173q79 0 123.5 -44.5t44.5 -123.5q0 -77 -32 -135t-87.5 -89t-126.5 -31h-87zM236 618l-53 -273h77q68 0 108 47.5t40 126.5q0 48 -25 73.5t-72 25.5h-75z" />
    <glyph glyph-name="Sigma" unicode="&#x3a3;" horiz-adv-x="441" 
d="M-2 72l212 291l-100 256l14 74h367l-15 -78h-265l96 -259l-199 -278h275l-15 -78h-384z" />
    <glyph glyph-name="Tau" unicode="&#x3a4;" horiz-adv-x="459" 
d="M133 0l120 615h-168l15 78h430l-15 -78h-168l-120 -615h-94z" />
    <glyph glyph-name="Upsilon" unicode="&#x3a5;" horiz-adv-x="484" 
d="M145 0l49 252l-95 441h98l59 -356l197 356h103l-271 -444l-48 -249h-92z" />
    <glyph glyph-name="Phi" unicode="&#x3a6;" horiz-adv-x="677" 
d="M260 60q-60 3 -104 32t-67.5 77.5t-23.5 110.5q0 103 40 182.5t109.5 124t157.5 47.5l18 89h80l-18 -89q60 -4 104.5 -33t68 -77.5t23.5 -109.5q0 -79 -23.5 -144.5t-65.5 -111.5t-98 -71t-121 -27l-17 -90h-80zM155 274q0 -64 31 -102.5t88 -43.5l85 438
q-62 -4 -108.5 -43t-71 -104t-24.5 -145zM558 420q0 64 -31.5 102t-87.5 43l-85 -437q62 4 108.5 43t71 104t24.5 145z" />
    <glyph glyph-name="Chi" unicode="&#x3a7;" horiz-adv-x="483" 
d="M325 0l-79 279l-182 -279h-105l255 367l-100 326h99l69 -260l167 260h104l-239 -341l111 -352h-100z" />
    <glyph glyph-name="Psi" unicode="&#x3a8;" horiz-adv-x="625" 
d="M218 0l35 181q-78 12 -122 63t-44 132q0 36 17 122l38 195h91l-39 -200q-10 -52 -13 -73t-3 -41q0 -102 91 -119l84 433h91l-85 -433q120 7 155 179l50 254h91l-52 -267q-22 -113 -88.5 -176.5t-170.5 -69.5l-35 -180h-91z" />
    <glyph glyph-name="uni03A9" unicode="&#x3a9;" horiz-adv-x="604" 
d="M-1 74h129q-30 49 -47 111t-17 125q0 118 39.5 208.5t107.5 139t154 48.5q101 0 159 -71t58 -195q0 -106 -47.5 -205.5t-125.5 -160.5h125l-13 -74h-232l14 74q86 54 135 149.5t49 211.5q0 93 -34 142t-97 49q-90 0 -143 -84.5t-53 -228.5q0 -157 59 -239l-14 -74h-220z
" />
    <glyph glyph-name="Iotadieresis" unicode="&#x3aa;" horiz-adv-x="243" 
d="M25 0l135 693h94l-135 -693h-94zM144 780q-23 0 -37 13.5t-14 35.5q0 27 16.5 45.5t42.5 18.5q23 0 37 -13.5t14 -35.5q0 -27 -16.5 -45.5t-42.5 -18.5zM312 780q-23 0 -37 13.5t-14 35.5q0 27 16.5 45.5t42.5 18.5q23 0 37 -13.5t14 -35.5q0 -27 -16.5 -45.5
t-42.5 -18.5z" />
    <glyph glyph-name="Upsilondieresis" unicode="&#x3ab;" horiz-adv-x="484" 
d="M145 0l49 252l-95 441h98l59 -356l197 356h103l-271 -444l-48 -249h-92zM264 780q-23 0 -37 13.5t-14 35.5q0 27 16.5 45.5t42.5 18.5q23 0 37 -13.5t14 -35.5q0 -27 -16.5 -45.5t-42.5 -18.5zM432 780q-23 0 -37 13.5t-14 35.5q0 27 16.5 45.5t42.5 18.5q23 0 37 -13.5
t14 -35.5q0 -27 -16.5 -45.5t-42.5 -18.5z" />
    <glyph glyph-name="alphatonos" unicode="&#x3ac;" horiz-adv-x="491" 
d="M137 -13q-50 0 -75.5 41.5t-25.5 121.5q0 101 30.5 187t77.5 134.5t99 48.5q86 0 95 -125q16 65 33 112h94l-26 -74q-33 -93 -51.5 -176.5t-18.5 -137.5q0 -27 6.5 -38t21.5 -11t26 4l18 -58q-19 -11 -37 -16t-43 -5q-36 0 -54.5 24t-18.5 71q0 21 2 35
q-31 -67 -70.5 -102.5t-82.5 -35.5zM165 63q36 0 73.5 54.5t66.5 150.5q2 180 -54 180q-32 0 -60.5 -43.5t-45 -109t-16.5 -135.5q0 -97 36 -97zM288 773h101l-114 -172h-64z" />
    <glyph glyph-name="epsilontonos" unicode="&#x3ad;" horiz-adv-x="365" 
d="M157 -13q-62 0 -99 35.5t-37 94.5t31.5 99.5t88.5 52.5q-29 14 -45 40.5t-16 60.5q0 68 45.5 109t121.5 41q70 0 121 -30l-13 -67q-48 23 -101 23q-41 0 -64 -21.5t-23 -59.5q0 -29 17 -47t44 -18h51l-16 -72h-61q-43 0 -68.5 -26.5t-25.5 -69.5q0 -31 18.5 -51t47.5 -20
q53 0 111 34l21 -58q-66 -50 -149 -50zM294 773h101l-114 -172h-64z" />
    <glyph glyph-name="etatonos" unicode="&#x3ae;" horiz-adv-x="513" 
d="M268 -206l91 468q11 61 14.5 83.5t3.5 37.5q0 62 -47 62q-53 0 -127 -88l-69 -357h-91l65 331q5 24 8.5 43t3.5 30q0 34 -28 34q-12 0 -25 -4l-14 57q36 22 79 22q37 0 57 -24t20 -66v-2q36 48 76.5 73.5t81.5 25.5q49 0 75.5 -31.5t26.5 -89.5q0 -23 -3.5 -46t-15.5 -89
l-91 -470h-91zM378 773h101l-114 -172h-64z" />
    <glyph glyph-name="iotatonos" unicode="&#x3af;" horiz-adv-x="255" 
d="M118 -5q-39 0 -59.5 22.5t-20.5 65.5q0 17 3.5 38t9.5 53l65 333h91l-65 -333q-10 -53 -10 -70q0 -34 27 -34q19 0 36 7l14 -61q-22 -12 -43 -16.5t-48 -4.5zM211 773h101l-114 -172h-64z" />
    <glyph glyph-name="upsilondieresistonos" unicode="&#x3b0;" horiz-adv-x="429" 
d="M189 -13q-62 0 -95.5 38t-33.5 109q0 30 8 76l21 121q4 22 8 42.5t4 32.5q0 32 -26 32q-11 0 -24 -5l-15 59q36 21 78 21q35 0 55.5 -26t20.5 -70q0 -21 -7 -59l-26 -148q-8 -45 -8 -74q0 -39 12 -58t38 -19q55 0 83 70t28 207q0 93 -13 171h83q8 -31 13.5 -80.5
t5.5 -93.5q0 -168 -54.5 -257t-155.5 -89zM319 888h100l-112 -161h-64zM171 598q-23 0 -36.5 13t-13.5 35q0 26 16 44t42 18q24 0 37 -13t13 -34q0 -26 -16 -44.5t-42 -18.5zM355 598q-23 0 -36.5 13t-13.5 35q0 26 16 44t42 18q24 0 37 -13t13 -34q0 -26 -16 -44.5
t-42 -18.5z" />
    <glyph glyph-name="alpha" unicode="&#x3b1;" horiz-adv-x="491" 
d="M137 -13q-50 0 -75.5 41.5t-25.5 121.5q0 101 30.5 187t77.5 134.5t99 48.5q86 0 95 -125q16 65 33 112h94l-26 -74q-33 -93 -51.5 -176.5t-18.5 -137.5q0 -27 6.5 -38t21.5 -11t26 4l18 -58q-19 -11 -37 -16t-43 -5q-36 0 -54.5 24t-18.5 71q0 21 2 35
q-31 -67 -70.5 -102.5t-82.5 -35.5zM165 63q36 0 73.5 54.5t66.5 150.5q2 180 -54 180q-32 0 -60.5 -43.5t-45 -109t-16.5 -135.5q0 -97 36 -97z" />
    <glyph glyph-name="beta" unicode="&#x3b2;" horiz-adv-x="470" 
d="M-22 -206l138 705q25 131 74 193t128 62q60 0 97.5 -42.5t37.5 -110.5q0 -73 -31.5 -127t-87.5 -77q87 -31 87 -158q0 -74 -28 -132.5t-75.5 -90t-104.5 -31.5q-63 0 -106 34l-43 -225h-86zM120 86q15 -11 39 -18.5t44 -7.5q61 0 94.5 45.5t33.5 128.5q0 121 -91 121h-16
l13 69h16q49 0 83 48t34 119q0 40 -16.5 65.5t-42.5 25.5q-39 0 -65.5 -43.5t-44.5 -136.5z" />
    <glyph glyph-name="gamma" unicode="&#x3b3;" horiz-adv-x="391" 
d="M60 -206q15 84 21 145t6 123q0 73 -7 165t-28 280h95q20 -207 20 -399v-22q108 189 159 421h94q-27 -124 -95.5 -269.5t-150.5 -256.5q-2 -34 -9 -89.5t-15 -97.5h-90z" />
    <glyph glyph-name="delta" unicode="&#x3b4;" horiz-adv-x="459" 
d="M194 -13q-76 0 -117.5 47.5t-41.5 133.5q0 106 50.5 184.5t142.5 116.5q-28 28 -44 59t-16 57q0 77 46 123t123 46q39 0 75.5 -9.5t61.5 -25.5l-17 -66q-51 27 -120 27q-39 0 -60.5 -21.5t-21.5 -60.5q0 -20 14.5 -43t46.5 -55q38 -37 59.5 -68.5t32 -65t10.5 -72.5
q0 -92 -29 -162t-80 -107.5t-115 -37.5zM327 290q0 43 -13 74.5t-44 64.5q-71 -38 -107.5 -104t-36.5 -155q0 -51 20.5 -80t55.5 -29q37 0 65.5 30t44 82t15.5 117z" />
    <glyph glyph-name="epsilon" unicode="&#x3b5;" horiz-adv-x="365" 
d="M157 -13q-62 0 -99 35.5t-37 94.5t31.5 99.5t88.5 52.5q-29 14 -45 40.5t-16 60.5q0 68 45.5 109t121.5 41q70 0 121 -30l-13 -67q-48 23 -101 23q-41 0 -64 -21.5t-23 -59.5q0 -29 17 -47t44 -18h51l-16 -72h-61q-43 0 -68.5 -26.5t-25.5 -69.5q0 -31 18.5 -51t47.5 -20
q53 0 111 34l21 -58q-66 -50 -149 -50z" />
    <glyph glyph-name="zeta" unicode="&#x3b6;" horiz-adv-x="339" 
d="M132 -161q74 56 74 92q0 18 -8 29.5t-29 25.5l-50 33q-44 29 -62 65.5t-18 97.5q0 116 69 235t212 251h-176l14 72h261l-14 -72q-135 -132 -203.5 -249.5t-68.5 -215.5q0 -47 10.5 -73.5t35.5 -44.5l44 -31q37 -26 51.5 -48.5t14.5 -52.5q0 -48 -32 -91t-92 -77z" />
    <glyph glyph-name="eta" unicode="&#x3b7;" horiz-adv-x="513" 
d="M268 -206l91 468q11 61 14.5 83.5t3.5 37.5q0 62 -47 62q-53 0 -127 -88l-69 -357h-91l65 331q5 24 8.5 43t3.5 30q0 34 -28 34q-12 0 -25 -4l-14 57q36 22 79 22q37 0 57 -24t20 -66v-2q36 48 76.5 73.5t81.5 25.5q49 0 75.5 -31.5t26.5 -89.5q0 -23 -3.5 -46t-15.5 -89
l-91 -470h-91z" />
    <glyph glyph-name="theta" unicode="&#x3b8;" horiz-adv-x="479" 
d="M194 -15q-70 0 -104.5 55t-34.5 168q0 104 22 212t59 183t86 113t109 38q70 0 104.5 -55t34.5 -168q0 -104 -22 -212t-59 -183t-86 -113t-109 -38zM321 679q-52 0 -92.5 -71.5t-65.5 -203.5h209q11 85 11 136q0 74 -15 106.5t-47 32.5zM204 60q52 0 92.5 71.5t64.5 202.5
h-209q-10 -79 -10 -135q0 -74 15 -106.5t47 -32.5z" />
    <glyph glyph-name="iota" unicode="&#x3b9;" horiz-adv-x="255" 
d="M118 -5q-39 0 -59.5 22.5t-20.5 65.5q0 17 3.5 38t9.5 53l65 333h91l-65 -333q-10 -53 -10 -70q0 -34 27 -34q19 0 36 7l14 -61q-22 -12 -43 -16.5t-48 -4.5z" />
    <glyph glyph-name="kappa" unicode="&#x3ba;" horiz-adv-x="440" 
d="M263 291q24 -74 58.5 -150t73.5 -141h-104q-49 96 -89 228l-62 -63l-32 -165h-91l99 507h91l-44 -225l198 225h114z" />
    <glyph glyph-name="lambda" unicode="&#x3bb;" horiz-adv-x="381" 
d="M241 0l-24 397q-47 -86 -90 -192t-71 -205h-91q36 123 103 264.5t136 237.5l-6 91q-4 48 -13 67t-29 19q-16 0 -37 -8l-16 58q40 25 78 25q45 0 69 -35.5t31 -115.5l53 -603h-93z" />
    <glyph glyph-name="uni03BC" unicode="&#x3bc;" horiz-adv-x="499" 
d="M456 18q-15 -10 -36.5 -16.5t-41.5 -6.5q-36 0 -56 21t-22 60q-28 -43 -60 -66t-65 -23q-50 0 -66 49l-47 -242h-85l139 713h91l-51 -262q-16 -83 -16 -117t11 -50t34 -16q27 0 58 22t60 61l70 362h91l-64 -329q-11 -59 -11 -76q0 -33 26 -33q13 0 26 5z" />
    <glyph glyph-name="nu" unicode="&#x3bd;" horiz-adv-x="398" 
d="M57 507h93l20 -429q51 90 95.5 203t74.5 226h92q-17 -76 -54 -165t-87 -179t-103 -163h-84z" />
    <glyph glyph-name="xi" unicode="&#x3be;" horiz-adv-x="344" 
d="M139 -161q74 56 74 92q0 20 -8 31.5t-28 23.5l-52 33q-90 57 -90 156q0 85 44.5 148t115.5 79q-34 18 -53.5 53.5t-19.5 79.5q0 100 55 159.5t145 59.5q55 0 97 -21l-14 -68q-37 14 -80 14q-50 0 -81 -39.5t-31 -103.5q0 -49 21.5 -80t54.5 -31h33l-14 -72h-49
q-59 0 -94.5 -44.5t-35.5 -117.5q0 -38 13 -62t43 -44l46 -31q37 -25 51 -47t14 -54q0 -48 -32 -91t-92 -77z" />
    <glyph glyph-name="omicron" unicode="&#x3bf;" horiz-adv-x="463" 
d="M264 446q-42 0 -72 -39t-46.5 -106.5t-16.5 -132.5q0 -107 70 -107q42 0 72 39t46.5 106.5t16.5 132.5q0 107 -70 107zM195 -13q-74 0 -115.5 49.5t-41.5 138.5q0 67 18.5 134.5t49.5 115t72 71.5t90 24q74 0 115.5 -49.5t41.5 -138.5q0 -67 -18.5 -134.5t-49.5 -115
t-72 -71.5t-90 -24z" />
    <glyph glyph-name="pi" unicode="&#x3c0;" horiz-adv-x="488" 
d="M341 -5q-40 0 -60.5 22.5t-20.5 65.5q0 23 14 91l51 259h-99q-26 -126 -41 -189.5t-32.5 -123t-39.5 -120.5h-95q43 118 70 217.5t47 215.5h-82l15 74h440l-14 -74h-78l-51 -259q-10 -53 -10 -70q0 -34 27 -34q16 0 36 5l14 -60q-38 -20 -91 -20z" />
    <glyph glyph-name="rho" unicode="&#x3c1;" horiz-adv-x="463" 
d="M-31 -206l93 474q26 131 76.5 191.5t133.5 60.5q70 0 112 -50t42 -132q0 -98 -36.5 -179t-94.5 -126.5t-124 -45.5q-37 0 -71 16l-40 -209h-91zM113 70q24 -11 54 -11q47 0 86 38t60.5 100t21.5 134q0 55 -19 85t-53 30q-39 0 -66.5 -44t-45.5 -136z" />
    <glyph glyph-name="sigma1" unicode="&#x3c2;" horiz-adv-x="356" 
d="M126 19q-85 63 -85 171q0 93 34 169.5t88.5 118.5t116.5 42q53 0 95 -25l-13 -68q-41 19 -80 19q-42 0 -76.5 -34t-53 -90t-18.5 -123q0 -38 11.5 -64.5t40.5 -49.5l45 -35q26 -20 38 -34t17.5 -30t5.5 -37q0 -46 -32.5 -88.5t-91.5 -75.5l-34 55q75 56 75 91
q0 16 -7 26.5t-30 27.5z" />
    <glyph glyph-name="sigma" unicode="&#x3c3;" horiz-adv-x="472" 
d="M196 -13q-74 0 -115.5 49t-41.5 139q0 96 31.5 173t84.5 118t119 41h221l-15 -72h-113q45 -65 45 -158q0 -83 -27.5 -151t-75.5 -103.5t-113 -35.5zM325 298q0 44 -7.5 80.5t-20.5 56.5h-26q-44 0 -75 -36.5t-48.5 -100t-17.5 -123.5q0 -114 72 -114q40 0 67 30
t41.5 85.5t14.5 121.5z" />
    <glyph glyph-name="tau" unicode="&#x3c4;" horiz-adv-x="373" 
d="M199 -5q-45 0 -69.5 24t-24.5 70q0 28 14 99l47 245h-121l15 74h347l-14 -74h-134l-48 -241q-12 -59 -12 -83q0 -39 34 -39q26 0 54 8l16 -60q-46 -23 -104 -23z" />
    <glyph glyph-name="upsilon" unicode="&#x3c5;" horiz-adv-x="429" 
d="M189 -13q-62 0 -95.5 38t-33.5 109q0 30 8 76l21 121q4 22 8 42.5t4 32.5q0 32 -26 32q-11 0 -24 -5l-15 59q36 21 78 21q35 0 55.5 -26t20.5 -70q0 -21 -7 -59l-26 -148q-8 -45 -8 -74q0 -39 12 -58t38 -19q55 0 83 70t28 207q0 93 -13 171h83q8 -31 13.5 -80.5
t5.5 -93.5q0 -168 -54.5 -257t-155.5 -89z" />
    <glyph glyph-name="phi" unicode="&#x3c6;" horiz-adv-x="614" 
d="M177 -206l37 192q-82 13 -128 67.5t-46 141.5q0 92 36 165.5t99 114.5t144 46l23 118h81l-23 -118q82 -13 128.5 -67.5t46.5 -141.5q0 -92 -36 -165t-99 -114.5t-145 -46.5l-37 -192h-81zM486 307q0 64 -24 100t-76 45l-77 -398q55 6 94.5 41t61 91.5t21.5 120.5z
M129 200q0 -65 24 -100.5t75 -44.5l77 397q-54 -6 -93.5 -41t-61 -91t-21.5 -120z" />
    <glyph glyph-name="chi" unicode="&#x3c7;" horiz-adv-x="358" 
d="M129 155l-32 228q-4 29 -12.5 42t-24.5 13q-11 0 -24 -4l-15 61q32 18 68 18q35 0 57 -26t28 -75l19 -159l132 254h93l-205 -358l29 -230q7 -56 38 -56q12 0 28 4l9 -66q-12 -5 -31 -9t-35 -4q-36 0 -58.5 25.5t-27.5 72.5l-18 161l-134 -253h-93z" />
    <glyph glyph-name="psi" unicode="&#x3c8;" horiz-adv-x="581" 
d="M170 -206l38 195q-67 12 -104 61t-37 124q0 26 7 70l17 100q3 19 6.5 35t3.5 27q0 32 -26 32q-12 0 -24 -4l-15 58q37 21 78 21q35 0 54.5 -22.5t19.5 -60.5q0 -23 -11 -86l-18 -100q-5 -25 -5 -61q0 -46 17.5 -76.5t51.5 -41.5l112 574h81l-113 -577q75 11 118 82
t43 187q0 108 -13 176h81q19 -75 19 -174q0 -100 -33 -176.5t-92.5 -120.5t-137.5 -51l-37 -191h-81z" />
    <glyph glyph-name="omega" unicode="&#x3c9;" horiz-adv-x="575" 
d="M130 -10q-49 0 -75.5 39.5t-26.5 112.5q0 94 37.5 193t100.5 172h88q-67 -90 -102 -181.5t-35 -178.5q0 -81 41 -81q53 0 80 140l27 138h86l-27 -138q-5 -28 -5 -62q0 -78 43 -78q28 0 49.5 33t33 88.5t11.5 122.5q0 89 -37 197h86q18 -39 29 -92.5t11 -105.5
q0 -92 -25 -165.5t-66.5 -113.5t-91.5 -40q-43 0 -68 30t-30 87q-22 -56 -56.5 -86.5t-77.5 -30.5z" />
    <glyph glyph-name="iotadieresis" unicode="&#x3ca;" horiz-adv-x="255" 
d="M118 -5q-39 0 -59.5 22.5t-20.5 65.5q0 17 3.5 38t9.5 53l65 333h91l-65 -333q-10 -53 -10 -70q0 -34 27 -34q19 0 36 7l14 -61q-22 -12 -43 -16.5t-48 -4.5zM99 596q-23 0 -36.5 13t-13.5 35q0 26 16 44.5t42 18.5q23 0 36.5 -13t13.5 -35q0 -26 -16 -44.5t-42 -18.5z
M267 596q-23 0 -36.5 13t-13.5 35q0 26 16 44.5t42 18.5q23 0 36.5 -13t13.5 -35q0 -26 -16 -44.5t-42 -18.5z" />
    <glyph glyph-name="upsilondieresis" unicode="&#x3cb;" horiz-adv-x="429" 
d="M189 -13q-62 0 -95.5 38t-33.5 109q0 30 8 76l21 121q4 22 8 42.5t4 32.5q0 32 -26 32q-11 0 -24 -5l-15 59q36 21 78 21q35 0 55.5 -26t20.5 -70q0 -21 -7 -59l-26 -148q-8 -45 -8 -74q0 -39 12 -58t38 -19q55 0 83 70t28 207q0 93 -13 171h83q8 -31 13.5 -80.5
t5.5 -93.5q0 -168 -54.5 -257t-155.5 -89zM177 596q-23 0 -36.5 13t-13.5 35q0 26 16 44.5t42 18.5q23 0 36.5 -13t13.5 -35q0 -26 -16 -44.5t-42 -18.5zM345 596q-23 0 -36.5 13t-13.5 35q0 26 16 44.5t42 18.5q23 0 36.5 -13t13.5 -35q0 -26 -16 -44.5t-42 -18.5z" />
    <glyph glyph-name="omicrontonos" unicode="&#x3cc;" horiz-adv-x="463" 
d="M264 446q-42 0 -72 -39t-46.5 -106.5t-16.5 -132.5q0 -107 70 -107q42 0 72 39t46.5 106.5t16.5 132.5q0 107 -70 107zM195 -13q-74 0 -115.5 49.5t-41.5 138.5q0 67 18.5 134.5t49.5 115t72 71.5t90 24q74 0 115.5 -49.5t41.5 -138.5q0 -67 -18.5 -134.5t-49.5 -115
t-72 -71.5t-90 -24zM331 773h101l-114 -172h-64z" />
    <glyph glyph-name="upsilontonos" unicode="&#x3cd;" horiz-adv-x="429" 
d="M189 -13q-62 0 -95.5 38t-33.5 109q0 30 8 76l21 121q4 22 8 42.5t4 32.5q0 32 -26 32q-11 0 -24 -5l-15 59q36 21 78 21q35 0 55.5 -26t20.5 -70q0 -21 -7 -59l-26 -148q-8 -45 -8 -74q0 -39 12 -58t38 -19q55 0 83 70t28 207q0 93 -13 171h83q8 -31 13.5 -80.5
t5.5 -93.5q0 -168 -54.5 -257t-155.5 -89zM289 773h101l-114 -172h-64z" />
    <glyph glyph-name="omegatonos" unicode="&#x3ce;" horiz-adv-x="575" 
d="M130 -10q-49 0 -75.5 39.5t-26.5 112.5q0 94 37.5 193t100.5 172h88q-67 -90 -102 -181.5t-35 -178.5q0 -81 41 -81q53 0 80 140l27 138h86l-27 -138q-5 -28 -5 -62q0 -78 43 -78q28 0 49.5 33t33 88.5t11.5 122.5q0 89 -37 197h86q18 -39 29 -92.5t11 -105.5
q0 -92 -25 -165.5t-66.5 -113.5t-91.5 -40q-43 0 -68 30t-30 87q-22 -56 -56.5 -86.5t-77.5 -30.5zM385 773h101l-114 -172h-64z" />
    <glyph glyph-name="uni03D7" unicode="&#x3d7;" horiz-adv-x="441" 
d="M263 290q50 -152 133 -259q-38 -249 -222 -249q-51 0 -94 20l12 62q38 -11 80 -11q55 0 87.5 36t48.5 116q-30 38 -58 95.5t-50 125.5l-60 -61l-32 -165h-91l99 507h91l-44 -225l198 225h114z" />
    <glyph glyph-name="uni0400" unicode="&#x400;" horiz-adv-x="458" 
d="M25 0l135 693h342l-15 -76h-248l-43 -221h207l-15 -76h-207l-47 -244h248l-15 -76h-342zM296 769l-81 122h101l57 -122h-77z" />
    <glyph glyph-name="uni0401" unicode="&#x401;" horiz-adv-x="458" 
d="M25 0l135 693h342l-15 -76h-248l-43 -221h207l-15 -76h-207l-47 -244h248l-15 -76h-342zM268 780q-23 0 -37 13.5t-14 35.5q0 27 16.5 45.5t42.5 18.5q23 0 37 -13.5t14 -35.5q0 -27 -16.5 -45.5t-42.5 -18.5zM436 780q-23 0 -37 13.5t-14 35.5q0 27 16.5 45.5t42.5 18.5
q23 0 37 -13.5t14 -35.5q0 -27 -16.5 -45.5t-42.5 -18.5z" />
    <glyph glyph-name="uni0402" unicode="&#x402;" horiz-adv-x="631" 
d="M242 615h-156l15 78h428l-15 -78h-178l-44 -226q69 36 138 36q71 0 110.5 -44t39.5 -123q0 -81 -29 -142.5t-80 -94.5t-117 -33q-38 0 -68 13l13 68q20 -6 51 -6q63 0 99 50.5t36 136.5q0 100 -84 100q-59 0 -123 -31l-62 -319h-94z" />
    <glyph glyph-name="uni0403" unicode="&#x403;" horiz-adv-x="414" 
d="M25 0l135 693h323l-15 -78h-229l-120 -615h-94zM368 769h-82l101 122h106z" />
    <glyph glyph-name="uni0404" unicode="&#x404;" horiz-adv-x="512" 
d="M454 54q-40 -33 -89 -51t-101 -18q-92 0 -143.5 65.5t-51.5 181.5q0 137 48 246t127 168.5t173 59.5q38 0 68 -8.5t59 -27.5l-14 -73q-52 27 -114 27q-52 0 -98.5 -29t-81 -81.5t-52.5 -121.5h269l-15 -77h-269q-4 -31 -4 -71q0 -85 31.5 -131t89.5 -46q66 0 150 58z" />
    <glyph glyph-name="uni0405" unicode="&#x405;" horiz-adv-x="460" 
d="M194 331q-50 32 -72 68.5t-22 86.5q0 65 29.5 115t78.5 77.5t109 27.5q84 0 139 -42l-14 -72q-46 33 -120 33q-60 0 -93.5 -32.5t-33.5 -92.5q0 -31 13.5 -52.5t44.5 -41.5l55 -35q51 -33 72.5 -68.5t21.5 -85.5q0 -68 -31 -121t-83 -82t-116 -29q-101 0 -161 46l14 72
q60 -37 144 -37q61 0 99 36.5t38 94.5q0 33 -14.5 57t-47.5 45z" />
    <glyph glyph-name="uni0406" unicode="&#x406;" horiz-adv-x="243" 
d="M25 0l135 693h94l-135 -693h-94z" />
    <glyph glyph-name="uni0407" unicode="&#x407;" horiz-adv-x="243" 
d="M25 0l135 693h94l-135 -693h-94zM144 780q-23 0 -37 13.5t-14 35.5q0 27 16.5 45.5t42.5 18.5q23 0 37 -13.5t14 -35.5q0 -27 -16.5 -45.5t-42.5 -18.5zM312 780q-23 0 -37 13.5t-14 35.5q0 27 16.5 45.5t42.5 18.5q23 0 37 -13.5t14 -35.5q0 -27 -16.5 -45.5
t-42.5 -18.5z" />
    <glyph glyph-name="uni0408" unicode="&#x408;" horiz-adv-x="358" 
d="M278 693h94l-99 -508q-19 -101 -66 -150.5t-122 -49.5q-54 0 -107 31l14 73q52 -23 92 -23q39 0 61.5 30t36.5 103z" />
    <glyph glyph-name="uni0409" unicode="&#x409;" horiz-adv-x="766" 
d="M491 402h73q73 0 114.5 -42.5t41.5 -118.5q0 -73 -29.5 -127.5t-81.5 -84t-118 -29.5h-172l120 616h-112q-58 -241 -104 -374t-94.5 -191.5t-117.5 -58.5q-22 0 -41 7l15 78q10 -2 20 -2q38 0 72.5 51.5t74 171t91.5 333.5l15 62h290zM477 329l-50 -256h69q60 0 95.5 44
t35.5 118q0 46 -21.5 70t-62.5 24h-66z" />
    <glyph glyph-name="uni040A" unicode="&#x40a;" horiz-adv-x="778" 
d="M160 693h94l-58 -301h211l59 301h94l-57 -291h73q73 0 114.5 -42.5t41.5 -118.5q0 -73 -29.5 -127.5t-81.5 -84t-118 -29.5h-172l62 316h-212l-62 -316h-94zM489 329l-50 -256h69q60 0 95.5 44t35.5 118q0 46 -21.5 70t-62.5 24h-66z" />
    <glyph glyph-name="uni040B" unicode="&#x40b;" horiz-adv-x="639" 
d="M122 0l120 615h-156l15 78h428l-15 -78h-178l-45 -227q81 39 154 39q65 0 101 -33.5t36 -93.5q0 -31 -9 -79l-43 -221h-94l43 223q7 35 7 57q0 72 -71 72q-63 0 -137 -34l-62 -318h-94z" />
    <glyph glyph-name="uni040C" unicode="&#x40c;" horiz-adv-x="502" 
d="M25 0l135 693h94l-62 -317l271 317h110l-297 -333l182 -360h-103l-168 351l-68 -351h-94zM403 769h-82l101 122h106z" />
    <glyph glyph-name="uni040D" unicode="&#x40d;" horiz-adv-x="586" 
d="M145 168l359 525h93l-135 -693h-88l101 523l-357 -523h-93l135 693h88zM338 769l-81 122h101l57 -122h-77z" />
    <glyph glyph-name="uni040E" unicode="&#x40e;" 
d="M92 -15q-31 0 -55 7l15 76q17 -3 39 -3q33 0 56.5 21.5t53.5 82.5l-105 524h99l65 -423l204 423h103l-291 -552q-45 -85 -86.5 -120.5t-97.5 -35.5zM292 920q-10 -28 -10 -47q0 -23 15.5 -36t42.5 -13q37 0 60.5 19t31.5 54l5 23h60q-4 -74 -47.5 -115t-118.5 -41
q-51 0 -83 26t-32 67q0 37 18 63h58z" />
    <glyph glyph-name="uni040F" unicode="&#x40f;" horiz-adv-x="556" 
d="M186 0h-161l135 693h94l-120 -616h219l120 616h94l-135 -693h-161l-34 -176h-85z" />
    <glyph glyph-name="uni0410" unicode="&#x410;" horiz-adv-x="512" 
d="M356 0l-11 188h-202l-82 -188h-101l330 693h102l61 -693h-97zM175 260h167l-19 336z" />
    <glyph glyph-name="uni0411" unicode="&#x411;" horiz-adv-x="487" 
d="M25 0l135 693h333l-15 -78h-239l-41 -207h80q76 0 119 -43t43 -119q0 -75 -31 -130.5t-85 -85.5t-123 -30h-176zM184 335l-51 -262h73q65 0 103 45.5t38 121.5q0 46 -23.5 70.5t-67.5 24.5h-72z" />
    <glyph glyph-name="uni0412" unicode="&#x412;" horiz-adv-x="513" 
d="M25 0l135 693h182q68 0 108.5 -40.5t40.5 -109.5q0 -67 -31 -117t-85 -72q41 -16 63.5 -49t22.5 -78q0 -67 -30.5 -119t-83.5 -80t-120 -28h-202zM176 319l-47 -246h111q54 0 90.5 45t36.5 112q0 40 -21.5 64.5t-56.5 24.5h-113zM235 621l-45 -231h104q46 0 77 41.5
t31 104.5q0 39 -21.5 62t-57.5 23h-88z" />
    <glyph glyph-name="uni0413" unicode="&#x413;" horiz-adv-x="414" 
d="M25 0l135 693h323l-15 -78h-229l-120 -615h-94z" />
    <glyph glyph-name="uni0414" unicode="&#x414;" horiz-adv-x="577" 
d="M-12 77h41q54 58 104 183.5t112 357.5l20 75h303l-120 -616h70l-49 -253h-85l34 176h-360l-34 -176h-85zM331 616q-112 -429 -207 -539h231l105 539h-129z" />
    <glyph glyph-name="uni0415" unicode="&#x415;" horiz-adv-x="458" 
d="M25 0l135 693h342l-15 -76h-248l-43 -221h207l-15 -76h-207l-47 -244h248l-15 -76h-342z" />
    <glyph glyph-name="uni0416" unicode="&#x416;" horiz-adv-x="684" 
d="M-41 0l286 379l-137 314h91l126 -314l61 314h90l-61 -314l230 314h101l-256 -332l135 -361h-97l-119 349l-68 -349h-90l68 349l-255 -349h-105z" />
    <glyph glyph-name="uni0417" unicode="&#x417;" horiz-adv-x="456" 
d="M400 209q0 -68 -31.5 -119t-88 -78t-128.5 -27q-81 0 -148 36l15 74q30 -14 65 -22t66 -8q72 0 113 40t41 110q0 102 -102 102h-64l15 75h70q57 0 92.5 37.5t35.5 99.5q0 48 -26.5 72.5t-76.5 24.5q-28 0 -61 -10t-61 -26l-18 67q31 23 73.5 36t84.5 13q82 0 130.5 -43.5
t48.5 -118.5q0 -71 -34 -121.5t-97 -71.5q86 -31 86 -142z" />
    <glyph glyph-name="uni0418" unicode="&#x418;" horiz-adv-x="586" 
d="M145 168l359 525h93l-135 -693h-88l101 523l-357 -523h-93l135 693h88z" />
    <glyph glyph-name="uni0419" unicode="&#x419;" horiz-adv-x="586" 
d="M145 168l359 525h93l-135 -693h-88l101 523l-357 -523h-93l135 693h88zM343 920q-10 -28 -10 -47q0 -23 15.5 -36t42.5 -13q37 0 60.5 19t31.5 54l5 23h60q-4 -74 -47.5 -115t-118.5 -41q-51 0 -83 26t-32 67q0 37 18 63h58z" />
    <glyph glyph-name="uni041A" unicode="&#x41a;" horiz-adv-x="507" 
d="M25 0l135 693h94l-62 -317l271 317h110l-297 -333l182 -360h-103l-168 351l-68 -351h-94z" />
    <glyph glyph-name="uni041B" unicode="&#x41b;" horiz-adv-x="551" 
d="M453 616h-126q-59 -244 -104.5 -375.5t-94 -190t-117.5 -58.5q-20 0 -41 7l15 78q10 -2 20 -2q37 0 72 51t74 169.5t92 335.5l15 62h304l-135 -693h-94z" />
    <glyph glyph-name="uni041C" unicode="&#x41c;" horiz-adv-x="677" 
d="M469 0l105 537l-208 -359h-84l-66 372l-107 -550h-84l135 693h106l74 -427l246 427h102l-135 -693h-84z" />
    <glyph glyph-name="uni041D" unicode="&#x41d;" horiz-adv-x="583" 
d="M365 0l61 316h-245l-62 -316h-94l135 693h94l-58 -300h245l59 300h94l-135 -693h-94z" />
    <glyph glyph-name="uni041E" unicode="&#x41e;" horiz-adv-x="627" 
d="M375 626q-65 0 -111.5 -54t-72.5 -147.5t-26 -188.5q0 -84 31.5 -127.5t91.5 -43.5q65 0 111.5 54t72.5 147.5t26 188.5q0 84 -31.5 127.5t-91.5 43.5zM380 706q102 0 158 -68t56 -190q0 -91 -25 -181.5t-67 -153.5t-97 -95.5t-122 -32.5q-102 0 -158 68t-56 190
q0 91 25 181.5t67 153.5t97 95.5t122 32.5z" />
    <glyph glyph-name="uni041F" unicode="&#x41f;" horiz-adv-x="568" 
d="M350 0l120 616h-231l-120 -616h-94l135 693h419l-135 -693h-94z" />
    <glyph glyph-name="uni0420" unicode="&#x420;" horiz-adv-x="496" 
d="M168 270l-52 -270h-91l135 693h173q79 0 123.5 -44.5t44.5 -123.5q0 -77 -32 -135t-87.5 -89t-126.5 -31h-87zM236 618l-53 -273h77q68 0 108 47.5t40 126.5q0 48 -25 73.5t-72 25.5h-75z" />
    <glyph glyph-name="uni0421" unicode="&#x421;" horiz-adv-x="504" 
d="M446 54q-83 -69 -186 -69q-90 0 -140.5 65.5t-50.5 181.5q0 137 47.5 246t125.5 168.5t170 59.5q37 0 66.5 -8.5t57.5 -27.5l-14 -73q-51 27 -111 27q-71 0 -127 -52.5t-86.5 -138.5t-30.5 -189q0 -85 29.5 -131t85.5 -46q33 0 67.5 13.5t78.5 44.5z" />
    <glyph glyph-name="uni0422" unicode="&#x422;" horiz-adv-x="459" 
d="M133 0l120 615h-168l15 78h430l-15 -78h-168l-120 -615h-94z" />
    <glyph glyph-name="uni0423" unicode="&#x423;" 
d="M92 -15q-31 0 -55 7l15 76q17 -3 39 -3q33 0 56.5 21.5t53.5 82.5l-105 524h99l65 -423l204 423h103l-291 -552q-45 -85 -86.5 -120.5t-97.5 -35.5z" />
    <glyph glyph-name="uni0424" unicode="&#x424;" horiz-adv-x="677" 
d="M260 60q-60 3 -104 32t-67.5 77.5t-23.5 110.5q0 103 40 182.5t109.5 124t157.5 47.5l18 89h80l-18 -89q60 -4 104.5 -33t68 -77.5t23.5 -109.5q0 -79 -23.5 -144.5t-65.5 -111.5t-98 -71t-121 -27l-17 -90h-80zM155 274q0 -64 31 -102.5t88 -43.5l85 438
q-62 -4 -108.5 -43t-71 -104t-24.5 -145zM558 420q0 64 -31.5 102t-87.5 43l-85 -437q62 4 108.5 43t71 104t24.5 145z" />
    <glyph glyph-name="uni0425" unicode="&#x425;" horiz-adv-x="483" 
d="M325 0l-79 279l-182 -279h-105l255 367l-100 326h99l69 -260l167 260h104l-239 -341l111 -352h-100z" />
    <glyph glyph-name="uni0426" unicode="&#x426;" horiz-adv-x="569" 
d="M376 -176l34 176h-385l135 693h94l-120 -616h212l120 616h94l-120 -616h70l-49 -253h-85z" />
    <glyph glyph-name="uni0427" unicode="&#x427;" horiz-adv-x="542" 
d="M324 0l58 300q-69 -39 -157 -39q-63 0 -98 31.5t-35 87.5q0 49 17 133l35 180h94l-34 -175q-10 -50 -13.5 -73.5t-3.5 -41.5q0 -35 16 -50.5t51 -15.5q76 0 142 35l63 321h94l-135 -693h-94z" />
    <glyph glyph-name="uni0428" unicode="&#x428;" horiz-adv-x="784" 
d="M160 693h91l-120 -616h181l120 616h91l-120 -616h181l120 616h91l-135 -693h-635z" />
    <glyph glyph-name="uni0429" unicode="&#x429;" horiz-adv-x="790" 
d="M597 -176l34 176h-606l135 693h91l-120 -616h174l120 616h91l-120 -616h174l120 616h91l-120 -616h70l-49 -253h-85z" />
    <glyph glyph-name="uni042A" unicode="&#x42a;" horiz-adv-x="583" 
d="M249 615h-162l15 78h256l-55 -280h76q74 0 116 -44t42 -121q0 -75 -30.5 -131.5t-83.5 -86.5t-120 -30h-174zM289 340l-52 -267h71q62 0 99 46.5t37 122.5q0 48 -22.5 73t-64.5 25h-68z" />
    <glyph glyph-name="uni042B" unicode="&#x42b;" horiz-adv-x="666" 
d="M160 693h94l-55 -280h73q72 0 112.5 -44t40.5 -121q0 -75 -30 -131.5t-82 -86.5t-117 -30h-171zM448 0l135 693h94l-135 -693h-94zM185 340l-52 -267h68q60 0 95.5 46t35.5 123q0 47 -21 72.5t-61 25.5h-65z" />
    <glyph glyph-name="uni042C" unicode="&#x42c;" horiz-adv-x="497" 
d="M25 0l135 693h94l-55 -280h84q79 0 123.5 -44t44.5 -121q0 -75 -32 -131t-87 -86.5t-126 -30.5h-181zM185 340l-52 -267h78q66 0 106.5 46t40.5 123q0 47 -25 72.5t-72 25.5h-76z" />
    <glyph glyph-name="uni042D" unicode="&#x42d;" horiz-adv-x="520" 
d="M147 -15q-83 0 -135 32l15 76q49 -26 117 -26q61 0 110.5 30.5t82.5 86.5t46 131h-251l15 77h244q1 6 1 12.5v13.5q0 206 -142 206q-65 0 -133 -42l-20 71q37 25 81 39t87 14q105 0 163.5 -73t58.5 -205t-45 -233t-122 -155.5t-173 -54.5z" />
    <glyph glyph-name="uni042E" unicode="&#x42e;" horiz-adv-x="795" 
d="M25 0l135 693h93l-59 -302h114q20 98 59 169.5t91.5 108.5t116.5 37q88 0 137.5 -65.5t49.5 -183.5q0 -92 -23 -184.5t-61.5 -157t-89 -97.5t-110.5 -33q-88 0 -137.5 65.5t-49.5 183.5q0 47 5 83h-116l-62 -317h-93zM566 626q-56 0 -96.5 -56.5t-63.5 -152.5t-23 -189
q0 -80 26 -121.5t76 -41.5q56 0 96.5 56t63.5 152t23 190q0 80 -26 121.5t-76 41.5z" />
    <glyph glyph-name="uni042F" unicode="&#x42f;" horiz-adv-x="494" 
d="M176 305q-40 19 -61.5 58t-21.5 93q0 73 27.5 126.5t76 82t113.5 28.5h195l-135 -693h-90l56 288h-78l-187 -288h-110zM192 458q0 -45 22 -71t61 -26h75l50 257h-85q-58 0 -90.5 -42.5t-32.5 -117.5z" />
    <glyph glyph-name="uni0430" unicode="&#x430;" horiz-adv-x="464" 
d="M132 -13q-48 0 -74 40t-26 114q0 106 38.5 193.5t98.5 136.5t128 49q34 0 72 -10.5t69 -27.5l-94 -482h-75l6 77q-65 -90 -143 -90zM171 63q52 0 112 86l57 292q-28 7 -47 7q-45 0 -84 -44.5t-61.5 -112t-22.5 -138.5q0 -90 46 -90z" />
    <glyph glyph-name="uni0431" unicode="&#x431;" horiz-adv-x="481" 
d="M204 -13q-74 0 -113 51.5t-39 148.5q0 138 37 257.5t99 181.5q53 53 176 83l148 37l-16 -83l-145 -36q-51 -13 -75 -24t-40 -28q-40 -43 -69 -163q28 24 64 38t70 14q63 0 99.5 -45.5t36.5 -124.5q0 -89 -32 -159.5t-84.5 -109t-116.5 -38.5zM273 390q-61 0 -114 -36
q-9 -41 -13 -75.5t-4 -78.5q0 -71 18 -105t56 -34q37 0 66.5 30.5t45.5 80t16 107.5q0 111 -71 111z" />
    <glyph glyph-name="uni0432" unicode="&#x432;" horiz-adv-x="441" 
d="M381 163q0 -79 -53 -127.5t-138 -48.5q-74 0 -114 45.5t-40 130.5q0 103 35 185t93.5 127t128.5 45q57 0 89 -28.5t32 -78.5q0 -96 -110 -143q36 -10 56.5 -38t20.5 -69zM118 168q0 -110 82 -110q46 0 72 28t26 76q0 69 -56 81l-121 -29q-3 -28 -3 -46zM209 290
q61 14 92.5 42.5t31.5 68.5q0 50 -52 50t-94 -49t-59 -131z" />
    <glyph glyph-name="uni0433" unicode="&#x433;" horiz-adv-x="358" 
d="M145 -13q-66 0 -101.5 32t-35.5 91t31.5 100.5t99.5 71.5l48 21q40 17 57.5 38t17.5 50q0 57 -70 57q-48 0 -99 -28l-20 58q61 42 140 42q63 0 99 -32t36 -88q0 -55 -31.5 -95t-97.5 -70l-54 -24q-70 -31 -70 -92q0 -60 70 -60q47 0 110 33l20 -58q-29 -22 -69 -34.5
t-81 -12.5z" />
    <glyph glyph-name="uni0434" unicode="&#x434;" horiz-adv-x="480" 
d="M259 485q42 0 71.5 -22.5t41.5 -64.5q3 32 3 74q0 102 -33.5 149.5t-107.5 50.5l11 78q211 0 211 -270q0 -151 -33 -263t-91.5 -171t-135.5 -59t-119.5 46.5t-42.5 130.5t30.5 162t80.5 118.5t114 40.5zM267 408q-44 0 -75.5 -35t-49 -96.5t-17.5 -119.5q0 -96 75 -96
q44 0 75.5 35t49 96.5t17.5 119.5q0 96 -75 96z" />
    <glyph glyph-name="uni0435" unicode="&#x435;" horiz-adv-x="417" 
d="M338 47q-77 -60 -172 -60q-63 0 -97.5 42.5t-34.5 120.5q0 106 36.5 191.5t96.5 132t131 46.5q49 0 76.5 -29.5t27.5 -80.5q0 -80 -60 -137.5t-173 -86.5l-46 -12v-8q0 -58 16 -82.5t53 -24.5q59 0 127 48zM278 449q-50 0 -92.5 -61t-57.5 -152l49 15q67 20 104.5 60
t37.5 91q0 22 -11 34.5t-30 12.5z" />
    <glyph glyph-name="uni0436" unicode="&#x436;" horiz-adv-x="775" 
d="M163 520q51 0 79.5 -43.5t28.5 -121.5q0 -30 -3 -59h84l41 211h81l-41 -211h82q25 101 78.5 162.5t117.5 61.5q18 0 36.5 -5t30.5 -14l-13 -65q-25 12 -49 12q-38 0 -69 -40t-48.5 -104t-17.5 -137q0 -55 12.5 -81.5t38.5 -26.5q16 0 28.5 4.5t29.5 16.5l21 -56
q-19 -17 -46.5 -27t-58.5 -10q-51 0 -79.5 43.5t-28.5 121.5q0 40 4 71h-84l-43 -223h-81l43 223h-80q-24 -106 -78.5 -171t-120.5 -65q-18 0 -36.5 5t-30.5 14l13 65q26 -12 49 -12q38 0 69 40t48.5 104t17.5 137q0 55 -12.5 81.5t-38.5 26.5q-16 0 -28.5 -4.5t-29.5 -16.5
l-21 56q19 17 46.5 27t58.5 10z" />
    <glyph glyph-name="uni0437" unicode="&#x437;" horiz-adv-x="383" 
d="M122 -13q-70 0 -124 30l13 64q56 -22 113 -22q51 0 80 26.5t29 74.5q0 66 -86 66h-56l13 64h57q47 0 72.5 25t25.5 70q0 30 -18 46.5t-52 16.5q-43 0 -96 -27l-23 54q25 20 63.5 32.5t75.5 12.5q62 0 100 -34t38 -90q0 -51 -24.5 -87.5t-67.5 -51.5q32 -12 49.5 -38.5
t17.5 -62.5q0 -77 -54.5 -123t-145.5 -46z" />
    <glyph glyph-name="uni0438" unicode="&#x438;" horiz-adv-x="485" 
d="M290 0l7 86q-33 -47 -73.5 -73t-80.5 -26q-96 0 -96 118q0 47 17 138l52 264h91l-52 -262q-16 -80 -16 -126q0 -29 10 -42.5t31 -13.5q26 0 59.5 24.5t64.5 67.5l69 352h91l-99 -507h-75z" />
    <glyph glyph-name="uni0439" unicode="&#x439;" horiz-adv-x="477" 
d="M286 0l7 86q-33 -47 -73.5 -73t-80.5 -26q-96 0 -96 118q0 47 17 138l52 264h91l-52 -262q-16 -80 -16 -126q0 -29 10 -42.5t31 -13.5q26 0 59.5 24.5t64.5 67.5l69 352h91l-99 -507h-75zM296 597q-51 0 -83 28t-32 72q0 40 19 68h56q-10 -32 -10 -53q0 -26 16 -41
t43 -15q72 0 92 82l6 27h59q-4 -79 -47.5 -123.5t-118.5 -44.5z" />
    <glyph glyph-name="uni043A" unicode="&#x43a;" horiz-adv-x="438" 
d="M21 0l99 507h91l-44 -223l192 223h109l-225 -248l144 -259h-103l-125 242l-47 -242h-91z" />
    <glyph glyph-name="uni043B" unicode="&#x43b;" 
d="M18 -13q-32 0 -54 12l13 65q10 -2 21 -2q25 0 42.5 20t33.5 66l53 154q28 82 55 129t60.5 68t86.5 21q30 0 66.5 -7t66.5 -18l-97 -495h-91l87 446q-19 3 -31 3q-28 0 -45 -10t-33.5 -41t-44.5 -113l-50 -146q-28 -82 -59.5 -117t-79.5 -35z" />
    <glyph glyph-name="uni043C" unicode="&#x43c;" horiz-adv-x="564" 
d="M366 0l72 369l-153 -265h-65l-47 274l-74 -378h-78l99 507h94l55 -315l182 315h92l-99 -507h-78z" />
    <glyph glyph-name="uni043D" unicode="&#x43d;" horiz-adv-x="493" 
d="M282 0l43 223h-170l-43 -223h-91l99 507h91l-41 -211h170l41 211h91l-99 -507h-91z" />
    <glyph glyph-name="uni043E" unicode="&#x43e;" horiz-adv-x="467" 
d="M266 446q-42 0 -72.5 -39t-47.5 -106.5t-17 -132.5q0 -107 72 -107q42 0 72.5 39t47.5 106.5t17 132.5q0 107 -72 107zM197 -13q-75 0 -117 49.5t-42 138.5t31 173t82.5 128t118.5 44q75 0 117 -49.5t42 -138.5t-31 -173t-82.5 -128t-118.5 -44z" />
    <glyph glyph-name="uni043F" unicode="&#x43f;" horiz-adv-x="495" 
d="M286 0l51 262q11 61 14.5 83.5t3.5 37.5q0 62 -47 62q-27 0 -61.5 -24.5t-65.5 -65.5l-69 -355h-91l99 507h74l-5 -84q33 46 73.5 71.5t82.5 25.5q49 0 75.5 -31.5t26.5 -89.5q0 -22 -3 -44t-16 -91l-51 -264h-91z" />
    <glyph glyph-name="uni0440" unicode="&#x440;" horiz-adv-x="468" 
d="M-19 -206l139 713h74l-5 -78q32 44 70.5 67.5t77.5 23.5q47 0 72 -40.5t25 -118.5q0 -107 -35 -193t-93 -133.5t-126 -47.5q-35 0 -69 16l-40 -209h-90zM295 444q-52 0 -116 -89l-56 -289q21 -7 52 -7q47 0 85.5 40.5t59.5 105.5t21 141q0 47 -12 72.5t-34 25.5z" />
    <glyph glyph-name="uni0441" unicode="&#x441;" horiz-adv-x="385" 
d="M326 48q-32 -30 -71.5 -45.5t-81.5 -15.5q-66 0 -102.5 44.5t-36.5 123.5q0 78 22.5 147t59 118t81.5 74.5t94 25.5q56 0 97 -27l-13 -68q-38 18 -77 18q-48 0 -87.5 -38.5t-61.5 -101t-22 -135.5q0 -55 16.5 -79.5t54.5 -24.5q44 0 109 45z" />
    <glyph glyph-name="uni0442" unicode="&#x442;" horiz-adv-x="738" 
d="M529 0l51 262q17 90 17 121q0 62 -42 62q-26 0 -59 -23.5t-64 -64.5q-4 -39 -14 -91l-52 -266h-91l51 262q17 90 17 121q0 62 -42 62q-25 0 -57.5 -26.5t-63.5 -70.5l-68 -348h-91l99 507h74l-5 -83q32 45 71 70.5t78 25.5q41 0 66 -24.5t30 -71.5q34 46 75 71t83 25
q47 0 72.5 -31.5t25.5 -89.5q0 -26 -3.5 -50t-14.5 -83l-52 -266h-91z" />
    <glyph glyph-name="uni0443" unicode="&#x443;" horiz-adv-x="396" 
d="M-57 -152q62 25 96 54q37 33 77 98l-61 507h93l32 -425q26 55 53 125t55 147t55 153h93q-46 -136 -121.5 -295.5t-134.5 -247.5q-53 -80 -100.5 -123t-99.5 -60z" />
    <glyph glyph-name="uni0444" unicode="&#x444;" horiz-adv-x="640" 
d="M188 -206l48 247q-49 -54 -104 -54q-49 0 -74.5 40t-25.5 117q0 108 31 194.5t82 134t111 47.5q39 0 69 -23l47 243h83l-53 -274q49 54 104 54q49 0 74.5 -40t25.5 -117q0 -108 -31 -194.5t-82 -134t-111 -47.5q-40 0 -69 22l-42 -215h-83zM260 449q-40 0 -72 -41
t-49.5 -107t-17.5 -143q0 -47 13 -71.5t38 -24.5q35 0 76 41l65 336q-26 10 -53 10zM378 58q40 0 72 41t49.5 107t17.5 143q0 47 -13 71.5t-38 24.5q-35 0 -76 -41l-66 -336q26 -10 54 -10z" />
    <glyph glyph-name="uni0445" unicode="&#x445;" horiz-adv-x="389" 
d="M238 0l-58 191l-121 -191h-101l193 265l-88 242h93l54 -180l114 180h100l-184 -250l92 -257h-94z" />
    <glyph glyph-name="uni0446" unicode="&#x446;" horiz-adv-x="497" 
d="M320 -164l31 163q-26 1 -40 20.5t-14 55.5v11q-33 -47 -73.5 -73t-80.5 -26q-96 0 -96 118q0 47 17 138l52 264h91l-52 -262q-16 -80 -16 -126q0 -29 10 -42.5t31 -13.5q26 0 59.5 24.5t64.5 67.5l69 352h91l-65 -333q-10 -51 -10 -73q0 -31 30 -31q12 0 30 4l-46 -238
h-83z" />
    <glyph glyph-name="uni0447" unicode="&#x447;" horiz-adv-x="454" 
d="M243 0l41 212q-53 -30 -120 -30q-48 0 -75 30.5t-27 83.5q0 40 14 110l20 101h91l-19 -99q-13 -65 -13 -96q0 -32 12 -45.5t38 -13.5q45 0 91 21l46 233h91l-99 -507h-91z" />
    <glyph glyph-name="uni0448" unicode="&#x448;" horiz-adv-x="702" 
d="M354 507h89l-52 -262q-16 -80 -16 -126q0 -56 38 -56q23 0 51.5 22.5t57.5 65.5l70 356h89l-99 -507h-73l7 81q-29 -45 -65.5 -69.5t-75.5 -24.5q-84 0 -90 102q-29 -48 -68.5 -75t-79.5 -27q-90 0 -90 118q0 48 17 138l52 264h89l-52 -262q-16 -80 -16 -126
q0 -29 9 -42.5t28 -13.5q24 0 54.5 24.5t59.5 67.5q4 32 14 88z" />
    <glyph glyph-name="uni0449" unicode="&#x449;" horiz-adv-x="714" 
d="M616 174q-10 -51 -10 -73q0 -31 30 -31q12 0 30 4l-46 -238h-83l31 163q-25 1 -38.5 20t-13.5 56v6q-29 -45 -65.5 -69.5t-75.5 -24.5q-84 0 -90 102q-29 -48 -68.5 -75t-79.5 -27q-90 0 -90 118q0 48 17 138l52 264h89l-52 -262q-16 -80 -16 -126q0 -29 9 -42.5
t28 -13.5q24 0 54.5 24.5t59.5 67.5q4 32 14 88l52 264h89l-52 -262q-16 -80 -16 -126q0 -56 38 -56q23 0 51.5 22.5t57.5 65.5l70 356h89z" />
    <glyph glyph-name="uni044A" unicode="&#x44a;" 
d="M244 -13q-63 0 -96.5 32.5t-33.5 94.5q0 41 9 81l53 238h-128l14 74h217l-42 -191q48 26 97 26q50 0 81 -38t31 -99q0 -63 -28 -113t-73.5 -77.5t-100.5 -27.5zM295 270q-36 0 -72 -14l-12 -57q-10 -48 -10 -76q0 -33 13.5 -48.5t42.5 -15.5q43 0 70.5 38t27.5 97
q0 76 -60 76z" />
    <glyph glyph-name="uni044B" unicode="&#x44b;" horiz-adv-x="602" 
d="M120 507h88l-41 -189q47 24 92 24q49 0 79.5 -37.5t30.5 -99.5q0 -63 -27 -113t-72 -77.5t-99 -27.5q-62 0 -95 33t-33 94q0 38 9 81zM391 0l99 507h91l-99 -507h-91zM130 123q0 -33 13 -48.5t41 -15.5q41 0 67.5 38t26.5 97q0 76 -58 76q-32 0 -67 -13l-12 -57
q-11 -52 -11 -77z" />
    <glyph glyph-name="uni044C" unicode="&#x44c;" horiz-adv-x="420" 
d="M43 114q0 38 9 81l68 312h88l-42 -192q49 27 100 27t82.5 -38t31.5 -99q0 -63 -28 -113t-74.5 -77.5t-102.5 -27.5q-64 0 -98 33t-34 94zM130 123q0 -33 14 -48.5t44 -15.5q44 0 72.5 38t28.5 97q0 76 -61 76q-34 0 -75 -15l-12 -54q-11 -52 -11 -78z" />
    <glyph glyph-name="uni044D" unicode="&#x44d;" horiz-adv-x="410" 
d="M88 291h191q1 7 1 14v14q0 62 -24 94.5t-69 32.5q-46 0 -98 -29l-20 59q58 44 137 44q76 0 120 -54t44 -149q0 -97 -35.5 -172.5t-95 -116.5t-131.5 -41q-30 0 -58 7t-47 20l13 66q38 -19 80 -19q67 0 112.5 42.5t62.5 122.5h-196z" />
    <glyph glyph-name="uni044E" unicode="&#x44e;" horiz-adv-x="657" 
d="M394 -13q-72 0 -110.5 47.5t-38.5 136.5q0 25 3 52h-96l-43 -223h-88l99 507h88l-41 -212h93q25 105 80 165t130 60q70 0 109.5 -48.5t39.5 -135.5q0 -90 -31 -175t-80.5 -129.5t-113.5 -44.5zM463 446q-40 0 -69 -41t-45.5 -110t-16.5 -131q0 -103 65 -103q40 0 69 41
t45.5 110t16.5 131q0 103 -65 103z" />
    <glyph glyph-name="uni044F" unicode="&#x44f;" horiz-adv-x="434" 
d="M133 219q-33 14 -50.5 45.5t-17.5 75.5q0 80 51 130t134 50q79 0 160 -27l-96 -493h-87l40 207h-55l-137 -207h-101zM156 342q0 -74 71 -74h52l34 176q-30 6 -57 6q-48 0 -74 -28t-26 -80z" />
    <glyph glyph-name="uni0450" unicode="&#x450;" horiz-adv-x="417" 
d="M338 47q-77 -60 -172 -60q-63 0 -97.5 42.5t-34.5 120.5q0 106 36.5 191.5t96.5 132t131 46.5q49 0 76.5 -29.5t27.5 -80.5q0 -80 -60 -137.5t-173 -86.5l-46 -12v-8q0 -58 16 -82.5t53 -24.5q59 0 127 48zM278 449q-50 0 -92.5 -61t-57.5 -152l49 15q67 20 104.5 60
t37.5 91q0 22 -11 34.5t-30 12.5zM249 601l-77 159h100l48 -159h-71z" />
    <glyph glyph-name="uni0451" unicode="&#x451;" horiz-adv-x="417" 
d="M338 47q-77 -60 -172 -60q-63 0 -97.5 42.5t-34.5 120.5q0 106 36.5 191.5t96.5 132t131 46.5q49 0 76.5 -29.5t27.5 -80.5q0 -80 -60 -137.5t-173 -86.5l-46 -12v-8q0 -58 16 -82.5t53 -24.5q59 0 127 48zM278 449q-50 0 -92.5 -61t-57.5 -152l49 15q67 20 104.5 60
t37.5 91q0 22 -11 34.5t-30 12.5zM224 596q-23 0 -36.5 13t-13.5 35q0 26 16 44.5t42 18.5q23 0 36.5 -13t13.5 -35q0 -26 -16 -44.5t-42 -18.5zM392 596q-23 0 -36.5 13t-13.5 35q0 26 16 44.5t42 18.5q23 0 36.5 -13t13.5 -35q0 -26 -16 -44.5t-42 -18.5z" />
    <glyph glyph-name="uni0452" unicode="&#x452;" horiz-adv-x="500" 
d="M85 629h69l22 111h91l-22 -111h132l-13 -64h-131l-40 -205q33 43 71 65.5t75 22.5q47 0 72.5 -42.5t25.5 -119.5q0 -143 -37 -259.5t-96.5 -180.5t-127.5 -64q-14 0 -31 4t-25 9l13 64q19 -4 39 -4q47 0 87.5 62t63.5 156.5t23 196.5q0 103 -43 103q-27 0 -60.5 -24
t-64.5 -66l-55 -283h-91l110 565h-70z" />
    <glyph glyph-name="uni0453" unicode="&#x453;" horiz-adv-x="358" 
d="M145 -13q-66 0 -101.5 32t-35.5 91t31.5 100.5t99.5 71.5l48 21q40 17 57.5 38t17.5 50q0 57 -70 57q-48 0 -99 -28l-20 58q61 42 140 42q63 0 99 -32t36 -88q0 -55 -31.5 -95t-97.5 -70l-54 -24q-70 -31 -70 -92q0 -60 70 -60q47 0 110 33l20 -58q-29 -22 -69 -34.5
t-81 -12.5zM170 601l105 159h105l-134 -159h-76z" />
    <glyph glyph-name="uni0454" unicode="&#x454;" horiz-adv-x="397" 
d="M338 48q-33 -29 -74.5 -45t-85.5 -16q-68 0 -106 44.5t-38 123.5q0 101 38 186t98.5 132t128.5 47q58 0 101 -27l-13 -68q-39 18 -81 18q-51 0 -95 -41.5t-67 -110.5h199l-13 -65h-201q-4 -25 -4 -58q0 -55 18.5 -79.5t59.5 -24.5q50 0 116 45z" />
    <glyph glyph-name="uni0455" unicode="&#x455;" horiz-adv-x="338" 
d="M146 368q0 -21 9 -35.5t33 -31.5l39 -27q36 -25 51.5 -51.5t15.5 -62.5q0 -75 -48.5 -124t-123.5 -49q-79 0 -135 39l13 66q55 -33 117 -33q40 0 64 23.5t24 61.5q0 22 -9 37t-35 34l-37 26q-35 25 -50.5 52t-15.5 63q0 71 46 117.5t117 46.5q66 0 118 -35l-13 -65
q-46 28 -99 28q-38 0 -59.5 -21t-21.5 -59z" />
    <glyph glyph-name="uni0456" unicode="&#x456;" horiz-adv-x="236" 
d="M122 507h91l-99 -507h-91zM192 601q-24 0 -38.5 13.5t-14.5 36.5q0 29 17.5 47.5t44.5 18.5q24 0 38.5 -13.5t14.5 -36.5q0 -29 -17.5 -47.5t-44.5 -18.5z" />
    <glyph glyph-name="uni0457" unicode="&#x457;" horiz-adv-x="236" 
d="M122 507h91l-99 -507h-91zM104 596q-23 0 -36.5 13t-13.5 35q0 26 16 44.5t42 18.5q23 0 36.5 -13t13.5 -35q0 -26 -16 -44.5t-42 -18.5zM272 596q-23 0 -36.5 13t-13.5 35q0 26 16 44.5t42 18.5q23 0 36.5 -13t13.5 -35q0 -26 -16 -44.5t-42 -18.5z" />
    <glyph glyph-name="uni0458" unicode="&#x458;" horiz-adv-x="236" 
d="M213 507l-110 -563q-17 -85 -50 -123.5t-89 -38.5q-39 0 -71 20l12 62q18 -7 46 -7q24 0 38 20t23 67l110 563h91zM192 601q-24 0 -38.5 13.5t-14.5 36.5q0 29 17.5 47.5t44.5 18.5q24 0 38.5 -13.5t14.5 -36.5q0 -29 -17.5 -47.5t-44.5 -18.5z" />
    <glyph glyph-name="uni0459" unicode="&#x459;" horiz-adv-x="654" 
d="M157 139q-28 -82 -59.5 -117t-79.5 -35q-32 0 -54 12l13 65q10 -2 21 -2q25 0 42.5 20t33.5 66l53 154q29 85 55 131.5t58.5 66.5t83.5 20q31 0 66.5 -6t61.5 -16l-40 -182q47 26 94 26q48 0 78 -38t30 -99q0 -63 -27 -113t-72 -77.5t-98 -27.5q-62 0 -95 33t-33 94
q0 36 9 81l54 251q-15 3 -27 3q-27 0 -43 -10.5t-32 -41.5t-43 -112zM468 270q-35 0 -69 -14l-12 -55q-11 -52 -11 -78q0 -33 13 -48.5t41 -15.5q40 0 66.5 38t26.5 97q0 76 -55 76z" />
    <glyph glyph-name="uni045A" unicode="&#x45a;" horiz-adv-x="636" 
d="M271 114q0 38 9 81l7 31h-131l-44 -226h-91l99 507h91l-42 -214h132l47 214h88l-42 -191q47 26 94 26q48 0 78 -38t30 -99q0 -63 -27 -113t-72 -77.5t-98 -27.5q-62 0 -95 33t-33 94zM450 270q-35 0 -69 -14l-12 -55q-11 -52 -11 -78q0 -33 13 -48.5t41 -15.5
q40 0 66.5 38t26.5 97q0 76 -55 76z" />
    <glyph glyph-name="uni045B" unicode="&#x45b;" horiz-adv-x="505" 
d="M233 565l-40 -206q33 43 71.5 66t77.5 23q50 0 76 -31t26 -90q0 -20 -3 -44.5t-16 -90.5l-37 -192h-91l37 190q11 61 14.5 83.5t3.5 37.5q0 62 -47 62q-27 0 -62 -25t-65 -65l-55 -283h-91l110 565h-70l13 64h69l22 111h91l-22 -111h132l-13 -64h-131z" />
    <glyph glyph-name="uni045C" unicode="&#x45c;" horiz-adv-x="438" 
d="M21 0l99 507h91l-44 -223l192 223h109l-225 -248l144 -259h-103l-125 242l-47 -242h-91zM244 601l105 159h105l-134 -159h-76z" />
    <glyph glyph-name="uni045D" unicode="&#x45d;" horiz-adv-x="485" 
d="M290 0l7 86q-33 -47 -73.5 -73t-80.5 -26q-96 0 -96 118q0 47 17 138l52 264h91l-52 -262q-16 -80 -16 -126q0 -29 10 -42.5t31 -13.5q26 0 59.5 24.5t64.5 67.5l69 352h91l-99 -507h-75zM254 601l-77 159h100l48 -159h-71z" />
    <glyph glyph-name="uni045E" unicode="&#x45e;" horiz-adv-x="396" 
d="M-57 -152q62 25 96 54q37 33 77 98l-61 507h93l32 -425q26 55 53 125t55 147t55 153h93q-46 -136 -121.5 -295.5t-134.5 -247.5q-53 -80 -100.5 -123t-99.5 -60zM248 597q-51 0 -83 28t-32 72q0 40 19 68h56q-10 -32 -10 -53q0 -26 16 -41t43 -15q72 0 92 82l6 27h59
q-4 -79 -47.5 -123.5t-118.5 -44.5z" />
    <glyph glyph-name="uni045F" unicode="&#x45f;" horiz-adv-x="485" 
d="M290 0l7 86q-33 -47 -73.5 -73t-80.5 -26q-96 0 -96 118q0 47 17 138l52 264h91l-52 -262q-16 -80 -16 -126q0 -29 10 -42.5t31 -13.5q26 0 59.5 24.5t64.5 67.5l69 352h91l-99 -507h-75zM99 -231l40 166h69l-26 -166h-83z" />
    <glyph glyph-name="uni0462" unicode="&#x462;" horiz-adv-x="536" 
d="M275 541l-29 -150h79q76 0 120.5 -42t44.5 -115q0 -71 -31 -124t-84.5 -81.5t-121.5 -28.5h-177l105 541h-113l15 73h112l23 114h94l-23 -114h167l-15 -73h-166zM232 318l-48 -245h74q63 0 101 42.5t38 112.5q0 44 -24 67t-69 23h-72z" />
    <glyph glyph-name="uni0463" unicode="&#x463;" horiz-adv-x="641" 
d="M405 402q0 -33 -10 -88q50 28 98 28t78 -38t30 -99q0 -63 -27 -113t-72 -77.5t-98 -27.5q-62 0 -95 33t-33 94q0 33 9 81l13 67q13 69 16 90t3 34q0 59 -38 59q-21 0 -47 -20t-52 -56l-72 -369h-91l99 507h74l-5 -70q63 83 131 83q43 0 66 -30.5t23 -87.5zM455 270
q-37 0 -72 -15l-10 -54q-10 -47 -10 -78q0 -33 13 -48.5t41 -15.5q40 0 66.5 38t26.5 97q0 76 -55 76z" />
    <glyph glyph-name="uni0472" unicode="&#x472;" horiz-adv-x="627" 
d="M380 706q102 0 158 -68t56 -190q0 -91 -25 -181.5t-67 -153.5t-97 -95.5t-122 -32.5q-102 0 -158 68t-56 190q0 91 25 181.5t67 153.5t97 95.5t122 32.5zM286 65q74 0 126 66.5t75 184.5h-321q-5 -36 -5 -80q0 -85 32 -128t93 -43zM377 626q-71 0 -122 -61.5t-76 -172.5
h320q3 33 3 63q0 85 -32 128t-93 43z" />
    <glyph glyph-name="uni0473" unicode="&#x473;" horiz-adv-x="467" 
d="M197 -13q-75 0 -117 49.5t-42 138.5t31 173t82.5 128t118.5 44q75 0 117 -49.5t42 -138.5t-31 -173t-82.5 -128t-118.5 -44zM199 61q45 0 78 42.5t51 122.5h-200q-3 -33 -3 -58q0 -107 74 -107zM268 446q-45 0 -78 -41.5t-50 -116.5h199q3 29 3 51q0 107 -74 107z" />
    <glyph glyph-name="uni0474" unicode="&#x474;" horiz-adv-x="532" 
d="M156 0l-61 693h99l33 -583l198 465q30 71 63.5 99t88.5 28q25 0 44 -8l-14 -73q-12 2 -23 2q-23 0 -37.5 -14t-33.5 -55l-258 -554h-99z" />
    <glyph glyph-name="uni0475" unicode="&#x475;" horiz-adv-x="436" 
d="M110 0l-53 507h93l23 -407l129 296q29 66 59 93t74 27q25 0 48 -10l-13 -66q-13 3 -25 3q-17 0 -29 -12t-29 -46l-191 -385h-86z" />
    <glyph glyph-name="uni0490" unicode="&#x490;" horiz-adv-x="414" 
d="M25 0l135 693h241l27 137h82l-42 -215h-229l-120 -615h-94z" />
    <glyph glyph-name="uni0491" unicode="&#x491;" horiz-adv-x="356" 
d="M21 0l99 507h187l25 126h78l-40 -204h-174l-84 -429h-91z" />
    <glyph glyph-name="Wgrave" unicode="&#x1e80;" horiz-adv-x="736" 
d="M410 0l10 544l-198 -544h-107l-15 693h98l-8 -584l200 554h109l-13 -546l212 576h105l-286 -693h-107zM405 769l-81 122h101l57 -122h-77z" />
    <glyph glyph-name="wgrave" unicode="&#x1e81;" horiz-adv-x="594" 
d="M329 0l-3 402l-147 -402h-89l-34 507h91l8 -401l146 401h89l4 -417q81 192 146 417h92q-29 -101 -91 -247t-123 -260h-89zM301 601l-77 159h100l48 -159h-71z" />
    <glyph glyph-name="Wacute" unicode="&#x1e82;" horiz-adv-x="736" 
d="M410 0l10 544l-198 -544h-107l-15 693h98l-8 -584l200 554h109l-13 -546l212 576h105l-286 -693h-107zM489 769h-82l101 122h106z" />
    <glyph glyph-name="wacute" unicode="&#x1e83;" horiz-adv-x="594" 
d="M329 0l-3 402l-147 -402h-89l-34 507h91l8 -401l146 401h89l4 -417q81 192 146 417h92q-29 -101 -91 -247t-123 -260h-89zM305 601l105 159h105l-134 -159h-76z" />
    <glyph glyph-name="Wdieresis" unicode="&#x1e84;" horiz-adv-x="736" 
d="M410 0l10 544l-198 -544h-107l-15 693h98l-8 -584l200 554h109l-13 -546l212 576h105l-286 -693h-107zM377 780q-23 0 -37 13.5t-14 35.5q0 27 16.5 45.5t42.5 18.5q23 0 37 -13.5t14 -35.5q0 -27 -16.5 -45.5t-42.5 -18.5zM545 780q-23 0 -37 13.5t-14 35.5
q0 27 16.5 45.5t42.5 18.5q23 0 37 -13.5t14 -35.5q0 -27 -16.5 -45.5t-42.5 -18.5z" />
    <glyph glyph-name="wdieresis" unicode="&#x1e85;" horiz-adv-x="594" 
d="M329 0l-3 402l-147 -402h-89l-34 507h91l8 -401l146 401h89l4 -417q81 192 146 417h92q-29 -101 -91 -247t-123 -260h-89zM276 596q-23 0 -36.5 13t-13.5 35q0 26 16 44.5t42 18.5q23 0 36.5 -13t13.5 -35q0 -26 -16 -44.5t-42 -18.5zM444 596q-23 0 -36.5 13t-13.5 35
q0 26 16 44.5t42 18.5q23 0 36.5 -13t13.5 -35q0 -26 -16 -44.5t-42 -18.5z" />
    <glyph glyph-name="uni1E9E" unicode="&#x1e9e;" horiz-adv-x="563" 
d="M196 82q50 -19 96 -19q61 0 97.5 43t36.5 116q0 47 -23 72t-67 25q-28 0 -55 -5l13 65l155 230q-39 19 -89 19q-122 0 -158 -182l-87 -446h-94l86 441q25 129 91.5 197t167.5 68q93 0 167 -54l-14 -72l-133 -195q3 1 6.5 1h6.5q53 0 86 -43t33 -112q0 -72 -30 -128.5
t-80.5 -87t-111.5 -30.5q-67 0 -114 26z" />
    <glyph glyph-name="Ygrave" unicode="&#x1ef2;" horiz-adv-x="484" 
d="M145 0l49 252l-95 441h98l59 -356l197 356h103l-271 -444l-48 -249h-92zM292 769l-81 122h101l57 -122h-77z" />
    <glyph glyph-name="ygrave" unicode="&#x1ef3;" horiz-adv-x="396" 
d="M-57 -152q62 25 96 54q37 33 77 98l-61 507h93l32 -425q26 55 53 125t55 147t55 153h93q-46 -136 -121.5 -295.5t-134.5 -247.5q-53 -80 -100.5 -123t-99.5 -60zM202 601l-77 159h100l48 -159h-71z" />
    <glyph glyph-name="uni2000" unicode="&#x2000;" horiz-adv-x="500" 
 />
    <glyph glyph-name="uni2001" unicode="&#x2001;" horiz-adv-x="1000" 
 />
    <glyph glyph-name="uni2002" unicode="&#x2002;" horiz-adv-x="500" 
 />
    <glyph glyph-name="uni2003" unicode="&#x2003;" horiz-adv-x="1000" 
 />
    <glyph glyph-name="uni2004" unicode="&#x2004;" horiz-adv-x="333" 
 />
    <glyph glyph-name="uni2005" unicode="&#x2005;" horiz-adv-x="250" 
 />
    <glyph glyph-name="uni2006" unicode="&#x2006;" horiz-adv-x="167" 
 />
    <glyph glyph-name="uni2007" unicode="&#x2007;" 
 />
    <glyph glyph-name="uni2008" unicode="&#x2008;" horiz-adv-x="226" 
 />
    <glyph glyph-name="uni2009" unicode="&#x2009;" horiz-adv-x="200" 
 />
    <glyph glyph-name="uni200A" unicode="&#x200a;" horiz-adv-x="62" 
 />
    <glyph glyph-name="uni200B" unicode="&#x200b;" horiz-adv-x="0" 
 />
    <glyph glyph-name="uni2010" unicode="&#x2010;" horiz-adv-x="334" 
d="M35 220l15 78h251l-15 -78h-251z" />
    <glyph glyph-name="uni2012" unicode="&#x2012;" 
d="M54 312l15 74h400l-15 -74h-400z" />
    <glyph glyph-name="endash" unicode="&#x2013;" horiz-adv-x="400" 
d="M-6 222l15 74h400l-15 -74h-400z" />
    <glyph glyph-name="emdash" unicode="&#x2014;" horiz-adv-x="800" 
d="M-6 222l15 74h800l-15 -74h-800z" />
    <glyph glyph-name="uni2015" unicode="&#x2015;" horiz-adv-x="800" 
d="M-6 222l15 74h800l-15 -74h-800z" />
    <glyph glyph-name="quoteleft" unicode="&#x2018;" horiz-adv-x="226" 
d="M176 444h-41q-21 0 -30 7t-9 23q0 17 23 62l79 157h61z" />
    <glyph glyph-name="quoteright" unicode="&#x2019;" horiz-adv-x="226" 
d="M172 693h41q21 0 30 -7t9 -23q0 -17 -23 -62l-79 -157h-61z" />
    <glyph glyph-name="quotesinglbase" unicode="&#x201a;" horiz-adv-x="226" 
d="M58 106h41q21 0 30 -7t9 -23q0 -17 -23 -62l-79 -157h-61z" />
    <glyph glyph-name="uni201B" unicode="&#x201b;" horiz-adv-x="226" 
d="M150 444l-16 154q-3 27 -3 47q0 48 52 48h41l-14 -249h-60z" />
    <glyph glyph-name="quotedblleft" unicode="&#x201c;" horiz-adv-x="390" 
d="M176 444h-41q-21 0 -30 7t-9 23q0 17 23 62l79 157h61zM340 444h-41q-21 0 -30 7t-9 23q0 17 23 62l79 157h61z" />
    <glyph glyph-name="quotedblright" unicode="&#x201d;" horiz-adv-x="390" 
d="M172 693h41q21 0 30 -7t9 -23q0 -17 -23 -62l-79 -157h-61zM336 693h41q21 0 30 -7t9 -23q0 -17 -23 -62l-79 -157h-61z" />
    <glyph glyph-name="quotedblbase" unicode="&#x201e;" horiz-adv-x="390" 
d="M58 106h41q21 0 30 -7t9 -23q0 -17 -23 -62l-79 -157h-61zM222 106h41q21 0 30 -7t9 -23q0 -17 -23 -62l-79 -157h-61z" />
    <glyph glyph-name="uni201F" unicode="&#x201f;" horiz-adv-x="389" 
d="M150 444l-16 154q-3 27 -3 47q0 48 52 48h41l-14 -249h-60zM313 444l-16 154q-3 27 -3 47q0 48 52 48h41l-14 -249h-60z" />
    <glyph glyph-name="dagger" unicode="&#x2020;" horiz-adv-x="405" 
d="M82 -126l119 579l-140 -6l15 75l139 -6l36 224h95l-52 -224l140 6l-15 -75l-139 6l-103 -579h-95z" />
    <glyph glyph-name="daggerdbl" unicode="&#x2021;" horiz-adv-x="405" 
d="M224 161l140 6l-15 -75l-139 6l-36 -224h-95l52 224l-140 -6l15 75l139 -6l21 146l35 146l-140 -6l15 75l139 -6l36 224h95l-52 -224l140 6l-15 -75l-139 6l-21 -146z" />
    <glyph glyph-name="bullet" unicode="&#x2022;" horiz-adv-x="312" 
d="M143 127q-50 0 -80.5 31t-30.5 81q0 65 39.5 108.5t97.5 43.5q50 0 80.5 -31t30.5 -81q0 -65 -39.5 -108.5t-97.5 -43.5z" />
    <glyph glyph-name="ellipsis" unicode="&#x2026;" horiz-adv-x="800" 
d="M90 -10q-25 0 -39.5 15t-14.5 40q0 31 19 52t47 21q25 0 39.5 -15t14.5 -40q0 -31 -19 -52t-47 -21zM355 -10q-25 0 -39.5 15t-14.5 40q0 31 19 52t47 21q25 0 39.5 -15t14.5 -40q0 -31 -19 -52t-47 -21zM620 -10q-25 0 -39.5 15t-14.5 40q0 31 19 52t47 21
q25 0 39.5 -15t14.5 -40q0 -31 -19 -52t-47 -21z" />
    <glyph glyph-name="perthousand" unicode="&#x2030;" horiz-adv-x="1116" 
d="M181 0l386 693h77l-386 -693h-77zM582 -8q-52 0 -80 35.5t-28 100.5q0 67 22.5 133.5t58.5 101.5t82 35q52 0 80 -35.5t28 -100.5q0 -67 -22.5 -133.5t-58.5 -101.5t-82 -35zM636 337q-28 0 -48 -33t-32 -87.5t-12 -97.5q0 -66 39 -66q28 0 48 33t32 87.5t12 97.5
q0 66 -39 66zM908 -8q-52 0 -80 35.5t-28 100.5q0 67 22.5 133.5t58.5 101.5t82 35q52 0 80 -35.5t28 -100.5q0 -67 -22.5 -133.5t-58.5 -101.5t-82 -35zM962 337q-28 0 -48 -33t-32 -87.5t-12 -97.5q0 -66 39 -66q28 0 48 33t32 87.5t12 97.5q0 66 -39 66zM189 295
q-52 0 -80 35.5t-28 100.5q0 67 22.5 133.5t58.5 101.5t82 35q52 0 80 -35.5t28 -100.5q0 -67 -22.5 -133.5t-58.5 -101.5t-82 -35zM243 640q-28 0 -48 -33t-32 -87.5t-12 -97.5q0 -66 39 -66q28 0 48 33t32 87.5t12 97.5q0 66 -39 66z" />
    <glyph glyph-name="minute" unicode="&#x2032;" horiz-adv-x="235" 
d="M158 474h-65l97 218q28 13 53 13q12 0 25 -3.5t22 -9.5z" />
    <glyph glyph-name="second" unicode="&#x2033;" horiz-adv-x="397" 
d="M158 474h-65l97 218q28 13 53 13q12 0 25 -3.5t22 -9.5zM320 474h-65l97 218q28 13 53 13q12 0 25 -3.5t22 -9.5z" />
    <glyph glyph-name="guilsinglleft" unicode="&#x2039;" horiz-adv-x="286" 
d="M133 251l66 -200h-82l-74 208l149 208h88z" />
    <glyph glyph-name="guilsinglright" unicode="&#x203a;" horiz-adv-x="286" 
d="M8 51l147 216l-66 200h82l74 -208l-149 -208h-88z" />
    <glyph glyph-name="uni203D" unicode="&#x203d;" horiz-adv-x="394" 
d="M228 397q105 70 105 158q0 76 -82 76q-59 0 -120 -39l-11 64q31 23 72 36.5t81 13.5q66 0 107.5 -38.5t41.5 -101.5q0 -73 -50 -132t-160 -115l-24 -111h-73l57 327q21 11 46 11q23 0 40 -11zM118 -10q-25 0 -39.5 15t-14.5 40q0 31 19 52t47 21q25 0 39.5 -15t14.5 -40
q0 -31 -19 -52t-47 -21z" />
    <glyph glyph-name="fraction" unicode="&#x2044;" horiz-adv-x="118" 
d="M-154 0l386 693h77l-386 -693h-77z" />
    <glyph glyph-name="uni2052" unicode="&#x2052;" 
d="M-11 -144l433 898h96l-433 -898h-96zM310 -147q-26 0 -42.5 17t-16.5 43q0 33 21 56.5t52 23.5q26 0 42.5 -17t16.5 -43q0 -33 -21 -56.5t-52 -23.5zM183 617q-26 0 -42.5 17t-16.5 43q0 33 21 56.5t52 23.5q26 0 42.5 -17t16.5 -43q0 -33 -21 -56.5t-52 -23.5z" />
    <glyph glyph-name="uni2070" unicode="&#x2070;" horiz-adv-x="336" 
d="M206 382q-52 0 -80 35.5t-28 100.5q0 67 22.5 133.5t58.5 101.5t82 35q52 0 80 -35.5t28 -100.5q0 -67 -22.5 -133.5t-58.5 -101.5t-82 -35zM260 727q-28 0 -48 -33t-32 -87.5t-12 -97.5q0 -66 39 -66q28 0 48 33t32 87.5t12 97.5q0 66 -39 66z" />
    <glyph glyph-name="uni2074" unicode="&#x2074;" horiz-adv-x="336" 
d="M227 390l16 81h-165l11 55l209 254h65l-49 -253h48l-11 -56h-48l-16 -81h-60zM254 527l31 163l-134 -163h103z" />
    <glyph glyph-name="uni2075" unicode="&#x2075;" horiz-adv-x="336" 
d="M233 720l-25 -99q28 4 45 4q39 0 62 -25.5t23 -69.5q0 -66 -42 -107t-108 -41q-53 0 -91 23l11 55q39 -20 79 -20q37 0 59 22t22 58q0 53 -66 53q-21 0 -65 -6l8 40l44 173h183l-12 -60h-127z" />
    <glyph glyph-name="uni2076" unicode="&#x2076;" horiz-adv-x="336" 
d="M365 715q-28 15 -62 15q-43 0 -75.5 -33.5t-47.5 -93.5q45 29 84 29q38 0 60.5 -25.5t22.5 -69.5q0 -65 -39.5 -110t-96.5 -45q-51 0 -79 35t-28 97q0 79 27.5 142t72.5 97.5t98 34.5q40 0 73 -20zM236 576q-28 0 -63 -19q-2 -13 -2 -41q0 -77 47 -77q25 0 43 25.5
t18 62.5q0 49 -43 49z" />
    <glyph glyph-name="uni2077" unicode="&#x2077;" horiz-adv-x="336" 
d="M111 390l191 328h-162l12 62h235l-11 -57l-189 -333h-76z" />
    <glyph glyph-name="uni2078" unicode="&#x2078;" horiz-adv-x="336" 
d="M96 472q0 38 25 69t72 52q-23 19 -33 38t-10 43q0 48 37 81t92 33q44 0 70 -23t26 -61q0 -37 -21 -66.5t-62 -49.5q30 -23 42.5 -43.5t12.5 -46.5q0 -50 -39.5 -83t-100.5 -33q-50 0 -80.5 25t-30.5 65zM228 569q-64 -33 -64 -84q0 -23 13.5 -36.5t37.5 -13.5
q28 0 46.5 17.5t18.5 42.5q0 20 -8 35t-27 28zM215 673q0 -19 7.5 -31t26.5 -24l9 -7q53 29 53 79q0 22 -10.5 33.5t-29.5 11.5q-24 0 -40 -18t-16 -44z" />
    <glyph glyph-name="uni2079" unicode="&#x2079;" horiz-adv-x="336" 
d="M180 440q36 0 63.5 31t40.5 86q-37 -26 -75 -26q-41 0 -64.5 28t-23.5 76q0 65 39 109t95 44q51 0 78.5 -35t27.5 -99q0 -80 -24.5 -142.5t-66 -96t-93.5 -33.5q-49 0 -84 27l10 53q34 -22 77 -22zM236 587q25 0 56 18q2 30 2 47q0 79 -47 79q-25 0 -41.5 -25.5
t-16.5 -63.5q0 -55 47 -55z" />
    <glyph glyph-name="uni207A" unicode="&#x207a;" horiz-adv-x="336" 
d="M256 556l-20 -103h-59l20 103h-92l11 57h92l20 103h59l-20 -103h92l-11 -57h-92z" />
    <glyph glyph-name="uni207B" unicode="&#x207b;" horiz-adv-x="336" 
d="M105 556l11 57h243l-11 -57h-243z" />
    <glyph glyph-name="uni207C" unicode="&#x207c;" horiz-adv-x="336" 
d="M91 484l11 57h243l-11 -57h-243zM119 628l11 57h243l-11 -57h-243z" />
    <glyph glyph-name="uni207D" unicode="&#x207d;" horiz-adv-x="191" 
d="M126 333q-26 77 -26 156q0 189 118 347h69q-120 -163 -120 -354q0 -85 22 -149h-63z" />
    <glyph glyph-name="uni207E" unicode="&#x207e;" horiz-adv-x="191" 
d="M193 836q26 -77 26 -156q0 -189 -118 -347h-69q120 163 120 354q0 85 -22 149h63z" />
    <glyph glyph-name="uni207F" unicode="&#x207f;" horiz-adv-x="348" 
d="M264 390l40 205q13 67 13 91q0 43 -33 43q-21 0 -45 -16t-47 -45l-54 -278h-68l76 389h55l-4 -61q24 33 55 52t62 19q35 0 53.5 -24t18.5 -69q0 -20 -3 -39.5t-12 -65.5l-39 -201h-68z" />
    <glyph glyph-name="uni2080" unicode="&#x2080;" horiz-adv-x="336" 
d="M110 -112q-52 0 -80 35.5t-28 100.5q0 67 22.5 133.5t58.5 101.5t82 35q52 0 80 -35.5t28 -100.5q0 -67 -22.5 -133.5t-58.5 -101.5t-82 -35zM164 233q-28 0 -48 -33t-32 -87.5t-12 -97.5q0 -66 39 -66q28 0 48 33t32 87.5t12 97.5q0 66 -39 66z" />
    <glyph glyph-name="uni2081" unicode="&#x2081;" horiz-adv-x="336" 
d="M96 -104l61 317l-103 -47l12 63l114 57h61l-76 -390h-69z" />
    <glyph glyph-name="uni2082" unicode="&#x2082;" horiz-adv-x="336" 
d="M263 203q0 -30 -14 -60t-48 -69.5t-116 -116.5h143l-12 -61h-226l11 56q85 82 121.5 120.5t52 64.5t15.5 50q0 21 -12 33t-36 12q-41 0 -80 -33l-10 54q48 41 114 41q44 0 70.5 -25t26.5 -66z" />
    <glyph glyph-name="uni2083" unicode="&#x2083;" horiz-adv-x="336" 
d="M154 120q39 -1 62.5 -26t23.5 -65q0 -62 -42.5 -101.5t-107.5 -39.5q-54 0 -95 26l11 54q38 -22 83 -22q36 0 58.5 21t22.5 56q0 49 -62 49q-20 0 -41 -3l8 40l111 117h-130l12 60h204l-11 -54z" />
    <glyph glyph-name="uni2084" unicode="&#x2084;" horiz-adv-x="336" 
d="M131 -104l16 81h-165l11 55l209 254h65l-49 -253h48l-11 -56h-48l-16 -81h-60zM158 33l31 163l-134 -163h103z" />
    <glyph glyph-name="uni2085" unicode="&#x2085;" horiz-adv-x="336" 
d="M137 226l-25 -99q28 4 45 4q39 0 62 -25.5t23 -69.5q0 -66 -42 -107t-108 -41q-53 0 -91 23l11 55q39 -20 79 -20q37 0 59 22t22 58q0 53 -66 53q-21 0 -65 -6l8 40l44 173h183l-12 -60h-127z" />
    <glyph glyph-name="uni2086" unicode="&#x2086;" horiz-adv-x="336" 
d="M269 221q-28 15 -62 15q-43 0 -75.5 -33.5t-47.5 -93.5q45 29 84 29q38 0 60.5 -25.5t22.5 -69.5q0 -65 -39.5 -110t-96.5 -45q-51 0 -79 35t-28 97q0 79 27.5 142t72.5 97.5t98 34.5q40 0 73 -20zM140 82q-28 0 -63 -19q-2 -13 -2 -41q0 -77 47 -77q25 0 43 25.5
t18 62.5q0 49 -43 49z" />
    <glyph glyph-name="uni2087" unicode="&#x2087;" horiz-adv-x="336" 
d="M15 -104l191 328h-162l12 62h235l-11 -57l-189 -333h-76z" />
    <glyph glyph-name="uni2088" unicode="&#x2088;" horiz-adv-x="336" 
d="M0 -22q0 38 25 69t72 52q-23 19 -33 38t-10 43q0 48 37 81t92 33q44 0 70 -23t26 -61q0 -37 -21 -66.5t-62 -49.5q30 -23 42.5 -43.5t12.5 -46.5q0 -50 -39.5 -83t-100.5 -33q-50 0 -80.5 25t-30.5 65zM132 75q-64 -33 -64 -84q0 -23 13.5 -36.5t37.5 -13.5
q28 0 46.5 17.5t18.5 42.5q0 20 -8 35t-27 28zM119 179q0 -19 7.5 -31t26.5 -24l9 -7q53 29 53 79q0 22 -10.5 33.5t-29.5 11.5q-24 0 -40 -18t-16 -44z" />
    <glyph glyph-name="uni2089" unicode="&#x2089;" horiz-adv-x="336" 
d="M84 -54q36 0 63.5 31t40.5 86q-37 -26 -75 -26q-41 0 -64.5 28t-23.5 76q0 65 39 109t95 44q51 0 78.5 -35t27.5 -99q0 -80 -24.5 -142.5t-66 -96t-93.5 -33.5q-49 0 -84 27l10 53q34 -22 77 -22zM140 93q25 0 56 18q2 30 2 47q0 79 -47 79q-25 0 -41.5 -25.5
t-16.5 -63.5q0 -55 47 -55z" />
    <glyph glyph-name="uni208A" unicode="&#x208a;" horiz-adv-x="336" 
d="M160 62l-20 -103h-59l20 103h-92l11 57h92l20 103h59l-20 -103h92l-11 -57h-92z" />
    <glyph glyph-name="uni208B" unicode="&#x208b;" horiz-adv-x="336" 
d="M9 62l11 57h243l-11 -57h-243z" />
    <glyph glyph-name="uni208C" unicode="&#x208c;" horiz-adv-x="336" 
d="M-5 -10l11 57h243l-11 -57h-243zM23 134l11 57h243l-11 -57h-243z" />
    <glyph glyph-name="uni208D" unicode="&#x208d;" horiz-adv-x="191" 
d="M30 -161q-26 77 -26 156q0 189 118 347h69q-120 -163 -120 -354q0 -85 22 -149h-63z" />
    <glyph glyph-name="uni208E" unicode="&#x208e;" horiz-adv-x="191" 
d="M97 342q26 -77 26 -156q0 -189 -118 -347h-69q120 163 120 354q0 85 -22 149h63z" />
    <glyph glyph-name="Euro" unicode="&#x20ac;" 
d="M191 236q4 -81 35.5 -123.5t88.5 -42.5q64 0 122 39l19 -68q-34 -26 -73 -38.5t-88 -12.5q-87 0 -138 64t-56 182h-77l12 62h66q3 51 13 91h-61l12 62h66q27 77 72 133.5t100.5 86.5t116.5 30q39 0 68 -6.5t56 -22.5l-14 -73q-22 12 -45.5 17t-59.5 5q-66 0 -120 -45
t-85 -125h230l-31 -62h-217q-10 -41 -13 -91h195l-31 -62h-163z" />
    <glyph glyph-name="uni20B9" unicode="&#x20b9;" 
d="M402 454q-19 -82 -80.5 -129.5t-148.5 -47.5h-8l172 -277h-102l-163 278l13 64h78q129 0 157 112h-214l12 61h209v5q0 52 -28 79t-83 27h-76l13 67h388l-26 -67h-151q46 -34 46 -105v-6h70l-23 -61h-55z" />
    <glyph glyph-name="uni20BA" unicode="&#x20ba;" 
d="M203 275l-38 -197h21q78 0 122 46.5t62 148.5l4 20h83l-4 -21q-26 -137 -95.5 -204.5t-185.5 -67.5h-110l43 223l-83 -44l13 68l83 44l16 82l-83 -44l13 68l84 44l49 252h88l-39 -200l150 80l-13 -68l-150 -80l-16 -82l150 80l-13 -68z" />
    <glyph glyph-name="uni2105" unicode="&#x2105;" horiz-adv-x="792" 
d="M298 341q-51 -46 -117 -46q-51 0 -79 34t-28 94q0 77 28.5 141.5t73.5 100.5t96 36q44 0 76 -21l-11 -55q-29 13 -60 13q-37 0 -67.5 -28.5t-47.5 -75t-17 -100.5q0 -41 13 -58.5t42 -17.5q36 0 84 33zM572 -8q-58 0 -90 37.5t-32 105.5q0 69 24 132.5t63.5 97t91.5 33.5
q58 0 90 -37.5t32 -105.5q0 -69 -24 -132.5t-63.5 -97t-91.5 -33.5zM625 337q-33 0 -56.5 -29t-36.5 -79t-13 -97q0 -79 57 -79q33 0 56.5 29t36.5 79t13 97q0 79 -57 79zM174 0l386 693h77l-386 -693h-77z" />
    <glyph glyph-name="uni2113" unicode="&#x2113;" horiz-adv-x="351" 
d="M22 195l67 55v340q0 79 30.5 121.5t87.5 42.5q56 0 86 -42.5t30 -124.5q0 -110 -38.5 -200t-113.5 -152v-105q0 -39 13 -57t39 -18q31 0 74 20v-65q-42 -26 -96 -26q-55 0 -83.5 35.5t-28.5 101.5v49l-67 -52v77zM171 320q36 41 55.5 109t19.5 156q0 99 -37 99
q-20 0 -29 -21t-9 -68v-275z" />
    <glyph glyph-name="uni2116" unicode="&#x2116;" horiz-adv-x="842" 
d="M328 0l-118 559l-109 -559h-76l135 693h96l118 -559l109 559h76l-135 -693h-96zM700 343q-52 0 -81 33t-29 92t21.5 114t57 84t81.5 29q52 0 81 -33t29 -92t-21.5 -114t-57 -84t-81.5 -29zM746 640q-29 0 -49 -25t-31 -67.5t-11 -82.5q0 -67 49 -67q29 0 49 25t31 67.5
t11 82.5q0 67 -49 67zM545 219l11 55h244l-11 -55h-244z" />
    <glyph glyph-name="uni2117" unicode="&#x2117;" horiz-adv-x="672" 
d="M354 -7q-94 0 -165 46t-109 125.5t-38 180.5q0 106 40.5 186t111 123t160.5 43q94 0 165 -46t109 -125.5t38 -180.5q0 -106 -40.5 -186t-111 -123t-160.5 -43zM354 52q76 0 132.5 37.5t86.5 103.5t30 152q0 89 -32 155.5t-88 102t-129 35.5q-76 0 -132.5 -37.5
t-86.5 -103.5t-30 -152q0 -89 32 -155.5t88 -102t129 -35.5zM257 147v395h120q49 0 78.5 -35.5t29.5 -93.5t-29.5 -92.5t-78.5 -34.5h-53v-139h-67zM324 340h46q22 0 34.5 19t12.5 53q0 36 -12.5 55.5t-34.5 19.5h-46v-147z" />
    <glyph glyph-name="trademark" unicode="&#x2122;" horiz-adv-x="686" 
d="M638 309v274l-66 -179h-62l-66 179v-274h-60v384h72l86 -225l86 225h70v-384h-60zM172 309v323h-98v61h263v-61h-98v-323h-67z" />
    <glyph glyph-name="uni2126" unicode="&#x2126;" horiz-adv-x="604" 
d="M-1 74h129q-30 49 -47 111t-17 125q0 118 39.5 208.5t107.5 139t154 48.5q101 0 159 -71t58 -195q0 -106 -47.5 -205.5t-125.5 -160.5h125l-13 -74h-232l14 74q86 54 135 149.5t49 211.5q0 93 -34 142t-97 49q-90 0 -143 -84.5t-53 -228.5q0 -157 59 -239l-14 -74h-220z
" />
    <glyph glyph-name="estimated" unicode="&#x212e;" horiz-adv-x="884" 
d="M767 124q-50 -63 -130.5 -98t-176.5 -35q-115 0 -203.5 46.5t-136 126.5t-47.5 180q0 105 52 187t139.5 126.5t194.5 44.5q115 0 203.5 -46.5t136.5 -126t48 -178.5v-15h-624q-6 0 -6 -6v-196q0 -12 9 -22q84 -96 234 -96q74 0 138 28t107 80h62zM698 358q6 0 6 6v193
q0 15 -9 25q-45 45 -107 70t-129 25q-146 0 -234 -98q-8 -10 -8 -25v-190q0 -6 6 -6h475z" />
    <glyph glyph-name="oneseventh" unicode="&#x2150;" horiz-adv-x="790" 
d="M160 0l386 693h77l-386 -693h-77zM487 0l191 328h-162l12 62h235l-11 -57l-189 -333h-76zM175 303l61 317l-103 -47l12 63l114 57h61l-76 -390h-69z" />
    <glyph glyph-name="oneninth" unicode="&#x2151;" horiz-adv-x="790" 
d="M175 0l386 693h77l-386 -693h-77zM556 50q36 0 63.5 31t40.5 86q-37 -26 -75 -26q-41 0 -64.5 28t-23.5 76q0 65 39 109t95 44q51 0 78.5 -35t27.5 -99q0 -80 -24.5 -142.5t-66 -96t-93.5 -33.5q-49 0 -84 27l10 53q34 -22 77 -22zM612 197q25 0 56 18q2 30 2 47
q0 79 -47 79q-25 0 -41.5 -25.5t-16.5 -63.5q0 -55 47 -55zM175 303l61 317l-103 -47l12 63l114 57h61l-76 -390h-69z" />
    <glyph glyph-name="onethird" unicode="&#x2153;" horiz-adv-x="790" 
d="M173 0l386 693h77l-386 -693h-77zM626 224q39 -1 62.5 -26t23.5 -65q0 -62 -42.5 -101.5t-107.5 -39.5q-54 0 -95 26l11 54q38 -22 83 -22q36 0 58.5 21t22.5 56q0 49 -62 49q-20 0 -41 -3l8 40l111 117h-130l12 60h204l-11 -54zM175 303l61 317l-103 -47l12 63l114 57
h61l-76 -390h-69z" />
    <glyph glyph-name="twothirds" unicode="&#x2154;" horiz-adv-x="790" 
d="M191 0l386 693h77l-386 -693h-77zM626 224q39 -1 62.5 -26t23.5 -65q0 -62 -42.5 -101.5t-107.5 -39.5q-54 0 -95 26l11 54q38 -22 83 -22q36 0 58.5 21t22.5 56q0 49 -62 49q-20 0 -41 -3l8 40l111 117h-130l12 60h204l-11 -54zM342 610q0 -30 -14 -60t-48 -69.5
t-116 -116.5h143l-12 -61h-226l11 56q85 82 121.5 120.5t52 64.5t15.5 50q0 21 -12 33t-36 12q-41 0 -80 -33l-10 54q48 41 114 41q44 0 70.5 -25t26.5 -66z" />
    <glyph glyph-name="onefifth" unicode="&#x2155;" horiz-adv-x="790" 
d="M180 0l386 693h77l-386 -693h-77zM609 330l-25 -99q28 4 45 4q39 0 62 -25.5t23 -69.5q0 -66 -42 -107t-108 -41q-53 0 -91 23l11 55q39 -20 79 -20q37 0 59 22t22 58q0 53 -66 53q-21 0 -65 -6l8 40l44 173h183l-12 -60h-127zM175 303l61 317l-103 -47l12 63l114 57h61
l-76 -390h-69z" />
    <glyph glyph-name="twofifths" unicode="&#x2156;" horiz-adv-x="790" 
d="M199 0l386 693h77l-386 -693h-77zM609 330l-25 -99q28 4 45 4q39 0 62 -25.5t23 -69.5q0 -66 -42 -107t-108 -41q-53 0 -91 23l11 55q39 -20 79 -20q37 0 59 22t22 58q0 53 -66 53q-21 0 -65 -6l8 40l44 173h183l-12 -60h-127zM342 610q0 -30 -14 -60t-48 -69.5
t-116 -116.5h143l-12 -61h-226l11 56q85 82 121.5 120.5t52 64.5t15.5 50q0 21 -12 33t-36 12q-41 0 -80 -33l-10 54q48 41 114 41q44 0 70.5 -25t26.5 -66z" />
    <glyph glyph-name="threefifths" unicode="&#x2157;" horiz-adv-x="790" 
d="M190 0l386 693h77l-386 -693h-77zM609 330l-25 -99q28 4 45 4q39 0 62 -25.5t23 -69.5q0 -66 -42 -107t-108 -41q-53 0 -91 23l11 55q39 -20 79 -20q37 0 59 22t22 58q0 53 -66 53q-21 0 -65 -6l8 40l44 173h183l-12 -60h-127zM233 527q39 -1 62.5 -26t23.5 -65
q0 -62 -42.5 -101.5t-107.5 -39.5q-54 0 -95 26l11 54q38 -22 83 -22q36 0 58.5 21t22.5 56q0 49 -62 49q-20 0 -41 -3l8 40l111 117h-130l12 60h204l-11 -54z" />
    <glyph glyph-name="fourfifths" unicode="&#x2158;" horiz-adv-x="790" 
d="M195 0l386 693h77l-386 -693h-77zM609 330l-25 -99q28 4 45 4q39 0 62 -25.5t23 -69.5q0 -66 -42 -107t-108 -41q-53 0 -91 23l11 55q39 -20 79 -20q37 0 59 22t22 58q0 53 -66 53q-21 0 -65 -6l8 40l44 173h183l-12 -60h-127zM210 303l16 81h-165l11 55l209 254h65
l-49 -253h48l-11 -56h-48l-16 -81h-60zM237 440l31 163l-134 -163h103z" />
    <glyph glyph-name="onesixth" unicode="&#x2159;" horiz-adv-x="790" 
d="M184 0l386 693h77l-386 -693h-77zM741 325q-28 15 -62 15q-43 0 -75.5 -33.5t-47.5 -93.5q45 29 84 29q38 0 60.5 -25.5t22.5 -69.5q0 -65 -39.5 -110t-96.5 -45q-51 0 -79 35t-28 97q0 79 27.5 142t72.5 97.5t98 34.5q40 0 73 -20zM612 186q-28 0 -63 -19q-2 -13 -2 -41
q0 -77 47 -77q25 0 43 25.5t18 62.5q0 49 -43 49zM175 303l61 317l-103 -47l12 63l114 57h61l-76 -390h-69z" />
    <glyph glyph-name="fivesixths" unicode="&#x215a;" horiz-adv-x="790" 
d="M189 0l386 693h77l-386 -693h-77zM741 325q-28 15 -62 15q-43 0 -75.5 -33.5t-47.5 -93.5q45 29 84 29q38 0 60.5 -25.5t22.5 -69.5q0 -65 -39.5 -110t-96.5 -45q-51 0 -79 35t-28 97q0 79 27.5 142t72.5 97.5t98 34.5q40 0 73 -20zM612 186q-28 0 -63 -19q-2 -13 -2 -41
q0 -77 47 -77q25 0 43 25.5t18 62.5q0 49 -43 49zM216 633l-25 -99q28 4 45 4q39 0 62 -25.5t23 -69.5q0 -66 -42 -107t-108 -41q-53 0 -91 23l11 55q39 -20 79 -20q37 0 59 22t22 58q0 53 -66 53q-21 0 -65 -6l8 40l44 173h183l-12 -60h-127z" />
    <glyph glyph-name="oneeighth" unicode="&#x215b;" horiz-adv-x="790" 
d="M186 0l386 693h77l-386 -693h-77zM472 82q0 38 25 69t72 52q-23 19 -33 38t-10 43q0 48 37 81t92 33q44 0 70 -23t26 -61q0 -37 -21 -66.5t-62 -49.5q30 -23 42.5 -43.5t12.5 -46.5q0 -50 -39.5 -83t-100.5 -33q-50 0 -80.5 25t-30.5 65zM604 179q-64 -33 -64 -84
q0 -23 13.5 -36.5t37.5 -13.5q28 0 46.5 17.5t18.5 42.5q0 20 -8 35t-27 28zM591 283q0 -19 7.5 -31t26.5 -24l9 -7q53 29 53 79q0 22 -10.5 33.5t-29.5 11.5q-24 0 -40 -18t-16 -44zM175 303l61 317l-103 -47l12 63l114 57h61l-76 -390h-69z" />
    <glyph glyph-name="threeeighths" unicode="&#x215c;" horiz-adv-x="790" 
d="M189 0l386 693h77l-386 -693h-77zM472 82q0 38 25 69t72 52q-23 19 -33 38t-10 43q0 48 37 81t92 33q44 0 70 -23t26 -61q0 -37 -21 -66.5t-62 -49.5q30 -23 42.5 -43.5t12.5 -46.5q0 -50 -39.5 -83t-100.5 -33q-50 0 -80.5 25t-30.5 65zM604 179q-64 -33 -64 -84
q0 -23 13.5 -36.5t37.5 -13.5q28 0 46.5 17.5t18.5 42.5q0 20 -8 35t-27 28zM591 283q0 -19 7.5 -31t26.5 -24l9 -7q53 29 53 79q0 22 -10.5 33.5t-29.5 11.5q-24 0 -40 -18t-16 -44zM233 527q39 -1 62.5 -26t23.5 -65q0 -62 -42.5 -101.5t-107.5 -39.5q-54 0 -95 26l11 54
q38 -22 83 -22q36 0 58.5 21t22.5 56q0 49 -62 49q-20 0 -41 -3l8 40l111 117h-130l12 60h204l-11 -54z" />
    <glyph glyph-name="fiveeighths" unicode="&#x215d;" horiz-adv-x="790" 
d="M190 0l386 693h77l-386 -693h-77zM472 82q0 38 25 69t72 52q-23 19 -33 38t-10 43q0 48 37 81t92 33q44 0 70 -23t26 -61q0 -37 -21 -66.5t-62 -49.5q30 -23 42.5 -43.5t12.5 -46.5q0 -50 -39.5 -83t-100.5 -33q-50 0 -80.5 25t-30.5 65zM604 179q-64 -33 -64 -84
q0 -23 13.5 -36.5t37.5 -13.5q28 0 46.5 17.5t18.5 42.5q0 20 -8 35t-27 28zM591 283q0 -19 7.5 -31t26.5 -24l9 -7q53 29 53 79q0 22 -10.5 33.5t-29.5 11.5q-24 0 -40 -18t-16 -44zM216 633l-25 -99q28 4 45 4q39 0 62 -25.5t23 -69.5q0 -66 -42 -107t-108 -41
q-53 0 -91 23l11 55q39 -20 79 -20q37 0 59 22t22 58q0 53 -66 53q-21 0 -65 -6l8 40l44 173h183l-12 -60h-127z" />
    <glyph glyph-name="seveneighths" unicode="&#x215e;" horiz-adv-x="790" 
d="M160 0l386 693h77l-386 -693h-77zM472 82q0 38 25 69t72 52q-23 19 -33 38t-10 43q0 48 37 81t92 33q44 0 70 -23t26 -61q0 -37 -21 -66.5t-62 -49.5q30 -23 42.5 -43.5t12.5 -46.5q0 -50 -39.5 -83t-100.5 -33q-50 0 -80.5 25t-30.5 65zM604 179q-64 -33 -64 -84
q0 -23 13.5 -36.5t37.5 -13.5q28 0 46.5 17.5t18.5 42.5q0 20 -8 35t-27 28zM591 283q0 -19 7.5 -31t26.5 -24l9 -7q53 29 53 79q0 22 -10.5 33.5t-29.5 11.5q-24 0 -40 -18t-16 -44zM94 303l191 328h-162l12 62h235l-11 -57l-189 -333h-76z" />
    <glyph glyph-name="partialdiff" unicode="&#x2202;" 
d="M235 418q82 0 133 -54q7 63 7 112q0 80 -23 116.5t-73 36.5q-52 0 -111 -38l-11 66q61 49 145 49q161 0 161 -223q0 -144 -38.5 -257.5t-102.5 -176t-142 -62.5q-71 0 -113.5 49t-42.5 132q0 75 27.5 132t75 87.5t108.5 30.5zM188 63q56 0 101 62.5t68 172.5
q-47 50 -116 50q-57 0 -92 -48t-35 -129q0 -50 19.5 -79t54.5 -29z" />
    <glyph glyph-name="uni2206" unicode="&#x2206;" 
d="M415 0h-442l14 72l289 621h104l49 -621zM83 74h253l-25 525z" />
    <glyph glyph-name="product" unicode="&#x220f;" 
d="M287 -120l144 739h-233l-144 -739h-91l158 813h415l-158 -813h-91z" />
    <glyph glyph-name="summation" unicode="&#x2211;" 
d="M76 -43h312l-15 -77h-411l15 77l231 340l-98 319l15 77h382l-15 -77h-293l102 -328z" />
    <glyph glyph-name="minus" unicode="&#x2212;" 
d="M62 311l14 74h383l-14 -74h-383z" />
    <glyph glyph-name="uni2215" unicode="&#x2215;" 
d="M30 0l386 693h77l-386 -693h-77z" />
    <glyph glyph-name="uni2219" unicode="&#x2219;" 
d="M250 260q-25 0 -39.5 15t-14.5 40q0 31 19 52t47 21q25 0 39.5 -15t14.5 -40q0 -31 -19 -52t-47 -21z" />
    <glyph glyph-name="radical" unicode="&#x221a;" 
d="M102 291h-65l14 71h125l23 -269l297 647h88l-353 -740h-94z" />
    <glyph glyph-name="infinity" unicode="&#x221e;" 
d="M177 493q32 0 54 -22.5t38 -71.5q37 51 67.5 72.5t65.5 21.5q39 0 61.5 -31.5t22.5 -82.5q0 -52 -21 -94.5t-54 -66t-70 -23.5q-33 0 -55 22t-38 71q-37 -51 -67 -72t-65 -21q-39 0 -61.5 31.5t-22.5 82.5q0 52 21 94.5t54 66t70 23.5zM380 431q-22 0 -41.5 -18
t-54.5 -71q12 -44 27.5 -64.5t38.5 -20.5q29 0 49.5 32.5t20.5 76.5q0 28 -11 46.5t-29 18.5zM138 257q22 0 41.5 18.5t53.5 70.5q-12 45 -27.5 65t-37.5 20q-29 0 -49.5 -32.5t-20.5 -76.5q0 -28 11 -46.5t29 -18.5z" />
    <glyph glyph-name="integral" unicode="&#x222b;" 
d="M262 587q17 86 55.5 126.5t105.5 40.5q42 0 71 -21l-12 -62q-24 9 -50 9q-33 0 -51 -21t-28 -73l-124 -637q-17 -86 -55.5 -126.5t-105.5 -40.5q-41 0 -70 20l12 63q24 -9 51 -9q33 0 49.5 20.5t27.5 73.5z" />
    <glyph glyph-name="approxequal" unicode="&#x2248;" 
d="M216 201q-23 28 -36.5 38t-27.5 10q-19 0 -31 -15.5t-18 -49.5l-6 -33h-65q3 79 36 124.5t89 45.5q46 0 93 -56q23 -28 36.5 -38t27.5 -10q19 0 31 15.5t18 49.5l6 33h65q-3 -79 -36 -124.5t-89 -45.5q-46 0 -93 56zM261 432q-23 28 -36.5 38t-27.5 10q-19 0 -31 -15.5
t-18 -49.5l-6 -33h-65q3 79 36 124.5t89 45.5q46 0 93 -56q23 -28 36.5 -38t27.5 -10q19 0 31 15.5t18 49.5l6 33h65q-3 -79 -36 -124.5t-89 -45.5q-46 0 -93 56z" />
    <glyph glyph-name="notequal" unicode="&#x2260;" 
d="M197 201l-65 -96h-75l65 96h-82l14 74h118l100 147h-189l14 74h226l65 96h75l-66 -96h83l-14 -74h-119l-100 -147h190l-14 -74h-226z" />
    <glyph glyph-name="lessequal" unicode="&#x2264;" 
d="M96 379l15 76l378 193l-18 -91l-283 -145l227 -144l-16 -82zM7 28l14 74h383l-14 -74h-383z" />
    <glyph glyph-name="greaterequal" unicode="&#x2265;" 
d="M452 455l-15 -76l-378 -193l18 91l283 144l-227 145l16 82zM7 28l14 74h383l-14 -74h-383z" />
    <glyph glyph-name="lozenge" unicode="&#x25ca;" 
d="M149 0l-90 346l226 347h88l90 -347l-226 -346h-88zM205 76l170 279l-58 261l-170 -280z" />
    <glyph glyph-name="uni27E8" unicode="&#x27e8;" horiz-adv-x="272" 
d="M135 294l38 -438h-81l-40 449l209 449h87z" />
    <glyph glyph-name="uni27E9" unicode="&#x27e9;" horiz-adv-x="272" 
d="M-56 -144l213 459l-38 439h81l40 -449l-209 -449h-87z" />
    <glyph glyph-name="twosevenths" unicode="&#xf507;" horiz-adv-x="790" 
d="M183 0l386 693h77l-386 -693h-77zM487 0l191 328h-162l12 62h235l-11 -57l-189 -333h-76zM342 610q0 -30 -14 -60t-48 -69.5t-116 -116.5h143l-12 -61h-226l11 56q85 82 121.5 120.5t52 64.5t15.5 50q0 21 -12 33t-36 12q-41 0 -80 -33l-10 54q48 41 114 41
q44 0 70.5 -25t26.5 -66z" />
    <glyph glyph-name="threesevenths" unicode="&#xf508;" horiz-adv-x="790" 
d="M174 0l386 693h77l-386 -693h-77zM487 0l191 328h-162l12 62h235l-11 -57l-189 -333h-76zM233 527q39 -1 62.5 -26t23.5 -65q0 -62 -42.5 -101.5t-107.5 -39.5q-54 0 -95 26l11 54q38 -22 83 -22q36 0 58.5 21t22.5 56q0 49 -62 49q-20 0 -41 -3l8 40l111 117h-130l12 60
h204l-11 -54z" />
    <glyph glyph-name="foursevenths" unicode="&#xf509;" horiz-adv-x="790" 
d="M180 0l386 693h77l-386 -693h-77zM487 0l191 328h-162l12 62h235l-11 -57l-189 -333h-76zM210 303l16 81h-165l11 55l209 254h65l-49 -253h48l-11 -56h-48l-16 -81h-60zM237 440l31 163l-134 -163h103z" />
    <glyph glyph-name="fivesevenths" unicode="&#xf50a;" horiz-adv-x="790" 
d="M170 0l386 693h77l-386 -693h-77zM487 0l191 328h-162l12 62h235l-11 -57l-189 -333h-76zM216 633l-25 -99q28 4 45 4q39 0 62 -25.5t23 -69.5q0 -66 -42 -107t-108 -41q-53 0 -91 23l11 55q39 -20 79 -20q37 0 59 22t22 58q0 53 -66 53q-21 0 -65 -6l8 40l44 173h183
l-12 -60h-127z" />
    <glyph glyph-name="sixsevenths" unicode="&#xf50b;" horiz-adv-x="790" 
d="M172 0l386 693h77l-386 -693h-77zM487 0l191 328h-162l12 62h235l-11 -57l-189 -333h-76zM348 628q-28 15 -62 15q-43 0 -75.5 -33.5t-47.5 -93.5q45 29 84 29q38 0 60.5 -25.5t22.5 -69.5q0 -65 -39.5 -110t-96.5 -45q-51 0 -79 35t-28 97q0 79 27.5 142t72.5 97.5
t98 34.5q40 0 73 -20zM219 489q-28 0 -63 -19q-2 -13 -2 -41q0 -77 47 -77q25 0 43 25.5t18 62.5q0 49 -43 49z" />
    <glyph glyph-name="twoninths" unicode="&#xf50d;" horiz-adv-x="790" 
d="M191 0l386 693h77l-386 -693h-77zM556 50q36 0 63.5 31t40.5 86q-37 -26 -75 -26q-41 0 -64.5 28t-23.5 76q0 65 39 109t95 44q51 0 78.5 -35t27.5 -99q0 -80 -24.5 -142.5t-66 -96t-93.5 -33.5q-49 0 -84 27l10 53q34 -22 77 -22zM612 197q25 0 56 18q2 30 2 47
q0 79 -47 79q-25 0 -41.5 -25.5t-16.5 -63.5q0 -55 47 -55zM342 610q0 -30 -14 -60t-48 -69.5t-116 -116.5h143l-12 -61h-226l11 56q85 82 121.5 120.5t52 64.5t15.5 50q0 21 -12 33t-36 12q-41 0 -80 -33l-10 54q48 41 114 41q44 0 70.5 -25t26.5 -66z" />
    <glyph glyph-name="fourninths" unicode="&#xf50e;" horiz-adv-x="790" 
d="M194 0l386 693h77l-386 -693h-77zM556 50q36 0 63.5 31t40.5 86q-37 -26 -75 -26q-41 0 -64.5 28t-23.5 76q0 65 39 109t95 44q51 0 78.5 -35t27.5 -99q0 -80 -24.5 -142.5t-66 -96t-93.5 -33.5q-49 0 -84 27l10 53q34 -22 77 -22zM612 197q25 0 56 18q2 30 2 47
q0 79 -47 79q-25 0 -41.5 -25.5t-16.5 -63.5q0 -55 47 -55zM210 303l16 81h-165l11 55l209 254h65l-49 -253h48l-11 -56h-48l-16 -81h-60zM237 440l31 163l-134 -163h103z" />
    <glyph glyph-name="fiveninths" unicode="&#xf50f;" horiz-adv-x="790" 
d="M180 0l386 693h77l-386 -693h-77zM556 50q36 0 63.5 31t40.5 86q-37 -26 -75 -26q-41 0 -64.5 28t-23.5 76q0 65 39 109t95 44q51 0 78.5 -35t27.5 -99q0 -80 -24.5 -142.5t-66 -96t-93.5 -33.5q-49 0 -84 27l10 53q34 -22 77 -22zM612 197q25 0 56 18q2 30 2 47
q0 79 -47 79q-25 0 -41.5 -25.5t-16.5 -63.5q0 -55 47 -55zM216 633l-25 -99q28 4 45 4q39 0 62 -25.5t23 -69.5q0 -66 -42 -107t-108 -41q-53 0 -91 23l11 55q39 -20 79 -20q37 0 59 22t22 58q0 53 -66 53q-21 0 -65 -6l8 40l44 173h183l-12 -60h-127z" />
    <glyph glyph-name="sevenninths" unicode="&#xf510;" horiz-adv-x="790" 
d="M156 0l386 693h77l-386 -693h-77zM556 50q36 0 63.5 31t40.5 86q-37 -26 -75 -26q-41 0 -64.5 28t-23.5 76q0 65 39 109t95 44q51 0 78.5 -35t27.5 -99q0 -80 -24.5 -142.5t-66 -96t-93.5 -33.5q-49 0 -84 27l10 53q34 -22 77 -22zM612 197q25 0 56 18q2 30 2 47
q0 79 -47 79q-25 0 -41.5 -25.5t-16.5 -63.5q0 -55 47 -55zM94 303l191 328h-162l12 62h235l-11 -57l-189 -333h-76z" />
    <glyph glyph-name="eightninths" unicode="&#xf511;" horiz-adv-x="790" 
d="M187 0l386 693h77l-386 -693h-77zM556 50q36 0 63.5 31t40.5 86q-37 -26 -75 -26q-41 0 -64.5 28t-23.5 76q0 65 39 109t95 44q51 0 78.5 -35t27.5 -99q0 -80 -24.5 -142.5t-66 -96t-93.5 -33.5q-49 0 -84 27l10 53q34 -22 77 -22zM612 197q25 0 56 18q2 30 2 47
q0 79 -47 79q-25 0 -41.5 -25.5t-16.5 -63.5q0 -55 47 -55zM79 385q0 38 25 69t72 52q-23 19 -33 38t-10 43q0 48 37 81t92 33q44 0 70 -23t26 -61q0 -37 -21 -66.5t-62 -49.5q30 -23 42.5 -43.5t12.5 -46.5q0 -50 -39.5 -83t-100.5 -33q-50 0 -80.5 25t-30.5 65zM211 482
q-64 -33 -64 -84q0 -23 13.5 -36.5t37.5 -13.5q28 0 46.5 17.5t18.5 42.5q0 20 -8 35t-27 28zM198 586q0 -19 7.5 -31t26.5 -24l9 -7q53 29 53 79q0 22 -10.5 33.5t-29.5 11.5q-24 0 -40 -18t-16 -44z" />
    <glyph glyph-name="uniFEFF" unicode="&#xfeff;" horiz-adv-x="0" 
 />
    <glyph glyph-name="uniFFFD" unicode="&#xfffd;" horiz-adv-x="1000" 
d="M29 340l471 471l471 -471l-471 -471zM609 456q0 -39 -27 -70t-86 -59l-47 -22l9 -136h78v103q85 38 125 85t40 108q0 74 -47.5 115t-132.5 41q-43 0 -85.5 -12t-79.5 -34v-74q80 42 150 42q103 0 103 -87zM500 -6q25 0 40.5 16t15.5 41t-15.5 41t-40.5 16t-40.5 -16
t-15.5 -41t15.5 -41t40.5 -16z" />
    <glyph glyph-name="zero.pnum" horiz-adv-x="491" 
d="M208 -13q-77 0 -117.5 57t-40.5 164q0 95 22.5 192.5t59 166.5t84 104t103.5 35q77 0 117.5 -57t40.5 -164q0 -95 -22.5 -192.5t-59 -166.5t-84 -104t-103.5 -35zM314 627q-40 0 -71.5 -40t-53.5 -107t-35 -148t-13 -142q0 -124 72 -124q40 0 71.5 40t53.5 107t35 148
t13 142q0 124 -72 124z" />
    <glyph glyph-name="one.pnum" horiz-adv-x="347" 
d="M117 0l115 594l-159 -78l16 83l170 94h84l-135 -693h-91z" />
    <glyph glyph-name="two.pnum" horiz-adv-x="431" 
d="M-15 0l15 75q119 129 177 194.5t92 111.5t49.5 81.5t15.5 71.5q0 42 -22.5 65t-63.5 23q-37 0 -70 -15t-74 -49l-13 71q75 77 184 77q70 0 112 -44t42 -118q0 -28 -6.5 -55.5t-22.5 -59t-46.5 -72.5t-83.5 -100t-166 -176h264l-16 -81h-367z" />
    <glyph glyph-name="three.pnum" horiz-adv-x="419" 
d="M4 101q66 -35 142 -35q63 0 101.5 43.5t38.5 115.5q0 50 -28 76t-81 26q-31 0 -61 -5l13 65l211 228h-236l15 78h334l-15 -75l-210 -225h6q64 0 104 -44t40 -115q0 -73 -31.5 -129.5t-85.5 -87t-121 -30.5q-43 0 -82 11t-68 31z" />
    <glyph glyph-name="four.pnum" horiz-adv-x="475" 
d="M232 0l29 151h-256l15 74l341 468h89l-91 -466h82l-15 -76h-82l-29 -151h-83zM276 227l63 324l-234 -324h171z" />
    <glyph glyph-name="five.pnum" horiz-adv-x="420" 
d="M15 101q65 -35 139 -35q64 0 102 45.5t38 121.5q0 55 -27 82t-83 27q-41 0 -111 -11l11 55l73 307h296l-16 -79h-217l-49 -205q33 9 66 9q68 0 108.5 -47t40.5 -127q0 -77 -31.5 -135.5t-85.5 -90t-122 -31.5q-87 0 -146 42z" />
    <glyph glyph-name="six.pnum" horiz-adv-x="479" 
d="M477 604q-45 25 -105 25q-77 0 -133.5 -69.5t-78.5 -190.5q33 22 71.5 35.5t70.5 13.5q66 0 103 -43.5t37 -119.5t-29.5 -138t-78.5 -96t-107 -34q-81 0 -125 60.5t-44 172.5q0 140 43 252t114.5 173t156.5 61q75 0 119 -31zM261 343q-48 0 -109 -36q-4 -36 -4 -84
q0 -78 23.5 -118.5t68.5 -40.5q34 0 58.5 25t38.5 67.5t14 86.5q0 49 -23 74.5t-67 25.5z" />
    <glyph glyph-name="seven.pnum" horiz-adv-x="425" 
d="M34 0l329 612h-277l16 81h373l-15 -76l-326 -617h-100z" />
    <glyph glyph-name="eight.pnum" horiz-adv-x="466" 
d="M476 562q0 -69 -37.5 -122.5t-105.5 -81.5q48 -34 69.5 -73t21.5 -89q0 -61 -29.5 -109t-79.5 -74t-110 -26q-80 0 -127.5 44t-47.5 117q0 75 42.5 133t116.5 86q-65 54 -65 138q0 57 28 103.5t73.5 72t98.5 25.5q69 0 110.5 -39t41.5 -105zM236 334l-3 -1
q-54 -20 -84 -65.5t-30 -106.5q0 -46 25.5 -73t69.5 -27q52 0 87 37t35 90q0 39 -19 71t-58 59zM211 507q0 -67 61 -107l14 -10l7 3q44 17 70 59t26 95q0 42 -20 65t-56 23q-30 0 -53 -17.5t-36 -46.5t-13 -64z" />
    <glyph glyph-name="nine.pnum" horiz-adv-x="476" 
d="M158 64q68 0 119 63t74 175q-31 -21 -64 -32.5t-61 -11.5q-68 0 -107.5 49t-39.5 133q0 77 29.5 138t77.5 94.5t105 33.5q80 0 123.5 -62t43.5 -176q0 -142 -41 -252t-110.5 -169.5t-154.5 -59.5q-73 0 -125 41l14 70q52 -34 117 -34zM262 333q41 0 99 33q7 60 7 109
q0 154 -89 154q-32 0 -57 -25t-38.5 -66t-13.5 -91q0 -56 23.5 -85t68.5 -29z" />
    <glyph glyph-name="florin.crcy" 
d="M312 433l-95 -484q-17 -87 -53 -127t-98 -40q-48 0 -82 20l13 67q30 -10 55 -10q33 0 48.5 19.5t25.5 71.5l94 483h-70l12 60l72 12l16 82q31 167 167 167q42 0 76 -22l-13 -67q-31 12 -59 12q-34 0 -52.5 -19t-26.5 -63l-16 -88h121l-15 -74h-120z" />
    <glyph glyph-name="hyphen.case" horiz-adv-x="334" 
d="M53 313l15 78h251l-15 -78h-251z" />
    <glyph glyph-name="endash.case" horiz-adv-x="400" 
d="M12 315l15 74h400l-15 -74h-400z" />
    <glyph glyph-name="emdash.case" horiz-adv-x="800" 
d="M12 315l15 74h800l-15 -74h-800z" />
    <glyph glyph-name="parenleft.case" horiz-adv-x="272" 
d="M57 166q0 164 53.5 322t155.5 297h89q-100 -143 -151.5 -303.5t-51.5 -328.5q0 -164 30 -266h-82q-20 55 -31.5 128t-11.5 151z" />
    <glyph glyph-name="parenright.case" horiz-adv-x="272" 
d="M247 506q0 -164 -53.5 -322t-155.5 -297h-89q100 143 151.5 303.5t51.5 328.5q0 164 -30 266h82q20 -55 31.5 -128t11.5 -151z" />
    <glyph glyph-name="slash.case" horiz-adv-x="388" 
d="M-55 -113l436 898h93l-436 -898h-93z" />
    <glyph glyph-name="backslash.case" horiz-adv-x="388" 
d="M204 785l95 -898h-84l-95 898h84z" />
    <glyph glyph-name="bracketleft.case" horiz-adv-x="300" 
d="M3 -113l175 898h204l-15 -76h-110l-145 -746h110l-15 -76h-204z" />
    <glyph glyph-name="bracketright.case" horiz-adv-x="300" 
d="M329 785l-175 -898h-204l15 76h110l145 746h-110l15 76h204z" />
    <glyph glyph-name="braceleft.case" horiz-adv-x="312" 
d="M188 -47q23 0 41 7l13 -62q-34 -19 -88 -19q-48 0 -74 28t-26 81q0 25 3 47t15 82l13 66q13 69 13 87q0 22 -10 32t-32 10h-17l15 76h18q30 0 44.5 15t22.5 56l34 176q31 158 150 158q35 0 71 -16l-13 -65q-24 7 -44 7q-30 0 -46.5 -21.5t-26.5 -72.5l-31 -160
q-10 -50 -33 -78t-63 -39q56 -17 56 -74q0 -10 -4.5 -35t-12.5 -65l-13 -68q-16 -87 -16 -104q0 -49 41 -49z" />
    <glyph glyph-name="braceright.case" horiz-adv-x="312" 
d="M156 719q-23 0 -41 -7l-13 62q34 19 88 19q48 0 74 -28t26 -81q0 -25 -3 -47t-15 -82l-13 -66q-13 -69 -13 -87q0 -22 10 -32t32 -10h17l-15 -76h-18q-30 0 -44.5 -15t-22.5 -56l-34 -176q-31 -158 -150 -158q-35 0 -71 16l13 65q24 -7 44 -7q30 0 46.5 21.5t26.5 72.5
l31 160q10 49 33 77t62 39q-55 16 -55 75q0 10 4.5 35t12.5 65l13 68q16 87 16 104q0 49 -41 49z" />
    <glyph glyph-name="bullet.case" horiz-adv-x="312" 
d="M161 220q-50 0 -80.5 31t-30.5 81q0 65 39.5 108.5t97.5 43.5q50 0 80.5 -31t30.5 -81q0 -65 -39.5 -108.5t-97.5 -43.5z" />
    <glyph glyph-name="guilsinglleft.case" horiz-adv-x="286" 
d="M151 344l66 -200h-82l-74 208l149 208h88z" />
    <glyph glyph-name="guilsinglright.case" horiz-adv-x="286" 
d="M26 144l147 216l-66 200h82l74 -208l-149 -208h-88z" />
    <glyph glyph-name="guillemotleft.case" horiz-adv-x="453" 
d="M151 344l66 -200h-82l-74 208l149 208h88zM318 344l66 -200h-82l-74 208l149 208h88z" />
    <glyph glyph-name="guillemotright.case" horiz-adv-x="453" 
d="M26 144l147 216l-66 200h82l74 -208l-149 -208h-88zM193 144l147 216l-66 200h82l74 -208l-149 -208h-88z" />
    <glyph glyph-name="at.case" horiz-adv-x="805" 
d="M482 -75q-74 -38 -163 -38q-86 0 -148 36t-94.5 103t-32.5 160q0 160 67 292t173 206t223 74q87 0 152 -36t99 -101.5t34 -154.5q0 -105 -34.5 -193.5t-88 -138.5t-111.5 -50q-39 0 -63 22.5t-28 63.5q-32 -43 -69 -65.5t-73 -22.5q-43 0 -66 33t-23 94q0 95 37.5 177
t94 128.5t117.5 46.5q33 0 66.5 -8.5t60.5 -23.5l-58 -244q-13 -55 -13 -91q0 -21 8.5 -32t23.5 -11q36 0 70 49t53.5 119t19.5 142q0 111 -57 168.5t-164 57.5q-100 0 -186.5 -72t-135 -183.5t-48.5 -237.5q0 -113 54.5 -174.5t153.5 -61.5q66 0 141 27zM359 151
q26 0 55.5 22t55.5 61q11 87 55 243l2 9q-20 8 -51 8q-41 0 -78 -41.5t-58.5 -103.5t-21.5 -126q0 -72 41 -72z" />
    <glyph glyph-name="periodcentered.case" horiz-adv-x="226" 
d="M126 291q-25 0 -39.5 15t-14.5 40q0 31 19 52t47 21q25 0 39.5 -15t14.5 -40q0 -31 -19 -52t-47 -21z" />
    <glyph glyph-name="periodcentered.locl_CAT" horiz-adv-x="226" 
d="M128 307q-23 0 -36.5 13t-13.5 35q0 27 17.5 45.5t43.5 18.5q23 0 36.5 -13t13.5 -35q0 -27 -17.5 -45.5t-43.5 -18.5z" />
    <glyph glyph-name="periodcentered.locl_CAT.cap" horiz-adv-x="226" 
d="M131 321q-23 0 -36.5 13t-13.5 35q0 27 17.5 45.5t43.5 18.5q23 0 36.5 -13t13.5 -35q0 -27 -17.5 -45.5t-43.5 -18.5z" />
    <glyph glyph-name="uni0327.cap" horiz-adv-x="0" 
d="M-103 -240q83 60 83 97q0 21 -24 21q-14 0 -27 -3l10 53q25 9 52 9q30 0 47 -17t17 -45q0 -42 -31 -79.5t-97 -75.5z" />
    <glyph glyph-name="uni0326.cap" horiz-adv-x="0" 
d="M-103 -277l69 212h39q36 0 36 -26q0 -6 -3 -13.5t-9 -20.5t-16 -33l-59 -119h-57z" />
    <glyph glyph-name="uni0328.cap" horiz-adv-x="0" 
d="M-4 -195q-42 -24 -86 -24q-39 0 -59 18.5t-20 51.5q0 86 121 162l48 -13q-46 -38 -68 -69t-22 -59q0 -31 29 -31q17 0 39 11z" />
    <glyph glyph-name="uni0328.round" horiz-adv-x="0" 
d="M-184 -152q0 57 51.5 111t140.5 90l-8 -39q-47 -26 -77 -64.5t-30 -75.5q0 -15 8.5 -23t22.5 -8q16 0 38 11l17 -45q-42 -24 -84 -24q-38 0 -58.5 17.5t-20.5 49.5z" />
    <glyph glyph-name="uni0328.round.cap" horiz-adv-x="0" 
d="M-186 -152q0 57 52.5 112t141.5 91l-8 -41q-47 -26 -77 -64.5t-30 -75.5q0 -29 31 -29q17 0 39 11l18 -47q-42 -24 -86 -24q-38 0 -59.5 17.5t-21.5 49.5z" />
    <glyph glyph-name="iogonek.dotless" horiz-adv-x="228" 
d="M118 507h91l-99 -507h-91zM106 -195q-42 -24 -84 -24q-39 0 -59 18.5t-20 51.5q0 86 121 162l46 -13q-47 -38 -68.5 -69t-21.5 -59q0 -33 31 -33q16 0 38 11z" />
    <glyph glyph-name="acutecomb.cap" horiz-adv-x="0" 
d="M41 769h-82l101 122h106z" />
    <glyph glyph-name="uni030B.cap" horiz-adv-x="0" 
d="M-62 769h-77l96 121h107zM114 769h-77l96 121h107z" />
    <glyph glyph-name="gravecomb.cap" horiz-adv-x="0" 
d="M-43 769l-81 122h101l57 -122h-77z" />
    <glyph glyph-name="uni0302.cap" horiz-adv-x="0" 
d="M18 851l-89 -80h-78l128 130h92l78 -130h-72z" />
    <glyph glyph-name="tildecomb.cap" horiz-adv-x="0" 
d="M104 895h55q0 -14 -4 -31q-10 -45 -35 -69.5t-60 -24.5q-19 0 -33.5 8t-30.5 28q-17 21 -23.5 26.5t-14.5 5.5q-10 0 -16.5 -9t-12.5 -31l-7 -25h-55q0 14 4 31q9 44 34 69t60 25q20 0 35 -8.5t30 -28.5q15 -18 22 -24.5t16 -6.5q21 0 30 39z" />
    <glyph glyph-name="uni030C.cap" horiz-adv-x="0" 
d="M-46 901l48 -94l84 94h86l-128 -130h-92l-78 130h80z" />
    <glyph glyph-name="uni0315.short" horiz-adv-x="0" 
d="M-29 575l33 172q21 9 44 9q26 0 42 -14l-61 -167h-58z" />
    <glyph glyph-name="uni0304.cap" horiz-adv-x="0" 
d="M-120 801l12 63h257l-12 -63h-257z" />
    <glyph glyph-name="uni0304.wide" horiz-adv-x="0" 
d="M-227 635l13 66h480l-13 -66h-480z" />
    </font>
</defs>
</svg>
